G04 #@! TF.GenerationSoftware,KiCad,Pcbnew,(5.1.7)-1*
G04 #@! TF.CreationDate,2020-12-23T01:42:00+01:00*
G04 #@! TF.ProjectId,speichermodul,73706569-6368-4657-926d-6f64756c2e6b,rev?*
G04 #@! TF.SameCoordinates,Original*
G04 #@! TF.FileFunction,Legend,Bot*
G04 #@! TF.FilePolarity,Positive*
%FSLAX46Y46*%
G04 Gerber Fmt 4.6, Leading zero omitted, Abs format (unit mm)*
G04 Created by KiCad (PCBNEW (5.1.7)-1) date 2020-12-23 01:42:00*
%MOMM*%
%LPD*%
G01*
G04 APERTURE LIST*
%ADD10C,0.150000*%
%ADD11C,0.170000*%
G04 APERTURE END LIST*
D10*
X66053690Y-183602380D02*
X66053690Y-184316666D01*
X66101309Y-184459523D01*
X66196547Y-184554761D01*
X66339404Y-184602380D01*
X66434642Y-184602380D01*
X65101309Y-184602380D02*
X65577500Y-184602380D01*
X65577500Y-183602380D01*
X64196547Y-184507142D02*
X64244166Y-184554761D01*
X64387023Y-184602380D01*
X64482261Y-184602380D01*
X64625119Y-184554761D01*
X64720357Y-184459523D01*
X64767976Y-184364285D01*
X64815595Y-184173809D01*
X64815595Y-184030952D01*
X64767976Y-183840476D01*
X64720357Y-183745238D01*
X64625119Y-183650000D01*
X64482261Y-183602380D01*
X64387023Y-183602380D01*
X64244166Y-183650000D01*
X64196547Y-183697619D01*
X63482261Y-183602380D02*
X63482261Y-184316666D01*
X63529880Y-184459523D01*
X63625119Y-184554761D01*
X63767976Y-184602380D01*
X63863214Y-184602380D01*
X62529880Y-184602380D02*
X63006071Y-184602380D01*
X63006071Y-183602380D01*
X61625119Y-184507142D02*
X61672738Y-184554761D01*
X61815595Y-184602380D01*
X61910833Y-184602380D01*
X62053690Y-184554761D01*
X62148928Y-184459523D01*
X62196547Y-184364285D01*
X62244166Y-184173809D01*
X62244166Y-184030952D01*
X62196547Y-183840476D01*
X62148928Y-183745238D01*
X62053690Y-183650000D01*
X61910833Y-183602380D01*
X61815595Y-183602380D01*
X61672738Y-183650000D01*
X61625119Y-183697619D01*
X60910833Y-183602380D02*
X60910833Y-184316666D01*
X60958452Y-184459523D01*
X61053690Y-184554761D01*
X61196547Y-184602380D01*
X61291785Y-184602380D01*
X59958452Y-184602380D02*
X60434642Y-184602380D01*
X60434642Y-183602380D01*
X59053690Y-184507142D02*
X59101309Y-184554761D01*
X59244166Y-184602380D01*
X59339404Y-184602380D01*
X59482261Y-184554761D01*
X59577500Y-184459523D01*
X59625119Y-184364285D01*
X59672738Y-184173809D01*
X59672738Y-184030952D01*
X59625119Y-183840476D01*
X59577500Y-183745238D01*
X59482261Y-183650000D01*
X59339404Y-183602380D01*
X59244166Y-183602380D01*
X59101309Y-183650000D01*
X59053690Y-183697619D01*
X58339404Y-183602380D02*
X58339404Y-184316666D01*
X58387023Y-184459523D01*
X58482261Y-184554761D01*
X58625119Y-184602380D01*
X58720357Y-184602380D01*
X57387023Y-184602380D02*
X57863214Y-184602380D01*
X57863214Y-183602380D01*
X56482261Y-184507142D02*
X56529880Y-184554761D01*
X56672738Y-184602380D01*
X56767976Y-184602380D01*
X56910833Y-184554761D01*
X57006071Y-184459523D01*
X57053690Y-184364285D01*
X57101309Y-184173809D01*
X57101309Y-184030952D01*
X57053690Y-183840476D01*
X57006071Y-183745238D01*
X56910833Y-183650000D01*
X56767976Y-183602380D01*
X56672738Y-183602380D01*
X56529880Y-183650000D01*
X56482261Y-183697619D01*
D11*
X51086404Y-184602380D02*
X51086404Y-183935714D01*
X51086404Y-184126190D02*
X51038785Y-184030952D01*
X50991166Y-183983333D01*
X50895928Y-183935714D01*
X50800690Y-183935714D01*
X50086404Y-184554761D02*
X50181642Y-184602380D01*
X50372119Y-184602380D01*
X50467357Y-184554761D01*
X50514976Y-184459523D01*
X50514976Y-184078571D01*
X50467357Y-183983333D01*
X50372119Y-183935714D01*
X50181642Y-183935714D01*
X50086404Y-183983333D01*
X50038785Y-184078571D01*
X50038785Y-184173809D01*
X50514976Y-184269047D01*
X49705452Y-183935714D02*
X49467357Y-184602380D01*
X49229261Y-183935714D01*
X48134023Y-183697619D02*
X48086404Y-183650000D01*
X47991166Y-183602380D01*
X47753071Y-183602380D01*
X47657833Y-183650000D01*
X47610214Y-183697619D01*
X47562595Y-183792857D01*
X47562595Y-183888095D01*
X47610214Y-184030952D01*
X48181642Y-184602380D01*
X47562595Y-184602380D01*
X47134023Y-184507142D02*
X47086404Y-184554761D01*
X47134023Y-184602380D01*
X47181642Y-184554761D01*
X47134023Y-184507142D01*
X47134023Y-184602380D01*
X46467357Y-183602380D02*
X46372119Y-183602380D01*
X46276880Y-183650000D01*
X46229261Y-183697619D01*
X46181642Y-183792857D01*
X46134023Y-183983333D01*
X46134023Y-184221428D01*
X46181642Y-184411904D01*
X46229261Y-184507142D01*
X46276880Y-184554761D01*
X46372119Y-184602380D01*
X46467357Y-184602380D01*
X46562595Y-184554761D01*
X46610214Y-184507142D01*
X46657833Y-184411904D01*
X46705452Y-184221428D01*
X46705452Y-183983333D01*
X46657833Y-183792857D01*
X46610214Y-183697619D01*
X46562595Y-183650000D01*
X46467357Y-183602380D01*
M02*
