G04 #@! TF.GenerationSoftware,KiCad,Pcbnew,(5.1.7)-1*
G04 #@! TF.CreationDate,2020-12-28T01:07:41+01:00*
G04 #@! TF.ProjectId,speichermodul,73706569-6368-4657-926d-6f64756c2e6b,rev?*
G04 #@! TF.SameCoordinates,Original*
G04 #@! TF.FileFunction,Soldermask,Bot*
G04 #@! TF.FilePolarity,Negative*
%FSLAX46Y46*%
G04 Gerber Fmt 4.6, Leading zero omitted, Abs format (unit mm)*
G04 Created by KiCad (PCBNEW (5.1.7)-1) date 2020-12-28 01:07:41*
%MOMM*%
%LPD*%
G01*
G04 APERTURE LIST*
%ADD10C,1.760000*%
%ADD11O,1.760000X2.560000*%
%ADD12C,3.660000*%
%ADD13O,1.960000X1.960000*%
%ADD14O,1.760000X1.760000*%
%ADD15O,1.860000X1.860000*%
%ADD16O,2.560000X1.760000*%
%ADD17C,1.960000*%
%ADD18C,2.160000*%
%ADD19C,1.260000*%
%ADD20O,1.900000X2.350000*%
%ADD21O,2.350000X1.900000*%
%ADD22C,0.100000*%
G04 APERTURE END LIST*
D10*
X61515000Y-52705000D03*
X56515000Y-52705000D03*
G36*
G01*
X79540000Y-160030000D02*
X77940000Y-160030000D01*
G75*
G02*
X77860000Y-159950000I0J80000D01*
G01*
X77860000Y-157550000D01*
G75*
G02*
X77940000Y-157470000I80000J0D01*
G01*
X79540000Y-157470000D01*
G75*
G02*
X79620000Y-157550000I0J-80000D01*
G01*
X79620000Y-159950000D01*
G75*
G02*
X79540000Y-160030000I-80000J0D01*
G01*
G37*
D11*
X101600000Y-151130000D03*
X81280000Y-158750000D03*
X99060000Y-151130000D03*
X83820000Y-158750000D03*
X96520000Y-151130000D03*
X86360000Y-158750000D03*
X93980000Y-151130000D03*
X88900000Y-158750000D03*
X91440000Y-151130000D03*
X91440000Y-158750000D03*
X88900000Y-151130000D03*
X93980000Y-158750000D03*
X86360000Y-151130000D03*
X96520000Y-158750000D03*
X83820000Y-151130000D03*
X99060000Y-158750000D03*
X81280000Y-151130000D03*
X101600000Y-158750000D03*
X78740000Y-151130000D03*
D12*
X40560000Y-182940000D03*
X130560000Y-182940000D03*
X130560000Y-32940000D03*
X40560000Y-32940000D03*
D13*
X54610000Y-44450000D03*
G36*
G01*
X53710000Y-33310000D02*
X55510000Y-33310000D01*
G75*
G02*
X55590000Y-33390000I0J-80000D01*
G01*
X55590000Y-35190000D01*
G75*
G02*
X55510000Y-35270000I-80000J0D01*
G01*
X53710000Y-35270000D01*
G75*
G02*
X53630000Y-35190000I0J80000D01*
G01*
X53630000Y-33390000D01*
G75*
G02*
X53710000Y-33310000I80000J0D01*
G01*
G37*
D10*
X40045000Y-42545000D03*
G36*
G01*
X43425000Y-41745000D02*
X43425000Y-43345000D01*
G75*
G02*
X43345000Y-43425000I-80000J0D01*
G01*
X41745000Y-43425000D01*
G75*
G02*
X41665000Y-43345000I0J80000D01*
G01*
X41665000Y-41745000D01*
G75*
G02*
X41745000Y-41665000I80000J0D01*
G01*
X43345000Y-41665000D01*
G75*
G02*
X43425000Y-41745000I0J-80000D01*
G01*
G37*
D14*
X120650000Y-83820000D03*
X120650000Y-81280000D03*
X120650000Y-78740000D03*
X120650000Y-76200000D03*
G36*
G01*
X119850000Y-72780000D02*
X121450000Y-72780000D01*
G75*
G02*
X121530000Y-72860000I0J-80000D01*
G01*
X121530000Y-74460000D01*
G75*
G02*
X121450000Y-74540000I-80000J0D01*
G01*
X119850000Y-74540000D01*
G75*
G02*
X119770000Y-74460000I0J80000D01*
G01*
X119770000Y-72860000D01*
G75*
G02*
X119850000Y-72780000I80000J0D01*
G01*
G37*
D15*
X124460000Y-76200000D03*
X127000000Y-76200000D03*
X124460000Y-78740000D03*
X127000000Y-78740000D03*
X124460000Y-81280000D03*
G36*
G01*
X127930000Y-80430000D02*
X127930000Y-82130000D01*
G75*
G02*
X127850000Y-82210000I-80000J0D01*
G01*
X126150000Y-82210000D01*
G75*
G02*
X126070000Y-82130000I0J80000D01*
G01*
X126070000Y-80430000D01*
G75*
G02*
X126150000Y-80350000I80000J0D01*
G01*
X127850000Y-80350000D01*
G75*
G02*
X127930000Y-80430000I0J-80000D01*
G01*
G37*
X99695000Y-183515000D03*
X99695000Y-180975000D03*
X102235000Y-183515000D03*
X102235000Y-180975000D03*
X104775000Y-183515000D03*
X104775000Y-180975000D03*
X107315000Y-183515000D03*
X107315000Y-180975000D03*
X109855000Y-183515000D03*
X109855000Y-180975000D03*
X112395000Y-183515000D03*
X112395000Y-180975000D03*
X114935000Y-183515000D03*
X114935000Y-180975000D03*
X117475000Y-183515000D03*
X117475000Y-180975000D03*
X120015000Y-183515000D03*
X120015000Y-180975000D03*
X122555000Y-183515000D03*
G36*
G01*
X121705000Y-180045000D02*
X123405000Y-180045000D01*
G75*
G02*
X123485000Y-180125000I0J-80000D01*
G01*
X123485000Y-181825000D01*
G75*
G02*
X123405000Y-181905000I-80000J0D01*
G01*
X121705000Y-181905000D01*
G75*
G02*
X121625000Y-181825000I0J80000D01*
G01*
X121625000Y-180125000D01*
G75*
G02*
X121705000Y-180045000I80000J0D01*
G01*
G37*
X130810000Y-64135000D03*
X128270000Y-64135000D03*
X130810000Y-61595000D03*
X128270000Y-61595000D03*
X130810000Y-59055000D03*
X128270000Y-59055000D03*
X130810000Y-56515000D03*
X128270000Y-56515000D03*
X130810000Y-53975000D03*
X128270000Y-53975000D03*
X130810000Y-51435000D03*
X128270000Y-51435000D03*
X130810000Y-48895000D03*
X128270000Y-48895000D03*
X130810000Y-46355000D03*
X128270000Y-46355000D03*
X130810000Y-43815000D03*
X128270000Y-43815000D03*
X130810000Y-41275000D03*
G36*
G01*
X127340000Y-42125000D02*
X127340000Y-40425000D01*
G75*
G02*
X127420000Y-40345000I80000J0D01*
G01*
X129120000Y-40345000D01*
G75*
G02*
X129200000Y-40425000I0J-80000D01*
G01*
X129200000Y-42125000D01*
G75*
G02*
X129120000Y-42205000I-80000J0D01*
G01*
X127420000Y-42205000D01*
G75*
G02*
X127340000Y-42125000I0J80000D01*
G01*
G37*
G36*
G01*
X99050000Y-74460000D02*
X99050000Y-72860000D01*
G75*
G02*
X99130000Y-72780000I80000J0D01*
G01*
X101530000Y-72780000D01*
G75*
G02*
X101610000Y-72860000I0J-80000D01*
G01*
X101610000Y-74460000D01*
G75*
G02*
X101530000Y-74540000I-80000J0D01*
G01*
X99130000Y-74540000D01*
G75*
G02*
X99050000Y-74460000I0J80000D01*
G01*
G37*
D16*
X115570000Y-101600000D03*
X100330000Y-76200000D03*
X115570000Y-99060000D03*
X100330000Y-78740000D03*
X115570000Y-96520000D03*
X100330000Y-81280000D03*
X115570000Y-93980000D03*
X100330000Y-83820000D03*
X115570000Y-91440000D03*
X100330000Y-86360000D03*
X115570000Y-88900000D03*
X100330000Y-88900000D03*
X115570000Y-86360000D03*
X100330000Y-91440000D03*
X115570000Y-83820000D03*
X100330000Y-93980000D03*
X115570000Y-81280000D03*
X100330000Y-96520000D03*
X115570000Y-78740000D03*
X100330000Y-99060000D03*
X115570000Y-76200000D03*
X100330000Y-101600000D03*
X115570000Y-73660000D03*
D11*
X76835000Y-57150000D03*
X99695000Y-64770000D03*
X79375000Y-57150000D03*
X97155000Y-64770000D03*
X81915000Y-57150000D03*
X94615000Y-64770000D03*
X84455000Y-57150000D03*
X92075000Y-64770000D03*
X86995000Y-57150000D03*
X89535000Y-64770000D03*
X89535000Y-57150000D03*
X86995000Y-64770000D03*
X92075000Y-57150000D03*
X84455000Y-64770000D03*
X94615000Y-57150000D03*
X81915000Y-64770000D03*
X97155000Y-57150000D03*
X79375000Y-64770000D03*
X99695000Y-57150000D03*
G36*
G01*
X77635000Y-66050000D02*
X76035000Y-66050000D01*
G75*
G02*
X75955000Y-65970000I0J80000D01*
G01*
X75955000Y-63570000D01*
G75*
G02*
X76035000Y-63490000I80000J0D01*
G01*
X77635000Y-63490000D01*
G75*
G02*
X77715000Y-63570000I0J-80000D01*
G01*
X77715000Y-65970000D01*
G75*
G02*
X77635000Y-66050000I-80000J0D01*
G01*
G37*
D10*
X74930000Y-152400000D03*
X74930000Y-157400000D03*
X116285000Y-69850000D03*
X121285000Y-69850000D03*
X45720000Y-63500000D03*
X45720000Y-58500000D03*
X73025000Y-63500000D03*
X73025000Y-58500000D03*
X43815000Y-98425000D03*
X43815000Y-93425000D03*
X43815000Y-116760000D03*
X43815000Y-111760000D03*
X45720000Y-78660000D03*
X45720000Y-73660000D03*
D17*
X73025000Y-36195000D03*
G36*
G01*
X73925000Y-39715000D02*
X72125000Y-39715000D01*
G75*
G02*
X72045000Y-39635000I0J80000D01*
G01*
X72045000Y-37835000D01*
G75*
G02*
X72125000Y-37755000I80000J0D01*
G01*
X73925000Y-37755000D01*
G75*
G02*
X74005000Y-37835000I0J-80000D01*
G01*
X74005000Y-39635000D01*
G75*
G02*
X73925000Y-39715000I-80000J0D01*
G01*
G37*
X78105000Y-36195000D03*
G36*
G01*
X79005000Y-39715000D02*
X77205000Y-39715000D01*
G75*
G02*
X77125000Y-39635000I0J80000D01*
G01*
X77125000Y-37835000D01*
G75*
G02*
X77205000Y-37755000I80000J0D01*
G01*
X79005000Y-37755000D01*
G75*
G02*
X79085000Y-37835000I0J-80000D01*
G01*
X79085000Y-39635000D01*
G75*
G02*
X79005000Y-39715000I-80000J0D01*
G01*
G37*
X83185000Y-36195000D03*
G36*
G01*
X84085000Y-39715000D02*
X82285000Y-39715000D01*
G75*
G02*
X82205000Y-39635000I0J80000D01*
G01*
X82205000Y-37835000D01*
G75*
G02*
X82285000Y-37755000I80000J0D01*
G01*
X84085000Y-37755000D01*
G75*
G02*
X84165000Y-37835000I0J-80000D01*
G01*
X84165000Y-39635000D01*
G75*
G02*
X84085000Y-39715000I-80000J0D01*
G01*
G37*
X88265000Y-36195000D03*
G36*
G01*
X89165000Y-39715000D02*
X87365000Y-39715000D01*
G75*
G02*
X87285000Y-39635000I0J80000D01*
G01*
X87285000Y-37835000D01*
G75*
G02*
X87365000Y-37755000I80000J0D01*
G01*
X89165000Y-37755000D01*
G75*
G02*
X89245000Y-37835000I0J-80000D01*
G01*
X89245000Y-39635000D01*
G75*
G02*
X89165000Y-39715000I-80000J0D01*
G01*
G37*
X93345000Y-36195000D03*
G36*
G01*
X94245000Y-39715000D02*
X92445000Y-39715000D01*
G75*
G02*
X92365000Y-39635000I0J80000D01*
G01*
X92365000Y-37835000D01*
G75*
G02*
X92445000Y-37755000I80000J0D01*
G01*
X94245000Y-37755000D01*
G75*
G02*
X94325000Y-37835000I0J-80000D01*
G01*
X94325000Y-39635000D01*
G75*
G02*
X94245000Y-39715000I-80000J0D01*
G01*
G37*
X98425000Y-36195000D03*
G36*
G01*
X99325000Y-39715000D02*
X97525000Y-39715000D01*
G75*
G02*
X97445000Y-39635000I0J80000D01*
G01*
X97445000Y-37835000D01*
G75*
G02*
X97525000Y-37755000I80000J0D01*
G01*
X99325000Y-37755000D01*
G75*
G02*
X99405000Y-37835000I0J-80000D01*
G01*
X99405000Y-39635000D01*
G75*
G02*
X99325000Y-39715000I-80000J0D01*
G01*
G37*
X103505000Y-36195000D03*
G36*
G01*
X104405000Y-39715000D02*
X102605000Y-39715000D01*
G75*
G02*
X102525000Y-39635000I0J80000D01*
G01*
X102525000Y-37835000D01*
G75*
G02*
X102605000Y-37755000I80000J0D01*
G01*
X104405000Y-37755000D01*
G75*
G02*
X104485000Y-37835000I0J-80000D01*
G01*
X104485000Y-39635000D01*
G75*
G02*
X104405000Y-39715000I-80000J0D01*
G01*
G37*
X108585000Y-36195000D03*
G36*
G01*
X109485000Y-39715000D02*
X107685000Y-39715000D01*
G75*
G02*
X107605000Y-39635000I0J80000D01*
G01*
X107605000Y-37835000D01*
G75*
G02*
X107685000Y-37755000I80000J0D01*
G01*
X109485000Y-37755000D01*
G75*
G02*
X109565000Y-37835000I0J-80000D01*
G01*
X109565000Y-39635000D01*
G75*
G02*
X109485000Y-39715000I-80000J0D01*
G01*
G37*
G36*
G01*
X75830000Y-132425000D02*
X74030000Y-132425000D01*
G75*
G02*
X73950000Y-132345000I0J80000D01*
G01*
X73950000Y-130545000D01*
G75*
G02*
X74030000Y-130465000I80000J0D01*
G01*
X75830000Y-130465000D01*
G75*
G02*
X75910000Y-130545000I0J-80000D01*
G01*
X75910000Y-132345000D01*
G75*
G02*
X75830000Y-132425000I-80000J0D01*
G01*
G37*
X74930000Y-128905000D03*
G36*
G01*
X80910000Y-132425000D02*
X79110000Y-132425000D01*
G75*
G02*
X79030000Y-132345000I0J80000D01*
G01*
X79030000Y-130545000D01*
G75*
G02*
X79110000Y-130465000I80000J0D01*
G01*
X80910000Y-130465000D01*
G75*
G02*
X80990000Y-130545000I0J-80000D01*
G01*
X80990000Y-132345000D01*
G75*
G02*
X80910000Y-132425000I-80000J0D01*
G01*
G37*
X80010000Y-128905000D03*
G36*
G01*
X85990000Y-132425000D02*
X84190000Y-132425000D01*
G75*
G02*
X84110000Y-132345000I0J80000D01*
G01*
X84110000Y-130545000D01*
G75*
G02*
X84190000Y-130465000I80000J0D01*
G01*
X85990000Y-130465000D01*
G75*
G02*
X86070000Y-130545000I0J-80000D01*
G01*
X86070000Y-132345000D01*
G75*
G02*
X85990000Y-132425000I-80000J0D01*
G01*
G37*
X85090000Y-128905000D03*
G36*
G01*
X91070000Y-132425000D02*
X89270000Y-132425000D01*
G75*
G02*
X89190000Y-132345000I0J80000D01*
G01*
X89190000Y-130545000D01*
G75*
G02*
X89270000Y-130465000I80000J0D01*
G01*
X91070000Y-130465000D01*
G75*
G02*
X91150000Y-130545000I0J-80000D01*
G01*
X91150000Y-132345000D01*
G75*
G02*
X91070000Y-132425000I-80000J0D01*
G01*
G37*
X90170000Y-128905000D03*
G36*
G01*
X96150000Y-132425000D02*
X94350000Y-132425000D01*
G75*
G02*
X94270000Y-132345000I0J80000D01*
G01*
X94270000Y-130545000D01*
G75*
G02*
X94350000Y-130465000I80000J0D01*
G01*
X96150000Y-130465000D01*
G75*
G02*
X96230000Y-130545000I0J-80000D01*
G01*
X96230000Y-132345000D01*
G75*
G02*
X96150000Y-132425000I-80000J0D01*
G01*
G37*
X95250000Y-128905000D03*
G36*
G01*
X101230000Y-132425000D02*
X99430000Y-132425000D01*
G75*
G02*
X99350000Y-132345000I0J80000D01*
G01*
X99350000Y-130545000D01*
G75*
G02*
X99430000Y-130465000I80000J0D01*
G01*
X101230000Y-130465000D01*
G75*
G02*
X101310000Y-130545000I0J-80000D01*
G01*
X101310000Y-132345000D01*
G75*
G02*
X101230000Y-132425000I-80000J0D01*
G01*
G37*
X100330000Y-128905000D03*
G36*
G01*
X106310000Y-132425000D02*
X104510000Y-132425000D01*
G75*
G02*
X104430000Y-132345000I0J80000D01*
G01*
X104430000Y-130545000D01*
G75*
G02*
X104510000Y-130465000I80000J0D01*
G01*
X106310000Y-130465000D01*
G75*
G02*
X106390000Y-130545000I0J-80000D01*
G01*
X106390000Y-132345000D01*
G75*
G02*
X106310000Y-132425000I-80000J0D01*
G01*
G37*
X105410000Y-128905000D03*
G36*
G01*
X111390000Y-132425000D02*
X109590000Y-132425000D01*
G75*
G02*
X109510000Y-132345000I0J80000D01*
G01*
X109510000Y-130545000D01*
G75*
G02*
X109590000Y-130465000I80000J0D01*
G01*
X111390000Y-130465000D01*
G75*
G02*
X111470000Y-130545000I0J-80000D01*
G01*
X111470000Y-132345000D01*
G75*
G02*
X111390000Y-132425000I-80000J0D01*
G01*
G37*
X110490000Y-128905000D03*
X126365000Y-118110000D03*
G36*
G01*
X125465000Y-114590000D02*
X127265000Y-114590000D01*
G75*
G02*
X127345000Y-114670000I0J-80000D01*
G01*
X127345000Y-116470000D01*
G75*
G02*
X127265000Y-116550000I-80000J0D01*
G01*
X125465000Y-116550000D01*
G75*
G02*
X125385000Y-116470000I0J80000D01*
G01*
X125385000Y-114670000D01*
G75*
G02*
X125465000Y-114590000I80000J0D01*
G01*
G37*
X126365000Y-123825000D03*
G36*
G01*
X125465000Y-120305000D02*
X127265000Y-120305000D01*
G75*
G02*
X127345000Y-120385000I0J-80000D01*
G01*
X127345000Y-122185000D01*
G75*
G02*
X127265000Y-122265000I-80000J0D01*
G01*
X125465000Y-122265000D01*
G75*
G02*
X125385000Y-122185000I0J80000D01*
G01*
X125385000Y-120385000D01*
G75*
G02*
X125465000Y-120305000I80000J0D01*
G01*
G37*
D14*
X74930000Y-175895000D03*
D10*
X64770000Y-175895000D03*
D14*
X64770000Y-172720000D03*
D10*
X74930000Y-172720000D03*
D14*
X108585000Y-51435000D03*
D10*
X108585000Y-41275000D03*
D14*
X103505000Y-51435000D03*
D10*
X103505000Y-41275000D03*
D14*
X98425000Y-51435000D03*
D10*
X98425000Y-41275000D03*
D14*
X93345000Y-51435000D03*
D10*
X93345000Y-41275000D03*
D14*
X88265000Y-51435000D03*
D10*
X88265000Y-41275000D03*
D14*
X83185000Y-51435000D03*
D10*
X83185000Y-41275000D03*
D14*
X78105000Y-51435000D03*
D10*
X78105000Y-41275000D03*
D14*
X73025000Y-51435000D03*
D10*
X73025000Y-41275000D03*
X110490000Y-134620000D03*
D14*
X110490000Y-144780000D03*
D10*
X105410000Y-134620000D03*
D14*
X105410000Y-144780000D03*
D10*
X100330000Y-134620000D03*
D14*
X100330000Y-144780000D03*
D10*
X95250000Y-134620000D03*
D14*
X95250000Y-144780000D03*
D10*
X90170000Y-134620000D03*
D14*
X90170000Y-144780000D03*
D10*
X85090000Y-134620000D03*
D14*
X85090000Y-144780000D03*
D10*
X80010000Y-134620000D03*
D14*
X80010000Y-144780000D03*
X84455000Y-99060000D03*
D10*
X84455000Y-88900000D03*
D14*
X79375000Y-99060000D03*
D10*
X79375000Y-88900000D03*
D14*
X41910000Y-52705000D03*
D10*
X52070000Y-52705000D03*
X74930000Y-134620000D03*
D14*
X74930000Y-144780000D03*
X64770000Y-166370000D03*
D10*
X74930000Y-166370000D03*
D14*
X44450000Y-128905000D03*
D10*
X44450000Y-139065000D03*
D14*
X44450000Y-158115000D03*
D10*
X44450000Y-147955000D03*
D11*
X49530000Y-57150000D03*
X64770000Y-64770000D03*
X52070000Y-57150000D03*
X62230000Y-64770000D03*
X54610000Y-57150000D03*
X59690000Y-64770000D03*
X57150000Y-57150000D03*
X57150000Y-64770000D03*
X59690000Y-57150000D03*
X54610000Y-64770000D03*
X62230000Y-57150000D03*
X52070000Y-64770000D03*
X64770000Y-57150000D03*
G36*
G01*
X50330000Y-66050000D02*
X48730000Y-66050000D01*
G75*
G02*
X48650000Y-65970000I0J80000D01*
G01*
X48650000Y-63570000D01*
G75*
G02*
X48730000Y-63490000I80000J0D01*
G01*
X50330000Y-63490000D01*
G75*
G02*
X50410000Y-63570000I0J-80000D01*
G01*
X50410000Y-65970000D01*
G75*
G02*
X50330000Y-66050000I-80000J0D01*
G01*
G37*
X49530000Y-72390000D03*
X64770000Y-80010000D03*
X52070000Y-72390000D03*
X62230000Y-80010000D03*
X54610000Y-72390000D03*
X59690000Y-80010000D03*
X57150000Y-72390000D03*
X57150000Y-80010000D03*
X59690000Y-72390000D03*
X54610000Y-80010000D03*
X62230000Y-72390000D03*
X52070000Y-80010000D03*
X64770000Y-72390000D03*
G36*
G01*
X50330000Y-81290000D02*
X48730000Y-81290000D01*
G75*
G02*
X48650000Y-81210000I0J80000D01*
G01*
X48650000Y-78810000D01*
G75*
G02*
X48730000Y-78730000I80000J0D01*
G01*
X50330000Y-78730000D01*
G75*
G02*
X50410000Y-78810000I0J-80000D01*
G01*
X50410000Y-81210000D01*
G75*
G02*
X50330000Y-81290000I-80000J0D01*
G01*
G37*
X49530000Y-92075000D03*
X64770000Y-99695000D03*
X52070000Y-92075000D03*
X62230000Y-99695000D03*
X54610000Y-92075000D03*
X59690000Y-99695000D03*
X57150000Y-92075000D03*
X57150000Y-99695000D03*
X59690000Y-92075000D03*
X54610000Y-99695000D03*
X62230000Y-92075000D03*
X52070000Y-99695000D03*
X64770000Y-92075000D03*
G36*
G01*
X50330000Y-100975000D02*
X48730000Y-100975000D01*
G75*
G02*
X48650000Y-100895000I0J80000D01*
G01*
X48650000Y-98495000D01*
G75*
G02*
X48730000Y-98415000I80000J0D01*
G01*
X50330000Y-98415000D01*
G75*
G02*
X50410000Y-98495000I0J-80000D01*
G01*
X50410000Y-100895000D01*
G75*
G02*
X50330000Y-100975000I-80000J0D01*
G01*
G37*
X49530000Y-110490000D03*
X64770000Y-118110000D03*
X52070000Y-110490000D03*
X62230000Y-118110000D03*
X54610000Y-110490000D03*
X59690000Y-118110000D03*
X57150000Y-110490000D03*
X57150000Y-118110000D03*
X59690000Y-110490000D03*
X54610000Y-118110000D03*
X62230000Y-110490000D03*
X52070000Y-118110000D03*
X64770000Y-110490000D03*
G36*
G01*
X50330000Y-119390000D02*
X48730000Y-119390000D01*
G75*
G02*
X48650000Y-119310000I0J80000D01*
G01*
X48650000Y-116910000D01*
G75*
G02*
X48730000Y-116830000I80000J0D01*
G01*
X50330000Y-116830000D01*
G75*
G02*
X50410000Y-116910000I0J-80000D01*
G01*
X50410000Y-119310000D01*
G75*
G02*
X50330000Y-119390000I-80000J0D01*
G01*
G37*
D18*
X57150000Y-151765000D03*
D19*
X49530000Y-159385000D03*
X57150000Y-144145000D03*
D18*
X57150000Y-156845000D03*
X49530000Y-151765000D03*
X49530000Y-156845000D03*
X49530000Y-137795000D03*
X49530000Y-132715000D03*
X57150000Y-137795000D03*
D19*
X57150000Y-125095000D03*
X49530000Y-140335000D03*
D18*
X57150000Y-132715000D03*
D20*
X50165000Y-34290000D03*
G36*
G01*
X46675000Y-35192013D02*
X46675000Y-33387987D01*
G75*
G02*
X46947987Y-33115000I272987J0D01*
G01*
X48302013Y-33115000D01*
G75*
G02*
X48575000Y-33387987I0J-272987D01*
G01*
X48575000Y-35192013D01*
G75*
G02*
X48302013Y-35465000I-272987J0D01*
G01*
X46947987Y-35465000D01*
G75*
G02*
X46675000Y-35192013I0J272987D01*
G01*
G37*
D21*
X46355000Y-166370000D03*
G36*
G01*
X47257013Y-169860000D02*
X45452987Y-169860000D01*
G75*
G02*
X45180000Y-169587013I0J272987D01*
G01*
X45180000Y-168232987D01*
G75*
G02*
X45452987Y-167960000I272987J0D01*
G01*
X47257013Y-167960000D01*
G75*
G02*
X47530000Y-168232987I0J-272987D01*
G01*
X47530000Y-169587013D01*
G75*
G02*
X47257013Y-169860000I-272987J0D01*
G01*
G37*
X46355000Y-173355000D03*
G36*
G01*
X47257013Y-176845000D02*
X45452987Y-176845000D01*
G75*
G02*
X45180000Y-176572013I0J272987D01*
G01*
X45180000Y-175217987D01*
G75*
G02*
X45452987Y-174945000I272987J0D01*
G01*
X47257013Y-174945000D01*
G75*
G02*
X47530000Y-175217987I0J-272987D01*
G01*
X47530000Y-176572013D01*
G75*
G02*
X47257013Y-176845000I-272987J0D01*
G01*
G37*
D14*
X97155000Y-68580000D03*
X94615000Y-68580000D03*
X92075000Y-68580000D03*
X89535000Y-68580000D03*
X86995000Y-68580000D03*
X84455000Y-68580000D03*
X81915000Y-68580000D03*
X79375000Y-68580000D03*
G36*
G01*
X75955000Y-69380000D02*
X75955000Y-67780000D01*
G75*
G02*
X76035000Y-67700000I80000J0D01*
G01*
X77635000Y-67700000D01*
G75*
G02*
X77715000Y-67780000I0J-80000D01*
G01*
X77715000Y-69380000D01*
G75*
G02*
X77635000Y-69460000I-80000J0D01*
G01*
X76035000Y-69460000D01*
G75*
G02*
X75955000Y-69380000I0J80000D01*
G01*
G37*
D22*
G36*
X47531165Y-176570387D02*
G01*
X47532000Y-176572013D01*
X47532000Y-176656282D01*
X47531990Y-176656478D01*
X47527882Y-176698190D01*
X47527806Y-176698575D01*
X47517454Y-176732699D01*
X47517304Y-176733061D01*
X47500500Y-176764500D01*
X47500282Y-176764826D01*
X47477664Y-176792387D01*
X47477387Y-176792664D01*
X47449826Y-176815282D01*
X47449500Y-176815500D01*
X47418061Y-176832304D01*
X47417699Y-176832454D01*
X47383575Y-176842806D01*
X47383190Y-176842882D01*
X47341478Y-176846990D01*
X47341282Y-176847000D01*
X47257013Y-176847000D01*
X47255281Y-176846000D01*
X47255281Y-176844000D01*
X47256817Y-176843010D01*
X47309875Y-176837785D01*
X47360712Y-176822363D01*
X47407560Y-176797322D01*
X47448623Y-176763623D01*
X47482322Y-176722560D01*
X47507363Y-176675712D01*
X47522785Y-176624875D01*
X47528010Y-176571817D01*
X47529175Y-176570191D01*
X47531165Y-176570387D01*
G37*
G36*
X45181990Y-176571817D02*
G01*
X45187215Y-176624875D01*
X45202637Y-176675712D01*
X45227678Y-176722560D01*
X45261377Y-176763623D01*
X45302440Y-176797322D01*
X45349288Y-176822363D01*
X45400125Y-176837785D01*
X45453183Y-176843010D01*
X45454809Y-176844175D01*
X45454613Y-176846165D01*
X45452987Y-176847000D01*
X45368718Y-176847000D01*
X45368522Y-176846990D01*
X45326810Y-176842882D01*
X45326425Y-176842806D01*
X45292301Y-176832454D01*
X45291939Y-176832304D01*
X45260500Y-176815500D01*
X45260174Y-176815282D01*
X45232613Y-176792664D01*
X45232336Y-176792387D01*
X45209718Y-176764826D01*
X45209500Y-176764500D01*
X45192696Y-176733061D01*
X45192546Y-176732699D01*
X45182194Y-176698575D01*
X45182118Y-176698190D01*
X45178010Y-176656478D01*
X45178000Y-176656282D01*
X45178000Y-176572013D01*
X45179000Y-176570281D01*
X45181000Y-176570281D01*
X45181990Y-176571817D01*
G37*
G36*
X45454719Y-174944000D02*
G01*
X45454719Y-174946000D01*
X45453183Y-174946990D01*
X45400125Y-174952215D01*
X45349288Y-174967637D01*
X45302440Y-174992678D01*
X45261377Y-175026377D01*
X45227678Y-175067440D01*
X45202637Y-175114288D01*
X45187215Y-175165125D01*
X45181990Y-175218183D01*
X45180825Y-175219809D01*
X45178835Y-175219613D01*
X45178000Y-175217987D01*
X45178000Y-175133718D01*
X45178010Y-175133522D01*
X45182118Y-175091810D01*
X45182194Y-175091425D01*
X45192546Y-175057301D01*
X45192696Y-175056939D01*
X45209500Y-175025500D01*
X45209718Y-175025174D01*
X45232336Y-174997613D01*
X45232613Y-174997336D01*
X45260174Y-174974718D01*
X45260500Y-174974500D01*
X45291939Y-174957696D01*
X45292301Y-174957546D01*
X45326425Y-174947194D01*
X45326810Y-174947118D01*
X45368522Y-174943010D01*
X45368718Y-174943000D01*
X45452987Y-174943000D01*
X45454719Y-174944000D01*
G37*
G36*
X47341478Y-174943010D02*
G01*
X47383190Y-174947118D01*
X47383575Y-174947194D01*
X47417699Y-174957546D01*
X47418061Y-174957696D01*
X47449500Y-174974500D01*
X47449826Y-174974718D01*
X47477387Y-174997336D01*
X47477664Y-174997613D01*
X47500282Y-175025174D01*
X47500500Y-175025500D01*
X47517304Y-175056939D01*
X47517454Y-175057301D01*
X47527806Y-175091425D01*
X47527882Y-175091810D01*
X47531990Y-175133522D01*
X47532000Y-175133718D01*
X47532000Y-175217987D01*
X47531000Y-175219719D01*
X47529000Y-175219719D01*
X47528010Y-175218183D01*
X47522785Y-175165125D01*
X47507363Y-175114288D01*
X47482322Y-175067440D01*
X47448623Y-175026377D01*
X47407560Y-174992678D01*
X47360712Y-174967637D01*
X47309875Y-174952215D01*
X47256817Y-174946990D01*
X47255191Y-174945825D01*
X47255387Y-174943835D01*
X47257013Y-174943000D01*
X47341282Y-174943000D01*
X47341478Y-174943010D01*
G37*
G36*
X45181990Y-169586817D02*
G01*
X45187215Y-169639875D01*
X45202637Y-169690712D01*
X45227678Y-169737560D01*
X45261377Y-169778623D01*
X45302440Y-169812322D01*
X45349288Y-169837363D01*
X45400125Y-169852785D01*
X45453183Y-169858010D01*
X45454809Y-169859175D01*
X45454613Y-169861165D01*
X45452987Y-169862000D01*
X45368718Y-169862000D01*
X45368522Y-169861990D01*
X45326810Y-169857882D01*
X45326425Y-169857806D01*
X45292301Y-169847454D01*
X45291939Y-169847304D01*
X45260500Y-169830500D01*
X45260174Y-169830282D01*
X45232613Y-169807664D01*
X45232336Y-169807387D01*
X45209718Y-169779826D01*
X45209500Y-169779500D01*
X45192696Y-169748061D01*
X45192546Y-169747699D01*
X45182194Y-169713575D01*
X45182118Y-169713190D01*
X45178010Y-169671478D01*
X45178000Y-169671282D01*
X45178000Y-169587013D01*
X45179000Y-169585281D01*
X45181000Y-169585281D01*
X45181990Y-169586817D01*
G37*
G36*
X47531165Y-169585387D02*
G01*
X47532000Y-169587013D01*
X47532000Y-169671282D01*
X47531990Y-169671478D01*
X47527882Y-169713190D01*
X47527806Y-169713575D01*
X47517454Y-169747699D01*
X47517304Y-169748061D01*
X47500500Y-169779500D01*
X47500282Y-169779826D01*
X47477664Y-169807387D01*
X47477387Y-169807664D01*
X47449826Y-169830282D01*
X47449500Y-169830500D01*
X47418061Y-169847304D01*
X47417699Y-169847454D01*
X47383575Y-169857806D01*
X47383190Y-169857882D01*
X47341478Y-169861990D01*
X47341282Y-169862000D01*
X47257013Y-169862000D01*
X47255281Y-169861000D01*
X47255281Y-169859000D01*
X47256817Y-169858010D01*
X47309875Y-169852785D01*
X47360712Y-169837363D01*
X47407560Y-169812322D01*
X47448623Y-169778623D01*
X47482322Y-169737560D01*
X47507363Y-169690712D01*
X47522785Y-169639875D01*
X47528010Y-169586817D01*
X47529175Y-169585191D01*
X47531165Y-169585387D01*
G37*
G36*
X45454719Y-167959000D02*
G01*
X45454719Y-167961000D01*
X45453183Y-167961990D01*
X45400125Y-167967215D01*
X45349288Y-167982637D01*
X45302440Y-168007678D01*
X45261377Y-168041377D01*
X45227678Y-168082440D01*
X45202637Y-168129288D01*
X45187215Y-168180125D01*
X45181990Y-168233183D01*
X45180825Y-168234809D01*
X45178835Y-168234613D01*
X45178000Y-168232987D01*
X45178000Y-168148718D01*
X45178010Y-168148522D01*
X45182118Y-168106810D01*
X45182194Y-168106425D01*
X45192546Y-168072301D01*
X45192696Y-168071939D01*
X45209500Y-168040500D01*
X45209718Y-168040174D01*
X45232336Y-168012613D01*
X45232613Y-168012336D01*
X45260174Y-167989718D01*
X45260500Y-167989500D01*
X45291939Y-167972696D01*
X45292301Y-167972546D01*
X45326425Y-167962194D01*
X45326810Y-167962118D01*
X45368522Y-167958010D01*
X45368718Y-167958000D01*
X45452987Y-167958000D01*
X45454719Y-167959000D01*
G37*
G36*
X47341478Y-167958010D02*
G01*
X47383190Y-167962118D01*
X47383575Y-167962194D01*
X47417699Y-167972546D01*
X47418061Y-167972696D01*
X47449500Y-167989500D01*
X47449826Y-167989718D01*
X47477387Y-168012336D01*
X47477664Y-168012613D01*
X47500282Y-168040174D01*
X47500500Y-168040500D01*
X47517304Y-168071939D01*
X47517454Y-168072301D01*
X47527806Y-168106425D01*
X47527882Y-168106810D01*
X47531990Y-168148522D01*
X47532000Y-168148718D01*
X47532000Y-168232987D01*
X47531000Y-168234719D01*
X47529000Y-168234719D01*
X47528010Y-168233183D01*
X47522785Y-168180125D01*
X47507363Y-168129288D01*
X47482322Y-168082440D01*
X47448623Y-168041377D01*
X47407560Y-168007678D01*
X47360712Y-167982637D01*
X47309875Y-167967215D01*
X47256817Y-167961990D01*
X47255191Y-167960825D01*
X47255387Y-167958835D01*
X47257013Y-167958000D01*
X47341282Y-167958000D01*
X47341478Y-167958010D01*
G37*
G36*
X48576165Y-35190387D02*
G01*
X48577000Y-35192013D01*
X48577000Y-35276282D01*
X48576990Y-35276478D01*
X48572882Y-35318190D01*
X48572806Y-35318575D01*
X48562454Y-35352699D01*
X48562304Y-35353061D01*
X48545500Y-35384500D01*
X48545282Y-35384826D01*
X48522664Y-35412387D01*
X48522387Y-35412664D01*
X48494826Y-35435282D01*
X48494500Y-35435500D01*
X48463061Y-35452304D01*
X48462699Y-35452454D01*
X48428575Y-35462806D01*
X48428190Y-35462882D01*
X48386478Y-35466990D01*
X48386282Y-35467000D01*
X48302013Y-35467000D01*
X48300281Y-35466000D01*
X48300281Y-35464000D01*
X48301817Y-35463010D01*
X48354875Y-35457785D01*
X48405712Y-35442363D01*
X48452560Y-35417322D01*
X48493623Y-35383623D01*
X48527322Y-35342560D01*
X48552363Y-35295712D01*
X48567785Y-35244875D01*
X48573010Y-35191817D01*
X48574175Y-35190191D01*
X48576165Y-35190387D01*
G37*
G36*
X46676990Y-35191817D02*
G01*
X46682215Y-35244875D01*
X46697637Y-35295712D01*
X46722678Y-35342560D01*
X46756377Y-35383623D01*
X46797440Y-35417322D01*
X46844288Y-35442363D01*
X46895125Y-35457785D01*
X46948183Y-35463010D01*
X46949809Y-35464175D01*
X46949613Y-35466165D01*
X46947987Y-35467000D01*
X46863718Y-35467000D01*
X46863522Y-35466990D01*
X46821810Y-35462882D01*
X46821425Y-35462806D01*
X46787301Y-35452454D01*
X46786939Y-35452304D01*
X46755500Y-35435500D01*
X46755174Y-35435282D01*
X46727613Y-35412664D01*
X46727336Y-35412387D01*
X46704718Y-35384826D01*
X46704500Y-35384500D01*
X46687696Y-35353061D01*
X46687546Y-35352699D01*
X46677194Y-35318575D01*
X46677118Y-35318190D01*
X46673010Y-35276478D01*
X46673000Y-35276282D01*
X46673000Y-35192013D01*
X46674000Y-35190281D01*
X46676000Y-35190281D01*
X46676990Y-35191817D01*
G37*
G36*
X46949719Y-33114000D02*
G01*
X46949719Y-33116000D01*
X46948183Y-33116990D01*
X46895125Y-33122215D01*
X46844288Y-33137637D01*
X46797440Y-33162678D01*
X46756377Y-33196377D01*
X46722678Y-33237440D01*
X46697637Y-33284288D01*
X46682215Y-33335125D01*
X46676990Y-33388183D01*
X46675825Y-33389809D01*
X46673835Y-33389613D01*
X46673000Y-33387987D01*
X46673000Y-33303718D01*
X46673010Y-33303522D01*
X46677118Y-33261810D01*
X46677194Y-33261425D01*
X46687546Y-33227301D01*
X46687696Y-33226939D01*
X46704500Y-33195500D01*
X46704718Y-33195174D01*
X46727336Y-33167613D01*
X46727613Y-33167336D01*
X46755174Y-33144718D01*
X46755500Y-33144500D01*
X46786939Y-33127696D01*
X46787301Y-33127546D01*
X46821425Y-33117194D01*
X46821810Y-33117118D01*
X46863522Y-33113010D01*
X46863718Y-33113000D01*
X46947987Y-33113000D01*
X46949719Y-33114000D01*
G37*
G36*
X48386478Y-33113010D02*
G01*
X48428190Y-33117118D01*
X48428575Y-33117194D01*
X48462699Y-33127546D01*
X48463061Y-33127696D01*
X48494500Y-33144500D01*
X48494826Y-33144718D01*
X48522387Y-33167336D01*
X48522664Y-33167613D01*
X48545282Y-33195174D01*
X48545500Y-33195500D01*
X48562304Y-33226939D01*
X48562454Y-33227301D01*
X48572806Y-33261425D01*
X48572882Y-33261810D01*
X48576990Y-33303522D01*
X48577000Y-33303718D01*
X48577000Y-33387987D01*
X48576000Y-33389719D01*
X48574000Y-33389719D01*
X48573010Y-33388183D01*
X48567785Y-33335125D01*
X48552363Y-33284288D01*
X48527322Y-33237440D01*
X48493623Y-33196377D01*
X48452560Y-33162678D01*
X48405712Y-33137637D01*
X48354875Y-33122215D01*
X48301817Y-33116990D01*
X48300191Y-33115825D01*
X48300387Y-33113835D01*
X48302013Y-33113000D01*
X48386282Y-33113000D01*
X48386478Y-33113010D01*
G37*
M02*
