M48
; DRILL file {KiCad (5.1.7)-1} date 12/28/20 01:07:44
; FORMAT={-:-/ absolute / inch / decimal}
; #@! TF.CreationDate,2020-12-28T01:07:44+01:00
; #@! TF.GenerationSoftware,Kicad,Pcbnew,(5.1.7)-1
FMAT,2
INCH
T1C0.0197
T2C0.0315
T3C0.0354
T4C0.0394
T5C0.0433
T6C0.0469
T7C0.1378
%
G90
G05
T1
X3.125Y-2.9
X3.225Y-3.0
X3.325Y-3.1
X3.425Y-3.2
X3.525Y-3.3
X3.625Y-3.4
X3.725Y-3.5
X4.55Y-6.35
X4.625Y-6.425
X4.7Y-6.5
X4.775Y-6.575
X4.825Y-6.65
X4.85Y-6.725
X4.875Y-6.8
X4.9Y-6.875
T2
X1.65Y-2.075
X2.05Y-2.075
X1.95Y-4.35
X1.95Y-4.65
X2.05Y-4.35
X2.05Y-4.65
X2.15Y-4.35
X2.15Y-4.65
X2.25Y-4.35
X2.25Y-4.65
X2.35Y-4.35
X2.35Y-4.65
X2.45Y-4.35
X2.45Y-4.65
X2.55Y-4.35
X2.55Y-4.65
X1.725Y-4.4
X1.725Y-4.5969
X2.55Y-6.8
X2.95Y-6.8
X3.95Y-5.3
X3.95Y-5.7
X3.675Y-1.625
X3.675Y-2.025
X2.95Y-6.0
X2.95Y-6.1969
X3.55Y-5.3
X3.55Y-5.7
X3.35Y-5.3
X3.35Y-5.7
X1.725Y-3.6781
X1.725Y-3.875
X4.275Y-1.625
X4.275Y-2.025
X4.15Y-5.3
X4.15Y-5.7
X1.95Y-2.25
X1.95Y-2.55
X2.05Y-2.25
X2.05Y-2.55
X2.15Y-2.25
X2.15Y-2.55
X2.25Y-2.25
X2.25Y-2.55
X2.35Y-2.25
X2.35Y-2.55
X2.45Y-2.25
X2.45Y-2.55
X2.55Y-2.25
X2.55Y-2.55
X2.875Y-2.3031
X2.875Y-2.5
X4.35Y-5.3
X4.35Y-5.7
X3.025Y-2.25
X3.025Y-2.55
X3.125Y-2.25
X3.125Y-2.55
X3.225Y-2.25
X3.225Y-2.55
X3.325Y-2.25
X3.325Y-2.55
X3.425Y-2.25
X3.425Y-2.55
X3.525Y-2.25
X3.525Y-2.55
X3.625Y-2.25
X3.625Y-2.55
X3.725Y-2.25
X3.725Y-2.55
X3.825Y-2.25
X3.825Y-2.55
X3.925Y-2.25
X3.925Y-2.55
X3.325Y-3.5
X3.325Y-3.9
X3.15Y-5.3
X3.15Y-5.7
X3.025Y-2.7
X3.125Y-2.7
X3.225Y-2.7
X3.325Y-2.7
X3.425Y-2.7
X3.525Y-2.7
X3.625Y-2.7
X3.725Y-2.7
X3.825Y-2.7
X3.075Y-1.625
X3.075Y-2.025
X3.95Y-2.9
X3.95Y-3.0
X3.95Y-3.1
X3.95Y-3.2
X3.95Y-3.3
X3.95Y-3.4
X3.95Y-3.5
X3.95Y-3.6
X3.95Y-3.7
X3.95Y-3.8
X3.95Y-3.9
X3.95Y-4.0
X4.55Y-2.9
X4.55Y-3.0
X4.55Y-3.1
X4.55Y-3.2
X4.55Y-3.3
X4.55Y-3.4
X4.55Y-3.5
X4.55Y-3.6
X4.55Y-3.7
X4.55Y-3.8
X4.55Y-3.9
X4.55Y-4.0
X1.95Y-3.625
X1.95Y-3.925
X2.05Y-3.625
X2.05Y-3.925
X2.15Y-3.625
X2.15Y-3.925
X2.25Y-3.625
X2.25Y-3.925
X2.35Y-3.625
X2.35Y-3.925
X2.45Y-3.625
X2.45Y-3.925
X2.55Y-3.625
X2.55Y-3.925
X1.5766Y-1.675
X1.675Y-1.675
X3.75Y-5.3
X3.75Y-5.7
X1.8Y-2.9
X1.8Y-3.0969
X3.875Y-1.625
X3.875Y-2.025
X2.875Y-1.625
X2.875Y-2.025
X4.75Y-2.9
X4.75Y-3.0
X4.75Y-3.1
X4.75Y-3.2
X4.75Y-3.3
X1.75Y-5.825
X1.75Y-6.225
X1.75Y-5.075
X1.75Y-5.475
X1.95Y-2.85
X1.95Y-3.15
X2.05Y-2.85
X2.05Y-3.15
X2.15Y-2.85
X2.15Y-3.15
X2.25Y-2.85
X2.25Y-3.15
X2.35Y-2.85
X2.35Y-3.15
X2.45Y-2.85
X2.45Y-3.15
X2.55Y-2.85
X2.55Y-3.15
X1.8Y-2.3031
X1.8Y-2.5
X4.075Y-1.625
X4.075Y-2.025
X3.275Y-1.625
X3.275Y-2.025
X2.225Y-2.075
X2.4219Y-2.075
X2.55Y-6.55
X2.95Y-6.55
X3.1Y-5.95
X3.1Y-6.25
X3.2Y-5.95
X3.2Y-6.25
X3.3Y-5.95
X3.3Y-6.25
X3.4Y-5.95
X3.4Y-6.25
X3.5Y-5.95
X3.5Y-6.25
X3.6Y-5.95
X3.6Y-6.25
X3.7Y-5.95
X3.7Y-6.25
X3.8Y-5.95
X3.8Y-6.25
X3.9Y-5.95
X3.9Y-6.25
X4.0Y-5.95
X4.0Y-6.25
X3.125Y-3.5
X3.125Y-3.9
X2.95Y-5.3
X2.95Y-5.7
X2.55Y-6.925
X2.95Y-6.925
X3.475Y-1.625
X3.475Y-2.025
X4.5781Y-2.75
X4.775Y-2.75
T3
X3.675Y-1.425
X3.675Y-1.525
X3.875Y-1.425
X3.875Y-1.525
X2.95Y-5.075
X2.95Y-5.175
X4.975Y-4.775
X4.975Y-4.875
X3.275Y-1.425
X3.275Y-1.525
X3.75Y-5.075
X3.75Y-5.175
X3.475Y-1.425
X3.475Y-1.525
X4.975Y-4.55
X4.975Y-4.65
X3.075Y-1.425
X3.075Y-1.525
X3.55Y-5.075
X3.55Y-5.175
X4.35Y-5.075
X4.35Y-5.175
X3.35Y-5.075
X3.35Y-5.175
X4.15Y-5.075
X4.15Y-5.175
X2.875Y-1.425
X2.875Y-1.525
X4.275Y-1.425
X4.275Y-1.525
X3.95Y-5.075
X3.95Y-5.175
X2.15Y-1.35
X2.15Y-1.75
X3.15Y-5.075
X3.15Y-5.175
X4.075Y-1.425
X4.075Y-1.525
T4
X4.9Y-3.0
X4.9Y-3.1
X4.9Y-3.2
X5.0Y-3.0
X5.0Y-3.1
X5.0Y-3.2
X1.95Y-5.975
X1.95Y-6.175
X2.25Y-5.975
X2.25Y-6.175
X5.05Y-1.625
X5.05Y-1.725
X5.05Y-1.825
X5.05Y-1.925
X5.05Y-2.025
X5.05Y-2.125
X5.05Y-2.225
X5.05Y-2.325
X5.05Y-2.425
X5.05Y-2.525
X5.15Y-1.625
X5.15Y-1.725
X5.15Y-1.825
X5.15Y-1.925
X5.15Y-2.025
X5.15Y-2.125
X5.15Y-2.225
X5.15Y-2.325
X5.15Y-2.425
X5.15Y-2.525
X3.925Y-7.125
X3.925Y-7.225
X4.025Y-7.125
X4.025Y-7.225
X4.125Y-7.125
X4.125Y-7.225
X4.225Y-7.125
X4.225Y-7.225
X4.325Y-7.125
X4.325Y-7.225
X4.425Y-7.125
X4.425Y-7.225
X4.525Y-7.125
X4.525Y-7.225
X4.625Y-7.125
X4.625Y-7.225
X4.725Y-7.125
X4.725Y-7.225
X4.825Y-7.125
X4.825Y-7.225
X1.95Y-5.225
X1.95Y-5.425
X2.25Y-5.225
X2.25Y-5.425
T5
X1.95Y-5.525
X2.25Y-4.925
X1.95Y-6.275
X2.25Y-5.675
T6
X1.825Y-6.55
X1.825Y-6.65
X1.825Y-6.825
X1.825Y-6.925
X1.875Y-1.35
X1.975Y-1.35
T7
X1.5969Y-1.2969
X1.5969Y-7.2024
X5.1402Y-1.2969
X5.1402Y-7.2024
T0
M30
