G04 #@! TF.GenerationSoftware,KiCad,Pcbnew,(5.1.7)-1*
G04 #@! TF.CreationDate,2020-12-23T01:42:00+01:00*
G04 #@! TF.ProjectId,speichermodul,73706569-6368-4657-926d-6f64756c2e6b,rev?*
G04 #@! TF.SameCoordinates,Original*
G04 #@! TF.FileFunction,Copper,L1,Top*
G04 #@! TF.FilePolarity,Positive*
%FSLAX46Y46*%
G04 Gerber Fmt 4.6, Leading zero omitted, Abs format (unit mm)*
G04 Created by KiCad (PCBNEW (5.1.7)-1) date 2020-12-23 01:42:00*
%MOMM*%
%LPD*%
G01*
G04 APERTURE LIST*
G04 #@! TA.AperFunction,ComponentPad*
%ADD10C,1.600000*%
G04 #@! TD*
G04 #@! TA.AperFunction,ComponentPad*
%ADD11R,1.600000X2.400000*%
G04 #@! TD*
G04 #@! TA.AperFunction,ComponentPad*
%ADD12O,1.600000X2.400000*%
G04 #@! TD*
G04 #@! TA.AperFunction,ComponentPad*
%ADD13O,1.800000X1.800000*%
G04 #@! TD*
G04 #@! TA.AperFunction,ComponentPad*
%ADD14R,1.800000X1.800000*%
G04 #@! TD*
G04 #@! TA.AperFunction,ComponentPad*
%ADD15R,1.600000X1.600000*%
G04 #@! TD*
G04 #@! TA.AperFunction,ComponentPad*
%ADD16O,1.600000X1.600000*%
G04 #@! TD*
G04 #@! TA.AperFunction,ComponentPad*
%ADD17O,1.700000X1.700000*%
G04 #@! TD*
G04 #@! TA.AperFunction,ComponentPad*
%ADD18R,1.700000X1.700000*%
G04 #@! TD*
G04 #@! TA.AperFunction,ComponentPad*
%ADD19R,2.400000X1.600000*%
G04 #@! TD*
G04 #@! TA.AperFunction,ComponentPad*
%ADD20O,2.400000X1.600000*%
G04 #@! TD*
G04 #@! TA.AperFunction,ComponentPad*
%ADD21C,1.800000*%
G04 #@! TD*
G04 #@! TA.AperFunction,ComponentPad*
%ADD22C,2.000000*%
G04 #@! TD*
G04 #@! TA.AperFunction,ComponentPad*
%ADD23C,1.100000*%
G04 #@! TD*
G04 #@! TA.AperFunction,ComponentPad*
%ADD24O,1.740000X2.190000*%
G04 #@! TD*
G04 #@! TA.AperFunction,ComponentPad*
%ADD25O,2.190000X1.740000*%
G04 #@! TD*
G04 #@! TA.AperFunction,ViaPad*
%ADD26C,1.000000*%
G04 #@! TD*
G04 #@! TA.AperFunction,Conductor*
%ADD27C,1.250000*%
G04 #@! TD*
G04 #@! TA.AperFunction,Conductor*
%ADD28C,1.000000*%
G04 #@! TD*
G04 #@! TA.AperFunction,Conductor*
%ADD29C,0.400000*%
G04 #@! TD*
G04 #@! TA.AperFunction,Conductor*
%ADD30C,0.600000*%
G04 #@! TD*
G04 APERTURE END LIST*
D10*
X61515000Y-52705000D03*
X56515000Y-52705000D03*
D11*
X78740000Y-158750000D03*
D12*
X101600000Y-151130000D03*
X81280000Y-158750000D03*
X99060000Y-151130000D03*
X83820000Y-158750000D03*
X96520000Y-151130000D03*
X86360000Y-158750000D03*
X93980000Y-151130000D03*
X88900000Y-158750000D03*
X91440000Y-151130000D03*
X91440000Y-158750000D03*
X88900000Y-151130000D03*
X93980000Y-158750000D03*
X86360000Y-151130000D03*
X96520000Y-158750000D03*
X83820000Y-151130000D03*
X99060000Y-158750000D03*
X81280000Y-151130000D03*
X101600000Y-158750000D03*
X78740000Y-151130000D03*
D13*
X54610000Y-44450000D03*
D14*
X54610000Y-34290000D03*
D10*
X40045000Y-42545000D03*
D15*
X42545000Y-42545000D03*
D16*
X120650000Y-83820000D03*
X120650000Y-81280000D03*
X120650000Y-78740000D03*
X120650000Y-76200000D03*
D15*
X120650000Y-73660000D03*
D17*
X124460000Y-76200000D03*
X127000000Y-76200000D03*
X124460000Y-78740000D03*
X127000000Y-78740000D03*
X124460000Y-81280000D03*
D18*
X127000000Y-81280000D03*
D17*
X99695000Y-183515000D03*
X99695000Y-180975000D03*
X102235000Y-183515000D03*
X102235000Y-180975000D03*
X104775000Y-183515000D03*
X104775000Y-180975000D03*
X107315000Y-183515000D03*
X107315000Y-180975000D03*
X109855000Y-183515000D03*
X109855000Y-180975000D03*
X112395000Y-183515000D03*
X112395000Y-180975000D03*
X114935000Y-183515000D03*
X114935000Y-180975000D03*
X117475000Y-183515000D03*
X117475000Y-180975000D03*
X120015000Y-183515000D03*
X120015000Y-180975000D03*
X122555000Y-183515000D03*
D18*
X122555000Y-180975000D03*
D17*
X130810000Y-64135000D03*
X128270000Y-64135000D03*
X130810000Y-61595000D03*
X128270000Y-61595000D03*
X130810000Y-59055000D03*
X128270000Y-59055000D03*
X130810000Y-56515000D03*
X128270000Y-56515000D03*
X130810000Y-53975000D03*
X128270000Y-53975000D03*
X130810000Y-51435000D03*
X128270000Y-51435000D03*
X130810000Y-48895000D03*
X128270000Y-48895000D03*
X130810000Y-46355000D03*
X128270000Y-46355000D03*
X130810000Y-43815000D03*
X128270000Y-43815000D03*
X130810000Y-41275000D03*
D18*
X128270000Y-41275000D03*
D19*
X100330000Y-73660000D03*
D20*
X115570000Y-101600000D03*
X100330000Y-76200000D03*
X115570000Y-99060000D03*
X100330000Y-78740000D03*
X115570000Y-96520000D03*
X100330000Y-81280000D03*
X115570000Y-93980000D03*
X100330000Y-83820000D03*
X115570000Y-91440000D03*
X100330000Y-86360000D03*
X115570000Y-88900000D03*
X100330000Y-88900000D03*
X115570000Y-86360000D03*
X100330000Y-91440000D03*
X115570000Y-83820000D03*
X100330000Y-93980000D03*
X115570000Y-81280000D03*
X100330000Y-96520000D03*
X115570000Y-78740000D03*
X100330000Y-99060000D03*
X115570000Y-76200000D03*
X100330000Y-101600000D03*
X115570000Y-73660000D03*
D12*
X76835000Y-57150000D03*
X99695000Y-64770000D03*
X79375000Y-57150000D03*
X97155000Y-64770000D03*
X81915000Y-57150000D03*
X94615000Y-64770000D03*
X84455000Y-57150000D03*
X92075000Y-64770000D03*
X86995000Y-57150000D03*
X89535000Y-64770000D03*
X89535000Y-57150000D03*
X86995000Y-64770000D03*
X92075000Y-57150000D03*
X84455000Y-64770000D03*
X94615000Y-57150000D03*
X81915000Y-64770000D03*
X97155000Y-57150000D03*
X79375000Y-64770000D03*
X99695000Y-57150000D03*
D11*
X76835000Y-64770000D03*
D10*
X74930000Y-152400000D03*
X74930000Y-157400000D03*
X116285000Y-69850000D03*
X121285000Y-69850000D03*
X45720000Y-63500000D03*
X45720000Y-58500000D03*
X73025000Y-63500000D03*
X73025000Y-58500000D03*
X43815000Y-98425000D03*
X43815000Y-93425000D03*
X43815000Y-116760000D03*
X43815000Y-111760000D03*
X45720000Y-78660000D03*
X45720000Y-73660000D03*
D21*
X73025000Y-36195000D03*
D14*
X73025000Y-38735000D03*
D21*
X78105000Y-36195000D03*
D14*
X78105000Y-38735000D03*
D21*
X83185000Y-36195000D03*
D14*
X83185000Y-38735000D03*
D21*
X88265000Y-36195000D03*
D14*
X88265000Y-38735000D03*
D21*
X93345000Y-36195000D03*
D14*
X93345000Y-38735000D03*
D21*
X98425000Y-36195000D03*
D14*
X98425000Y-38735000D03*
D21*
X103505000Y-36195000D03*
D14*
X103505000Y-38735000D03*
D21*
X108585000Y-36195000D03*
D14*
X108585000Y-38735000D03*
X74930000Y-131445000D03*
D21*
X74930000Y-128905000D03*
D14*
X80010000Y-131445000D03*
D21*
X80010000Y-128905000D03*
D14*
X85090000Y-131445000D03*
D21*
X85090000Y-128905000D03*
D14*
X90170000Y-131445000D03*
D21*
X90170000Y-128905000D03*
D14*
X95250000Y-131445000D03*
D21*
X95250000Y-128905000D03*
D14*
X100330000Y-131445000D03*
D21*
X100330000Y-128905000D03*
D14*
X105410000Y-131445000D03*
D21*
X105410000Y-128905000D03*
D14*
X110490000Y-131445000D03*
D21*
X110490000Y-128905000D03*
X126365000Y-118110000D03*
D14*
X126365000Y-115570000D03*
D21*
X126365000Y-123825000D03*
D14*
X126365000Y-121285000D03*
D16*
X74930000Y-175895000D03*
D10*
X64770000Y-175895000D03*
D16*
X64770000Y-172720000D03*
D10*
X74930000Y-172720000D03*
D16*
X108585000Y-51435000D03*
D10*
X108585000Y-41275000D03*
D16*
X103505000Y-51435000D03*
D10*
X103505000Y-41275000D03*
D16*
X98425000Y-51435000D03*
D10*
X98425000Y-41275000D03*
D16*
X93345000Y-51435000D03*
D10*
X93345000Y-41275000D03*
D16*
X88265000Y-51435000D03*
D10*
X88265000Y-41275000D03*
D16*
X83185000Y-51435000D03*
D10*
X83185000Y-41275000D03*
D16*
X78105000Y-51435000D03*
D10*
X78105000Y-41275000D03*
D16*
X73025000Y-51435000D03*
D10*
X73025000Y-41275000D03*
X110490000Y-134620000D03*
D16*
X110490000Y-144780000D03*
D10*
X105410000Y-134620000D03*
D16*
X105410000Y-144780000D03*
D10*
X100330000Y-134620000D03*
D16*
X100330000Y-144780000D03*
D10*
X95250000Y-134620000D03*
D16*
X95250000Y-144780000D03*
D10*
X90170000Y-134620000D03*
D16*
X90170000Y-144780000D03*
D10*
X85090000Y-134620000D03*
D16*
X85090000Y-144780000D03*
D10*
X80010000Y-134620000D03*
D16*
X80010000Y-144780000D03*
X84455000Y-99060000D03*
D10*
X84455000Y-88900000D03*
D16*
X79375000Y-99060000D03*
D10*
X79375000Y-88900000D03*
D16*
X41910000Y-52705000D03*
D10*
X52070000Y-52705000D03*
X74930000Y-134620000D03*
D16*
X74930000Y-144780000D03*
X64770000Y-166370000D03*
D10*
X74930000Y-166370000D03*
D16*
X44450000Y-128905000D03*
D10*
X44450000Y-139065000D03*
D16*
X44450000Y-158115000D03*
D10*
X44450000Y-147955000D03*
D12*
X49530000Y-57150000D03*
X64770000Y-64770000D03*
X52070000Y-57150000D03*
X62230000Y-64770000D03*
X54610000Y-57150000D03*
X59690000Y-64770000D03*
X57150000Y-57150000D03*
X57150000Y-64770000D03*
X59690000Y-57150000D03*
X54610000Y-64770000D03*
X62230000Y-57150000D03*
X52070000Y-64770000D03*
X64770000Y-57150000D03*
D11*
X49530000Y-64770000D03*
D12*
X49530000Y-72390000D03*
X64770000Y-80010000D03*
X52070000Y-72390000D03*
X62230000Y-80010000D03*
X54610000Y-72390000D03*
X59690000Y-80010000D03*
X57150000Y-72390000D03*
X57150000Y-80010000D03*
X59690000Y-72390000D03*
X54610000Y-80010000D03*
X62230000Y-72390000D03*
X52070000Y-80010000D03*
X64770000Y-72390000D03*
D11*
X49530000Y-80010000D03*
D12*
X49530000Y-92075000D03*
X64770000Y-99695000D03*
X52070000Y-92075000D03*
X62230000Y-99695000D03*
X54610000Y-92075000D03*
X59690000Y-99695000D03*
X57150000Y-92075000D03*
X57150000Y-99695000D03*
X59690000Y-92075000D03*
X54610000Y-99695000D03*
X62230000Y-92075000D03*
X52070000Y-99695000D03*
X64770000Y-92075000D03*
D11*
X49530000Y-99695000D03*
D12*
X49530000Y-110490000D03*
X64770000Y-118110000D03*
X52070000Y-110490000D03*
X62230000Y-118110000D03*
X54610000Y-110490000D03*
X59690000Y-118110000D03*
X57150000Y-110490000D03*
X57150000Y-118110000D03*
X59690000Y-110490000D03*
X54610000Y-118110000D03*
X62230000Y-110490000D03*
X52070000Y-118110000D03*
X64770000Y-110490000D03*
D11*
X49530000Y-118110000D03*
D22*
X57150000Y-151765000D03*
D23*
X49530000Y-159385000D03*
X57150000Y-144145000D03*
D22*
X57150000Y-156845000D03*
X49530000Y-151765000D03*
X49530000Y-156845000D03*
X49530000Y-137795000D03*
X49530000Y-132715000D03*
X57150000Y-137795000D03*
D23*
X57150000Y-125095000D03*
X49530000Y-140335000D03*
D22*
X57150000Y-132715000D03*
D24*
X50165000Y-34290000D03*
G04 #@! TA.AperFunction,ComponentPad*
G36*
G01*
X46755000Y-35135001D02*
X46755000Y-33444999D01*
G75*
G02*
X47004999Y-33195000I249999J0D01*
G01*
X48245001Y-33195000D01*
G75*
G02*
X48495000Y-33444999I0J-249999D01*
G01*
X48495000Y-35135001D01*
G75*
G02*
X48245001Y-35385000I-249999J0D01*
G01*
X47004999Y-35385000D01*
G75*
G02*
X46755000Y-35135001I0J249999D01*
G01*
G37*
G04 #@! TD.AperFunction*
D25*
X46355000Y-166370000D03*
G04 #@! TA.AperFunction,ComponentPad*
G36*
G01*
X47200001Y-169780000D02*
X45509999Y-169780000D01*
G75*
G02*
X45260000Y-169530001I0J249999D01*
G01*
X45260000Y-168289999D01*
G75*
G02*
X45509999Y-168040000I249999J0D01*
G01*
X47200001Y-168040000D01*
G75*
G02*
X47450000Y-168289999I0J-249999D01*
G01*
X47450000Y-169530001D01*
G75*
G02*
X47200001Y-169780000I-249999J0D01*
G01*
G37*
G04 #@! TD.AperFunction*
X46355000Y-173355000D03*
G04 #@! TA.AperFunction,ComponentPad*
G36*
G01*
X47200001Y-176765000D02*
X45509999Y-176765000D01*
G75*
G02*
X45260000Y-176515001I0J249999D01*
G01*
X45260000Y-175274999D01*
G75*
G02*
X45509999Y-175025000I249999J0D01*
G01*
X47200001Y-175025000D01*
G75*
G02*
X47450000Y-175274999I0J-249999D01*
G01*
X47450000Y-176515001D01*
G75*
G02*
X47200001Y-176765000I-249999J0D01*
G01*
G37*
G04 #@! TD.AperFunction*
D16*
X97155000Y-68580000D03*
X94615000Y-68580000D03*
X92075000Y-68580000D03*
X89535000Y-68580000D03*
X86995000Y-68580000D03*
X84455000Y-68580000D03*
X81915000Y-68580000D03*
X79375000Y-68580000D03*
D15*
X76835000Y-68580000D03*
D26*
X115570000Y-161290000D03*
X117475000Y-163195000D03*
X119380000Y-165100000D03*
X121285000Y-167005000D03*
X122555000Y-168910000D03*
X123190000Y-170815000D03*
X123825000Y-172720000D03*
X124460000Y-174625000D03*
X79375000Y-73660000D03*
X81915000Y-76200000D03*
X84455000Y-78740000D03*
X86995000Y-81280000D03*
X89535000Y-83820000D03*
X92075000Y-86360000D03*
X94615000Y-88900000D03*
D27*
X50165000Y-34290000D02*
X54610000Y-34290000D01*
X50165000Y-34290000D02*
X50165000Y-36830000D01*
X44450000Y-42545000D02*
X42545000Y-42545000D01*
X50165000Y-36830000D02*
X44450000Y-42545000D01*
X42545000Y-42545000D02*
X42545000Y-44450000D01*
X42545000Y-44450000D02*
X39370000Y-47625000D01*
X39370000Y-47625000D02*
X39370000Y-50165000D01*
X39450000Y-56595000D02*
X39370000Y-56515000D01*
X45720000Y-58500000D02*
X39450000Y-58500000D01*
X39370000Y-50165000D02*
X39370000Y-56515000D01*
D28*
X75485000Y-58500000D02*
X76835000Y-57150000D01*
X73025000Y-58500000D02*
X75485000Y-58500000D01*
D27*
X54610000Y-34290000D02*
X56515000Y-36195000D01*
X56515000Y-36195000D02*
X108585000Y-36195000D01*
X108585000Y-36195000D02*
X113665000Y-36195000D01*
X113665000Y-36195000D02*
X121285000Y-43815000D01*
X77470000Y-152400000D02*
X78740000Y-151130000D01*
X74930000Y-152400000D02*
X77470000Y-152400000D01*
X39450000Y-111840000D02*
X39370000Y-111760000D01*
X45720000Y-111840000D02*
X39450000Y-111840000D01*
X39370000Y-93345000D02*
X39370000Y-111760000D01*
X39370000Y-73025000D02*
X39370000Y-93345000D01*
X39370000Y-56515000D02*
X39370000Y-73025000D01*
X48180000Y-111840000D02*
X49530000Y-110490000D01*
X45720000Y-111840000D02*
X48180000Y-111840000D01*
X39450000Y-93425000D02*
X39370000Y-93345000D01*
X43815000Y-93425000D02*
X39450000Y-93425000D01*
X45720000Y-73660000D02*
X39370000Y-73660000D01*
X121285000Y-69850000D02*
X121285000Y-71755000D01*
X117475000Y-71755000D02*
X115570000Y-73660000D01*
X121285000Y-71755000D02*
X117475000Y-71755000D01*
X121285000Y-69850000D02*
X121285000Y-43815000D01*
X120650000Y-72390000D02*
X121285000Y-71755000D01*
X120650000Y-73660000D02*
X120650000Y-72390000D01*
X39370000Y-130175000D02*
X39370000Y-111760000D01*
X39370000Y-147955000D02*
X39370000Y-130175000D01*
X44450000Y-147955000D02*
X39370000Y-147955000D01*
X44450000Y-128905000D02*
X39370000Y-128905000D01*
D29*
X98425000Y-93980000D02*
X100330000Y-93980000D01*
X93980000Y-98425000D02*
X98425000Y-93980000D01*
X93980000Y-104140000D02*
X93980000Y-98425000D01*
X115570000Y-126365000D02*
X93980000Y-104140000D01*
X102235000Y-179070000D02*
X102235000Y-180975000D01*
X115570000Y-165735000D02*
X102235000Y-179070000D01*
X115570000Y-126365000D02*
X115570000Y-165735000D01*
X95885000Y-103505000D02*
X95885000Y-99060000D01*
X117475000Y-125730000D02*
X95885000Y-103505000D01*
X98425000Y-96520000D02*
X100330000Y-96520000D01*
X117475000Y-166370000D02*
X117475000Y-125730000D01*
X104775000Y-179070000D02*
X117475000Y-166370000D01*
X95885000Y-99060000D02*
X98425000Y-96520000D01*
X104775000Y-180975000D02*
X104775000Y-179070000D01*
X107315000Y-179070000D02*
X107315000Y-180975000D01*
X97790000Y-99695000D02*
X97790000Y-103505000D01*
X97790000Y-103505000D02*
X119380000Y-125095000D01*
X98425000Y-99060000D02*
X97790000Y-99695000D01*
X119380000Y-125095000D02*
X119380000Y-167005000D01*
X100330000Y-99060000D02*
X98425000Y-99060000D01*
X107315000Y-179070000D02*
X119380000Y-167005000D01*
X109855000Y-179070000D02*
X109855000Y-180975000D01*
X121285000Y-167640000D02*
X109855000Y-179070000D01*
X121285000Y-106045000D02*
X121285000Y-167640000D01*
X116840000Y-101600000D02*
X121285000Y-106045000D01*
X115570000Y-101600000D02*
X116840000Y-101600000D01*
X112395000Y-179070000D02*
X118745000Y-172720000D01*
X112395000Y-180975000D02*
X112395000Y-179070000D01*
X115570000Y-99060000D02*
X116840000Y-99060000D01*
X116840000Y-99060000D02*
X123190000Y-105410000D01*
X123190000Y-105410000D02*
X123190000Y-112395000D01*
X123190000Y-112395000D02*
X123190000Y-168275000D01*
X123190000Y-168275000D02*
X118745000Y-172720000D01*
X114935000Y-179070000D02*
X114935000Y-180975000D01*
X116840000Y-96520000D02*
X129540000Y-109220000D01*
X129540000Y-164465000D02*
X129541845Y-164466845D01*
X115570000Y-96520000D02*
X116840000Y-96520000D01*
X129540000Y-109220000D02*
X129540000Y-164465000D01*
X129541845Y-164466845D02*
X114935000Y-179070000D01*
X129543691Y-164465000D02*
X129541845Y-164466845D01*
X131445000Y-165100000D02*
X117475000Y-179070000D01*
X131445000Y-108585000D02*
X131445000Y-165100000D01*
X116840000Y-93980000D02*
X131445000Y-108585000D01*
X117475000Y-179070000D02*
X117475000Y-180975000D01*
X115570000Y-93980000D02*
X116840000Y-93980000D01*
X120015000Y-179070000D02*
X120015000Y-180975000D01*
X133350000Y-165735000D02*
X120015000Y-179070000D01*
X133350000Y-107950000D02*
X133350000Y-165735000D01*
X116840000Y-91440000D02*
X133350000Y-107950000D01*
X115570000Y-91440000D02*
X116840000Y-91440000D01*
D28*
X75565000Y-63500000D02*
X76835000Y-64770000D01*
X73025000Y-63500000D02*
X75565000Y-63500000D01*
X76835000Y-64770000D02*
X76835000Y-63500000D01*
X76835000Y-63500000D02*
X78105000Y-62230000D01*
X99695000Y-62865000D02*
X99695000Y-64770000D01*
X99060000Y-62230000D02*
X99695000Y-62865000D01*
D29*
X79375000Y-57150000D02*
X79375000Y-62230000D01*
D28*
X79375000Y-62230000D02*
X99060000Y-62230000D01*
X78105000Y-62230000D02*
X79375000Y-62230000D01*
D27*
X102780000Y-101600000D02*
X100330000Y-101600000D01*
X110490000Y-93890000D02*
X102780000Y-101600000D01*
X115570000Y-83820000D02*
X110490000Y-83820000D01*
X110490000Y-83820000D02*
X110490000Y-93890000D01*
X110490000Y-72470000D02*
X110490000Y-83820000D01*
X77390000Y-157400000D02*
X78740000Y-158750000D01*
X74930000Y-157400000D02*
X77390000Y-157400000D01*
X77390000Y-157400000D02*
X77550000Y-157400000D01*
X77550000Y-157400000D02*
X80010000Y-154940000D01*
X101600000Y-155575000D02*
X101600000Y-158750000D01*
X100965000Y-154940000D02*
X101600000Y-155575000D01*
X81280000Y-154940000D02*
X81280000Y-151130000D01*
X80010000Y-154940000D02*
X81280000Y-154940000D01*
X81280000Y-154940000D02*
X100965000Y-154940000D01*
D28*
X64770000Y-116205000D02*
X64770000Y-118110000D01*
X64135000Y-115570000D02*
X64770000Y-116205000D01*
X45005000Y-115570000D02*
X64135000Y-115570000D01*
X43815000Y-116760000D02*
X45005000Y-115570000D01*
D27*
X113110000Y-69850000D02*
X110490000Y-72470000D01*
X116285000Y-69850000D02*
X113110000Y-69850000D01*
D30*
X101600000Y-151130000D02*
X101600000Y-149860000D01*
X110490000Y-147955000D02*
X110490000Y-144780000D01*
X109855000Y-148590000D02*
X110490000Y-147955000D01*
X102870000Y-148590000D02*
X109855000Y-148590000D01*
X101600000Y-149860000D02*
X102870000Y-148590000D01*
X99060000Y-151130000D02*
X99060000Y-149860000D01*
X104140000Y-144780000D02*
X105410000Y-144780000D01*
X99060000Y-149860000D02*
X104140000Y-144780000D01*
X96520000Y-148590000D02*
X100330000Y-144780000D01*
X96520000Y-151130000D02*
X96520000Y-148590000D01*
X93980000Y-146050000D02*
X95250000Y-144780000D01*
X93980000Y-151130000D02*
X93980000Y-146050000D01*
X91440000Y-146050000D02*
X90170000Y-144780000D01*
X91440000Y-151130000D02*
X91440000Y-146050000D01*
X88900000Y-148590000D02*
X85090000Y-144780000D01*
X88900000Y-151130000D02*
X88900000Y-148590000D01*
X86360000Y-151130000D02*
X86360000Y-149860000D01*
X81280000Y-144780000D02*
X80010000Y-144780000D01*
X86360000Y-149860000D02*
X81280000Y-144780000D01*
X83820000Y-151130000D02*
X83820000Y-149860000D01*
X75565000Y-148590000D02*
X74930000Y-147955000D01*
X74930000Y-147955000D02*
X74930000Y-144780000D01*
X82550000Y-148590000D02*
X75565000Y-148590000D01*
X83820000Y-149860000D02*
X82550000Y-148590000D01*
X81915000Y-57150000D02*
X81915000Y-55880000D01*
X81915000Y-55880000D02*
X80010000Y-53975000D01*
X80010000Y-53975000D02*
X73660000Y-53975000D01*
X73660000Y-53975000D02*
X73025000Y-53340000D01*
X73025000Y-53340000D02*
X73025000Y-51435000D01*
X84455000Y-57150000D02*
X84455000Y-55880000D01*
X80010000Y-51435000D02*
X78105000Y-51435000D01*
X84455000Y-55880000D02*
X80010000Y-51435000D01*
X86995000Y-55245000D02*
X83185000Y-51435000D01*
X86995000Y-57150000D02*
X86995000Y-55245000D01*
X89535000Y-52705000D02*
X88265000Y-51435000D01*
X89535000Y-57150000D02*
X89535000Y-52705000D01*
X92075000Y-52705000D02*
X93345000Y-51435000D01*
X92075000Y-57150000D02*
X92075000Y-52705000D01*
X94615000Y-55245000D02*
X98425000Y-51435000D01*
X94615000Y-57150000D02*
X94615000Y-55245000D01*
X97155000Y-57150000D02*
X97155000Y-55880000D01*
X97155000Y-55880000D02*
X101600000Y-51435000D01*
X101600000Y-51435000D02*
X103505000Y-51435000D01*
X107950000Y-53975000D02*
X108585000Y-53340000D01*
X99695000Y-57150000D02*
X99695000Y-55880000D01*
X99695000Y-55880000D02*
X101600000Y-53975000D01*
X101600000Y-53975000D02*
X107950000Y-53975000D01*
X108585000Y-53340000D02*
X108585000Y-51435000D01*
D29*
X79375000Y-73660000D02*
X79375000Y-68580000D01*
X79375000Y-68580000D02*
X79375000Y-64770000D01*
X81915000Y-76200000D02*
X81915000Y-68580000D01*
X81915000Y-68580000D02*
X81915000Y-64770000D01*
X84455000Y-78740000D02*
X84455000Y-68580000D01*
X84455000Y-68580000D02*
X84455000Y-64770000D01*
X86995000Y-81280000D02*
X86995000Y-68580000D01*
X86995000Y-64770000D02*
X86995000Y-68580000D01*
X89535000Y-83820000D02*
X89535000Y-68580000D01*
X89535000Y-68580000D02*
X89535000Y-65405000D01*
X89535000Y-65405000D02*
X89535000Y-64770000D01*
X92075000Y-86360000D02*
X92075000Y-68580000D01*
X92075000Y-68580000D02*
X92075000Y-64770000D01*
X94615000Y-88900000D02*
X94615000Y-68580000D01*
X94615000Y-68580000D02*
X94615000Y-64770000D01*
X97155000Y-68580000D02*
X97155000Y-64770000D01*
X97155000Y-90805000D02*
X97155000Y-68580000D01*
X97790000Y-91440000D02*
X97155000Y-90805000D01*
X100330000Y-91440000D02*
X97790000Y-91440000D01*
X48260000Y-158115000D02*
X49530000Y-156845000D01*
X44450000Y-158115000D02*
X48260000Y-158115000D01*
X49530000Y-156845000D02*
X52705000Y-153670000D01*
X52705000Y-153670000D02*
X52705000Y-123825000D01*
X52705000Y-123825000D02*
X49530000Y-120650000D01*
X49530000Y-120650000D02*
X49530000Y-118110000D01*
X43180000Y-113665000D02*
X41275000Y-115570000D01*
X49530000Y-113665000D02*
X43180000Y-113665000D01*
X52070000Y-111125000D02*
X49530000Y-113665000D01*
X52070000Y-110490000D02*
X52070000Y-111125000D01*
X48260000Y-139065000D02*
X49530000Y-137795000D01*
X44450000Y-139065000D02*
X48260000Y-139065000D01*
X44450000Y-139065000D02*
X46990000Y-136525000D01*
X46990000Y-136525000D02*
X46990000Y-125730000D01*
X46990000Y-125730000D02*
X41275000Y-120015000D01*
X41275000Y-115570000D02*
X41275000Y-120015000D01*
X62230000Y-92075000D02*
X62230000Y-99695000D01*
X54610000Y-99695000D02*
X54610000Y-92075000D01*
X59690000Y-110490000D02*
X59690000Y-109855000D01*
X59690000Y-109855000D02*
X58420000Y-108585000D01*
X58420000Y-108585000D02*
X58420000Y-95885000D01*
X58420000Y-95885000D02*
X57150000Y-94615000D01*
X57150000Y-94615000D02*
X57150000Y-92075000D01*
X66040000Y-110490000D02*
X64770000Y-110490000D01*
X66675000Y-111125000D02*
X66040000Y-110490000D01*
X66040000Y-120650000D02*
X66675000Y-120015000D01*
X66675000Y-120015000D02*
X66675000Y-111125000D01*
X57785000Y-120650000D02*
X66040000Y-120650000D01*
X57150000Y-120015000D02*
X57785000Y-120650000D01*
X57150000Y-118110000D02*
X57150000Y-120015000D01*
X54610000Y-80010000D02*
X57150000Y-80010000D01*
X54610000Y-64770000D02*
X55880000Y-66040000D01*
X55880000Y-78740000D02*
X54610000Y-80010000D01*
X55880000Y-66040000D02*
X55880000Y-78740000D01*
X57150000Y-72390000D02*
X57150000Y-74930000D01*
X59690000Y-77470000D02*
X59690000Y-80010000D01*
X57150000Y-74930000D02*
X59690000Y-77470000D01*
X57150000Y-72390000D02*
X57150000Y-69850000D01*
X57150000Y-69850000D02*
X59690000Y-67310000D01*
X59690000Y-67310000D02*
X59690000Y-64770000D01*
X54610000Y-72390000D02*
X54610000Y-69215000D01*
X54610000Y-69215000D02*
X53975000Y-68580000D01*
X53975000Y-68580000D02*
X50165000Y-68580000D01*
X49530000Y-67945000D02*
X49530000Y-64770000D01*
X50165000Y-68580000D02*
X49530000Y-67945000D01*
X47625000Y-69850000D02*
X49530000Y-67945000D01*
X47625000Y-105410000D02*
X47625000Y-69850000D01*
X62230000Y-111760000D02*
X60960000Y-113030000D01*
X62230000Y-110490000D02*
X62230000Y-111760000D01*
X60960000Y-113030000D02*
X57785000Y-113030000D01*
X57785000Y-113030000D02*
X56515000Y-113030000D01*
X56515000Y-113030000D02*
X55880000Y-112395000D01*
X55880000Y-112395000D02*
X55880000Y-108585000D01*
X55880000Y-108585000D02*
X53975000Y-106680000D01*
X53975000Y-106680000D02*
X53340000Y-106045000D01*
X53340000Y-106045000D02*
X48260000Y-106045000D01*
X48260000Y-106045000D02*
X47625000Y-105410000D01*
X47625000Y-57785000D02*
X42545000Y-52705000D01*
X47625000Y-59055000D02*
X47625000Y-57785000D01*
X52070000Y-63500000D02*
X47625000Y-59055000D01*
X52070000Y-64770000D02*
X52070000Y-63500000D01*
X41910000Y-52705000D02*
X42545000Y-52705000D01*
X124460000Y-76200000D02*
X115570000Y-76200000D01*
X124460000Y-78740000D02*
X115570000Y-78740000D01*
X124460000Y-81280000D02*
X120650000Y-81280000D01*
X120650000Y-81280000D02*
X118745000Y-81280000D01*
X118745000Y-81280000D02*
X118110000Y-81915000D01*
X118110000Y-81915000D02*
X118110000Y-85725000D01*
X117475000Y-86360000D02*
X115570000Y-86360000D01*
X118110000Y-85725000D02*
X117475000Y-86360000D01*
X65405000Y-165735000D02*
X65405000Y-131445000D01*
X64770000Y-166370000D02*
X65405000Y-165735000D01*
X65405000Y-127635000D02*
X65405000Y-125095000D01*
X65405000Y-131445000D02*
X65405000Y-127635000D01*
X65405000Y-127635000D02*
X65405000Y-127000000D01*
X65405000Y-125095000D02*
X68580000Y-121920000D01*
X68580000Y-121920000D02*
X68580000Y-109220000D01*
X68580000Y-109220000D02*
X60960000Y-101600000D01*
X60960000Y-101600000D02*
X60960000Y-95250000D01*
X59690000Y-93980000D02*
X59690000Y-92075000D01*
X60960000Y-95250000D02*
X59690000Y-93980000D01*
X64770000Y-166370000D02*
X46355000Y-166370000D01*
X52070000Y-92075000D02*
X52070000Y-90170000D01*
X52070000Y-90170000D02*
X52705000Y-89535000D01*
X52705000Y-89535000D02*
X59055000Y-89535000D01*
X59690000Y-90170000D02*
X59690000Y-92075000D01*
X59055000Y-89535000D02*
X59690000Y-90170000D01*
D28*
X110490000Y-131445000D02*
X110490000Y-134620000D01*
X105410000Y-134620000D02*
X105410000Y-131445000D01*
X100330000Y-131445000D02*
X100330000Y-134620000D01*
X95250000Y-131445000D02*
X95250000Y-134620000D01*
X90170000Y-131445000D02*
X90170000Y-134620000D01*
X85090000Y-131445000D02*
X85090000Y-134620000D01*
X80010000Y-131445000D02*
X80010000Y-134620000D01*
X74930000Y-134620000D02*
X74930000Y-131445000D01*
X108585000Y-38735000D02*
X108585000Y-41275000D01*
X103505000Y-41275000D02*
X103505000Y-38735000D01*
X98425000Y-38735000D02*
X98425000Y-41275000D01*
X93345000Y-41275000D02*
X93345000Y-38735000D01*
X88265000Y-41275000D02*
X88265000Y-38735000D01*
X83185000Y-41275000D02*
X83185000Y-38735000D01*
X78105000Y-41275000D02*
X78105000Y-38735000D01*
X73025000Y-41275000D02*
X73025000Y-38735000D01*
X52070000Y-57150000D02*
X52070000Y-52705000D01*
X52070000Y-52705000D02*
X56515000Y-52705000D01*
D29*
X46990000Y-172720000D02*
X46355000Y-173355000D01*
X64770000Y-172720000D02*
X46990000Y-172720000D01*
X49530000Y-86360000D02*
X49530000Y-80010000D01*
X64770000Y-87630000D02*
X50800000Y-87630000D01*
X69850000Y-122555000D02*
X69850000Y-92710000D01*
X66675000Y-125730000D02*
X69850000Y-122555000D01*
X50800000Y-87630000D02*
X49530000Y-86360000D01*
X69850000Y-92710000D02*
X64770000Y-87630000D01*
X66675000Y-170815000D02*
X66675000Y-125730000D01*
X64770000Y-172720000D02*
X66675000Y-170815000D01*
X46355000Y-175895000D02*
X64770000Y-175895000D01*
X53340000Y-83820000D02*
X53340000Y-76835000D01*
X52070000Y-75565000D02*
X52070000Y-72390000D01*
X55880000Y-86360000D02*
X53340000Y-83820000D01*
X71120000Y-123190000D02*
X71120000Y-92075000D01*
X53340000Y-76835000D02*
X52070000Y-75565000D01*
X67945000Y-126365000D02*
X71120000Y-123190000D01*
X65405000Y-86360000D02*
X55880000Y-86360000D01*
X67945000Y-172720000D02*
X67945000Y-126365000D01*
X71120000Y-92075000D02*
X65405000Y-86360000D01*
X64770000Y-175895000D02*
X67945000Y-172720000D01*
X43180000Y-172085000D02*
X43180000Y-176530000D01*
X43180000Y-176530000D02*
X45085000Y-178435000D01*
X54610000Y-59690000D02*
X54610000Y-57150000D01*
X65405000Y-178435000D02*
X69215000Y-174625000D01*
X69215000Y-174625000D02*
X69215000Y-127000000D01*
X46355000Y-168910000D02*
X43180000Y-172085000D01*
X72390000Y-123825000D02*
X72390000Y-71755000D01*
X72390000Y-71755000D02*
X69215000Y-68580000D01*
X69215000Y-68580000D02*
X69215000Y-64770000D01*
X45085000Y-178435000D02*
X65405000Y-178435000D01*
X55245000Y-60325000D02*
X54610000Y-59690000D01*
X69215000Y-64770000D02*
X64770000Y-60325000D01*
X69215000Y-127000000D02*
X72390000Y-123825000D01*
X64770000Y-60325000D02*
X55245000Y-60325000D01*
M02*
