G04 #@! TF.GenerationSoftware,KiCad,Pcbnew,(5.1.7)-1*
G04 #@! TF.CreationDate,2020-12-28T01:02:16+01:00*
G04 #@! TF.ProjectId,Akku,416b6b75-2e6b-4696-9361-645f70636258,rev?*
G04 #@! TF.SameCoordinates,Original*
G04 #@! TF.FileFunction,Copper,L2,Bot*
G04 #@! TF.FilePolarity,Positive*
%FSLAX46Y46*%
G04 Gerber Fmt 4.6, Leading zero omitted, Abs format (unit mm)*
G04 Created by KiCad (PCBNEW (5.1.7)-1) date 2020-12-28 01:02:16*
%MOMM*%
%LPD*%
G01*
G04 APERTURE LIST*
G04 #@! TA.AperFunction,ComponentPad*
%ADD10O,1.600000X1.600000*%
G04 #@! TD*
G04 #@! TA.AperFunction,ComponentPad*
%ADD11R,1.600000X1.600000*%
G04 #@! TD*
G04 #@! TA.AperFunction,ComponentPad*
%ADD12O,2.190000X1.740000*%
G04 #@! TD*
G04 #@! TA.AperFunction,ComponentPad*
%ADD13O,1.800000X1.800000*%
G04 #@! TD*
G04 #@! TA.AperFunction,ComponentPad*
%ADD14R,1.800000X1.800000*%
G04 #@! TD*
G04 #@! TA.AperFunction,ComponentPad*
%ADD15C,1.600000*%
G04 #@! TD*
G04 #@! TA.AperFunction,ComponentPad*
%ADD16O,1.700000X1.700000*%
G04 #@! TD*
G04 #@! TA.AperFunction,ComponentPad*
%ADD17R,1.700000X1.700000*%
G04 #@! TD*
G04 #@! TA.AperFunction,ComponentPad*
%ADD18C,1.800000*%
G04 #@! TD*
G04 #@! TA.AperFunction,ComponentPad*
%ADD19O,1.740000X2.190000*%
G04 #@! TD*
G04 #@! TA.AperFunction,ComponentPad*
%ADD20C,2.000000*%
G04 #@! TD*
G04 #@! TA.AperFunction,ComponentPad*
%ADD21C,1.100000*%
G04 #@! TD*
G04 #@! TA.AperFunction,ComponentPad*
%ADD22O,1.600000X2.400000*%
G04 #@! TD*
G04 #@! TA.AperFunction,ComponentPad*
%ADD23R,1.600000X2.400000*%
G04 #@! TD*
G04 #@! TA.AperFunction,ViaPad*
%ADD24C,1.000000*%
G04 #@! TD*
G04 #@! TA.AperFunction,Conductor*
%ADD25C,1.250000*%
G04 #@! TD*
G04 #@! TA.AperFunction,Conductor*
%ADD26C,1.000000*%
G04 #@! TD*
G04 #@! TA.AperFunction,Conductor*
%ADD27C,0.600000*%
G04 #@! TD*
G04 #@! TA.AperFunction,Conductor*
%ADD28C,0.400000*%
G04 #@! TD*
G04 APERTURE END LIST*
D10*
X62865000Y-81915000D03*
X62865000Y-79375000D03*
X62865000Y-76835000D03*
X62865000Y-74295000D03*
X62865000Y-71755000D03*
X62865000Y-69215000D03*
X62865000Y-66675000D03*
X62865000Y-64135000D03*
D11*
X62865000Y-61595000D03*
D12*
X139700000Y-186055000D03*
G04 #@! TA.AperFunction,ComponentPad*
G36*
G01*
X138854999Y-182645000D02*
X140545001Y-182645000D01*
G75*
G02*
X140795000Y-182894999I0J-249999D01*
G01*
X140795000Y-184135001D01*
G75*
G02*
X140545001Y-184385000I-249999J0D01*
G01*
X138854999Y-184385000D01*
G75*
G02*
X138605000Y-184135001I0J249999D01*
G01*
X138605000Y-182894999D01*
G75*
G02*
X138854999Y-182645000I249999J0D01*
G01*
G37*
G04 #@! TD.AperFunction*
X139700000Y-194310000D03*
G04 #@! TA.AperFunction,ComponentPad*
G36*
G01*
X138854999Y-190900000D02*
X140545001Y-190900000D01*
G75*
G02*
X140795000Y-191149999I0J-249999D01*
G01*
X140795000Y-192390001D01*
G75*
G02*
X140545001Y-192640000I-249999J0D01*
G01*
X138854999Y-192640000D01*
G75*
G02*
X138605000Y-192390001I0J249999D01*
G01*
X138605000Y-191149999D01*
G75*
G02*
X138854999Y-190900000I249999J0D01*
G01*
G37*
G04 #@! TD.AperFunction*
D13*
X88900000Y-54610000D03*
D14*
X78740000Y-54610000D03*
D15*
X104775000Y-168910000D03*
X104775000Y-173910000D03*
X54610000Y-168990000D03*
X54610000Y-173990000D03*
X64770000Y-111125000D03*
X64770000Y-116125000D03*
X98425000Y-137795000D03*
X98425000Y-142795000D03*
X64770000Y-142795000D03*
X64770000Y-137795000D03*
X98425000Y-111125000D03*
X98425000Y-116125000D03*
X69850000Y-55840000D03*
D11*
X69850000Y-53340000D03*
D15*
X79375000Y-168910000D03*
X79375000Y-173910000D03*
D16*
X55245000Y-84455000D03*
X52705000Y-84455000D03*
X55245000Y-81915000D03*
X52705000Y-81915000D03*
X55245000Y-79375000D03*
X52705000Y-79375000D03*
X55245000Y-76835000D03*
X52705000Y-76835000D03*
X55245000Y-74295000D03*
X52705000Y-74295000D03*
X55245000Y-71755000D03*
X52705000Y-71755000D03*
X55245000Y-69215000D03*
X52705000Y-69215000D03*
X55245000Y-66675000D03*
X52705000Y-66675000D03*
X55245000Y-64135000D03*
X52705000Y-64135000D03*
X55245000Y-61595000D03*
D17*
X52705000Y-61595000D03*
D16*
X109855000Y-55245000D03*
X109855000Y-52705000D03*
X112395000Y-55245000D03*
X112395000Y-52705000D03*
X114935000Y-55245000D03*
X114935000Y-52705000D03*
X117475000Y-55245000D03*
X117475000Y-52705000D03*
X120015000Y-55245000D03*
X120015000Y-52705000D03*
X122555000Y-55245000D03*
X122555000Y-52705000D03*
X125095000Y-55245000D03*
X125095000Y-52705000D03*
X127635000Y-55245000D03*
X127635000Y-52705000D03*
X130175000Y-55245000D03*
X130175000Y-52705000D03*
X132715000Y-55245000D03*
D17*
X132715000Y-52705000D03*
D16*
X140970000Y-84455000D03*
X138430000Y-84455000D03*
X140970000Y-81915000D03*
X138430000Y-81915000D03*
X140970000Y-79375000D03*
X138430000Y-79375000D03*
X140970000Y-76835000D03*
X138430000Y-76835000D03*
X140970000Y-74295000D03*
X138430000Y-74295000D03*
X140970000Y-71755000D03*
X138430000Y-71755000D03*
X140970000Y-69215000D03*
X138430000Y-69215000D03*
X140970000Y-66675000D03*
X138430000Y-66675000D03*
X140970000Y-64135000D03*
X138430000Y-64135000D03*
X140970000Y-61595000D03*
D17*
X138430000Y-61595000D03*
D10*
X133985000Y-104140000D03*
D15*
X133985000Y-93980000D03*
D10*
X128905000Y-104140000D03*
D15*
X128905000Y-93980000D03*
D10*
X123825000Y-104140000D03*
D15*
X123825000Y-93980000D03*
D10*
X118745000Y-104140000D03*
D15*
X118745000Y-93980000D03*
D10*
X113665000Y-104140000D03*
D15*
X113665000Y-93980000D03*
D10*
X108585000Y-104140000D03*
D15*
X108585000Y-93980000D03*
D10*
X103505000Y-104140000D03*
D15*
X103505000Y-93980000D03*
D10*
X66675000Y-97155000D03*
D15*
X56515000Y-97155000D03*
D10*
X98425000Y-104140000D03*
D15*
X98425000Y-93980000D03*
D10*
X125095000Y-195580000D03*
D15*
X125095000Y-185420000D03*
D10*
X140335000Y-147320000D03*
D15*
X140335000Y-157480000D03*
D10*
X136525000Y-147320000D03*
D15*
X136525000Y-157480000D03*
D10*
X56515000Y-100330000D03*
D15*
X66675000Y-100330000D03*
D10*
X104140000Y-185420000D03*
D15*
X104140000Y-195580000D03*
D10*
X107950000Y-185420000D03*
D15*
X107950000Y-195580000D03*
D18*
X133985000Y-88900000D03*
D14*
X133985000Y-91440000D03*
D18*
X128905000Y-88900000D03*
D14*
X128905000Y-91440000D03*
D18*
X123825000Y-88900000D03*
D14*
X123825000Y-91440000D03*
D18*
X118745000Y-88900000D03*
D14*
X118745000Y-91440000D03*
D18*
X113665000Y-88900000D03*
D14*
X113665000Y-91440000D03*
D18*
X64135000Y-91440000D03*
D14*
X64135000Y-88900000D03*
D18*
X108585000Y-88900000D03*
D14*
X108585000Y-91440000D03*
D18*
X103505000Y-88900000D03*
D14*
X103505000Y-91440000D03*
D18*
X98425000Y-88900000D03*
D14*
X98425000Y-91440000D03*
X132715000Y-136525000D03*
D18*
X130175000Y-136525000D03*
D14*
X130175000Y-143510000D03*
D18*
X132715000Y-143510000D03*
X75565000Y-91440000D03*
D14*
X75565000Y-88900000D03*
D12*
X139700000Y-177800000D03*
G04 #@! TA.AperFunction,ComponentPad*
G36*
G01*
X138854999Y-174390000D02*
X140545001Y-174390000D01*
G75*
G02*
X140795000Y-174639999I0J-249999D01*
G01*
X140795000Y-175880001D01*
G75*
G02*
X140545001Y-176130000I-249999J0D01*
G01*
X138854999Y-176130000D01*
G75*
G02*
X138605000Y-175880001I0J249999D01*
G01*
X138605000Y-174639999D01*
G75*
G02*
X138854999Y-174390000I249999J0D01*
G01*
G37*
G04 #@! TD.AperFunction*
X139700000Y-169545000D03*
X139700000Y-167005000D03*
X139700000Y-164465000D03*
G04 #@! TA.AperFunction,ComponentPad*
G36*
G01*
X138854999Y-161055000D02*
X140545001Y-161055000D01*
G75*
G02*
X140795000Y-161304999I0J-249999D01*
G01*
X140795000Y-162545001D01*
G75*
G02*
X140545001Y-162795000I-249999J0D01*
G01*
X138854999Y-162795000D01*
G75*
G02*
X138605000Y-162545001I0J249999D01*
G01*
X138605000Y-161304999D01*
G75*
G02*
X138854999Y-161055000I249999J0D01*
G01*
G37*
G04 #@! TD.AperFunction*
D19*
X60325000Y-54610000D03*
G04 #@! TA.AperFunction,ComponentPad*
G36*
G01*
X56915000Y-55455001D02*
X56915000Y-53764999D01*
G75*
G02*
X57164999Y-53515000I249999J0D01*
G01*
X58405001Y-53515000D01*
G75*
G02*
X58655000Y-53764999I0J-249999D01*
G01*
X58655000Y-55455001D01*
G75*
G02*
X58405001Y-55705000I-249999J0D01*
G01*
X57164999Y-55705000D01*
G75*
G02*
X56915000Y-55455001I0J249999D01*
G01*
G37*
G04 #@! TD.AperFunction*
D20*
X76835000Y-198120000D03*
X76835000Y-193040000D03*
X84455000Y-198120000D03*
D21*
X84455000Y-185420000D03*
X76835000Y-200660000D03*
D20*
X84455000Y-193040000D03*
X62865000Y-198120000D03*
X62865000Y-193040000D03*
X70485000Y-198120000D03*
D21*
X70485000Y-185420000D03*
X62865000Y-200660000D03*
D20*
X70485000Y-193040000D03*
X90805000Y-198120000D03*
X90805000Y-193040000D03*
X98425000Y-198120000D03*
D21*
X98425000Y-185420000D03*
X90805000Y-200660000D03*
D20*
X98425000Y-193040000D03*
D10*
X115570000Y-185420000D03*
D15*
X115570000Y-195580000D03*
D10*
X121920000Y-185420000D03*
D15*
X121920000Y-195580000D03*
D10*
X118745000Y-185420000D03*
D15*
X118745000Y-195580000D03*
D22*
X102235000Y-109855000D03*
X125095000Y-117475000D03*
X104775000Y-109855000D03*
X122555000Y-117475000D03*
X107315000Y-109855000D03*
X120015000Y-117475000D03*
X109855000Y-109855000D03*
X117475000Y-117475000D03*
X112395000Y-109855000D03*
X114935000Y-117475000D03*
X114935000Y-109855000D03*
X112395000Y-117475000D03*
X117475000Y-109855000D03*
X109855000Y-117475000D03*
X120015000Y-109855000D03*
X107315000Y-117475000D03*
X122555000Y-109855000D03*
X104775000Y-117475000D03*
X125095000Y-109855000D03*
D23*
X102235000Y-117475000D03*
X120015000Y-136525000D03*
D22*
X102235000Y-144145000D03*
X117475000Y-136525000D03*
X104775000Y-144145000D03*
X114935000Y-136525000D03*
X107315000Y-144145000D03*
X112395000Y-136525000D03*
X109855000Y-144145000D03*
X109855000Y-136525000D03*
X112395000Y-144145000D03*
X107315000Y-136525000D03*
X114935000Y-144145000D03*
X104775000Y-136525000D03*
X117475000Y-144145000D03*
X102235000Y-136525000D03*
X120015000Y-144145000D03*
X68580000Y-109855000D03*
X91440000Y-117475000D03*
X71120000Y-109855000D03*
X88900000Y-117475000D03*
X73660000Y-109855000D03*
X86360000Y-117475000D03*
X76200000Y-109855000D03*
X83820000Y-117475000D03*
X78740000Y-109855000D03*
X81280000Y-117475000D03*
X81280000Y-109855000D03*
X78740000Y-117475000D03*
X83820000Y-109855000D03*
X76200000Y-117475000D03*
X86360000Y-109855000D03*
X73660000Y-117475000D03*
X88900000Y-109855000D03*
X71120000Y-117475000D03*
X91440000Y-109855000D03*
D23*
X68580000Y-117475000D03*
D22*
X86360000Y-144145000D03*
X68580000Y-136525000D03*
X83820000Y-144145000D03*
X71120000Y-136525000D03*
X81280000Y-144145000D03*
X73660000Y-136525000D03*
X78740000Y-144145000D03*
X76200000Y-136525000D03*
X76200000Y-144145000D03*
X78740000Y-136525000D03*
X73660000Y-144145000D03*
X81280000Y-136525000D03*
X71120000Y-144145000D03*
X83820000Y-136525000D03*
X68580000Y-144145000D03*
D23*
X86360000Y-136525000D03*
D22*
X83185000Y-167640000D03*
X98425000Y-175260000D03*
X85725000Y-167640000D03*
X95885000Y-175260000D03*
X88265000Y-167640000D03*
X93345000Y-175260000D03*
X90805000Y-167640000D03*
X90805000Y-175260000D03*
X93345000Y-167640000D03*
X88265000Y-175260000D03*
X95885000Y-167640000D03*
X85725000Y-175260000D03*
X98425000Y-167640000D03*
D23*
X83185000Y-175260000D03*
D22*
X58420000Y-167640000D03*
X73660000Y-175260000D03*
X60960000Y-167640000D03*
X71120000Y-175260000D03*
X63500000Y-167640000D03*
X68580000Y-175260000D03*
X66040000Y-167640000D03*
X66040000Y-175260000D03*
X68580000Y-167640000D03*
X63500000Y-175260000D03*
X71120000Y-167640000D03*
X60960000Y-175260000D03*
X73660000Y-167640000D03*
D23*
X58420000Y-175260000D03*
D22*
X108585000Y-167640000D03*
X123825000Y-175260000D03*
X111125000Y-167640000D03*
X121285000Y-175260000D03*
X113665000Y-167640000D03*
X118745000Y-175260000D03*
X116205000Y-167640000D03*
X116205000Y-175260000D03*
X118745000Y-167640000D03*
X113665000Y-175260000D03*
X121285000Y-167640000D03*
X111125000Y-175260000D03*
X123825000Y-167640000D03*
D23*
X108585000Y-175260000D03*
D11*
X55880000Y-180340000D03*
D10*
X58420000Y-180340000D03*
X60960000Y-180340000D03*
X63500000Y-180340000D03*
X66040000Y-180340000D03*
D24*
X50800000Y-142875000D03*
X50800000Y-111125000D03*
X121285000Y-156210000D03*
X91440000Y-81915000D03*
X89535000Y-79375000D03*
X87630000Y-76835000D03*
X85725000Y-74295000D03*
X83820000Y-71755000D03*
X81915000Y-69215000D03*
X80010000Y-66675000D03*
X78105000Y-64135000D03*
X116205000Y-149225000D03*
X127635000Y-177800000D03*
X113665000Y-154305000D03*
X52705000Y-124460000D03*
D25*
X100965000Y-111125000D02*
X102235000Y-109855000D01*
X98425000Y-111125000D02*
X100965000Y-111125000D01*
D26*
X67310000Y-111125000D02*
X68580000Y-109855000D01*
X64770000Y-111125000D02*
X67310000Y-111125000D01*
X67310000Y-111125000D02*
X67310000Y-111760000D01*
X67310000Y-111760000D02*
X67945000Y-112395000D01*
X97155000Y-112395000D02*
X98425000Y-111125000D01*
X67945000Y-112395000D02*
X97155000Y-112395000D01*
X65960000Y-141605000D02*
X86360000Y-141605000D01*
X86360000Y-141605000D02*
X86360000Y-144145000D01*
X97235000Y-141605000D02*
X98425000Y-142795000D01*
X86360000Y-141605000D02*
X97235000Y-141605000D01*
X65960000Y-141605000D02*
X64770000Y-142795000D01*
X64690000Y-142875000D02*
X64770000Y-142795000D01*
X57070000Y-168990000D02*
X58420000Y-167640000D01*
X54610000Y-168990000D02*
X57070000Y-168990000D01*
X57070000Y-168990000D02*
X57070000Y-169465000D01*
X57070000Y-169465000D02*
X57785000Y-170180000D01*
X78105000Y-170180000D02*
X79375000Y-168910000D01*
X57785000Y-170180000D02*
X78105000Y-170180000D01*
X81915000Y-168910000D02*
X83185000Y-167640000D01*
X79375000Y-168910000D02*
X81915000Y-168910000D01*
X81915000Y-168910000D02*
X83185000Y-170180000D01*
X103505000Y-170180000D02*
X104775000Y-168910000D01*
X93345000Y-170180000D02*
X93345000Y-167640000D01*
X83185000Y-170180000D02*
X93345000Y-170180000D01*
X93345000Y-170180000D02*
X103505000Y-170180000D01*
X93345000Y-167640000D02*
X95885000Y-167640000D01*
X107315000Y-168910000D02*
X108585000Y-167640000D01*
X104775000Y-168910000D02*
X107315000Y-168910000D01*
X120015000Y-141605000D02*
X120015000Y-144145000D01*
X118745000Y-140335000D02*
X120015000Y-141605000D01*
X100965000Y-140335000D02*
X118745000Y-140335000D01*
X98425000Y-142795000D02*
X100965000Y-140335000D01*
D25*
X50800000Y-142875000D02*
X64690000Y-142875000D01*
X50800000Y-111125000D02*
X64770000Y-111125000D01*
X57785000Y-59055000D02*
X55245000Y-61595000D01*
X57785000Y-54610000D02*
X57785000Y-59055000D01*
X55245000Y-61595000D02*
X52705000Y-61595000D01*
X55245000Y-61595000D02*
X55245000Y-84455000D01*
X55245000Y-84455000D02*
X52705000Y-84455000D01*
X98425000Y-116125000D02*
X101520000Y-116125000D01*
X102235000Y-116840000D02*
X102235000Y-117475000D01*
X101520000Y-116125000D02*
X102235000Y-116840000D01*
X104775000Y-112870000D02*
X104775000Y-109855000D01*
X101520000Y-116125000D02*
X104775000Y-112870000D01*
X104775000Y-112870000D02*
X123665000Y-112870000D01*
X125095000Y-114300000D02*
X125095000Y-117475000D01*
X123665000Y-112870000D02*
X125095000Y-114300000D01*
X130175000Y-143510000D02*
X130175000Y-141605000D01*
X130175000Y-141605000D02*
X132715000Y-139065000D01*
X132715000Y-139065000D02*
X132715000Y-136525000D01*
X130810000Y-123190000D02*
X125095000Y-117475000D01*
D27*
X98345000Y-116205000D02*
X98425000Y-116125000D01*
D26*
X97235000Y-114935000D02*
X98425000Y-116125000D01*
X91440000Y-114935000D02*
X97235000Y-114935000D01*
X91440000Y-117475000D02*
X91440000Y-114935000D01*
X64770000Y-116125000D02*
X65960000Y-114935000D01*
X65960000Y-114935000D02*
X91440000Y-114935000D01*
D25*
X64690000Y-116205000D02*
X64770000Y-116125000D01*
X48260000Y-62865000D02*
X48260000Y-116205000D01*
X49530000Y-61595000D02*
X48260000Y-62865000D01*
X48260000Y-116205000D02*
X64690000Y-116205000D01*
X52705000Y-61595000D02*
X49530000Y-61595000D01*
D26*
X68580000Y-139065000D02*
X97155000Y-139065000D01*
X97155000Y-139065000D02*
X98425000Y-137795000D01*
X100965000Y-137795000D02*
X102235000Y-136525000D01*
X98425000Y-137795000D02*
X100965000Y-137795000D01*
D25*
X54610000Y-173990000D02*
X48260000Y-173990000D01*
X48260000Y-116205000D02*
X48260000Y-137795000D01*
X64770000Y-137795000D02*
X48260000Y-137795000D01*
D26*
X67310000Y-137795000D02*
X68580000Y-136525000D01*
X64770000Y-137795000D02*
X67310000Y-137795000D01*
X68580000Y-139065000D02*
X67310000Y-137795000D01*
X73660000Y-173355000D02*
X73660000Y-175260000D01*
X73025000Y-172720000D02*
X73660000Y-173355000D01*
X55880000Y-172720000D02*
X73025000Y-172720000D01*
X54610000Y-173990000D02*
X55880000Y-172720000D01*
X78820000Y-173355000D02*
X79375000Y-173910000D01*
X73660000Y-173355000D02*
X78820000Y-173355000D01*
X79375000Y-173910000D02*
X80565000Y-172720000D01*
X80565000Y-172720000D02*
X97790000Y-172720000D01*
X98425000Y-173355000D02*
X98425000Y-175260000D01*
X97790000Y-172720000D02*
X98425000Y-173355000D01*
D25*
X48260000Y-178435000D02*
X62865000Y-193040000D01*
X48260000Y-173990000D02*
X48260000Y-178435000D01*
X62865000Y-193040000D02*
X84455000Y-193040000D01*
X84455000Y-193040000D02*
X86995000Y-195580000D01*
X95885000Y-195580000D02*
X98425000Y-198120000D01*
X86995000Y-195580000D02*
X95885000Y-195580000D01*
X101600000Y-198120000D02*
X104140000Y-195580000D01*
X98425000Y-198120000D02*
X101600000Y-198120000D01*
X48260000Y-167640000D02*
X48260000Y-173990000D01*
X48260000Y-137795000D02*
X48260000Y-167640000D01*
D26*
X104220000Y-173355000D02*
X104775000Y-173910000D01*
X98425000Y-173355000D02*
X104220000Y-173355000D01*
X104775000Y-173910000D02*
X105965000Y-172720000D01*
X105965000Y-172720000D02*
X123190000Y-172720000D01*
X123190000Y-172720000D02*
X123825000Y-173355000D01*
X123825000Y-173355000D02*
X123825000Y-175260000D01*
D25*
X69850000Y-55840000D02*
X64810000Y-55840000D01*
X61595000Y-59055000D02*
X57785000Y-59055000D01*
X64810000Y-55840000D02*
X61595000Y-59055000D01*
X69850000Y-55840000D02*
X71120000Y-57110000D01*
X86400000Y-57110000D02*
X88900000Y-54610000D01*
X71120000Y-57110000D02*
X86400000Y-57110000D01*
X109220000Y-54610000D02*
X109855000Y-55245000D01*
X88900000Y-54610000D02*
X109220000Y-54610000D01*
X132715000Y-125095000D02*
X130810000Y-123190000D01*
X132715000Y-136525000D02*
X132715000Y-125095000D01*
X59690000Y-88900000D02*
X55245000Y-84455000D01*
X62865000Y-88900000D02*
X59690000Y-88900000D01*
X62865000Y-88900000D02*
X75565000Y-88900000D01*
D28*
X90805000Y-193040000D02*
X98425000Y-193040000D01*
X125095000Y-193675000D02*
X125095000Y-195580000D01*
X124460000Y-193040000D02*
X125095000Y-193675000D01*
X98425000Y-193040000D02*
X124460000Y-193040000D01*
X123825000Y-167640000D02*
X123825000Y-158750000D01*
X123825000Y-158750000D02*
X121285000Y-156210000D01*
X113665000Y-53975000D02*
X112395000Y-52705000D01*
X135890000Y-81915000D02*
X113665000Y-59690000D01*
X113665000Y-59690000D02*
X113665000Y-53975000D01*
X138430000Y-81915000D02*
X135890000Y-81915000D01*
X91440000Y-109855000D02*
X91440000Y-81915000D01*
X138430000Y-79375000D02*
X135890000Y-79375000D01*
X135890000Y-79375000D02*
X116205000Y-59690000D01*
X116205000Y-53975000D02*
X114935000Y-52705000D01*
X116205000Y-59690000D02*
X116205000Y-53975000D01*
X88900000Y-109855000D02*
X88900000Y-107950000D01*
X88900000Y-107950000D02*
X89535000Y-107315000D01*
X89535000Y-107315000D02*
X89535000Y-79375000D01*
X138430000Y-76835000D02*
X135890000Y-76835000D01*
X135890000Y-76835000D02*
X118745000Y-59690000D01*
X118745000Y-53975000D02*
X117475000Y-52705000D01*
X118745000Y-59690000D02*
X118745000Y-53975000D01*
X86360000Y-109855000D02*
X86360000Y-107950000D01*
X86360000Y-107950000D02*
X87630000Y-106680000D01*
X87630000Y-106680000D02*
X87630000Y-76835000D01*
X121285000Y-53975000D02*
X120015000Y-52705000D01*
X121285000Y-59690000D02*
X121285000Y-53975000D01*
X135890000Y-74295000D02*
X121285000Y-59690000D01*
X138430000Y-74295000D02*
X135890000Y-74295000D01*
X83820000Y-109855000D02*
X83820000Y-107950000D01*
X83820000Y-107950000D02*
X85725000Y-106045000D01*
X85725000Y-106045000D02*
X85725000Y-74295000D01*
X138430000Y-71755000D02*
X135890000Y-71755000D01*
X135890000Y-71755000D02*
X123825000Y-59690000D01*
X123825000Y-53975000D02*
X122555000Y-52705000D01*
X123825000Y-59690000D02*
X123825000Y-53975000D01*
X81280000Y-109855000D02*
X81280000Y-107950000D01*
X81280000Y-107950000D02*
X83820000Y-105410000D01*
X83820000Y-105410000D02*
X83820000Y-71755000D01*
X126365000Y-53975000D02*
X125095000Y-52705000D01*
X126365000Y-59690000D02*
X126365000Y-53975000D01*
X135890000Y-69215000D02*
X126365000Y-59690000D01*
X138430000Y-69215000D02*
X135890000Y-69215000D01*
X81915000Y-104775000D02*
X81915000Y-69215000D01*
X78740000Y-107950000D02*
X81915000Y-104775000D01*
X78740000Y-109855000D02*
X78740000Y-107950000D01*
X127635000Y-52744998D02*
X127635000Y-52705000D01*
X135890000Y-66675000D02*
X128905000Y-59690000D01*
X138430000Y-66675000D02*
X135890000Y-66675000D01*
X128905000Y-59690000D02*
X128905000Y-53975000D01*
X128905000Y-53975000D02*
X127635000Y-52705000D01*
X76200000Y-109855000D02*
X76200000Y-107950000D01*
X76200000Y-107950000D02*
X80010000Y-104140000D01*
X80010000Y-104140000D02*
X80010000Y-66675000D01*
X138430000Y-64135000D02*
X135890000Y-64135000D01*
X135890000Y-64135000D02*
X131445000Y-59690000D01*
X131445000Y-53975000D02*
X130175000Y-52705000D01*
X131445000Y-59690000D02*
X131445000Y-53975000D01*
X73660000Y-109855000D02*
X73660000Y-107950000D01*
X73660000Y-107950000D02*
X78105000Y-103505000D01*
X78105000Y-103505000D02*
X78105000Y-64135000D01*
X114935000Y-117475000D02*
X114935000Y-123825000D01*
X104775000Y-133985000D02*
X104775000Y-136525000D01*
X114935000Y-123825000D02*
X104775000Y-133985000D01*
X117475000Y-117475000D02*
X117475000Y-123825000D01*
X107315000Y-133985000D02*
X107315000Y-136525000D01*
X117475000Y-123825000D02*
X107315000Y-133985000D01*
X120015000Y-115570000D02*
X120015000Y-117475000D01*
X123190000Y-114935000D02*
X120650000Y-114935000D01*
X123825000Y-115570000D02*
X123190000Y-114935000D01*
X120650000Y-114935000D02*
X120015000Y-115570000D01*
X117475000Y-133350000D02*
X123825000Y-127000000D01*
X123825000Y-127000000D02*
X123825000Y-115570000D01*
X117475000Y-136525000D02*
X117475000Y-133350000D01*
X122555000Y-117475000D02*
X122555000Y-126365000D01*
X114935000Y-133985000D02*
X114935000Y-136525000D01*
X122555000Y-126365000D02*
X114935000Y-133985000D01*
X84455000Y-133985000D02*
X83820000Y-134620000D01*
X83820000Y-134620000D02*
X83820000Y-136525000D01*
X102235000Y-133985000D02*
X84455000Y-133985000D01*
X113665000Y-122555000D02*
X102235000Y-133985000D01*
X113665000Y-115570000D02*
X113665000Y-122555000D01*
X113030000Y-114935000D02*
X113665000Y-115570000D01*
X110490000Y-114935000D02*
X113030000Y-114935000D01*
X109855000Y-115570000D02*
X110490000Y-114935000D01*
X109855000Y-117475000D02*
X109855000Y-115570000D01*
X81280000Y-134620000D02*
X81280000Y-136525000D01*
X83185000Y-132715000D02*
X81280000Y-134620000D01*
X100965000Y-132715000D02*
X83185000Y-132715000D01*
X112395000Y-121285000D02*
X100965000Y-132715000D01*
X112395000Y-117475000D02*
X112395000Y-121285000D01*
X73660000Y-132715000D02*
X73660000Y-136525000D01*
X74930000Y-131445000D02*
X73660000Y-132715000D01*
X99695000Y-131445000D02*
X74930000Y-131445000D01*
X107315000Y-123825000D02*
X99695000Y-131445000D01*
X107315000Y-117475000D02*
X107315000Y-123825000D01*
X71120000Y-132715000D02*
X71120000Y-136525000D01*
X73660000Y-130175000D02*
X71120000Y-132715000D01*
X97790000Y-130175000D02*
X73660000Y-130175000D01*
X104775000Y-123190000D02*
X97790000Y-130175000D01*
X104775000Y-117475000D02*
X104775000Y-123190000D01*
X127635000Y-174625000D02*
X127635000Y-177800000D01*
X127635000Y-160655000D02*
X127635000Y-174625000D01*
X116205000Y-149225000D02*
X127635000Y-160655000D01*
X116205000Y-165100000D02*
X116205000Y-167640000D01*
X114935000Y-163830000D02*
X116205000Y-165100000D01*
X90805000Y-165735000D02*
X92710000Y-163830000D01*
X90805000Y-167640000D02*
X90805000Y-165735000D01*
X92710000Y-163830000D02*
X113665000Y-163830000D01*
X113665000Y-163830000D02*
X114935000Y-163830000D01*
X113665000Y-163830000D02*
X113665000Y-154305000D01*
X81280000Y-144145000D02*
X81280000Y-145415000D01*
X81280000Y-145415000D02*
X81915000Y-146050000D01*
X81915000Y-146050000D02*
X105410000Y-146050000D01*
X105410000Y-146050000D02*
X106045000Y-145415000D01*
X106045000Y-145415000D02*
X106045000Y-142875000D01*
X106045000Y-142875000D02*
X106680000Y-142240000D01*
X106680000Y-142240000D02*
X114300000Y-142240000D01*
X114300000Y-142240000D02*
X114935000Y-142875000D01*
X114935000Y-142875000D02*
X114935000Y-144145000D01*
X114935000Y-145415000D02*
X114935000Y-144145000D01*
X129540000Y-160020000D02*
X114935000Y-145415000D01*
X129540000Y-169545000D02*
X129540000Y-160020000D01*
X139700000Y-177800000D02*
X137795000Y-177800000D01*
X137795000Y-177800000D02*
X129540000Y-169545000D01*
X139700000Y-186055000D02*
X140970000Y-186055000D01*
X140970000Y-186055000D02*
X142875000Y-184150000D01*
X142875000Y-184150000D02*
X142875000Y-171450000D01*
X140970000Y-169545000D02*
X139700000Y-169545000D01*
X142875000Y-171450000D02*
X140970000Y-169545000D01*
X104140000Y-185420000D02*
X107950000Y-185420000D01*
X107950000Y-185420000D02*
X107950000Y-184150000D01*
X108585000Y-183515000D02*
X108585000Y-175260000D01*
X107950000Y-184150000D02*
X108585000Y-183515000D01*
X107950000Y-185420000D02*
X107950000Y-186690000D01*
X107950000Y-186690000D02*
X110490000Y-189230000D01*
X136525000Y-189230000D02*
X139700000Y-186055000D01*
X110490000Y-189230000D02*
X136525000Y-189230000D01*
X68580000Y-117475000D02*
X68580000Y-118745000D01*
X68580000Y-118745000D02*
X62865000Y-124460000D01*
X52705000Y-124460000D02*
X62865000Y-124460000D01*
X73660000Y-144145000D02*
X73660000Y-146685000D01*
X73660000Y-146685000D02*
X74295000Y-147320000D01*
X74295000Y-147320000D02*
X106680000Y-147320000D01*
X107315000Y-146685000D02*
X107315000Y-144145000D01*
X106680000Y-147320000D02*
X107315000Y-146685000D01*
X121920000Y-185420000D02*
X121920000Y-184150000D01*
X121920000Y-184150000D02*
X125730000Y-180340000D01*
X125730000Y-180340000D02*
X125730000Y-172720000D01*
X125730000Y-172720000D02*
X123190000Y-170180000D01*
X123190000Y-170180000D02*
X121920000Y-170180000D01*
X121285000Y-169545000D02*
X121285000Y-167640000D01*
X121920000Y-170180000D02*
X121285000Y-169545000D01*
X109220000Y-146685000D02*
X107315000Y-146685000D01*
X121285000Y-158750000D02*
X109220000Y-146685000D01*
X121285000Y-167640000D02*
X121285000Y-158750000D01*
M02*
