M48
; DRILL file {KiCad (5.1.7)-1} date 12/28/20 01:02:31
; FORMAT={-:-/ absolute / inch / decimal}
; #@! TF.CreationDate,2020-12-28T01:02:31+01:00
; #@! TF.GenerationSoftware,Kicad,Pcbnew,(5.1.7)-1
FMAT,2
INCH
T1C0.0197
T2C0.0315
T3C0.0354
T4C0.0394
T5C0.0433
T6C0.0469
T7C0.1378
%
G90
G05
T1
X2.0Y-4.375
X2.0Y-5.625
X2.075Y-4.9
X3.075Y-2.525
X3.15Y-2.625
X3.225Y-2.725
X3.3Y-2.825
X3.375Y-2.925
X3.45Y-3.025
X3.525Y-3.125
X3.6Y-3.225
X4.475Y-6.075
X4.575Y-5.875
X4.775Y-6.15
X5.025Y-7.0
T2
X2.7Y-4.325
X2.7Y-4.625
X2.8Y-4.325
X2.8Y-4.625
X2.9Y-4.325
X2.9Y-4.625
X3.0Y-4.325
X3.0Y-4.625
X3.1Y-4.325
X3.1Y-4.625
X3.2Y-4.325
X3.2Y-4.625
X3.3Y-4.325
X3.3Y-4.625
X3.4Y-4.325
X3.4Y-4.625
X3.5Y-4.325
X3.5Y-4.625
X3.6Y-4.325
X3.6Y-4.625
X2.75Y-2.1
X2.75Y-2.1984
X3.275Y-6.6
X3.275Y-6.9
X3.375Y-6.6
X3.375Y-6.9
X3.475Y-6.6
X3.475Y-6.9
X3.575Y-6.6
X3.575Y-6.9
X3.675Y-6.6
X3.675Y-6.9
X3.775Y-6.6
X3.775Y-6.9
X3.875Y-6.6
X3.875Y-6.9
X4.075Y-3.7
X4.075Y-4.1
X2.225Y-3.95
X2.625Y-3.95
X4.925Y-7.3
X4.925Y-7.7
X4.125Y-6.65
X4.125Y-6.8469
X4.8Y-7.3
X4.8Y-7.7
X3.875Y-4.375
X3.875Y-4.5719
X4.475Y-3.7
X4.475Y-4.1
X5.525Y-5.8
X5.525Y-6.2
X4.675Y-7.3
X4.675Y-7.7
X2.475Y-2.425
X2.475Y-2.525
X2.475Y-2.625
X2.475Y-2.725
X2.475Y-2.825
X2.475Y-2.925
X2.475Y-3.025
X2.475Y-3.125
X2.475Y-3.225
X2.7Y-5.375
X2.7Y-5.675
X2.8Y-5.375
X2.8Y-5.675
X2.9Y-5.375
X2.9Y-5.675
X3.0Y-5.375
X3.0Y-5.675
X3.1Y-5.375
X3.1Y-5.675
X3.2Y-5.375
X3.2Y-5.675
X3.3Y-5.375
X3.3Y-5.675
X3.4Y-5.375
X3.4Y-5.675
X3.125Y-6.65
X3.125Y-6.8469
X4.875Y-3.7
X4.875Y-4.1
X2.2Y-7.1
X2.3Y-7.1
X2.4Y-7.1
X2.5Y-7.1
X2.6Y-7.1
X2.55Y-4.375
X2.55Y-4.5719
X4.55Y-7.3
X4.55Y-7.7
X4.25Y-7.3
X4.25Y-7.7
X4.275Y-3.7
X4.275Y-4.1
X4.275Y-6.6
X4.275Y-6.9
X4.375Y-6.6
X4.375Y-6.9
X4.475Y-6.6
X4.475Y-6.9
X4.575Y-6.6
X4.575Y-6.9
X4.675Y-6.6
X4.675Y-6.9
X4.775Y-6.6
X4.775Y-6.9
X4.875Y-6.6
X4.875Y-6.9
X4.1Y-7.3
X4.1Y-7.7
X4.675Y-3.7
X4.675Y-4.1
X2.55Y-5.425
X2.55Y-5.6219
X2.3Y-6.6
X2.3Y-6.9
X2.4Y-6.6
X2.4Y-6.9
X2.5Y-6.6
X2.5Y-6.9
X2.6Y-6.6
X2.6Y-6.9
X2.7Y-6.6
X2.7Y-6.9
X2.8Y-6.6
X2.8Y-6.9
X2.9Y-6.6
X2.9Y-6.9
X5.075Y-3.7
X5.075Y-4.1
X5.275Y-3.7
X5.275Y-4.1
X3.875Y-5.425
X3.875Y-5.6219
X2.15Y-6.6531
X2.15Y-6.85
X4.025Y-5.375
X4.025Y-5.675
X4.125Y-5.375
X4.125Y-5.675
X4.225Y-5.375
X4.225Y-5.675
X4.325Y-5.375
X4.325Y-5.675
X4.425Y-5.375
X4.425Y-5.675
X4.525Y-5.375
X4.525Y-5.675
X4.625Y-5.375
X4.625Y-5.675
X4.725Y-5.375
X4.725Y-5.675
X4.025Y-4.325
X4.025Y-4.625
X4.125Y-4.325
X4.125Y-4.625
X4.225Y-4.325
X4.225Y-4.625
X4.325Y-4.325
X4.325Y-4.625
X4.425Y-4.325
X4.425Y-4.625
X4.525Y-4.325
X4.525Y-4.625
X4.625Y-4.325
X4.625Y-4.625
X4.725Y-4.325
X4.725Y-4.625
X4.825Y-4.325
X4.825Y-4.625
X4.925Y-4.325
X4.925Y-4.625
X3.875Y-3.7
X3.875Y-4.1
X5.375Y-5.8
X5.375Y-6.2
X2.225Y-3.825
X2.625Y-3.825
T3
X2.975Y-3.5
X2.975Y-3.6
X4.075Y-3.5
X4.075Y-3.6
X5.125Y-5.375
X5.225Y-5.375
X3.1Y-2.15
X3.5Y-2.15
X4.875Y-3.5
X4.875Y-3.6
X4.275Y-3.5
X4.275Y-3.6
X2.525Y-3.5
X2.525Y-3.6
X5.125Y-5.65
X5.225Y-5.65
X5.275Y-3.5
X5.275Y-3.6
X3.875Y-3.5
X3.875Y-3.6
X5.075Y-3.5
X5.075Y-3.6
X4.475Y-3.5
X4.475Y-3.6
X4.675Y-3.5
X4.675Y-3.6
T4
X3.575Y-7.6
X3.575Y-7.8
X3.875Y-7.6
X3.875Y-7.8
X2.475Y-7.6
X2.475Y-7.8
X2.775Y-7.6
X2.775Y-7.8
X3.025Y-7.6
X3.025Y-7.8
X3.325Y-7.6
X3.325Y-7.8
X5.45Y-2.425
X5.45Y-2.525
X5.45Y-2.625
X5.45Y-2.725
X5.45Y-2.825
X5.45Y-2.925
X5.45Y-3.025
X5.45Y-3.125
X5.45Y-3.225
X5.45Y-3.325
X5.55Y-2.425
X5.55Y-2.525
X5.55Y-2.625
X5.55Y-2.725
X5.55Y-2.825
X5.55Y-2.925
X5.55Y-3.025
X5.55Y-3.125
X5.55Y-3.225
X5.55Y-3.325
X4.325Y-2.075
X4.325Y-2.175
X4.425Y-2.075
X4.425Y-2.175
X4.525Y-2.075
X4.525Y-2.175
X4.625Y-2.075
X4.625Y-2.175
X4.725Y-2.075
X4.725Y-2.175
X4.825Y-2.075
X4.825Y-2.175
X4.925Y-2.075
X4.925Y-2.175
X5.025Y-2.075
X5.025Y-2.175
X5.125Y-2.075
X5.125Y-2.175
X5.225Y-2.075
X5.225Y-2.175
X2.075Y-2.425
X2.075Y-2.525
X2.075Y-2.625
X2.075Y-2.725
X2.075Y-2.825
X2.075Y-2.925
X2.075Y-3.025
X2.075Y-3.125
X2.075Y-3.225
X2.075Y-3.325
X2.175Y-2.425
X2.175Y-2.525
X2.175Y-2.625
X2.175Y-2.725
X2.175Y-2.825
X2.175Y-2.925
X2.175Y-3.025
X2.175Y-3.125
X2.175Y-3.225
X2.175Y-3.325
T5
X3.575Y-7.9
X3.875Y-7.3
X2.475Y-7.9
X2.775Y-7.3
X3.025Y-7.9
X3.325Y-7.3
T6
X5.5Y-6.9
X5.5Y-7.0
X5.5Y-7.225
X5.5Y-7.325
X2.275Y-2.15
X2.375Y-2.15
X5.5Y-7.55
X5.5Y-7.65
X5.5Y-6.375
X5.5Y-6.475
X5.5Y-6.575
X5.5Y-6.675
T7
X1.9969Y-2.0969
X1.9969Y-8.0024
X5.5402Y-2.0969
X5.5402Y-8.0024
T0
M30
