G04 #@! TF.GenerationSoftware,KiCad,Pcbnew,(5.1.7)-1*
G04 #@! TF.CreationDate,2020-12-22T22:20:37+01:00*
G04 #@! TF.ProjectId,Akku,416b6b75-2e6b-4696-9361-645f70636258,rev?*
G04 #@! TF.SameCoordinates,Original*
G04 #@! TF.FileFunction,Legend,Top*
G04 #@! TF.FilePolarity,Positive*
%FSLAX46Y46*%
G04 Gerber Fmt 4.6, Leading zero omitted, Abs format (unit mm)*
G04 Created by KiCad (PCBNEW (5.1.7)-1) date 2020-12-22 22:20:37*
%MOMM*%
%LPD*%
G01*
G04 APERTURE LIST*
%ADD10C,0.170000*%
%ADD11C,0.400000*%
%ADD12C,0.250000*%
%ADD13C,0.120000*%
G04 APERTURE END LIST*
D10*
X59944047Y-50236428D02*
X60705952Y-50236428D01*
X60325000Y-50617380D02*
X60325000Y-49855476D01*
X57404047Y-50236428D02*
X58165952Y-50236428D01*
D11*
X59690000Y-92710000D02*
X59690000Y-88265000D01*
X59690000Y-92710000D02*
X61595000Y-90805000D01*
X57785000Y-90805000D02*
X59690000Y-92710000D01*
X71120000Y-92075000D02*
X71120000Y-87630000D01*
X69215000Y-89535000D02*
X71120000Y-87630000D01*
X71120000Y-87630000D02*
X73025000Y-89535000D01*
X126365000Y-146050000D02*
X126365000Y-141605000D01*
X126365000Y-146050000D02*
X128270000Y-144145000D01*
X124460000Y-144145000D02*
X126365000Y-146050000D01*
D12*
X135147500Y-144188571D02*
X135147500Y-142688571D01*
X135147500Y-144117142D02*
X135004642Y-144188571D01*
X134718928Y-144188571D01*
X134576071Y-144117142D01*
X134504642Y-144045714D01*
X134433214Y-143902857D01*
X134433214Y-143474285D01*
X134504642Y-143331428D01*
X134576071Y-143260000D01*
X134718928Y-143188571D01*
X135004642Y-143188571D01*
X135147500Y-143260000D01*
X136433214Y-144117142D02*
X136290357Y-144188571D01*
X136004642Y-144188571D01*
X135861785Y-144117142D01*
X135790357Y-143974285D01*
X135790357Y-143402857D01*
X135861785Y-143260000D01*
X136004642Y-143188571D01*
X136290357Y-143188571D01*
X136433214Y-143260000D01*
X136504642Y-143402857D01*
X136504642Y-143545714D01*
X135790357Y-143688571D01*
X137790357Y-144117142D02*
X137647500Y-144188571D01*
X137361785Y-144188571D01*
X137218928Y-144117142D01*
X137147500Y-144045714D01*
X137076071Y-143902857D01*
X137076071Y-143474285D01*
X137147500Y-143331428D01*
X137218928Y-143260000D01*
X137361785Y-143188571D01*
X137647500Y-143188571D01*
X137790357Y-143260000D01*
X138433214Y-144188571D02*
X138433214Y-143188571D01*
X138433214Y-143474285D02*
X138504642Y-143331428D01*
X138576071Y-143260000D01*
X138718928Y-143188571D01*
X138861785Y-143188571D01*
X139933214Y-144117142D02*
X139790357Y-144188571D01*
X139504642Y-144188571D01*
X139361785Y-144117142D01*
X139290357Y-143974285D01*
X139290357Y-143402857D01*
X139361785Y-143260000D01*
X139504642Y-143188571D01*
X139790357Y-143188571D01*
X139933214Y-143260000D01*
X140004642Y-143402857D01*
X140004642Y-143545714D01*
X139290357Y-143688571D01*
X141290357Y-144188571D02*
X141290357Y-143402857D01*
X141218928Y-143260000D01*
X141076071Y-143188571D01*
X140790357Y-143188571D01*
X140647500Y-143260000D01*
X141290357Y-144117142D02*
X141147500Y-144188571D01*
X140790357Y-144188571D01*
X140647500Y-144117142D01*
X140576071Y-143974285D01*
X140576071Y-143831428D01*
X140647500Y-143688571D01*
X140790357Y-143617142D01*
X141147500Y-143617142D01*
X141290357Y-143545714D01*
X141933214Y-144117142D02*
X142076071Y-144188571D01*
X142361785Y-144188571D01*
X142504642Y-144117142D01*
X142576071Y-143974285D01*
X142576071Y-143902857D01*
X142504642Y-143760000D01*
X142361785Y-143688571D01*
X142147500Y-143688571D01*
X142004642Y-143617142D01*
X141933214Y-143474285D01*
X141933214Y-143402857D01*
X142004642Y-143260000D01*
X142147500Y-143188571D01*
X142361785Y-143188571D01*
X142504642Y-143260000D01*
X143790357Y-144117142D02*
X143647500Y-144188571D01*
X143361785Y-144188571D01*
X143218928Y-144117142D01*
X143147500Y-143974285D01*
X143147500Y-143402857D01*
X143218928Y-143260000D01*
X143361785Y-143188571D01*
X143647500Y-143188571D01*
X143790357Y-143260000D01*
X143861785Y-143402857D01*
X143861785Y-143545714D01*
X143147500Y-143688571D01*
X134504642Y-137203571D02*
X134504642Y-136203571D01*
X134504642Y-135703571D02*
X134433214Y-135775000D01*
X134504642Y-135846428D01*
X134576071Y-135775000D01*
X134504642Y-135703571D01*
X134504642Y-135846428D01*
X135218928Y-136203571D02*
X135218928Y-137203571D01*
X135218928Y-136346428D02*
X135290357Y-136275000D01*
X135433214Y-136203571D01*
X135647500Y-136203571D01*
X135790357Y-136275000D01*
X135861785Y-136417857D01*
X135861785Y-137203571D01*
X137218928Y-137132142D02*
X137076071Y-137203571D01*
X136790357Y-137203571D01*
X136647500Y-137132142D01*
X136576071Y-137060714D01*
X136504642Y-136917857D01*
X136504642Y-136489285D01*
X136576071Y-136346428D01*
X136647500Y-136275000D01*
X136790357Y-136203571D01*
X137076071Y-136203571D01*
X137218928Y-136275000D01*
X137861785Y-137203571D02*
X137861785Y-136203571D01*
X137861785Y-136489285D02*
X137933214Y-136346428D01*
X138004642Y-136275000D01*
X138147500Y-136203571D01*
X138290357Y-136203571D01*
X139361785Y-137132142D02*
X139218928Y-137203571D01*
X138933214Y-137203571D01*
X138790357Y-137132142D01*
X138718928Y-136989285D01*
X138718928Y-136417857D01*
X138790357Y-136275000D01*
X138933214Y-136203571D01*
X139218928Y-136203571D01*
X139361785Y-136275000D01*
X139433214Y-136417857D01*
X139433214Y-136560714D01*
X138718928Y-136703571D01*
X140718928Y-137203571D02*
X140718928Y-136417857D01*
X140647500Y-136275000D01*
X140504642Y-136203571D01*
X140218928Y-136203571D01*
X140076071Y-136275000D01*
X140718928Y-137132142D02*
X140576071Y-137203571D01*
X140218928Y-137203571D01*
X140076071Y-137132142D01*
X140004642Y-136989285D01*
X140004642Y-136846428D01*
X140076071Y-136703571D01*
X140218928Y-136632142D01*
X140576071Y-136632142D01*
X140718928Y-136560714D01*
X141361785Y-137132142D02*
X141504642Y-137203571D01*
X141790357Y-137203571D01*
X141933214Y-137132142D01*
X142004642Y-136989285D01*
X142004642Y-136917857D01*
X141933214Y-136775000D01*
X141790357Y-136703571D01*
X141576071Y-136703571D01*
X141433214Y-136632142D01*
X141361785Y-136489285D01*
X141361785Y-136417857D01*
X141433214Y-136275000D01*
X141576071Y-136203571D01*
X141790357Y-136203571D01*
X141933214Y-136275000D01*
X143218928Y-137132142D02*
X143076071Y-137203571D01*
X142790357Y-137203571D01*
X142647500Y-137132142D01*
X142576071Y-136989285D01*
X142576071Y-136417857D01*
X142647500Y-136275000D01*
X142790357Y-136203571D01*
X143076071Y-136203571D01*
X143218928Y-136275000D01*
X143290357Y-136417857D01*
X143290357Y-136560714D01*
X142576071Y-136703571D01*
D11*
X126365000Y-133985000D02*
X128270000Y-135890000D01*
X124460000Y-135890000D02*
X126365000Y-133985000D01*
X126365000Y-138430000D02*
X126365000Y-133985000D01*
D12*
X97925000Y-84903571D02*
X98925000Y-84903571D01*
X98282142Y-86403571D01*
X103790714Y-84903571D02*
X103505000Y-84903571D01*
X103362142Y-84975000D01*
X103290714Y-85046428D01*
X103147857Y-85260714D01*
X103076428Y-85546428D01*
X103076428Y-86117857D01*
X103147857Y-86260714D01*
X103219285Y-86332142D01*
X103362142Y-86403571D01*
X103647857Y-86403571D01*
X103790714Y-86332142D01*
X103862142Y-86260714D01*
X103933571Y-86117857D01*
X103933571Y-85760714D01*
X103862142Y-85617857D01*
X103790714Y-85546428D01*
X103647857Y-85475000D01*
X103362142Y-85475000D01*
X103219285Y-85546428D01*
X103147857Y-85617857D01*
X103076428Y-85760714D01*
X108942142Y-84903571D02*
X108227857Y-84903571D01*
X108156428Y-85617857D01*
X108227857Y-85546428D01*
X108370714Y-85475000D01*
X108727857Y-85475000D01*
X108870714Y-85546428D01*
X108942142Y-85617857D01*
X109013571Y-85760714D01*
X109013571Y-86117857D01*
X108942142Y-86260714D01*
X108870714Y-86332142D01*
X108727857Y-86403571D01*
X108370714Y-86403571D01*
X108227857Y-86332142D01*
X108156428Y-86260714D01*
X113950714Y-85403571D02*
X113950714Y-86403571D01*
X113593571Y-84832142D02*
X113236428Y-85903571D01*
X114165000Y-85903571D01*
X118245000Y-84903571D02*
X119173571Y-84903571D01*
X118673571Y-85475000D01*
X118887857Y-85475000D01*
X119030714Y-85546428D01*
X119102142Y-85617857D01*
X119173571Y-85760714D01*
X119173571Y-86117857D01*
X119102142Y-86260714D01*
X119030714Y-86332142D01*
X118887857Y-86403571D01*
X118459285Y-86403571D01*
X118316428Y-86332142D01*
X118245000Y-86260714D01*
X123396428Y-85046428D02*
X123467857Y-84975000D01*
X123610714Y-84903571D01*
X123967857Y-84903571D01*
X124110714Y-84975000D01*
X124182142Y-85046428D01*
X124253571Y-85189285D01*
X124253571Y-85332142D01*
X124182142Y-85546428D01*
X123325000Y-86403571D01*
X124253571Y-86403571D01*
X129333571Y-86403571D02*
X128476428Y-86403571D01*
X128905000Y-86403571D02*
X128905000Y-84903571D01*
X128762142Y-85117857D01*
X128619285Y-85260714D01*
X128476428Y-85332142D01*
X133913571Y-84903571D02*
X134056428Y-84903571D01*
X134199285Y-84975000D01*
X134270714Y-85046428D01*
X134342142Y-85189285D01*
X134413571Y-85475000D01*
X134413571Y-85832142D01*
X134342142Y-86117857D01*
X134270714Y-86260714D01*
X134199285Y-86332142D01*
X134056428Y-86403571D01*
X133913571Y-86403571D01*
X133770714Y-86332142D01*
X133699285Y-86260714D01*
X133627857Y-86117857D01*
X133556428Y-85832142D01*
X133556428Y-85475000D01*
X133627857Y-85189285D01*
X133699285Y-85046428D01*
X133770714Y-84975000D01*
X133913571Y-84903571D01*
D10*
X132906404Y-160984000D02*
X133382595Y-160984000D01*
X133144500Y-162377380D02*
X133144500Y-161710714D01*
X133144500Y-161377380D02*
X133096880Y-161425000D01*
X133144500Y-161472619D01*
X133192119Y-161425000D01*
X133144500Y-161377380D01*
X133144500Y-161472619D01*
X133382595Y-160984000D02*
X134287357Y-160984000D01*
X133620690Y-161710714D02*
X133620690Y-162377380D01*
X133620690Y-161805952D02*
X133668309Y-161758333D01*
X133763547Y-161710714D01*
X133906404Y-161710714D01*
X134001642Y-161758333D01*
X134049261Y-161853571D01*
X134049261Y-162377380D01*
X134287357Y-160984000D02*
X135144500Y-160984000D01*
X134954023Y-162329761D02*
X134858785Y-162377380D01*
X134668309Y-162377380D01*
X134573071Y-162329761D01*
X134525452Y-162282142D01*
X134477833Y-162186904D01*
X134477833Y-161901190D01*
X134525452Y-161805952D01*
X134573071Y-161758333D01*
X134668309Y-161710714D01*
X134858785Y-161710714D01*
X134954023Y-161758333D01*
X132525452Y-163524000D02*
X133430214Y-163524000D01*
X133192119Y-164917380D02*
X133192119Y-163917380D01*
X133192119Y-164869761D02*
X133096880Y-164917380D01*
X132906404Y-164917380D01*
X132811166Y-164869761D01*
X132763547Y-164822142D01*
X132715928Y-164726904D01*
X132715928Y-164441190D01*
X132763547Y-164345952D01*
X132811166Y-164298333D01*
X132906404Y-164250714D01*
X133096880Y-164250714D01*
X133192119Y-164298333D01*
X133430214Y-163524000D02*
X134287357Y-163524000D01*
X134049261Y-164869761D02*
X133954023Y-164917380D01*
X133763547Y-164917380D01*
X133668309Y-164869761D01*
X133620690Y-164774523D01*
X133620690Y-164393571D01*
X133668309Y-164298333D01*
X133763547Y-164250714D01*
X133954023Y-164250714D01*
X134049261Y-164298333D01*
X134096880Y-164393571D01*
X134096880Y-164488809D01*
X133620690Y-164584047D01*
X134287357Y-163524000D02*
X135144500Y-163524000D01*
X134954023Y-164869761D02*
X134858785Y-164917380D01*
X134668309Y-164917380D01*
X134573071Y-164869761D01*
X134525452Y-164822142D01*
X134477833Y-164726904D01*
X134477833Y-164441190D01*
X134525452Y-164345952D01*
X134573071Y-164298333D01*
X134668309Y-164250714D01*
X134858785Y-164250714D01*
X134954023Y-164298333D01*
X131573071Y-168604000D02*
X132620690Y-168604000D01*
X131715928Y-169330714D02*
X131906404Y-169997380D01*
X132096880Y-169521190D01*
X132287357Y-169997380D01*
X132477833Y-169330714D01*
X132620690Y-168604000D02*
X133239738Y-168604000D01*
X132858785Y-169997380D02*
X132858785Y-169330714D01*
X132858785Y-169521190D02*
X132906404Y-169425952D01*
X132954023Y-169378333D01*
X133049261Y-169330714D01*
X133144500Y-169330714D01*
X133239738Y-168604000D02*
X133715928Y-168604000D01*
X133477833Y-169997380D02*
X133477833Y-169330714D01*
X133477833Y-168997380D02*
X133430214Y-169045000D01*
X133477833Y-169092619D01*
X133525452Y-169045000D01*
X133477833Y-168997380D01*
X133477833Y-169092619D01*
X133715928Y-168604000D02*
X134287357Y-168604000D01*
X133811166Y-169330714D02*
X134192119Y-169330714D01*
X133954023Y-168997380D02*
X133954023Y-169854523D01*
X134001642Y-169949761D01*
X134096880Y-169997380D01*
X134192119Y-169997380D01*
X134287357Y-168604000D02*
X135144500Y-168604000D01*
X134906404Y-169949761D02*
X134811166Y-169997380D01*
X134620690Y-169997380D01*
X134525452Y-169949761D01*
X134477833Y-169854523D01*
X134477833Y-169473571D01*
X134525452Y-169378333D01*
X134620690Y-169330714D01*
X134811166Y-169330714D01*
X134906404Y-169378333D01*
X134954023Y-169473571D01*
X134954023Y-169568809D01*
X134477833Y-169664047D01*
X131858785Y-166064000D02*
X132477833Y-166064000D01*
X132096880Y-167457380D02*
X132096880Y-166790714D01*
X132096880Y-166981190D02*
X132144500Y-166885952D01*
X132192119Y-166838333D01*
X132287357Y-166790714D01*
X132382595Y-166790714D01*
X132477833Y-166064000D02*
X133334976Y-166064000D01*
X133096880Y-167409761D02*
X133001642Y-167457380D01*
X132811166Y-167457380D01*
X132715928Y-167409761D01*
X132668309Y-167314523D01*
X132668309Y-166933571D01*
X132715928Y-166838333D01*
X132811166Y-166790714D01*
X133001642Y-166790714D01*
X133096880Y-166838333D01*
X133144500Y-166933571D01*
X133144500Y-167028809D01*
X132668309Y-167124047D01*
X133334976Y-166064000D02*
X134239738Y-166064000D01*
X134001642Y-167457380D02*
X134001642Y-166933571D01*
X133954023Y-166838333D01*
X133858785Y-166790714D01*
X133668309Y-166790714D01*
X133573071Y-166838333D01*
X134001642Y-167409761D02*
X133906404Y-167457380D01*
X133668309Y-167457380D01*
X133573071Y-167409761D01*
X133525452Y-167314523D01*
X133525452Y-167219285D01*
X133573071Y-167124047D01*
X133668309Y-167076428D01*
X133906404Y-167076428D01*
X134001642Y-167028809D01*
X134239738Y-166064000D02*
X135144500Y-166064000D01*
X134906404Y-167457380D02*
X134906404Y-166457380D01*
X134906404Y-167409761D02*
X134811166Y-167457380D01*
X134620690Y-167457380D01*
X134525452Y-167409761D01*
X134477833Y-167362142D01*
X134430214Y-167266904D01*
X134430214Y-166981190D01*
X134477833Y-166885952D01*
X134525452Y-166838333D01*
X134620690Y-166790714D01*
X134811166Y-166790714D01*
X134906404Y-166838333D01*
X133811166Y-178204761D02*
X133715928Y-178252380D01*
X133525452Y-178252380D01*
X133430214Y-178204761D01*
X133382595Y-178157142D01*
X133334976Y-178061904D01*
X133334976Y-177776190D01*
X133382595Y-177680952D01*
X133430214Y-177633333D01*
X133525452Y-177585714D01*
X133715928Y-177585714D01*
X133811166Y-177633333D01*
X134382595Y-178252380D02*
X134287357Y-178204761D01*
X134239738Y-178109523D01*
X134239738Y-177252380D01*
X134763547Y-178252380D02*
X134763547Y-177585714D01*
X134763547Y-177776190D02*
X134811166Y-177680952D01*
X134858785Y-177633333D01*
X134954023Y-177585714D01*
X135049261Y-177585714D01*
X131858785Y-182574000D02*
X132477833Y-182574000D01*
X132096880Y-183967380D02*
X132096880Y-183300714D01*
X132096880Y-183491190D02*
X132144500Y-183395952D01*
X132192119Y-183348333D01*
X132287357Y-183300714D01*
X132382595Y-183300714D01*
X132477833Y-182574000D02*
X133334976Y-182574000D01*
X133096880Y-183919761D02*
X133001642Y-183967380D01*
X132811166Y-183967380D01*
X132715928Y-183919761D01*
X132668309Y-183824523D01*
X132668309Y-183443571D01*
X132715928Y-183348333D01*
X132811166Y-183300714D01*
X133001642Y-183300714D01*
X133096880Y-183348333D01*
X133144500Y-183443571D01*
X133144500Y-183538809D01*
X132668309Y-183634047D01*
X133334976Y-182574000D02*
X134239738Y-182574000D01*
X134001642Y-183967380D02*
X134001642Y-183443571D01*
X133954023Y-183348333D01*
X133858785Y-183300714D01*
X133668309Y-183300714D01*
X133573071Y-183348333D01*
X134001642Y-183919761D02*
X133906404Y-183967380D01*
X133668309Y-183967380D01*
X133573071Y-183919761D01*
X133525452Y-183824523D01*
X133525452Y-183729285D01*
X133573071Y-183634047D01*
X133668309Y-183586428D01*
X133906404Y-183586428D01*
X134001642Y-183538809D01*
X134239738Y-182574000D02*
X135144500Y-182574000D01*
X134906404Y-183967380D02*
X134906404Y-182967380D01*
X134906404Y-183919761D02*
X134811166Y-183967380D01*
X134620690Y-183967380D01*
X134525452Y-183919761D01*
X134477833Y-183872142D01*
X134430214Y-183776904D01*
X134430214Y-183491190D01*
X134477833Y-183395952D01*
X134525452Y-183348333D01*
X134620690Y-183300714D01*
X134811166Y-183300714D01*
X134906404Y-183348333D01*
X131573071Y-185114000D02*
X132620690Y-185114000D01*
X131715928Y-185840714D02*
X131906404Y-186507380D01*
X132096880Y-186031190D01*
X132287357Y-186507380D01*
X132477833Y-185840714D01*
X132620690Y-185114000D02*
X133239738Y-185114000D01*
X132858785Y-186507380D02*
X132858785Y-185840714D01*
X132858785Y-186031190D02*
X132906404Y-185935952D01*
X132954023Y-185888333D01*
X133049261Y-185840714D01*
X133144500Y-185840714D01*
X133239738Y-185114000D02*
X133715928Y-185114000D01*
X133477833Y-186507380D02*
X133477833Y-185840714D01*
X133477833Y-185507380D02*
X133430214Y-185555000D01*
X133477833Y-185602619D01*
X133525452Y-185555000D01*
X133477833Y-185507380D01*
X133477833Y-185602619D01*
X133715928Y-185114000D02*
X134287357Y-185114000D01*
X133811166Y-185840714D02*
X134192119Y-185840714D01*
X133954023Y-185507380D02*
X133954023Y-186364523D01*
X134001642Y-186459761D01*
X134096880Y-186507380D01*
X134192119Y-186507380D01*
X134287357Y-185114000D02*
X135144500Y-185114000D01*
X134906404Y-186459761D02*
X134811166Y-186507380D01*
X134620690Y-186507380D01*
X134525452Y-186459761D01*
X134477833Y-186364523D01*
X134477833Y-185983571D01*
X134525452Y-185888333D01*
X134620690Y-185840714D01*
X134811166Y-185840714D01*
X134906404Y-185888333D01*
X134954023Y-185983571D01*
X134954023Y-186078809D01*
X134477833Y-186174047D01*
X132906404Y-193369000D02*
X133382595Y-193369000D01*
X133144500Y-194762380D02*
X133144500Y-194095714D01*
X133144500Y-193762380D02*
X133096880Y-193810000D01*
X133144500Y-193857619D01*
X133192119Y-193810000D01*
X133144500Y-193762380D01*
X133144500Y-193857619D01*
X133382595Y-193369000D02*
X134287357Y-193369000D01*
X133620690Y-194095714D02*
X133620690Y-194762380D01*
X133620690Y-194190952D02*
X133668309Y-194143333D01*
X133763547Y-194095714D01*
X133906404Y-194095714D01*
X134001642Y-194143333D01*
X134049261Y-194238571D01*
X134049261Y-194762380D01*
X134287357Y-193369000D02*
X135144500Y-193369000D01*
X134954023Y-194714761D02*
X134858785Y-194762380D01*
X134668309Y-194762380D01*
X134573071Y-194714761D01*
X134525452Y-194667142D01*
X134477833Y-194571904D01*
X134477833Y-194286190D01*
X134525452Y-194190952D01*
X134573071Y-194143333D01*
X134668309Y-194095714D01*
X134858785Y-194095714D01*
X134954023Y-194143333D01*
D11*
X86556428Y-61460000D02*
X87985000Y-61460000D01*
X86270714Y-62317142D02*
X87270714Y-59317142D01*
X88270714Y-62317142D01*
X89270714Y-62317142D02*
X89270714Y-59317142D01*
X90985000Y-62317142D02*
X89699285Y-60602857D01*
X90985000Y-59317142D02*
X89270714Y-61031428D01*
X92270714Y-62317142D02*
X92270714Y-59317142D01*
X93985000Y-62317142D02*
X92699285Y-60602857D01*
X93985000Y-59317142D02*
X92270714Y-61031428D01*
X95270714Y-59317142D02*
X95270714Y-61745714D01*
X95413571Y-62031428D01*
X95556428Y-62174285D01*
X95842142Y-62317142D01*
X96413571Y-62317142D01*
X96699285Y-62174285D01*
X96842142Y-62031428D01*
X96985000Y-61745714D01*
X96985000Y-59317142D01*
X100556428Y-59174285D02*
X97985000Y-63031428D01*
X101556428Y-62317142D02*
X101556428Y-59317142D01*
X102699285Y-59317142D01*
X102985000Y-59460000D01*
X103127857Y-59602857D01*
X103270714Y-59888571D01*
X103270714Y-60317142D01*
X103127857Y-60602857D01*
X102985000Y-60745714D01*
X102699285Y-60888571D01*
X101556428Y-60888571D01*
X106270714Y-62031428D02*
X106127857Y-62174285D01*
X105699285Y-62317142D01*
X105413571Y-62317142D01*
X104985000Y-62174285D01*
X104699285Y-61888571D01*
X104556428Y-61602857D01*
X104413571Y-61031428D01*
X104413571Y-60602857D01*
X104556428Y-60031428D01*
X104699285Y-59745714D01*
X104985000Y-59460000D01*
X105413571Y-59317142D01*
X105699285Y-59317142D01*
X106127857Y-59460000D01*
X106270714Y-59602857D01*
D12*
X62027857Y-87038571D02*
X62027857Y-86038571D01*
X62027857Y-86324285D02*
X62099285Y-86181428D01*
X62170714Y-86110000D01*
X62313571Y-86038571D01*
X62456428Y-86038571D01*
X63527857Y-86967142D02*
X63385000Y-87038571D01*
X63099285Y-87038571D01*
X62956428Y-86967142D01*
X62885000Y-86824285D01*
X62885000Y-86252857D01*
X62956428Y-86110000D01*
X63099285Y-86038571D01*
X63385000Y-86038571D01*
X63527857Y-86110000D01*
X63599285Y-86252857D01*
X63599285Y-86395714D01*
X62885000Y-86538571D01*
X64885000Y-87038571D02*
X64885000Y-86252857D01*
X64813571Y-86110000D01*
X64670714Y-86038571D01*
X64385000Y-86038571D01*
X64242142Y-86110000D01*
X64885000Y-86967142D02*
X64742142Y-87038571D01*
X64385000Y-87038571D01*
X64242142Y-86967142D01*
X64170714Y-86824285D01*
X64170714Y-86681428D01*
X64242142Y-86538571D01*
X64385000Y-86467142D01*
X64742142Y-86467142D01*
X64885000Y-86395714D01*
X66242142Y-87038571D02*
X66242142Y-85538571D01*
X66242142Y-86967142D02*
X66099285Y-87038571D01*
X65813571Y-87038571D01*
X65670714Y-86967142D01*
X65599285Y-86895714D01*
X65527857Y-86752857D01*
X65527857Y-86324285D01*
X65599285Y-86181428D01*
X65670714Y-86110000D01*
X65813571Y-86038571D01*
X66099285Y-86038571D01*
X66242142Y-86110000D01*
X73100714Y-86038571D02*
X73386428Y-87038571D01*
X73672142Y-86324285D01*
X73957857Y-87038571D01*
X74243571Y-86038571D01*
X74815000Y-87038571D02*
X74815000Y-86038571D01*
X74815000Y-86324285D02*
X74886428Y-86181428D01*
X74957857Y-86110000D01*
X75100714Y-86038571D01*
X75243571Y-86038571D01*
X75743571Y-87038571D02*
X75743571Y-86038571D01*
X75743571Y-85538571D02*
X75672142Y-85610000D01*
X75743571Y-85681428D01*
X75815000Y-85610000D01*
X75743571Y-85538571D01*
X75743571Y-85681428D01*
X76243571Y-86038571D02*
X76815000Y-86038571D01*
X76457857Y-85538571D02*
X76457857Y-86824285D01*
X76529285Y-86967142D01*
X76672142Y-87038571D01*
X76815000Y-87038571D01*
X77886428Y-86967142D02*
X77743571Y-87038571D01*
X77457857Y-87038571D01*
X77315000Y-86967142D01*
X77243571Y-86824285D01*
X77243571Y-86252857D01*
X77315000Y-86110000D01*
X77457857Y-86038571D01*
X77743571Y-86038571D01*
X77886428Y-86110000D01*
X77957857Y-86252857D01*
X77957857Y-86395714D01*
X77243571Y-86538571D01*
D11*
X90186428Y-206176428D02*
X90043571Y-206319285D01*
X89615000Y-206462142D01*
X89329285Y-206462142D01*
X88900714Y-206319285D01*
X88615000Y-206033571D01*
X88472142Y-205747857D01*
X88329285Y-205176428D01*
X88329285Y-204747857D01*
X88472142Y-204176428D01*
X88615000Y-203890714D01*
X88900714Y-203605000D01*
X89329285Y-203462142D01*
X89615000Y-203462142D01*
X90043571Y-203605000D01*
X90186428Y-203747857D01*
X92900714Y-206462142D02*
X91472142Y-206462142D01*
X91472142Y-203462142D01*
X93900714Y-204890714D02*
X94900714Y-204890714D01*
X95329285Y-206462142D02*
X93900714Y-206462142D01*
X93900714Y-203462142D01*
X95329285Y-203462142D01*
X96472142Y-205605000D02*
X97900714Y-205605000D01*
X96186428Y-206462142D02*
X97186428Y-203462142D01*
X98186428Y-206462142D01*
X100900714Y-206462142D02*
X99900714Y-205033571D01*
X99186428Y-206462142D02*
X99186428Y-203462142D01*
X100329285Y-203462142D01*
X100615000Y-203605000D01*
X100757857Y-203747857D01*
X100900714Y-204033571D01*
X100900714Y-204462142D01*
X100757857Y-204747857D01*
X100615000Y-204890714D01*
X100329285Y-205033571D01*
X99186428Y-205033571D01*
X77002142Y-206462142D02*
X77002142Y-203462142D01*
X77716428Y-203462142D01*
X78145000Y-203605000D01*
X78430714Y-203890714D01*
X78573571Y-204176428D01*
X78716428Y-204747857D01*
X78716428Y-205176428D01*
X78573571Y-205747857D01*
X78430714Y-206033571D01*
X78145000Y-206319285D01*
X77716428Y-206462142D01*
X77002142Y-206462142D01*
X80002142Y-204890714D02*
X81002142Y-204890714D01*
X81430714Y-206462142D02*
X80002142Y-206462142D01*
X80002142Y-203462142D01*
X81430714Y-203462142D01*
X84430714Y-206176428D02*
X84287857Y-206319285D01*
X83859285Y-206462142D01*
X83573571Y-206462142D01*
X83145000Y-206319285D01*
X82859285Y-206033571D01*
X82716428Y-205747857D01*
X82573571Y-205176428D01*
X82573571Y-204747857D01*
X82716428Y-204176428D01*
X82859285Y-203890714D01*
X83145000Y-203605000D01*
X83573571Y-203462142D01*
X83859285Y-203462142D01*
X84287857Y-203605000D01*
X84430714Y-203747857D01*
X63603571Y-206462142D02*
X63603571Y-203462142D01*
X65032142Y-206462142D02*
X65032142Y-203462142D01*
X66746428Y-206462142D01*
X66746428Y-203462142D01*
X69889285Y-206176428D02*
X69746428Y-206319285D01*
X69317857Y-206462142D01*
X69032142Y-206462142D01*
X68603571Y-206319285D01*
X68317857Y-206033571D01*
X68175000Y-205747857D01*
X68032142Y-205176428D01*
X68032142Y-204747857D01*
X68175000Y-204176428D01*
X68317857Y-203890714D01*
X68603571Y-203605000D01*
X69032142Y-203462142D01*
X69317857Y-203462142D01*
X69746428Y-203605000D01*
X69889285Y-203747857D01*
D13*
X64265000Y-60155000D02*
X61465000Y-60155000D01*
X61465000Y-60155000D02*
X61465000Y-83355000D01*
X61465000Y-83355000D02*
X64265000Y-83355000D01*
X64265000Y-83355000D02*
X64265000Y-60155000D01*
X64265000Y-62865000D02*
X61465000Y-62865000D01*
X142730000Y-182135000D02*
X136710000Y-182135000D01*
X136710000Y-182135000D02*
X136710000Y-187435000D01*
X136710000Y-187435000D02*
X142730000Y-187435000D01*
X142730000Y-187435000D02*
X142730000Y-182135000D01*
X141700000Y-181845000D02*
X137700000Y-181845000D01*
X136710000Y-183515000D02*
X137710000Y-183515000D01*
X137710000Y-183515000D02*
X137710000Y-186055000D01*
X137710000Y-186055000D02*
X136710000Y-186055000D01*
X137710000Y-183515000D02*
X138240000Y-183765000D01*
X138240000Y-183765000D02*
X138240000Y-185805000D01*
X138240000Y-185805000D02*
X137710000Y-186055000D01*
X136710000Y-183765000D02*
X137710000Y-183765000D01*
X136710000Y-185805000D02*
X137710000Y-185805000D01*
X142730000Y-182715000D02*
X142130000Y-182715000D01*
X142130000Y-182715000D02*
X142130000Y-184315000D01*
X142130000Y-184315000D02*
X142730000Y-184315000D01*
X142730000Y-185255000D02*
X142130000Y-185255000D01*
X142130000Y-185255000D02*
X142130000Y-186855000D01*
X142130000Y-186855000D02*
X142730000Y-186855000D01*
X142730000Y-190390000D02*
X136710000Y-190390000D01*
X136710000Y-190390000D02*
X136710000Y-195690000D01*
X136710000Y-195690000D02*
X142730000Y-195690000D01*
X142730000Y-195690000D02*
X142730000Y-190390000D01*
X141700000Y-190100000D02*
X137700000Y-190100000D01*
X136710000Y-191770000D02*
X137710000Y-191770000D01*
X137710000Y-191770000D02*
X137710000Y-194310000D01*
X137710000Y-194310000D02*
X136710000Y-194310000D01*
X137710000Y-191770000D02*
X138240000Y-192020000D01*
X138240000Y-192020000D02*
X138240000Y-194060000D01*
X138240000Y-194060000D02*
X137710000Y-194310000D01*
X136710000Y-192020000D02*
X137710000Y-192020000D01*
X136710000Y-194060000D02*
X137710000Y-194060000D01*
X142730000Y-190970000D02*
X142130000Y-190970000D01*
X142130000Y-190970000D02*
X142130000Y-192570000D01*
X142130000Y-192570000D02*
X142730000Y-192570000D01*
X142730000Y-193510000D02*
X142130000Y-193510000D01*
X142130000Y-193510000D02*
X142130000Y-195110000D01*
X142130000Y-195110000D02*
X142730000Y-195110000D01*
X81880000Y-53140000D02*
X81880000Y-56080000D01*
X82120000Y-53140000D02*
X82120000Y-56080000D01*
X82000000Y-53140000D02*
X82000000Y-56080000D01*
X87760000Y-54610000D02*
X86540000Y-54610000D01*
X79880000Y-54610000D02*
X81100000Y-54610000D01*
X86540000Y-53140000D02*
X81100000Y-53140000D01*
X86540000Y-56080000D02*
X86540000Y-53140000D01*
X81100000Y-56080000D02*
X86540000Y-56080000D01*
X81100000Y-53140000D02*
X81100000Y-56080000D01*
X103405000Y-166290000D02*
X106145000Y-166290000D01*
X103405000Y-176530000D02*
X106145000Y-176530000D01*
X106145000Y-176530000D02*
X106145000Y-166290000D01*
X103405000Y-176530000D02*
X103405000Y-166290000D01*
X53240000Y-166370000D02*
X55980000Y-166370000D01*
X53240000Y-176610000D02*
X55980000Y-176610000D01*
X55980000Y-176610000D02*
X55980000Y-166370000D01*
X53240000Y-176610000D02*
X53240000Y-166370000D01*
X63400000Y-108505000D02*
X66140000Y-108505000D01*
X63400000Y-118745000D02*
X66140000Y-118745000D01*
X66140000Y-118745000D02*
X66140000Y-108505000D01*
X63400000Y-118745000D02*
X63400000Y-108505000D01*
X99795000Y-135175000D02*
X99795000Y-145415000D01*
X97055000Y-135175000D02*
X97055000Y-145415000D01*
X99795000Y-135175000D02*
X97055000Y-135175000D01*
X99795000Y-145415000D02*
X97055000Y-145415000D01*
X66140000Y-145415000D02*
X63400000Y-145415000D01*
X66140000Y-135175000D02*
X63400000Y-135175000D01*
X63400000Y-135175000D02*
X63400000Y-145415000D01*
X66140000Y-135175000D02*
X66140000Y-145415000D01*
X97055000Y-108505000D02*
X99795000Y-108505000D01*
X97055000Y-118745000D02*
X99795000Y-118745000D01*
X99795000Y-118745000D02*
X99795000Y-108505000D01*
X97055000Y-118745000D02*
X97055000Y-108505000D01*
X72565000Y-50580302D02*
X71765000Y-50580302D01*
X72165000Y-50180302D02*
X72165000Y-50980302D01*
X70383000Y-58671000D02*
X69317000Y-58671000D01*
X70618000Y-58631000D02*
X69082000Y-58631000D01*
X70798000Y-58591000D02*
X68902000Y-58591000D01*
X70948000Y-58551000D02*
X68752000Y-58551000D01*
X71079000Y-58511000D02*
X68621000Y-58511000D01*
X71196000Y-58471000D02*
X68504000Y-58471000D01*
X71303000Y-58431000D02*
X68397000Y-58431000D01*
X71402000Y-58391000D02*
X68298000Y-58391000D01*
X71495000Y-58351000D02*
X68205000Y-58351000D01*
X71581000Y-58311000D02*
X68119000Y-58311000D01*
X71663000Y-58271000D02*
X68037000Y-58271000D01*
X71740000Y-58231000D02*
X67960000Y-58231000D01*
X71814000Y-58191000D02*
X67886000Y-58191000D01*
X71884000Y-58151000D02*
X67816000Y-58151000D01*
X71952000Y-58111000D02*
X67748000Y-58111000D01*
X72016000Y-58071000D02*
X67684000Y-58071000D01*
X72078000Y-58031000D02*
X67622000Y-58031000D01*
X72137000Y-57991000D02*
X67563000Y-57991000D01*
X72195000Y-57951000D02*
X67505000Y-57951000D01*
X72250000Y-57911000D02*
X67450000Y-57911000D01*
X72304000Y-57871000D02*
X67396000Y-57871000D01*
X72355000Y-57831000D02*
X67345000Y-57831000D01*
X72406000Y-57791000D02*
X67294000Y-57791000D01*
X72454000Y-57751000D02*
X67246000Y-57751000D01*
X72501000Y-57711000D02*
X67199000Y-57711000D01*
X72547000Y-57671000D02*
X67153000Y-57671000D01*
X72591000Y-57631000D02*
X67109000Y-57631000D01*
X72634000Y-57591000D02*
X67066000Y-57591000D01*
X72676000Y-57551000D02*
X67024000Y-57551000D01*
X72717000Y-57511000D02*
X66983000Y-57511000D01*
X72757000Y-57471000D02*
X66943000Y-57471000D01*
X72795000Y-57431000D02*
X66905000Y-57431000D01*
X72833000Y-57391000D02*
X66867000Y-57391000D01*
X72869000Y-57351000D02*
X66831000Y-57351000D01*
X72905000Y-57311000D02*
X66795000Y-57311000D01*
X72940000Y-57271000D02*
X66760000Y-57271000D01*
X72974000Y-57231000D02*
X66726000Y-57231000D01*
X73006000Y-57191000D02*
X66694000Y-57191000D01*
X73039000Y-57151000D02*
X66661000Y-57151000D01*
X73070000Y-57111000D02*
X66630000Y-57111000D01*
X73100000Y-57071000D02*
X66600000Y-57071000D01*
X73130000Y-57031000D02*
X66570000Y-57031000D01*
X73159000Y-56991000D02*
X66541000Y-56991000D01*
X73188000Y-56951000D02*
X66512000Y-56951000D01*
X73215000Y-56911000D02*
X66485000Y-56911000D01*
X68810000Y-56871000D02*
X66458000Y-56871000D01*
X73242000Y-56871000D02*
X70890000Y-56871000D01*
X68810000Y-56831000D02*
X66432000Y-56831000D01*
X73268000Y-56831000D02*
X70890000Y-56831000D01*
X68810000Y-56791000D02*
X66406000Y-56791000D01*
X73294000Y-56791000D02*
X70890000Y-56791000D01*
X68810000Y-56751000D02*
X66381000Y-56751000D01*
X73319000Y-56751000D02*
X70890000Y-56751000D01*
X68810000Y-56711000D02*
X66357000Y-56711000D01*
X73343000Y-56711000D02*
X70890000Y-56711000D01*
X68810000Y-56671000D02*
X66333000Y-56671000D01*
X73367000Y-56671000D02*
X70890000Y-56671000D01*
X68810000Y-56631000D02*
X66310000Y-56631000D01*
X73390000Y-56631000D02*
X70890000Y-56631000D01*
X68810000Y-56591000D02*
X66288000Y-56591000D01*
X73412000Y-56591000D02*
X70890000Y-56591000D01*
X68810000Y-56551000D02*
X66266000Y-56551000D01*
X73434000Y-56551000D02*
X70890000Y-56551000D01*
X68810000Y-56511000D02*
X66244000Y-56511000D01*
X73456000Y-56511000D02*
X70890000Y-56511000D01*
X68810000Y-56471000D02*
X66223000Y-56471000D01*
X73477000Y-56471000D02*
X70890000Y-56471000D01*
X68810000Y-56431000D02*
X66203000Y-56431000D01*
X73497000Y-56431000D02*
X70890000Y-56431000D01*
X68810000Y-56391000D02*
X66184000Y-56391000D01*
X73516000Y-56391000D02*
X70890000Y-56391000D01*
X68810000Y-56351000D02*
X66164000Y-56351000D01*
X73536000Y-56351000D02*
X70890000Y-56351000D01*
X68810000Y-56311000D02*
X66146000Y-56311000D01*
X73554000Y-56311000D02*
X70890000Y-56311000D01*
X68810000Y-56271000D02*
X66128000Y-56271000D01*
X73572000Y-56271000D02*
X70890000Y-56271000D01*
X68810000Y-56231000D02*
X66110000Y-56231000D01*
X73590000Y-56231000D02*
X70890000Y-56231000D01*
X68810000Y-56191000D02*
X66093000Y-56191000D01*
X73607000Y-56191000D02*
X70890000Y-56191000D01*
X68810000Y-56151000D02*
X66076000Y-56151000D01*
X73624000Y-56151000D02*
X70890000Y-56151000D01*
X68810000Y-56111000D02*
X66060000Y-56111000D01*
X73640000Y-56111000D02*
X70890000Y-56111000D01*
X68810000Y-56071000D02*
X66045000Y-56071000D01*
X73655000Y-56071000D02*
X70890000Y-56071000D01*
X68810000Y-56031000D02*
X66029000Y-56031000D01*
X73671000Y-56031000D02*
X70890000Y-56031000D01*
X68810000Y-55991000D02*
X66015000Y-55991000D01*
X73685000Y-55991000D02*
X70890000Y-55991000D01*
X68810000Y-55951000D02*
X66000000Y-55951000D01*
X73700000Y-55951000D02*
X70890000Y-55951000D01*
X68810000Y-55911000D02*
X65987000Y-55911000D01*
X73713000Y-55911000D02*
X70890000Y-55911000D01*
X68810000Y-55871000D02*
X65973000Y-55871000D01*
X73727000Y-55871000D02*
X70890000Y-55871000D01*
X68810000Y-55831000D02*
X65961000Y-55831000D01*
X73739000Y-55831000D02*
X70890000Y-55831000D01*
X68810000Y-55791000D02*
X65948000Y-55791000D01*
X73752000Y-55791000D02*
X70890000Y-55791000D01*
X68810000Y-55751000D02*
X65936000Y-55751000D01*
X73764000Y-55751000D02*
X70890000Y-55751000D01*
X68810000Y-55711000D02*
X65925000Y-55711000D01*
X73775000Y-55711000D02*
X70890000Y-55711000D01*
X68810000Y-55671000D02*
X65914000Y-55671000D01*
X73786000Y-55671000D02*
X70890000Y-55671000D01*
X68810000Y-55631000D02*
X65903000Y-55631000D01*
X73797000Y-55631000D02*
X70890000Y-55631000D01*
X68810000Y-55591000D02*
X65893000Y-55591000D01*
X73807000Y-55591000D02*
X70890000Y-55591000D01*
X68810000Y-55551000D02*
X65883000Y-55551000D01*
X73817000Y-55551000D02*
X70890000Y-55551000D01*
X68810000Y-55511000D02*
X65874000Y-55511000D01*
X73826000Y-55511000D02*
X70890000Y-55511000D01*
X68810000Y-55471000D02*
X65865000Y-55471000D01*
X73835000Y-55471000D02*
X70890000Y-55471000D01*
X68810000Y-55431000D02*
X65856000Y-55431000D01*
X73844000Y-55431000D02*
X70890000Y-55431000D01*
X68810000Y-55391000D02*
X65848000Y-55391000D01*
X73852000Y-55391000D02*
X70890000Y-55391000D01*
X68810000Y-55351000D02*
X65840000Y-55351000D01*
X73860000Y-55351000D02*
X70890000Y-55351000D01*
X68810000Y-55311000D02*
X65833000Y-55311000D01*
X73867000Y-55311000D02*
X70890000Y-55311000D01*
X68810000Y-55270000D02*
X65826000Y-55270000D01*
X73874000Y-55270000D02*
X70890000Y-55270000D01*
X68810000Y-55230000D02*
X65820000Y-55230000D01*
X73880000Y-55230000D02*
X70890000Y-55230000D01*
X68810000Y-55190000D02*
X65813000Y-55190000D01*
X73887000Y-55190000D02*
X70890000Y-55190000D01*
X68810000Y-55150000D02*
X65808000Y-55150000D01*
X73892000Y-55150000D02*
X70890000Y-55150000D01*
X68810000Y-55110000D02*
X65802000Y-55110000D01*
X73898000Y-55110000D02*
X70890000Y-55110000D01*
X68810000Y-55070000D02*
X65798000Y-55070000D01*
X73902000Y-55070000D02*
X70890000Y-55070000D01*
X68810000Y-55030000D02*
X65793000Y-55030000D01*
X73907000Y-55030000D02*
X70890000Y-55030000D01*
X68810000Y-54990000D02*
X65789000Y-54990000D01*
X73911000Y-54990000D02*
X70890000Y-54990000D01*
X68810000Y-54950000D02*
X65785000Y-54950000D01*
X73915000Y-54950000D02*
X70890000Y-54950000D01*
X68810000Y-54910000D02*
X65782000Y-54910000D01*
X73918000Y-54910000D02*
X70890000Y-54910000D01*
X68810000Y-54870000D02*
X65779000Y-54870000D01*
X73921000Y-54870000D02*
X70890000Y-54870000D01*
X68810000Y-54830000D02*
X65776000Y-54830000D01*
X73924000Y-54830000D02*
X70890000Y-54830000D01*
X73926000Y-54790000D02*
X65774000Y-54790000D01*
X73927000Y-54750000D02*
X65773000Y-54750000D01*
X73929000Y-54710000D02*
X65771000Y-54710000D01*
X73930000Y-54670000D02*
X65770000Y-54670000D01*
X73930000Y-54630000D02*
X65770000Y-54630000D01*
X73930000Y-54590000D02*
X65770000Y-54590000D01*
X73970000Y-54590000D02*
G75*
G03*
X73970000Y-54590000I-4120000J0D01*
G01*
X78005000Y-166290000D02*
X80745000Y-166290000D01*
X78005000Y-176530000D02*
X80745000Y-176530000D01*
X80745000Y-176530000D02*
X80745000Y-166290000D01*
X78005000Y-176530000D02*
X78005000Y-166290000D01*
X51375000Y-85785000D02*
X56575000Y-85785000D01*
X51375000Y-62865000D02*
X51375000Y-85785000D01*
X56575000Y-60265000D02*
X56575000Y-85785000D01*
X51375000Y-62865000D02*
X53975000Y-62865000D01*
X53975000Y-62865000D02*
X53975000Y-60265000D01*
X53975000Y-60265000D02*
X56575000Y-60265000D01*
X51375000Y-61595000D02*
X51375000Y-60265000D01*
X51375000Y-60265000D02*
X52705000Y-60265000D01*
X108525000Y-51375000D02*
X108525000Y-56575000D01*
X131445000Y-51375000D02*
X108525000Y-51375000D01*
X134045000Y-56575000D02*
X108525000Y-56575000D01*
X131445000Y-51375000D02*
X131445000Y-53975000D01*
X131445000Y-53975000D02*
X134045000Y-53975000D01*
X134045000Y-53975000D02*
X134045000Y-56575000D01*
X132715000Y-51375000D02*
X134045000Y-51375000D01*
X134045000Y-51375000D02*
X134045000Y-52705000D01*
X137100000Y-85785000D02*
X142300000Y-85785000D01*
X137100000Y-62865000D02*
X137100000Y-85785000D01*
X142300000Y-60265000D02*
X142300000Y-85785000D01*
X137100000Y-62865000D02*
X139700000Y-62865000D01*
X139700000Y-62865000D02*
X139700000Y-60265000D01*
X139700000Y-60265000D02*
X142300000Y-60265000D01*
X137100000Y-61595000D02*
X137100000Y-60265000D01*
X137100000Y-60265000D02*
X138430000Y-60265000D01*
X133985000Y-103100000D02*
X133985000Y-102330000D01*
X133985000Y-95020000D02*
X133985000Y-95790000D01*
X135355000Y-102330000D02*
X135355000Y-95790000D01*
X132615000Y-102330000D02*
X135355000Y-102330000D01*
X132615000Y-95790000D02*
X132615000Y-102330000D01*
X135355000Y-95790000D02*
X132615000Y-95790000D01*
X128905000Y-103100000D02*
X128905000Y-102330000D01*
X128905000Y-95020000D02*
X128905000Y-95790000D01*
X130275000Y-102330000D02*
X130275000Y-95790000D01*
X127535000Y-102330000D02*
X130275000Y-102330000D01*
X127535000Y-95790000D02*
X127535000Y-102330000D01*
X130275000Y-95790000D02*
X127535000Y-95790000D01*
X123825000Y-103100000D02*
X123825000Y-102330000D01*
X123825000Y-95020000D02*
X123825000Y-95790000D01*
X125195000Y-102330000D02*
X125195000Y-95790000D01*
X122455000Y-102330000D02*
X125195000Y-102330000D01*
X122455000Y-95790000D02*
X122455000Y-102330000D01*
X125195000Y-95790000D02*
X122455000Y-95790000D01*
X118745000Y-103100000D02*
X118745000Y-102330000D01*
X118745000Y-95020000D02*
X118745000Y-95790000D01*
X120115000Y-102330000D02*
X120115000Y-95790000D01*
X117375000Y-102330000D02*
X120115000Y-102330000D01*
X117375000Y-95790000D02*
X117375000Y-102330000D01*
X120115000Y-95790000D02*
X117375000Y-95790000D01*
X113665000Y-103100000D02*
X113665000Y-102330000D01*
X113665000Y-95020000D02*
X113665000Y-95790000D01*
X115035000Y-102330000D02*
X115035000Y-95790000D01*
X112295000Y-102330000D02*
X115035000Y-102330000D01*
X112295000Y-95790000D02*
X112295000Y-102330000D01*
X115035000Y-95790000D02*
X112295000Y-95790000D01*
X108585000Y-103100000D02*
X108585000Y-102330000D01*
X108585000Y-95020000D02*
X108585000Y-95790000D01*
X109955000Y-102330000D02*
X109955000Y-95790000D01*
X107215000Y-102330000D02*
X109955000Y-102330000D01*
X107215000Y-95790000D02*
X107215000Y-102330000D01*
X109955000Y-95790000D02*
X107215000Y-95790000D01*
X103505000Y-103100000D02*
X103505000Y-102330000D01*
X103505000Y-95020000D02*
X103505000Y-95790000D01*
X104875000Y-102330000D02*
X104875000Y-95790000D01*
X102135000Y-102330000D02*
X104875000Y-102330000D01*
X102135000Y-95790000D02*
X102135000Y-102330000D01*
X104875000Y-95790000D02*
X102135000Y-95790000D01*
X65635000Y-97155000D02*
X64865000Y-97155000D01*
X57555000Y-97155000D02*
X58325000Y-97155000D01*
X64865000Y-95785000D02*
X58325000Y-95785000D01*
X64865000Y-98525000D02*
X64865000Y-95785000D01*
X58325000Y-98525000D02*
X64865000Y-98525000D01*
X58325000Y-95785000D02*
X58325000Y-98525000D01*
X98425000Y-103100000D02*
X98425000Y-102330000D01*
X98425000Y-95020000D02*
X98425000Y-95790000D01*
X99795000Y-102330000D02*
X99795000Y-95790000D01*
X97055000Y-102330000D02*
X99795000Y-102330000D01*
X97055000Y-95790000D02*
X97055000Y-102330000D01*
X99795000Y-95790000D02*
X97055000Y-95790000D01*
X125095000Y-194540000D02*
X125095000Y-193770000D01*
X125095000Y-186460000D02*
X125095000Y-187230000D01*
X126465000Y-193770000D02*
X126465000Y-187230000D01*
X123725000Y-193770000D02*
X126465000Y-193770000D01*
X123725000Y-187230000D02*
X123725000Y-193770000D01*
X126465000Y-187230000D02*
X123725000Y-187230000D01*
X140335000Y-148360000D02*
X140335000Y-149130000D01*
X140335000Y-156440000D02*
X140335000Y-155670000D01*
X138965000Y-149130000D02*
X138965000Y-155670000D01*
X141705000Y-149130000D02*
X138965000Y-149130000D01*
X141705000Y-155670000D02*
X141705000Y-149130000D01*
X138965000Y-155670000D02*
X141705000Y-155670000D01*
X136525000Y-148360000D02*
X136525000Y-149130000D01*
X136525000Y-156440000D02*
X136525000Y-155670000D01*
X135155000Y-149130000D02*
X135155000Y-155670000D01*
X137895000Y-149130000D02*
X135155000Y-149130000D01*
X137895000Y-155670000D02*
X137895000Y-149130000D01*
X135155000Y-155670000D02*
X137895000Y-155670000D01*
X57555000Y-100330000D02*
X58325000Y-100330000D01*
X65635000Y-100330000D02*
X64865000Y-100330000D01*
X58325000Y-101700000D02*
X64865000Y-101700000D01*
X58325000Y-98960000D02*
X58325000Y-101700000D01*
X64865000Y-98960000D02*
X58325000Y-98960000D01*
X64865000Y-101700000D02*
X64865000Y-98960000D01*
X104140000Y-186460000D02*
X104140000Y-187230000D01*
X104140000Y-194540000D02*
X104140000Y-193770000D01*
X102770000Y-187230000D02*
X102770000Y-193770000D01*
X105510000Y-187230000D02*
X102770000Y-187230000D01*
X105510000Y-193770000D02*
X105510000Y-187230000D01*
X102770000Y-193770000D02*
X105510000Y-193770000D01*
X107950000Y-186460000D02*
X107950000Y-187230000D01*
X107950000Y-194540000D02*
X107950000Y-193770000D01*
X106580000Y-187230000D02*
X106580000Y-193770000D01*
X109320000Y-187230000D02*
X106580000Y-187230000D01*
X109320000Y-193770000D02*
X109320000Y-187230000D01*
X106580000Y-193770000D02*
X109320000Y-193770000D01*
X135065000Y-91730000D02*
X135221000Y-91730000D01*
X132749000Y-91730000D02*
X132905000Y-91730000D01*
X135064837Y-89128870D02*
G75*
G02*
X135065000Y-91210961I-1079837J-1041130D01*
G01*
X132905163Y-89128870D02*
G75*
G03*
X132905000Y-91210961I1079837J-1041130D01*
G01*
X135063608Y-88497665D02*
G75*
G02*
X135220516Y-91730000I-1078608J-1672335D01*
G01*
X132906392Y-88497665D02*
G75*
G03*
X132749484Y-91730000I1078608J-1672335D01*
G01*
X129985000Y-91730000D02*
X130141000Y-91730000D01*
X127669000Y-91730000D02*
X127825000Y-91730000D01*
X129984837Y-89128870D02*
G75*
G02*
X129985000Y-91210961I-1079837J-1041130D01*
G01*
X127825163Y-89128870D02*
G75*
G03*
X127825000Y-91210961I1079837J-1041130D01*
G01*
X129983608Y-88497665D02*
G75*
G02*
X130140516Y-91730000I-1078608J-1672335D01*
G01*
X127826392Y-88497665D02*
G75*
G03*
X127669484Y-91730000I1078608J-1672335D01*
G01*
X124905000Y-91730000D02*
X125061000Y-91730000D01*
X122589000Y-91730000D02*
X122745000Y-91730000D01*
X124904837Y-89128870D02*
G75*
G02*
X124905000Y-91210961I-1079837J-1041130D01*
G01*
X122745163Y-89128870D02*
G75*
G03*
X122745000Y-91210961I1079837J-1041130D01*
G01*
X124903608Y-88497665D02*
G75*
G02*
X125060516Y-91730000I-1078608J-1672335D01*
G01*
X122746392Y-88497665D02*
G75*
G03*
X122589484Y-91730000I1078608J-1672335D01*
G01*
X119825000Y-91730000D02*
X119981000Y-91730000D01*
X117509000Y-91730000D02*
X117665000Y-91730000D01*
X119824837Y-89128870D02*
G75*
G02*
X119825000Y-91210961I-1079837J-1041130D01*
G01*
X117665163Y-89128870D02*
G75*
G03*
X117665000Y-91210961I1079837J-1041130D01*
G01*
X119823608Y-88497665D02*
G75*
G02*
X119980516Y-91730000I-1078608J-1672335D01*
G01*
X117666392Y-88497665D02*
G75*
G03*
X117509484Y-91730000I1078608J-1672335D01*
G01*
X114745000Y-91730000D02*
X114901000Y-91730000D01*
X112429000Y-91730000D02*
X112585000Y-91730000D01*
X114744837Y-89128870D02*
G75*
G02*
X114745000Y-91210961I-1079837J-1041130D01*
G01*
X112585163Y-89128870D02*
G75*
G03*
X112585000Y-91210961I1079837J-1041130D01*
G01*
X114743608Y-88497665D02*
G75*
G02*
X114900516Y-91730000I-1078608J-1672335D01*
G01*
X112586392Y-88497665D02*
G75*
G03*
X112429484Y-91730000I1078608J-1672335D01*
G01*
X63055000Y-88610000D02*
X62899000Y-88610000D01*
X65371000Y-88610000D02*
X65215000Y-88610000D01*
X63055163Y-91211130D02*
G75*
G02*
X63055000Y-89129039I1079837J1041130D01*
G01*
X65214837Y-91211130D02*
G75*
G03*
X65215000Y-89129039I-1079837J1041130D01*
G01*
X63056392Y-91842335D02*
G75*
G02*
X62899484Y-88610000I1078608J1672335D01*
G01*
X65213608Y-91842335D02*
G75*
G03*
X65370516Y-88610000I-1078608J1672335D01*
G01*
X109665000Y-91730000D02*
X109821000Y-91730000D01*
X107349000Y-91730000D02*
X107505000Y-91730000D01*
X109664837Y-89128870D02*
G75*
G02*
X109665000Y-91210961I-1079837J-1041130D01*
G01*
X107505163Y-89128870D02*
G75*
G03*
X107505000Y-91210961I1079837J-1041130D01*
G01*
X109663608Y-88497665D02*
G75*
G02*
X109820516Y-91730000I-1078608J-1672335D01*
G01*
X107506392Y-88497665D02*
G75*
G03*
X107349484Y-91730000I1078608J-1672335D01*
G01*
X104585000Y-91730000D02*
X104741000Y-91730000D01*
X102269000Y-91730000D02*
X102425000Y-91730000D01*
X104584837Y-89128870D02*
G75*
G02*
X104585000Y-91210961I-1079837J-1041130D01*
G01*
X102425163Y-89128870D02*
G75*
G03*
X102425000Y-91210961I1079837J-1041130D01*
G01*
X104583608Y-88497665D02*
G75*
G02*
X104740516Y-91730000I-1078608J-1672335D01*
G01*
X102426392Y-88497665D02*
G75*
G03*
X102269484Y-91730000I1078608J-1672335D01*
G01*
X99505000Y-91730000D02*
X99661000Y-91730000D01*
X97189000Y-91730000D02*
X97345000Y-91730000D01*
X99504837Y-89128870D02*
G75*
G02*
X99505000Y-91210961I-1079837J-1041130D01*
G01*
X97345163Y-89128870D02*
G75*
G03*
X97345000Y-91210961I1079837J-1041130D01*
G01*
X99503608Y-88497665D02*
G75*
G02*
X99660516Y-91730000I-1078608J-1672335D01*
G01*
X97346392Y-88497665D02*
G75*
G03*
X97189484Y-91730000I1078608J-1672335D01*
G01*
X133005000Y-137761000D02*
X133005000Y-137605000D01*
X133005000Y-135445000D02*
X133005000Y-135289000D01*
X129772665Y-137603608D02*
G75*
G03*
X133005000Y-137760516I1672335J1078608D01*
G01*
X129772665Y-135446392D02*
G75*
G02*
X133005000Y-135289484I1672335J-1078608D01*
G01*
X130403870Y-137604837D02*
G75*
G03*
X132485961Y-137605000I1041130J1079837D01*
G01*
X130403870Y-135445163D02*
G75*
G02*
X132485961Y-135445000I1041130J-1079837D01*
G01*
X129885000Y-142274000D02*
X129885000Y-142430000D01*
X129885000Y-144590000D02*
X129885000Y-144746000D01*
X133117335Y-142431392D02*
G75*
G03*
X129885000Y-142274484I-1672335J-1078608D01*
G01*
X133117335Y-144588608D02*
G75*
G02*
X129885000Y-144745516I-1672335J1078608D01*
G01*
X132486130Y-142430163D02*
G75*
G03*
X130404039Y-142430000I-1041130J-1079837D01*
G01*
X132486130Y-144589837D02*
G75*
G02*
X130404039Y-144590000I-1041130J1079837D01*
G01*
X74485000Y-88610000D02*
X74329000Y-88610000D01*
X76801000Y-88610000D02*
X76645000Y-88610000D01*
X74485163Y-91211130D02*
G75*
G02*
X74485000Y-89129039I1079837J1041130D01*
G01*
X76644837Y-91211130D02*
G75*
G03*
X76645000Y-89129039I-1079837J1041130D01*
G01*
X74486392Y-91842335D02*
G75*
G02*
X74329484Y-88610000I1078608J1672335D01*
G01*
X76643608Y-91842335D02*
G75*
G03*
X76800516Y-88610000I-1078608J1672335D01*
G01*
X142730000Y-173880000D02*
X136710000Y-173880000D01*
X136710000Y-173880000D02*
X136710000Y-179180000D01*
X136710000Y-179180000D02*
X142730000Y-179180000D01*
X142730000Y-179180000D02*
X142730000Y-173880000D01*
X141700000Y-173590000D02*
X137700000Y-173590000D01*
X136710000Y-175260000D02*
X137710000Y-175260000D01*
X137710000Y-175260000D02*
X137710000Y-177800000D01*
X137710000Y-177800000D02*
X136710000Y-177800000D01*
X137710000Y-175260000D02*
X138240000Y-175510000D01*
X138240000Y-175510000D02*
X138240000Y-177550000D01*
X138240000Y-177550000D02*
X137710000Y-177800000D01*
X136710000Y-175510000D02*
X137710000Y-175510000D01*
X136710000Y-177550000D02*
X137710000Y-177550000D01*
X142730000Y-174460000D02*
X142130000Y-174460000D01*
X142130000Y-174460000D02*
X142130000Y-176060000D01*
X142130000Y-176060000D02*
X142730000Y-176060000D01*
X142730000Y-177000000D02*
X142130000Y-177000000D01*
X142130000Y-177000000D02*
X142130000Y-178600000D01*
X142130000Y-178600000D02*
X142730000Y-178600000D01*
X142730000Y-160545000D02*
X136710000Y-160545000D01*
X136710000Y-160545000D02*
X136710000Y-170925000D01*
X136710000Y-170925000D02*
X142730000Y-170925000D01*
X142730000Y-170925000D02*
X142730000Y-160545000D01*
X141700000Y-160255000D02*
X137700000Y-160255000D01*
X136710000Y-161925000D02*
X137710000Y-161925000D01*
X137710000Y-161925000D02*
X137710000Y-169545000D01*
X137710000Y-169545000D02*
X136710000Y-169545000D01*
X137710000Y-161925000D02*
X138240000Y-162175000D01*
X138240000Y-162175000D02*
X138240000Y-169295000D01*
X138240000Y-169295000D02*
X137710000Y-169545000D01*
X136710000Y-162175000D02*
X137710000Y-162175000D01*
X136710000Y-169295000D02*
X137710000Y-169295000D01*
X142730000Y-161125000D02*
X142130000Y-161125000D01*
X142130000Y-161125000D02*
X142130000Y-162725000D01*
X142130000Y-162725000D02*
X142730000Y-162725000D01*
X142730000Y-163665000D02*
X142130000Y-163665000D01*
X142130000Y-163665000D02*
X142130000Y-165265000D01*
X142130000Y-165265000D02*
X142730000Y-165265000D01*
X142730000Y-166205000D02*
X142130000Y-166205000D01*
X142130000Y-166205000D02*
X142130000Y-167805000D01*
X142130000Y-167805000D02*
X142730000Y-167805000D01*
X142730000Y-168745000D02*
X142130000Y-168745000D01*
X142130000Y-168745000D02*
X142130000Y-170345000D01*
X142130000Y-170345000D02*
X142730000Y-170345000D01*
X56405000Y-51580000D02*
X56405000Y-57600000D01*
X56405000Y-57600000D02*
X61705000Y-57600000D01*
X61705000Y-57600000D02*
X61705000Y-51580000D01*
X61705000Y-51580000D02*
X56405000Y-51580000D01*
X56115000Y-52610000D02*
X56115000Y-56610000D01*
X57785000Y-57600000D02*
X57785000Y-56600000D01*
X57785000Y-56600000D02*
X60325000Y-56600000D01*
X60325000Y-56600000D02*
X60325000Y-57600000D01*
X57785000Y-56600000D02*
X58035000Y-56070000D01*
X58035000Y-56070000D02*
X60075000Y-56070000D01*
X60075000Y-56070000D02*
X60325000Y-56600000D01*
X58035000Y-57600000D02*
X58035000Y-56600000D01*
X60075000Y-57600000D02*
X60075000Y-56600000D01*
X56985000Y-51580000D02*
X56985000Y-52180000D01*
X56985000Y-52180000D02*
X58585000Y-52180000D01*
X58585000Y-52180000D02*
X58585000Y-51580000D01*
X59525000Y-51580000D02*
X59525000Y-52180000D01*
X59525000Y-52180000D02*
X61125000Y-52180000D01*
X61125000Y-52180000D02*
X61125000Y-51580000D01*
X74549000Y-184277000D02*
X74549000Y-201803000D01*
X86868000Y-184277000D02*
X74549000Y-184277000D01*
X86868000Y-201803000D02*
X86868000Y-184277000D01*
X74549000Y-201803000D02*
X86868000Y-201803000D01*
X60579000Y-184277000D02*
X60579000Y-201803000D01*
X72898000Y-184277000D02*
X60579000Y-184277000D01*
X72898000Y-201803000D02*
X72898000Y-184277000D01*
X60579000Y-201803000D02*
X72898000Y-201803000D01*
X88519000Y-184277000D02*
X88519000Y-201803000D01*
X100838000Y-184277000D02*
X88519000Y-184277000D01*
X100838000Y-201803000D02*
X100838000Y-184277000D01*
X88519000Y-201803000D02*
X100838000Y-201803000D01*
X115570000Y-186460000D02*
X115570000Y-187230000D01*
X115570000Y-194540000D02*
X115570000Y-193770000D01*
X114200000Y-187230000D02*
X114200000Y-193770000D01*
X116940000Y-187230000D02*
X114200000Y-187230000D01*
X116940000Y-193770000D02*
X116940000Y-187230000D01*
X114200000Y-193770000D02*
X116940000Y-193770000D01*
X121920000Y-186460000D02*
X121920000Y-187230000D01*
X121920000Y-194540000D02*
X121920000Y-193770000D01*
X120550000Y-187230000D02*
X120550000Y-193770000D01*
X123290000Y-187230000D02*
X120550000Y-187230000D01*
X123290000Y-193770000D02*
X123290000Y-187230000D01*
X120550000Y-193770000D02*
X123290000Y-193770000D01*
X118745000Y-186460000D02*
X118745000Y-187230000D01*
X118745000Y-194540000D02*
X118745000Y-193770000D01*
X117375000Y-187230000D02*
X117375000Y-193770000D01*
X120115000Y-187230000D02*
X117375000Y-187230000D01*
X120115000Y-193770000D02*
X120115000Y-187230000D01*
X117375000Y-193770000D02*
X120115000Y-193770000D01*
X100905000Y-114665000D02*
X100905000Y-115915000D01*
X100905000Y-115915000D02*
X126425000Y-115915000D01*
X126425000Y-115915000D02*
X126425000Y-111415000D01*
X126425000Y-111415000D02*
X100905000Y-111415000D01*
X100905000Y-111415000D02*
X100905000Y-112665000D01*
X100845000Y-118915000D02*
X126485000Y-118915000D01*
X126485000Y-118915000D02*
X126485000Y-108415000D01*
X126485000Y-108415000D02*
X100845000Y-108415000D01*
X100845000Y-108415000D02*
X100845000Y-118915000D01*
X100905000Y-112665000D02*
G75*
G02*
X100905000Y-114665000I0J-1000000D01*
G01*
X121405000Y-145585000D02*
X121405000Y-135085000D01*
X100845000Y-145585000D02*
X121405000Y-145585000D01*
X100845000Y-135085000D02*
X100845000Y-145585000D01*
X121405000Y-135085000D02*
X100845000Y-135085000D01*
X121345000Y-142585000D02*
X121345000Y-141335000D01*
X100905000Y-142585000D02*
X121345000Y-142585000D01*
X100905000Y-138085000D02*
X100905000Y-142585000D01*
X121345000Y-138085000D02*
X100905000Y-138085000D01*
X121345000Y-139335000D02*
X121345000Y-138085000D01*
X121345000Y-141335000D02*
G75*
G02*
X121345000Y-139335000I0J1000000D01*
G01*
X67250000Y-114665000D02*
X67250000Y-115915000D01*
X67250000Y-115915000D02*
X92770000Y-115915000D01*
X92770000Y-115915000D02*
X92770000Y-111415000D01*
X92770000Y-111415000D02*
X67250000Y-111415000D01*
X67250000Y-111415000D02*
X67250000Y-112665000D01*
X67190000Y-118915000D02*
X92830000Y-118915000D01*
X92830000Y-118915000D02*
X92830000Y-108415000D01*
X92830000Y-108415000D02*
X67190000Y-108415000D01*
X67190000Y-108415000D02*
X67190000Y-118915000D01*
X67250000Y-112665000D02*
G75*
G02*
X67250000Y-114665000I0J-1000000D01*
G01*
X87690000Y-139335000D02*
X87690000Y-138085000D01*
X87690000Y-138085000D02*
X67250000Y-138085000D01*
X67250000Y-138085000D02*
X67250000Y-142585000D01*
X67250000Y-142585000D02*
X87690000Y-142585000D01*
X87690000Y-142585000D02*
X87690000Y-141335000D01*
X87750000Y-135085000D02*
X67190000Y-135085000D01*
X67190000Y-135085000D02*
X67190000Y-145585000D01*
X67190000Y-145585000D02*
X87750000Y-145585000D01*
X87750000Y-145585000D02*
X87750000Y-135085000D01*
X87690000Y-141335000D02*
G75*
G02*
X87690000Y-139335000I0J1000000D01*
G01*
X81855000Y-172450000D02*
X81855000Y-173700000D01*
X81855000Y-173700000D02*
X99755000Y-173700000D01*
X99755000Y-173700000D02*
X99755000Y-169200000D01*
X99755000Y-169200000D02*
X81855000Y-169200000D01*
X81855000Y-169200000D02*
X81855000Y-170450000D01*
X81795000Y-176700000D02*
X99815000Y-176700000D01*
X99815000Y-176700000D02*
X99815000Y-166200000D01*
X99815000Y-166200000D02*
X81795000Y-166200000D01*
X81795000Y-166200000D02*
X81795000Y-176700000D01*
X81855000Y-170450000D02*
G75*
G02*
X81855000Y-172450000I0J-1000000D01*
G01*
X57090000Y-172450000D02*
X57090000Y-173700000D01*
X57090000Y-173700000D02*
X74990000Y-173700000D01*
X74990000Y-173700000D02*
X74990000Y-169200000D01*
X74990000Y-169200000D02*
X57090000Y-169200000D01*
X57090000Y-169200000D02*
X57090000Y-170450000D01*
X57030000Y-176700000D02*
X75050000Y-176700000D01*
X75050000Y-176700000D02*
X75050000Y-166200000D01*
X75050000Y-166200000D02*
X57030000Y-166200000D01*
X57030000Y-166200000D02*
X57030000Y-176700000D01*
X57090000Y-170450000D02*
G75*
G02*
X57090000Y-172450000I0J-1000000D01*
G01*
X107255000Y-172450000D02*
X107255000Y-173700000D01*
X107255000Y-173700000D02*
X125155000Y-173700000D01*
X125155000Y-173700000D02*
X125155000Y-169200000D01*
X125155000Y-169200000D02*
X107255000Y-169200000D01*
X107255000Y-169200000D02*
X107255000Y-170450000D01*
X107195000Y-176700000D02*
X125215000Y-176700000D01*
X125215000Y-176700000D02*
X125215000Y-166200000D01*
X125215000Y-166200000D02*
X107195000Y-166200000D01*
X107195000Y-166200000D02*
X107195000Y-176700000D01*
X107255000Y-170450000D02*
G75*
G02*
X107255000Y-172450000I0J-1000000D01*
G01*
X57150000Y-178940000D02*
X57150000Y-181740000D01*
X67480000Y-178940000D02*
X54440000Y-178940000D01*
X67480000Y-181740000D02*
X67480000Y-178940000D01*
X54440000Y-181740000D02*
X67480000Y-181740000D01*
X54440000Y-178940000D02*
X54440000Y-181740000D01*
M02*
