<?xml version="1.0" standalone="no"?>
 <!DOCTYPE svg PUBLIC "-//W3C//DTD SVG 1.1//EN" 
 "http://www.w3.org/Graphics/SVG/1.1/DTD/svg11.dtd"> 
<svg
  xmlns:svg="http://www.w3.org/2000/svg"
  xmlns="http://www.w3.org/2000/svg"
  xmlns:xlink="http://www.w3.org/1999/xlink"
  version="1.1"
  width="8.432800cm" height="6.563360cm" viewBox="0 0 33200 25840">
<title>SVG Picture created as power-brd.svg date 2021/01/12 21:31:30 </title>
  <desc>Picture generated by PCBNEW </desc>
<g style="fill:#000000; fill-opacity:1;stroke:#000000; stroke-opacity:1;
stroke-linecap:round; stroke-linejoin:round;"
 transform="translate(0 0) scale(1 1)">
</g>
<g style="fill:#000000; fill-opacity:0.0; 
stroke:#000000; stroke-width:-0.000393701; stroke-opacity:1; 
stroke-linecap:round; stroke-linejoin:round;">
</g>
<g style="fill:#008484; fill-opacity:0.0; 
stroke:#008484; stroke-width:-0.000393701; stroke-opacity:1; 
stroke-linecap:round; stroke-linejoin:round;">
</g>
<g style="fill:#008484; fill-opacity:0.0; 
stroke:#008484; stroke-width:157.48; stroke-opacity:1; 
stroke-linecap:round; stroke-linejoin:round;">
<text x="30545.9" y="5943.9"
textLength="1462.32" font-size="1574.8" lengthAdjust="spacingAndGlyphs"
text-anchor="middle" opacity="0">-</text>
<path d="M30095 5437
L30995 5437
" />
<text x="32045.9" y="5943.9"
textLength="1667.04" font-size="1574.8" lengthAdjust="spacingAndGlyphs"
text-anchor="middle" opacity="0">+</text>
<path d="M31595 5437
L32495 5437
" />
<path d="M32045 5887
L32045 4987
" />
<text x="28045.9" y="2193.9"
textLength="1667.04" font-size="1574.8" lengthAdjust="spacingAndGlyphs"
text-anchor="middle" opacity="0">+</text>
<path d="M27595 1687
L28495 1687
" />
<path d="M28045 2137
L28045 1237
" />
<text x="26545.9" y="2193.9"
textLength="1667.04" font-size="1574.8" lengthAdjust="spacingAndGlyphs"
text-anchor="middle" opacity="0">-</text>
<path d="M26095 1687
L26995 1687
" />
<text x="10857" y="13191.9"
textLength="1667.04" font-size="1574.8" lengthAdjust="spacingAndGlyphs"
text-anchor="middle" opacity="0">+</text>
<path d="M10407 12685
L11306 12685
" />
<path d="M10856 13135
L10856 12235
" />
<text x="10795.9" y="15191.9"
textLength="1667.04" font-size="1574.8" lengthAdjust="spacingAndGlyphs"
text-anchor="middle" opacity="0">-</text>
<path d="M10345 14685
L11245 14685
" />
</g>
<g style="fill:#008484; fill-opacity:0.0; 
stroke:#008484; stroke-width:98.4252; stroke-opacity:1; 
stroke-linecap:round; stroke-linejoin:round;">
<path d="M7293 9351
L7884 9351
" />
</g>
<g style="fill:#008484; fill-opacity:0.0; 
stroke:#008484; stroke-width:118.11; stroke-opacity:1; 
stroke-linecap:round; stroke-linejoin:round;">
<circle cx="8356.96" cy="9351.38" r="78.7402" /> 
</g>
<g style="fill:#008484; fill-opacity:0.0; 
stroke:#008484; stroke-width:98.4252; stroke-opacity:1; 
stroke-linecap:round; stroke-linejoin:round;">
<path d="M8356 9351
L8947 9351
" />
<path d="M8502.62 8926.18 A449.457 449.457 0.0 1 0 8504.68 9775.86" />
</g>
<g style="fill:#008484; fill-opacity:0.0; 
stroke:#008484; stroke-width:47.2441; stroke-opacity:1; 
stroke-linecap:round; stroke-linejoin:round;">
<path d="M32171 18894
L32171 18658
" />
<path d="M31541 18894
L32171 18894
" />
<path d="M31541 18658
L31541 18894
" />
<path d="M31171 18894
L31171 18658
" />
<path d="M30541 18894
L31171 18894
" />
<path d="M30541 18658
L30541 18894
" />
<path d="M31758 21028
L31758 20634
" />
<path d="M30955 21028
L30955 20634
" />
<path d="M31758 20426
L31856 20634
" />
<path d="M30955 20426
L31758 20426
" />
<path d="M30856 20634
L30955 20426
" />
<path d="M31856 20634
L31856 21028
" />
<path d="M30856 20634
L31856 20634
" />
<path d="M30856 21028
L30856 20634
" />
<path d="M30199 19063
L30199 20638
" />
<path d="M32400 18658
L30313 18658
" />
<path d="M32400 21028
L32400 18658
" />
<path d="M30313 21028
L32400 21028
" />
<path d="M30313 18658
L30313 21028
" />
<circle cx="18808.9" cy="13777.4" r="1968.5" /> 
<circle cx="14058.9" cy="13777.4" r="1968.5" /> 
<path d="M24878 17733
L24878 9071
" />
<path d="M21335 17733
L21335 9071
" />
<path d="M21335 9071
L24878 9071
" />
<path d="M24878 17733
L21335 17733
" />
<path d="M20825 768
L12164 768
" />
<path d="M20825 4312
L12164 4312
" />
<path d="M12164 4312
L12164 768
" />
<path d="M20825 768
L20825 4312
" />
<path d="M13455 9859
L15636 9859
" />
<path d="M15636 9859
L15636 6221
" />
<path d="M15636 6221
L13455 6221
" />
<path d="M13455 6221
L13455 9859
" />
<path d="M14545 9934
L14545 9859
" />
<path d="M14545 6146
L14545 6221
" />
<path d="M13455 9280
L15636 9280
" />
<path d="M13455 9233
L15636 9233
" />
<path d="M13455 9327
L15636 9327
" />
<path d="M21547 6528
L22666 6528
" />
<path d="M22666 6528
L22666 5174
" />
<path d="M22666 5174
L21547 5174
" />
<path d="M21547 5174
L21547 6528
" />
<path d="M22106 7363
L22106 6528
" />
<path d="M22106 4339
L22106 5174
" />
<path d="M21547 6292
L22666 6292
" />
<path d="M21547 6245
L22666 6245
" />
<path d="M21547 6339
L22666 6339
" />
<path d="M32171 6894
L32171 6658
" />
<path d="M31541 6894
L32171 6894
" />
<path d="M31541 6658
L31541 6894
" />
<path d="M31171 6894
L31171 6658
" />
<path d="M30541 6894
L31171 6894
" />
<path d="M30541 6658
L30541 6894
" />
<path d="M31758 9028
L31758 8634
" />
<path d="M30955 9028
L30955 8634
" />
<path d="M31758 8426
L31856 8634
" />
<path d="M30955 8426
L31758 8426
" />
<path d="M30856 8634
L30955 8426
" />
<path d="M31856 8634
L31856 9028
" />
<path d="M30856 8634
L31856 8634
" />
<path d="M30856 9028
L30856 8634
" />
<path d="M30199 7063
L30199 8638
" />
<path d="M32400 6658
L30313 6658
" />
<path d="M32400 9028
L32400 6658
" />
<path d="M30313 9028
L32400 9028
" />
<path d="M30313 6658
L30313 9028
" />
<path d="M28171 2894
L28171 2658
" />
<path d="M27541 2894
L28171 2894
" />
<path d="M27541 2658
L27541 2894
" />
<path d="M27171 2894
L27171 2658
" />
<path d="M26541 2894
L27171 2894
" />
<path d="M26541 2658
L26541 2894
" />
<path d="M27758 5028
L27758 4634
" />
<path d="M26955 5028
L26955 4634
" />
<path d="M27758 4426
L27856 4634
" />
<path d="M26955 4426
L27758 4426
" />
<path d="M26856 4634
L26955 4426
" />
<path d="M27856 4634
L27856 5028
" />
<path d="M26856 4634
L27856 4634
" />
<path d="M26856 5028
L26856 4634
" />
<path d="M26199 3063
L26199 4638
" />
<path d="M28400 2658
L26313 2658
" />
<path d="M28400 5028
L28400 2658
" />
<path d="M26313 5028
L28400 5028
" />
<path d="M26313 2658
L26313 5028
" />
<path d="M28171 6894
L28171 6658
" />
<path d="M27541 6894
L28171 6894
" />
<path d="M27541 6658
L27541 6894
" />
<path d="M27171 6894
L27171 6658
" />
<path d="M26541 6894
L27171 6894
" />
<path d="M26541 6658
L26541 6894
" />
<path d="M27758 9028
L27758 8634
" />
<path d="M26955 9028
L26955 8634
" />
<path d="M27758 8426
L27856 8634
" />
<path d="M26955 8426
L27758 8426
" />
<path d="M26856 8634
L26955 8426
" />
<path d="M27856 8634
L27856 9028
" />
<path d="M26856 8634
L27856 8634
" />
<path d="M26856 9028
L26856 8634
" />
<path d="M26199 7063
L26199 8638
" />
<path d="M28400 6658
L26313 6658
" />
<path d="M28400 9028
L28400 6658
" />
<path d="M26313 9028
L28400 9028
" />
<path d="M26313 6658
L26313 9028
" />
<path d="M28171 18894
L28171 18658
" />
<path d="M27541 18894
L28171 18894
" />
<path d="M27541 18658
L27541 18894
" />
<path d="M27171 18894
L27171 18658
" />
<path d="M26541 18894
L27171 18894
" />
<path d="M26541 18658
L26541 18894
" />
<path d="M27758 21028
L27758 20634
" />
<path d="M26955 21028
L26955 20634
" />
<path d="M27758 20426
L27856 20634
" />
<path d="M26955 20426
L27758 20426
" />
<path d="M26856 20634
L26955 20426
" />
<path d="M27856 20634
L27856 21028
" />
<path d="M26856 20634
L27856 20634
" />
<path d="M26856 21028
L26856 20634
" />
<path d="M26199 19063
L26199 20638
" />
<path d="M28400 18658
L26313 18658
" />
<path d="M28400 21028
L28400 18658
" />
<path d="M26313 21028
L28400 21028
" />
<path d="M26313 18658
L26313 21028
" />
<path d="M28171 10894
L28171 10658
" />
<path d="M27541 10894
L28171 10894
" />
<path d="M27541 10658
L27541 10894
" />
<path d="M27171 10894
L27171 10658
" />
<path d="M26541 10894
L27171 10894
" />
<path d="M26541 10658
L26541 10894
" />
<path d="M27758 13028
L27758 12634
" />
<path d="M26955 13028
L26955 12634
" />
<path d="M27758 12426
L27856 12634
" />
<path d="M26955 12426
L27758 12426
" />
<path d="M26856 12634
L26955 12426
" />
<path d="M27856 12634
L27856 13028
" />
<path d="M26856 12634
L27856 12634
" />
<path d="M26856 13028
L26856 12634
" />
<path d="M26199 11063
L26199 12638
" />
<path d="M28400 10658
L26313 10658
" />
<path d="M28400 13028
L28400 10658
" />
<path d="M26313 13028
L28400 13028
" />
<path d="M26313 10658
L26313 13028
" />
<path d="M32171 14894
L32171 14658
" />
<path d="M31541 14894
L32171 14894
" />
<path d="M31541 14658
L31541 14894
" />
<path d="M31171 14894
L31171 14658
" />
<path d="M30541 14894
L31171 14894
" />
<path d="M30541 14658
L30541 14894
" />
<path d="M31758 17028
L31758 16634
" />
<path d="M30955 17028
L30955 16634
" />
<path d="M31758 16426
L31856 16634
" />
<path d="M30955 16426
L31758 16426
" />
<path d="M30856 16634
L30955 16426
" />
<path d="M31856 16634
L31856 17028
" />
<path d="M30856 16634
L31856 16634
" />
<path d="M30856 17028
L30856 16634
" />
<path d="M30199 15063
L30199 16638
" />
<path d="M32400 14658
L30313 14658
" />
<path d="M32400 17028
L32400 14658
" />
<path d="M30313 17028
L32400 17028
" />
<path d="M30313 14658
L30313 17028
" />
<path d="M32171 10894
L32171 10658
" />
<path d="M31541 10894
L32171 10894
" />
<path d="M31541 10658
L31541 10894
" />
<path d="M31171 10894
L31171 10658
" />
<path d="M30541 10894
L31171 10894
" />
<path d="M30541 10658
L30541 10894
" />
<path d="M31758 13028
L31758 12634
" />
<path d="M30955 13028
L30955 12634
" />
<path d="M31758 12426
L31856 12634
" />
<path d="M30955 12426
L31758 12426
" />
<path d="M30856 12634
L30955 12426
" />
<path d="M31856 12634
L31856 13028
" />
<path d="M30856 12634
L31856 12634
" />
<path d="M30856 13028
L30856 12634
" />
<path d="M30199 11063
L30199 12638
" />
<path d="M32400 10658
L30313 10658
" />
<path d="M32400 13028
L32400 10658
" />
<path d="M30313 13028
L32400 13028
" />
<path d="M30313 10658
L30313 13028
" />
<path d="M28171 14894
L28171 14658
" />
<path d="M27541 14894
L28171 14894
" />
<path d="M27541 14658
L27541 14894
" />
<path d="M27171 14894
L27171 14658
" />
<path d="M26541 14894
L27171 14894
" />
<path d="M26541 14658
L26541 14894
" />
<path d="M27758 17028
L27758 16634
" />
<path d="M26955 17028
L26955 16634
" />
<path d="M27758 16426
L27856 16634
" />
<path d="M26955 16426
L27758 16426
" />
<path d="M26856 16634
L26955 16426
" />
<path d="M27856 16634
L27856 17028
" />
<path d="M26856 16634
L27856 16634
" />
<path d="M26856 17028
L26856 16634
" />
<path d="M26199 15063
L26199 16638
" />
<path d="M28400 14658
L26313 14658
" />
<path d="M28400 17028
L28400 14658
" />
<path d="M26313 17028
L28400 17028
" />
<path d="M26313 14658
L26313 17028
" />
<path d="M17585 23063
L17585 23658
" />
<path d="M16128 23063
L16128 23658
" />
<path d="M14841 23658
L18872 23658
" />
<path d="M18872 23063
L18872 24891
" />
<path d="M14841 23063
L14841 24891
" />
<path d="M14841 24891
L18872 24891
" />
<path d="M14841 23063
L18872 23063
" />
<path d="M24106 7441
L24106 7138
" />
<path d="M24106 4260
L24106 4563
" />
<path d="M24646 7138
L24646 4563
" />
<path d="M23567 7138
L24646 7138
" />
<path d="M23567 4563
L23567 7138
" />
<path d="M24646 4563
L23567 4563
" />
<path d="M17567 6827
L17567 6233
" />
<path d="M19024 6827
L19024 6233
" />
<path d="M20311 6233
L16280 6233
" />
<path d="M16280 6827
L16280 5000
" />
<path d="M20311 6827
L20311 5000
" />
<path d="M20311 5000
L16280 5000
" />
<path d="M20311 6827
L16280 6827
" />
<path d="M5927 11483
L5927 11680
" />
<path d="M6219 11483
L5927 11483
" />
<path d="M7454 14118
L7436 14099
" />
<path d="M8358 15022
L8344 15008
" />
<path d="M7369 14194
L7355 14180
" />
<path d="M8277 15103
L8259 15084
" />
<path d="M9928 15625
L6022 15625
" />
<path d="M9928 11577
L6022 11577
" />
<path d="M6022 11577
L6022 15625
" />
<path d="M9928 11577
L9928 15625
" />
<path d="M8762 11577
L8762 15625
" />
<path d="M6833 11577
L6833 15625
" />
<path d="M6242 11577
L6242 15625
" />
<circle cx="7856.96" cy="14601.4" r="661.417" /> 
<path d="M7252.62 12332.1 A661.614 661.614 0.0 0 0 7195.44 12612.7" />
<path d="M8126.25 11997 A661.614 661.614 0.0 0 0 7588.04 11996.9" />
<path d="M8461.29 12870.7 A661.614 661.614 0.0 0 0 8461.45 12332.5" />
<path d="M7587.66 13205.7 A661.614 661.614 0.0 0 0 8125.87 13205.9" />
<path d="M7195.54 12601.4 A661.417 661.417 0.0 0 0 7252.72 12870.4" />
<path d="M5606 4268
L11315 4268
" />
<path d="M5606 7812
L5606 4268
" />
<path d="M11315 7812
L5606 7812
" />
<path d="M11315 4268
L11315 7812
" />
<path d="M20211 17840
L17411 17840
" />
<path d="M20211 16240
L17411 16240
" />
<path d="M20211 17840
L20211 16240
" />
<path d="M17411 17840
L17411 16240
" />
<path d="M15445 17840
L12645 17840
" />
<path d="M15445 16240
L12645 16240
" />
<path d="M15445 17840
L15445 16240
" />
<path d="M12645 17840
L12645 16240
" />
</g>
<g style="fill:#008484; fill-opacity:0.0; 
stroke:#008484; stroke-width:98.4252; stroke-opacity:1; 
stroke-linecap:round; stroke-linejoin:round;">
<text x="6782.15" y="9607.28"
textLength="935.883" font-size="787.402" lengthAdjust="spacingAndGlyphs"
text-anchor="middle" opacity="0">-</text>
<path d="M6557 9354
L7007 9354
" />
<text x="9459.32" y="9607.28"
textLength="859.111" font-size="787.402" lengthAdjust="spacingAndGlyphs"
text-anchor="middle" opacity="0">+</text>
<path d="M9234 9354
L9684 9354
" />
<path d="M9459 9579
L9459 9129
" />
<g >
</g>
</g>
<g style="fill:#000000; fill-opacity:0.0; 
stroke:#000000; stroke-width:98.4252; stroke-opacity:1; 
stroke-linecap:round; stroke-linejoin:round;">
<g >
</g>
<g >
</g>
<g >
</g>
<g >
</g>
<g >
</g>
<g >
</g>
<g >
</g>
<g >
</g>
<g >
</g>
<g >
</g>
<g >
</g>
<g >
</g>
<g >
</g>
<g >
</g>
<g >
</g>
<g >
</g>
<g >
</g>
<g >
</g>
<g >
</g>
<g >
</g>
<g >
</g>
<g >
</g>
<g >
</g>
<g >
</g>
<g >
</g>
<g >
</g>
<g >
</g>
</g>
<g style="fill:#C2C200; fill-opacity:0.0; 
stroke:#C2C200; stroke-width:98.4252; stroke-opacity:1; 
stroke-linecap:round; stroke-linejoin:round;">
</g>
<g style="fill:#C2C200; fill-opacity:0.0; 
stroke:#C2C200; stroke-width:59.0551; stroke-opacity:1; 
stroke-linecap:round; stroke-linejoin:round;">
<text x="8356.96" y="10453.7"
textLength="1815.24" font-size="524.934" lengthAdjust="spacingAndGlyphs"
text-anchor="middle" opacity="0">REF**</text>
<path d="M7832 10434
L7700 10247
" />
<path d="M7607 10434
L7607 10041
L7757 10041
L7794 10060
L7813 10078
L7832 10116
L7832 10172
L7813 10210
L7794 10228
L7757 10247
L7607 10247
" />
<path d="M8000 10228
L8131 10228
" />
<path d="M8188 10434
L8000 10434
L8000 10041
L8188 10041
" />
<path d="M8488 10228
L8356 10228
" />
<path d="M8356 10434
L8356 10041
L8544 10041
" />
<path d="M8750 10041
L8750 10135
" />
<path d="M8656 10097
L8750 10135
L8844 10097
" />
<path d="M8694 10210
L8750 10135
L8806 10210
" />
<path d="M9050 10041
L9050 10135
" />
<path d="M8956 10097
L9050 10135
L9144 10097
" />
<path d="M8994 10210
L9050 10135
L9106 10210
" />
<text x="8419.95" y="11004.9"
textLength="6957.16" font-size="524.934" lengthAdjust="spacingAndGlyphs"
text-anchor="middle" opacity="0">Hohlstecker_plus_innen</text>
<path d="M5073 10986
L5073 10592
" />
<path d="M5073 10779
L5298 10779
" />
<path d="M5298 10986
L5298 10592
" />
<path d="M5542 10986
L5504 10967
L5485 10948
L5467 10911
L5467 10798
L5485 10761
L5504 10742
L5542 10723
L5598 10723
L5635 10742
L5654 10761
L5673 10798
L5673 10911
L5654 10948
L5635 10967
L5598 10986
L5542 10986
" />
<path d="M5842 10986
L5842 10592
" />
<path d="M6010 10986
L6010 10779
L5992 10742
L5954 10723
L5898 10723
L5860 10742
L5842 10761
" />
<path d="M6254 10986
L6217 10967
L6198 10929
L6198 10592
" />
<path d="M6385 10967
L6423 10986
L6498 10986
L6535 10967
L6554 10929
L6554 10911
L6535 10873
L6498 10854
L6442 10854
L6404 10836
L6385 10798
L6385 10779
L6404 10742
L6442 10723
L6498 10723
L6535 10742
" />
<path d="M6667 10723
L6817 10723
" />
<path d="M6723 10592
L6723 10929
L6742 10967
L6779 10986
L6817 10986
" />
<path d="M7098 10967
L7060 10986
L6985 10986
L6948 10967
L6929 10929
L6929 10779
L6948 10742
L6985 10723
L7060 10723
L7098 10742
L7116 10779
L7116 10817
L6929 10854
" />
<path d="M7454 10967
L7416 10986
L7341 10986
L7304 10967
L7285 10948
L7266 10911
L7266 10798
L7285 10761
L7304 10742
L7341 10723
L7416 10723
L7454 10742
" />
<path d="M7623 10986
L7623 10592
" />
<path d="M7660 10836
L7773 10986
" />
<path d="M7773 10723
L7623 10873
" />
<path d="M8091 10967
L8054 10986
L7979 10986
L7941 10967
L7923 10929
L7923 10779
L7941 10742
L7979 10723
L8054 10723
L8091 10742
L8110 10779
L8110 10817
L7923 10854
" />
<path d="M8279 10986
L8279 10723
" />
<path d="M8279 10798
L8298 10761
L8316 10742
L8354 10723
L8391 10723
" />
<path d="M8429 11023
L8729 11023
" />
<path d="M8823 10723
L8823 11117
" />
<path d="M8823 10742
L8860 10723
L8935 10723
L8973 10742
L8991 10761
L9010 10798
L9010 10911
L8991 10948
L8973 10967
L8935 10986
L8860 10986
L8823 10967
" />
<path d="M9235 10986
L9197 10967
L9179 10929
L9179 10592
" />
<path d="M9554 10723
L9554 10986
" />
<path d="M9385 10723
L9385 10929
L9404 10967
L9441 10986
L9497 10986
L9535 10967
L9554 10948
" />
<path d="M9722 10967
L9760 10986
L9835 10986
L9872 10967
L9891 10929
L9891 10911
L9872 10873
L9835 10854
L9779 10854
L9741 10836
L9722 10798
L9722 10779
L9741 10742
L9779 10723
L9835 10723
L9872 10742
" />
<path d="M9966 11023
L10266 11023
" />
<path d="M10360 10986
L10360 10723
" />
<path d="M10360 10592
L10341 10611
L10360 10629
L10379 10611
L10360 10592
L10360 10629
" />
<path d="M10547 10723
L10547 10986
" />
<path d="M10547 10761
L10566 10742
L10604 10723
L10660 10723
L10697 10742
L10716 10779
L10716 10986
" />
<path d="M10904 10723
L10904 10986
" />
<path d="M10904 10761
L10922 10742
L10960 10723
L11016 10723
L11053 10742
L11072 10779
L11072 10986
" />
<path d="M11410 10967
L11372 10986
L11297 10986
L11260 10967
L11241 10929
L11241 10779
L11260 10742
L11297 10723
L11372 10723
L11410 10742
L11428 10779
L11428 10817
L11241 10854
" />
<path d="M11597 10723
L11597 10986
" />
<path d="M11597 10761
L11616 10742
L11653 10723
L11710 10723
L11747 10742
L11766 10779
L11766 10986
" />
<text x="31357" y="18426.2"
textLength="751.687" font-size="524.934" lengthAdjust="spacingAndGlyphs"
text-anchor="middle" opacity="0">J5</text>
<path d="M31225 18013
L31225 18294
L31206 18351
L31169 18388
L31113 18407
L31075 18407
" />
<path d="M31600 18013
L31413 18013
L31394 18201
L31413 18182
L31450 18163
L31544 18163
L31581 18182
L31600 18201
L31619 18238
L31619 18332
L31600 18369
L31581 18388
L31544 18407
L31450 18407
L31413 18388
L31394 18369
" />
<text x="31357" y="21654.5"
textLength="3657.57" font-size="524.934" lengthAdjust="spacingAndGlyphs"
text-anchor="middle" opacity="0">Conn_01x02</text>
<path d="M29885 21598
L29866 21617
L29810 21635
L29772 21635
L29716 21617
L29679 21579
L29660 21542
L29641 21467
L29641 21410
L29660 21335
L29679 21298
L29716 21260
L29772 21242
L29810 21242
L29866 21260
L29885 21279
" />
<path d="M30110 21635
L30072 21617
L30053 21598
L30035 21560
L30035 21448
L30053 21410
L30072 21392
L30110 21373
L30166 21373
L30203 21392
L30222 21410
L30241 21448
L30241 21560
L30222 21598
L30203 21617
L30166 21635
L30110 21635
" />
<path d="M30410 21373
L30410 21635
" />
<path d="M30410 21410
L30428 21392
L30466 21373
L30522 21373
L30560 21392
L30578 21429
L30578 21635
" />
<path d="M30766 21373
L30766 21635
" />
<path d="M30766 21410
L30785 21392
L30822 21373
L30878 21373
L30916 21392
L30935 21429
L30935 21635
" />
<path d="M31028 21673
L31328 21673
" />
<path d="M31497 21242
L31535 21242
L31572 21260
L31591 21279
L31610 21317
L31628 21392
L31628 21485
L31610 21560
L31591 21598
L31572 21617
L31535 21635
L31497 21635
L31460 21617
L31441 21598
L31422 21560
L31403 21485
L31403 21392
L31422 21317
L31441 21279
L31460 21260
L31497 21242
" />
<path d="M32003 21635
L31778 21635
" />
<path d="M31891 21635
L31891 21242
L31853 21298
L31816 21335
L31778 21354
" />
<path d="M32134 21635
L32341 21373
" />
<path d="M32134 21373
L32341 21635
" />
<path d="M32566 21242
L32603 21242
L32641 21260
L32659 21279
L32678 21317
L32697 21392
L32697 21485
L32678 21560
L32659 21598
L32641 21617
L32603 21635
L32566 21635
L32528 21617
L32509 21598
L32491 21560
L32472 21485
L32472 21392
L32491 21317
L32509 21279
L32528 21260
L32566 21242
" />
<path d="M32847 21279
L32866 21260
L32903 21242
L32997 21242
L33034 21260
L33053 21279
L33072 21317
L33072 21354
L33053 21410
L32828 21635
L33072 21635
" />
<text x="31357" y="19174.2"
textLength="751.687" font-size="524.934" lengthAdjust="spacingAndGlyphs"
text-anchor="middle" opacity="0">J5</text>
<path d="M31225 18761
L31225 19042
L31206 19099
L31169 19136
L31113 19155
L31075 19155
" />
<path d="M31600 18761
L31413 18761
L31394 18949
L31413 18930
L31450 18911
L31544 18911
L31581 18930
L31600 18949
L31619 18986
L31619 19080
L31600 19117
L31581 19136
L31544 19155
L31450 19155
L31413 19136
L31394 19117
" />
<text x="18612.1" y="16336.4"
textLength="845.426" font-size="524.934" lengthAdjust="spacingAndGlyphs"
text-anchor="middle" opacity="0">C2</text>
<path d="M18546 16280
L18527 16298
L18471 16317
L18433 16317
L18377 16298
L18340 16261
L18321 16223
L18302 16148
L18302 16092
L18321 16017
L18340 15980
L18377 15942
L18433 15923
L18471 15923
L18527 15942
L18546 15961
" />
<path d="M18696 15961
L18715 15942
L18752 15923
L18846 15923
L18883 15942
L18902 15961
L18921 15998
L18921 16036
L18902 16092
L18677 16317
L18921 16317
" />
<text x="18808.9" y="11415.2"
textLength="864.173" font-size="524.934" lengthAdjust="spacingAndGlyphs"
text-anchor="middle" opacity="0">CP</text>
<path d="M18733 11358
L18715 11377
L18658 11396
L18621 11396
L18565 11377
L18527 11340
L18508 11302
L18490 11227
L18490 11171
L18508 11096
L18527 11058
L18565 11021
L18621 11002
L18658 11002
L18715 11021
L18733 11040
" />
<path d="M18902 11396
L18902 11002
L19052 11002
L19090 11021
L19108 11040
L19127 11077
L19127 11133
L19108 11171
L19090 11190
L19052 11208
L18902 11208
" />
</g>
<g style="fill:#C2C200; fill-opacity:0.0; 
stroke:#C2C200; stroke-width:66.9291; stroke-opacity:1; 
stroke-linecap:round; stroke-linejoin:round;">
<text x="19990" y="14820.7"
textLength="710.443" font-size="682.415" lengthAdjust="spacingAndGlyphs"
text-anchor="middle" opacity="0">+</text>
<path d="M19795 14601
L20185 14601
" />
<path d="M19990 14796
L19990 14406
" />
</g>
<g style="fill:#C2C200; fill-opacity:0.0; 
stroke:#C2C200; stroke-width:59.0551; stroke-opacity:1; 
stroke-linecap:round; stroke-linejoin:round;">
<text x="13862.1" y="16336.4"
textLength="855.662" font-size="524.934" lengthAdjust="spacingAndGlyphs"
text-anchor="middle" opacity="0">C1</text>
<path d="M13796 16280
L13777 16298
L13721 16317
L13683 16317
L13627 16298
L13590 16261
L13571 16223
L13552 16148
L13552 16092
L13571 16017
L13590 15980
L13627 15942
L13683 15923
L13721 15923
L13777 15942
L13796 15961
" />
<path d="M14171 16317
L13946 16317
" />
<path d="M14058 16317
L14058 15923
L14021 15980
L13983 16017
L13946 16036
" />
<text x="14058.9" y="11415.2"
textLength="864.173" font-size="524.934" lengthAdjust="spacingAndGlyphs"
text-anchor="middle" opacity="0">CP</text>
<path d="M13983 11358
L13965 11377
L13908 11396
L13871 11396
L13815 11377
L13777 11340
L13758 11302
L13740 11227
L13740 11171
L13758 11096
L13777 11058
L13815 11021
L13871 11002
L13908 11002
L13965 11021
L13983 11040
" />
<path d="M14152 11396
L14152 11002
L14302 11002
L14340 11021
L14358 11040
L14377 11077
L14377 11133
L14358 11171
L14340 11190
L14302 11208
L14152 11208
" />
</g>
<g style="fill:#C2C200; fill-opacity:0.0; 
stroke:#C2C200; stroke-width:66.9291; stroke-opacity:1; 
stroke-linecap:round; stroke-linejoin:round;">
<text x="15240" y="14820.7"
textLength="710.443" font-size="682.415" lengthAdjust="spacingAndGlyphs"
text-anchor="middle" opacity="0">+</text>
<path d="M15045 14601
L15435 14601
" />
<path d="M15240 14796
L15240 14406
" />
</g>
<g style="fill:#C2C200; fill-opacity:0.0; 
stroke:#C2C200; stroke-width:59.0551; stroke-opacity:1; 
stroke-linecap:round; stroke-linejoin:round;">
<g transform="rotate(-90 20941.6 16985.2)">
<text x="20941.6" y="17182.1"
textLength="799.419" font-size="524.934" lengthAdjust="spacingAndGlyphs"
text-anchor="middle" opacity="0">F2</text>
</g>
<path d="M20913 17116
L20913 17247
" />
<path d="M21119 17247
L20726 17247
L20726 17060
" />
<path d="M20763 16928
L20744 16910
L20726 16872
L20726 16779
L20744 16741
L20763 16722
L20800 16704
L20838 16704
L20894 16722
L21119 16947
L21119 16704
" />
<g transform="rotate(-90 20272.3 15331.7)">
<text x="20272.3" y="15528.5"
textLength="1426.6" font-size="524.934" lengthAdjust="spacingAndGlyphs"
text-anchor="middle" opacity="0">Fuse</text>
</g>
<path d="M20244 15781
L20244 15912
" />
<path d="M20450 15912
L20056 15912
L20056 15725
" />
<path d="M20187 15406
L20450 15406
" />
<path d="M20187 15575
L20394 15575
L20431 15556
L20450 15519
L20450 15462
L20431 15425
L20412 15406
" />
<path d="M20431 15237
L20450 15200
L20450 15125
L20431 15087
L20394 15069
L20375 15069
L20337 15087
L20319 15125
L20319 15181
L20300 15219
L20262 15237
L20244 15237
L20206 15219
L20187 15181
L20187 15125
L20206 15087
" />
<path d="M20431 14750
L20450 14788
L20450 14863
L20431 14900
L20394 14919
L20244 14919
L20206 14900
L20187 14863
L20187 14788
L20206 14750
L20244 14731
L20281 14731
L20319 14919
" />
<text x="20077.4" y="4902.56"
textLength="789.183" font-size="524.934" lengthAdjust="spacingAndGlyphs"
text-anchor="middle" opacity="0">F1</text>
<path d="M19946 4677
L19814 4677
" />
<path d="M19814 4883
L19814 4490
L20002 4490
" />
<path d="M20358 4883
L20133 4883
" />
<path d="M20246 4883
L20246 4490
L20208 4546
L20171 4583
L20133 4602
" />
<text x="18423.9" y="5571.85"
textLength="1426.6" font-size="524.934" lengthAdjust="spacingAndGlyphs"
text-anchor="middle" opacity="0">Fuse</text>
<path d="M17973 5346
L17842 5346
" />
<path d="M17842 5553
L17842 5159
L18030 5159
" />
<path d="M18348 5290
L18348 5553
" />
<path d="M18180 5290
L18180 5496
L18198 5534
L18236 5553
L18292 5553
L18330 5534
L18348 5515
" />
<path d="M18517 5534
L18555 5553
L18630 5553
L18667 5534
L18686 5496
L18686 5478
L18667 5440
L18630 5421
L18573 5421
L18536 5403
L18517 5365
L18517 5346
L18536 5309
L18573 5290
L18630 5290
L18667 5309
" />
<path d="M19005 5534
L18967 5553
L18892 5553
L18855 5534
L18836 5496
L18836 5346
L18855 5309
L18892 5290
L18967 5290
L19005 5309
L19023 5346
L19023 5384
L18836 5421
" />
<g transform="rotate(-90 13061.7 8040.35)">
<text x="13061.7" y="8237.2"
textLength="845.426" font-size="524.934" lengthAdjust="spacingAndGlyphs"
text-anchor="middle" opacity="0">D2</text>
</g>
<path d="M13239 8330
L12846 8330
L12846 8237
L12864 8180
L12902 8143
L12939 8124
L13014 8105
L13071 8105
L13146 8124
L13183 8143
L13221 8180
L13239 8237
L13239 8330
" />
<path d="M12883 7955
L12864 7937
L12846 7899
L12846 7806
L12864 7768
L12883 7749
L12921 7731
L12958 7731
L13014 7749
L13239 7974
L13239 7731
" />
<g transform="rotate(-90 16030.2 8040.35)">
<text x="16030.2" y="8237.2"
textLength="3263.87" font-size="524.934" lengthAdjust="spacingAndGlyphs"
text-anchor="middle" opacity="0">D_Schottky</text>
</g>
<path d="M16208 9540
L15814 9540
L15814 9446
L15833 9390
L15870 9352
L15908 9333
L15983 9315
L16039 9315
L16114 9333
L16152 9352
L16189 9390
L16208 9446
L16208 9540
" />
<path d="M16245 9240
L16245 8940
" />
<path d="M16189 8865
L16208 8809
L16208 8715
L16189 8677
L16170 8659
L16133 8640
L16095 8640
L16058 8659
L16039 8677
L16020 8715
L16002 8790
L15983 8827
L15964 8846
L15927 8865
L15889 8865
L15852 8846
L15833 8827
L15814 8790
L15814 8696
L15833 8640
" />
<path d="M16189 8302
L16208 8340
L16208 8415
L16189 8452
L16170 8471
L16133 8490
L16020 8490
L15983 8471
L15964 8452
L15945 8415
L15945 8340
L15964 8302
" />
<path d="M16208 8134
L15814 8134
" />
<path d="M16208 7965
L16002 7965
L15964 7984
L15945 8021
L15945 8077
L15964 8115
L15983 8134
" />
<path d="M16208 7721
L16189 7759
L16170 7777
L16133 7796
L16020 7796
L15983 7777
L15964 7759
L15945 7721
L15945 7665
L15964 7627
L15983 7609
L16020 7590
L16133 7590
L16170 7609
L16189 7627
L16208 7665
L16208 7721
" />
<path d="M15945 7477
L15945 7327
" />
<path d="M15814 7421
L16152 7421
L16189 7402
L16208 7365
L16208 7327
" />
<path d="M15945 7252
L15945 7102
" />
<path d="M15814 7196
L16152 7196
L16189 7177
L16208 7140
L16208 7102
" />
<path d="M16208 6971
L15814 6971
" />
<path d="M16058 6934
L16208 6821
" />
<path d="M15945 6821
L16095 6971
" />
<path d="M15945 6690
L16208 6596
" />
<path d="M15945 6503
L16208 6596
L16302 6634
L16320 6653
L16339 6690
" />
<g transform="rotate(-90 13640.4 10540.4)">
<text x="13640.4" y="10737.2"
textLength="470.472" font-size="524.934" lengthAdjust="spacingAndGlyphs"
text-anchor="middle" opacity="0">K</text>
</g>
<path d="M13818 10643
L13424 10643
" />
<path d="M13818 10418
L13593 10587
" />
<path d="M13424 10418
L13649 10643
" />
<g transform="rotate(-90 13640.4 10540.4)">
<text x="13640.4" y="10737.2"
textLength="470.472" font-size="524.934" lengthAdjust="spacingAndGlyphs"
text-anchor="middle" opacity="0">K</text>
</g>
<path d="M13818 10643
L13424 10643
" />
<path d="M13818 10418
L13593 10587
" />
<path d="M13424 10418
L13649 10643
" />
<g transform="rotate(-90 14545.9 7774.61)">
<text x="14545.9" y="7971.46"
textLength="845.426" font-size="524.934" lengthAdjust="spacingAndGlyphs"
text-anchor="middle" opacity="0">D2</text>
</g>
<path d="M14724 8065
L14330 8065
L14330 7971
L14349 7915
L14386 7877
L14424 7858
L14499 7840
L14555 7840
L14630 7858
L14667 7877
L14705 7915
L14724 7971
L14724 8065
" />
<path d="M14367 7690
L14349 7671
L14330 7633
L14330 7540
L14349 7502
L14367 7484
L14405 7465
L14442 7465
L14499 7484
L14724 7708
L14724 7465
" />
<text x="31197.5" y="22148.6"
textLength="864.173" font-size="524.934" lengthAdjust="spacingAndGlyphs"
text-anchor="middle" opacity="0">H4</text>
<path d="M30897 22129
L30897 21736
" />
<path d="M30897 21923
L31122 21923
" />
<path d="M31122 22129
L31122 21736
" />
<path d="M31478 21867
L31478 22129
" />
<path d="M31384 21717
L31291 21998
L31534 21998
" />
<text x="31197.5" y="25691.9"
textLength="4032.53" font-size="524.934" lengthAdjust="spacingAndGlyphs"
text-anchor="middle" opacity="0">MountingHole</text>
<path d="M29313 25673
L29313 25279
L29444 25560
L29575 25279
L29575 25673
" />
<path d="M29819 25673
L29782 25654
L29763 25635
L29744 25598
L29744 25485
L29763 25448
L29782 25429
L29819 25410
L29875 25410
L29913 25429
L29932 25448
L29950 25485
L29950 25598
L29932 25635
L29913 25654
L29875 25673
L29819 25673
" />
<path d="M30288 25410
L30288 25673
" />
<path d="M30119 25410
L30119 25616
L30138 25654
L30175 25673
L30232 25673
L30269 25654
L30288 25635
" />
<path d="M30475 25410
L30475 25673
" />
<path d="M30475 25448
L30494 25429
L30531 25410
L30588 25410
L30625 25429
L30644 25466
L30644 25673
" />
<path d="M30775 25410
L30925 25410
" />
<path d="M30831 25279
L30831 25616
L30850 25654
L30888 25673
L30925 25673
" />
<path d="M31056 25673
L31056 25410
" />
<path d="M31056 25279
L31038 25298
L31056 25316
L31075 25298
L31056 25279
L31056 25316
" />
<path d="M31244 25410
L31244 25673
" />
<path d="M31244 25448
L31263 25429
L31300 25410
L31356 25410
L31394 25429
L31413 25466
L31413 25673
" />
<path d="M31769 25410
L31769 25729
L31750 25766
L31731 25785
L31694 25804
L31638 25804
L31600 25785
" />
<path d="M31769 25654
L31731 25673
L31656 25673
L31619 25654
L31600 25635
L31581 25598
L31581 25485
L31600 25448
L31619 25429
L31656 25410
L31731 25410
L31769 25429
" />
<path d="M31956 25673
L31956 25279
" />
<path d="M31956 25466
L32181 25466
" />
<path d="M32181 25673
L32181 25279
" />
<path d="M32425 25673
L32387 25654
L32369 25635
L32350 25598
L32350 25485
L32369 25448
L32387 25429
L32425 25410
L32481 25410
L32519 25429
L32537 25448
L32556 25485
L32556 25598
L32537 25635
L32519 25654
L32481 25673
L32425 25673
" />
<path d="M32781 25673
L32744 25654
L32725 25616
L32725 25279
" />
<path d="M33081 25654
L33044 25673
L32969 25673
L32931 25654
L32912 25616
L32912 25466
L32931 25429
L32969 25410
L33044 25410
L33081 25429
L33100 25466
L33100 25504
L32912 25541
" />
<text x="31315.6" y="23920.3"
textLength="864.173" font-size="524.934" lengthAdjust="spacingAndGlyphs"
text-anchor="middle" opacity="0">H4</text>
<path d="M31015 23901
L31015 23507
" />
<path d="M31015 23695
L31240 23695
" />
<path d="M31240 23901
L31240 23507
" />
<path d="M31596 23639
L31596 23901
" />
<path d="M31503 23489
L31409 23770
L31653 23770
" />
<text x="31197.5" y="495.079"
textLength="864.173" font-size="524.934" lengthAdjust="spacingAndGlyphs"
text-anchor="middle" opacity="0">H3</text>
<path d="M30897 476
L30897 82
" />
<path d="M30897 270
L31122 270
" />
<path d="M31122 476
L31122 82
" />
<path d="M31272 82
L31516 82
L31384 232
L31441 232
L31478 251
L31497 270
L31516 307
L31516 401
L31497 438
L31478 457
L31441 476
L31328 476
L31291 457
L31272 438
" />
<text x="31197.5" y="4038.39"
textLength="4032.53" font-size="524.934" lengthAdjust="spacingAndGlyphs"
text-anchor="middle" opacity="0">MountingHole</text>
<path d="M29313 4019
L29313 3625
L29444 3907
L29575 3625
L29575 4019
" />
<path d="M29819 4019
L29782 4000
L29763 3982
L29744 3944
L29744 3832
L29763 3794
L29782 3775
L29819 3757
L29875 3757
L29913 3775
L29932 3794
L29950 3832
L29950 3944
L29932 3982
L29913 4000
L29875 4019
L29819 4019
" />
<path d="M30288 3757
L30288 4019
" />
<path d="M30119 3757
L30119 3963
L30138 4000
L30175 4019
L30232 4019
L30269 4000
L30288 3982
" />
<path d="M30475 3757
L30475 4019
" />
<path d="M30475 3794
L30494 3775
L30531 3757
L30588 3757
L30625 3775
L30644 3813
L30644 4019
" />
<path d="M30775 3757
L30925 3757
" />
<path d="M30831 3625
L30831 3963
L30850 4000
L30888 4019
L30925 4019
" />
<path d="M31056 4019
L31056 3757
" />
<path d="M31056 3625
L31038 3644
L31056 3663
L31075 3644
L31056 3625
L31056 3663
" />
<path d="M31244 3757
L31244 4019
" />
<path d="M31244 3794
L31263 3775
L31300 3757
L31356 3757
L31394 3775
L31413 3813
L31413 4019
" />
<path d="M31769 3757
L31769 4075
L31750 4113
L31731 4132
L31694 4150
L31638 4150
L31600 4132
" />
<path d="M31769 4000
L31731 4019
L31656 4019
L31619 4000
L31600 3982
L31581 3944
L31581 3832
L31600 3794
L31619 3775
L31656 3757
L31731 3757
L31769 3775
" />
<path d="M31956 4019
L31956 3625
" />
<path d="M31956 3813
L32181 3813
" />
<path d="M32181 4019
L32181 3625
" />
<path d="M32425 4019
L32387 4000
L32369 3982
L32350 3944
L32350 3832
L32369 3794
L32387 3775
L32425 3757
L32481 3757
L32519 3775
L32537 3794
L32556 3832
L32556 3944
L32537 3982
L32519 4000
L32481 4019
L32425 4019
" />
<path d="M32781 4019
L32744 4000
L32725 3963
L32725 3625
" />
<path d="M33081 4000
L33044 4019
L32969 4019
L32931 4000
L32912 3963
L32912 3813
L32931 3775
L32969 3757
L33044 3757
L33081 3775
L33100 3813
L33100 3850
L32912 3888
" />
<text x="31315.6" y="2266.73"
textLength="864.173" font-size="524.934" lengthAdjust="spacingAndGlyphs"
text-anchor="middle" opacity="0">H3</text>
<path d="M31015 2247
L31015 1854
" />
<path d="M31015 2041
L31240 2041
" />
<path d="M31240 2247
L31240 1854
" />
<path d="M31390 1854
L31634 1854
L31503 2004
L31559 2004
L31596 2023
L31615 2041
L31634 2079
L31634 2172
L31615 2210
L31596 2229
L31559 2247
L31446 2247
L31409 2229
L31390 2210
" />
<text x="7575.46" y="22148.6"
textLength="864.173" font-size="524.934" lengthAdjust="spacingAndGlyphs"
text-anchor="middle" opacity="0">H2</text>
<path d="M7275 22129
L7275 21736
" />
<path d="M7275 21923
L7500 21923
" />
<path d="M7500 22129
L7500 21736
" />
<path d="M7669 21773
L7687 21754
L7725 21736
L7819 21736
L7856 21754
L7875 21773
L7894 21811
L7894 21848
L7875 21904
L7650 22129
L7894 22129
" />
<text x="7575.46" y="25691.9"
textLength="4032.53" font-size="524.934" lengthAdjust="spacingAndGlyphs"
text-anchor="middle" opacity="0">MountingHole</text>
<path d="M5691 25673
L5691 25279
L5822 25560
L5953 25279
L5953 25673
" />
<path d="M6197 25673
L6160 25654
L6141 25635
L6122 25598
L6122 25485
L6141 25448
L6160 25429
L6197 25410
L6253 25410
L6291 25429
L6309 25448
L6328 25485
L6328 25598
L6309 25635
L6291 25654
L6253 25673
L6197 25673
" />
<path d="M6666 25410
L6666 25673
" />
<path d="M6497 25410
L6497 25616
L6516 25654
L6553 25673
L6609 25673
L6647 25654
L6666 25635
" />
<path d="M6853 25410
L6853 25673
" />
<path d="M6853 25448
L6872 25429
L6909 25410
L6966 25410
L7003 25429
L7022 25466
L7022 25673
" />
<path d="M7153 25410
L7303 25410
" />
<path d="M7209 25279
L7209 25616
L7228 25654
L7266 25673
L7303 25673
" />
<path d="M7434 25673
L7434 25410
" />
<path d="M7434 25279
L7416 25298
L7434 25316
L7453 25298
L7434 25279
L7434 25316
" />
<path d="M7622 25410
L7622 25673
" />
<path d="M7622 25448
L7641 25429
L7678 25410
L7734 25410
L7772 25429
L7791 25466
L7791 25673
" />
<path d="M8147 25410
L8147 25729
L8128 25766
L8109 25785
L8072 25804
L8016 25804
L7978 25785
" />
<path d="M8147 25654
L8109 25673
L8034 25673
L7997 25654
L7978 25635
L7959 25598
L7959 25485
L7978 25448
L7997 25429
L8034 25410
L8109 25410
L8147 25429
" />
<path d="M8334 25673
L8334 25279
" />
<path d="M8334 25466
L8559 25466
" />
<path d="M8559 25673
L8559 25279
" />
<path d="M8803 25673
L8765 25654
L8747 25635
L8728 25598
L8728 25485
L8747 25448
L8765 25429
L8803 25410
L8859 25410
L8897 25429
L8915 25448
L8934 25485
L8934 25598
L8915 25635
L8897 25654
L8859 25673
L8803 25673
" />
<path d="M9159 25673
L9122 25654
L9103 25616
L9103 25279
" />
<path d="M9459 25654
L9422 25673
L9347 25673
L9309 25654
L9290 25616
L9290 25466
L9309 25429
L9347 25410
L9422 25410
L9459 25429
L9478 25466
L9478 25504
L9290 25541
" />
<text x="7693.57" y="23920.3"
textLength="864.173" font-size="524.934" lengthAdjust="spacingAndGlyphs"
text-anchor="middle" opacity="0">H2</text>
<path d="M7393 23901
L7393 23507
" />
<path d="M7393 23695
L7618 23695
" />
<path d="M7618 23901
L7618 23507
" />
<path d="M7787 23545
L7806 23526
L7843 23507
L7937 23507
L7974 23526
L7993 23545
L8012 23582
L8012 23620
L7993 23676
L7768 23901
L8012 23901
" />
<text x="7575.46" y="495.079"
textLength="864.173" font-size="524.934" lengthAdjust="spacingAndGlyphs"
text-anchor="middle" opacity="0">H1</text>
<path d="M7275 476
L7275 82
" />
<path d="M7275 270
L7500 270
" />
<path d="M7500 476
L7500 82
" />
<path d="M7894 476
L7669 476
" />
<path d="M7781 476
L7781 82
L7744 138
L7706 176
L7669 195
" />
<text x="7575.46" y="4038.39"
textLength="4032.53" font-size="524.934" lengthAdjust="spacingAndGlyphs"
text-anchor="middle" opacity="0">MountingHole</text>
<path d="M5691 4019
L5691 3625
L5822 3907
L5953 3625
L5953 4019
" />
<path d="M6197 4019
L6160 4000
L6141 3982
L6122 3944
L6122 3832
L6141 3794
L6160 3775
L6197 3757
L6253 3757
L6291 3775
L6309 3794
L6328 3832
L6328 3944
L6309 3982
L6291 4000
L6253 4019
L6197 4019
" />
<path d="M6666 3757
L6666 4019
" />
<path d="M6497 3757
L6497 3963
L6516 4000
L6553 4019
L6609 4019
L6647 4000
L6666 3982
" />
<path d="M6853 3757
L6853 4019
" />
<path d="M6853 3794
L6872 3775
L6909 3757
L6966 3757
L7003 3775
L7022 3813
L7022 4019
" />
<path d="M7153 3757
L7303 3757
" />
<path d="M7209 3625
L7209 3963
L7228 4000
L7266 4019
L7303 4019
" />
<path d="M7434 4019
L7434 3757
" />
<path d="M7434 3625
L7416 3644
L7434 3663
L7453 3644
L7434 3625
L7434 3663
" />
<path d="M7622 3757
L7622 4019
" />
<path d="M7622 3794
L7641 3775
L7678 3757
L7734 3757
L7772 3775
L7791 3813
L7791 4019
" />
<path d="M8147 3757
L8147 4075
L8128 4113
L8109 4132
L8072 4150
L8016 4150
L7978 4132
" />
<path d="M8147 4000
L8109 4019
L8034 4019
L7997 4000
L7978 3982
L7959 3944
L7959 3832
L7978 3794
L7997 3775
L8034 3757
L8109 3757
L8147 3775
" />
<path d="M8334 4019
L8334 3625
" />
<path d="M8334 3813
L8559 3813
" />
<path d="M8559 4019
L8559 3625
" />
<path d="M8803 4019
L8765 4000
L8747 3982
L8728 3944
L8728 3832
L8747 3794
L8765 3775
L8803 3757
L8859 3757
L8897 3775
L8915 3794
L8934 3832
L8934 3944
L8915 3982
L8897 4000
L8859 4019
L8803 4019
" />
<path d="M9159 4019
L9122 4000
L9103 3963
L9103 3625
" />
<path d="M9459 4000
L9422 4019
L9347 4019
L9309 4000
L9290 3963
L9290 3813
L9309 3775
L9347 3757
L9422 3757
L9459 3775
L9478 3813
L9478 3850
L9290 3888
" />
<text x="7693.57" y="2266.73"
textLength="864.173" font-size="524.934" lengthAdjust="spacingAndGlyphs"
text-anchor="middle" opacity="0">H1</text>
<path d="M7393 2247
L7393 1854
" />
<path d="M7393 2041
L7618 2041
" />
<path d="M7618 2247
L7618 1854
" />
<path d="M8012 2247
L7787 2247
" />
<path d="M7899 2247
L7899 1854
L7862 1910
L7824 1948
L7787 1966
" />
<g transform="rotate(-90 21154.2 5851.38)">
<text x="21154.2" y="6048.23"
textLength="845.426" font-size="524.934" lengthAdjust="spacingAndGlyphs"
text-anchor="middle" opacity="0">D1</text>
</g>
<path d="M21332 6141
L20938 6141
L20938 6048
L20957 5991
L20994 5954
L21032 5935
L21107 5916
L21163 5916
L21238 5935
L21276 5954
L21313 5991
L21332 6048
L21332 6141
" />
<path d="M21332 5542
L21332 5767
" />
<path d="M21332 5654
L20938 5654
L20994 5692
L21032 5729
L21051 5767
" />
<g transform="rotate(-90 23059.7 5851.38)">
<text x="23059.7" y="6048.23"
textLength="4613.7" font-size="524.934" lengthAdjust="spacingAndGlyphs"
text-anchor="middle" opacity="0">BZX 55C15 VIS</text>
</g>
<path d="M23031 7894
L23050 7838
L23069 7819
L23106 7801
L23162 7801
L23200 7819
L23219 7838
L23237 7876
L23237 8026
L22844 8026
L22844 7894
L22862 7857
L22881 7838
L22919 7819
L22956 7819
L22994 7838
L23012 7857
L23031 7894
L23031 8026
" />
<path d="M22844 7669
L22844 7407
L23237 7669
L23237 7407
" />
<path d="M22844 7294
L23237 7032
" />
<path d="M22844 7032
L23237 7294
" />
<path d="M22844 6395
L22844 6582
L23031 6601
L23012 6582
L22994 6545
L22994 6451
L23012 6413
L23031 6395
L23069 6376
L23162 6376
L23200 6395
L23219 6413
L23237 6451
L23237 6545
L23219 6582
L23200 6601
" />
<path d="M22844 6020
L22844 6207
L23031 6226
L23012 6207
L22994 6170
L22994 6076
L23012 6038
L23031 6020
L23069 6001
L23162 6001
L23200 6020
L23219 6038
L23237 6076
L23237 6170
L23219 6207
L23200 6226
" />
<path d="M23200 5607
L23219 5626
L23237 5682
L23237 5720
L23219 5776
L23181 5813
L23144 5832
L23069 5851
L23012 5851
L22937 5832
L22900 5813
L22862 5776
L22844 5720
L22844 5682
L22862 5626
L22881 5607
" />
<path d="M23237 5232
L23237 5457
" />
<path d="M23237 5345
L22844 5345
L22900 5382
L22937 5420
L22956 5457
" />
<path d="M22844 4876
L22844 5063
L23031 5082
L23012 5063
L22994 5026
L22994 4932
L23012 4895
L23031 4876
L23069 4857
L23162 4857
L23200 4876
L23219 4895
L23237 4932
L23237 5026
L23219 5063
L23200 5082
" />
<path d="M22844 4445
L23237 4314
L22844 4182
" />
<path d="M23237 4051
L22844 4051
" />
<path d="M23219 3882
L23237 3826
L23237 3732
L23219 3695
L23200 3676
L23162 3657
L23125 3657
L23087 3676
L23069 3695
L23050 3732
L23031 3807
L23012 3845
L22994 3864
L22956 3882
L22919 3882
L22881 3864
L22862 3845
L22844 3807
L22844 3714
L22862 3657
" />
<g transform="rotate(-90 21319.6 7851.38)">
<text x="21319.6" y="8048.23"
textLength="470.472" font-size="524.934" lengthAdjust="spacingAndGlyphs"
text-anchor="middle" opacity="0">K</text>
</g>
<path d="M21497 7954
L21103 7954
" />
<path d="M21497 7729
L21272 7898
" />
<path d="M21103 7729
L21328 7954
" />
<g transform="rotate(-90 21319.6 7851.38)">
<text x="21319.6" y="8048.23"
textLength="470.472" font-size="524.934" lengthAdjust="spacingAndGlyphs"
text-anchor="middle" opacity="0">K</text>
</g>
<path d="M21497 7954
L21103 7954
" />
<path d="M21497 7729
L21272 7898
" />
<path d="M21103 7729
L21328 7954
" />
</g>
<g style="fill:#C2C200; fill-opacity:0.0; 
stroke:#C2C200; stroke-width:37.7953; stroke-opacity:1; 
stroke-linecap:round; stroke-linejoin:round;">
<g transform="rotate(-90 22107 5756.89)">
<text x="22107" y="5882.87"
textLength="568.71" font-size="335.958" lengthAdjust="spacingAndGlyphs"
text-anchor="middle" opacity="0">D1</text>
</g>
<path d="M22220 5942
L21968 5942
L21968 5882
L21980 5846
L22004 5822
L22028 5810
L22076 5798
L22112 5798
L22160 5810
L22184 5822
L22208 5846
L22220 5882
L22220 5942
" />
<path d="M22220 5558
L22220 5702
" />
<path d="M22220 5630
L21968 5630
L22004 5654
L22028 5678
L22040 5702
" />
</g>
<g style="fill:#C2C200; fill-opacity:0.0; 
stroke:#C2C200; stroke-width:59.0551; stroke-opacity:1; 
stroke-linecap:round; stroke-linejoin:round;">
<text x="31357" y="6426.18"
textLength="724.05" font-size="524.934" lengthAdjust="spacingAndGlyphs"
text-anchor="middle" opacity="0">J4</text>
<path d="M31225 6013
L31225 6294
L31206 6351
L31169 6388
L31113 6407
L31075 6407
" />
<path d="M31581 6144
L31581 6407
" />
<path d="M31488 5994
L31394 6276
L31638 6276
" />
<text x="31357" y="9654.53"
textLength="3657.57" font-size="524.934" lengthAdjust="spacingAndGlyphs"
text-anchor="middle" opacity="0">Conn_01x02</text>
<path d="M29885 9598
L29866 9617
L29810 9635
L29772 9635
L29716 9617
L29679 9579
L29660 9542
L29641 9467
L29641 9410
L29660 9335
L29679 9298
L29716 9260
L29772 9242
L29810 9242
L29866 9260
L29885 9279
" />
<path d="M30110 9635
L30072 9617
L30053 9598
L30035 9560
L30035 9448
L30053 9410
L30072 9392
L30110 9373
L30166 9373
L30203 9392
L30222 9410
L30241 9448
L30241 9560
L30222 9598
L30203 9617
L30166 9635
L30110 9635
" />
<path d="M30410 9373
L30410 9635
" />
<path d="M30410 9410
L30428 9392
L30466 9373
L30522 9373
L30560 9392
L30578 9429
L30578 9635
" />
<path d="M30766 9373
L30766 9635
" />
<path d="M30766 9410
L30785 9392
L30822 9373
L30878 9373
L30916 9392
L30935 9429
L30935 9635
" />
<path d="M31028 9673
L31328 9673
" />
<path d="M31497 9242
L31535 9242
L31572 9260
L31591 9279
L31610 9317
L31628 9392
L31628 9485
L31610 9560
L31591 9598
L31572 9617
L31535 9635
L31497 9635
L31460 9617
L31441 9598
L31422 9560
L31403 9485
L31403 9392
L31422 9317
L31441 9279
L31460 9260
L31497 9242
" />
<path d="M32003 9635
L31778 9635
" />
<path d="M31891 9635
L31891 9242
L31853 9298
L31816 9335
L31778 9354
" />
<path d="M32134 9635
L32341 9373
" />
<path d="M32134 9373
L32341 9635
" />
<path d="M32566 9242
L32603 9242
L32641 9260
L32659 9279
L32678 9317
L32697 9392
L32697 9485
L32678 9560
L32659 9598
L32641 9617
L32603 9635
L32566 9635
L32528 9617
L32509 9598
L32491 9560
L32472 9485
L32472 9392
L32491 9317
L32509 9279
L32528 9260
L32566 9242
" />
<path d="M32847 9279
L32866 9260
L32903 9242
L32997 9242
L33034 9260
L33053 9279
L33072 9317
L33072 9354
L33053 9410
L32828 9635
L33072 9635
" />
<text x="31357" y="7174.21"
textLength="751.687" font-size="524.934" lengthAdjust="spacingAndGlyphs"
text-anchor="middle" opacity="0">J4</text>
<path d="M31225 6761
L31225 7042
L31206 7099
L31169 7136
L31113 7155
L31075 7155
" />
<path d="M31581 6892
L31581 7155
" />
<path d="M31488 6743
L31394 7024
L31638 7024
" />
<text x="27357" y="2426.18"
textLength="751.687" font-size="524.934" lengthAdjust="spacingAndGlyphs"
text-anchor="middle" opacity="0">J3</text>
<path d="M27225 2013
L27225 2294
L27206 2351
L27169 2388
L27113 2407
L27075 2407
" />
<path d="M27375 2013
L27619 2013
L27488 2163
L27544 2163
L27581 2182
L27600 2201
L27619 2238
L27619 2332
L27600 2369
L27581 2388
L27544 2407
L27431 2407
L27394 2388
L27375 2369
" />
<text x="27357" y="5654.53"
textLength="3657.57" font-size="524.934" lengthAdjust="spacingAndGlyphs"
text-anchor="middle" opacity="0">Conn_01x02</text>
<path d="M25885 5598
L25866 5617
L25810 5635
L25772 5635
L25716 5617
L25679 5579
L25660 5542
L25641 5467
L25641 5410
L25660 5335
L25679 5298
L25716 5260
L25772 5242
L25810 5242
L25866 5260
L25885 5279
" />
<path d="M26110 5635
L26072 5617
L26053 5598
L26035 5560
L26035 5448
L26053 5410
L26072 5392
L26110 5373
L26166 5373
L26203 5392
L26222 5410
L26241 5448
L26241 5560
L26222 5598
L26203 5617
L26166 5635
L26110 5635
" />
<path d="M26410 5373
L26410 5635
" />
<path d="M26410 5410
L26428 5392
L26466 5373
L26522 5373
L26560 5392
L26578 5429
L26578 5635
" />
<path d="M26766 5373
L26766 5635
" />
<path d="M26766 5410
L26785 5392
L26822 5373
L26878 5373
L26916 5392
L26935 5429
L26935 5635
" />
<path d="M27028 5673
L27328 5673
" />
<path d="M27497 5242
L27535 5242
L27572 5260
L27591 5279
L27610 5317
L27628 5392
L27628 5485
L27610 5560
L27591 5598
L27572 5617
L27535 5635
L27497 5635
L27460 5617
L27441 5598
L27422 5560
L27403 5485
L27403 5392
L27422 5317
L27441 5279
L27460 5260
L27497 5242
" />
<path d="M28003 5635
L27778 5635
" />
<path d="M27891 5635
L27891 5242
L27853 5298
L27816 5335
L27778 5354
" />
<path d="M28134 5635
L28341 5373
" />
<path d="M28134 5373
L28341 5635
" />
<path d="M28566 5242
L28603 5242
L28641 5260
L28659 5279
L28678 5317
L28697 5392
L28697 5485
L28678 5560
L28659 5598
L28641 5617
L28603 5635
L28566 5635
L28528 5617
L28509 5598
L28491 5560
L28472 5485
L28472 5392
L28491 5317
L28509 5279
L28528 5260
L28566 5242
" />
<path d="M28847 5279
L28866 5260
L28903 5242
L28997 5242
L29034 5260
L29053 5279
L29072 5317
L29072 5354
L29053 5410
L28828 5635
L29072 5635
" />
<text x="27357" y="3174.21"
textLength="751.687" font-size="524.934" lengthAdjust="spacingAndGlyphs"
text-anchor="middle" opacity="0">J3</text>
<path d="M27225 2761
L27225 3042
L27206 3099
L27169 3136
L27113 3155
L27075 3155
" />
<path d="M27375 2761
L27619 2761
L27488 2911
L27544 2911
L27581 2930
L27600 2949
L27619 2986
L27619 3080
L27600 3117
L27581 3136
L27544 3155
L27431 3155
L27394 3136
L27375 3117
" />
<text x="27357" y="6426.18"
textLength="1126.64" font-size="524.934" lengthAdjust="spacingAndGlyphs"
text-anchor="middle" opacity="0">J12</text>
<path d="M27038 6013
L27038 6294
L27019 6351
L26982 6388
L26925 6407
L26888 6407
" />
<path d="M27431 6407
L27206 6407
" />
<path d="M27319 6407
L27319 6013
L27281 6069
L27244 6107
L27206 6126
" />
<path d="M27581 6051
L27600 6032
L27638 6013
L27731 6013
L27769 6032
L27788 6051
L27806 6088
L27806 6126
L27788 6182
L27563 6407
L27806 6407
" />
<text x="27357" y="9654.53"
textLength="3657.57" font-size="524.934" lengthAdjust="spacingAndGlyphs"
text-anchor="middle" opacity="0">Conn_01x02</text>
<path d="M25885 9598
L25866 9617
L25810 9635
L25772 9635
L25716 9617
L25679 9579
L25660 9542
L25641 9467
L25641 9410
L25660 9335
L25679 9298
L25716 9260
L25772 9242
L25810 9242
L25866 9260
L25885 9279
" />
<path d="M26110 9635
L26072 9617
L26053 9598
L26035 9560
L26035 9448
L26053 9410
L26072 9392
L26110 9373
L26166 9373
L26203 9392
L26222 9410
L26241 9448
L26241 9560
L26222 9598
L26203 9617
L26166 9635
L26110 9635
" />
<path d="M26410 9373
L26410 9635
" />
<path d="M26410 9410
L26428 9392
L26466 9373
L26522 9373
L26560 9392
L26578 9429
L26578 9635
" />
<path d="M26766 9373
L26766 9635
" />
<path d="M26766 9410
L26785 9392
L26822 9373
L26878 9373
L26916 9392
L26935 9429
L26935 9635
" />
<path d="M27028 9673
L27328 9673
" />
<path d="M27497 9242
L27535 9242
L27572 9260
L27591 9279
L27610 9317
L27628 9392
L27628 9485
L27610 9560
L27591 9598
L27572 9617
L27535 9635
L27497 9635
L27460 9617
L27441 9598
L27422 9560
L27403 9485
L27403 9392
L27422 9317
L27441 9279
L27460 9260
L27497 9242
" />
<path d="M28003 9635
L27778 9635
" />
<path d="M27891 9635
L27891 9242
L27853 9298
L27816 9335
L27778 9354
" />
<path d="M28134 9635
L28341 9373
" />
<path d="M28134 9373
L28341 9635
" />
<path d="M28566 9242
L28603 9242
L28641 9260
L28659 9279
L28678 9317
L28697 9392
L28697 9485
L28678 9560
L28659 9598
L28641 9617
L28603 9635
L28566 9635
L28528 9617
L28509 9598
L28491 9560
L28472 9485
L28472 9392
L28491 9317
L28509 9279
L28528 9260
L28566 9242
" />
<path d="M28847 9279
L28866 9260
L28903 9242
L28997 9242
L29034 9260
L29053 9279
L29072 9317
L29072 9354
L29053 9410
L28828 9635
L29072 9635
" />
<text x="27357" y="7174.21"
textLength="1126.64" font-size="524.934" lengthAdjust="spacingAndGlyphs"
text-anchor="middle" opacity="0">J12</text>
<path d="M27038 6761
L27038 7042
L27019 7099
L26982 7136
L26925 7155
L26888 7155
" />
<path d="M27431 7155
L27206 7155
" />
<path d="M27319 7155
L27319 6761
L27281 6818
L27244 6855
L27206 6874
" />
<path d="M27581 6799
L27600 6780
L27638 6761
L27731 6761
L27769 6780
L27788 6799
L27806 6836
L27806 6874
L27788 6930
L27563 7155
L27806 7155
" />
<text x="27357" y="18426.2"
textLength="1126.64" font-size="524.934" lengthAdjust="spacingAndGlyphs"
text-anchor="middle" opacity="0">J11</text>
<path d="M27038 18013
L27038 18294
L27019 18351
L26982 18388
L26925 18407
L26888 18407
" />
<path d="M27431 18407
L27206 18407
" />
<path d="M27319 18407
L27319 18013
L27281 18069
L27244 18107
L27206 18126
" />
<path d="M27806 18407
L27581 18407
" />
<path d="M27694 18407
L27694 18013
L27656 18069
L27619 18107
L27581 18126
" />
<text x="27357" y="21654.5"
textLength="3657.57" font-size="524.934" lengthAdjust="spacingAndGlyphs"
text-anchor="middle" opacity="0">Conn_01x02</text>
<path d="M25885 21598
L25866 21617
L25810 21635
L25772 21635
L25716 21617
L25679 21579
L25660 21542
L25641 21467
L25641 21410
L25660 21335
L25679 21298
L25716 21260
L25772 21242
L25810 21242
L25866 21260
L25885 21279
" />
<path d="M26110 21635
L26072 21617
L26053 21598
L26035 21560
L26035 21448
L26053 21410
L26072 21392
L26110 21373
L26166 21373
L26203 21392
L26222 21410
L26241 21448
L26241 21560
L26222 21598
L26203 21617
L26166 21635
L26110 21635
" />
<path d="M26410 21373
L26410 21635
" />
<path d="M26410 21410
L26428 21392
L26466 21373
L26522 21373
L26560 21392
L26578 21429
L26578 21635
" />
<path d="M26766 21373
L26766 21635
" />
<path d="M26766 21410
L26785 21392
L26822 21373
L26878 21373
L26916 21392
L26935 21429
L26935 21635
" />
<path d="M27028 21673
L27328 21673
" />
<path d="M27497 21242
L27535 21242
L27572 21260
L27591 21279
L27610 21317
L27628 21392
L27628 21485
L27610 21560
L27591 21598
L27572 21617
L27535 21635
L27497 21635
L27460 21617
L27441 21598
L27422 21560
L27403 21485
L27403 21392
L27422 21317
L27441 21279
L27460 21260
L27497 21242
" />
<path d="M28003 21635
L27778 21635
" />
<path d="M27891 21635
L27891 21242
L27853 21298
L27816 21335
L27778 21354
" />
<path d="M28134 21635
L28341 21373
" />
<path d="M28134 21373
L28341 21635
" />
<path d="M28566 21242
L28603 21242
L28641 21260
L28659 21279
L28678 21317
L28697 21392
L28697 21485
L28678 21560
L28659 21598
L28641 21617
L28603 21635
L28566 21635
L28528 21617
L28509 21598
L28491 21560
L28472 21485
L28472 21392
L28491 21317
L28509 21279
L28528 21260
L28566 21242
" />
<path d="M28847 21279
L28866 21260
L28903 21242
L28997 21242
L29034 21260
L29053 21279
L29072 21317
L29072 21354
L29053 21410
L28828 21635
L29072 21635
" />
<text x="27357" y="19174.2"
textLength="1126.64" font-size="524.934" lengthAdjust="spacingAndGlyphs"
text-anchor="middle" opacity="0">J11</text>
<path d="M27038 18761
L27038 19042
L27019 19099
L26982 19136
L26925 19155
L26888 19155
" />
<path d="M27431 19155
L27206 19155
" />
<path d="M27319 19155
L27319 18761
L27281 18818
L27244 18855
L27206 18874
" />
<path d="M27806 19155
L27581 19155
" />
<path d="M27694 19155
L27694 18761
L27656 18818
L27619 18855
L27581 18874
" />
<text x="27357" y="10426.2"
textLength="1126.64" font-size="524.934" lengthAdjust="spacingAndGlyphs"
text-anchor="middle" opacity="0">J10</text>
<path d="M27038 10013
L27038 10294
L27019 10351
L26982 10388
L26925 10407
L26888 10407
" />
<path d="M27431 10407
L27206 10407
" />
<path d="M27319 10407
L27319 10013
L27281 10069
L27244 10107
L27206 10126
" />
<path d="M27675 10013
L27713 10013
L27750 10032
L27769 10051
L27788 10088
L27806 10163
L27806 10257
L27788 10332
L27769 10369
L27750 10388
L27713 10407
L27675 10407
L27638 10388
L27619 10369
L27600 10332
L27581 10257
L27581 10163
L27600 10088
L27619 10051
L27638 10032
L27675 10013
" />
<text x="27357" y="13654.5"
textLength="3657.57" font-size="524.934" lengthAdjust="spacingAndGlyphs"
text-anchor="middle" opacity="0">Conn_01x02</text>
<path d="M25885 13598
L25866 13617
L25810 13635
L25772 13635
L25716 13617
L25679 13579
L25660 13542
L25641 13467
L25641 13410
L25660 13335
L25679 13298
L25716 13260
L25772 13242
L25810 13242
L25866 13260
L25885 13279
" />
<path d="M26110 13635
L26072 13617
L26053 13598
L26035 13560
L26035 13448
L26053 13410
L26072 13392
L26110 13373
L26166 13373
L26203 13392
L26222 13410
L26241 13448
L26241 13560
L26222 13598
L26203 13617
L26166 13635
L26110 13635
" />
<path d="M26410 13373
L26410 13635
" />
<path d="M26410 13410
L26428 13392
L26466 13373
L26522 13373
L26560 13392
L26578 13429
L26578 13635
" />
<path d="M26766 13373
L26766 13635
" />
<path d="M26766 13410
L26785 13392
L26822 13373
L26878 13373
L26916 13392
L26935 13429
L26935 13635
" />
<path d="M27028 13673
L27328 13673
" />
<path d="M27497 13242
L27535 13242
L27572 13260
L27591 13279
L27610 13317
L27628 13392
L27628 13485
L27610 13560
L27591 13598
L27572 13617
L27535 13635
L27497 13635
L27460 13617
L27441 13598
L27422 13560
L27403 13485
L27403 13392
L27422 13317
L27441 13279
L27460 13260
L27497 13242
" />
<path d="M28003 13635
L27778 13635
" />
<path d="M27891 13635
L27891 13242
L27853 13298
L27816 13335
L27778 13354
" />
<path d="M28134 13635
L28341 13373
" />
<path d="M28134 13373
L28341 13635
" />
<path d="M28566 13242
L28603 13242
L28641 13260
L28659 13279
L28678 13317
L28697 13392
L28697 13485
L28678 13560
L28659 13598
L28641 13617
L28603 13635
L28566 13635
L28528 13617
L28509 13598
L28491 13560
L28472 13485
L28472 13392
L28491 13317
L28509 13279
L28528 13260
L28566 13242
" />
<path d="M28847 13279
L28866 13260
L28903 13242
L28997 13242
L29034 13260
L29053 13279
L29072 13317
L29072 13354
L29053 13410
L28828 13635
L29072 13635
" />
<text x="27357" y="11174.2"
textLength="1126.64" font-size="524.934" lengthAdjust="spacingAndGlyphs"
text-anchor="middle" opacity="0">J10</text>
<path d="M27038 10761
L27038 11042
L27019 11099
L26982 11136
L26925 11155
L26888 11155
" />
<path d="M27431 11155
L27206 11155
" />
<path d="M27319 11155
L27319 10761
L27281 10818
L27244 10855
L27206 10874
" />
<path d="M27675 10761
L27713 10761
L27750 10780
L27769 10799
L27788 10836
L27806 10911
L27806 11005
L27788 11080
L27769 11117
L27750 11136
L27713 11155
L27675 11155
L27638 11136
L27619 11117
L27600 11080
L27581 11005
L27581 10911
L27600 10836
L27619 10799
L27638 10780
L27675 10761
" />
<text x="31357" y="14426.2"
textLength="751.687" font-size="524.934" lengthAdjust="spacingAndGlyphs"
text-anchor="middle" opacity="0">J9</text>
<path d="M31225 14013
L31225 14294
L31206 14351
L31169 14388
L31113 14407
L31075 14407
" />
<path d="M31431 14407
L31506 14407
L31544 14388
L31563 14369
L31600 14313
L31619 14238
L31619 14088
L31600 14051
L31581 14032
L31544 14013
L31469 14013
L31431 14032
L31413 14051
L31394 14088
L31394 14182
L31413 14219
L31431 14238
L31469 14257
L31544 14257
L31581 14238
L31600 14219
L31619 14182
" />
<text x="31357" y="17654.5"
textLength="3657.57" font-size="524.934" lengthAdjust="spacingAndGlyphs"
text-anchor="middle" opacity="0">Conn_01x02</text>
<path d="M29885 17598
L29866 17617
L29810 17635
L29772 17635
L29716 17617
L29679 17579
L29660 17542
L29641 17467
L29641 17410
L29660 17335
L29679 17298
L29716 17260
L29772 17242
L29810 17242
L29866 17260
L29885 17279
" />
<path d="M30110 17635
L30072 17617
L30053 17598
L30035 17560
L30035 17448
L30053 17410
L30072 17392
L30110 17373
L30166 17373
L30203 17392
L30222 17410
L30241 17448
L30241 17560
L30222 17598
L30203 17617
L30166 17635
L30110 17635
" />
<path d="M30410 17373
L30410 17635
" />
<path d="M30410 17410
L30428 17392
L30466 17373
L30522 17373
L30560 17392
L30578 17429
L30578 17635
" />
<path d="M30766 17373
L30766 17635
" />
<path d="M30766 17410
L30785 17392
L30822 17373
L30878 17373
L30916 17392
L30935 17429
L30935 17635
" />
<path d="M31028 17673
L31328 17673
" />
<path d="M31497 17242
L31535 17242
L31572 17260
L31591 17279
L31610 17317
L31628 17392
L31628 17485
L31610 17560
L31591 17598
L31572 17617
L31535 17635
L31497 17635
L31460 17617
L31441 17598
L31422 17560
L31403 17485
L31403 17392
L31422 17317
L31441 17279
L31460 17260
L31497 17242
" />
<path d="M32003 17635
L31778 17635
" />
<path d="M31891 17635
L31891 17242
L31853 17298
L31816 17335
L31778 17354
" />
<path d="M32134 17635
L32341 17373
" />
<path d="M32134 17373
L32341 17635
" />
<path d="M32566 17242
L32603 17242
L32641 17260
L32659 17279
L32678 17317
L32697 17392
L32697 17485
L32678 17560
L32659 17598
L32641 17617
L32603 17635
L32566 17635
L32528 17617
L32509 17598
L32491 17560
L32472 17485
L32472 17392
L32491 17317
L32509 17279
L32528 17260
L32566 17242
" />
<path d="M32847 17279
L32866 17260
L32903 17242
L32997 17242
L33034 17260
L33053 17279
L33072 17317
L33072 17354
L33053 17410
L32828 17635
L33072 17635
" />
<text x="31357" y="15174.2"
textLength="751.687" font-size="524.934" lengthAdjust="spacingAndGlyphs"
text-anchor="middle" opacity="0">J9</text>
<path d="M31225 14761
L31225 15042
L31206 15099
L31169 15136
L31113 15155
L31075 15155
" />
<path d="M31431 15155
L31506 15155
L31544 15136
L31563 15117
L31600 15061
L31619 14986
L31619 14836
L31600 14799
L31581 14780
L31544 14761
L31469 14761
L31431 14780
L31413 14799
L31394 14836
L31394 14930
L31413 14967
L31431 14986
L31469 15005
L31544 15005
L31581 14986
L31600 14967
L31619 14930
" />
<text x="31357" y="10426.2"
textLength="751.687" font-size="524.934" lengthAdjust="spacingAndGlyphs"
text-anchor="middle" opacity="0">J8</text>
<path d="M31225 10013
L31225 10294
L31206 10351
L31169 10388
L31113 10407
L31075 10407
" />
<path d="M31469 10182
L31431 10163
L31413 10144
L31394 10107
L31394 10088
L31413 10051
L31431 10032
L31469 10013
L31544 10013
L31581 10032
L31600 10051
L31619 10088
L31619 10107
L31600 10144
L31581 10163
L31544 10182
L31469 10182
L31431 10201
L31413 10219
L31394 10257
L31394 10332
L31413 10369
L31431 10388
L31469 10407
L31544 10407
L31581 10388
L31600 10369
L31619 10332
L31619 10257
L31600 10219
L31581 10201
L31544 10182
" />
<text x="31357" y="13654.5"
textLength="3657.57" font-size="524.934" lengthAdjust="spacingAndGlyphs"
text-anchor="middle" opacity="0">Conn_01x02</text>
<path d="M29885 13598
L29866 13617
L29810 13635
L29772 13635
L29716 13617
L29679 13579
L29660 13542
L29641 13467
L29641 13410
L29660 13335
L29679 13298
L29716 13260
L29772 13242
L29810 13242
L29866 13260
L29885 13279
" />
<path d="M30110 13635
L30072 13617
L30053 13598
L30035 13560
L30035 13448
L30053 13410
L30072 13392
L30110 13373
L30166 13373
L30203 13392
L30222 13410
L30241 13448
L30241 13560
L30222 13598
L30203 13617
L30166 13635
L30110 13635
" />
<path d="M30410 13373
L30410 13635
" />
<path d="M30410 13410
L30428 13392
L30466 13373
L30522 13373
L30560 13392
L30578 13429
L30578 13635
" />
<path d="M30766 13373
L30766 13635
" />
<path d="M30766 13410
L30785 13392
L30822 13373
L30878 13373
L30916 13392
L30935 13429
L30935 13635
" />
<path d="M31028 13673
L31328 13673
" />
<path d="M31497 13242
L31535 13242
L31572 13260
L31591 13279
L31610 13317
L31628 13392
L31628 13485
L31610 13560
L31591 13598
L31572 13617
L31535 13635
L31497 13635
L31460 13617
L31441 13598
L31422 13560
L31403 13485
L31403 13392
L31422 13317
L31441 13279
L31460 13260
L31497 13242
" />
<path d="M32003 13635
L31778 13635
" />
<path d="M31891 13635
L31891 13242
L31853 13298
L31816 13335
L31778 13354
" />
<path d="M32134 13635
L32341 13373
" />
<path d="M32134 13373
L32341 13635
" />
<path d="M32566 13242
L32603 13242
L32641 13260
L32659 13279
L32678 13317
L32697 13392
L32697 13485
L32678 13560
L32659 13598
L32641 13617
L32603 13635
L32566 13635
L32528 13617
L32509 13598
L32491 13560
L32472 13485
L32472 13392
L32491 13317
L32509 13279
L32528 13260
L32566 13242
" />
<path d="M32847 13279
L32866 13260
L32903 13242
L32997 13242
L33034 13260
L33053 13279
L33072 13317
L33072 13354
L33053 13410
L32828 13635
L33072 13635
" />
<text x="31357" y="11174.2"
textLength="751.687" font-size="524.934" lengthAdjust="spacingAndGlyphs"
text-anchor="middle" opacity="0">J8</text>
<path d="M31225 10761
L31225 11042
L31206 11099
L31169 11136
L31113 11155
L31075 11155
" />
<path d="M31469 10930
L31431 10911
L31413 10892
L31394 10855
L31394 10836
L31413 10799
L31431 10780
L31469 10761
L31544 10761
L31581 10780
L31600 10799
L31619 10836
L31619 10855
L31600 10892
L31581 10911
L31544 10930
L31469 10930
L31431 10949
L31413 10967
L31394 11005
L31394 11080
L31413 11117
L31431 11136
L31469 11155
L31544 11155
L31581 11136
L31600 11117
L31619 11080
L31619 11005
L31600 10967
L31581 10949
L31544 10930
" />
<text x="27357" y="14426.2"
textLength="751.687" font-size="524.934" lengthAdjust="spacingAndGlyphs"
text-anchor="middle" opacity="0">J7</text>
<path d="M27225 14013
L27225 14294
L27206 14351
L27169 14388
L27113 14407
L27075 14407
" />
<path d="M27375 14013
L27638 14013
L27469 14407
" />
<text x="27357" y="17654.5"
textLength="3657.57" font-size="524.934" lengthAdjust="spacingAndGlyphs"
text-anchor="middle" opacity="0">Conn_01x02</text>
<path d="M25885 17598
L25866 17617
L25810 17635
L25772 17635
L25716 17617
L25679 17579
L25660 17542
L25641 17467
L25641 17410
L25660 17335
L25679 17298
L25716 17260
L25772 17242
L25810 17242
L25866 17260
L25885 17279
" />
<path d="M26110 17635
L26072 17617
L26053 17598
L26035 17560
L26035 17448
L26053 17410
L26072 17392
L26110 17373
L26166 17373
L26203 17392
L26222 17410
L26241 17448
L26241 17560
L26222 17598
L26203 17617
L26166 17635
L26110 17635
" />
<path d="M26410 17373
L26410 17635
" />
<path d="M26410 17410
L26428 17392
L26466 17373
L26522 17373
L26560 17392
L26578 17429
L26578 17635
" />
<path d="M26766 17373
L26766 17635
" />
<path d="M26766 17410
L26785 17392
L26822 17373
L26878 17373
L26916 17392
L26935 17429
L26935 17635
" />
<path d="M27028 17673
L27328 17673
" />
<path d="M27497 17242
L27535 17242
L27572 17260
L27591 17279
L27610 17317
L27628 17392
L27628 17485
L27610 17560
L27591 17598
L27572 17617
L27535 17635
L27497 17635
L27460 17617
L27441 17598
L27422 17560
L27403 17485
L27403 17392
L27422 17317
L27441 17279
L27460 17260
L27497 17242
" />
<path d="M28003 17635
L27778 17635
" />
<path d="M27891 17635
L27891 17242
L27853 17298
L27816 17335
L27778 17354
" />
<path d="M28134 17635
L28341 17373
" />
<path d="M28134 17373
L28341 17635
" />
<path d="M28566 17242
L28603 17242
L28641 17260
L28659 17279
L28678 17317
L28697 17392
L28697 17485
L28678 17560
L28659 17598
L28641 17617
L28603 17635
L28566 17635
L28528 17617
L28509 17598
L28491 17560
L28472 17485
L28472 17392
L28491 17317
L28509 17279
L28528 17260
L28566 17242
" />
<path d="M28847 17279
L28866 17260
L28903 17242
L28997 17242
L29034 17260
L29053 17279
L29072 17317
L29072 17354
L29053 17410
L28828 17635
L29072 17635
" />
<text x="27357" y="15174.2"
textLength="751.687" font-size="524.934" lengthAdjust="spacingAndGlyphs"
text-anchor="middle" opacity="0">J7</text>
<path d="M27225 14761
L27225 15042
L27206 15099
L27169 15136
L27113 15155
L27075 15155
" />
<path d="M27375 14761
L27638 14761
L27469 15155
" />
<text x="16857" y="22867.1"
textLength="864.173" font-size="524.934" lengthAdjust="spacingAndGlyphs"
text-anchor="middle" opacity="0">U1</text>
<path d="M16556 22454
L16556 22773
L16575 22810
L16594 22829
L16631 22848
L16706 22848
L16744 22829
L16763 22810
L16781 22773
L16781 22454
" />
<path d="M17175 22848
L16950 22848
" />
<path d="M17063 22848
L17063 22454
L17025 22510
L16988 22548
L16950 22567
" />
<text x="16857" y="25532.5"
textLength="1895.29" font-size="524.934" lengthAdjust="spacingAndGlyphs"
text-anchor="middle" opacity="0">L7805</text>
<path d="M16228 25513
L16041 25513
L16041 25120
" />
<path d="M16322 25120
L16585 25120
L16416 25513
" />
<path d="M16791 25288
L16753 25270
L16735 25251
L16716 25213
L16716 25195
L16735 25157
L16753 25138
L16791 25120
L16866 25120
L16903 25138
L16922 25157
L16941 25195
L16941 25213
L16922 25251
L16903 25270
L16866 25288
L16791 25288
L16753 25307
L16735 25326
L16716 25363
L16716 25438
L16735 25476
L16753 25494
L16791 25513
L16866 25513
L16903 25494
L16922 25476
L16941 25438
L16941 25363
L16922 25326
L16903 25307
L16866 25288
" />
<path d="M17185 25120
L17222 25120
L17260 25138
L17278 25157
L17297 25195
L17316 25270
L17316 25363
L17297 25438
L17278 25476
L17260 25494
L17222 25513
L17185 25513
L17147 25494
L17128 25476
L17110 25438
L17091 25363
L17091 25270
L17110 25195
L17128 25157
L17147 25138
L17185 25120
" />
<path d="M17672 25120
L17485 25120
L17466 25307
L17485 25288
L17522 25270
L17616 25270
L17653 25288
L17672 25307
L17691 25345
L17691 25438
L17672 25476
L17653 25494
L17616 25513
L17522 25513
L17485 25494
L17466 25476
" />
<text x="16857" y="22867.1"
textLength="864.173" font-size="524.934" lengthAdjust="spacingAndGlyphs"
text-anchor="middle" opacity="0">U1</text>
<path d="M16556 22454
L16556 22773
L16575 22810
L16594 22829
L16631 22848
L16706 22848
L16744 22829
L16763 22810
L16781 22773
L16781 22454
" />
<path d="M17175 22848
L16950 22848
" />
<path d="M17063 22848
L17063 22454
L17025 22510
L16988 22548
L16950 22567
" />
<g transform="rotate(-90 25040 5851.38)">
<text x="25040" y="6048.23"
textLength="845.426" font-size="524.934" lengthAdjust="spacingAndGlyphs"
text-anchor="middle" opacity="0">R1</text>
</g>
<path d="M25218 5916
L25030 6048
" />
<path d="M25218 6141
L24824 6141
L24824 5991
L24843 5954
L24861 5935
L24899 5916
L24955 5916
L24993 5935
L25011 5954
L25030 5991
L25030 6141
" />
<path d="M25218 5542
L25218 5767
" />
<path d="M25218 5654
L24824 5654
L24880 5692
L24918 5729
L24936 5767
" />
<g transform="rotate(-90 23173.9 5851.38)">
<text x="23173.9" y="6048.23"
textLength="1520.34" font-size="524.934" lengthAdjust="spacingAndGlyphs"
text-anchor="middle" opacity="0">300k</text>
</g>
<path d="M22958 6516
L22958 6273
L23108 6404
L23108 6348
L23127 6310
L23145 6291
L23183 6273
L23276 6273
L23314 6291
L23333 6310
L23351 6348
L23351 6460
L23333 6498
L23314 6516
" />
<path d="M22958 6029
L22958 5991
L22977 5954
L22995 5935
L23033 5916
L23108 5898
L23202 5898
L23276 5916
L23314 5935
L23333 5954
L23351 5991
L23351 6029
L23333 6066
L23314 6085
L23276 6104
L23202 6123
L23108 6123
L23033 6104
L22995 6085
L22977 6066
L22958 6029
" />
<path d="M22958 5654
L22958 5617
L22977 5579
L22995 5560
L23033 5542
L23108 5523
L23202 5523
L23276 5542
L23314 5560
L23333 5579
L23351 5617
L23351 5654
L23333 5692
L23314 5710
L23276 5729
L23202 5748
L23108 5748
L23033 5729
L22995 5710
L22977 5692
L22958 5654
" />
<path d="M23351 5354
L22958 5354
" />
<path d="M23202 5317
L23351 5204
" />
<path d="M23089 5204
L23239 5354
" />
<g transform="rotate(-90 24107 5851.38)">
<text x="24107" y="6048.23"
textLength="845.426" font-size="524.934" lengthAdjust="spacingAndGlyphs"
text-anchor="middle" opacity="0">R1</text>
</g>
<path d="M24285 5916
L24097 6048
" />
<path d="M24285 6141
L23891 6141
L23891 5991
L23910 5954
L23928 5935
L23966 5916
L24022 5916
L24060 5935
L24078 5954
L24097 5991
L24097 6141
" />
<path d="M24285 5542
L24285 5767
" />
<path d="M24285 5654
L23891 5654
L23947 5692
L23985 5729
L24003 5767
" />
<text x="18295.9" y="7418.31"
textLength="864.173" font-size="524.934" lengthAdjust="spacingAndGlyphs"
text-anchor="middle" opacity="0">Q1</text>
<path d="M18258 7437
L18220 7418
L18183 7380
L18127 7324
L18089 7305
L18052 7305
" />
<path d="M18070 7399
L18033 7380
L17995 7343
L17977 7268
L17977 7137
L17995 7062
L18033 7024
L18070 7005
L18145 7005
L18183 7024
L18220 7062
L18239 7137
L18239 7268
L18220 7343
L18183 7380
L18145 7399
L18070 7399
" />
<path d="M18614 7399
L18389 7399
" />
<path d="M18502 7399
L18502 7005
L18464 7062
L18427 7099
L18389 7118
" />
<text x="18295.9" y="4752.95"
textLength="2495.22" font-size="524.934" lengthAdjust="spacingAndGlyphs"
text-anchor="middle" opacity="0">IRF9530</text>
<path d="M17180 4734
L17180 4340
" />
<path d="M17592 4734
L17461 4546
" />
<path d="M17367 4734
L17367 4340
L17517 4340
L17555 4359
L17574 4377
L17592 4415
L17592 4471
L17574 4509
L17555 4527
L17517 4546
L17367 4546
" />
<path d="M17892 4527
L17761 4527
" />
<path d="M17761 4734
L17761 4340
L17949 4340
" />
<path d="M18117 4734
L18192 4734
L18230 4715
L18249 4696
L18286 4640
L18305 4565
L18305 4415
L18286 4377
L18267 4359
L18230 4340
L18155 4340
L18117 4359
L18099 4377
L18080 4415
L18080 4509
L18099 4546
L18117 4565
L18155 4584
L18230 4584
L18267 4565
L18286 4546
L18305 4509
" />
<path d="M18661 4340
L18474 4340
L18455 4527
L18474 4509
L18511 4490
L18605 4490
L18642 4509
L18661 4527
L18680 4565
L18680 4659
L18661 4696
L18642 4715
L18605 4734
L18511 4734
L18474 4715
L18455 4696
" />
<path d="M18811 4340
L19055 4340
L18923 4490
L18980 4490
L19017 4509
L19036 4527
L19055 4565
L19055 4659
L19036 4696
L19017 4715
L18980 4734
L18867 4734
L18830 4715
L18811 4696
" />
<path d="M19298 4340
L19336 4340
L19373 4359
L19392 4377
L19411 4415
L19430 4490
L19430 4584
L19411 4659
L19392 4696
L19373 4715
L19336 4734
L19298 4734
L19261 4715
L19242 4696
L19223 4659
L19205 4584
L19205 4490
L19223 4415
L19242 4377
L19261 4359
L19298 4340
" />
<text x="18295.9" y="7418.31"
textLength="864.173" font-size="524.934" lengthAdjust="spacingAndGlyphs"
text-anchor="middle" opacity="0">Q1</text>
<path d="M18258 7437
L18220 7418
L18183 7380
L18127 7324
L18089 7305
L18052 7305
" />
<path d="M18070 7399
L18033 7380
L17995 7343
L17977 7268
L17977 7137
L17995 7062
L18033 7024
L18070 7005
L18145 7005
L18183 7024
L18220 7062
L18239 7137
L18239 7268
L18220 7343
L18183 7380
L18145 7399
L18070 7399
" />
<path d="M18614 7399
L18389 7399
" />
<path d="M18502 7399
L18502 7005
L18464 7062
L18427 7099
L18389 7118
" />
<g transform="rotate(-90 10321.5 13601.4)">
<text x="10321.5" y="13798.2"
textLength="751.687" font-size="524.934" lengthAdjust="spacingAndGlyphs"
text-anchor="middle" opacity="0">J2</text>
</g>
<path d="M10105 13732
L10387 13732
L10443 13751
L10480 13788
L10499 13845
L10499 13882
" />
<path d="M10143 13563
L10124 13545
L10105 13507
L10105 13413
L10124 13376
L10143 13357
L10180 13338
L10218 13338
L10274 13357
L10499 13582
L10499 13338
" />
<g transform="rotate(-90 5628.61 13601.4)">
<text x="5628.61" y="13798.2"
textLength="6713.44" font-size="524.934" lengthAdjust="spacingAndGlyphs"
text-anchor="middle" opacity="0">Screw_Terminal_01x02</text>
</g>
<path d="M5787 16844
L5806 16788
L5806 16694
L5787 16657
L5769 16638
L5731 16619
L5694 16619
L5656 16638
L5637 16657
L5619 16694
L5600 16769
L5581 16807
L5562 16825
L5525 16844
L5488 16844
L5450 16825
L5431 16807
L5413 16769
L5413 16675
L5431 16619
" />
<path d="M5787 16282
L5806 16319
L5806 16394
L5787 16432
L5769 16451
L5731 16469
L5619 16469
L5581 16451
L5562 16432
L5544 16394
L5544 16319
L5562 16282
" />
<path d="M5806 16113
L5544 16113
" />
<path d="M5619 16113
L5581 16094
L5562 16076
L5544 16038
L5544 16001
" />
<path d="M5787 15719
L5806 15757
L5806 15832
L5787 15869
L5750 15888
L5600 15888
L5562 15869
L5544 15832
L5544 15757
L5562 15719
L5600 15701
L5637 15701
L5675 15888
" />
<path d="M5544 15569
L5806 15494
L5619 15419
L5806 15344
L5544 15269
" />
<path d="M5844 15213
L5844 14913
" />
<path d="M5413 14876
L5413 14651
" />
<path d="M5806 14763
L5413 14763
" />
<path d="M5787 14370
L5806 14407
L5806 14482
L5787 14520
L5750 14538
L5600 14538
L5562 14520
L5544 14482
L5544 14407
L5562 14370
L5600 14351
L5637 14351
L5675 14538
" />
<path d="M5806 14182
L5544 14182
" />
<path d="M5619 14182
L5581 14163
L5562 14145
L5544 14107
L5544 14070
" />
<path d="M5806 13938
L5544 13938
" />
<path d="M5581 13938
L5562 13920
L5544 13882
L5544 13826
L5562 13788
L5600 13770
L5806 13770
" />
<path d="M5600 13770
L5562 13751
L5544 13713
L5544 13657
L5562 13620
L5600 13601
L5806 13601
" />
<path d="M5806 13413
L5544 13413
" />
<path d="M5413 13413
L5431 13432
L5450 13413
L5431 13395
L5413 13413
L5450 13413
" />
<path d="M5544 13226
L5806 13226
" />
<path d="M5581 13226
L5562 13207
L5544 13170
L5544 13113
L5562 13076
L5600 13057
L5806 13057
" />
<path d="M5806 12701
L5600 12701
L5562 12720
L5544 12757
L5544 12832
L5562 12870
" />
<path d="M5787 12701
L5806 12738
L5806 12832
L5787 12870
L5750 12888
L5712 12888
L5675 12870
L5656 12832
L5656 12738
L5637 12701
" />
<path d="M5806 12457
L5787 12495
L5750 12514
L5413 12514
" />
<path d="M5844 12401
L5844 12101
" />
<path d="M5413 11932
L5413 11895
L5431 11857
L5450 11839
L5488 11820
L5562 11801
L5656 11801
L5731 11820
L5769 11839
L5787 11857
L5806 11895
L5806 11932
L5787 11970
L5769 11989
L5731 12007
L5656 12026
L5562 12026
L5488 12007
L5450 11989
L5431 11970
L5413 11932
" />
<path d="M5806 11426
L5806 11651
" />
<path d="M5806 11539
L5413 11539
L5469 11576
L5506 11614
L5525 11651
" />
<path d="M5806 11295
L5544 11089
" />
<path d="M5544 11295
L5806 11089
" />
<path d="M5413 10864
L5413 10826
L5431 10789
L5450 10770
L5488 10751
L5562 10732
L5656 10732
L5731 10751
L5769 10770
L5787 10789
L5806 10826
L5806 10864
L5787 10901
L5769 10920
L5731 10939
L5656 10957
L5562 10957
L5488 10939
L5450 10920
L5431 10901
L5413 10864
" />
<path d="M5450 10583
L5431 10564
L5413 10526
L5413 10433
L5431 10395
L5450 10376
L5488 10358
L5525 10358
L5581 10376
L5806 10601
L5806 10358
" />
<g transform="rotate(-90 6597.11 13601.4)">
<text x="6597.11" y="13798.2"
textLength="751.687" font-size="524.934" lengthAdjust="spacingAndGlyphs"
text-anchor="middle" opacity="0">J2</text>
</g>
<path d="M6381 13732
L6662 13732
L6718 13751
L6756 13788
L6775 13845
L6775 13882
" />
<path d="M6419 13563
L6400 13545
L6381 13507
L6381 13413
L6400 13376
L6419 13357
L6456 13338
L6494 13338
L6550 13357
L6775 13582
L6775 13338
" />
<text x="4819.55" y="8993.11"
textLength="751.687" font-size="524.934" lengthAdjust="spacingAndGlyphs"
text-anchor="middle" opacity="0">J1</text>
<path d="M4688 8580
L4688 8861
L4669 8918
L4632 8955
L4575 8974
L4538 8974
" />
<path d="M5082 8974
L4857 8974
" />
<path d="M4969 8974
L4969 8580
L4932 8636
L4894 8674
L4857 8693
" />
<text x="2851.05" y="7812.01"
textLength="5719.82" font-size="524.934" lengthAdjust="spacingAndGlyphs"
text-anchor="middle" opacity="0">CLIFF_FCR681465P</text>
<path d="M348 7755
L329 7774
L273 7793
L235 7793
L179 7774
L142 7737
L123 7699
L104 7624
L104 7568
L123 7493
L142 7455
L179 7418
L235 7399
L273 7399
L329 7418
L348 7437
" />
<path d="M704 7793
L516 7793
L516 7399
" />
<path d="M835 7793
L835 7399
" />
<path d="M1154 7587
L1023 7587
" />
<path d="M1023 7793
L1023 7399
L1210 7399
" />
<path d="M1491 7587
L1360 7587
" />
<path d="M1360 7793
L1360 7399
L1548 7399
" />
<path d="M1604 7830
L1904 7830
" />
<path d="M2129 7587
L1998 7587
" />
<path d="M1998 7793
L1998 7399
L2185 7399
" />
<path d="M2560 7755
L2541 7774
L2485 7793
L2447 7793
L2391 7774
L2354 7737
L2335 7699
L2316 7624
L2316 7568
L2335 7493
L2354 7455
L2391 7418
L2447 7399
L2485 7399
L2541 7418
L2560 7437
" />
<path d="M2954 7793
L2822 7605
" />
<path d="M2729 7793
L2729 7399
L2879 7399
L2916 7418
L2935 7437
L2954 7474
L2954 7530
L2935 7568
L2916 7587
L2879 7605
L2729 7605
" />
<path d="M3291 7399
L3216 7399
L3179 7418
L3160 7437
L3122 7493
L3104 7568
L3104 7718
L3122 7755
L3141 7774
L3179 7793
L3254 7793
L3291 7774
L3310 7755
L3329 7718
L3329 7624
L3310 7587
L3291 7568
L3254 7549
L3179 7549
L3141 7568
L3122 7587
L3104 7624
" />
<path d="M3554 7568
L3516 7549
L3497 7530
L3479 7493
L3479 7474
L3497 7437
L3516 7418
L3554 7399
L3629 7399
L3666 7418
L3685 7437
L3704 7474
L3704 7493
L3685 7530
L3666 7549
L3629 7568
L3554 7568
L3516 7587
L3497 7605
L3479 7643
L3479 7718
L3497 7755
L3516 7774
L3554 7793
L3629 7793
L3666 7774
L3685 7755
L3704 7718
L3704 7643
L3685 7605
L3666 7587
L3629 7568
" />
<path d="M4079 7793
L3854 7793
" />
<path d="M3966 7793
L3966 7399
L3929 7455
L3891 7493
L3854 7512
" />
<path d="M4416 7530
L4416 7793
" />
<path d="M4322 7380
L4229 7662
L4472 7662
" />
<path d="M4791 7399
L4716 7399
L4678 7418
L4660 7437
L4622 7493
L4603 7568
L4603 7718
L4622 7755
L4641 7774
L4678 7793
L4753 7793
L4791 7774
L4810 7755
L4828 7718
L4828 7624
L4810 7587
L4791 7568
L4753 7549
L4678 7549
L4641 7568
L4622 7587
L4603 7624
" />
<path d="M5185 7399
L4997 7399
L4978 7587
L4997 7568
L5035 7549
L5128 7549
L5166 7568
L5185 7587
L5203 7624
L5203 7718
L5185 7755
L5166 7774
L5128 7793
L5035 7793
L4997 7774
L4978 7755
" />
<path d="M5372 7793
L5372 7399
L5522 7399
L5560 7418
L5578 7437
L5597 7474
L5597 7530
L5578 7568
L5560 7587
L5522 7605
L5372 7605
" />
<text x="18827.4" y="18418.3"
textLength="845.426" font-size="524.934" lengthAdjust="spacingAndGlyphs"
text-anchor="middle" opacity="0">C4</text>
<path d="M18761 18362
L18743 18380
L18686 18399
L18649 18399
L18593 18380
L18555 18343
L18536 18305
L18518 18230
L18518 18174
L18536 18099
L18555 18062
L18593 18024
L18649 18005
L18686 18005
L18743 18024
L18761 18043
" />
<path d="M19099 18137
L19099 18399
" />
<path d="M19005 17987
L18911 18268
L19155 18268
" />
<text x="18827.4" y="16056.1"
textLength="1557.84" font-size="524.934" lengthAdjust="spacingAndGlyphs"
text-anchor="middle" opacity="0">100n</text>
<path d="M18386 16037
L18161 16037
" />
<path d="M18274 16037
L18274 15643
L18236 15699
L18199 15737
L18161 15756
" />
<path d="M18630 15643
L18668 15643
L18705 15662
L18724 15681
L18743 15718
L18761 15793
L18761 15887
L18743 15962
L18724 15999
L18705 16018
L18668 16037
L18630 16037
L18593 16018
L18574 15999
L18555 15962
L18536 15887
L18536 15793
L18555 15718
L18574 15681
L18593 15662
L18630 15643
" />
<path d="M19005 15643
L19043 15643
L19080 15662
L19099 15681
L19118 15718
L19136 15793
L19136 15887
L19118 15962
L19099 15999
L19080 16018
L19043 16037
L19005 16037
L18968 16018
L18949 15999
L18930 15962
L18911 15887
L18911 15793
L18930 15718
L18949 15681
L18968 15662
L19005 15643
" />
<path d="M19305 15774
L19305 16037
" />
<path d="M19305 15812
L19324 15793
L19361 15774
L19417 15774
L19455 15793
L19474 15831
L19474 16037
" />
<text x="19319.6" y="17237.2"
textLength="845.426" font-size="524.934" lengthAdjust="spacingAndGlyphs"
text-anchor="middle" opacity="0">C4</text>
<path d="M19253 17180
L19235 17199
L19178 17218
L19141 17218
L19085 17199
L19047 17162
L19028 17124
L19010 17049
L19010 16993
L19028 16918
L19047 16880
L19085 16843
L19141 16824
L19178 16824
L19235 16843
L19253 16862
" />
<path d="M19591 16955
L19591 17218
" />
<path d="M19497 16806
L19403 17087
L19647 17087
" />
<text x="14061.7" y="18418.3"
textLength="845.426" font-size="524.934" lengthAdjust="spacingAndGlyphs"
text-anchor="middle" opacity="0">C3</text>
<path d="M13996 18362
L13977 18380
L13921 18399
L13883 18399
L13827 18380
L13789 18343
L13771 18305
L13752 18230
L13752 18174
L13771 18099
L13789 18062
L13827 18024
L13883 18005
L13921 18005
L13977 18024
L13996 18043
" />
<path d="M14127 18005
L14371 18005
L14239 18155
L14296 18155
L14333 18174
L14352 18193
L14371 18230
L14371 18324
L14352 18362
L14333 18380
L14296 18399
L14183 18399
L14146 18380
L14127 18362
" />
<text x="14061.7" y="16056.1"
textLength="1557.84" font-size="524.934" lengthAdjust="spacingAndGlyphs"
text-anchor="middle" opacity="0">330n</text>
<path d="M13377 15643
L13621 15643
L13489 15793
L13546 15793
L13583 15812
L13602 15831
L13621 15868
L13621 15962
L13602 15999
L13583 16018
L13546 16037
L13433 16037
L13396 16018
L13377 15999
" />
<path d="M13752 15643
L13996 15643
L13864 15793
L13921 15793
L13958 15812
L13977 15831
L13996 15868
L13996 15962
L13977 15999
L13958 16018
L13921 16037
L13808 16037
L13771 16018
L13752 15999
" />
<path d="M14239 15643
L14277 15643
L14314 15662
L14333 15681
L14352 15718
L14371 15793
L14371 15887
L14352 15962
L14333 15999
L14314 16018
L14277 16037
L14239 16037
L14202 16018
L14183 15999
L14164 15962
L14146 15887
L14146 15793
L14164 15718
L14183 15681
L14202 15662
L14239 15643
" />
<path d="M14539 15774
L14539 16037
" />
<path d="M14539 15812
L14558 15793
L14595 15774
L14652 15774
L14689 15793
L14708 15831
L14708 16037
" />
<text x="14553.8" y="17237.2"
textLength="845.426" font-size="524.934" lengthAdjust="spacingAndGlyphs"
text-anchor="middle" opacity="0">C3</text>
<path d="M14488 17180
L14469 17199
L14413 17218
L14375 17218
L14319 17199
L14281 17162
L14263 17124
L14244 17049
L14244 16993
L14263 16918
L14281 16880
L14319 16843
L14375 16824
L14413 16824
L14469 16843
L14488 16862
" />
<path d="M14619 16824
L14863 16824
L14731 16974
L14788 16974
L14825 16993
L14844 17012
L14863 17049
L14863 17143
L14844 17180
L14825 17199
L14788 17218
L14675 17218
L14638 17199
L14619 17180
" />
<g >
</g>
</g>
<g style="fill:#000000; fill-opacity:0.0; 
stroke:#000000; stroke-width:59.0551; stroke-opacity:1; 
stroke-linecap:round; stroke-linejoin:round;">
</g>
<g style="fill:#C2C200; fill-opacity:0.0; 
stroke:#C2C200; stroke-width:59.0551; stroke-opacity:1; 
stroke-linecap:round; stroke-linejoin:round;">
</g>
<g style="fill:#C2C200; fill-opacity:0.0; 
stroke:#C2C200; stroke-width:19.685; stroke-opacity:1; 
stroke-linecap:round; stroke-linejoin:round;">
<path d="M33166 101
L5606 101
" />
<path d="M33166 25691
L33166 101
" />
<path d="M5606 25691
L33166 25691
" />
<path d="M5606 101
L5606 25691
" />
<g >
</g>
<g >
</g>
<g >
</g>
<g >
</g>
<g >
</g>
<g >
</g>
<g >
</g>
<g >
</g>
<g >
</g>
<g >
</g>
<g >
</g>
<g >
</g>
<g >
</g>
<g >
</g>
<g >
</g>
<g >
</g>
<g >
</g>
<g >
</g>
<g >
</g>
<g >
</g>
<g >
</g>
<g >
</g>
<g >
</g>
<g >
</g>
<g >
</g>
<g >
</g>
<g >
</g>
<g >
</g>
</g> 
</svg>
