G04 #@! TF.GenerationSoftware,KiCad,Pcbnew,7.0.5*
G04 #@! TF.CreationDate,2023-06-10T14:41:30+02:00*
G04 #@! TF.ProjectId,EinTaktReset,45696e54-616b-4745-9265-7365742e6b69,rev?*
G04 #@! TF.SameCoordinates,Original*
G04 #@! TF.FileFunction,Soldermask,Top*
G04 #@! TF.FilePolarity,Negative*
%FSLAX46Y46*%
G04 Gerber Fmt 4.6, Leading zero omitted, Abs format (unit mm)*
G04 Created by KiCad (PCBNEW 7.0.5) date 2023-06-10 14:41:30*
%MOMM*%
%LPD*%
G01*
G04 APERTURE LIST*
G04 Aperture macros list*
%AMRoundRect*
0 Rectangle with rounded corners*
0 $1 Rounding radius*
0 $2 $3 $4 $5 $6 $7 $8 $9 X,Y pos of 4 corners*
0 Add a 4 corners polygon primitive as box body*
4,1,4,$2,$3,$4,$5,$6,$7,$8,$9,$2,$3,0*
0 Add four circle primitives for the rounded corners*
1,1,$1+$1,$2,$3*
1,1,$1+$1,$4,$5*
1,1,$1+$1,$6,$7*
1,1,$1+$1,$8,$9*
0 Add four rect primitives between the rounded corners*
20,1,$1+$1,$2,$3,$4,$5,0*
20,1,$1+$1,$4,$5,$6,$7,0*
20,1,$1+$1,$6,$7,$8,$9,0*
20,1,$1+$1,$8,$9,$2,$3,0*%
G04 Aperture macros list end*
%ADD10RoundRect,0.080000X0.800000X-1.200000X0.800000X1.200000X-0.800000X1.200000X-0.800000X-1.200000X0*%
%ADD11O,1.760000X2.560000*%
%ADD12RoundRect,0.080000X-0.800000X-0.800000X0.800000X-0.800000X0.800000X0.800000X-0.800000X0.800000X0*%
%ADD13O,1.760000X1.760000*%
%ADD14C,1.760000*%
%ADD15RoundRect,0.080000X0.900000X-0.900000X0.900000X0.900000X-0.900000X0.900000X-0.900000X-0.900000X0*%
%ADD16C,1.960000*%
%ADD17RoundRect,0.080000X-0.900000X0.900000X-0.900000X-0.900000X0.900000X-0.900000X0.900000X0.900000X0*%
%ADD18C,3.157200*%
%ADD19RoundRect,0.080000X-0.850000X-0.850000X0.850000X-0.850000X0.850000X0.850000X-0.850000X0.850000X0*%
%ADD20O,1.860000X1.860000*%
%ADD21RoundRect,0.080000X0.800000X-0.800000X0.800000X0.800000X-0.800000X0.800000X-0.800000X-0.800000X0*%
%ADD22RoundRect,0.329999X-0.620001X-0.845001X0.620001X-0.845001X0.620001X0.845001X-0.620001X0.845001X0*%
%ADD23O,1.900000X2.350000*%
%ADD24RoundRect,0.329999X-0.845001X0.620001X-0.845001X-0.620001X0.845001X-0.620001X0.845001X0.620001X0*%
%ADD25O,2.350000X1.900000*%
%ADD26C,2.160000*%
%ADD27C,1.260000*%
%ADD28C,3.660000*%
%ADD29RoundRect,0.080000X-0.800000X1.200000X-0.800000X-1.200000X0.800000X-1.200000X0.800000X1.200000X0*%
%ADD30RoundRect,0.080000X-0.900000X-0.900000X0.900000X-0.900000X0.900000X0.900000X-0.900000X0.900000X0*%
%ADD31O,1.960000X1.960000*%
%ADD32RoundRect,0.080000X0.850000X0.850000X-0.850000X0.850000X-0.850000X-0.850000X0.850000X-0.850000X0*%
%ADD33C,1.660000*%
%ADD34C,2.500000*%
G04 APERTURE END LIST*
D10*
X73660000Y-59055000D03*
D11*
X76200000Y-59055000D03*
X78740000Y-59055000D03*
X81280000Y-59055000D03*
X83820000Y-59055000D03*
X86360000Y-59055000D03*
X88900000Y-59055000D03*
X91440000Y-59055000D03*
X93980000Y-59055000D03*
X96520000Y-59055000D03*
X96520000Y-51435000D03*
X93980000Y-51435000D03*
X91440000Y-51435000D03*
X88900000Y-51435000D03*
X86360000Y-51435000D03*
X83820000Y-51435000D03*
X81280000Y-51435000D03*
X78740000Y-51435000D03*
X76200000Y-51435000D03*
X73660000Y-51435000D03*
D12*
X73660000Y-62865000D03*
D13*
X76200000Y-62865000D03*
X78740000Y-62865000D03*
X81280000Y-62865000D03*
X83820000Y-62865000D03*
X86360000Y-62865000D03*
X88900000Y-62865000D03*
X91440000Y-62865000D03*
X93980000Y-62865000D03*
D14*
X128778000Y-105918000D03*
D13*
X128778000Y-95758000D03*
D14*
X116840000Y-115062000D03*
D13*
X116840000Y-125222000D03*
D15*
X110998000Y-56388000D03*
D16*
X110998000Y-53848000D03*
D17*
X132715000Y-110490000D03*
D16*
X132715000Y-113030000D03*
D18*
X49530000Y-72771000D03*
X49530000Y-77470000D03*
X49530000Y-82169000D03*
X80010000Y-72771000D03*
X80010000Y-77470000D03*
X80010000Y-82169000D03*
X90170000Y-72771000D03*
X90170000Y-77470000D03*
X90170000Y-82169000D03*
X100330000Y-72771000D03*
X100330000Y-77470000D03*
X100330000Y-82169000D03*
X110490000Y-72771000D03*
X110490000Y-77470000D03*
X110490000Y-82169000D03*
X120650000Y-72771000D03*
X120650000Y-77470000D03*
X120650000Y-82169000D03*
D14*
X93100000Y-165360000D03*
X98100000Y-165360000D03*
X69850000Y-52705000D03*
X69850000Y-57705000D03*
X132080000Y-74930000D03*
D13*
X132080000Y-64770000D03*
D19*
X45085000Y-36195000D03*
D20*
X47625000Y-36195000D03*
X45085000Y-38735000D03*
X47625000Y-38735000D03*
X45085000Y-41275000D03*
X47625000Y-41275000D03*
X45085000Y-43815000D03*
X47625000Y-43815000D03*
X45085000Y-46355000D03*
X47625000Y-46355000D03*
X45085000Y-48895000D03*
X47625000Y-48895000D03*
X45085000Y-51435000D03*
X47625000Y-51435000D03*
X45085000Y-53975000D03*
X47625000Y-53975000D03*
X45085000Y-56515000D03*
X47625000Y-56515000D03*
X45085000Y-59055000D03*
X47625000Y-59055000D03*
D19*
X130810000Y-36195000D03*
D20*
X133350000Y-36195000D03*
X130810000Y-38735000D03*
X133350000Y-38735000D03*
X130810000Y-41275000D03*
X133350000Y-41275000D03*
X130810000Y-43815000D03*
X133350000Y-43815000D03*
X130810000Y-46355000D03*
X133350000Y-46355000D03*
X130810000Y-48895000D03*
X133350000Y-48895000D03*
X130810000Y-51435000D03*
X133350000Y-51435000D03*
X130810000Y-53975000D03*
X133350000Y-53975000D03*
X130810000Y-56515000D03*
X133350000Y-56515000D03*
X130810000Y-59055000D03*
X133350000Y-59055000D03*
D14*
X120396000Y-115062000D03*
D13*
X120396000Y-125222000D03*
D21*
X73660000Y-30480000D03*
D14*
X73660000Y-27980000D03*
D22*
X50165000Y-29210000D03*
D23*
X52705000Y-29210000D03*
D24*
X132080000Y-159385000D03*
D25*
X132080000Y-161925000D03*
D24*
X132080000Y-166370000D03*
D25*
X132080000Y-168910000D03*
D26*
X46990000Y-163830000D03*
X54610000Y-163830000D03*
X54610000Y-158750000D03*
X46990000Y-158750000D03*
D27*
X46990000Y-171450000D03*
X54610000Y-156210000D03*
D24*
X132080000Y-148590000D03*
D25*
X132080000Y-151130000D03*
X132080000Y-153670000D03*
D24*
X132080000Y-81915000D03*
D25*
X132080000Y-84455000D03*
X132080000Y-86995000D03*
D24*
X132080000Y-125095000D03*
D25*
X132080000Y-127635000D03*
X132080000Y-130175000D03*
D28*
X43100000Y-27860000D03*
X43100000Y-177860000D03*
X133100000Y-27860000D03*
X133100000Y-177860000D03*
D14*
X75438000Y-159980000D03*
X75438000Y-154980000D03*
D29*
X117094000Y-91948000D03*
D11*
X114554000Y-91948000D03*
X112014000Y-91948000D03*
X109474000Y-91948000D03*
X106934000Y-91948000D03*
X104394000Y-91948000D03*
X101854000Y-91948000D03*
X101854000Y-99568000D03*
X104394000Y-99568000D03*
X106934000Y-99568000D03*
X109474000Y-99568000D03*
X112014000Y-99568000D03*
X114554000Y-99568000D03*
X117094000Y-99568000D03*
D26*
X46990000Y-141605000D03*
X54610000Y-141605000D03*
X54610000Y-136525000D03*
X46990000Y-136525000D03*
D27*
X46990000Y-149225000D03*
X54610000Y-133985000D03*
D18*
X69850000Y-72771000D03*
X69850000Y-77470000D03*
X69850000Y-82169000D03*
D30*
X57150000Y-27940000D03*
D31*
X67310000Y-27940000D03*
D18*
X59690000Y-72771000D03*
X59690000Y-77470000D03*
X59690000Y-82169000D03*
X117856000Y-140335000D03*
X122555000Y-140335000D03*
X127254000Y-140335000D03*
X46355000Y-125984000D03*
X46355000Y-121285000D03*
X46355000Y-116586000D03*
D14*
X75438000Y-174498000D03*
D13*
X75438000Y-164338000D03*
D14*
X105600000Y-170360000D03*
X105600000Y-172860000D03*
D10*
X80280000Y-159940000D03*
D11*
X82820000Y-159940000D03*
X85360000Y-159940000D03*
X87900000Y-159940000D03*
X90440000Y-159940000D03*
X92980000Y-159940000D03*
X95520000Y-159940000D03*
X98060000Y-159940000D03*
X100600000Y-159940000D03*
X103140000Y-159940000D03*
X105680000Y-159940000D03*
X108220000Y-159940000D03*
X110760000Y-159940000D03*
X113300000Y-159940000D03*
X113300000Y-152320000D03*
X110760000Y-152320000D03*
X108220000Y-152320000D03*
X105680000Y-152320000D03*
X103140000Y-152320000D03*
X100600000Y-152320000D03*
X98060000Y-152320000D03*
X95520000Y-152320000D03*
X92980000Y-152320000D03*
X90440000Y-152320000D03*
X87900000Y-152320000D03*
X85360000Y-152320000D03*
X82820000Y-152320000D03*
X80280000Y-152320000D03*
D14*
X96520000Y-97075000D03*
X96520000Y-92075000D03*
D18*
X46482000Y-92075000D03*
X46482000Y-96774000D03*
X46482000Y-101473000D03*
D32*
X105669000Y-147813000D03*
D20*
X103129000Y-147813000D03*
X105669000Y-145273000D03*
X103129000Y-145273000D03*
X105669000Y-142733000D03*
X103129000Y-142733000D03*
D14*
X110600000Y-170360000D03*
X110600000Y-172860000D03*
D33*
X110480000Y-165360000D03*
X105600000Y-165360000D03*
D34*
X61160000Y-102028000D03*
X73660000Y-97028000D03*
X61160000Y-92028000D03*
D14*
X80300000Y-164338000D03*
X85300000Y-164338000D03*
M02*
