G04 #@! TF.GenerationSoftware,KiCad,Pcbnew,7.0.5*
G04 #@! TF.CreationDate,2023-06-10T14:41:30+02:00*
G04 #@! TF.ProjectId,EinTaktReset,45696e54-616b-4745-9265-7365742e6b69,rev?*
G04 #@! TF.SameCoordinates,Original*
G04 #@! TF.FileFunction,Copper,L2,Bot*
G04 #@! TF.FilePolarity,Positive*
%FSLAX46Y46*%
G04 Gerber Fmt 4.6, Leading zero omitted, Abs format (unit mm)*
G04 Created by KiCad (PCBNEW 7.0.5) date 2023-06-10 14:41:30*
%MOMM*%
%LPD*%
G01*
G04 APERTURE LIST*
G04 Aperture macros list*
%AMRoundRect*
0 Rectangle with rounded corners*
0 $1 Rounding radius*
0 $2 $3 $4 $5 $6 $7 $8 $9 X,Y pos of 4 corners*
0 Add a 4 corners polygon primitive as box body*
4,1,4,$2,$3,$4,$5,$6,$7,$8,$9,$2,$3,0*
0 Add four circle primitives for the rounded corners*
1,1,$1+$1,$2,$3*
1,1,$1+$1,$4,$5*
1,1,$1+$1,$6,$7*
1,1,$1+$1,$8,$9*
0 Add four rect primitives between the rounded corners*
20,1,$1+$1,$2,$3,$4,$5,0*
20,1,$1+$1,$4,$5,$6,$7,0*
20,1,$1+$1,$6,$7,$8,$9,0*
20,1,$1+$1,$8,$9,$2,$3,0*%
G04 Aperture macros list end*
G04 #@! TA.AperFunction,ComponentPad*
%ADD10R,1.600000X2.400000*%
G04 #@! TD*
G04 #@! TA.AperFunction,ComponentPad*
%ADD11O,1.600000X2.400000*%
G04 #@! TD*
G04 #@! TA.AperFunction,ComponentPad*
%ADD12R,1.600000X1.600000*%
G04 #@! TD*
G04 #@! TA.AperFunction,ComponentPad*
%ADD13O,1.600000X1.600000*%
G04 #@! TD*
G04 #@! TA.AperFunction,ComponentPad*
%ADD14C,1.600000*%
G04 #@! TD*
G04 #@! TA.AperFunction,ComponentPad*
%ADD15R,1.800000X1.800000*%
G04 #@! TD*
G04 #@! TA.AperFunction,ComponentPad*
%ADD16C,1.800000*%
G04 #@! TD*
G04 #@! TA.AperFunction,ComponentPad*
%ADD17C,2.997200*%
G04 #@! TD*
G04 #@! TA.AperFunction,ComponentPad*
%ADD18R,1.700000X1.700000*%
G04 #@! TD*
G04 #@! TA.AperFunction,ComponentPad*
%ADD19O,1.700000X1.700000*%
G04 #@! TD*
G04 #@! TA.AperFunction,ComponentPad*
%ADD20RoundRect,0.249999X-0.620001X-0.845001X0.620001X-0.845001X0.620001X0.845001X-0.620001X0.845001X0*%
G04 #@! TD*
G04 #@! TA.AperFunction,ComponentPad*
%ADD21O,1.740000X2.190000*%
G04 #@! TD*
G04 #@! TA.AperFunction,ComponentPad*
%ADD22RoundRect,0.249999X-0.845001X0.620001X-0.845001X-0.620001X0.845001X-0.620001X0.845001X0.620001X0*%
G04 #@! TD*
G04 #@! TA.AperFunction,ComponentPad*
%ADD23O,2.190000X1.740000*%
G04 #@! TD*
G04 #@! TA.AperFunction,ComponentPad*
%ADD24C,2.000000*%
G04 #@! TD*
G04 #@! TA.AperFunction,ComponentPad*
%ADD25C,1.100000*%
G04 #@! TD*
G04 #@! TA.AperFunction,ComponentPad*
%ADD26O,1.800000X1.800000*%
G04 #@! TD*
G04 #@! TA.AperFunction,ComponentPad*
%ADD27C,1.500000*%
G04 #@! TD*
G04 #@! TA.AperFunction,ComponentPad*
%ADD28C,2.340000*%
G04 #@! TD*
G04 #@! TA.AperFunction,ViaPad*
%ADD29C,1.000000*%
G04 #@! TD*
G04 #@! TA.AperFunction,ViaPad*
%ADD30C,0.800000*%
G04 #@! TD*
G04 #@! TA.AperFunction,Conductor*
%ADD31C,1.250000*%
G04 #@! TD*
G04 #@! TA.AperFunction,Conductor*
%ADD32C,1.000000*%
G04 #@! TD*
G04 #@! TA.AperFunction,Conductor*
%ADD33C,0.600000*%
G04 #@! TD*
G04 #@! TA.AperFunction,Conductor*
%ADD34C,0.400000*%
G04 #@! TD*
G04 APERTURE END LIST*
D10*
X73660000Y-59055000D03*
D11*
X76200000Y-59055000D03*
X78740000Y-59055000D03*
X81280000Y-59055000D03*
X83820000Y-59055000D03*
X86360000Y-59055000D03*
X88900000Y-59055000D03*
X91440000Y-59055000D03*
X93980000Y-59055000D03*
X96520000Y-59055000D03*
X96520000Y-51435000D03*
X93980000Y-51435000D03*
X91440000Y-51435000D03*
X88900000Y-51435000D03*
X86360000Y-51435000D03*
X83820000Y-51435000D03*
X81280000Y-51435000D03*
X78740000Y-51435000D03*
X76200000Y-51435000D03*
X73660000Y-51435000D03*
D12*
X73660000Y-62865000D03*
D13*
X76200000Y-62865000D03*
X78740000Y-62865000D03*
X81280000Y-62865000D03*
X83820000Y-62865000D03*
X86360000Y-62865000D03*
X88900000Y-62865000D03*
X91440000Y-62865000D03*
X93980000Y-62865000D03*
D14*
X128778000Y-105918000D03*
D13*
X128778000Y-95758000D03*
D14*
X116840000Y-115062000D03*
D13*
X116840000Y-125222000D03*
D15*
X110998000Y-56388000D03*
D16*
X110998000Y-53848000D03*
D15*
X132715000Y-110490000D03*
D16*
X132715000Y-113030000D03*
D17*
X49530000Y-72771000D03*
X49530000Y-77470000D03*
X49530000Y-82169000D03*
X80010000Y-72771000D03*
X80010000Y-77470000D03*
X80010000Y-82169000D03*
X90170000Y-72771000D03*
X90170000Y-77470000D03*
X90170000Y-82169000D03*
X100330000Y-72771000D03*
X100330000Y-77470000D03*
X100330000Y-82169000D03*
X110490000Y-72771000D03*
X110490000Y-77470000D03*
X110490000Y-82169000D03*
X120650000Y-72771000D03*
X120650000Y-77470000D03*
X120650000Y-82169000D03*
D14*
X93100000Y-165360000D03*
X98100000Y-165360000D03*
X69850000Y-52705000D03*
X69850000Y-57705000D03*
X132080000Y-74930000D03*
D13*
X132080000Y-64770000D03*
D18*
X45085000Y-36195000D03*
D19*
X47625000Y-36195000D03*
X45085000Y-38735000D03*
X47625000Y-38735000D03*
X45085000Y-41275000D03*
X47625000Y-41275000D03*
X45085000Y-43815000D03*
X47625000Y-43815000D03*
X45085000Y-46355000D03*
X47625000Y-46355000D03*
X45085000Y-48895000D03*
X47625000Y-48895000D03*
X45085000Y-51435000D03*
X47625000Y-51435000D03*
X45085000Y-53975000D03*
X47625000Y-53975000D03*
X45085000Y-56515000D03*
X47625000Y-56515000D03*
X45085000Y-59055000D03*
X47625000Y-59055000D03*
D18*
X130810000Y-36195000D03*
D19*
X133350000Y-36195000D03*
X130810000Y-38735000D03*
X133350000Y-38735000D03*
X130810000Y-41275000D03*
X133350000Y-41275000D03*
X130810000Y-43815000D03*
X133350000Y-43815000D03*
X130810000Y-46355000D03*
X133350000Y-46355000D03*
X130810000Y-48895000D03*
X133350000Y-48895000D03*
X130810000Y-51435000D03*
X133350000Y-51435000D03*
X130810000Y-53975000D03*
X133350000Y-53975000D03*
X130810000Y-56515000D03*
X133350000Y-56515000D03*
X130810000Y-59055000D03*
X133350000Y-59055000D03*
D14*
X120396000Y-115062000D03*
D13*
X120396000Y-125222000D03*
D12*
X73660000Y-30480000D03*
D14*
X73660000Y-27980000D03*
D20*
X50165000Y-29210000D03*
D21*
X52705000Y-29210000D03*
D22*
X132080000Y-159385000D03*
D23*
X132080000Y-161925000D03*
D22*
X132080000Y-166370000D03*
D23*
X132080000Y-168910000D03*
D24*
X46990000Y-163830000D03*
X54610000Y-163830000D03*
X54610000Y-158750000D03*
X46990000Y-158750000D03*
D25*
X46990000Y-171450000D03*
X54610000Y-156210000D03*
D22*
X132080000Y-148590000D03*
D23*
X132080000Y-151130000D03*
X132080000Y-153670000D03*
D22*
X132080000Y-81915000D03*
D23*
X132080000Y-84455000D03*
X132080000Y-86995000D03*
D22*
X132080000Y-125095000D03*
D23*
X132080000Y-127635000D03*
X132080000Y-130175000D03*
D14*
X75438000Y-159980000D03*
X75438000Y-154980000D03*
D10*
X117094000Y-91948000D03*
D11*
X114554000Y-91948000D03*
X112014000Y-91948000D03*
X109474000Y-91948000D03*
X106934000Y-91948000D03*
X104394000Y-91948000D03*
X101854000Y-91948000D03*
X101854000Y-99568000D03*
X104394000Y-99568000D03*
X106934000Y-99568000D03*
X109474000Y-99568000D03*
X112014000Y-99568000D03*
X114554000Y-99568000D03*
X117094000Y-99568000D03*
D24*
X46990000Y-141605000D03*
X54610000Y-141605000D03*
X54610000Y-136525000D03*
X46990000Y-136525000D03*
D25*
X46990000Y-149225000D03*
X54610000Y-133985000D03*
D17*
X69850000Y-72771000D03*
X69850000Y-77470000D03*
X69850000Y-82169000D03*
D15*
X57150000Y-27940000D03*
D26*
X67310000Y-27940000D03*
D17*
X59690000Y-72771000D03*
X59690000Y-77470000D03*
X59690000Y-82169000D03*
X117856000Y-140335000D03*
X122555000Y-140335000D03*
X127254000Y-140335000D03*
X46355000Y-125984000D03*
X46355000Y-121285000D03*
X46355000Y-116586000D03*
D14*
X75438000Y-174498000D03*
D13*
X75438000Y-164338000D03*
D14*
X105600000Y-170360000D03*
X105600000Y-172860000D03*
D10*
X80280000Y-159940000D03*
D11*
X82820000Y-159940000D03*
X85360000Y-159940000D03*
X87900000Y-159940000D03*
X90440000Y-159940000D03*
X92980000Y-159940000D03*
X95520000Y-159940000D03*
X98060000Y-159940000D03*
X100600000Y-159940000D03*
X103140000Y-159940000D03*
X105680000Y-159940000D03*
X108220000Y-159940000D03*
X110760000Y-159940000D03*
X113300000Y-159940000D03*
X113300000Y-152320000D03*
X110760000Y-152320000D03*
X108220000Y-152320000D03*
X105680000Y-152320000D03*
X103140000Y-152320000D03*
X100600000Y-152320000D03*
X98060000Y-152320000D03*
X95520000Y-152320000D03*
X92980000Y-152320000D03*
X90440000Y-152320000D03*
X87900000Y-152320000D03*
X85360000Y-152320000D03*
X82820000Y-152320000D03*
X80280000Y-152320000D03*
D14*
X96520000Y-97075000D03*
X96520000Y-92075000D03*
D17*
X46482000Y-92075000D03*
X46482000Y-96774000D03*
X46482000Y-101473000D03*
D18*
X105669000Y-147813000D03*
D19*
X103129000Y-147813000D03*
X105669000Y-145273000D03*
X103129000Y-145273000D03*
X105669000Y-142733000D03*
X103129000Y-142733000D03*
D14*
X110600000Y-170360000D03*
X110600000Y-172860000D03*
D27*
X110480000Y-165360000D03*
X105600000Y-165360000D03*
D28*
X61160000Y-102028000D03*
X73660000Y-97028000D03*
X61160000Y-92028000D03*
D14*
X80300000Y-164338000D03*
X85300000Y-164338000D03*
D29*
X93980000Y-46355000D03*
X91440000Y-44450000D03*
X88900000Y-42545000D03*
X86360000Y-40640000D03*
X83820000Y-38735000D03*
X81280000Y-36830000D03*
X78740000Y-34925000D03*
D30*
X88900000Y-132842000D03*
X94234000Y-132842000D03*
X117602000Y-135382000D03*
D31*
X114300000Y-95848000D02*
X121519000Y-95848000D01*
X114554000Y-91948000D02*
X114554000Y-95594000D01*
X103169000Y-95848000D02*
X114300000Y-95848000D01*
X114554000Y-95594000D02*
X114300000Y-95848000D01*
X96473000Y-92028000D02*
X96520000Y-92075000D01*
X61160000Y-92028000D02*
X96473000Y-92028000D01*
X101727000Y-92075000D02*
X101854000Y-91948000D01*
X96520000Y-92075000D02*
X101727000Y-92075000D01*
X95408000Y-168052000D02*
X98100000Y-165360000D01*
X40640000Y-38735000D02*
X40640000Y-62230000D01*
X40640000Y-167640000D02*
X41275000Y-168275000D01*
D32*
X96520000Y-56515000D02*
X96520000Y-59055000D01*
D31*
X40640000Y-132334000D02*
X40640000Y-137160000D01*
X103129000Y-140975000D02*
X103129000Y-142733000D01*
X50165000Y-27305000D02*
X52070000Y-25400000D01*
X41910000Y-33655000D02*
X40640000Y-34925000D01*
X40640000Y-131445000D02*
X40640000Y-132334000D01*
X64055000Y-63500000D02*
X64055000Y-63580000D01*
X73660000Y-27980000D02*
X122595000Y-27980000D01*
X130810000Y-36195000D02*
X133350000Y-36195000D01*
X95185000Y-168275000D02*
X95408000Y-168052000D01*
X40640000Y-141605000D02*
X40640000Y-147320000D01*
X121519000Y-95848000D02*
X125476000Y-95848000D01*
D32*
X98060000Y-165320000D02*
X98100000Y-165360000D01*
D31*
X45085000Y-33655000D02*
X41910000Y-33655000D01*
X47498000Y-132334000D02*
X40640000Y-132334000D01*
X101854000Y-91948000D02*
X103169000Y-95848000D01*
X49276000Y-155448000D02*
X40640000Y-155448000D01*
D32*
X50165000Y-29210000D02*
X49530000Y-29210000D01*
X98060000Y-159940000D02*
X98060000Y-165320000D01*
D31*
X40640000Y-72390000D02*
X40640000Y-91948000D01*
X52578000Y-158750000D02*
X49276000Y-155448000D01*
X133350000Y-36195000D02*
X133350000Y-59055000D01*
X112776000Y-144780000D02*
X108458000Y-140462000D01*
X96647000Y-56388000D02*
X96520000Y-56515000D01*
X60960000Y-66675000D02*
X40640000Y-66675000D01*
D32*
X110600000Y-172860000D02*
X105600000Y-172860000D01*
D31*
X46529000Y-92028000D02*
X46482000Y-92075000D01*
X120650000Y-72771000D02*
X49530000Y-72771000D01*
X64055000Y-63580000D02*
X60960000Y-66675000D01*
X95408000Y-168052000D02*
X100216000Y-172860000D01*
X85300000Y-168231000D02*
X85344000Y-168275000D01*
X100216000Y-172860000D02*
X105600000Y-172860000D01*
X71668000Y-158750000D02*
X75438000Y-154980000D01*
X52070000Y-25400000D02*
X66040000Y-25400000D01*
D33*
X95520000Y-154416000D02*
X95520000Y-152320000D01*
D31*
X40640000Y-137160000D02*
X40640000Y-141605000D01*
X40640000Y-34925000D02*
X40640000Y-38735000D01*
X50165000Y-29210000D02*
X50165000Y-33655000D01*
X110998000Y-56388000D02*
X96647000Y-56388000D01*
X40640000Y-116586000D02*
X40640000Y-121920000D01*
X46355000Y-116586000D02*
X40640000Y-116586000D01*
X54610000Y-158750000D02*
X71668000Y-158750000D01*
X127254000Y-140335000D02*
X122809000Y-144780000D01*
X40767000Y-92075000D02*
X40640000Y-91948000D01*
X103632000Y-140462000D02*
X103124000Y-140970000D01*
X117094000Y-91948000D02*
X114554000Y-91948000D01*
X41021000Y-72771000D02*
X40640000Y-72390000D01*
X103124000Y-140970000D02*
X103129000Y-140975000D01*
X51689000Y-136525000D02*
X47498000Y-132334000D01*
X126238000Y-139319000D02*
X127254000Y-140335000D01*
D32*
X69850000Y-57705000D02*
X71675000Y-55880000D01*
D31*
X67310000Y-26670000D02*
X67310000Y-27940000D01*
X54610000Y-158750000D02*
X52578000Y-158750000D01*
X126238000Y-95758000D02*
X125566000Y-95758000D01*
X49530000Y-72771000D02*
X41021000Y-72771000D01*
X41275000Y-168275000D02*
X85344000Y-168275000D01*
D33*
X94956000Y-154980000D02*
X95520000Y-154416000D01*
D31*
X61160000Y-92028000D02*
X46529000Y-92028000D01*
X49530000Y-29210000D02*
X45085000Y-33655000D01*
X122595000Y-27980000D02*
X130810000Y-36195000D01*
X40640000Y-62230000D02*
X40640000Y-64770000D01*
X50165000Y-29210000D02*
X50165000Y-27305000D01*
D32*
X95885000Y-55880000D02*
X96520000Y-56515000D01*
D31*
X66040000Y-25400000D02*
X67310000Y-26670000D01*
X122809000Y-144780000D02*
X112776000Y-144780000D01*
X85300000Y-164338000D02*
X85300000Y-168231000D01*
X50165000Y-33655000D02*
X47625000Y-36195000D01*
X47625000Y-36195000D02*
X45085000Y-36195000D01*
X40640000Y-155448000D02*
X40640000Y-167640000D01*
D33*
X75438000Y-154980000D02*
X94956000Y-154980000D01*
D32*
X67350000Y-27980000D02*
X67310000Y-27940000D01*
D31*
X64055000Y-63500000D02*
X69850000Y-57705000D01*
D32*
X71675000Y-55880000D02*
X95885000Y-55880000D01*
D31*
X40640000Y-147320000D02*
X40640000Y-155448000D01*
X125566000Y-95758000D02*
X125476000Y-95848000D01*
X46482000Y-92075000D02*
X40767000Y-92075000D01*
X40640000Y-93700000D02*
X40640000Y-116586000D01*
X128778000Y-95758000D02*
X126238000Y-95758000D01*
X47625000Y-36195000D02*
X47625000Y-59055000D01*
X54610000Y-136525000D02*
X51689000Y-136525000D01*
X108458000Y-140462000D02*
X103632000Y-140462000D01*
X40640000Y-64770000D02*
X40640000Y-66675000D01*
X85344000Y-168275000D02*
X95185000Y-168275000D01*
X40640000Y-91948000D02*
X40640000Y-93700000D01*
X126238000Y-95758000D02*
X126238000Y-139319000D01*
X130810000Y-59055000D02*
X133350000Y-59055000D01*
X47625000Y-59055000D02*
X45085000Y-59055000D01*
X40640000Y-121920000D02*
X40640000Y-131445000D01*
X73660000Y-27980000D02*
X67350000Y-27980000D01*
X40640000Y-66675000D02*
X40640000Y-72390000D01*
D33*
X75438000Y-159980000D02*
X75438000Y-158750000D01*
D31*
X100330000Y-147036000D02*
X101107000Y-147813000D01*
X123190000Y-115824000D02*
X122428000Y-115062000D01*
D33*
X95758000Y-156972000D02*
X98060000Y-154670000D01*
D31*
X117856000Y-140335000D02*
X123190000Y-135001000D01*
X117856000Y-140335000D02*
X111887000Y-140335000D01*
D33*
X75438000Y-158750000D02*
X77216000Y-156972000D01*
X98060000Y-152320000D02*
X100600000Y-152320000D01*
D31*
X122428000Y-115062000D02*
X120396000Y-115062000D01*
D33*
X77216000Y-156972000D02*
X95758000Y-156972000D01*
D31*
X101107000Y-147813000D02*
X103129000Y-147813000D01*
X102362000Y-137922000D02*
X100330000Y-139954000D01*
X123190000Y-135001000D02*
X123190000Y-115824000D01*
X109474000Y-137922000D02*
X102362000Y-137922000D01*
D33*
X98060000Y-154670000D02*
X98060000Y-152320000D01*
D31*
X100330000Y-139954000D02*
X100330000Y-147036000D01*
X111887000Y-140335000D02*
X109474000Y-137922000D01*
D32*
X103100000Y-159980000D02*
X103140000Y-159940000D01*
X110480000Y-165360000D02*
X108100000Y-162860000D01*
X110480000Y-165360000D02*
X110480000Y-170240000D01*
X110480000Y-170240000D02*
X110600000Y-170360000D01*
X103100000Y-162860000D02*
X103100000Y-159980000D01*
X108100000Y-162860000D02*
X103100000Y-162860000D01*
X103100000Y-165360000D02*
X100600000Y-162860000D01*
X105600000Y-165360000D02*
X103100000Y-165360000D01*
X105600000Y-165360000D02*
X105600000Y-170360000D01*
X100600000Y-162860000D02*
X100600000Y-159940000D01*
D34*
X93980000Y-51435000D02*
X93980000Y-46355000D01*
X91440000Y-51435000D02*
X91440000Y-44450000D01*
X88900000Y-51435000D02*
X88900000Y-42545000D01*
X86360000Y-51435000D02*
X86360000Y-40640000D01*
X83820000Y-51435000D02*
X83820000Y-38735000D01*
X81280000Y-51435000D02*
X81280000Y-36830000D01*
X78740000Y-51435000D02*
X78740000Y-34925000D01*
D31*
X128778000Y-106553000D02*
X132715000Y-110490000D01*
X128778000Y-105918000D02*
X128778000Y-106553000D01*
D34*
X104379000Y-146563000D02*
X104379000Y-151081000D01*
X104379000Y-151081000D02*
X103140000Y-152320000D01*
X105669000Y-145273000D02*
X104379000Y-146563000D01*
X92964000Y-116332000D02*
X92964000Y-117348000D01*
X92980000Y-117364000D02*
X92980000Y-152320000D01*
X92964000Y-117348000D02*
X92980000Y-117364000D01*
X73660000Y-97028000D02*
X92964000Y-116332000D01*
X115062000Y-132842000D02*
X117602000Y-135382000D01*
X88900000Y-132842000D02*
X82820000Y-138922000D01*
X94234000Y-132842000D02*
X115062000Y-132842000D01*
X82820000Y-138922000D02*
X82820000Y-152320000D01*
X124460000Y-71120000D02*
X124460000Y-84328000D01*
X70485000Y-62230000D02*
X70485000Y-66040000D01*
X112776000Y-87122000D02*
X109474000Y-90424000D01*
X106934000Y-91948000D02*
X109474000Y-91948000D01*
X73660000Y-59055000D02*
X70485000Y-62230000D01*
X71755000Y-67310000D02*
X120650000Y-67310000D01*
X109474000Y-90424000D02*
X109474000Y-91948000D01*
X70485000Y-66040000D02*
X71755000Y-67310000D01*
X124460000Y-84328000D02*
X121666000Y-87122000D01*
X120650000Y-67310000D02*
X124460000Y-71120000D01*
X121666000Y-87122000D02*
X112776000Y-87122000D01*
X46482000Y-96774000D02*
X62484000Y-96774000D01*
X62484000Y-96774000D02*
X90440000Y-124730000D01*
X90440000Y-124730000D02*
X90440000Y-152320000D01*
X112014000Y-120396000D02*
X116840000Y-125222000D01*
X112014000Y-99568000D02*
X112014000Y-120396000D01*
X114554000Y-99568000D02*
X114554000Y-119380000D01*
X114554000Y-119380000D02*
X120396000Y-125222000D01*
X112014000Y-156210000D02*
X110760000Y-157464000D01*
X132080000Y-130175000D02*
X132080000Y-140716000D01*
X110760000Y-157464000D02*
X110760000Y-159940000D01*
X132080000Y-140716000D02*
X116586000Y-156210000D01*
X116586000Y-156210000D02*
X112014000Y-156210000D01*
M02*
