G04 #@! TF.GenerationSoftware,KiCad,Pcbnew,7.0.5*
G04 #@! TF.CreationDate,2023-06-10T14:41:30+02:00*
G04 #@! TF.ProjectId,EinTaktReset,45696e54-616b-4745-9265-7365742e6b69,rev?*
G04 #@! TF.SameCoordinates,Original*
G04 #@! TF.FileFunction,Copper,L1,Top*
G04 #@! TF.FilePolarity,Positive*
%FSLAX46Y46*%
G04 Gerber Fmt 4.6, Leading zero omitted, Abs format (unit mm)*
G04 Created by KiCad (PCBNEW 7.0.5) date 2023-06-10 14:41:30*
%MOMM*%
%LPD*%
G01*
G04 APERTURE LIST*
G04 Aperture macros list*
%AMRoundRect*
0 Rectangle with rounded corners*
0 $1 Rounding radius*
0 $2 $3 $4 $5 $6 $7 $8 $9 X,Y pos of 4 corners*
0 Add a 4 corners polygon primitive as box body*
4,1,4,$2,$3,$4,$5,$6,$7,$8,$9,$2,$3,0*
0 Add four circle primitives for the rounded corners*
1,1,$1+$1,$2,$3*
1,1,$1+$1,$4,$5*
1,1,$1+$1,$6,$7*
1,1,$1+$1,$8,$9*
0 Add four rect primitives between the rounded corners*
20,1,$1+$1,$2,$3,$4,$5,0*
20,1,$1+$1,$4,$5,$6,$7,0*
20,1,$1+$1,$6,$7,$8,$9,0*
20,1,$1+$1,$8,$9,$2,$3,0*%
G04 Aperture macros list end*
G04 #@! TA.AperFunction,ComponentPad*
%ADD10R,1.600000X2.400000*%
G04 #@! TD*
G04 #@! TA.AperFunction,ComponentPad*
%ADD11O,1.600000X2.400000*%
G04 #@! TD*
G04 #@! TA.AperFunction,ComponentPad*
%ADD12R,1.600000X1.600000*%
G04 #@! TD*
G04 #@! TA.AperFunction,ComponentPad*
%ADD13O,1.600000X1.600000*%
G04 #@! TD*
G04 #@! TA.AperFunction,ComponentPad*
%ADD14C,1.600000*%
G04 #@! TD*
G04 #@! TA.AperFunction,ComponentPad*
%ADD15R,1.800000X1.800000*%
G04 #@! TD*
G04 #@! TA.AperFunction,ComponentPad*
%ADD16C,1.800000*%
G04 #@! TD*
G04 #@! TA.AperFunction,ComponentPad*
%ADD17C,2.997200*%
G04 #@! TD*
G04 #@! TA.AperFunction,ComponentPad*
%ADD18R,1.700000X1.700000*%
G04 #@! TD*
G04 #@! TA.AperFunction,ComponentPad*
%ADD19O,1.700000X1.700000*%
G04 #@! TD*
G04 #@! TA.AperFunction,ComponentPad*
%ADD20RoundRect,0.249999X-0.620001X-0.845001X0.620001X-0.845001X0.620001X0.845001X-0.620001X0.845001X0*%
G04 #@! TD*
G04 #@! TA.AperFunction,ComponentPad*
%ADD21O,1.740000X2.190000*%
G04 #@! TD*
G04 #@! TA.AperFunction,ComponentPad*
%ADD22RoundRect,0.249999X-0.845001X0.620001X-0.845001X-0.620001X0.845001X-0.620001X0.845001X0.620001X0*%
G04 #@! TD*
G04 #@! TA.AperFunction,ComponentPad*
%ADD23O,2.190000X1.740000*%
G04 #@! TD*
G04 #@! TA.AperFunction,ComponentPad*
%ADD24C,2.000000*%
G04 #@! TD*
G04 #@! TA.AperFunction,ComponentPad*
%ADD25C,1.100000*%
G04 #@! TD*
G04 #@! TA.AperFunction,ComponentPad*
%ADD26O,1.800000X1.800000*%
G04 #@! TD*
G04 #@! TA.AperFunction,ComponentPad*
%ADD27C,1.500000*%
G04 #@! TD*
G04 #@! TA.AperFunction,ComponentPad*
%ADD28C,2.340000*%
G04 #@! TD*
G04 #@! TA.AperFunction,ViaPad*
%ADD29C,1.000000*%
G04 #@! TD*
G04 #@! TA.AperFunction,ViaPad*
%ADD30C,0.800000*%
G04 #@! TD*
G04 #@! TA.AperFunction,Conductor*
%ADD31C,1.250000*%
G04 #@! TD*
G04 #@! TA.AperFunction,Conductor*
%ADD32C,0.400000*%
G04 #@! TD*
G04 #@! TA.AperFunction,Conductor*
%ADD33C,1.000000*%
G04 #@! TD*
G04 APERTURE END LIST*
D10*
X73660000Y-59055000D03*
D11*
X76200000Y-59055000D03*
X78740000Y-59055000D03*
X81280000Y-59055000D03*
X83820000Y-59055000D03*
X86360000Y-59055000D03*
X88900000Y-59055000D03*
X91440000Y-59055000D03*
X93980000Y-59055000D03*
X96520000Y-59055000D03*
X96520000Y-51435000D03*
X93980000Y-51435000D03*
X91440000Y-51435000D03*
X88900000Y-51435000D03*
X86360000Y-51435000D03*
X83820000Y-51435000D03*
X81280000Y-51435000D03*
X78740000Y-51435000D03*
X76200000Y-51435000D03*
X73660000Y-51435000D03*
D12*
X73660000Y-62865000D03*
D13*
X76200000Y-62865000D03*
X78740000Y-62865000D03*
X81280000Y-62865000D03*
X83820000Y-62865000D03*
X86360000Y-62865000D03*
X88900000Y-62865000D03*
X91440000Y-62865000D03*
X93980000Y-62865000D03*
D14*
X128778000Y-105918000D03*
D13*
X128778000Y-95758000D03*
D14*
X116840000Y-115062000D03*
D13*
X116840000Y-125222000D03*
D15*
X110998000Y-56388000D03*
D16*
X110998000Y-53848000D03*
D15*
X132715000Y-110490000D03*
D16*
X132715000Y-113030000D03*
D17*
X49530000Y-72771000D03*
X49530000Y-77470000D03*
X49530000Y-82169000D03*
X80010000Y-72771000D03*
X80010000Y-77470000D03*
X80010000Y-82169000D03*
X90170000Y-72771000D03*
X90170000Y-77470000D03*
X90170000Y-82169000D03*
X100330000Y-72771000D03*
X100330000Y-77470000D03*
X100330000Y-82169000D03*
X110490000Y-72771000D03*
X110490000Y-77470000D03*
X110490000Y-82169000D03*
X120650000Y-72771000D03*
X120650000Y-77470000D03*
X120650000Y-82169000D03*
D14*
X93100000Y-165360000D03*
X98100000Y-165360000D03*
X69850000Y-52705000D03*
X69850000Y-57705000D03*
X132080000Y-74930000D03*
D13*
X132080000Y-64770000D03*
D18*
X45085000Y-36195000D03*
D19*
X47625000Y-36195000D03*
X45085000Y-38735000D03*
X47625000Y-38735000D03*
X45085000Y-41275000D03*
X47625000Y-41275000D03*
X45085000Y-43815000D03*
X47625000Y-43815000D03*
X45085000Y-46355000D03*
X47625000Y-46355000D03*
X45085000Y-48895000D03*
X47625000Y-48895000D03*
X45085000Y-51435000D03*
X47625000Y-51435000D03*
X45085000Y-53975000D03*
X47625000Y-53975000D03*
X45085000Y-56515000D03*
X47625000Y-56515000D03*
X45085000Y-59055000D03*
X47625000Y-59055000D03*
D18*
X130810000Y-36195000D03*
D19*
X133350000Y-36195000D03*
X130810000Y-38735000D03*
X133350000Y-38735000D03*
X130810000Y-41275000D03*
X133350000Y-41275000D03*
X130810000Y-43815000D03*
X133350000Y-43815000D03*
X130810000Y-46355000D03*
X133350000Y-46355000D03*
X130810000Y-48895000D03*
X133350000Y-48895000D03*
X130810000Y-51435000D03*
X133350000Y-51435000D03*
X130810000Y-53975000D03*
X133350000Y-53975000D03*
X130810000Y-56515000D03*
X133350000Y-56515000D03*
X130810000Y-59055000D03*
X133350000Y-59055000D03*
D14*
X120396000Y-115062000D03*
D13*
X120396000Y-125222000D03*
D12*
X73660000Y-30480000D03*
D14*
X73660000Y-27980000D03*
D20*
X50165000Y-29210000D03*
D21*
X52705000Y-29210000D03*
D22*
X132080000Y-159385000D03*
D23*
X132080000Y-161925000D03*
D22*
X132080000Y-166370000D03*
D23*
X132080000Y-168910000D03*
D24*
X46990000Y-163830000D03*
X54610000Y-163830000D03*
X54610000Y-158750000D03*
X46990000Y-158750000D03*
D25*
X46990000Y-171450000D03*
X54610000Y-156210000D03*
D22*
X132080000Y-148590000D03*
D23*
X132080000Y-151130000D03*
X132080000Y-153670000D03*
D22*
X132080000Y-81915000D03*
D23*
X132080000Y-84455000D03*
X132080000Y-86995000D03*
D22*
X132080000Y-125095000D03*
D23*
X132080000Y-127635000D03*
X132080000Y-130175000D03*
D14*
X75438000Y-159980000D03*
X75438000Y-154980000D03*
D10*
X117094000Y-91948000D03*
D11*
X114554000Y-91948000D03*
X112014000Y-91948000D03*
X109474000Y-91948000D03*
X106934000Y-91948000D03*
X104394000Y-91948000D03*
X101854000Y-91948000D03*
X101854000Y-99568000D03*
X104394000Y-99568000D03*
X106934000Y-99568000D03*
X109474000Y-99568000D03*
X112014000Y-99568000D03*
X114554000Y-99568000D03*
X117094000Y-99568000D03*
D24*
X46990000Y-141605000D03*
X54610000Y-141605000D03*
X54610000Y-136525000D03*
X46990000Y-136525000D03*
D25*
X46990000Y-149225000D03*
X54610000Y-133985000D03*
D17*
X69850000Y-72771000D03*
X69850000Y-77470000D03*
X69850000Y-82169000D03*
D15*
X57150000Y-27940000D03*
D26*
X67310000Y-27940000D03*
D17*
X59690000Y-72771000D03*
X59690000Y-77470000D03*
X59690000Y-82169000D03*
X117856000Y-140335000D03*
X122555000Y-140335000D03*
X127254000Y-140335000D03*
X46355000Y-125984000D03*
X46355000Y-121285000D03*
X46355000Y-116586000D03*
D14*
X75438000Y-174498000D03*
D13*
X75438000Y-164338000D03*
D14*
X105600000Y-170360000D03*
X105600000Y-172860000D03*
D10*
X80280000Y-159940000D03*
D11*
X82820000Y-159940000D03*
X85360000Y-159940000D03*
X87900000Y-159940000D03*
X90440000Y-159940000D03*
X92980000Y-159940000D03*
X95520000Y-159940000D03*
X98060000Y-159940000D03*
X100600000Y-159940000D03*
X103140000Y-159940000D03*
X105680000Y-159940000D03*
X108220000Y-159940000D03*
X110760000Y-159940000D03*
X113300000Y-159940000D03*
X113300000Y-152320000D03*
X110760000Y-152320000D03*
X108220000Y-152320000D03*
X105680000Y-152320000D03*
X103140000Y-152320000D03*
X100600000Y-152320000D03*
X98060000Y-152320000D03*
X95520000Y-152320000D03*
X92980000Y-152320000D03*
X90440000Y-152320000D03*
X87900000Y-152320000D03*
X85360000Y-152320000D03*
X82820000Y-152320000D03*
X80280000Y-152320000D03*
D14*
X96520000Y-97075000D03*
X96520000Y-92075000D03*
D17*
X46482000Y-92075000D03*
X46482000Y-96774000D03*
X46482000Y-101473000D03*
D18*
X105669000Y-147813000D03*
D19*
X103129000Y-147813000D03*
X105669000Y-145273000D03*
X103129000Y-145273000D03*
X105669000Y-142733000D03*
X103129000Y-142733000D03*
D14*
X110600000Y-170360000D03*
X110600000Y-172860000D03*
D27*
X110480000Y-165360000D03*
X105600000Y-165360000D03*
D28*
X61160000Y-102028000D03*
X73660000Y-97028000D03*
X61160000Y-92028000D03*
D14*
X80300000Y-164338000D03*
X85300000Y-164338000D03*
D29*
X93980000Y-46355000D03*
X91440000Y-44450000D03*
X88900000Y-42545000D03*
X86360000Y-40640000D03*
X83820000Y-38735000D03*
X81280000Y-36830000D03*
X78740000Y-34925000D03*
D30*
X88900000Y-132842000D03*
X94234000Y-132842000D03*
X117602000Y-135382000D03*
D31*
X116205000Y-103505000D02*
X100965000Y-103505000D01*
X117094000Y-102616000D02*
X116205000Y-103505000D01*
X117094000Y-99568000D02*
X117094000Y-102616000D01*
X100965000Y-103505000D02*
X96520000Y-99060000D01*
X96520000Y-99060000D02*
X96520000Y-97075000D01*
X117094000Y-114808000D02*
X116840000Y-115062000D01*
X117094000Y-99568000D02*
X117094000Y-114808000D01*
X61160000Y-102028000D02*
X91567000Y-102028000D01*
X91567000Y-102028000D02*
X96520000Y-97075000D01*
D32*
X132080000Y-166370000D02*
X128570000Y-162860000D01*
X132080000Y-168910000D02*
X132080000Y-166370000D01*
X110600000Y-162860000D02*
X113100000Y-162860000D01*
X108220000Y-160480000D02*
X110600000Y-162860000D01*
X108220000Y-159940000D02*
X108220000Y-160480000D01*
X128570000Y-162860000D02*
X113100000Y-162860000D01*
X105680000Y-159940000D02*
X105680000Y-159080000D01*
X106900000Y-157860000D02*
X130555000Y-157860000D01*
X132080000Y-161925000D02*
X132080000Y-159385000D01*
X130555000Y-157860000D02*
X132080000Y-159385000D01*
X105680000Y-159080000D02*
X106900000Y-157860000D01*
X117602000Y-146812000D02*
X132334000Y-146812000D01*
X113300000Y-152320000D02*
X113300000Y-151114000D01*
X132334000Y-146812000D02*
X136398000Y-142748000D01*
X113300000Y-151114000D02*
X117602000Y-146812000D01*
X136398000Y-85344000D02*
X132080000Y-81915000D01*
X136398000Y-142748000D02*
X136398000Y-85344000D01*
X73660000Y-62865000D02*
X67945000Y-62865000D01*
D31*
X116840000Y-115062000D02*
X120396000Y-115062000D01*
X41910000Y-167005000D02*
X68834000Y-167005000D01*
X75438000Y-174498000D02*
X75438000Y-167005000D01*
X41275000Y-103886000D02*
X41275000Y-121920000D01*
X41275000Y-62230000D02*
X41275000Y-63500000D01*
X41275000Y-34925000D02*
X41275000Y-62230000D01*
D33*
X69850000Y-52705000D02*
X72390000Y-52705000D01*
D31*
X41275000Y-125984000D02*
X41275000Y-129540000D01*
D33*
X95520000Y-159940000D02*
X95520000Y-162940000D01*
D31*
X41275000Y-121920000D02*
X41275000Y-125984000D01*
X55880000Y-29210000D02*
X57150000Y-27940000D01*
X41275000Y-101600000D02*
X41275000Y-103886000D01*
X59055000Y-63500000D02*
X41275000Y-63500000D01*
X69850000Y-52705000D02*
X63817500Y-58737500D01*
X50800000Y-33020000D02*
X43180000Y-33020000D01*
X68834000Y-167005000D02*
X70866000Y-167005000D01*
X52705000Y-31115000D02*
X50800000Y-33020000D01*
X75438000Y-167005000D02*
X86741000Y-167005000D01*
X46482000Y-101473000D02*
X60605000Y-101473000D01*
D32*
X67945000Y-62865000D02*
X63817500Y-58737500D01*
D31*
X59690000Y-30480000D02*
X57150000Y-27940000D01*
X41275000Y-129540000D02*
X41275000Y-135890000D01*
X46990000Y-136525000D02*
X41402000Y-136525000D01*
X91455000Y-167005000D02*
X93100000Y-165360000D01*
X41275000Y-158750000D02*
X41275000Y-166370000D01*
X70866000Y-167005000D02*
X70866000Y-164552000D01*
X41275000Y-135890000D02*
X41275000Y-136652000D01*
X52705000Y-29210000D02*
X52705000Y-31115000D01*
X52705000Y-29210000D02*
X55880000Y-29210000D01*
X41275000Y-63500000D02*
X41275000Y-85725000D01*
X41275000Y-144145000D02*
X41275000Y-158750000D01*
X86741000Y-167005000D02*
X91455000Y-167005000D01*
X70866000Y-167005000D02*
X75438000Y-167005000D01*
X41275000Y-136652000D02*
X41275000Y-144145000D01*
X46355000Y-125984000D02*
X41275000Y-125984000D01*
X41275000Y-166370000D02*
X41910000Y-167005000D01*
X41402000Y-101473000D02*
X41275000Y-101600000D01*
X41402000Y-136525000D02*
X41275000Y-136652000D01*
X63817500Y-58737500D02*
X59055000Y-63500000D01*
D33*
X95520000Y-162940000D02*
X93100000Y-165360000D01*
D31*
X60605000Y-101473000D02*
X61160000Y-102028000D01*
X43180000Y-33020000D02*
X41275000Y-34925000D01*
X46482000Y-101473000D02*
X41402000Y-101473000D01*
D33*
X72390000Y-52705000D02*
X73660000Y-51435000D01*
D31*
X46990000Y-158750000D02*
X41275000Y-158750000D01*
X41275000Y-85725000D02*
X41275000Y-101600000D01*
X70866000Y-164552000D02*
X75438000Y-159980000D01*
X73660000Y-30480000D02*
X59690000Y-30480000D01*
D32*
X80300000Y-162560000D02*
X80300000Y-159960000D01*
X104648000Y-140462000D02*
X100076000Y-140462000D01*
X105669000Y-142733000D02*
X105669000Y-141483000D01*
X80300000Y-159960000D02*
X80280000Y-159940000D01*
X94180000Y-146358000D02*
X94180000Y-153217056D01*
X75438000Y-164338000D02*
X80300000Y-164338000D01*
X84837056Y-162560000D02*
X80300000Y-162560000D01*
X100076000Y-140462000D02*
X94180000Y-146358000D01*
X91949056Y-155448000D02*
X89240528Y-155448000D01*
X105669000Y-141483000D02*
X104648000Y-140462000D01*
X89240528Y-155448000D02*
X86560000Y-158128528D01*
X80300000Y-164338000D02*
X80300000Y-162560000D01*
X86560000Y-158128528D02*
X86560000Y-160837056D01*
X86560000Y-160837056D02*
X84837056Y-162560000D01*
X94180000Y-153217056D02*
X91949056Y-155448000D01*
X121158000Y-53848000D02*
X110998000Y-53848000D01*
X132080000Y-64770000D02*
X121158000Y-53848000D01*
X135128000Y-142240000D02*
X131826000Y-145542000D01*
X110760000Y-150638000D02*
X110760000Y-152320000D01*
X131826000Y-145542000D02*
X115824000Y-145542000D01*
X132715000Y-113030000D02*
X135128000Y-115316000D01*
X135128000Y-115316000D02*
X135128000Y-142240000D01*
X110744000Y-150622000D02*
X110760000Y-150638000D01*
X115824000Y-145542000D02*
X110744000Y-150622000D01*
X129540000Y-56515000D02*
X121285000Y-48260000D01*
X121285000Y-48260000D02*
X120650000Y-48260000D01*
X49530000Y-57785000D02*
X59055000Y-48260000D01*
X120650000Y-48260000D02*
X96520000Y-48260000D01*
X46355000Y-57785000D02*
X49530000Y-57785000D01*
X45085000Y-56515000D02*
X46355000Y-57785000D01*
X130810000Y-56515000D02*
X129540000Y-56515000D01*
X96520000Y-48260000D02*
X59055000Y-48260000D01*
X96520000Y-51435000D02*
X96520000Y-48260000D01*
X129540000Y-53975000D02*
X121920000Y-46355000D01*
X49530000Y-55245000D02*
X46355000Y-55245000D01*
X93980000Y-46355000D02*
X121285000Y-46355000D01*
X46355000Y-55245000D02*
X45085000Y-53975000D01*
X129540000Y-53975000D02*
X130810000Y-53975000D01*
X49530000Y-55245000D02*
X58420000Y-46355000D01*
X121285000Y-46355000D02*
X121920000Y-46355000D01*
X93980000Y-46355000D02*
X58420000Y-46355000D01*
X91440000Y-44450000D02*
X122555000Y-44450000D01*
X91440000Y-44450000D02*
X57785000Y-44450000D01*
X129540000Y-51435000D02*
X122555000Y-44450000D01*
X49530000Y-52705000D02*
X57785000Y-44450000D01*
X49530000Y-52705000D02*
X46355000Y-52705000D01*
X129540000Y-51435000D02*
X130810000Y-51435000D01*
X46355000Y-52705000D02*
X45085000Y-51435000D01*
X49530000Y-50165000D02*
X46355000Y-50165000D01*
X129540000Y-48895000D02*
X123190000Y-42545000D01*
X49530000Y-50165000D02*
X57150000Y-42545000D01*
X46355000Y-50165000D02*
X45085000Y-48895000D01*
X123190000Y-42545000D02*
X57150000Y-42545000D01*
X130810000Y-48895000D02*
X129540000Y-48895000D01*
X46355000Y-47625000D02*
X49530000Y-47625000D01*
X56515000Y-40640000D02*
X123825000Y-40640000D01*
X49530000Y-47625000D02*
X56515000Y-40640000D01*
X45085000Y-46355000D02*
X46355000Y-47625000D01*
X129540000Y-46355000D02*
X123825000Y-40640000D01*
X129540000Y-46355000D02*
X130810000Y-46355000D01*
X124460000Y-38735000D02*
X120015000Y-38735000D01*
X83820000Y-38735000D02*
X59055000Y-38735000D01*
X46355000Y-45085000D02*
X45085000Y-43815000D01*
X49530000Y-45085000D02*
X55880000Y-38735000D01*
X129540000Y-43815000D02*
X124460000Y-38735000D01*
X120015000Y-38735000D02*
X83820000Y-38735000D01*
X130810000Y-43815000D02*
X129540000Y-43815000D01*
X49530000Y-45085000D02*
X46355000Y-45085000D01*
X55880000Y-38735000D02*
X59055000Y-38735000D01*
X49530000Y-42545000D02*
X55245000Y-36830000D01*
X125095000Y-36830000D02*
X129540000Y-41275000D01*
X45085000Y-41275000D02*
X46355000Y-42545000D01*
X129540000Y-41275000D02*
X130810000Y-41275000D01*
X46355000Y-42545000D02*
X49530000Y-42545000D01*
X55245000Y-36830000D02*
X125095000Y-36830000D01*
X118110000Y-34925000D02*
X78740000Y-34925000D01*
X129540000Y-38735000D02*
X130810000Y-38735000D01*
X48895000Y-40005000D02*
X46355000Y-40005000D01*
X53975000Y-34925000D02*
X59055000Y-34925000D01*
X129540000Y-38735000D02*
X125730000Y-34925000D01*
X59055000Y-34925000D02*
X78740000Y-34925000D01*
X48895000Y-40005000D02*
X53975000Y-34925000D01*
X46355000Y-40005000D02*
X45085000Y-38735000D01*
X125730000Y-34925000D02*
X118110000Y-34925000D01*
X105669000Y-152309000D02*
X105680000Y-152320000D01*
X105669000Y-147813000D02*
X105669000Y-152309000D01*
X104414000Y-146558000D02*
X106914000Y-146558000D01*
X106914000Y-146558000D02*
X108220000Y-147864000D01*
X108220000Y-147864000D02*
X108220000Y-152320000D01*
X103129000Y-145273000D02*
X104414000Y-146558000D01*
X118110000Y-88900000D02*
X105664000Y-88900000D01*
X105664000Y-88900000D02*
X104394000Y-90170000D01*
X132080000Y-74930000D02*
X118110000Y-88900000D01*
X104394000Y-90170000D02*
X104394000Y-91948000D01*
X58801000Y-121285000D02*
X87900000Y-150384000D01*
X87900000Y-150384000D02*
X87900000Y-152320000D01*
X46355000Y-121285000D02*
X58801000Y-121285000D01*
X106934000Y-99568000D02*
X109474000Y-99568000D01*
X104394000Y-99568000D02*
X106934000Y-99568000D01*
X122555000Y-140335000D02*
X117602000Y-135382000D01*
X88900000Y-132842000D02*
X94234000Y-132842000D01*
X76200000Y-53975000D02*
X76200000Y-51435000D01*
X101854000Y-98044000D02*
X106934000Y-92964000D01*
X106934000Y-92964000D02*
X106934000Y-91948000D01*
X73660000Y-59055000D02*
X73660000Y-56515000D01*
X101854000Y-99568000D02*
X101854000Y-98044000D01*
X73660000Y-56515000D02*
X76200000Y-53975000D01*
X66120000Y-152320000D02*
X80280000Y-152320000D01*
X46990000Y-163830000D02*
X54610000Y-163830000D01*
X54610000Y-163830000D02*
X66120000Y-152320000D01*
X85360000Y-150130000D02*
X85360000Y-152320000D01*
X76835000Y-141605000D02*
X85360000Y-150130000D01*
X54610000Y-141605000D02*
X76835000Y-141605000D01*
X46990000Y-141605000D02*
X54610000Y-141605000D01*
X116840000Y-125222000D02*
X119253000Y-127635000D01*
X119253000Y-127635000D02*
X132080000Y-127635000D01*
X120396000Y-125222000D02*
X131953000Y-125222000D01*
X131953000Y-125222000D02*
X132080000Y-125095000D01*
X130070000Y-148590000D02*
X132080000Y-148590000D01*
X124600000Y-154060000D02*
X130070000Y-148590000D01*
X87900000Y-159940000D02*
X87900000Y-158480000D01*
X94488000Y-154178000D02*
X94742000Y-154178000D01*
X94742000Y-154178000D02*
X124600000Y-154060000D01*
X87900000Y-158480000D02*
X88646000Y-157734000D01*
X88646000Y-157734000D02*
X90932000Y-157734000D01*
X90932000Y-157734000D02*
X94488000Y-154178000D01*
X132080000Y-153670000D02*
X132080000Y-155280000D01*
X92980000Y-159940000D02*
X92980000Y-158830000D01*
X130800000Y-156560000D02*
X95250000Y-156560000D01*
X132080000Y-155280000D02*
X130800000Y-156560000D01*
X92980000Y-158830000D02*
X95250000Y-156560000D01*
X90440000Y-159140000D02*
X90440000Y-159940000D01*
X94500000Y-155460000D02*
X125700000Y-155460000D01*
X130030000Y-151130000D02*
X132080000Y-151130000D01*
X125700000Y-155460000D02*
X130030000Y-151130000D01*
X90440000Y-159940000D02*
X90440000Y-159496000D01*
X94488000Y-155448000D02*
X94500000Y-155460000D01*
X90440000Y-159496000D02*
X94488000Y-155448000D01*
X91186000Y-154178000D02*
X89662000Y-154178000D01*
X91640000Y-153724000D02*
X91186000Y-154178000D01*
X89662000Y-154178000D02*
X85360000Y-158480000D01*
X85360000Y-158480000D02*
X85360000Y-159940000D01*
X120396000Y-121412000D02*
X116840000Y-121412000D01*
X132080000Y-86995000D02*
X130429000Y-86995000D01*
X125476000Y-91948000D02*
X125476000Y-116332000D01*
X125476000Y-116332000D02*
X120396000Y-121412000D01*
X91640000Y-146612000D02*
X91640000Y-153724000D01*
X116840000Y-121412000D02*
X91640000Y-146612000D01*
X130429000Y-86995000D02*
X125476000Y-91948000D01*
X123698000Y-116332000D02*
X120396000Y-119634000D01*
X123698000Y-90932000D02*
X123698000Y-116332000D01*
X89100000Y-139754000D02*
X89100000Y-153660000D01*
X132080000Y-84455000D02*
X130175000Y-84455000D01*
X130175000Y-84455000D02*
X123698000Y-90932000D01*
X109220000Y-119634000D02*
X89100000Y-139754000D01*
X89100000Y-153660000D02*
X82820000Y-159940000D01*
X120396000Y-119634000D02*
X109220000Y-119634000D01*
X93980000Y-64770000D02*
X94615000Y-65405000D01*
X93980000Y-62865000D02*
X93980000Y-64770000D01*
X93980000Y-62865000D02*
X93980000Y-59055000D01*
X94615000Y-65405000D02*
X108585000Y-65405000D01*
X108585000Y-65405000D02*
X120650000Y-77470000D01*
X91440000Y-67945000D02*
X91440000Y-64770000D01*
X91440000Y-62865000D02*
X91440000Y-59055000D01*
X102870000Y-68580000D02*
X110490000Y-76200000D01*
X92075000Y-68580000D02*
X91440000Y-67945000D01*
X102870000Y-68580000D02*
X92075000Y-68580000D01*
X91440000Y-64770000D02*
X91440000Y-62865000D01*
X88900000Y-59055000D02*
X88900000Y-62865000D01*
X100330000Y-77470000D02*
X92710000Y-69850000D01*
X88900000Y-69215000D02*
X88900000Y-62865000D01*
X89535000Y-69850000D02*
X88900000Y-69215000D01*
X92710000Y-69850000D02*
X89535000Y-69850000D01*
X86360000Y-73660000D02*
X86360000Y-62865000D01*
X86360000Y-62865000D02*
X86360000Y-59055000D01*
X90170000Y-77470000D02*
X86360000Y-73660000D01*
X83820000Y-73660000D02*
X83820000Y-62865000D01*
X83820000Y-62865000D02*
X83820000Y-59055000D01*
X80010000Y-77470000D02*
X83820000Y-73660000D01*
X69850000Y-77470000D02*
X77470000Y-69850000D01*
X81280000Y-69215000D02*
X81280000Y-62865000D01*
X81280000Y-62865000D02*
X81280000Y-59055000D01*
X80645000Y-69850000D02*
X81280000Y-69215000D01*
X77470000Y-69850000D02*
X80645000Y-69850000D01*
X78740000Y-62865000D02*
X78740000Y-59055000D01*
X78105000Y-68580000D02*
X78740000Y-67945000D01*
X78740000Y-67945000D02*
X78740000Y-62865000D01*
X68580000Y-68580000D02*
X78105000Y-68580000D01*
X59690000Y-77470000D02*
X68580000Y-68580000D01*
X58420000Y-68580000D02*
X49530000Y-77470000D01*
X75565000Y-65405000D02*
X61595000Y-65405000D01*
X61595000Y-65405000D02*
X58420000Y-68580000D01*
X76200000Y-62865000D02*
X76200000Y-59055000D01*
X76200000Y-62865000D02*
X76200000Y-64770000D01*
X76200000Y-64770000D02*
X75565000Y-65405000D01*
M02*
