M48
; DRILL file {KiCad 7.0.5} date Sat Jun 10 14:41:36 2023
; FORMAT={-:-/ absolute / metric / decimal}
; #@! TF.CreationDate,2023-06-10T14:41:36+02:00
; #@! TF.GenerationSoftware,Kicad,Pcbnew,7.0.5
; #@! TF.FileFunction,Plated,1,2,PTH
FMAT,2
METRIC
; #@! TA.AperFunction,Plated,PTH,ViaDrill
T1C0.400
; #@! TA.AperFunction,Plated,PTH,ViaDrill
T2C0.500
; #@! TA.AperFunction,Plated,PTH,ComponentDrill
T3C0.800
; #@! TA.AperFunction,Plated,PTH,ComponentDrill
T4C0.900
; #@! TA.AperFunction,Plated,PTH,ComponentDrill
T5C1.000
; #@! TA.AperFunction,Plated,PTH,ComponentDrill
T6C1.100
; #@! TA.AperFunction,Plated,PTH,ComponentDrill
T7C1.190
; #@! TA.AperFunction,Plated,PTH,ComponentDrill
T8C1.300
; #@! TA.AperFunction,Plated,PTH,ComponentDrill
T9C1.847
%
G90
G05
T1
X88.9Y-132.842
X94.234Y-132.842
X117.602Y-135.382
T2
X78.74Y-34.925
X81.28Y-36.83
X83.82Y-38.735
X86.36Y-40.64
X88.9Y-42.545
X91.44Y-44.45
X93.98Y-46.355
T3
X69.85Y-52.705
X69.85Y-57.705
X73.66Y-27.98
X73.66Y-30.48
X73.66Y-51.435
X73.66Y-59.055
X73.66Y-62.865
X75.438Y-154.98
X75.438Y-159.98
X75.438Y-164.338
X75.438Y-174.498
X76.2Y-51.435
X76.2Y-59.055
X76.2Y-62.865
X78.74Y-51.435
X78.74Y-59.055
X78.74Y-62.865
X80.28Y-152.32
X80.28Y-159.94
X80.3Y-164.338
X81.28Y-51.435
X81.28Y-59.055
X81.28Y-62.865
X82.82Y-152.32
X82.82Y-159.94
X83.82Y-51.435
X83.82Y-59.055
X83.82Y-62.865
X85.3Y-164.338
X85.36Y-152.32
X85.36Y-159.94
X86.36Y-51.435
X86.36Y-59.055
X86.36Y-62.865
X87.9Y-152.32
X87.9Y-159.94
X88.9Y-51.435
X88.9Y-59.055
X88.9Y-62.865
X90.44Y-152.32
X90.44Y-159.94
X91.44Y-51.435
X91.44Y-59.055
X91.44Y-62.865
X92.98Y-152.32
X92.98Y-159.94
X93.1Y-165.36
X93.98Y-51.435
X93.98Y-59.055
X93.98Y-62.865
X95.52Y-152.32
X95.52Y-159.94
X96.52Y-51.435
X96.52Y-59.055
X96.52Y-92.075
X96.52Y-97.075
X98.06Y-152.32
X98.06Y-159.94
X98.1Y-165.36
X100.6Y-152.32
X100.6Y-159.94
X101.854Y-91.948
X101.854Y-99.568
X103.14Y-152.32
X103.14Y-159.94
X104.394Y-91.948
X104.394Y-99.568
X105.6Y-165.36
X105.6Y-170.36
X105.6Y-172.86
X105.68Y-152.32
X105.68Y-159.94
X106.934Y-91.948
X106.934Y-99.568
X108.22Y-152.32
X108.22Y-159.94
X109.474Y-91.948
X109.474Y-99.568
X110.48Y-165.36
X110.6Y-170.36
X110.6Y-172.86
X110.76Y-152.32
X110.76Y-159.94
X112.014Y-91.948
X112.014Y-99.568
X113.3Y-152.32
X113.3Y-159.94
X114.554Y-91.948
X114.554Y-99.568
X116.84Y-115.062
X116.84Y-125.222
X117.094Y-91.948
X117.094Y-99.568
X120.396Y-115.062
X120.396Y-125.222
X128.778Y-95.758
X128.778Y-105.918
X132.08Y-64.77
X132.08Y-74.93
T4
X57.15Y-27.94
X67.31Y-27.94
X110.998Y-53.848
X110.998Y-56.388
X132.715Y-110.49
X132.715Y-113.03
T5
X45.085Y-36.195
X45.085Y-38.735
X45.085Y-41.275
X45.085Y-43.815
X45.085Y-46.355
X45.085Y-48.895
X45.085Y-51.435
X45.085Y-53.975
X45.085Y-56.515
X45.085Y-59.055
X46.99Y-136.525
X46.99Y-141.605
X46.99Y-158.75
X46.99Y-163.83
X47.625Y-36.195
X47.625Y-38.735
X47.625Y-41.275
X47.625Y-43.815
X47.625Y-46.355
X47.625Y-48.895
X47.625Y-51.435
X47.625Y-53.975
X47.625Y-56.515
X47.625Y-59.055
X54.61Y-136.525
X54.61Y-141.605
X54.61Y-158.75
X54.61Y-163.83
X103.129Y-142.733
X103.129Y-145.273
X103.129Y-147.813
X105.669Y-142.733
X105.669Y-145.273
X105.669Y-147.813
X130.81Y-36.195
X130.81Y-38.735
X130.81Y-41.275
X130.81Y-43.815
X130.81Y-46.355
X130.81Y-48.895
X130.81Y-51.435
X130.81Y-53.975
X130.81Y-56.515
X130.81Y-59.055
X133.35Y-36.195
X133.35Y-38.735
X133.35Y-41.275
X133.35Y-43.815
X133.35Y-46.355
X133.35Y-48.895
X133.35Y-51.435
X133.35Y-53.975
X133.35Y-56.515
X133.35Y-59.055
T6
X46.99Y-149.225
X46.99Y-171.45
X54.61Y-133.985
X54.61Y-156.21
T7
X50.165Y-29.21
X52.705Y-29.21
X132.08Y-81.915
X132.08Y-84.455
X132.08Y-86.995
X132.08Y-125.095
X132.08Y-127.635
X132.08Y-130.175
X132.08Y-148.59
X132.08Y-151.13
X132.08Y-153.67
X132.08Y-159.385
X132.08Y-161.925
X132.08Y-166.37
X132.08Y-168.91
T8
X61.16Y-92.028
X61.16Y-102.028
X73.66Y-97.028
T9
X46.355Y-116.586
X46.355Y-121.285
X46.355Y-125.984
X46.482Y-92.075
X46.482Y-96.774
X46.482Y-101.473
X49.53Y-72.771
X49.53Y-77.47
X49.53Y-82.169
X59.69Y-72.771
X59.69Y-77.47
X59.69Y-82.169
X69.85Y-72.771
X69.85Y-77.47
X69.85Y-82.169
X80.01Y-72.771
X80.01Y-77.47
X80.01Y-82.169
X90.17Y-72.771
X90.17Y-77.47
X90.17Y-82.169
X100.33Y-72.771
X100.33Y-77.47
X100.33Y-82.169
X110.49Y-72.771
X110.49Y-77.47
X110.49Y-82.169
X117.856Y-140.335
X120.65Y-72.771
X120.65Y-77.47
X120.65Y-82.169
X122.555Y-140.335
X127.254Y-140.335
T0
M30
