%TF.GenerationSoftware,KiCad,Pcbnew,7.0.5*%
%TF.CreationDate,2023-06-10T14:41:36+02:00*%
%TF.ProjectId,EinTaktReset,45696e54-616b-4745-9265-7365742e6b69,rev?*%
%TF.SameCoordinates,Original*%
%TF.FileFunction,Drillmap*%
%TF.FilePolarity,Positive*%
%FSLAX45Y45*%
G04 Gerber Fmt 4.5, Leading zero omitted, Abs format (unit mm)*
G04 Created by KiCad (PCBNEW 7.0.5) date 2023-06-10 14:41:36*
%MOMM*%
%LPD*%
G01*
G04 APERTURE LIST*
%ADD10C,0.200000*%
%ADD11C,0.040000*%
%ADD12C,0.050000*%
%ADD13C,0.080000*%
%ADD14C,0.090000*%
%ADD15C,0.100000*%
%ADD16C,0.110000*%
%ADD17C,0.119000*%
%ADD18C,0.130000*%
%ADD19C,0.184658*%
G04 APERTURE END LIST*
D10*
D11*
X8870000Y-13264200D02*
X8910000Y-13304200D01*
X8910000Y-13264200D02*
X8870000Y-13304200D01*
X9403400Y-13264200D02*
X9443400Y-13304200D01*
X9443400Y-13264200D02*
X9403400Y-13304200D01*
X11740200Y-13518200D02*
X11780200Y-13558200D01*
X11780200Y-13518200D02*
X11740200Y-13558200D01*
D12*
X7899000Y-3492500D02*
G75*
G03*
X7899000Y-3492500I-25000J0D01*
G01*
X8153000Y-3683000D02*
G75*
G03*
X8153000Y-3683000I-25000J0D01*
G01*
X8407000Y-3873500D02*
G75*
G03*
X8407000Y-3873500I-25000J0D01*
G01*
X8661000Y-4064000D02*
G75*
G03*
X8661000Y-4064000I-25000J0D01*
G01*
X8915000Y-4254500D02*
G75*
G03*
X8915000Y-4254500I-25000J0D01*
G01*
X9169000Y-4445000D02*
G75*
G03*
X9169000Y-4445000I-25000J0D01*
G01*
X9423000Y-4635500D02*
G75*
G03*
X9423000Y-4635500I-25000J0D01*
G01*
D13*
X6985000Y-5230500D02*
X6985000Y-5310500D01*
X6945000Y-5270500D02*
X7025000Y-5270500D01*
X6985000Y-5730500D02*
X6985000Y-5810500D01*
X6945000Y-5770500D02*
X7025000Y-5770500D01*
X7366000Y-2758000D02*
X7366000Y-2838000D01*
X7326000Y-2798000D02*
X7406000Y-2798000D01*
X7366000Y-3008000D02*
X7366000Y-3088000D01*
X7326000Y-3048000D02*
X7406000Y-3048000D01*
X7366000Y-5103500D02*
X7366000Y-5183500D01*
X7326000Y-5143500D02*
X7406000Y-5143500D01*
X7366000Y-5865500D02*
X7366000Y-5945500D01*
X7326000Y-5905500D02*
X7406000Y-5905500D01*
X7366000Y-6246500D02*
X7366000Y-6326500D01*
X7326000Y-6286500D02*
X7406000Y-6286500D01*
X7543800Y-15458000D02*
X7543800Y-15538000D01*
X7503800Y-15498000D02*
X7583800Y-15498000D01*
X7543800Y-15958000D02*
X7543800Y-16038000D01*
X7503800Y-15998000D02*
X7583800Y-15998000D01*
X7543800Y-16393800D02*
X7543800Y-16473800D01*
X7503800Y-16433800D02*
X7583800Y-16433800D01*
X7543800Y-17409800D02*
X7543800Y-17489800D01*
X7503800Y-17449800D02*
X7583800Y-17449800D01*
X7620000Y-5103500D02*
X7620000Y-5183500D01*
X7580000Y-5143500D02*
X7660000Y-5143500D01*
X7620000Y-5865500D02*
X7620000Y-5945500D01*
X7580000Y-5905500D02*
X7660000Y-5905500D01*
X7620000Y-6246500D02*
X7620000Y-6326500D01*
X7580000Y-6286500D02*
X7660000Y-6286500D01*
X7874000Y-5103500D02*
X7874000Y-5183500D01*
X7834000Y-5143500D02*
X7914000Y-5143500D01*
X7874000Y-5865500D02*
X7874000Y-5945500D01*
X7834000Y-5905500D02*
X7914000Y-5905500D01*
X7874000Y-6246500D02*
X7874000Y-6326500D01*
X7834000Y-6286500D02*
X7914000Y-6286500D01*
X8028000Y-15192000D02*
X8028000Y-15272000D01*
X7988000Y-15232000D02*
X8068000Y-15232000D01*
X8028000Y-15954000D02*
X8028000Y-16034000D01*
X7988000Y-15994000D02*
X8068000Y-15994000D01*
X8030000Y-16393800D02*
X8030000Y-16473800D01*
X7990000Y-16433800D02*
X8070000Y-16433800D01*
X8128000Y-5103500D02*
X8128000Y-5183500D01*
X8088000Y-5143500D02*
X8168000Y-5143500D01*
X8128000Y-5865500D02*
X8128000Y-5945500D01*
X8088000Y-5905500D02*
X8168000Y-5905500D01*
X8128000Y-6246500D02*
X8128000Y-6326500D01*
X8088000Y-6286500D02*
X8168000Y-6286500D01*
X8282000Y-15192000D02*
X8282000Y-15272000D01*
X8242000Y-15232000D02*
X8322000Y-15232000D01*
X8282000Y-15954000D02*
X8282000Y-16034000D01*
X8242000Y-15994000D02*
X8322000Y-15994000D01*
X8382000Y-5103500D02*
X8382000Y-5183500D01*
X8342000Y-5143500D02*
X8422000Y-5143500D01*
X8382000Y-5865500D02*
X8382000Y-5945500D01*
X8342000Y-5905500D02*
X8422000Y-5905500D01*
X8382000Y-6246500D02*
X8382000Y-6326500D01*
X8342000Y-6286500D02*
X8422000Y-6286500D01*
X8530000Y-16393800D02*
X8530000Y-16473800D01*
X8490000Y-16433800D02*
X8570000Y-16433800D01*
X8536000Y-15192000D02*
X8536000Y-15272000D01*
X8496000Y-15232000D02*
X8576000Y-15232000D01*
X8536000Y-15954000D02*
X8536000Y-16034000D01*
X8496000Y-15994000D02*
X8576000Y-15994000D01*
X8636000Y-5103500D02*
X8636000Y-5183500D01*
X8596000Y-5143500D02*
X8676000Y-5143500D01*
X8636000Y-5865500D02*
X8636000Y-5945500D01*
X8596000Y-5905500D02*
X8676000Y-5905500D01*
X8636000Y-6246500D02*
X8636000Y-6326500D01*
X8596000Y-6286500D02*
X8676000Y-6286500D01*
X8790000Y-15192000D02*
X8790000Y-15272000D01*
X8750000Y-15232000D02*
X8830000Y-15232000D01*
X8790000Y-15954000D02*
X8790000Y-16034000D01*
X8750000Y-15994000D02*
X8830000Y-15994000D01*
X8890000Y-5103500D02*
X8890000Y-5183500D01*
X8850000Y-5143500D02*
X8930000Y-5143500D01*
X8890000Y-5865500D02*
X8890000Y-5945500D01*
X8850000Y-5905500D02*
X8930000Y-5905500D01*
X8890000Y-6246500D02*
X8890000Y-6326500D01*
X8850000Y-6286500D02*
X8930000Y-6286500D01*
X9044000Y-15192000D02*
X9044000Y-15272000D01*
X9004000Y-15232000D02*
X9084000Y-15232000D01*
X9044000Y-15954000D02*
X9044000Y-16034000D01*
X9004000Y-15994000D02*
X9084000Y-15994000D01*
X9144000Y-5103500D02*
X9144000Y-5183500D01*
X9104000Y-5143500D02*
X9184000Y-5143500D01*
X9144000Y-5865500D02*
X9144000Y-5945500D01*
X9104000Y-5905500D02*
X9184000Y-5905500D01*
X9144000Y-6246500D02*
X9144000Y-6326500D01*
X9104000Y-6286500D02*
X9184000Y-6286500D01*
X9298000Y-15192000D02*
X9298000Y-15272000D01*
X9258000Y-15232000D02*
X9338000Y-15232000D01*
X9298000Y-15954000D02*
X9298000Y-16034000D01*
X9258000Y-15994000D02*
X9338000Y-15994000D01*
X9310000Y-16496000D02*
X9310000Y-16576000D01*
X9270000Y-16536000D02*
X9350000Y-16536000D01*
X9398000Y-5103500D02*
X9398000Y-5183500D01*
X9358000Y-5143500D02*
X9438000Y-5143500D01*
X9398000Y-5865500D02*
X9398000Y-5945500D01*
X9358000Y-5905500D02*
X9438000Y-5905500D01*
X9398000Y-6246500D02*
X9398000Y-6326500D01*
X9358000Y-6286500D02*
X9438000Y-6286500D01*
X9552000Y-15192000D02*
X9552000Y-15272000D01*
X9512000Y-15232000D02*
X9592000Y-15232000D01*
X9552000Y-15954000D02*
X9552000Y-16034000D01*
X9512000Y-15994000D02*
X9592000Y-15994000D01*
X9652000Y-5103500D02*
X9652000Y-5183500D01*
X9612000Y-5143500D02*
X9692000Y-5143500D01*
X9652000Y-5865500D02*
X9652000Y-5945500D01*
X9612000Y-5905500D02*
X9692000Y-5905500D01*
X9652000Y-9167500D02*
X9652000Y-9247500D01*
X9612000Y-9207500D02*
X9692000Y-9207500D01*
X9652000Y-9667500D02*
X9652000Y-9747500D01*
X9612000Y-9707500D02*
X9692000Y-9707500D01*
X9806000Y-15192000D02*
X9806000Y-15272000D01*
X9766000Y-15232000D02*
X9846000Y-15232000D01*
X9806000Y-15954000D02*
X9806000Y-16034000D01*
X9766000Y-15994000D02*
X9846000Y-15994000D01*
X9810000Y-16496000D02*
X9810000Y-16576000D01*
X9770000Y-16536000D02*
X9850000Y-16536000D01*
X10060000Y-15192000D02*
X10060000Y-15272000D01*
X10020000Y-15232000D02*
X10100000Y-15232000D01*
X10060000Y-15954000D02*
X10060000Y-16034000D01*
X10020000Y-15994000D02*
X10100000Y-15994000D01*
X10185400Y-9154800D02*
X10185400Y-9234800D01*
X10145400Y-9194800D02*
X10225400Y-9194800D01*
X10185400Y-9916800D02*
X10185400Y-9996800D01*
X10145400Y-9956800D02*
X10225400Y-9956800D01*
X10314000Y-15192000D02*
X10314000Y-15272000D01*
X10274000Y-15232000D02*
X10354000Y-15232000D01*
X10314000Y-15954000D02*
X10314000Y-16034000D01*
X10274000Y-15994000D02*
X10354000Y-15994000D01*
X10439400Y-9154800D02*
X10439400Y-9234800D01*
X10399400Y-9194800D02*
X10479400Y-9194800D01*
X10439400Y-9916800D02*
X10439400Y-9996800D01*
X10399400Y-9956800D02*
X10479400Y-9956800D01*
X10560000Y-16496000D02*
X10560000Y-16576000D01*
X10520000Y-16536000D02*
X10600000Y-16536000D01*
X10560000Y-16996000D02*
X10560000Y-17076000D01*
X10520000Y-17036000D02*
X10600000Y-17036000D01*
X10560000Y-17246000D02*
X10560000Y-17326000D01*
X10520000Y-17286000D02*
X10600000Y-17286000D01*
X10568000Y-15192000D02*
X10568000Y-15272000D01*
X10528000Y-15232000D02*
X10608000Y-15232000D01*
X10568000Y-15954000D02*
X10568000Y-16034000D01*
X10528000Y-15994000D02*
X10608000Y-15994000D01*
X10693400Y-9154800D02*
X10693400Y-9234800D01*
X10653400Y-9194800D02*
X10733400Y-9194800D01*
X10693400Y-9916800D02*
X10693400Y-9996800D01*
X10653400Y-9956800D02*
X10733400Y-9956800D01*
X10822000Y-15192000D02*
X10822000Y-15272000D01*
X10782000Y-15232000D02*
X10862000Y-15232000D01*
X10822000Y-15954000D02*
X10822000Y-16034000D01*
X10782000Y-15994000D02*
X10862000Y-15994000D01*
X10947400Y-9154800D02*
X10947400Y-9234800D01*
X10907400Y-9194800D02*
X10987400Y-9194800D01*
X10947400Y-9916800D02*
X10947400Y-9996800D01*
X10907400Y-9956800D02*
X10987400Y-9956800D01*
X11048000Y-16496000D02*
X11048000Y-16576000D01*
X11008000Y-16536000D02*
X11088000Y-16536000D01*
X11060000Y-16996000D02*
X11060000Y-17076000D01*
X11020000Y-17036000D02*
X11100000Y-17036000D01*
X11060000Y-17246000D02*
X11060000Y-17326000D01*
X11020000Y-17286000D02*
X11100000Y-17286000D01*
X11076000Y-15192000D02*
X11076000Y-15272000D01*
X11036000Y-15232000D02*
X11116000Y-15232000D01*
X11076000Y-15954000D02*
X11076000Y-16034000D01*
X11036000Y-15994000D02*
X11116000Y-15994000D01*
X11201400Y-9154800D02*
X11201400Y-9234800D01*
X11161400Y-9194800D02*
X11241400Y-9194800D01*
X11201400Y-9916800D02*
X11201400Y-9996800D01*
X11161400Y-9956800D02*
X11241400Y-9956800D01*
X11330000Y-15192000D02*
X11330000Y-15272000D01*
X11290000Y-15232000D02*
X11370000Y-15232000D01*
X11330000Y-15954000D02*
X11330000Y-16034000D01*
X11290000Y-15994000D02*
X11370000Y-15994000D01*
X11455400Y-9154800D02*
X11455400Y-9234800D01*
X11415400Y-9194800D02*
X11495400Y-9194800D01*
X11455400Y-9916800D02*
X11455400Y-9996800D01*
X11415400Y-9956800D02*
X11495400Y-9956800D01*
X11684000Y-11466200D02*
X11684000Y-11546200D01*
X11644000Y-11506200D02*
X11724000Y-11506200D01*
X11684000Y-12482200D02*
X11684000Y-12562200D01*
X11644000Y-12522200D02*
X11724000Y-12522200D01*
X11709400Y-9154800D02*
X11709400Y-9234800D01*
X11669400Y-9194800D02*
X11749400Y-9194800D01*
X11709400Y-9916800D02*
X11709400Y-9996800D01*
X11669400Y-9956800D02*
X11749400Y-9956800D01*
X12039600Y-11466200D02*
X12039600Y-11546200D01*
X11999600Y-11506200D02*
X12079600Y-11506200D01*
X12039600Y-12482200D02*
X12039600Y-12562200D01*
X11999600Y-12522200D02*
X12079600Y-12522200D01*
X12877800Y-9535800D02*
X12877800Y-9615800D01*
X12837800Y-9575800D02*
X12917800Y-9575800D01*
X12877800Y-10551800D02*
X12877800Y-10631800D01*
X12837800Y-10591800D02*
X12917800Y-10591800D01*
X13208000Y-6437000D02*
X13208000Y-6517000D01*
X13168000Y-6477000D02*
X13248000Y-6477000D01*
X13208000Y-7453000D02*
X13208000Y-7533000D01*
X13168000Y-7493000D02*
X13248000Y-7493000D01*
D14*
X5746820Y-2825820D02*
X5746820Y-2762180D01*
X5683180Y-2762180D01*
X5683180Y-2825820D01*
X5746820Y-2825820D01*
X6762820Y-2825820D02*
X6762820Y-2762180D01*
X6699180Y-2762180D01*
X6699180Y-2825820D01*
X6762820Y-2825820D01*
X11131620Y-5416620D02*
X11131620Y-5352980D01*
X11067980Y-5352980D01*
X11067980Y-5416620D01*
X11131620Y-5416620D01*
X11131620Y-5670620D02*
X11131620Y-5606980D01*
X11067980Y-5606980D01*
X11067980Y-5670620D01*
X11131620Y-5670620D01*
X13303320Y-11080820D02*
X13303320Y-11017180D01*
X13239680Y-11017180D01*
X13239680Y-11080820D01*
X13303320Y-11080820D01*
X13303320Y-11334820D02*
X13303320Y-11271180D01*
X13239680Y-11271180D01*
X13239680Y-11334820D01*
X13303320Y-11334820D01*
D15*
X4508500Y-3669500D02*
X4558500Y-3619500D01*
X4508500Y-3569500D01*
X4458500Y-3619500D01*
X4508500Y-3669500D01*
X4508500Y-3923500D02*
X4558500Y-3873500D01*
X4508500Y-3823500D01*
X4458500Y-3873500D01*
X4508500Y-3923500D01*
X4508500Y-4177500D02*
X4558500Y-4127500D01*
X4508500Y-4077500D01*
X4458500Y-4127500D01*
X4508500Y-4177500D01*
X4508500Y-4431500D02*
X4558500Y-4381500D01*
X4508500Y-4331500D01*
X4458500Y-4381500D01*
X4508500Y-4431500D01*
X4508500Y-4685500D02*
X4558500Y-4635500D01*
X4508500Y-4585500D01*
X4458500Y-4635500D01*
X4508500Y-4685500D01*
X4508500Y-4939500D02*
X4558500Y-4889500D01*
X4508500Y-4839500D01*
X4458500Y-4889500D01*
X4508500Y-4939500D01*
X4508500Y-5193500D02*
X4558500Y-5143500D01*
X4508500Y-5093500D01*
X4458500Y-5143500D01*
X4508500Y-5193500D01*
X4508500Y-5447500D02*
X4558500Y-5397500D01*
X4508500Y-5347500D01*
X4458500Y-5397500D01*
X4508500Y-5447500D01*
X4508500Y-5701500D02*
X4558500Y-5651500D01*
X4508500Y-5601500D01*
X4458500Y-5651500D01*
X4508500Y-5701500D01*
X4508500Y-5955500D02*
X4558500Y-5905500D01*
X4508500Y-5855500D01*
X4458500Y-5905500D01*
X4508500Y-5955500D01*
X4699000Y-13702500D02*
X4749000Y-13652500D01*
X4699000Y-13602500D01*
X4649000Y-13652500D01*
X4699000Y-13702500D01*
X4699000Y-14210500D02*
X4749000Y-14160500D01*
X4699000Y-14110500D01*
X4649000Y-14160500D01*
X4699000Y-14210500D01*
X4699000Y-15925000D02*
X4749000Y-15875000D01*
X4699000Y-15825000D01*
X4649000Y-15875000D01*
X4699000Y-15925000D01*
X4699000Y-16433000D02*
X4749000Y-16383000D01*
X4699000Y-16333000D01*
X4649000Y-16383000D01*
X4699000Y-16433000D01*
X4762500Y-3669500D02*
X4812500Y-3619500D01*
X4762500Y-3569500D01*
X4712500Y-3619500D01*
X4762500Y-3669500D01*
X4762500Y-3923500D02*
X4812500Y-3873500D01*
X4762500Y-3823500D01*
X4712500Y-3873500D01*
X4762500Y-3923500D01*
X4762500Y-4177500D02*
X4812500Y-4127500D01*
X4762500Y-4077500D01*
X4712500Y-4127500D01*
X4762500Y-4177500D01*
X4762500Y-4431500D02*
X4812500Y-4381500D01*
X4762500Y-4331500D01*
X4712500Y-4381500D01*
X4762500Y-4431500D01*
X4762500Y-4685500D02*
X4812500Y-4635500D01*
X4762500Y-4585500D01*
X4712500Y-4635500D01*
X4762500Y-4685500D01*
X4762500Y-4939500D02*
X4812500Y-4889500D01*
X4762500Y-4839500D01*
X4712500Y-4889500D01*
X4762500Y-4939500D01*
X4762500Y-5193500D02*
X4812500Y-5143500D01*
X4762500Y-5093500D01*
X4712500Y-5143500D01*
X4762500Y-5193500D01*
X4762500Y-5447500D02*
X4812500Y-5397500D01*
X4762500Y-5347500D01*
X4712500Y-5397500D01*
X4762500Y-5447500D01*
X4762500Y-5701500D02*
X4812500Y-5651500D01*
X4762500Y-5601500D01*
X4712500Y-5651500D01*
X4762500Y-5701500D01*
X4762500Y-5955500D02*
X4812500Y-5905500D01*
X4762500Y-5855500D01*
X4712500Y-5905500D01*
X4762500Y-5955500D01*
X5461000Y-13702500D02*
X5511000Y-13652500D01*
X5461000Y-13602500D01*
X5411000Y-13652500D01*
X5461000Y-13702500D01*
X5461000Y-14210500D02*
X5511000Y-14160500D01*
X5461000Y-14110500D01*
X5411000Y-14160500D01*
X5461000Y-14210500D01*
X5461000Y-15925000D02*
X5511000Y-15875000D01*
X5461000Y-15825000D01*
X5411000Y-15875000D01*
X5461000Y-15925000D01*
X5461000Y-16433000D02*
X5511000Y-16383000D01*
X5461000Y-16333000D01*
X5411000Y-16383000D01*
X5461000Y-16433000D01*
X10312900Y-14323300D02*
X10362900Y-14273300D01*
X10312900Y-14223300D01*
X10262900Y-14273300D01*
X10312900Y-14323300D01*
X10312900Y-14577300D02*
X10362900Y-14527300D01*
X10312900Y-14477300D01*
X10262900Y-14527300D01*
X10312900Y-14577300D01*
X10312900Y-14831300D02*
X10362900Y-14781300D01*
X10312900Y-14731300D01*
X10262900Y-14781300D01*
X10312900Y-14831300D01*
X10566900Y-14323300D02*
X10616900Y-14273300D01*
X10566900Y-14223300D01*
X10516900Y-14273300D01*
X10566900Y-14323300D01*
X10566900Y-14577300D02*
X10616900Y-14527300D01*
X10566900Y-14477300D01*
X10516900Y-14527300D01*
X10566900Y-14577300D01*
X10566900Y-14831300D02*
X10616900Y-14781300D01*
X10566900Y-14731300D01*
X10516900Y-14781300D01*
X10566900Y-14831300D01*
X13081000Y-3669500D02*
X13131000Y-3619500D01*
X13081000Y-3569500D01*
X13031000Y-3619500D01*
X13081000Y-3669500D01*
X13081000Y-3923500D02*
X13131000Y-3873500D01*
X13081000Y-3823500D01*
X13031000Y-3873500D01*
X13081000Y-3923500D01*
X13081000Y-4177500D02*
X13131000Y-4127500D01*
X13081000Y-4077500D01*
X13031000Y-4127500D01*
X13081000Y-4177500D01*
X13081000Y-4431500D02*
X13131000Y-4381500D01*
X13081000Y-4331500D01*
X13031000Y-4381500D01*
X13081000Y-4431500D01*
X13081000Y-4685500D02*
X13131000Y-4635500D01*
X13081000Y-4585500D01*
X13031000Y-4635500D01*
X13081000Y-4685500D01*
X13081000Y-4939500D02*
X13131000Y-4889500D01*
X13081000Y-4839500D01*
X13031000Y-4889500D01*
X13081000Y-4939500D01*
X13081000Y-5193500D02*
X13131000Y-5143500D01*
X13081000Y-5093500D01*
X13031000Y-5143500D01*
X13081000Y-5193500D01*
X13081000Y-5447500D02*
X13131000Y-5397500D01*
X13081000Y-5347500D01*
X13031000Y-5397500D01*
X13081000Y-5447500D01*
X13081000Y-5701500D02*
X13131000Y-5651500D01*
X13081000Y-5601500D01*
X13031000Y-5651500D01*
X13081000Y-5701500D01*
X13081000Y-5955500D02*
X13131000Y-5905500D01*
X13081000Y-5855500D01*
X13031000Y-5905500D01*
X13081000Y-5955500D01*
X13335000Y-3669500D02*
X13385000Y-3619500D01*
X13335000Y-3569500D01*
X13285000Y-3619500D01*
X13335000Y-3669500D01*
X13335000Y-3923500D02*
X13385000Y-3873500D01*
X13335000Y-3823500D01*
X13285000Y-3873500D01*
X13335000Y-3923500D01*
X13335000Y-4177500D02*
X13385000Y-4127500D01*
X13335000Y-4077500D01*
X13285000Y-4127500D01*
X13335000Y-4177500D01*
X13335000Y-4431500D02*
X13385000Y-4381500D01*
X13335000Y-4331500D01*
X13285000Y-4381500D01*
X13335000Y-4431500D01*
X13335000Y-4685500D02*
X13385000Y-4635500D01*
X13335000Y-4585500D01*
X13285000Y-4635500D01*
X13335000Y-4685500D01*
X13335000Y-4939500D02*
X13385000Y-4889500D01*
X13335000Y-4839500D01*
X13285000Y-4889500D01*
X13335000Y-4939500D01*
X13335000Y-5193500D02*
X13385000Y-5143500D01*
X13335000Y-5093500D01*
X13285000Y-5143500D01*
X13335000Y-5193500D01*
X13335000Y-5447500D02*
X13385000Y-5397500D01*
X13335000Y-5347500D01*
X13285000Y-5397500D01*
X13335000Y-5447500D01*
X13335000Y-5701500D02*
X13385000Y-5651500D01*
X13335000Y-5601500D01*
X13285000Y-5651500D01*
X13335000Y-5701500D01*
X13335000Y-5955500D02*
X13385000Y-5905500D01*
X13335000Y-5855500D01*
X13285000Y-5905500D01*
X13335000Y-5955500D01*
D16*
X4644000Y-14867500D02*
X4754000Y-14977500D01*
X4754000Y-14867500D02*
X4644000Y-14977500D01*
X4754000Y-14922500D02*
G75*
G03*
X4754000Y-14922500I-55000J0D01*
G01*
X4644000Y-17090000D02*
X4754000Y-17200000D01*
X4754000Y-17090000D02*
X4644000Y-17200000D01*
X4754000Y-17145000D02*
G75*
G03*
X4754000Y-17145000I-55000J0D01*
G01*
X5406000Y-13343500D02*
X5516000Y-13453500D01*
X5516000Y-13343500D02*
X5406000Y-13453500D01*
X5516000Y-13398500D02*
G75*
G03*
X5516000Y-13398500I-55000J0D01*
G01*
X5406000Y-15566000D02*
X5516000Y-15676000D01*
X5516000Y-15566000D02*
X5406000Y-15676000D01*
X5516000Y-15621000D02*
G75*
G03*
X5516000Y-15621000I-55000J0D01*
G01*
D17*
X4957000Y-2861500D02*
X5076000Y-2980500D01*
X5076000Y-2861500D02*
X4957000Y-2980500D01*
X5016500Y-2861500D02*
X5016500Y-2980500D01*
X4957000Y-2921000D02*
X5076000Y-2921000D01*
X5211000Y-2861500D02*
X5330000Y-2980500D01*
X5330000Y-2861500D02*
X5211000Y-2980500D01*
X5270500Y-2861500D02*
X5270500Y-2980500D01*
X5211000Y-2921000D02*
X5330000Y-2921000D01*
X13148500Y-8132000D02*
X13267500Y-8251000D01*
X13267500Y-8132000D02*
X13148500Y-8251000D01*
X13208000Y-8132000D02*
X13208000Y-8251000D01*
X13148500Y-8191500D02*
X13267500Y-8191500D01*
X13148500Y-8386000D02*
X13267500Y-8505000D01*
X13267500Y-8386000D02*
X13148500Y-8505000D01*
X13208000Y-8386000D02*
X13208000Y-8505000D01*
X13148500Y-8445500D02*
X13267500Y-8445500D01*
X13148500Y-8640000D02*
X13267500Y-8759000D01*
X13267500Y-8640000D02*
X13148500Y-8759000D01*
X13208000Y-8640000D02*
X13208000Y-8759000D01*
X13148500Y-8699500D02*
X13267500Y-8699500D01*
X13148500Y-12450000D02*
X13267500Y-12569000D01*
X13267500Y-12450000D02*
X13148500Y-12569000D01*
X13208000Y-12450000D02*
X13208000Y-12569000D01*
X13148500Y-12509500D02*
X13267500Y-12509500D01*
X13148500Y-12704000D02*
X13267500Y-12823000D01*
X13267500Y-12704000D02*
X13148500Y-12823000D01*
X13208000Y-12704000D02*
X13208000Y-12823000D01*
X13148500Y-12763500D02*
X13267500Y-12763500D01*
X13148500Y-12958000D02*
X13267500Y-13077000D01*
X13267500Y-12958000D02*
X13148500Y-13077000D01*
X13208000Y-12958000D02*
X13208000Y-13077000D01*
X13148500Y-13017500D02*
X13267500Y-13017500D01*
X13148500Y-14799500D02*
X13267500Y-14918500D01*
X13267500Y-14799500D02*
X13148500Y-14918500D01*
X13208000Y-14799500D02*
X13208000Y-14918500D01*
X13148500Y-14859000D02*
X13267500Y-14859000D01*
X13148500Y-15053500D02*
X13267500Y-15172500D01*
X13267500Y-15053500D02*
X13148500Y-15172500D01*
X13208000Y-15053500D02*
X13208000Y-15172500D01*
X13148500Y-15113000D02*
X13267500Y-15113000D01*
X13148500Y-15307500D02*
X13267500Y-15426500D01*
X13267500Y-15307500D02*
X13148500Y-15426500D01*
X13208000Y-15307500D02*
X13208000Y-15426500D01*
X13148500Y-15367000D02*
X13267500Y-15367000D01*
X13148500Y-15879000D02*
X13267500Y-15998000D01*
X13267500Y-15879000D02*
X13148500Y-15998000D01*
X13208000Y-15879000D02*
X13208000Y-15998000D01*
X13148500Y-15938500D02*
X13267500Y-15938500D01*
X13148500Y-16133000D02*
X13267500Y-16252000D01*
X13267500Y-16133000D02*
X13148500Y-16252000D01*
X13208000Y-16133000D02*
X13208000Y-16252000D01*
X13148500Y-16192500D02*
X13267500Y-16192500D01*
X13148500Y-16577500D02*
X13267500Y-16696500D01*
X13267500Y-16577500D02*
X13148500Y-16696500D01*
X13208000Y-16577500D02*
X13208000Y-16696500D01*
X13148500Y-16637000D02*
X13267500Y-16637000D01*
X13148500Y-16831500D02*
X13267500Y-16950500D01*
X13267500Y-16831500D02*
X13148500Y-16950500D01*
X13208000Y-16831500D02*
X13208000Y-16950500D01*
X13148500Y-16891000D02*
X13267500Y-16891000D01*
D18*
X6051000Y-9137800D02*
X6181000Y-9267800D01*
X6181000Y-9137800D02*
X6051000Y-9267800D01*
X6161962Y-9248762D02*
X6161962Y-9156838D01*
X6070038Y-9156838D01*
X6070038Y-9248762D01*
X6161962Y-9248762D01*
X6051000Y-10137800D02*
X6181000Y-10267800D01*
X6181000Y-10137800D02*
X6051000Y-10267800D01*
X6161962Y-10248762D02*
X6161962Y-10156838D01*
X6070038Y-10156838D01*
X6070038Y-10248762D01*
X6161962Y-10248762D01*
X7301000Y-9637800D02*
X7431000Y-9767800D01*
X7431000Y-9637800D02*
X7301000Y-9767800D01*
X7411962Y-9748762D02*
X7411962Y-9656838D01*
X7320038Y-9656838D01*
X7320038Y-9748762D01*
X7411962Y-9748762D01*
D19*
X4543171Y-11566271D02*
X4727829Y-11750929D01*
X4727829Y-11566271D02*
X4543171Y-11750929D01*
X4635500Y-11750929D02*
X4727829Y-11658600D01*
X4635500Y-11566271D01*
X4543171Y-11658600D01*
X4635500Y-11750929D01*
X4543171Y-12036171D02*
X4727829Y-12220829D01*
X4727829Y-12036171D02*
X4543171Y-12220829D01*
X4635500Y-12220829D02*
X4727829Y-12128500D01*
X4635500Y-12036171D01*
X4543171Y-12128500D01*
X4635500Y-12220829D01*
X4543171Y-12506071D02*
X4727829Y-12690729D01*
X4727829Y-12506071D02*
X4543171Y-12690729D01*
X4635500Y-12690729D02*
X4727829Y-12598400D01*
X4635500Y-12506071D01*
X4543171Y-12598400D01*
X4635500Y-12690729D01*
X4555871Y-9115171D02*
X4740529Y-9299829D01*
X4740529Y-9115171D02*
X4555871Y-9299829D01*
X4648200Y-9299829D02*
X4740529Y-9207500D01*
X4648200Y-9115171D01*
X4555871Y-9207500D01*
X4648200Y-9299829D01*
X4555871Y-9585071D02*
X4740529Y-9769729D01*
X4740529Y-9585071D02*
X4555871Y-9769729D01*
X4648200Y-9769729D02*
X4740529Y-9677400D01*
X4648200Y-9585071D01*
X4555871Y-9677400D01*
X4648200Y-9769729D01*
X4555871Y-10054971D02*
X4740529Y-10239629D01*
X4740529Y-10054971D02*
X4555871Y-10239629D01*
X4648200Y-10239629D02*
X4740529Y-10147300D01*
X4648200Y-10054971D01*
X4555871Y-10147300D01*
X4648200Y-10239629D01*
X4860671Y-7184771D02*
X5045329Y-7369429D01*
X5045329Y-7184771D02*
X4860671Y-7369429D01*
X4953000Y-7369429D02*
X5045329Y-7277100D01*
X4953000Y-7184771D01*
X4860671Y-7277100D01*
X4953000Y-7369429D01*
X4860671Y-7654671D02*
X5045329Y-7839329D01*
X5045329Y-7654671D02*
X4860671Y-7839329D01*
X4953000Y-7839329D02*
X5045329Y-7747000D01*
X4953000Y-7654671D01*
X4860671Y-7747000D01*
X4953000Y-7839329D01*
X4860671Y-8124571D02*
X5045329Y-8309229D01*
X5045329Y-8124571D02*
X4860671Y-8309229D01*
X4953000Y-8309229D02*
X5045329Y-8216900D01*
X4953000Y-8124571D01*
X4860671Y-8216900D01*
X4953000Y-8309229D01*
X5876671Y-7184771D02*
X6061329Y-7369429D01*
X6061329Y-7184771D02*
X5876671Y-7369429D01*
X5969000Y-7369429D02*
X6061329Y-7277100D01*
X5969000Y-7184771D01*
X5876671Y-7277100D01*
X5969000Y-7369429D01*
X5876671Y-7654671D02*
X6061329Y-7839329D01*
X6061329Y-7654671D02*
X5876671Y-7839329D01*
X5969000Y-7839329D02*
X6061329Y-7747000D01*
X5969000Y-7654671D01*
X5876671Y-7747000D01*
X5969000Y-7839329D01*
X5876671Y-8124571D02*
X6061329Y-8309229D01*
X6061329Y-8124571D02*
X5876671Y-8309229D01*
X5969000Y-8309229D02*
X6061329Y-8216900D01*
X5969000Y-8124571D01*
X5876671Y-8216900D01*
X5969000Y-8309229D01*
X6892671Y-7184771D02*
X7077329Y-7369429D01*
X7077329Y-7184771D02*
X6892671Y-7369429D01*
X6985000Y-7369429D02*
X7077329Y-7277100D01*
X6985000Y-7184771D01*
X6892671Y-7277100D01*
X6985000Y-7369429D01*
X6892671Y-7654671D02*
X7077329Y-7839329D01*
X7077329Y-7654671D02*
X6892671Y-7839329D01*
X6985000Y-7839329D02*
X7077329Y-7747000D01*
X6985000Y-7654671D01*
X6892671Y-7747000D01*
X6985000Y-7839329D01*
X6892671Y-8124571D02*
X7077329Y-8309229D01*
X7077329Y-8124571D02*
X6892671Y-8309229D01*
X6985000Y-8309229D02*
X7077329Y-8216900D01*
X6985000Y-8124571D01*
X6892671Y-8216900D01*
X6985000Y-8309229D01*
X7908671Y-7184771D02*
X8093329Y-7369429D01*
X8093329Y-7184771D02*
X7908671Y-7369429D01*
X8001000Y-7369429D02*
X8093329Y-7277100D01*
X8001000Y-7184771D01*
X7908671Y-7277100D01*
X8001000Y-7369429D01*
X7908671Y-7654671D02*
X8093329Y-7839329D01*
X8093329Y-7654671D02*
X7908671Y-7839329D01*
X8001000Y-7839329D02*
X8093329Y-7747000D01*
X8001000Y-7654671D01*
X7908671Y-7747000D01*
X8001000Y-7839329D01*
X7908671Y-8124571D02*
X8093329Y-8309229D01*
X8093329Y-8124571D02*
X7908671Y-8309229D01*
X8001000Y-8309229D02*
X8093329Y-8216900D01*
X8001000Y-8124571D01*
X7908671Y-8216900D01*
X8001000Y-8309229D01*
X8924671Y-7184771D02*
X9109329Y-7369429D01*
X9109329Y-7184771D02*
X8924671Y-7369429D01*
X9017000Y-7369429D02*
X9109329Y-7277100D01*
X9017000Y-7184771D01*
X8924671Y-7277100D01*
X9017000Y-7369429D01*
X8924671Y-7654671D02*
X9109329Y-7839329D01*
X9109329Y-7654671D02*
X8924671Y-7839329D01*
X9017000Y-7839329D02*
X9109329Y-7747000D01*
X9017000Y-7654671D01*
X8924671Y-7747000D01*
X9017000Y-7839329D01*
X8924671Y-8124571D02*
X9109329Y-8309229D01*
X9109329Y-8124571D02*
X8924671Y-8309229D01*
X9017000Y-8309229D02*
X9109329Y-8216900D01*
X9017000Y-8124571D01*
X8924671Y-8216900D01*
X9017000Y-8309229D01*
X9940671Y-7184771D02*
X10125329Y-7369429D01*
X10125329Y-7184771D02*
X9940671Y-7369429D01*
X10033000Y-7369429D02*
X10125329Y-7277100D01*
X10033000Y-7184771D01*
X9940671Y-7277100D01*
X10033000Y-7369429D01*
X9940671Y-7654671D02*
X10125329Y-7839329D01*
X10125329Y-7654671D02*
X9940671Y-7839329D01*
X10033000Y-7839329D02*
X10125329Y-7747000D01*
X10033000Y-7654671D01*
X9940671Y-7747000D01*
X10033000Y-7839329D01*
X9940671Y-8124571D02*
X10125329Y-8309229D01*
X10125329Y-8124571D02*
X9940671Y-8309229D01*
X10033000Y-8309229D02*
X10125329Y-8216900D01*
X10033000Y-8124571D01*
X9940671Y-8216900D01*
X10033000Y-8309229D01*
X10956671Y-7184771D02*
X11141329Y-7369429D01*
X11141329Y-7184771D02*
X10956671Y-7369429D01*
X11049000Y-7369429D02*
X11141329Y-7277100D01*
X11049000Y-7184771D01*
X10956671Y-7277100D01*
X11049000Y-7369429D01*
X10956671Y-7654671D02*
X11141329Y-7839329D01*
X11141329Y-7654671D02*
X10956671Y-7839329D01*
X11049000Y-7839329D02*
X11141329Y-7747000D01*
X11049000Y-7654671D01*
X10956671Y-7747000D01*
X11049000Y-7839329D01*
X10956671Y-8124571D02*
X11141329Y-8309229D01*
X11141329Y-8124571D02*
X10956671Y-8309229D01*
X11049000Y-8309229D02*
X11141329Y-8216900D01*
X11049000Y-8124571D01*
X10956671Y-8216900D01*
X11049000Y-8309229D01*
X11693271Y-13941171D02*
X11877929Y-14125829D01*
X11877929Y-13941171D02*
X11693271Y-14125829D01*
X11785600Y-14125829D02*
X11877929Y-14033500D01*
X11785600Y-13941171D01*
X11693271Y-14033500D01*
X11785600Y-14125829D01*
X11972671Y-7184771D02*
X12157329Y-7369429D01*
X12157329Y-7184771D02*
X11972671Y-7369429D01*
X12065000Y-7369429D02*
X12157329Y-7277100D01*
X12065000Y-7184771D01*
X11972671Y-7277100D01*
X12065000Y-7369429D01*
X11972671Y-7654671D02*
X12157329Y-7839329D01*
X12157329Y-7654671D02*
X11972671Y-7839329D01*
X12065000Y-7839329D02*
X12157329Y-7747000D01*
X12065000Y-7654671D01*
X11972671Y-7747000D01*
X12065000Y-7839329D01*
X11972671Y-8124571D02*
X12157329Y-8309229D01*
X12157329Y-8124571D02*
X11972671Y-8309229D01*
X12065000Y-8309229D02*
X12157329Y-8216900D01*
X12065000Y-8124571D01*
X11972671Y-8216900D01*
X12065000Y-8309229D01*
X12163171Y-13941171D02*
X12347829Y-14125829D01*
X12347829Y-13941171D02*
X12163171Y-14125829D01*
X12255500Y-14125829D02*
X12347829Y-14033500D01*
X12255500Y-13941171D01*
X12163171Y-14033500D01*
X12255500Y-14125829D01*
X12633071Y-13941171D02*
X12817729Y-14125829D01*
X12817729Y-13941171D02*
X12633071Y-14125829D01*
X12725400Y-14125829D02*
X12817729Y-14033500D01*
X12725400Y-13941171D01*
X12633071Y-14033500D01*
X12725400Y-14125829D01*
D10*
X4051777Y-18616484D02*
X4051777Y-18416484D01*
X4051777Y-18416484D02*
X4099396Y-18416484D01*
X4099396Y-18416484D02*
X4127967Y-18426008D01*
X4127967Y-18426008D02*
X4147015Y-18445055D01*
X4147015Y-18445055D02*
X4156539Y-18464103D01*
X4156539Y-18464103D02*
X4166062Y-18502198D01*
X4166062Y-18502198D02*
X4166062Y-18530770D01*
X4166062Y-18530770D02*
X4156539Y-18568865D01*
X4156539Y-18568865D02*
X4147015Y-18587912D01*
X4147015Y-18587912D02*
X4127967Y-18606960D01*
X4127967Y-18606960D02*
X4099396Y-18616484D01*
X4099396Y-18616484D02*
X4051777Y-18616484D01*
X4251777Y-18616484D02*
X4251777Y-18483150D01*
X4251777Y-18521246D02*
X4261301Y-18502198D01*
X4261301Y-18502198D02*
X4270824Y-18492674D01*
X4270824Y-18492674D02*
X4289872Y-18483150D01*
X4289872Y-18483150D02*
X4308920Y-18483150D01*
X4375586Y-18616484D02*
X4375586Y-18483150D01*
X4375586Y-18416484D02*
X4366063Y-18426008D01*
X4366063Y-18426008D02*
X4375586Y-18435531D01*
X4375586Y-18435531D02*
X4385110Y-18426008D01*
X4385110Y-18426008D02*
X4375586Y-18416484D01*
X4375586Y-18416484D02*
X4375586Y-18435531D01*
X4499396Y-18616484D02*
X4480348Y-18606960D01*
X4480348Y-18606960D02*
X4470824Y-18587912D01*
X4470824Y-18587912D02*
X4470824Y-18416484D01*
X4604158Y-18616484D02*
X4585110Y-18606960D01*
X4585110Y-18606960D02*
X4575586Y-18587912D01*
X4575586Y-18587912D02*
X4575586Y-18416484D01*
X4832729Y-18616484D02*
X4832729Y-18416484D01*
X4832729Y-18416484D02*
X4899396Y-18559341D01*
X4899396Y-18559341D02*
X4966063Y-18416484D01*
X4966063Y-18416484D02*
X4966063Y-18616484D01*
X5147015Y-18616484D02*
X5147015Y-18511722D01*
X5147015Y-18511722D02*
X5137491Y-18492674D01*
X5137491Y-18492674D02*
X5118444Y-18483150D01*
X5118444Y-18483150D02*
X5080348Y-18483150D01*
X5080348Y-18483150D02*
X5061301Y-18492674D01*
X5147015Y-18606960D02*
X5127967Y-18616484D01*
X5127967Y-18616484D02*
X5080348Y-18616484D01*
X5080348Y-18616484D02*
X5061301Y-18606960D01*
X5061301Y-18606960D02*
X5051777Y-18587912D01*
X5051777Y-18587912D02*
X5051777Y-18568865D01*
X5051777Y-18568865D02*
X5061301Y-18549817D01*
X5061301Y-18549817D02*
X5080348Y-18540293D01*
X5080348Y-18540293D02*
X5127967Y-18540293D01*
X5127967Y-18540293D02*
X5147015Y-18530770D01*
X5242253Y-18483150D02*
X5242253Y-18683150D01*
X5242253Y-18492674D02*
X5261301Y-18483150D01*
X5261301Y-18483150D02*
X5299396Y-18483150D01*
X5299396Y-18483150D02*
X5318444Y-18492674D01*
X5318444Y-18492674D02*
X5327967Y-18502198D01*
X5327967Y-18502198D02*
X5337491Y-18521246D01*
X5337491Y-18521246D02*
X5337491Y-18578389D01*
X5337491Y-18578389D02*
X5327967Y-18597436D01*
X5327967Y-18597436D02*
X5318444Y-18606960D01*
X5318444Y-18606960D02*
X5299396Y-18616484D01*
X5299396Y-18616484D02*
X5261301Y-18616484D01*
X5261301Y-18616484D02*
X5242253Y-18606960D01*
X5423205Y-18597436D02*
X5432729Y-18606960D01*
X5432729Y-18606960D02*
X5423205Y-18616484D01*
X5423205Y-18616484D02*
X5413682Y-18606960D01*
X5413682Y-18606960D02*
X5423205Y-18597436D01*
X5423205Y-18597436D02*
X5423205Y-18616484D01*
X5423205Y-18492674D02*
X5432729Y-18502198D01*
X5432729Y-18502198D02*
X5423205Y-18511722D01*
X5423205Y-18511722D02*
X5413682Y-18502198D01*
X5413682Y-18502198D02*
X5423205Y-18492674D01*
X5423205Y-18492674D02*
X5423205Y-18511722D01*
D11*
X3751000Y-18925000D02*
X3791000Y-18965000D01*
X3791000Y-18925000D02*
X3751000Y-18965000D01*
D10*
X4089872Y-18836484D02*
X4108920Y-18836484D01*
X4108920Y-18836484D02*
X4127967Y-18846008D01*
X4127967Y-18846008D02*
X4137491Y-18855531D01*
X4137491Y-18855531D02*
X4147015Y-18874579D01*
X4147015Y-18874579D02*
X4156539Y-18912674D01*
X4156539Y-18912674D02*
X4156539Y-18960293D01*
X4156539Y-18960293D02*
X4147015Y-18998389D01*
X4147015Y-18998389D02*
X4137491Y-19017436D01*
X4137491Y-19017436D02*
X4127967Y-19026960D01*
X4127967Y-19026960D02*
X4108920Y-19036484D01*
X4108920Y-19036484D02*
X4089872Y-19036484D01*
X4089872Y-19036484D02*
X4070824Y-19026960D01*
X4070824Y-19026960D02*
X4061301Y-19017436D01*
X4061301Y-19017436D02*
X4051777Y-18998389D01*
X4051777Y-18998389D02*
X4042253Y-18960293D01*
X4042253Y-18960293D02*
X4042253Y-18912674D01*
X4042253Y-18912674D02*
X4051777Y-18874579D01*
X4051777Y-18874579D02*
X4061301Y-18855531D01*
X4061301Y-18855531D02*
X4070824Y-18846008D01*
X4070824Y-18846008D02*
X4089872Y-18836484D01*
X4242253Y-19017436D02*
X4251777Y-19026960D01*
X4251777Y-19026960D02*
X4242253Y-19036484D01*
X4242253Y-19036484D02*
X4232729Y-19026960D01*
X4232729Y-19026960D02*
X4242253Y-19017436D01*
X4242253Y-19017436D02*
X4242253Y-19036484D01*
X4423205Y-18903150D02*
X4423205Y-19036484D01*
X4375586Y-18826960D02*
X4327967Y-18969817D01*
X4327967Y-18969817D02*
X4451777Y-18969817D01*
X4566063Y-18836484D02*
X4585110Y-18836484D01*
X4585110Y-18836484D02*
X4604158Y-18846008D01*
X4604158Y-18846008D02*
X4613682Y-18855531D01*
X4613682Y-18855531D02*
X4623205Y-18874579D01*
X4623205Y-18874579D02*
X4632729Y-18912674D01*
X4632729Y-18912674D02*
X4632729Y-18960293D01*
X4632729Y-18960293D02*
X4623205Y-18998389D01*
X4623205Y-18998389D02*
X4613682Y-19017436D01*
X4613682Y-19017436D02*
X4604158Y-19026960D01*
X4604158Y-19026960D02*
X4585110Y-19036484D01*
X4585110Y-19036484D02*
X4566063Y-19036484D01*
X4566063Y-19036484D02*
X4547015Y-19026960D01*
X4547015Y-19026960D02*
X4537491Y-19017436D01*
X4537491Y-19017436D02*
X4527967Y-18998389D01*
X4527967Y-18998389D02*
X4518444Y-18960293D01*
X4518444Y-18960293D02*
X4518444Y-18912674D01*
X4518444Y-18912674D02*
X4527967Y-18874579D01*
X4527967Y-18874579D02*
X4537491Y-18855531D01*
X4537491Y-18855531D02*
X4547015Y-18846008D01*
X4547015Y-18846008D02*
X4566063Y-18836484D01*
X4756539Y-18836484D02*
X4775586Y-18836484D01*
X4775586Y-18836484D02*
X4794634Y-18846008D01*
X4794634Y-18846008D02*
X4804158Y-18855531D01*
X4804158Y-18855531D02*
X4813682Y-18874579D01*
X4813682Y-18874579D02*
X4823205Y-18912674D01*
X4823205Y-18912674D02*
X4823205Y-18960293D01*
X4823205Y-18960293D02*
X4813682Y-18998389D01*
X4813682Y-18998389D02*
X4804158Y-19017436D01*
X4804158Y-19017436D02*
X4794634Y-19026960D01*
X4794634Y-19026960D02*
X4775586Y-19036484D01*
X4775586Y-19036484D02*
X4756539Y-19036484D01*
X4756539Y-19036484D02*
X4737491Y-19026960D01*
X4737491Y-19026960D02*
X4727967Y-19017436D01*
X4727967Y-19017436D02*
X4718444Y-18998389D01*
X4718444Y-18998389D02*
X4708920Y-18960293D01*
X4708920Y-18960293D02*
X4708920Y-18912674D01*
X4708920Y-18912674D02*
X4718444Y-18874579D01*
X4718444Y-18874579D02*
X4727967Y-18855531D01*
X4727967Y-18855531D02*
X4737491Y-18846008D01*
X4737491Y-18846008D02*
X4756539Y-18836484D01*
X4908920Y-19036484D02*
X4908920Y-18903150D01*
X4908920Y-18922198D02*
X4918444Y-18912674D01*
X4918444Y-18912674D02*
X4937491Y-18903150D01*
X4937491Y-18903150D02*
X4966063Y-18903150D01*
X4966063Y-18903150D02*
X4985110Y-18912674D01*
X4985110Y-18912674D02*
X4994634Y-18931722D01*
X4994634Y-18931722D02*
X4994634Y-19036484D01*
X4994634Y-18931722D02*
X5004158Y-18912674D01*
X5004158Y-18912674D02*
X5023205Y-18903150D01*
X5023205Y-18903150D02*
X5051777Y-18903150D01*
X5051777Y-18903150D02*
X5070825Y-18912674D01*
X5070825Y-18912674D02*
X5080348Y-18931722D01*
X5080348Y-18931722D02*
X5080348Y-19036484D01*
X5175586Y-19036484D02*
X5175586Y-18903150D01*
X5175586Y-18922198D02*
X5185110Y-18912674D01*
X5185110Y-18912674D02*
X5204158Y-18903150D01*
X5204158Y-18903150D02*
X5232729Y-18903150D01*
X5232729Y-18903150D02*
X5251777Y-18912674D01*
X5251777Y-18912674D02*
X5261301Y-18931722D01*
X5261301Y-18931722D02*
X5261301Y-19036484D01*
X5261301Y-18931722D02*
X5270825Y-18912674D01*
X5270825Y-18912674D02*
X5289872Y-18903150D01*
X5289872Y-18903150D02*
X5318444Y-18903150D01*
X5318444Y-18903150D02*
X5337491Y-18912674D01*
X5337491Y-18912674D02*
X5347015Y-18931722D01*
X5347015Y-18931722D02*
X5347015Y-19036484D01*
X5737491Y-18826960D02*
X5566063Y-19084103D01*
X5994634Y-18836484D02*
X6013682Y-18836484D01*
X6013682Y-18836484D02*
X6032729Y-18846008D01*
X6032729Y-18846008D02*
X6042253Y-18855531D01*
X6042253Y-18855531D02*
X6051777Y-18874579D01*
X6051777Y-18874579D02*
X6061301Y-18912674D01*
X6061301Y-18912674D02*
X6061301Y-18960293D01*
X6061301Y-18960293D02*
X6051777Y-18998389D01*
X6051777Y-18998389D02*
X6042253Y-19017436D01*
X6042253Y-19017436D02*
X6032729Y-19026960D01*
X6032729Y-19026960D02*
X6013682Y-19036484D01*
X6013682Y-19036484D02*
X5994634Y-19036484D01*
X5994634Y-19036484D02*
X5975586Y-19026960D01*
X5975586Y-19026960D02*
X5966063Y-19017436D01*
X5966063Y-19017436D02*
X5956539Y-18998389D01*
X5956539Y-18998389D02*
X5947015Y-18960293D01*
X5947015Y-18960293D02*
X5947015Y-18912674D01*
X5947015Y-18912674D02*
X5956539Y-18874579D01*
X5956539Y-18874579D02*
X5966063Y-18855531D01*
X5966063Y-18855531D02*
X5975586Y-18846008D01*
X5975586Y-18846008D02*
X5994634Y-18836484D01*
X6147015Y-19017436D02*
X6156539Y-19026960D01*
X6156539Y-19026960D02*
X6147015Y-19036484D01*
X6147015Y-19036484D02*
X6137491Y-19026960D01*
X6137491Y-19026960D02*
X6147015Y-19017436D01*
X6147015Y-19017436D02*
X6147015Y-19036484D01*
X6280348Y-18836484D02*
X6299396Y-18836484D01*
X6299396Y-18836484D02*
X6318444Y-18846008D01*
X6318444Y-18846008D02*
X6327967Y-18855531D01*
X6327967Y-18855531D02*
X6337491Y-18874579D01*
X6337491Y-18874579D02*
X6347015Y-18912674D01*
X6347015Y-18912674D02*
X6347015Y-18960293D01*
X6347015Y-18960293D02*
X6337491Y-18998389D01*
X6337491Y-18998389D02*
X6327967Y-19017436D01*
X6327967Y-19017436D02*
X6318444Y-19026960D01*
X6318444Y-19026960D02*
X6299396Y-19036484D01*
X6299396Y-19036484D02*
X6280348Y-19036484D01*
X6280348Y-19036484D02*
X6261301Y-19026960D01*
X6261301Y-19026960D02*
X6251777Y-19017436D01*
X6251777Y-19017436D02*
X6242253Y-18998389D01*
X6242253Y-18998389D02*
X6232729Y-18960293D01*
X6232729Y-18960293D02*
X6232729Y-18912674D01*
X6232729Y-18912674D02*
X6242253Y-18874579D01*
X6242253Y-18874579D02*
X6251777Y-18855531D01*
X6251777Y-18855531D02*
X6261301Y-18846008D01*
X6261301Y-18846008D02*
X6280348Y-18836484D01*
X6537491Y-19036484D02*
X6423206Y-19036484D01*
X6480348Y-19036484D02*
X6480348Y-18836484D01*
X6480348Y-18836484D02*
X6461301Y-18865055D01*
X6461301Y-18865055D02*
X6442253Y-18884103D01*
X6442253Y-18884103D02*
X6423206Y-18893627D01*
X6718444Y-18836484D02*
X6623206Y-18836484D01*
X6623206Y-18836484D02*
X6613682Y-18931722D01*
X6613682Y-18931722D02*
X6623206Y-18922198D01*
X6623206Y-18922198D02*
X6642253Y-18912674D01*
X6642253Y-18912674D02*
X6689872Y-18912674D01*
X6689872Y-18912674D02*
X6708920Y-18922198D01*
X6708920Y-18922198D02*
X6718444Y-18931722D01*
X6718444Y-18931722D02*
X6727967Y-18950770D01*
X6727967Y-18950770D02*
X6727967Y-18998389D01*
X6727967Y-18998389D02*
X6718444Y-19017436D01*
X6718444Y-19017436D02*
X6708920Y-19026960D01*
X6708920Y-19026960D02*
X6689872Y-19036484D01*
X6689872Y-19036484D02*
X6642253Y-19036484D01*
X6642253Y-19036484D02*
X6623206Y-19026960D01*
X6623206Y-19026960D02*
X6613682Y-19017436D01*
X6794634Y-18836484D02*
X6927967Y-18836484D01*
X6927967Y-18836484D02*
X6842253Y-19036484D01*
X6994634Y-18836484D02*
X6994634Y-18874579D01*
X7070825Y-18836484D02*
X7070825Y-18874579D01*
X7366063Y-19112674D02*
X7356539Y-19103150D01*
X7356539Y-19103150D02*
X7337491Y-19074579D01*
X7337491Y-19074579D02*
X7327968Y-19055531D01*
X7327968Y-19055531D02*
X7318444Y-19026960D01*
X7318444Y-19026960D02*
X7308920Y-18979341D01*
X7308920Y-18979341D02*
X7308920Y-18941246D01*
X7308920Y-18941246D02*
X7318444Y-18893627D01*
X7318444Y-18893627D02*
X7327968Y-18865055D01*
X7327968Y-18865055D02*
X7337491Y-18846008D01*
X7337491Y-18846008D02*
X7356539Y-18817436D01*
X7356539Y-18817436D02*
X7366063Y-18807912D01*
X7423206Y-18836484D02*
X7547015Y-18836484D01*
X7547015Y-18836484D02*
X7480348Y-18912674D01*
X7480348Y-18912674D02*
X7508920Y-18912674D01*
X7508920Y-18912674D02*
X7527968Y-18922198D01*
X7527968Y-18922198D02*
X7537491Y-18931722D01*
X7537491Y-18931722D02*
X7547015Y-18950770D01*
X7547015Y-18950770D02*
X7547015Y-18998389D01*
X7547015Y-18998389D02*
X7537491Y-19017436D01*
X7537491Y-19017436D02*
X7527968Y-19026960D01*
X7527968Y-19026960D02*
X7508920Y-19036484D01*
X7508920Y-19036484D02*
X7451777Y-19036484D01*
X7451777Y-19036484D02*
X7432729Y-19026960D01*
X7432729Y-19026960D02*
X7423206Y-19017436D01*
X7785110Y-19036484D02*
X7785110Y-18836484D01*
X7870825Y-19036484D02*
X7870825Y-18931722D01*
X7870825Y-18931722D02*
X7861301Y-18912674D01*
X7861301Y-18912674D02*
X7842253Y-18903150D01*
X7842253Y-18903150D02*
X7813682Y-18903150D01*
X7813682Y-18903150D02*
X7794634Y-18912674D01*
X7794634Y-18912674D02*
X7785110Y-18922198D01*
X7994634Y-19036484D02*
X7975587Y-19026960D01*
X7975587Y-19026960D02*
X7966063Y-19017436D01*
X7966063Y-19017436D02*
X7956539Y-18998389D01*
X7956539Y-18998389D02*
X7956539Y-18941246D01*
X7956539Y-18941246D02*
X7966063Y-18922198D01*
X7966063Y-18922198D02*
X7975587Y-18912674D01*
X7975587Y-18912674D02*
X7994634Y-18903150D01*
X7994634Y-18903150D02*
X8023206Y-18903150D01*
X8023206Y-18903150D02*
X8042253Y-18912674D01*
X8042253Y-18912674D02*
X8051777Y-18922198D01*
X8051777Y-18922198D02*
X8061301Y-18941246D01*
X8061301Y-18941246D02*
X8061301Y-18998389D01*
X8061301Y-18998389D02*
X8051777Y-19017436D01*
X8051777Y-19017436D02*
X8042253Y-19026960D01*
X8042253Y-19026960D02*
X8023206Y-19036484D01*
X8023206Y-19036484D02*
X7994634Y-19036484D01*
X8175587Y-19036484D02*
X8156539Y-19026960D01*
X8156539Y-19026960D02*
X8147015Y-19007912D01*
X8147015Y-19007912D02*
X8147015Y-18836484D01*
X8327968Y-19026960D02*
X8308920Y-19036484D01*
X8308920Y-19036484D02*
X8270825Y-19036484D01*
X8270825Y-19036484D02*
X8251777Y-19026960D01*
X8251777Y-19026960D02*
X8242253Y-19007912D01*
X8242253Y-19007912D02*
X8242253Y-18931722D01*
X8242253Y-18931722D02*
X8251777Y-18912674D01*
X8251777Y-18912674D02*
X8270825Y-18903150D01*
X8270825Y-18903150D02*
X8308920Y-18903150D01*
X8308920Y-18903150D02*
X8327968Y-18912674D01*
X8327968Y-18912674D02*
X8337491Y-18931722D01*
X8337491Y-18931722D02*
X8337491Y-18950770D01*
X8337491Y-18950770D02*
X8242253Y-18969817D01*
X8413682Y-19026960D02*
X8432730Y-19036484D01*
X8432730Y-19036484D02*
X8470825Y-19036484D01*
X8470825Y-19036484D02*
X8489873Y-19026960D01*
X8489873Y-19026960D02*
X8499396Y-19007912D01*
X8499396Y-19007912D02*
X8499396Y-18998389D01*
X8499396Y-18998389D02*
X8489873Y-18979341D01*
X8489873Y-18979341D02*
X8470825Y-18969817D01*
X8470825Y-18969817D02*
X8442253Y-18969817D01*
X8442253Y-18969817D02*
X8423206Y-18960293D01*
X8423206Y-18960293D02*
X8413682Y-18941246D01*
X8413682Y-18941246D02*
X8413682Y-18931722D01*
X8413682Y-18931722D02*
X8423206Y-18912674D01*
X8423206Y-18912674D02*
X8442253Y-18903150D01*
X8442253Y-18903150D02*
X8470825Y-18903150D01*
X8470825Y-18903150D02*
X8489873Y-18912674D01*
X8566063Y-19112674D02*
X8575587Y-19103150D01*
X8575587Y-19103150D02*
X8594634Y-19074579D01*
X8594634Y-19074579D02*
X8604158Y-19055531D01*
X8604158Y-19055531D02*
X8613682Y-19026960D01*
X8613682Y-19026960D02*
X8623206Y-18979341D01*
X8623206Y-18979341D02*
X8623206Y-18941246D01*
X8623206Y-18941246D02*
X8613682Y-18893627D01*
X8613682Y-18893627D02*
X8604158Y-18865055D01*
X8604158Y-18865055D02*
X8594634Y-18846008D01*
X8594634Y-18846008D02*
X8575587Y-18817436D01*
X8575587Y-18817436D02*
X8566063Y-18807912D01*
D12*
X3791000Y-19209000D02*
G75*
G03*
X3791000Y-19209000I-25000J0D01*
G01*
D10*
X4089872Y-19100484D02*
X4108920Y-19100484D01*
X4108920Y-19100484D02*
X4127967Y-19110008D01*
X4127967Y-19110008D02*
X4137491Y-19119531D01*
X4137491Y-19119531D02*
X4147015Y-19138579D01*
X4147015Y-19138579D02*
X4156539Y-19176674D01*
X4156539Y-19176674D02*
X4156539Y-19224293D01*
X4156539Y-19224293D02*
X4147015Y-19262389D01*
X4147015Y-19262389D02*
X4137491Y-19281436D01*
X4137491Y-19281436D02*
X4127967Y-19290960D01*
X4127967Y-19290960D02*
X4108920Y-19300484D01*
X4108920Y-19300484D02*
X4089872Y-19300484D01*
X4089872Y-19300484D02*
X4070824Y-19290960D01*
X4070824Y-19290960D02*
X4061301Y-19281436D01*
X4061301Y-19281436D02*
X4051777Y-19262389D01*
X4051777Y-19262389D02*
X4042253Y-19224293D01*
X4042253Y-19224293D02*
X4042253Y-19176674D01*
X4042253Y-19176674D02*
X4051777Y-19138579D01*
X4051777Y-19138579D02*
X4061301Y-19119531D01*
X4061301Y-19119531D02*
X4070824Y-19110008D01*
X4070824Y-19110008D02*
X4089872Y-19100484D01*
X4242253Y-19281436D02*
X4251777Y-19290960D01*
X4251777Y-19290960D02*
X4242253Y-19300484D01*
X4242253Y-19300484D02*
X4232729Y-19290960D01*
X4232729Y-19290960D02*
X4242253Y-19281436D01*
X4242253Y-19281436D02*
X4242253Y-19300484D01*
X4432729Y-19100484D02*
X4337491Y-19100484D01*
X4337491Y-19100484D02*
X4327967Y-19195722D01*
X4327967Y-19195722D02*
X4337491Y-19186198D01*
X4337491Y-19186198D02*
X4356539Y-19176674D01*
X4356539Y-19176674D02*
X4404158Y-19176674D01*
X4404158Y-19176674D02*
X4423205Y-19186198D01*
X4423205Y-19186198D02*
X4432729Y-19195722D01*
X4432729Y-19195722D02*
X4442253Y-19214770D01*
X4442253Y-19214770D02*
X4442253Y-19262389D01*
X4442253Y-19262389D02*
X4432729Y-19281436D01*
X4432729Y-19281436D02*
X4423205Y-19290960D01*
X4423205Y-19290960D02*
X4404158Y-19300484D01*
X4404158Y-19300484D02*
X4356539Y-19300484D01*
X4356539Y-19300484D02*
X4337491Y-19290960D01*
X4337491Y-19290960D02*
X4327967Y-19281436D01*
X4566063Y-19100484D02*
X4585110Y-19100484D01*
X4585110Y-19100484D02*
X4604158Y-19110008D01*
X4604158Y-19110008D02*
X4613682Y-19119531D01*
X4613682Y-19119531D02*
X4623205Y-19138579D01*
X4623205Y-19138579D02*
X4632729Y-19176674D01*
X4632729Y-19176674D02*
X4632729Y-19224293D01*
X4632729Y-19224293D02*
X4623205Y-19262389D01*
X4623205Y-19262389D02*
X4613682Y-19281436D01*
X4613682Y-19281436D02*
X4604158Y-19290960D01*
X4604158Y-19290960D02*
X4585110Y-19300484D01*
X4585110Y-19300484D02*
X4566063Y-19300484D01*
X4566063Y-19300484D02*
X4547015Y-19290960D01*
X4547015Y-19290960D02*
X4537491Y-19281436D01*
X4537491Y-19281436D02*
X4527967Y-19262389D01*
X4527967Y-19262389D02*
X4518444Y-19224293D01*
X4518444Y-19224293D02*
X4518444Y-19176674D01*
X4518444Y-19176674D02*
X4527967Y-19138579D01*
X4527967Y-19138579D02*
X4537491Y-19119531D01*
X4537491Y-19119531D02*
X4547015Y-19110008D01*
X4547015Y-19110008D02*
X4566063Y-19100484D01*
X4756539Y-19100484D02*
X4775586Y-19100484D01*
X4775586Y-19100484D02*
X4794634Y-19110008D01*
X4794634Y-19110008D02*
X4804158Y-19119531D01*
X4804158Y-19119531D02*
X4813682Y-19138579D01*
X4813682Y-19138579D02*
X4823205Y-19176674D01*
X4823205Y-19176674D02*
X4823205Y-19224293D01*
X4823205Y-19224293D02*
X4813682Y-19262389D01*
X4813682Y-19262389D02*
X4804158Y-19281436D01*
X4804158Y-19281436D02*
X4794634Y-19290960D01*
X4794634Y-19290960D02*
X4775586Y-19300484D01*
X4775586Y-19300484D02*
X4756539Y-19300484D01*
X4756539Y-19300484D02*
X4737491Y-19290960D01*
X4737491Y-19290960D02*
X4727967Y-19281436D01*
X4727967Y-19281436D02*
X4718444Y-19262389D01*
X4718444Y-19262389D02*
X4708920Y-19224293D01*
X4708920Y-19224293D02*
X4708920Y-19176674D01*
X4708920Y-19176674D02*
X4718444Y-19138579D01*
X4718444Y-19138579D02*
X4727967Y-19119531D01*
X4727967Y-19119531D02*
X4737491Y-19110008D01*
X4737491Y-19110008D02*
X4756539Y-19100484D01*
X4908920Y-19300484D02*
X4908920Y-19167150D01*
X4908920Y-19186198D02*
X4918444Y-19176674D01*
X4918444Y-19176674D02*
X4937491Y-19167150D01*
X4937491Y-19167150D02*
X4966063Y-19167150D01*
X4966063Y-19167150D02*
X4985110Y-19176674D01*
X4985110Y-19176674D02*
X4994634Y-19195722D01*
X4994634Y-19195722D02*
X4994634Y-19300484D01*
X4994634Y-19195722D02*
X5004158Y-19176674D01*
X5004158Y-19176674D02*
X5023205Y-19167150D01*
X5023205Y-19167150D02*
X5051777Y-19167150D01*
X5051777Y-19167150D02*
X5070825Y-19176674D01*
X5070825Y-19176674D02*
X5080348Y-19195722D01*
X5080348Y-19195722D02*
X5080348Y-19300484D01*
X5175586Y-19300484D02*
X5175586Y-19167150D01*
X5175586Y-19186198D02*
X5185110Y-19176674D01*
X5185110Y-19176674D02*
X5204158Y-19167150D01*
X5204158Y-19167150D02*
X5232729Y-19167150D01*
X5232729Y-19167150D02*
X5251777Y-19176674D01*
X5251777Y-19176674D02*
X5261301Y-19195722D01*
X5261301Y-19195722D02*
X5261301Y-19300484D01*
X5261301Y-19195722D02*
X5270825Y-19176674D01*
X5270825Y-19176674D02*
X5289872Y-19167150D01*
X5289872Y-19167150D02*
X5318444Y-19167150D01*
X5318444Y-19167150D02*
X5337491Y-19176674D01*
X5337491Y-19176674D02*
X5347015Y-19195722D01*
X5347015Y-19195722D02*
X5347015Y-19300484D01*
X5737491Y-19090960D02*
X5566063Y-19348103D01*
X5994634Y-19100484D02*
X6013682Y-19100484D01*
X6013682Y-19100484D02*
X6032729Y-19110008D01*
X6032729Y-19110008D02*
X6042253Y-19119531D01*
X6042253Y-19119531D02*
X6051777Y-19138579D01*
X6051777Y-19138579D02*
X6061301Y-19176674D01*
X6061301Y-19176674D02*
X6061301Y-19224293D01*
X6061301Y-19224293D02*
X6051777Y-19262389D01*
X6051777Y-19262389D02*
X6042253Y-19281436D01*
X6042253Y-19281436D02*
X6032729Y-19290960D01*
X6032729Y-19290960D02*
X6013682Y-19300484D01*
X6013682Y-19300484D02*
X5994634Y-19300484D01*
X5994634Y-19300484D02*
X5975586Y-19290960D01*
X5975586Y-19290960D02*
X5966063Y-19281436D01*
X5966063Y-19281436D02*
X5956539Y-19262389D01*
X5956539Y-19262389D02*
X5947015Y-19224293D01*
X5947015Y-19224293D02*
X5947015Y-19176674D01*
X5947015Y-19176674D02*
X5956539Y-19138579D01*
X5956539Y-19138579D02*
X5966063Y-19119531D01*
X5966063Y-19119531D02*
X5975586Y-19110008D01*
X5975586Y-19110008D02*
X5994634Y-19100484D01*
X6147015Y-19281436D02*
X6156539Y-19290960D01*
X6156539Y-19290960D02*
X6147015Y-19300484D01*
X6147015Y-19300484D02*
X6137491Y-19290960D01*
X6137491Y-19290960D02*
X6147015Y-19281436D01*
X6147015Y-19281436D02*
X6147015Y-19300484D01*
X6280348Y-19100484D02*
X6299396Y-19100484D01*
X6299396Y-19100484D02*
X6318444Y-19110008D01*
X6318444Y-19110008D02*
X6327967Y-19119531D01*
X6327967Y-19119531D02*
X6337491Y-19138579D01*
X6337491Y-19138579D02*
X6347015Y-19176674D01*
X6347015Y-19176674D02*
X6347015Y-19224293D01*
X6347015Y-19224293D02*
X6337491Y-19262389D01*
X6337491Y-19262389D02*
X6327967Y-19281436D01*
X6327967Y-19281436D02*
X6318444Y-19290960D01*
X6318444Y-19290960D02*
X6299396Y-19300484D01*
X6299396Y-19300484D02*
X6280348Y-19300484D01*
X6280348Y-19300484D02*
X6261301Y-19290960D01*
X6261301Y-19290960D02*
X6251777Y-19281436D01*
X6251777Y-19281436D02*
X6242253Y-19262389D01*
X6242253Y-19262389D02*
X6232729Y-19224293D01*
X6232729Y-19224293D02*
X6232729Y-19176674D01*
X6232729Y-19176674D02*
X6242253Y-19138579D01*
X6242253Y-19138579D02*
X6251777Y-19119531D01*
X6251777Y-19119531D02*
X6261301Y-19110008D01*
X6261301Y-19110008D02*
X6280348Y-19100484D01*
X6537491Y-19300484D02*
X6423206Y-19300484D01*
X6480348Y-19300484D02*
X6480348Y-19100484D01*
X6480348Y-19100484D02*
X6461301Y-19129055D01*
X6461301Y-19129055D02*
X6442253Y-19148103D01*
X6442253Y-19148103D02*
X6423206Y-19157627D01*
X6632729Y-19300484D02*
X6670825Y-19300484D01*
X6670825Y-19300484D02*
X6689872Y-19290960D01*
X6689872Y-19290960D02*
X6699396Y-19281436D01*
X6699396Y-19281436D02*
X6718444Y-19252865D01*
X6718444Y-19252865D02*
X6727967Y-19214770D01*
X6727967Y-19214770D02*
X6727967Y-19138579D01*
X6727967Y-19138579D02*
X6718444Y-19119531D01*
X6718444Y-19119531D02*
X6708920Y-19110008D01*
X6708920Y-19110008D02*
X6689872Y-19100484D01*
X6689872Y-19100484D02*
X6651777Y-19100484D01*
X6651777Y-19100484D02*
X6632729Y-19110008D01*
X6632729Y-19110008D02*
X6623206Y-19119531D01*
X6623206Y-19119531D02*
X6613682Y-19138579D01*
X6613682Y-19138579D02*
X6613682Y-19186198D01*
X6613682Y-19186198D02*
X6623206Y-19205246D01*
X6623206Y-19205246D02*
X6632729Y-19214770D01*
X6632729Y-19214770D02*
X6651777Y-19224293D01*
X6651777Y-19224293D02*
X6689872Y-19224293D01*
X6689872Y-19224293D02*
X6708920Y-19214770D01*
X6708920Y-19214770D02*
X6718444Y-19205246D01*
X6718444Y-19205246D02*
X6727967Y-19186198D01*
X6794634Y-19100484D02*
X6927967Y-19100484D01*
X6927967Y-19100484D02*
X6842253Y-19300484D01*
X6994634Y-19100484D02*
X6994634Y-19138579D01*
X7070825Y-19100484D02*
X7070825Y-19138579D01*
X7366063Y-19376674D02*
X7356539Y-19367150D01*
X7356539Y-19367150D02*
X7337491Y-19338579D01*
X7337491Y-19338579D02*
X7327968Y-19319531D01*
X7327968Y-19319531D02*
X7318444Y-19290960D01*
X7318444Y-19290960D02*
X7308920Y-19243341D01*
X7308920Y-19243341D02*
X7308920Y-19205246D01*
X7308920Y-19205246D02*
X7318444Y-19157627D01*
X7318444Y-19157627D02*
X7327968Y-19129055D01*
X7327968Y-19129055D02*
X7337491Y-19110008D01*
X7337491Y-19110008D02*
X7356539Y-19081436D01*
X7356539Y-19081436D02*
X7366063Y-19071912D01*
X7423206Y-19100484D02*
X7556539Y-19100484D01*
X7556539Y-19100484D02*
X7470825Y-19300484D01*
X7785110Y-19300484D02*
X7785110Y-19100484D01*
X7870825Y-19300484D02*
X7870825Y-19195722D01*
X7870825Y-19195722D02*
X7861301Y-19176674D01*
X7861301Y-19176674D02*
X7842253Y-19167150D01*
X7842253Y-19167150D02*
X7813682Y-19167150D01*
X7813682Y-19167150D02*
X7794634Y-19176674D01*
X7794634Y-19176674D02*
X7785110Y-19186198D01*
X7994634Y-19300484D02*
X7975587Y-19290960D01*
X7975587Y-19290960D02*
X7966063Y-19281436D01*
X7966063Y-19281436D02*
X7956539Y-19262389D01*
X7956539Y-19262389D02*
X7956539Y-19205246D01*
X7956539Y-19205246D02*
X7966063Y-19186198D01*
X7966063Y-19186198D02*
X7975587Y-19176674D01*
X7975587Y-19176674D02*
X7994634Y-19167150D01*
X7994634Y-19167150D02*
X8023206Y-19167150D01*
X8023206Y-19167150D02*
X8042253Y-19176674D01*
X8042253Y-19176674D02*
X8051777Y-19186198D01*
X8051777Y-19186198D02*
X8061301Y-19205246D01*
X8061301Y-19205246D02*
X8061301Y-19262389D01*
X8061301Y-19262389D02*
X8051777Y-19281436D01*
X8051777Y-19281436D02*
X8042253Y-19290960D01*
X8042253Y-19290960D02*
X8023206Y-19300484D01*
X8023206Y-19300484D02*
X7994634Y-19300484D01*
X8175587Y-19300484D02*
X8156539Y-19290960D01*
X8156539Y-19290960D02*
X8147015Y-19271912D01*
X8147015Y-19271912D02*
X8147015Y-19100484D01*
X8327968Y-19290960D02*
X8308920Y-19300484D01*
X8308920Y-19300484D02*
X8270825Y-19300484D01*
X8270825Y-19300484D02*
X8251777Y-19290960D01*
X8251777Y-19290960D02*
X8242253Y-19271912D01*
X8242253Y-19271912D02*
X8242253Y-19195722D01*
X8242253Y-19195722D02*
X8251777Y-19176674D01*
X8251777Y-19176674D02*
X8270825Y-19167150D01*
X8270825Y-19167150D02*
X8308920Y-19167150D01*
X8308920Y-19167150D02*
X8327968Y-19176674D01*
X8327968Y-19176674D02*
X8337491Y-19195722D01*
X8337491Y-19195722D02*
X8337491Y-19214770D01*
X8337491Y-19214770D02*
X8242253Y-19233817D01*
X8413682Y-19290960D02*
X8432730Y-19300484D01*
X8432730Y-19300484D02*
X8470825Y-19300484D01*
X8470825Y-19300484D02*
X8489873Y-19290960D01*
X8489873Y-19290960D02*
X8499396Y-19271912D01*
X8499396Y-19271912D02*
X8499396Y-19262389D01*
X8499396Y-19262389D02*
X8489873Y-19243341D01*
X8489873Y-19243341D02*
X8470825Y-19233817D01*
X8470825Y-19233817D02*
X8442253Y-19233817D01*
X8442253Y-19233817D02*
X8423206Y-19224293D01*
X8423206Y-19224293D02*
X8413682Y-19205246D01*
X8413682Y-19205246D02*
X8413682Y-19195722D01*
X8413682Y-19195722D02*
X8423206Y-19176674D01*
X8423206Y-19176674D02*
X8442253Y-19167150D01*
X8442253Y-19167150D02*
X8470825Y-19167150D01*
X8470825Y-19167150D02*
X8489873Y-19176674D01*
X8566063Y-19376674D02*
X8575587Y-19367150D01*
X8575587Y-19367150D02*
X8594634Y-19338579D01*
X8594634Y-19338579D02*
X8604158Y-19319531D01*
X8604158Y-19319531D02*
X8613682Y-19290960D01*
X8613682Y-19290960D02*
X8623206Y-19243341D01*
X8623206Y-19243341D02*
X8623206Y-19205246D01*
X8623206Y-19205246D02*
X8613682Y-19157627D01*
X8613682Y-19157627D02*
X8604158Y-19129055D01*
X8604158Y-19129055D02*
X8594634Y-19110008D01*
X8594634Y-19110008D02*
X8575587Y-19081436D01*
X8575587Y-19081436D02*
X8566063Y-19071912D01*
D13*
X3751000Y-19433000D02*
X3751000Y-19513000D01*
X3711000Y-19473000D02*
X3791000Y-19473000D01*
D10*
X4089872Y-19364484D02*
X4108920Y-19364484D01*
X4108920Y-19364484D02*
X4127967Y-19374008D01*
X4127967Y-19374008D02*
X4137491Y-19383531D01*
X4137491Y-19383531D02*
X4147015Y-19402579D01*
X4147015Y-19402579D02*
X4156539Y-19440674D01*
X4156539Y-19440674D02*
X4156539Y-19488293D01*
X4156539Y-19488293D02*
X4147015Y-19526389D01*
X4147015Y-19526389D02*
X4137491Y-19545436D01*
X4137491Y-19545436D02*
X4127967Y-19554960D01*
X4127967Y-19554960D02*
X4108920Y-19564484D01*
X4108920Y-19564484D02*
X4089872Y-19564484D01*
X4089872Y-19564484D02*
X4070824Y-19554960D01*
X4070824Y-19554960D02*
X4061301Y-19545436D01*
X4061301Y-19545436D02*
X4051777Y-19526389D01*
X4051777Y-19526389D02*
X4042253Y-19488293D01*
X4042253Y-19488293D02*
X4042253Y-19440674D01*
X4042253Y-19440674D02*
X4051777Y-19402579D01*
X4051777Y-19402579D02*
X4061301Y-19383531D01*
X4061301Y-19383531D02*
X4070824Y-19374008D01*
X4070824Y-19374008D02*
X4089872Y-19364484D01*
X4242253Y-19545436D02*
X4251777Y-19554960D01*
X4251777Y-19554960D02*
X4242253Y-19564484D01*
X4242253Y-19564484D02*
X4232729Y-19554960D01*
X4232729Y-19554960D02*
X4242253Y-19545436D01*
X4242253Y-19545436D02*
X4242253Y-19564484D01*
X4366063Y-19450198D02*
X4347015Y-19440674D01*
X4347015Y-19440674D02*
X4337491Y-19431150D01*
X4337491Y-19431150D02*
X4327967Y-19412103D01*
X4327967Y-19412103D02*
X4327967Y-19402579D01*
X4327967Y-19402579D02*
X4337491Y-19383531D01*
X4337491Y-19383531D02*
X4347015Y-19374008D01*
X4347015Y-19374008D02*
X4366063Y-19364484D01*
X4366063Y-19364484D02*
X4404158Y-19364484D01*
X4404158Y-19364484D02*
X4423205Y-19374008D01*
X4423205Y-19374008D02*
X4432729Y-19383531D01*
X4432729Y-19383531D02*
X4442253Y-19402579D01*
X4442253Y-19402579D02*
X4442253Y-19412103D01*
X4442253Y-19412103D02*
X4432729Y-19431150D01*
X4432729Y-19431150D02*
X4423205Y-19440674D01*
X4423205Y-19440674D02*
X4404158Y-19450198D01*
X4404158Y-19450198D02*
X4366063Y-19450198D01*
X4366063Y-19450198D02*
X4347015Y-19459722D01*
X4347015Y-19459722D02*
X4337491Y-19469246D01*
X4337491Y-19469246D02*
X4327967Y-19488293D01*
X4327967Y-19488293D02*
X4327967Y-19526389D01*
X4327967Y-19526389D02*
X4337491Y-19545436D01*
X4337491Y-19545436D02*
X4347015Y-19554960D01*
X4347015Y-19554960D02*
X4366063Y-19564484D01*
X4366063Y-19564484D02*
X4404158Y-19564484D01*
X4404158Y-19564484D02*
X4423205Y-19554960D01*
X4423205Y-19554960D02*
X4432729Y-19545436D01*
X4432729Y-19545436D02*
X4442253Y-19526389D01*
X4442253Y-19526389D02*
X4442253Y-19488293D01*
X4442253Y-19488293D02*
X4432729Y-19469246D01*
X4432729Y-19469246D02*
X4423205Y-19459722D01*
X4423205Y-19459722D02*
X4404158Y-19450198D01*
X4566063Y-19364484D02*
X4585110Y-19364484D01*
X4585110Y-19364484D02*
X4604158Y-19374008D01*
X4604158Y-19374008D02*
X4613682Y-19383531D01*
X4613682Y-19383531D02*
X4623205Y-19402579D01*
X4623205Y-19402579D02*
X4632729Y-19440674D01*
X4632729Y-19440674D02*
X4632729Y-19488293D01*
X4632729Y-19488293D02*
X4623205Y-19526389D01*
X4623205Y-19526389D02*
X4613682Y-19545436D01*
X4613682Y-19545436D02*
X4604158Y-19554960D01*
X4604158Y-19554960D02*
X4585110Y-19564484D01*
X4585110Y-19564484D02*
X4566063Y-19564484D01*
X4566063Y-19564484D02*
X4547015Y-19554960D01*
X4547015Y-19554960D02*
X4537491Y-19545436D01*
X4537491Y-19545436D02*
X4527967Y-19526389D01*
X4527967Y-19526389D02*
X4518444Y-19488293D01*
X4518444Y-19488293D02*
X4518444Y-19440674D01*
X4518444Y-19440674D02*
X4527967Y-19402579D01*
X4527967Y-19402579D02*
X4537491Y-19383531D01*
X4537491Y-19383531D02*
X4547015Y-19374008D01*
X4547015Y-19374008D02*
X4566063Y-19364484D01*
X4756539Y-19364484D02*
X4775586Y-19364484D01*
X4775586Y-19364484D02*
X4794634Y-19374008D01*
X4794634Y-19374008D02*
X4804158Y-19383531D01*
X4804158Y-19383531D02*
X4813682Y-19402579D01*
X4813682Y-19402579D02*
X4823205Y-19440674D01*
X4823205Y-19440674D02*
X4823205Y-19488293D01*
X4823205Y-19488293D02*
X4813682Y-19526389D01*
X4813682Y-19526389D02*
X4804158Y-19545436D01*
X4804158Y-19545436D02*
X4794634Y-19554960D01*
X4794634Y-19554960D02*
X4775586Y-19564484D01*
X4775586Y-19564484D02*
X4756539Y-19564484D01*
X4756539Y-19564484D02*
X4737491Y-19554960D01*
X4737491Y-19554960D02*
X4727967Y-19545436D01*
X4727967Y-19545436D02*
X4718444Y-19526389D01*
X4718444Y-19526389D02*
X4708920Y-19488293D01*
X4708920Y-19488293D02*
X4708920Y-19440674D01*
X4708920Y-19440674D02*
X4718444Y-19402579D01*
X4718444Y-19402579D02*
X4727967Y-19383531D01*
X4727967Y-19383531D02*
X4737491Y-19374008D01*
X4737491Y-19374008D02*
X4756539Y-19364484D01*
X4908920Y-19564484D02*
X4908920Y-19431150D01*
X4908920Y-19450198D02*
X4918444Y-19440674D01*
X4918444Y-19440674D02*
X4937491Y-19431150D01*
X4937491Y-19431150D02*
X4966063Y-19431150D01*
X4966063Y-19431150D02*
X4985110Y-19440674D01*
X4985110Y-19440674D02*
X4994634Y-19459722D01*
X4994634Y-19459722D02*
X4994634Y-19564484D01*
X4994634Y-19459722D02*
X5004158Y-19440674D01*
X5004158Y-19440674D02*
X5023205Y-19431150D01*
X5023205Y-19431150D02*
X5051777Y-19431150D01*
X5051777Y-19431150D02*
X5070825Y-19440674D01*
X5070825Y-19440674D02*
X5080348Y-19459722D01*
X5080348Y-19459722D02*
X5080348Y-19564484D01*
X5175586Y-19564484D02*
X5175586Y-19431150D01*
X5175586Y-19450198D02*
X5185110Y-19440674D01*
X5185110Y-19440674D02*
X5204158Y-19431150D01*
X5204158Y-19431150D02*
X5232729Y-19431150D01*
X5232729Y-19431150D02*
X5251777Y-19440674D01*
X5251777Y-19440674D02*
X5261301Y-19459722D01*
X5261301Y-19459722D02*
X5261301Y-19564484D01*
X5261301Y-19459722D02*
X5270825Y-19440674D01*
X5270825Y-19440674D02*
X5289872Y-19431150D01*
X5289872Y-19431150D02*
X5318444Y-19431150D01*
X5318444Y-19431150D02*
X5337491Y-19440674D01*
X5337491Y-19440674D02*
X5347015Y-19459722D01*
X5347015Y-19459722D02*
X5347015Y-19564484D01*
X5737491Y-19354960D02*
X5566063Y-19612103D01*
X5994634Y-19364484D02*
X6013682Y-19364484D01*
X6013682Y-19364484D02*
X6032729Y-19374008D01*
X6032729Y-19374008D02*
X6042253Y-19383531D01*
X6042253Y-19383531D02*
X6051777Y-19402579D01*
X6051777Y-19402579D02*
X6061301Y-19440674D01*
X6061301Y-19440674D02*
X6061301Y-19488293D01*
X6061301Y-19488293D02*
X6051777Y-19526389D01*
X6051777Y-19526389D02*
X6042253Y-19545436D01*
X6042253Y-19545436D02*
X6032729Y-19554960D01*
X6032729Y-19554960D02*
X6013682Y-19564484D01*
X6013682Y-19564484D02*
X5994634Y-19564484D01*
X5994634Y-19564484D02*
X5975586Y-19554960D01*
X5975586Y-19554960D02*
X5966063Y-19545436D01*
X5966063Y-19545436D02*
X5956539Y-19526389D01*
X5956539Y-19526389D02*
X5947015Y-19488293D01*
X5947015Y-19488293D02*
X5947015Y-19440674D01*
X5947015Y-19440674D02*
X5956539Y-19402579D01*
X5956539Y-19402579D02*
X5966063Y-19383531D01*
X5966063Y-19383531D02*
X5975586Y-19374008D01*
X5975586Y-19374008D02*
X5994634Y-19364484D01*
X6147015Y-19545436D02*
X6156539Y-19554960D01*
X6156539Y-19554960D02*
X6147015Y-19564484D01*
X6147015Y-19564484D02*
X6137491Y-19554960D01*
X6137491Y-19554960D02*
X6147015Y-19545436D01*
X6147015Y-19545436D02*
X6147015Y-19564484D01*
X6280348Y-19364484D02*
X6299396Y-19364484D01*
X6299396Y-19364484D02*
X6318444Y-19374008D01*
X6318444Y-19374008D02*
X6327967Y-19383531D01*
X6327967Y-19383531D02*
X6337491Y-19402579D01*
X6337491Y-19402579D02*
X6347015Y-19440674D01*
X6347015Y-19440674D02*
X6347015Y-19488293D01*
X6347015Y-19488293D02*
X6337491Y-19526389D01*
X6337491Y-19526389D02*
X6327967Y-19545436D01*
X6327967Y-19545436D02*
X6318444Y-19554960D01*
X6318444Y-19554960D02*
X6299396Y-19564484D01*
X6299396Y-19564484D02*
X6280348Y-19564484D01*
X6280348Y-19564484D02*
X6261301Y-19554960D01*
X6261301Y-19554960D02*
X6251777Y-19545436D01*
X6251777Y-19545436D02*
X6242253Y-19526389D01*
X6242253Y-19526389D02*
X6232729Y-19488293D01*
X6232729Y-19488293D02*
X6232729Y-19440674D01*
X6232729Y-19440674D02*
X6242253Y-19402579D01*
X6242253Y-19402579D02*
X6251777Y-19383531D01*
X6251777Y-19383531D02*
X6261301Y-19374008D01*
X6261301Y-19374008D02*
X6280348Y-19364484D01*
X6413682Y-19364484D02*
X6537491Y-19364484D01*
X6537491Y-19364484D02*
X6470825Y-19440674D01*
X6470825Y-19440674D02*
X6499396Y-19440674D01*
X6499396Y-19440674D02*
X6518444Y-19450198D01*
X6518444Y-19450198D02*
X6527967Y-19459722D01*
X6527967Y-19459722D02*
X6537491Y-19478770D01*
X6537491Y-19478770D02*
X6537491Y-19526389D01*
X6537491Y-19526389D02*
X6527967Y-19545436D01*
X6527967Y-19545436D02*
X6518444Y-19554960D01*
X6518444Y-19554960D02*
X6499396Y-19564484D01*
X6499396Y-19564484D02*
X6442253Y-19564484D01*
X6442253Y-19564484D02*
X6423206Y-19554960D01*
X6423206Y-19554960D02*
X6413682Y-19545436D01*
X6727967Y-19564484D02*
X6613682Y-19564484D01*
X6670825Y-19564484D02*
X6670825Y-19364484D01*
X6670825Y-19364484D02*
X6651777Y-19393055D01*
X6651777Y-19393055D02*
X6632729Y-19412103D01*
X6632729Y-19412103D02*
X6613682Y-19421627D01*
X6908920Y-19364484D02*
X6813682Y-19364484D01*
X6813682Y-19364484D02*
X6804158Y-19459722D01*
X6804158Y-19459722D02*
X6813682Y-19450198D01*
X6813682Y-19450198D02*
X6832729Y-19440674D01*
X6832729Y-19440674D02*
X6880348Y-19440674D01*
X6880348Y-19440674D02*
X6899396Y-19450198D01*
X6899396Y-19450198D02*
X6908920Y-19459722D01*
X6908920Y-19459722D02*
X6918444Y-19478770D01*
X6918444Y-19478770D02*
X6918444Y-19526389D01*
X6918444Y-19526389D02*
X6908920Y-19545436D01*
X6908920Y-19545436D02*
X6899396Y-19554960D01*
X6899396Y-19554960D02*
X6880348Y-19564484D01*
X6880348Y-19564484D02*
X6832729Y-19564484D01*
X6832729Y-19564484D02*
X6813682Y-19554960D01*
X6813682Y-19554960D02*
X6804158Y-19545436D01*
X6994634Y-19364484D02*
X6994634Y-19402579D01*
X7070825Y-19364484D02*
X7070825Y-19402579D01*
X7366063Y-19640674D02*
X7356539Y-19631150D01*
X7356539Y-19631150D02*
X7337491Y-19602579D01*
X7337491Y-19602579D02*
X7327968Y-19583531D01*
X7327968Y-19583531D02*
X7318444Y-19554960D01*
X7318444Y-19554960D02*
X7308920Y-19507341D01*
X7308920Y-19507341D02*
X7308920Y-19469246D01*
X7308920Y-19469246D02*
X7318444Y-19421627D01*
X7318444Y-19421627D02*
X7327968Y-19393055D01*
X7327968Y-19393055D02*
X7337491Y-19374008D01*
X7337491Y-19374008D02*
X7356539Y-19345436D01*
X7356539Y-19345436D02*
X7366063Y-19335912D01*
X7451777Y-19564484D02*
X7489872Y-19564484D01*
X7489872Y-19564484D02*
X7508920Y-19554960D01*
X7508920Y-19554960D02*
X7518444Y-19545436D01*
X7518444Y-19545436D02*
X7537491Y-19516865D01*
X7537491Y-19516865D02*
X7547015Y-19478770D01*
X7547015Y-19478770D02*
X7547015Y-19402579D01*
X7547015Y-19402579D02*
X7537491Y-19383531D01*
X7537491Y-19383531D02*
X7527968Y-19374008D01*
X7527968Y-19374008D02*
X7508920Y-19364484D01*
X7508920Y-19364484D02*
X7470825Y-19364484D01*
X7470825Y-19364484D02*
X7451777Y-19374008D01*
X7451777Y-19374008D02*
X7442253Y-19383531D01*
X7442253Y-19383531D02*
X7432729Y-19402579D01*
X7432729Y-19402579D02*
X7432729Y-19450198D01*
X7432729Y-19450198D02*
X7442253Y-19469246D01*
X7442253Y-19469246D02*
X7451777Y-19478770D01*
X7451777Y-19478770D02*
X7470825Y-19488293D01*
X7470825Y-19488293D02*
X7508920Y-19488293D01*
X7508920Y-19488293D02*
X7527968Y-19478770D01*
X7527968Y-19478770D02*
X7537491Y-19469246D01*
X7537491Y-19469246D02*
X7547015Y-19450198D01*
X7642253Y-19564484D02*
X7680348Y-19564484D01*
X7680348Y-19564484D02*
X7699396Y-19554960D01*
X7699396Y-19554960D02*
X7708920Y-19545436D01*
X7708920Y-19545436D02*
X7727968Y-19516865D01*
X7727968Y-19516865D02*
X7737491Y-19478770D01*
X7737491Y-19478770D02*
X7737491Y-19402579D01*
X7737491Y-19402579D02*
X7727968Y-19383531D01*
X7727968Y-19383531D02*
X7718444Y-19374008D01*
X7718444Y-19374008D02*
X7699396Y-19364484D01*
X7699396Y-19364484D02*
X7661301Y-19364484D01*
X7661301Y-19364484D02*
X7642253Y-19374008D01*
X7642253Y-19374008D02*
X7632729Y-19383531D01*
X7632729Y-19383531D02*
X7623206Y-19402579D01*
X7623206Y-19402579D02*
X7623206Y-19450198D01*
X7623206Y-19450198D02*
X7632729Y-19469246D01*
X7632729Y-19469246D02*
X7642253Y-19478770D01*
X7642253Y-19478770D02*
X7661301Y-19488293D01*
X7661301Y-19488293D02*
X7699396Y-19488293D01*
X7699396Y-19488293D02*
X7718444Y-19478770D01*
X7718444Y-19478770D02*
X7727968Y-19469246D01*
X7727968Y-19469246D02*
X7737491Y-19450198D01*
X7975587Y-19564484D02*
X7975587Y-19364484D01*
X8061301Y-19564484D02*
X8061301Y-19459722D01*
X8061301Y-19459722D02*
X8051777Y-19440674D01*
X8051777Y-19440674D02*
X8032730Y-19431150D01*
X8032730Y-19431150D02*
X8004158Y-19431150D01*
X8004158Y-19431150D02*
X7985110Y-19440674D01*
X7985110Y-19440674D02*
X7975587Y-19450198D01*
X8185110Y-19564484D02*
X8166063Y-19554960D01*
X8166063Y-19554960D02*
X8156539Y-19545436D01*
X8156539Y-19545436D02*
X8147015Y-19526389D01*
X8147015Y-19526389D02*
X8147015Y-19469246D01*
X8147015Y-19469246D02*
X8156539Y-19450198D01*
X8156539Y-19450198D02*
X8166063Y-19440674D01*
X8166063Y-19440674D02*
X8185110Y-19431150D01*
X8185110Y-19431150D02*
X8213682Y-19431150D01*
X8213682Y-19431150D02*
X8232730Y-19440674D01*
X8232730Y-19440674D02*
X8242253Y-19450198D01*
X8242253Y-19450198D02*
X8251777Y-19469246D01*
X8251777Y-19469246D02*
X8251777Y-19526389D01*
X8251777Y-19526389D02*
X8242253Y-19545436D01*
X8242253Y-19545436D02*
X8232730Y-19554960D01*
X8232730Y-19554960D02*
X8213682Y-19564484D01*
X8213682Y-19564484D02*
X8185110Y-19564484D01*
X8366063Y-19564484D02*
X8347015Y-19554960D01*
X8347015Y-19554960D02*
X8337491Y-19535912D01*
X8337491Y-19535912D02*
X8337491Y-19364484D01*
X8518444Y-19554960D02*
X8499396Y-19564484D01*
X8499396Y-19564484D02*
X8461301Y-19564484D01*
X8461301Y-19564484D02*
X8442253Y-19554960D01*
X8442253Y-19554960D02*
X8432730Y-19535912D01*
X8432730Y-19535912D02*
X8432730Y-19459722D01*
X8432730Y-19459722D02*
X8442253Y-19440674D01*
X8442253Y-19440674D02*
X8461301Y-19431150D01*
X8461301Y-19431150D02*
X8499396Y-19431150D01*
X8499396Y-19431150D02*
X8518444Y-19440674D01*
X8518444Y-19440674D02*
X8527968Y-19459722D01*
X8527968Y-19459722D02*
X8527968Y-19478770D01*
X8527968Y-19478770D02*
X8432730Y-19497817D01*
X8604158Y-19554960D02*
X8623206Y-19564484D01*
X8623206Y-19564484D02*
X8661301Y-19564484D01*
X8661301Y-19564484D02*
X8680349Y-19554960D01*
X8680349Y-19554960D02*
X8689873Y-19535912D01*
X8689873Y-19535912D02*
X8689873Y-19526389D01*
X8689873Y-19526389D02*
X8680349Y-19507341D01*
X8680349Y-19507341D02*
X8661301Y-19497817D01*
X8661301Y-19497817D02*
X8632730Y-19497817D01*
X8632730Y-19497817D02*
X8613682Y-19488293D01*
X8613682Y-19488293D02*
X8604158Y-19469246D01*
X8604158Y-19469246D02*
X8604158Y-19459722D01*
X8604158Y-19459722D02*
X8613682Y-19440674D01*
X8613682Y-19440674D02*
X8632730Y-19431150D01*
X8632730Y-19431150D02*
X8661301Y-19431150D01*
X8661301Y-19431150D02*
X8680349Y-19440674D01*
X8756539Y-19640674D02*
X8766063Y-19631150D01*
X8766063Y-19631150D02*
X8785111Y-19602579D01*
X8785111Y-19602579D02*
X8794634Y-19583531D01*
X8794634Y-19583531D02*
X8804158Y-19554960D01*
X8804158Y-19554960D02*
X8813682Y-19507341D01*
X8813682Y-19507341D02*
X8813682Y-19469246D01*
X8813682Y-19469246D02*
X8804158Y-19421627D01*
X8804158Y-19421627D02*
X8794634Y-19393055D01*
X8794634Y-19393055D02*
X8785111Y-19374008D01*
X8785111Y-19374008D02*
X8766063Y-19345436D01*
X8766063Y-19345436D02*
X8756539Y-19335912D01*
D14*
X3777820Y-19768820D02*
X3777820Y-19705180D01*
X3714180Y-19705180D01*
X3714180Y-19768820D01*
X3777820Y-19768820D01*
D10*
X4089872Y-19628484D02*
X4108920Y-19628484D01*
X4108920Y-19628484D02*
X4127967Y-19638008D01*
X4127967Y-19638008D02*
X4137491Y-19647531D01*
X4137491Y-19647531D02*
X4147015Y-19666579D01*
X4147015Y-19666579D02*
X4156539Y-19704674D01*
X4156539Y-19704674D02*
X4156539Y-19752293D01*
X4156539Y-19752293D02*
X4147015Y-19790389D01*
X4147015Y-19790389D02*
X4137491Y-19809436D01*
X4137491Y-19809436D02*
X4127967Y-19818960D01*
X4127967Y-19818960D02*
X4108920Y-19828484D01*
X4108920Y-19828484D02*
X4089872Y-19828484D01*
X4089872Y-19828484D02*
X4070824Y-19818960D01*
X4070824Y-19818960D02*
X4061301Y-19809436D01*
X4061301Y-19809436D02*
X4051777Y-19790389D01*
X4051777Y-19790389D02*
X4042253Y-19752293D01*
X4042253Y-19752293D02*
X4042253Y-19704674D01*
X4042253Y-19704674D02*
X4051777Y-19666579D01*
X4051777Y-19666579D02*
X4061301Y-19647531D01*
X4061301Y-19647531D02*
X4070824Y-19638008D01*
X4070824Y-19638008D02*
X4089872Y-19628484D01*
X4242253Y-19809436D02*
X4251777Y-19818960D01*
X4251777Y-19818960D02*
X4242253Y-19828484D01*
X4242253Y-19828484D02*
X4232729Y-19818960D01*
X4232729Y-19818960D02*
X4242253Y-19809436D01*
X4242253Y-19809436D02*
X4242253Y-19828484D01*
X4347015Y-19828484D02*
X4385110Y-19828484D01*
X4385110Y-19828484D02*
X4404158Y-19818960D01*
X4404158Y-19818960D02*
X4413682Y-19809436D01*
X4413682Y-19809436D02*
X4432729Y-19780865D01*
X4432729Y-19780865D02*
X4442253Y-19742770D01*
X4442253Y-19742770D02*
X4442253Y-19666579D01*
X4442253Y-19666579D02*
X4432729Y-19647531D01*
X4432729Y-19647531D02*
X4423205Y-19638008D01*
X4423205Y-19638008D02*
X4404158Y-19628484D01*
X4404158Y-19628484D02*
X4366063Y-19628484D01*
X4366063Y-19628484D02*
X4347015Y-19638008D01*
X4347015Y-19638008D02*
X4337491Y-19647531D01*
X4337491Y-19647531D02*
X4327967Y-19666579D01*
X4327967Y-19666579D02*
X4327967Y-19714198D01*
X4327967Y-19714198D02*
X4337491Y-19733246D01*
X4337491Y-19733246D02*
X4347015Y-19742770D01*
X4347015Y-19742770D02*
X4366063Y-19752293D01*
X4366063Y-19752293D02*
X4404158Y-19752293D01*
X4404158Y-19752293D02*
X4423205Y-19742770D01*
X4423205Y-19742770D02*
X4432729Y-19733246D01*
X4432729Y-19733246D02*
X4442253Y-19714198D01*
X4566063Y-19628484D02*
X4585110Y-19628484D01*
X4585110Y-19628484D02*
X4604158Y-19638008D01*
X4604158Y-19638008D02*
X4613682Y-19647531D01*
X4613682Y-19647531D02*
X4623205Y-19666579D01*
X4623205Y-19666579D02*
X4632729Y-19704674D01*
X4632729Y-19704674D02*
X4632729Y-19752293D01*
X4632729Y-19752293D02*
X4623205Y-19790389D01*
X4623205Y-19790389D02*
X4613682Y-19809436D01*
X4613682Y-19809436D02*
X4604158Y-19818960D01*
X4604158Y-19818960D02*
X4585110Y-19828484D01*
X4585110Y-19828484D02*
X4566063Y-19828484D01*
X4566063Y-19828484D02*
X4547015Y-19818960D01*
X4547015Y-19818960D02*
X4537491Y-19809436D01*
X4537491Y-19809436D02*
X4527967Y-19790389D01*
X4527967Y-19790389D02*
X4518444Y-19752293D01*
X4518444Y-19752293D02*
X4518444Y-19704674D01*
X4518444Y-19704674D02*
X4527967Y-19666579D01*
X4527967Y-19666579D02*
X4537491Y-19647531D01*
X4537491Y-19647531D02*
X4547015Y-19638008D01*
X4547015Y-19638008D02*
X4566063Y-19628484D01*
X4756539Y-19628484D02*
X4775586Y-19628484D01*
X4775586Y-19628484D02*
X4794634Y-19638008D01*
X4794634Y-19638008D02*
X4804158Y-19647531D01*
X4804158Y-19647531D02*
X4813682Y-19666579D01*
X4813682Y-19666579D02*
X4823205Y-19704674D01*
X4823205Y-19704674D02*
X4823205Y-19752293D01*
X4823205Y-19752293D02*
X4813682Y-19790389D01*
X4813682Y-19790389D02*
X4804158Y-19809436D01*
X4804158Y-19809436D02*
X4794634Y-19818960D01*
X4794634Y-19818960D02*
X4775586Y-19828484D01*
X4775586Y-19828484D02*
X4756539Y-19828484D01*
X4756539Y-19828484D02*
X4737491Y-19818960D01*
X4737491Y-19818960D02*
X4727967Y-19809436D01*
X4727967Y-19809436D02*
X4718444Y-19790389D01*
X4718444Y-19790389D02*
X4708920Y-19752293D01*
X4708920Y-19752293D02*
X4708920Y-19704674D01*
X4708920Y-19704674D02*
X4718444Y-19666579D01*
X4718444Y-19666579D02*
X4727967Y-19647531D01*
X4727967Y-19647531D02*
X4737491Y-19638008D01*
X4737491Y-19638008D02*
X4756539Y-19628484D01*
X4908920Y-19828484D02*
X4908920Y-19695150D01*
X4908920Y-19714198D02*
X4918444Y-19704674D01*
X4918444Y-19704674D02*
X4937491Y-19695150D01*
X4937491Y-19695150D02*
X4966063Y-19695150D01*
X4966063Y-19695150D02*
X4985110Y-19704674D01*
X4985110Y-19704674D02*
X4994634Y-19723722D01*
X4994634Y-19723722D02*
X4994634Y-19828484D01*
X4994634Y-19723722D02*
X5004158Y-19704674D01*
X5004158Y-19704674D02*
X5023205Y-19695150D01*
X5023205Y-19695150D02*
X5051777Y-19695150D01*
X5051777Y-19695150D02*
X5070825Y-19704674D01*
X5070825Y-19704674D02*
X5080348Y-19723722D01*
X5080348Y-19723722D02*
X5080348Y-19828484D01*
X5175586Y-19828484D02*
X5175586Y-19695150D01*
X5175586Y-19714198D02*
X5185110Y-19704674D01*
X5185110Y-19704674D02*
X5204158Y-19695150D01*
X5204158Y-19695150D02*
X5232729Y-19695150D01*
X5232729Y-19695150D02*
X5251777Y-19704674D01*
X5251777Y-19704674D02*
X5261301Y-19723722D01*
X5261301Y-19723722D02*
X5261301Y-19828484D01*
X5261301Y-19723722D02*
X5270825Y-19704674D01*
X5270825Y-19704674D02*
X5289872Y-19695150D01*
X5289872Y-19695150D02*
X5318444Y-19695150D01*
X5318444Y-19695150D02*
X5337491Y-19704674D01*
X5337491Y-19704674D02*
X5347015Y-19723722D01*
X5347015Y-19723722D02*
X5347015Y-19828484D01*
X5737491Y-19618960D02*
X5566063Y-19876103D01*
X5994634Y-19628484D02*
X6013682Y-19628484D01*
X6013682Y-19628484D02*
X6032729Y-19638008D01*
X6032729Y-19638008D02*
X6042253Y-19647531D01*
X6042253Y-19647531D02*
X6051777Y-19666579D01*
X6051777Y-19666579D02*
X6061301Y-19704674D01*
X6061301Y-19704674D02*
X6061301Y-19752293D01*
X6061301Y-19752293D02*
X6051777Y-19790389D01*
X6051777Y-19790389D02*
X6042253Y-19809436D01*
X6042253Y-19809436D02*
X6032729Y-19818960D01*
X6032729Y-19818960D02*
X6013682Y-19828484D01*
X6013682Y-19828484D02*
X5994634Y-19828484D01*
X5994634Y-19828484D02*
X5975586Y-19818960D01*
X5975586Y-19818960D02*
X5966063Y-19809436D01*
X5966063Y-19809436D02*
X5956539Y-19790389D01*
X5956539Y-19790389D02*
X5947015Y-19752293D01*
X5947015Y-19752293D02*
X5947015Y-19704674D01*
X5947015Y-19704674D02*
X5956539Y-19666579D01*
X5956539Y-19666579D02*
X5966063Y-19647531D01*
X5966063Y-19647531D02*
X5975586Y-19638008D01*
X5975586Y-19638008D02*
X5994634Y-19628484D01*
X6147015Y-19809436D02*
X6156539Y-19818960D01*
X6156539Y-19818960D02*
X6147015Y-19828484D01*
X6147015Y-19828484D02*
X6137491Y-19818960D01*
X6137491Y-19818960D02*
X6147015Y-19809436D01*
X6147015Y-19809436D02*
X6147015Y-19828484D01*
X6280348Y-19628484D02*
X6299396Y-19628484D01*
X6299396Y-19628484D02*
X6318444Y-19638008D01*
X6318444Y-19638008D02*
X6327967Y-19647531D01*
X6327967Y-19647531D02*
X6337491Y-19666579D01*
X6337491Y-19666579D02*
X6347015Y-19704674D01*
X6347015Y-19704674D02*
X6347015Y-19752293D01*
X6347015Y-19752293D02*
X6337491Y-19790389D01*
X6337491Y-19790389D02*
X6327967Y-19809436D01*
X6327967Y-19809436D02*
X6318444Y-19818960D01*
X6318444Y-19818960D02*
X6299396Y-19828484D01*
X6299396Y-19828484D02*
X6280348Y-19828484D01*
X6280348Y-19828484D02*
X6261301Y-19818960D01*
X6261301Y-19818960D02*
X6251777Y-19809436D01*
X6251777Y-19809436D02*
X6242253Y-19790389D01*
X6242253Y-19790389D02*
X6232729Y-19752293D01*
X6232729Y-19752293D02*
X6232729Y-19704674D01*
X6232729Y-19704674D02*
X6242253Y-19666579D01*
X6242253Y-19666579D02*
X6251777Y-19647531D01*
X6251777Y-19647531D02*
X6261301Y-19638008D01*
X6261301Y-19638008D02*
X6280348Y-19628484D01*
X6413682Y-19628484D02*
X6537491Y-19628484D01*
X6537491Y-19628484D02*
X6470825Y-19704674D01*
X6470825Y-19704674D02*
X6499396Y-19704674D01*
X6499396Y-19704674D02*
X6518444Y-19714198D01*
X6518444Y-19714198D02*
X6527967Y-19723722D01*
X6527967Y-19723722D02*
X6537491Y-19742770D01*
X6537491Y-19742770D02*
X6537491Y-19790389D01*
X6537491Y-19790389D02*
X6527967Y-19809436D01*
X6527967Y-19809436D02*
X6518444Y-19818960D01*
X6518444Y-19818960D02*
X6499396Y-19828484D01*
X6499396Y-19828484D02*
X6442253Y-19828484D01*
X6442253Y-19828484D02*
X6423206Y-19818960D01*
X6423206Y-19818960D02*
X6413682Y-19809436D01*
X6718444Y-19628484D02*
X6623206Y-19628484D01*
X6623206Y-19628484D02*
X6613682Y-19723722D01*
X6613682Y-19723722D02*
X6623206Y-19714198D01*
X6623206Y-19714198D02*
X6642253Y-19704674D01*
X6642253Y-19704674D02*
X6689872Y-19704674D01*
X6689872Y-19704674D02*
X6708920Y-19714198D01*
X6708920Y-19714198D02*
X6718444Y-19723722D01*
X6718444Y-19723722D02*
X6727967Y-19742770D01*
X6727967Y-19742770D02*
X6727967Y-19790389D01*
X6727967Y-19790389D02*
X6718444Y-19809436D01*
X6718444Y-19809436D02*
X6708920Y-19818960D01*
X6708920Y-19818960D02*
X6689872Y-19828484D01*
X6689872Y-19828484D02*
X6642253Y-19828484D01*
X6642253Y-19828484D02*
X6623206Y-19818960D01*
X6623206Y-19818960D02*
X6613682Y-19809436D01*
X6899396Y-19695150D02*
X6899396Y-19828484D01*
X6851777Y-19618960D02*
X6804158Y-19761817D01*
X6804158Y-19761817D02*
X6927967Y-19761817D01*
X6994634Y-19628484D02*
X6994634Y-19666579D01*
X7070825Y-19628484D02*
X7070825Y-19666579D01*
X7366063Y-19904674D02*
X7356539Y-19895150D01*
X7356539Y-19895150D02*
X7337491Y-19866579D01*
X7337491Y-19866579D02*
X7327968Y-19847531D01*
X7327968Y-19847531D02*
X7318444Y-19818960D01*
X7318444Y-19818960D02*
X7308920Y-19771341D01*
X7308920Y-19771341D02*
X7308920Y-19733246D01*
X7308920Y-19733246D02*
X7318444Y-19685627D01*
X7318444Y-19685627D02*
X7327968Y-19657055D01*
X7327968Y-19657055D02*
X7337491Y-19638008D01*
X7337491Y-19638008D02*
X7356539Y-19609436D01*
X7356539Y-19609436D02*
X7366063Y-19599912D01*
X7527968Y-19628484D02*
X7489872Y-19628484D01*
X7489872Y-19628484D02*
X7470825Y-19638008D01*
X7470825Y-19638008D02*
X7461301Y-19647531D01*
X7461301Y-19647531D02*
X7442253Y-19676103D01*
X7442253Y-19676103D02*
X7432729Y-19714198D01*
X7432729Y-19714198D02*
X7432729Y-19790389D01*
X7432729Y-19790389D02*
X7442253Y-19809436D01*
X7442253Y-19809436D02*
X7451777Y-19818960D01*
X7451777Y-19818960D02*
X7470825Y-19828484D01*
X7470825Y-19828484D02*
X7508920Y-19828484D01*
X7508920Y-19828484D02*
X7527968Y-19818960D01*
X7527968Y-19818960D02*
X7537491Y-19809436D01*
X7537491Y-19809436D02*
X7547015Y-19790389D01*
X7547015Y-19790389D02*
X7547015Y-19742770D01*
X7547015Y-19742770D02*
X7537491Y-19723722D01*
X7537491Y-19723722D02*
X7527968Y-19714198D01*
X7527968Y-19714198D02*
X7508920Y-19704674D01*
X7508920Y-19704674D02*
X7470825Y-19704674D01*
X7470825Y-19704674D02*
X7451777Y-19714198D01*
X7451777Y-19714198D02*
X7442253Y-19723722D01*
X7442253Y-19723722D02*
X7432729Y-19742770D01*
X7785110Y-19828484D02*
X7785110Y-19628484D01*
X7870825Y-19828484D02*
X7870825Y-19723722D01*
X7870825Y-19723722D02*
X7861301Y-19704674D01*
X7861301Y-19704674D02*
X7842253Y-19695150D01*
X7842253Y-19695150D02*
X7813682Y-19695150D01*
X7813682Y-19695150D02*
X7794634Y-19704674D01*
X7794634Y-19704674D02*
X7785110Y-19714198D01*
X7994634Y-19828484D02*
X7975587Y-19818960D01*
X7975587Y-19818960D02*
X7966063Y-19809436D01*
X7966063Y-19809436D02*
X7956539Y-19790389D01*
X7956539Y-19790389D02*
X7956539Y-19733246D01*
X7956539Y-19733246D02*
X7966063Y-19714198D01*
X7966063Y-19714198D02*
X7975587Y-19704674D01*
X7975587Y-19704674D02*
X7994634Y-19695150D01*
X7994634Y-19695150D02*
X8023206Y-19695150D01*
X8023206Y-19695150D02*
X8042253Y-19704674D01*
X8042253Y-19704674D02*
X8051777Y-19714198D01*
X8051777Y-19714198D02*
X8061301Y-19733246D01*
X8061301Y-19733246D02*
X8061301Y-19790389D01*
X8061301Y-19790389D02*
X8051777Y-19809436D01*
X8051777Y-19809436D02*
X8042253Y-19818960D01*
X8042253Y-19818960D02*
X8023206Y-19828484D01*
X8023206Y-19828484D02*
X7994634Y-19828484D01*
X8175587Y-19828484D02*
X8156539Y-19818960D01*
X8156539Y-19818960D02*
X8147015Y-19799912D01*
X8147015Y-19799912D02*
X8147015Y-19628484D01*
X8327968Y-19818960D02*
X8308920Y-19828484D01*
X8308920Y-19828484D02*
X8270825Y-19828484D01*
X8270825Y-19828484D02*
X8251777Y-19818960D01*
X8251777Y-19818960D02*
X8242253Y-19799912D01*
X8242253Y-19799912D02*
X8242253Y-19723722D01*
X8242253Y-19723722D02*
X8251777Y-19704674D01*
X8251777Y-19704674D02*
X8270825Y-19695150D01*
X8270825Y-19695150D02*
X8308920Y-19695150D01*
X8308920Y-19695150D02*
X8327968Y-19704674D01*
X8327968Y-19704674D02*
X8337491Y-19723722D01*
X8337491Y-19723722D02*
X8337491Y-19742770D01*
X8337491Y-19742770D02*
X8242253Y-19761817D01*
X8413682Y-19818960D02*
X8432730Y-19828484D01*
X8432730Y-19828484D02*
X8470825Y-19828484D01*
X8470825Y-19828484D02*
X8489873Y-19818960D01*
X8489873Y-19818960D02*
X8499396Y-19799912D01*
X8499396Y-19799912D02*
X8499396Y-19790389D01*
X8499396Y-19790389D02*
X8489873Y-19771341D01*
X8489873Y-19771341D02*
X8470825Y-19761817D01*
X8470825Y-19761817D02*
X8442253Y-19761817D01*
X8442253Y-19761817D02*
X8423206Y-19752293D01*
X8423206Y-19752293D02*
X8413682Y-19733246D01*
X8413682Y-19733246D02*
X8413682Y-19723722D01*
X8413682Y-19723722D02*
X8423206Y-19704674D01*
X8423206Y-19704674D02*
X8442253Y-19695150D01*
X8442253Y-19695150D02*
X8470825Y-19695150D01*
X8470825Y-19695150D02*
X8489873Y-19704674D01*
X8566063Y-19904674D02*
X8575587Y-19895150D01*
X8575587Y-19895150D02*
X8594634Y-19866579D01*
X8594634Y-19866579D02*
X8604158Y-19847531D01*
X8604158Y-19847531D02*
X8613682Y-19818960D01*
X8613682Y-19818960D02*
X8623206Y-19771341D01*
X8623206Y-19771341D02*
X8623206Y-19733246D01*
X8623206Y-19733246D02*
X8613682Y-19685627D01*
X8613682Y-19685627D02*
X8604158Y-19657055D01*
X8604158Y-19657055D02*
X8594634Y-19638008D01*
X8594634Y-19638008D02*
X8575587Y-19609436D01*
X8575587Y-19609436D02*
X8566063Y-19599912D01*
D15*
X3741000Y-20051000D02*
X3791000Y-20001000D01*
X3741000Y-19951000D01*
X3691000Y-20001000D01*
X3741000Y-20051000D01*
D10*
X4156539Y-20092484D02*
X4042253Y-20092484D01*
X4099396Y-20092484D02*
X4099396Y-19892484D01*
X4099396Y-19892484D02*
X4080348Y-19921055D01*
X4080348Y-19921055D02*
X4061301Y-19940103D01*
X4061301Y-19940103D02*
X4042253Y-19949627D01*
X4242253Y-20073436D02*
X4251777Y-20082960D01*
X4251777Y-20082960D02*
X4242253Y-20092484D01*
X4242253Y-20092484D02*
X4232729Y-20082960D01*
X4232729Y-20082960D02*
X4242253Y-20073436D01*
X4242253Y-20073436D02*
X4242253Y-20092484D01*
X4375586Y-19892484D02*
X4394634Y-19892484D01*
X4394634Y-19892484D02*
X4413682Y-19902008D01*
X4413682Y-19902008D02*
X4423205Y-19911531D01*
X4423205Y-19911531D02*
X4432729Y-19930579D01*
X4432729Y-19930579D02*
X4442253Y-19968674D01*
X4442253Y-19968674D02*
X4442253Y-20016293D01*
X4442253Y-20016293D02*
X4432729Y-20054389D01*
X4432729Y-20054389D02*
X4423205Y-20073436D01*
X4423205Y-20073436D02*
X4413682Y-20082960D01*
X4413682Y-20082960D02*
X4394634Y-20092484D01*
X4394634Y-20092484D02*
X4375586Y-20092484D01*
X4375586Y-20092484D02*
X4356539Y-20082960D01*
X4356539Y-20082960D02*
X4347015Y-20073436D01*
X4347015Y-20073436D02*
X4337491Y-20054389D01*
X4337491Y-20054389D02*
X4327967Y-20016293D01*
X4327967Y-20016293D02*
X4327967Y-19968674D01*
X4327967Y-19968674D02*
X4337491Y-19930579D01*
X4337491Y-19930579D02*
X4347015Y-19911531D01*
X4347015Y-19911531D02*
X4356539Y-19902008D01*
X4356539Y-19902008D02*
X4375586Y-19892484D01*
X4566063Y-19892484D02*
X4585110Y-19892484D01*
X4585110Y-19892484D02*
X4604158Y-19902008D01*
X4604158Y-19902008D02*
X4613682Y-19911531D01*
X4613682Y-19911531D02*
X4623205Y-19930579D01*
X4623205Y-19930579D02*
X4632729Y-19968674D01*
X4632729Y-19968674D02*
X4632729Y-20016293D01*
X4632729Y-20016293D02*
X4623205Y-20054389D01*
X4623205Y-20054389D02*
X4613682Y-20073436D01*
X4613682Y-20073436D02*
X4604158Y-20082960D01*
X4604158Y-20082960D02*
X4585110Y-20092484D01*
X4585110Y-20092484D02*
X4566063Y-20092484D01*
X4566063Y-20092484D02*
X4547015Y-20082960D01*
X4547015Y-20082960D02*
X4537491Y-20073436D01*
X4537491Y-20073436D02*
X4527967Y-20054389D01*
X4527967Y-20054389D02*
X4518444Y-20016293D01*
X4518444Y-20016293D02*
X4518444Y-19968674D01*
X4518444Y-19968674D02*
X4527967Y-19930579D01*
X4527967Y-19930579D02*
X4537491Y-19911531D01*
X4537491Y-19911531D02*
X4547015Y-19902008D01*
X4547015Y-19902008D02*
X4566063Y-19892484D01*
X4756539Y-19892484D02*
X4775586Y-19892484D01*
X4775586Y-19892484D02*
X4794634Y-19902008D01*
X4794634Y-19902008D02*
X4804158Y-19911531D01*
X4804158Y-19911531D02*
X4813682Y-19930579D01*
X4813682Y-19930579D02*
X4823205Y-19968674D01*
X4823205Y-19968674D02*
X4823205Y-20016293D01*
X4823205Y-20016293D02*
X4813682Y-20054389D01*
X4813682Y-20054389D02*
X4804158Y-20073436D01*
X4804158Y-20073436D02*
X4794634Y-20082960D01*
X4794634Y-20082960D02*
X4775586Y-20092484D01*
X4775586Y-20092484D02*
X4756539Y-20092484D01*
X4756539Y-20092484D02*
X4737491Y-20082960D01*
X4737491Y-20082960D02*
X4727967Y-20073436D01*
X4727967Y-20073436D02*
X4718444Y-20054389D01*
X4718444Y-20054389D02*
X4708920Y-20016293D01*
X4708920Y-20016293D02*
X4708920Y-19968674D01*
X4708920Y-19968674D02*
X4718444Y-19930579D01*
X4718444Y-19930579D02*
X4727967Y-19911531D01*
X4727967Y-19911531D02*
X4737491Y-19902008D01*
X4737491Y-19902008D02*
X4756539Y-19892484D01*
X4908920Y-20092484D02*
X4908920Y-19959150D01*
X4908920Y-19978198D02*
X4918444Y-19968674D01*
X4918444Y-19968674D02*
X4937491Y-19959150D01*
X4937491Y-19959150D02*
X4966063Y-19959150D01*
X4966063Y-19959150D02*
X4985110Y-19968674D01*
X4985110Y-19968674D02*
X4994634Y-19987722D01*
X4994634Y-19987722D02*
X4994634Y-20092484D01*
X4994634Y-19987722D02*
X5004158Y-19968674D01*
X5004158Y-19968674D02*
X5023205Y-19959150D01*
X5023205Y-19959150D02*
X5051777Y-19959150D01*
X5051777Y-19959150D02*
X5070825Y-19968674D01*
X5070825Y-19968674D02*
X5080348Y-19987722D01*
X5080348Y-19987722D02*
X5080348Y-20092484D01*
X5175586Y-20092484D02*
X5175586Y-19959150D01*
X5175586Y-19978198D02*
X5185110Y-19968674D01*
X5185110Y-19968674D02*
X5204158Y-19959150D01*
X5204158Y-19959150D02*
X5232729Y-19959150D01*
X5232729Y-19959150D02*
X5251777Y-19968674D01*
X5251777Y-19968674D02*
X5261301Y-19987722D01*
X5261301Y-19987722D02*
X5261301Y-20092484D01*
X5261301Y-19987722D02*
X5270825Y-19968674D01*
X5270825Y-19968674D02*
X5289872Y-19959150D01*
X5289872Y-19959150D02*
X5318444Y-19959150D01*
X5318444Y-19959150D02*
X5337491Y-19968674D01*
X5337491Y-19968674D02*
X5347015Y-19987722D01*
X5347015Y-19987722D02*
X5347015Y-20092484D01*
X5737491Y-19882960D02*
X5566063Y-20140103D01*
X5994634Y-19892484D02*
X6013682Y-19892484D01*
X6013682Y-19892484D02*
X6032729Y-19902008D01*
X6032729Y-19902008D02*
X6042253Y-19911531D01*
X6042253Y-19911531D02*
X6051777Y-19930579D01*
X6051777Y-19930579D02*
X6061301Y-19968674D01*
X6061301Y-19968674D02*
X6061301Y-20016293D01*
X6061301Y-20016293D02*
X6051777Y-20054389D01*
X6051777Y-20054389D02*
X6042253Y-20073436D01*
X6042253Y-20073436D02*
X6032729Y-20082960D01*
X6032729Y-20082960D02*
X6013682Y-20092484D01*
X6013682Y-20092484D02*
X5994634Y-20092484D01*
X5994634Y-20092484D02*
X5975586Y-20082960D01*
X5975586Y-20082960D02*
X5966063Y-20073436D01*
X5966063Y-20073436D02*
X5956539Y-20054389D01*
X5956539Y-20054389D02*
X5947015Y-20016293D01*
X5947015Y-20016293D02*
X5947015Y-19968674D01*
X5947015Y-19968674D02*
X5956539Y-19930579D01*
X5956539Y-19930579D02*
X5966063Y-19911531D01*
X5966063Y-19911531D02*
X5975586Y-19902008D01*
X5975586Y-19902008D02*
X5994634Y-19892484D01*
X6147015Y-20073436D02*
X6156539Y-20082960D01*
X6156539Y-20082960D02*
X6147015Y-20092484D01*
X6147015Y-20092484D02*
X6137491Y-20082960D01*
X6137491Y-20082960D02*
X6147015Y-20073436D01*
X6147015Y-20073436D02*
X6147015Y-20092484D01*
X6280348Y-19892484D02*
X6299396Y-19892484D01*
X6299396Y-19892484D02*
X6318444Y-19902008D01*
X6318444Y-19902008D02*
X6327967Y-19911531D01*
X6327967Y-19911531D02*
X6337491Y-19930579D01*
X6337491Y-19930579D02*
X6347015Y-19968674D01*
X6347015Y-19968674D02*
X6347015Y-20016293D01*
X6347015Y-20016293D02*
X6337491Y-20054389D01*
X6337491Y-20054389D02*
X6327967Y-20073436D01*
X6327967Y-20073436D02*
X6318444Y-20082960D01*
X6318444Y-20082960D02*
X6299396Y-20092484D01*
X6299396Y-20092484D02*
X6280348Y-20092484D01*
X6280348Y-20092484D02*
X6261301Y-20082960D01*
X6261301Y-20082960D02*
X6251777Y-20073436D01*
X6251777Y-20073436D02*
X6242253Y-20054389D01*
X6242253Y-20054389D02*
X6232729Y-20016293D01*
X6232729Y-20016293D02*
X6232729Y-19968674D01*
X6232729Y-19968674D02*
X6242253Y-19930579D01*
X6242253Y-19930579D02*
X6251777Y-19911531D01*
X6251777Y-19911531D02*
X6261301Y-19902008D01*
X6261301Y-19902008D02*
X6280348Y-19892484D01*
X6413682Y-19892484D02*
X6537491Y-19892484D01*
X6537491Y-19892484D02*
X6470825Y-19968674D01*
X6470825Y-19968674D02*
X6499396Y-19968674D01*
X6499396Y-19968674D02*
X6518444Y-19978198D01*
X6518444Y-19978198D02*
X6527967Y-19987722D01*
X6527967Y-19987722D02*
X6537491Y-20006770D01*
X6537491Y-20006770D02*
X6537491Y-20054389D01*
X6537491Y-20054389D02*
X6527967Y-20073436D01*
X6527967Y-20073436D02*
X6518444Y-20082960D01*
X6518444Y-20082960D02*
X6499396Y-20092484D01*
X6499396Y-20092484D02*
X6442253Y-20092484D01*
X6442253Y-20092484D02*
X6423206Y-20082960D01*
X6423206Y-20082960D02*
X6413682Y-20073436D01*
X6632729Y-20092484D02*
X6670825Y-20092484D01*
X6670825Y-20092484D02*
X6689872Y-20082960D01*
X6689872Y-20082960D02*
X6699396Y-20073436D01*
X6699396Y-20073436D02*
X6718444Y-20044865D01*
X6718444Y-20044865D02*
X6727967Y-20006770D01*
X6727967Y-20006770D02*
X6727967Y-19930579D01*
X6727967Y-19930579D02*
X6718444Y-19911531D01*
X6718444Y-19911531D02*
X6708920Y-19902008D01*
X6708920Y-19902008D02*
X6689872Y-19892484D01*
X6689872Y-19892484D02*
X6651777Y-19892484D01*
X6651777Y-19892484D02*
X6632729Y-19902008D01*
X6632729Y-19902008D02*
X6623206Y-19911531D01*
X6623206Y-19911531D02*
X6613682Y-19930579D01*
X6613682Y-19930579D02*
X6613682Y-19978198D01*
X6613682Y-19978198D02*
X6623206Y-19997246D01*
X6623206Y-19997246D02*
X6632729Y-20006770D01*
X6632729Y-20006770D02*
X6651777Y-20016293D01*
X6651777Y-20016293D02*
X6689872Y-20016293D01*
X6689872Y-20016293D02*
X6708920Y-20006770D01*
X6708920Y-20006770D02*
X6718444Y-19997246D01*
X6718444Y-19997246D02*
X6727967Y-19978198D01*
X6899396Y-19959150D02*
X6899396Y-20092484D01*
X6851777Y-19882960D02*
X6804158Y-20025817D01*
X6804158Y-20025817D02*
X6927967Y-20025817D01*
X6994634Y-19892484D02*
X6994634Y-19930579D01*
X7070825Y-19892484D02*
X7070825Y-19930579D01*
X7366063Y-20168674D02*
X7356539Y-20159150D01*
X7356539Y-20159150D02*
X7337491Y-20130579D01*
X7337491Y-20130579D02*
X7327968Y-20111531D01*
X7327968Y-20111531D02*
X7318444Y-20082960D01*
X7318444Y-20082960D02*
X7308920Y-20035341D01*
X7308920Y-20035341D02*
X7308920Y-19997246D01*
X7308920Y-19997246D02*
X7318444Y-19949627D01*
X7318444Y-19949627D02*
X7327968Y-19921055D01*
X7327968Y-19921055D02*
X7337491Y-19902008D01*
X7337491Y-19902008D02*
X7356539Y-19873436D01*
X7356539Y-19873436D02*
X7366063Y-19863912D01*
X7537491Y-19892484D02*
X7442253Y-19892484D01*
X7442253Y-19892484D02*
X7432729Y-19987722D01*
X7432729Y-19987722D02*
X7442253Y-19978198D01*
X7442253Y-19978198D02*
X7461301Y-19968674D01*
X7461301Y-19968674D02*
X7508920Y-19968674D01*
X7508920Y-19968674D02*
X7527968Y-19978198D01*
X7527968Y-19978198D02*
X7537491Y-19987722D01*
X7537491Y-19987722D02*
X7547015Y-20006770D01*
X7547015Y-20006770D02*
X7547015Y-20054389D01*
X7547015Y-20054389D02*
X7537491Y-20073436D01*
X7537491Y-20073436D02*
X7527968Y-20082960D01*
X7527968Y-20082960D02*
X7508920Y-20092484D01*
X7508920Y-20092484D02*
X7461301Y-20092484D01*
X7461301Y-20092484D02*
X7442253Y-20082960D01*
X7442253Y-20082960D02*
X7432729Y-20073436D01*
X7718444Y-19959150D02*
X7718444Y-20092484D01*
X7670825Y-19882960D02*
X7623206Y-20025817D01*
X7623206Y-20025817D02*
X7747015Y-20025817D01*
X7975587Y-20092484D02*
X7975587Y-19892484D01*
X8061301Y-20092484D02*
X8061301Y-19987722D01*
X8061301Y-19987722D02*
X8051777Y-19968674D01*
X8051777Y-19968674D02*
X8032730Y-19959150D01*
X8032730Y-19959150D02*
X8004158Y-19959150D01*
X8004158Y-19959150D02*
X7985110Y-19968674D01*
X7985110Y-19968674D02*
X7975587Y-19978198D01*
X8185110Y-20092484D02*
X8166063Y-20082960D01*
X8166063Y-20082960D02*
X8156539Y-20073436D01*
X8156539Y-20073436D02*
X8147015Y-20054389D01*
X8147015Y-20054389D02*
X8147015Y-19997246D01*
X8147015Y-19997246D02*
X8156539Y-19978198D01*
X8156539Y-19978198D02*
X8166063Y-19968674D01*
X8166063Y-19968674D02*
X8185110Y-19959150D01*
X8185110Y-19959150D02*
X8213682Y-19959150D01*
X8213682Y-19959150D02*
X8232730Y-19968674D01*
X8232730Y-19968674D02*
X8242253Y-19978198D01*
X8242253Y-19978198D02*
X8251777Y-19997246D01*
X8251777Y-19997246D02*
X8251777Y-20054389D01*
X8251777Y-20054389D02*
X8242253Y-20073436D01*
X8242253Y-20073436D02*
X8232730Y-20082960D01*
X8232730Y-20082960D02*
X8213682Y-20092484D01*
X8213682Y-20092484D02*
X8185110Y-20092484D01*
X8366063Y-20092484D02*
X8347015Y-20082960D01*
X8347015Y-20082960D02*
X8337491Y-20063912D01*
X8337491Y-20063912D02*
X8337491Y-19892484D01*
X8518444Y-20082960D02*
X8499396Y-20092484D01*
X8499396Y-20092484D02*
X8461301Y-20092484D01*
X8461301Y-20092484D02*
X8442253Y-20082960D01*
X8442253Y-20082960D02*
X8432730Y-20063912D01*
X8432730Y-20063912D02*
X8432730Y-19987722D01*
X8432730Y-19987722D02*
X8442253Y-19968674D01*
X8442253Y-19968674D02*
X8461301Y-19959150D01*
X8461301Y-19959150D02*
X8499396Y-19959150D01*
X8499396Y-19959150D02*
X8518444Y-19968674D01*
X8518444Y-19968674D02*
X8527968Y-19987722D01*
X8527968Y-19987722D02*
X8527968Y-20006770D01*
X8527968Y-20006770D02*
X8432730Y-20025817D01*
X8604158Y-20082960D02*
X8623206Y-20092484D01*
X8623206Y-20092484D02*
X8661301Y-20092484D01*
X8661301Y-20092484D02*
X8680349Y-20082960D01*
X8680349Y-20082960D02*
X8689873Y-20063912D01*
X8689873Y-20063912D02*
X8689873Y-20054389D01*
X8689873Y-20054389D02*
X8680349Y-20035341D01*
X8680349Y-20035341D02*
X8661301Y-20025817D01*
X8661301Y-20025817D02*
X8632730Y-20025817D01*
X8632730Y-20025817D02*
X8613682Y-20016293D01*
X8613682Y-20016293D02*
X8604158Y-19997246D01*
X8604158Y-19997246D02*
X8604158Y-19987722D01*
X8604158Y-19987722D02*
X8613682Y-19968674D01*
X8613682Y-19968674D02*
X8632730Y-19959150D01*
X8632730Y-19959150D02*
X8661301Y-19959150D01*
X8661301Y-19959150D02*
X8680349Y-19968674D01*
X8756539Y-20168674D02*
X8766063Y-20159150D01*
X8766063Y-20159150D02*
X8785111Y-20130579D01*
X8785111Y-20130579D02*
X8794634Y-20111531D01*
X8794634Y-20111531D02*
X8804158Y-20082960D01*
X8804158Y-20082960D02*
X8813682Y-20035341D01*
X8813682Y-20035341D02*
X8813682Y-19997246D01*
X8813682Y-19997246D02*
X8804158Y-19949627D01*
X8804158Y-19949627D02*
X8794634Y-19921055D01*
X8794634Y-19921055D02*
X8785111Y-19902008D01*
X8785111Y-19902008D02*
X8766063Y-19873436D01*
X8766063Y-19873436D02*
X8756539Y-19863912D01*
D16*
X3681000Y-20210000D02*
X3791000Y-20320000D01*
X3791000Y-20210000D02*
X3681000Y-20320000D01*
X3791000Y-20265000D02*
G75*
G03*
X3791000Y-20265000I-55000J0D01*
G01*
D10*
X4156539Y-20356484D02*
X4042253Y-20356484D01*
X4099396Y-20356484D02*
X4099396Y-20156484D01*
X4099396Y-20156484D02*
X4080348Y-20185055D01*
X4080348Y-20185055D02*
X4061301Y-20204103D01*
X4061301Y-20204103D02*
X4042253Y-20213627D01*
X4242253Y-20337436D02*
X4251777Y-20346960D01*
X4251777Y-20346960D02*
X4242253Y-20356484D01*
X4242253Y-20356484D02*
X4232729Y-20346960D01*
X4232729Y-20346960D02*
X4242253Y-20337436D01*
X4242253Y-20337436D02*
X4242253Y-20356484D01*
X4442253Y-20356484D02*
X4327967Y-20356484D01*
X4385110Y-20356484D02*
X4385110Y-20156484D01*
X4385110Y-20156484D02*
X4366063Y-20185055D01*
X4366063Y-20185055D02*
X4347015Y-20204103D01*
X4347015Y-20204103D02*
X4327967Y-20213627D01*
X4566063Y-20156484D02*
X4585110Y-20156484D01*
X4585110Y-20156484D02*
X4604158Y-20166008D01*
X4604158Y-20166008D02*
X4613682Y-20175531D01*
X4613682Y-20175531D02*
X4623205Y-20194579D01*
X4623205Y-20194579D02*
X4632729Y-20232674D01*
X4632729Y-20232674D02*
X4632729Y-20280293D01*
X4632729Y-20280293D02*
X4623205Y-20318389D01*
X4623205Y-20318389D02*
X4613682Y-20337436D01*
X4613682Y-20337436D02*
X4604158Y-20346960D01*
X4604158Y-20346960D02*
X4585110Y-20356484D01*
X4585110Y-20356484D02*
X4566063Y-20356484D01*
X4566063Y-20356484D02*
X4547015Y-20346960D01*
X4547015Y-20346960D02*
X4537491Y-20337436D01*
X4537491Y-20337436D02*
X4527967Y-20318389D01*
X4527967Y-20318389D02*
X4518444Y-20280293D01*
X4518444Y-20280293D02*
X4518444Y-20232674D01*
X4518444Y-20232674D02*
X4527967Y-20194579D01*
X4527967Y-20194579D02*
X4537491Y-20175531D01*
X4537491Y-20175531D02*
X4547015Y-20166008D01*
X4547015Y-20166008D02*
X4566063Y-20156484D01*
X4756539Y-20156484D02*
X4775586Y-20156484D01*
X4775586Y-20156484D02*
X4794634Y-20166008D01*
X4794634Y-20166008D02*
X4804158Y-20175531D01*
X4804158Y-20175531D02*
X4813682Y-20194579D01*
X4813682Y-20194579D02*
X4823205Y-20232674D01*
X4823205Y-20232674D02*
X4823205Y-20280293D01*
X4823205Y-20280293D02*
X4813682Y-20318389D01*
X4813682Y-20318389D02*
X4804158Y-20337436D01*
X4804158Y-20337436D02*
X4794634Y-20346960D01*
X4794634Y-20346960D02*
X4775586Y-20356484D01*
X4775586Y-20356484D02*
X4756539Y-20356484D01*
X4756539Y-20356484D02*
X4737491Y-20346960D01*
X4737491Y-20346960D02*
X4727967Y-20337436D01*
X4727967Y-20337436D02*
X4718444Y-20318389D01*
X4718444Y-20318389D02*
X4708920Y-20280293D01*
X4708920Y-20280293D02*
X4708920Y-20232674D01*
X4708920Y-20232674D02*
X4718444Y-20194579D01*
X4718444Y-20194579D02*
X4727967Y-20175531D01*
X4727967Y-20175531D02*
X4737491Y-20166008D01*
X4737491Y-20166008D02*
X4756539Y-20156484D01*
X4908920Y-20356484D02*
X4908920Y-20223150D01*
X4908920Y-20242198D02*
X4918444Y-20232674D01*
X4918444Y-20232674D02*
X4937491Y-20223150D01*
X4937491Y-20223150D02*
X4966063Y-20223150D01*
X4966063Y-20223150D02*
X4985110Y-20232674D01*
X4985110Y-20232674D02*
X4994634Y-20251722D01*
X4994634Y-20251722D02*
X4994634Y-20356484D01*
X4994634Y-20251722D02*
X5004158Y-20232674D01*
X5004158Y-20232674D02*
X5023205Y-20223150D01*
X5023205Y-20223150D02*
X5051777Y-20223150D01*
X5051777Y-20223150D02*
X5070825Y-20232674D01*
X5070825Y-20232674D02*
X5080348Y-20251722D01*
X5080348Y-20251722D02*
X5080348Y-20356484D01*
X5175586Y-20356484D02*
X5175586Y-20223150D01*
X5175586Y-20242198D02*
X5185110Y-20232674D01*
X5185110Y-20232674D02*
X5204158Y-20223150D01*
X5204158Y-20223150D02*
X5232729Y-20223150D01*
X5232729Y-20223150D02*
X5251777Y-20232674D01*
X5251777Y-20232674D02*
X5261301Y-20251722D01*
X5261301Y-20251722D02*
X5261301Y-20356484D01*
X5261301Y-20251722D02*
X5270825Y-20232674D01*
X5270825Y-20232674D02*
X5289872Y-20223150D01*
X5289872Y-20223150D02*
X5318444Y-20223150D01*
X5318444Y-20223150D02*
X5337491Y-20232674D01*
X5337491Y-20232674D02*
X5347015Y-20251722D01*
X5347015Y-20251722D02*
X5347015Y-20356484D01*
X5737491Y-20146960D02*
X5566063Y-20404103D01*
X5994634Y-20156484D02*
X6013682Y-20156484D01*
X6013682Y-20156484D02*
X6032729Y-20166008D01*
X6032729Y-20166008D02*
X6042253Y-20175531D01*
X6042253Y-20175531D02*
X6051777Y-20194579D01*
X6051777Y-20194579D02*
X6061301Y-20232674D01*
X6061301Y-20232674D02*
X6061301Y-20280293D01*
X6061301Y-20280293D02*
X6051777Y-20318389D01*
X6051777Y-20318389D02*
X6042253Y-20337436D01*
X6042253Y-20337436D02*
X6032729Y-20346960D01*
X6032729Y-20346960D02*
X6013682Y-20356484D01*
X6013682Y-20356484D02*
X5994634Y-20356484D01*
X5994634Y-20356484D02*
X5975586Y-20346960D01*
X5975586Y-20346960D02*
X5966063Y-20337436D01*
X5966063Y-20337436D02*
X5956539Y-20318389D01*
X5956539Y-20318389D02*
X5947015Y-20280293D01*
X5947015Y-20280293D02*
X5947015Y-20232674D01*
X5947015Y-20232674D02*
X5956539Y-20194579D01*
X5956539Y-20194579D02*
X5966063Y-20175531D01*
X5966063Y-20175531D02*
X5975586Y-20166008D01*
X5975586Y-20166008D02*
X5994634Y-20156484D01*
X6147015Y-20337436D02*
X6156539Y-20346960D01*
X6156539Y-20346960D02*
X6147015Y-20356484D01*
X6147015Y-20356484D02*
X6137491Y-20346960D01*
X6137491Y-20346960D02*
X6147015Y-20337436D01*
X6147015Y-20337436D02*
X6147015Y-20356484D01*
X6280348Y-20156484D02*
X6299396Y-20156484D01*
X6299396Y-20156484D02*
X6318444Y-20166008D01*
X6318444Y-20166008D02*
X6327967Y-20175531D01*
X6327967Y-20175531D02*
X6337491Y-20194579D01*
X6337491Y-20194579D02*
X6347015Y-20232674D01*
X6347015Y-20232674D02*
X6347015Y-20280293D01*
X6347015Y-20280293D02*
X6337491Y-20318389D01*
X6337491Y-20318389D02*
X6327967Y-20337436D01*
X6327967Y-20337436D02*
X6318444Y-20346960D01*
X6318444Y-20346960D02*
X6299396Y-20356484D01*
X6299396Y-20356484D02*
X6280348Y-20356484D01*
X6280348Y-20356484D02*
X6261301Y-20346960D01*
X6261301Y-20346960D02*
X6251777Y-20337436D01*
X6251777Y-20337436D02*
X6242253Y-20318389D01*
X6242253Y-20318389D02*
X6232729Y-20280293D01*
X6232729Y-20280293D02*
X6232729Y-20232674D01*
X6232729Y-20232674D02*
X6242253Y-20194579D01*
X6242253Y-20194579D02*
X6251777Y-20175531D01*
X6251777Y-20175531D02*
X6261301Y-20166008D01*
X6261301Y-20166008D02*
X6280348Y-20156484D01*
X6518444Y-20223150D02*
X6518444Y-20356484D01*
X6470825Y-20146960D02*
X6423206Y-20289817D01*
X6423206Y-20289817D02*
X6547015Y-20289817D01*
X6604158Y-20156484D02*
X6727967Y-20156484D01*
X6727967Y-20156484D02*
X6661301Y-20232674D01*
X6661301Y-20232674D02*
X6689872Y-20232674D01*
X6689872Y-20232674D02*
X6708920Y-20242198D01*
X6708920Y-20242198D02*
X6718444Y-20251722D01*
X6718444Y-20251722D02*
X6727967Y-20270770D01*
X6727967Y-20270770D02*
X6727967Y-20318389D01*
X6727967Y-20318389D02*
X6718444Y-20337436D01*
X6718444Y-20337436D02*
X6708920Y-20346960D01*
X6708920Y-20346960D02*
X6689872Y-20356484D01*
X6689872Y-20356484D02*
X6632729Y-20356484D01*
X6632729Y-20356484D02*
X6613682Y-20346960D01*
X6613682Y-20346960D02*
X6604158Y-20337436D01*
X6794634Y-20156484D02*
X6918444Y-20156484D01*
X6918444Y-20156484D02*
X6851777Y-20232674D01*
X6851777Y-20232674D02*
X6880348Y-20232674D01*
X6880348Y-20232674D02*
X6899396Y-20242198D01*
X6899396Y-20242198D02*
X6908920Y-20251722D01*
X6908920Y-20251722D02*
X6918444Y-20270770D01*
X6918444Y-20270770D02*
X6918444Y-20318389D01*
X6918444Y-20318389D02*
X6908920Y-20337436D01*
X6908920Y-20337436D02*
X6899396Y-20346960D01*
X6899396Y-20346960D02*
X6880348Y-20356484D01*
X6880348Y-20356484D02*
X6823206Y-20356484D01*
X6823206Y-20356484D02*
X6804158Y-20346960D01*
X6804158Y-20346960D02*
X6794634Y-20337436D01*
X6994634Y-20156484D02*
X6994634Y-20194579D01*
X7070825Y-20156484D02*
X7070825Y-20194579D01*
X7366063Y-20432674D02*
X7356539Y-20423150D01*
X7356539Y-20423150D02*
X7337491Y-20394579D01*
X7337491Y-20394579D02*
X7327968Y-20375531D01*
X7327968Y-20375531D02*
X7318444Y-20346960D01*
X7318444Y-20346960D02*
X7308920Y-20299341D01*
X7308920Y-20299341D02*
X7308920Y-20261246D01*
X7308920Y-20261246D02*
X7318444Y-20213627D01*
X7318444Y-20213627D02*
X7327968Y-20185055D01*
X7327968Y-20185055D02*
X7337491Y-20166008D01*
X7337491Y-20166008D02*
X7356539Y-20137436D01*
X7356539Y-20137436D02*
X7366063Y-20127912D01*
X7527968Y-20223150D02*
X7527968Y-20356484D01*
X7480348Y-20146960D02*
X7432729Y-20289817D01*
X7432729Y-20289817D02*
X7556539Y-20289817D01*
X7785110Y-20356484D02*
X7785110Y-20156484D01*
X7870825Y-20356484D02*
X7870825Y-20251722D01*
X7870825Y-20251722D02*
X7861301Y-20232674D01*
X7861301Y-20232674D02*
X7842253Y-20223150D01*
X7842253Y-20223150D02*
X7813682Y-20223150D01*
X7813682Y-20223150D02*
X7794634Y-20232674D01*
X7794634Y-20232674D02*
X7785110Y-20242198D01*
X7994634Y-20356484D02*
X7975587Y-20346960D01*
X7975587Y-20346960D02*
X7966063Y-20337436D01*
X7966063Y-20337436D02*
X7956539Y-20318389D01*
X7956539Y-20318389D02*
X7956539Y-20261246D01*
X7956539Y-20261246D02*
X7966063Y-20242198D01*
X7966063Y-20242198D02*
X7975587Y-20232674D01*
X7975587Y-20232674D02*
X7994634Y-20223150D01*
X7994634Y-20223150D02*
X8023206Y-20223150D01*
X8023206Y-20223150D02*
X8042253Y-20232674D01*
X8042253Y-20232674D02*
X8051777Y-20242198D01*
X8051777Y-20242198D02*
X8061301Y-20261246D01*
X8061301Y-20261246D02*
X8061301Y-20318389D01*
X8061301Y-20318389D02*
X8051777Y-20337436D01*
X8051777Y-20337436D02*
X8042253Y-20346960D01*
X8042253Y-20346960D02*
X8023206Y-20356484D01*
X8023206Y-20356484D02*
X7994634Y-20356484D01*
X8175587Y-20356484D02*
X8156539Y-20346960D01*
X8156539Y-20346960D02*
X8147015Y-20327912D01*
X8147015Y-20327912D02*
X8147015Y-20156484D01*
X8327968Y-20346960D02*
X8308920Y-20356484D01*
X8308920Y-20356484D02*
X8270825Y-20356484D01*
X8270825Y-20356484D02*
X8251777Y-20346960D01*
X8251777Y-20346960D02*
X8242253Y-20327912D01*
X8242253Y-20327912D02*
X8242253Y-20251722D01*
X8242253Y-20251722D02*
X8251777Y-20232674D01*
X8251777Y-20232674D02*
X8270825Y-20223150D01*
X8270825Y-20223150D02*
X8308920Y-20223150D01*
X8308920Y-20223150D02*
X8327968Y-20232674D01*
X8327968Y-20232674D02*
X8337491Y-20251722D01*
X8337491Y-20251722D02*
X8337491Y-20270770D01*
X8337491Y-20270770D02*
X8242253Y-20289817D01*
X8413682Y-20346960D02*
X8432730Y-20356484D01*
X8432730Y-20356484D02*
X8470825Y-20356484D01*
X8470825Y-20356484D02*
X8489873Y-20346960D01*
X8489873Y-20346960D02*
X8499396Y-20327912D01*
X8499396Y-20327912D02*
X8499396Y-20318389D01*
X8499396Y-20318389D02*
X8489873Y-20299341D01*
X8489873Y-20299341D02*
X8470825Y-20289817D01*
X8470825Y-20289817D02*
X8442253Y-20289817D01*
X8442253Y-20289817D02*
X8423206Y-20280293D01*
X8423206Y-20280293D02*
X8413682Y-20261246D01*
X8413682Y-20261246D02*
X8413682Y-20251722D01*
X8413682Y-20251722D02*
X8423206Y-20232674D01*
X8423206Y-20232674D02*
X8442253Y-20223150D01*
X8442253Y-20223150D02*
X8470825Y-20223150D01*
X8470825Y-20223150D02*
X8489873Y-20232674D01*
X8566063Y-20432674D02*
X8575587Y-20423150D01*
X8575587Y-20423150D02*
X8594634Y-20394579D01*
X8594634Y-20394579D02*
X8604158Y-20375531D01*
X8604158Y-20375531D02*
X8613682Y-20346960D01*
X8613682Y-20346960D02*
X8623206Y-20299341D01*
X8623206Y-20299341D02*
X8623206Y-20261246D01*
X8623206Y-20261246D02*
X8613682Y-20213627D01*
X8613682Y-20213627D02*
X8604158Y-20185055D01*
X8604158Y-20185055D02*
X8594634Y-20166008D01*
X8594634Y-20166008D02*
X8575587Y-20137436D01*
X8575587Y-20137436D02*
X8566063Y-20127912D01*
D17*
X3672000Y-20469500D02*
X3791000Y-20588500D01*
X3791000Y-20469500D02*
X3672000Y-20588500D01*
X3731500Y-20469500D02*
X3731500Y-20588500D01*
X3672000Y-20529000D02*
X3791000Y-20529000D01*
D10*
X4156539Y-20620484D02*
X4042253Y-20620484D01*
X4099396Y-20620484D02*
X4099396Y-20420484D01*
X4099396Y-20420484D02*
X4080348Y-20449055D01*
X4080348Y-20449055D02*
X4061301Y-20468103D01*
X4061301Y-20468103D02*
X4042253Y-20477627D01*
X4242253Y-20601436D02*
X4251777Y-20610960D01*
X4251777Y-20610960D02*
X4242253Y-20620484D01*
X4242253Y-20620484D02*
X4232729Y-20610960D01*
X4232729Y-20610960D02*
X4242253Y-20601436D01*
X4242253Y-20601436D02*
X4242253Y-20620484D01*
X4442253Y-20620484D02*
X4327967Y-20620484D01*
X4385110Y-20620484D02*
X4385110Y-20420484D01*
X4385110Y-20420484D02*
X4366063Y-20449055D01*
X4366063Y-20449055D02*
X4347015Y-20468103D01*
X4347015Y-20468103D02*
X4327967Y-20477627D01*
X4537491Y-20620484D02*
X4575586Y-20620484D01*
X4575586Y-20620484D02*
X4594634Y-20610960D01*
X4594634Y-20610960D02*
X4604158Y-20601436D01*
X4604158Y-20601436D02*
X4623205Y-20572865D01*
X4623205Y-20572865D02*
X4632729Y-20534770D01*
X4632729Y-20534770D02*
X4632729Y-20458579D01*
X4632729Y-20458579D02*
X4623205Y-20439531D01*
X4623205Y-20439531D02*
X4613682Y-20430008D01*
X4613682Y-20430008D02*
X4594634Y-20420484D01*
X4594634Y-20420484D02*
X4556539Y-20420484D01*
X4556539Y-20420484D02*
X4537491Y-20430008D01*
X4537491Y-20430008D02*
X4527967Y-20439531D01*
X4527967Y-20439531D02*
X4518444Y-20458579D01*
X4518444Y-20458579D02*
X4518444Y-20506198D01*
X4518444Y-20506198D02*
X4527967Y-20525246D01*
X4527967Y-20525246D02*
X4537491Y-20534770D01*
X4537491Y-20534770D02*
X4556539Y-20544293D01*
X4556539Y-20544293D02*
X4594634Y-20544293D01*
X4594634Y-20544293D02*
X4613682Y-20534770D01*
X4613682Y-20534770D02*
X4623205Y-20525246D01*
X4623205Y-20525246D02*
X4632729Y-20506198D01*
X4756539Y-20420484D02*
X4775586Y-20420484D01*
X4775586Y-20420484D02*
X4794634Y-20430008D01*
X4794634Y-20430008D02*
X4804158Y-20439531D01*
X4804158Y-20439531D02*
X4813682Y-20458579D01*
X4813682Y-20458579D02*
X4823205Y-20496674D01*
X4823205Y-20496674D02*
X4823205Y-20544293D01*
X4823205Y-20544293D02*
X4813682Y-20582389D01*
X4813682Y-20582389D02*
X4804158Y-20601436D01*
X4804158Y-20601436D02*
X4794634Y-20610960D01*
X4794634Y-20610960D02*
X4775586Y-20620484D01*
X4775586Y-20620484D02*
X4756539Y-20620484D01*
X4756539Y-20620484D02*
X4737491Y-20610960D01*
X4737491Y-20610960D02*
X4727967Y-20601436D01*
X4727967Y-20601436D02*
X4718444Y-20582389D01*
X4718444Y-20582389D02*
X4708920Y-20544293D01*
X4708920Y-20544293D02*
X4708920Y-20496674D01*
X4708920Y-20496674D02*
X4718444Y-20458579D01*
X4718444Y-20458579D02*
X4727967Y-20439531D01*
X4727967Y-20439531D02*
X4737491Y-20430008D01*
X4737491Y-20430008D02*
X4756539Y-20420484D01*
X4908920Y-20620484D02*
X4908920Y-20487150D01*
X4908920Y-20506198D02*
X4918444Y-20496674D01*
X4918444Y-20496674D02*
X4937491Y-20487150D01*
X4937491Y-20487150D02*
X4966063Y-20487150D01*
X4966063Y-20487150D02*
X4985110Y-20496674D01*
X4985110Y-20496674D02*
X4994634Y-20515722D01*
X4994634Y-20515722D02*
X4994634Y-20620484D01*
X4994634Y-20515722D02*
X5004158Y-20496674D01*
X5004158Y-20496674D02*
X5023205Y-20487150D01*
X5023205Y-20487150D02*
X5051777Y-20487150D01*
X5051777Y-20487150D02*
X5070825Y-20496674D01*
X5070825Y-20496674D02*
X5080348Y-20515722D01*
X5080348Y-20515722D02*
X5080348Y-20620484D01*
X5175586Y-20620484D02*
X5175586Y-20487150D01*
X5175586Y-20506198D02*
X5185110Y-20496674D01*
X5185110Y-20496674D02*
X5204158Y-20487150D01*
X5204158Y-20487150D02*
X5232729Y-20487150D01*
X5232729Y-20487150D02*
X5251777Y-20496674D01*
X5251777Y-20496674D02*
X5261301Y-20515722D01*
X5261301Y-20515722D02*
X5261301Y-20620484D01*
X5261301Y-20515722D02*
X5270825Y-20496674D01*
X5270825Y-20496674D02*
X5289872Y-20487150D01*
X5289872Y-20487150D02*
X5318444Y-20487150D01*
X5318444Y-20487150D02*
X5337491Y-20496674D01*
X5337491Y-20496674D02*
X5347015Y-20515722D01*
X5347015Y-20515722D02*
X5347015Y-20620484D01*
X5737491Y-20410960D02*
X5566063Y-20668103D01*
X5994634Y-20420484D02*
X6013682Y-20420484D01*
X6013682Y-20420484D02*
X6032729Y-20430008D01*
X6032729Y-20430008D02*
X6042253Y-20439531D01*
X6042253Y-20439531D02*
X6051777Y-20458579D01*
X6051777Y-20458579D02*
X6061301Y-20496674D01*
X6061301Y-20496674D02*
X6061301Y-20544293D01*
X6061301Y-20544293D02*
X6051777Y-20582389D01*
X6051777Y-20582389D02*
X6042253Y-20601436D01*
X6042253Y-20601436D02*
X6032729Y-20610960D01*
X6032729Y-20610960D02*
X6013682Y-20620484D01*
X6013682Y-20620484D02*
X5994634Y-20620484D01*
X5994634Y-20620484D02*
X5975586Y-20610960D01*
X5975586Y-20610960D02*
X5966063Y-20601436D01*
X5966063Y-20601436D02*
X5956539Y-20582389D01*
X5956539Y-20582389D02*
X5947015Y-20544293D01*
X5947015Y-20544293D02*
X5947015Y-20496674D01*
X5947015Y-20496674D02*
X5956539Y-20458579D01*
X5956539Y-20458579D02*
X5966063Y-20439531D01*
X5966063Y-20439531D02*
X5975586Y-20430008D01*
X5975586Y-20430008D02*
X5994634Y-20420484D01*
X6147015Y-20601436D02*
X6156539Y-20610960D01*
X6156539Y-20610960D02*
X6147015Y-20620484D01*
X6147015Y-20620484D02*
X6137491Y-20610960D01*
X6137491Y-20610960D02*
X6147015Y-20601436D01*
X6147015Y-20601436D02*
X6147015Y-20620484D01*
X6280348Y-20420484D02*
X6299396Y-20420484D01*
X6299396Y-20420484D02*
X6318444Y-20430008D01*
X6318444Y-20430008D02*
X6327967Y-20439531D01*
X6327967Y-20439531D02*
X6337491Y-20458579D01*
X6337491Y-20458579D02*
X6347015Y-20496674D01*
X6347015Y-20496674D02*
X6347015Y-20544293D01*
X6347015Y-20544293D02*
X6337491Y-20582389D01*
X6337491Y-20582389D02*
X6327967Y-20601436D01*
X6327967Y-20601436D02*
X6318444Y-20610960D01*
X6318444Y-20610960D02*
X6299396Y-20620484D01*
X6299396Y-20620484D02*
X6280348Y-20620484D01*
X6280348Y-20620484D02*
X6261301Y-20610960D01*
X6261301Y-20610960D02*
X6251777Y-20601436D01*
X6251777Y-20601436D02*
X6242253Y-20582389D01*
X6242253Y-20582389D02*
X6232729Y-20544293D01*
X6232729Y-20544293D02*
X6232729Y-20496674D01*
X6232729Y-20496674D02*
X6242253Y-20458579D01*
X6242253Y-20458579D02*
X6251777Y-20439531D01*
X6251777Y-20439531D02*
X6261301Y-20430008D01*
X6261301Y-20430008D02*
X6280348Y-20420484D01*
X6518444Y-20487150D02*
X6518444Y-20620484D01*
X6470825Y-20410960D02*
X6423206Y-20553817D01*
X6423206Y-20553817D02*
X6547015Y-20553817D01*
X6708920Y-20420484D02*
X6670825Y-20420484D01*
X6670825Y-20420484D02*
X6651777Y-20430008D01*
X6651777Y-20430008D02*
X6642253Y-20439531D01*
X6642253Y-20439531D02*
X6623206Y-20468103D01*
X6623206Y-20468103D02*
X6613682Y-20506198D01*
X6613682Y-20506198D02*
X6613682Y-20582389D01*
X6613682Y-20582389D02*
X6623206Y-20601436D01*
X6623206Y-20601436D02*
X6632729Y-20610960D01*
X6632729Y-20610960D02*
X6651777Y-20620484D01*
X6651777Y-20620484D02*
X6689872Y-20620484D01*
X6689872Y-20620484D02*
X6708920Y-20610960D01*
X6708920Y-20610960D02*
X6718444Y-20601436D01*
X6718444Y-20601436D02*
X6727967Y-20582389D01*
X6727967Y-20582389D02*
X6727967Y-20534770D01*
X6727967Y-20534770D02*
X6718444Y-20515722D01*
X6718444Y-20515722D02*
X6708920Y-20506198D01*
X6708920Y-20506198D02*
X6689872Y-20496674D01*
X6689872Y-20496674D02*
X6651777Y-20496674D01*
X6651777Y-20496674D02*
X6632729Y-20506198D01*
X6632729Y-20506198D02*
X6623206Y-20515722D01*
X6623206Y-20515722D02*
X6613682Y-20534770D01*
X6823206Y-20620484D02*
X6861301Y-20620484D01*
X6861301Y-20620484D02*
X6880348Y-20610960D01*
X6880348Y-20610960D02*
X6889872Y-20601436D01*
X6889872Y-20601436D02*
X6908920Y-20572865D01*
X6908920Y-20572865D02*
X6918444Y-20534770D01*
X6918444Y-20534770D02*
X6918444Y-20458579D01*
X6918444Y-20458579D02*
X6908920Y-20439531D01*
X6908920Y-20439531D02*
X6899396Y-20430008D01*
X6899396Y-20430008D02*
X6880348Y-20420484D01*
X6880348Y-20420484D02*
X6842253Y-20420484D01*
X6842253Y-20420484D02*
X6823206Y-20430008D01*
X6823206Y-20430008D02*
X6813682Y-20439531D01*
X6813682Y-20439531D02*
X6804158Y-20458579D01*
X6804158Y-20458579D02*
X6804158Y-20506198D01*
X6804158Y-20506198D02*
X6813682Y-20525246D01*
X6813682Y-20525246D02*
X6823206Y-20534770D01*
X6823206Y-20534770D02*
X6842253Y-20544293D01*
X6842253Y-20544293D02*
X6880348Y-20544293D01*
X6880348Y-20544293D02*
X6899396Y-20534770D01*
X6899396Y-20534770D02*
X6908920Y-20525246D01*
X6908920Y-20525246D02*
X6918444Y-20506198D01*
X6994634Y-20420484D02*
X6994634Y-20458579D01*
X7070825Y-20420484D02*
X7070825Y-20458579D01*
X7366063Y-20696674D02*
X7356539Y-20687150D01*
X7356539Y-20687150D02*
X7337491Y-20658579D01*
X7337491Y-20658579D02*
X7327968Y-20639531D01*
X7327968Y-20639531D02*
X7318444Y-20610960D01*
X7318444Y-20610960D02*
X7308920Y-20563341D01*
X7308920Y-20563341D02*
X7308920Y-20525246D01*
X7308920Y-20525246D02*
X7318444Y-20477627D01*
X7318444Y-20477627D02*
X7327968Y-20449055D01*
X7327968Y-20449055D02*
X7337491Y-20430008D01*
X7337491Y-20430008D02*
X7356539Y-20401436D01*
X7356539Y-20401436D02*
X7366063Y-20391912D01*
X7547015Y-20620484D02*
X7432729Y-20620484D01*
X7489872Y-20620484D02*
X7489872Y-20420484D01*
X7489872Y-20420484D02*
X7470825Y-20449055D01*
X7470825Y-20449055D02*
X7451777Y-20468103D01*
X7451777Y-20468103D02*
X7432729Y-20477627D01*
X7727968Y-20420484D02*
X7632729Y-20420484D01*
X7632729Y-20420484D02*
X7623206Y-20515722D01*
X7623206Y-20515722D02*
X7632729Y-20506198D01*
X7632729Y-20506198D02*
X7651777Y-20496674D01*
X7651777Y-20496674D02*
X7699396Y-20496674D01*
X7699396Y-20496674D02*
X7718444Y-20506198D01*
X7718444Y-20506198D02*
X7727968Y-20515722D01*
X7727968Y-20515722D02*
X7737491Y-20534770D01*
X7737491Y-20534770D02*
X7737491Y-20582389D01*
X7737491Y-20582389D02*
X7727968Y-20601436D01*
X7727968Y-20601436D02*
X7718444Y-20610960D01*
X7718444Y-20610960D02*
X7699396Y-20620484D01*
X7699396Y-20620484D02*
X7651777Y-20620484D01*
X7651777Y-20620484D02*
X7632729Y-20610960D01*
X7632729Y-20610960D02*
X7623206Y-20601436D01*
X7975587Y-20620484D02*
X7975587Y-20420484D01*
X8061301Y-20620484D02*
X8061301Y-20515722D01*
X8061301Y-20515722D02*
X8051777Y-20496674D01*
X8051777Y-20496674D02*
X8032730Y-20487150D01*
X8032730Y-20487150D02*
X8004158Y-20487150D01*
X8004158Y-20487150D02*
X7985110Y-20496674D01*
X7985110Y-20496674D02*
X7975587Y-20506198D01*
X8185110Y-20620484D02*
X8166063Y-20610960D01*
X8166063Y-20610960D02*
X8156539Y-20601436D01*
X8156539Y-20601436D02*
X8147015Y-20582389D01*
X8147015Y-20582389D02*
X8147015Y-20525246D01*
X8147015Y-20525246D02*
X8156539Y-20506198D01*
X8156539Y-20506198D02*
X8166063Y-20496674D01*
X8166063Y-20496674D02*
X8185110Y-20487150D01*
X8185110Y-20487150D02*
X8213682Y-20487150D01*
X8213682Y-20487150D02*
X8232730Y-20496674D01*
X8232730Y-20496674D02*
X8242253Y-20506198D01*
X8242253Y-20506198D02*
X8251777Y-20525246D01*
X8251777Y-20525246D02*
X8251777Y-20582389D01*
X8251777Y-20582389D02*
X8242253Y-20601436D01*
X8242253Y-20601436D02*
X8232730Y-20610960D01*
X8232730Y-20610960D02*
X8213682Y-20620484D01*
X8213682Y-20620484D02*
X8185110Y-20620484D01*
X8366063Y-20620484D02*
X8347015Y-20610960D01*
X8347015Y-20610960D02*
X8337491Y-20591912D01*
X8337491Y-20591912D02*
X8337491Y-20420484D01*
X8518444Y-20610960D02*
X8499396Y-20620484D01*
X8499396Y-20620484D02*
X8461301Y-20620484D01*
X8461301Y-20620484D02*
X8442253Y-20610960D01*
X8442253Y-20610960D02*
X8432730Y-20591912D01*
X8432730Y-20591912D02*
X8432730Y-20515722D01*
X8432730Y-20515722D02*
X8442253Y-20496674D01*
X8442253Y-20496674D02*
X8461301Y-20487150D01*
X8461301Y-20487150D02*
X8499396Y-20487150D01*
X8499396Y-20487150D02*
X8518444Y-20496674D01*
X8518444Y-20496674D02*
X8527968Y-20515722D01*
X8527968Y-20515722D02*
X8527968Y-20534770D01*
X8527968Y-20534770D02*
X8432730Y-20553817D01*
X8604158Y-20610960D02*
X8623206Y-20620484D01*
X8623206Y-20620484D02*
X8661301Y-20620484D01*
X8661301Y-20620484D02*
X8680349Y-20610960D01*
X8680349Y-20610960D02*
X8689873Y-20591912D01*
X8689873Y-20591912D02*
X8689873Y-20582389D01*
X8689873Y-20582389D02*
X8680349Y-20563341D01*
X8680349Y-20563341D02*
X8661301Y-20553817D01*
X8661301Y-20553817D02*
X8632730Y-20553817D01*
X8632730Y-20553817D02*
X8613682Y-20544293D01*
X8613682Y-20544293D02*
X8604158Y-20525246D01*
X8604158Y-20525246D02*
X8604158Y-20515722D01*
X8604158Y-20515722D02*
X8613682Y-20496674D01*
X8613682Y-20496674D02*
X8632730Y-20487150D01*
X8632730Y-20487150D02*
X8661301Y-20487150D01*
X8661301Y-20487150D02*
X8680349Y-20496674D01*
X8756539Y-20696674D02*
X8766063Y-20687150D01*
X8766063Y-20687150D02*
X8785111Y-20658579D01*
X8785111Y-20658579D02*
X8794634Y-20639531D01*
X8794634Y-20639531D02*
X8804158Y-20610960D01*
X8804158Y-20610960D02*
X8813682Y-20563341D01*
X8813682Y-20563341D02*
X8813682Y-20525246D01*
X8813682Y-20525246D02*
X8804158Y-20477627D01*
X8804158Y-20477627D02*
X8794634Y-20449055D01*
X8794634Y-20449055D02*
X8785111Y-20430008D01*
X8785111Y-20430008D02*
X8766063Y-20401436D01*
X8766063Y-20401436D02*
X8756539Y-20391912D01*
D18*
X3661000Y-20728000D02*
X3791000Y-20858000D01*
X3791000Y-20728000D02*
X3661000Y-20858000D01*
X3771962Y-20838962D02*
X3771962Y-20747038D01*
X3680038Y-20747038D01*
X3680038Y-20838962D01*
X3771962Y-20838962D01*
D10*
X4156539Y-20884484D02*
X4042253Y-20884484D01*
X4099396Y-20884484D02*
X4099396Y-20684484D01*
X4099396Y-20684484D02*
X4080348Y-20713055D01*
X4080348Y-20713055D02*
X4061301Y-20732103D01*
X4061301Y-20732103D02*
X4042253Y-20741627D01*
X4242253Y-20865436D02*
X4251777Y-20874960D01*
X4251777Y-20874960D02*
X4242253Y-20884484D01*
X4242253Y-20884484D02*
X4232729Y-20874960D01*
X4232729Y-20874960D02*
X4242253Y-20865436D01*
X4242253Y-20865436D02*
X4242253Y-20884484D01*
X4318444Y-20684484D02*
X4442253Y-20684484D01*
X4442253Y-20684484D02*
X4375586Y-20760674D01*
X4375586Y-20760674D02*
X4404158Y-20760674D01*
X4404158Y-20760674D02*
X4423205Y-20770198D01*
X4423205Y-20770198D02*
X4432729Y-20779722D01*
X4432729Y-20779722D02*
X4442253Y-20798770D01*
X4442253Y-20798770D02*
X4442253Y-20846389D01*
X4442253Y-20846389D02*
X4432729Y-20865436D01*
X4432729Y-20865436D02*
X4423205Y-20874960D01*
X4423205Y-20874960D02*
X4404158Y-20884484D01*
X4404158Y-20884484D02*
X4347015Y-20884484D01*
X4347015Y-20884484D02*
X4327967Y-20874960D01*
X4327967Y-20874960D02*
X4318444Y-20865436D01*
X4566063Y-20684484D02*
X4585110Y-20684484D01*
X4585110Y-20684484D02*
X4604158Y-20694008D01*
X4604158Y-20694008D02*
X4613682Y-20703531D01*
X4613682Y-20703531D02*
X4623205Y-20722579D01*
X4623205Y-20722579D02*
X4632729Y-20760674D01*
X4632729Y-20760674D02*
X4632729Y-20808293D01*
X4632729Y-20808293D02*
X4623205Y-20846389D01*
X4623205Y-20846389D02*
X4613682Y-20865436D01*
X4613682Y-20865436D02*
X4604158Y-20874960D01*
X4604158Y-20874960D02*
X4585110Y-20884484D01*
X4585110Y-20884484D02*
X4566063Y-20884484D01*
X4566063Y-20884484D02*
X4547015Y-20874960D01*
X4547015Y-20874960D02*
X4537491Y-20865436D01*
X4537491Y-20865436D02*
X4527967Y-20846389D01*
X4527967Y-20846389D02*
X4518444Y-20808293D01*
X4518444Y-20808293D02*
X4518444Y-20760674D01*
X4518444Y-20760674D02*
X4527967Y-20722579D01*
X4527967Y-20722579D02*
X4537491Y-20703531D01*
X4537491Y-20703531D02*
X4547015Y-20694008D01*
X4547015Y-20694008D02*
X4566063Y-20684484D01*
X4756539Y-20684484D02*
X4775586Y-20684484D01*
X4775586Y-20684484D02*
X4794634Y-20694008D01*
X4794634Y-20694008D02*
X4804158Y-20703531D01*
X4804158Y-20703531D02*
X4813682Y-20722579D01*
X4813682Y-20722579D02*
X4823205Y-20760674D01*
X4823205Y-20760674D02*
X4823205Y-20808293D01*
X4823205Y-20808293D02*
X4813682Y-20846389D01*
X4813682Y-20846389D02*
X4804158Y-20865436D01*
X4804158Y-20865436D02*
X4794634Y-20874960D01*
X4794634Y-20874960D02*
X4775586Y-20884484D01*
X4775586Y-20884484D02*
X4756539Y-20884484D01*
X4756539Y-20884484D02*
X4737491Y-20874960D01*
X4737491Y-20874960D02*
X4727967Y-20865436D01*
X4727967Y-20865436D02*
X4718444Y-20846389D01*
X4718444Y-20846389D02*
X4708920Y-20808293D01*
X4708920Y-20808293D02*
X4708920Y-20760674D01*
X4708920Y-20760674D02*
X4718444Y-20722579D01*
X4718444Y-20722579D02*
X4727967Y-20703531D01*
X4727967Y-20703531D02*
X4737491Y-20694008D01*
X4737491Y-20694008D02*
X4756539Y-20684484D01*
X4908920Y-20884484D02*
X4908920Y-20751150D01*
X4908920Y-20770198D02*
X4918444Y-20760674D01*
X4918444Y-20760674D02*
X4937491Y-20751150D01*
X4937491Y-20751150D02*
X4966063Y-20751150D01*
X4966063Y-20751150D02*
X4985110Y-20760674D01*
X4985110Y-20760674D02*
X4994634Y-20779722D01*
X4994634Y-20779722D02*
X4994634Y-20884484D01*
X4994634Y-20779722D02*
X5004158Y-20760674D01*
X5004158Y-20760674D02*
X5023205Y-20751150D01*
X5023205Y-20751150D02*
X5051777Y-20751150D01*
X5051777Y-20751150D02*
X5070825Y-20760674D01*
X5070825Y-20760674D02*
X5080348Y-20779722D01*
X5080348Y-20779722D02*
X5080348Y-20884484D01*
X5175586Y-20884484D02*
X5175586Y-20751150D01*
X5175586Y-20770198D02*
X5185110Y-20760674D01*
X5185110Y-20760674D02*
X5204158Y-20751150D01*
X5204158Y-20751150D02*
X5232729Y-20751150D01*
X5232729Y-20751150D02*
X5251777Y-20760674D01*
X5251777Y-20760674D02*
X5261301Y-20779722D01*
X5261301Y-20779722D02*
X5261301Y-20884484D01*
X5261301Y-20779722D02*
X5270825Y-20760674D01*
X5270825Y-20760674D02*
X5289872Y-20751150D01*
X5289872Y-20751150D02*
X5318444Y-20751150D01*
X5318444Y-20751150D02*
X5337491Y-20760674D01*
X5337491Y-20760674D02*
X5347015Y-20779722D01*
X5347015Y-20779722D02*
X5347015Y-20884484D01*
X5737491Y-20674960D02*
X5566063Y-20932103D01*
X5994634Y-20684484D02*
X6013682Y-20684484D01*
X6013682Y-20684484D02*
X6032729Y-20694008D01*
X6032729Y-20694008D02*
X6042253Y-20703531D01*
X6042253Y-20703531D02*
X6051777Y-20722579D01*
X6051777Y-20722579D02*
X6061301Y-20760674D01*
X6061301Y-20760674D02*
X6061301Y-20808293D01*
X6061301Y-20808293D02*
X6051777Y-20846389D01*
X6051777Y-20846389D02*
X6042253Y-20865436D01*
X6042253Y-20865436D02*
X6032729Y-20874960D01*
X6032729Y-20874960D02*
X6013682Y-20884484D01*
X6013682Y-20884484D02*
X5994634Y-20884484D01*
X5994634Y-20884484D02*
X5975586Y-20874960D01*
X5975586Y-20874960D02*
X5966063Y-20865436D01*
X5966063Y-20865436D02*
X5956539Y-20846389D01*
X5956539Y-20846389D02*
X5947015Y-20808293D01*
X5947015Y-20808293D02*
X5947015Y-20760674D01*
X5947015Y-20760674D02*
X5956539Y-20722579D01*
X5956539Y-20722579D02*
X5966063Y-20703531D01*
X5966063Y-20703531D02*
X5975586Y-20694008D01*
X5975586Y-20694008D02*
X5994634Y-20684484D01*
X6147015Y-20865436D02*
X6156539Y-20874960D01*
X6156539Y-20874960D02*
X6147015Y-20884484D01*
X6147015Y-20884484D02*
X6137491Y-20874960D01*
X6137491Y-20874960D02*
X6147015Y-20865436D01*
X6147015Y-20865436D02*
X6147015Y-20884484D01*
X6280348Y-20684484D02*
X6299396Y-20684484D01*
X6299396Y-20684484D02*
X6318444Y-20694008D01*
X6318444Y-20694008D02*
X6327967Y-20703531D01*
X6327967Y-20703531D02*
X6337491Y-20722579D01*
X6337491Y-20722579D02*
X6347015Y-20760674D01*
X6347015Y-20760674D02*
X6347015Y-20808293D01*
X6347015Y-20808293D02*
X6337491Y-20846389D01*
X6337491Y-20846389D02*
X6327967Y-20865436D01*
X6327967Y-20865436D02*
X6318444Y-20874960D01*
X6318444Y-20874960D02*
X6299396Y-20884484D01*
X6299396Y-20884484D02*
X6280348Y-20884484D01*
X6280348Y-20884484D02*
X6261301Y-20874960D01*
X6261301Y-20874960D02*
X6251777Y-20865436D01*
X6251777Y-20865436D02*
X6242253Y-20846389D01*
X6242253Y-20846389D02*
X6232729Y-20808293D01*
X6232729Y-20808293D02*
X6232729Y-20760674D01*
X6232729Y-20760674D02*
X6242253Y-20722579D01*
X6242253Y-20722579D02*
X6251777Y-20703531D01*
X6251777Y-20703531D02*
X6261301Y-20694008D01*
X6261301Y-20694008D02*
X6280348Y-20684484D01*
X6527967Y-20684484D02*
X6432729Y-20684484D01*
X6432729Y-20684484D02*
X6423206Y-20779722D01*
X6423206Y-20779722D02*
X6432729Y-20770198D01*
X6432729Y-20770198D02*
X6451777Y-20760674D01*
X6451777Y-20760674D02*
X6499396Y-20760674D01*
X6499396Y-20760674D02*
X6518444Y-20770198D01*
X6518444Y-20770198D02*
X6527967Y-20779722D01*
X6527967Y-20779722D02*
X6537491Y-20798770D01*
X6537491Y-20798770D02*
X6537491Y-20846389D01*
X6537491Y-20846389D02*
X6527967Y-20865436D01*
X6527967Y-20865436D02*
X6518444Y-20874960D01*
X6518444Y-20874960D02*
X6499396Y-20884484D01*
X6499396Y-20884484D02*
X6451777Y-20884484D01*
X6451777Y-20884484D02*
X6432729Y-20874960D01*
X6432729Y-20874960D02*
X6423206Y-20865436D01*
X6727967Y-20884484D02*
X6613682Y-20884484D01*
X6670825Y-20884484D02*
X6670825Y-20684484D01*
X6670825Y-20684484D02*
X6651777Y-20713055D01*
X6651777Y-20713055D02*
X6632729Y-20732103D01*
X6632729Y-20732103D02*
X6613682Y-20741627D01*
X6804158Y-20703531D02*
X6813682Y-20694008D01*
X6813682Y-20694008D02*
X6832729Y-20684484D01*
X6832729Y-20684484D02*
X6880348Y-20684484D01*
X6880348Y-20684484D02*
X6899396Y-20694008D01*
X6899396Y-20694008D02*
X6908920Y-20703531D01*
X6908920Y-20703531D02*
X6918444Y-20722579D01*
X6918444Y-20722579D02*
X6918444Y-20741627D01*
X6918444Y-20741627D02*
X6908920Y-20770198D01*
X6908920Y-20770198D02*
X6794634Y-20884484D01*
X6794634Y-20884484D02*
X6918444Y-20884484D01*
X6994634Y-20684484D02*
X6994634Y-20722579D01*
X7070825Y-20684484D02*
X7070825Y-20722579D01*
X7366063Y-20960674D02*
X7356539Y-20951150D01*
X7356539Y-20951150D02*
X7337491Y-20922579D01*
X7337491Y-20922579D02*
X7327968Y-20903531D01*
X7327968Y-20903531D02*
X7318444Y-20874960D01*
X7318444Y-20874960D02*
X7308920Y-20827341D01*
X7308920Y-20827341D02*
X7308920Y-20789246D01*
X7308920Y-20789246D02*
X7318444Y-20741627D01*
X7318444Y-20741627D02*
X7327968Y-20713055D01*
X7327968Y-20713055D02*
X7337491Y-20694008D01*
X7337491Y-20694008D02*
X7356539Y-20665436D01*
X7356539Y-20665436D02*
X7366063Y-20655912D01*
X7423206Y-20684484D02*
X7547015Y-20684484D01*
X7547015Y-20684484D02*
X7480348Y-20760674D01*
X7480348Y-20760674D02*
X7508920Y-20760674D01*
X7508920Y-20760674D02*
X7527968Y-20770198D01*
X7527968Y-20770198D02*
X7537491Y-20779722D01*
X7537491Y-20779722D02*
X7547015Y-20798770D01*
X7547015Y-20798770D02*
X7547015Y-20846389D01*
X7547015Y-20846389D02*
X7537491Y-20865436D01*
X7537491Y-20865436D02*
X7527968Y-20874960D01*
X7527968Y-20874960D02*
X7508920Y-20884484D01*
X7508920Y-20884484D02*
X7451777Y-20884484D01*
X7451777Y-20884484D02*
X7432729Y-20874960D01*
X7432729Y-20874960D02*
X7423206Y-20865436D01*
X7785110Y-20884484D02*
X7785110Y-20684484D01*
X7870825Y-20884484D02*
X7870825Y-20779722D01*
X7870825Y-20779722D02*
X7861301Y-20760674D01*
X7861301Y-20760674D02*
X7842253Y-20751150D01*
X7842253Y-20751150D02*
X7813682Y-20751150D01*
X7813682Y-20751150D02*
X7794634Y-20760674D01*
X7794634Y-20760674D02*
X7785110Y-20770198D01*
X7994634Y-20884484D02*
X7975587Y-20874960D01*
X7975587Y-20874960D02*
X7966063Y-20865436D01*
X7966063Y-20865436D02*
X7956539Y-20846389D01*
X7956539Y-20846389D02*
X7956539Y-20789246D01*
X7956539Y-20789246D02*
X7966063Y-20770198D01*
X7966063Y-20770198D02*
X7975587Y-20760674D01*
X7975587Y-20760674D02*
X7994634Y-20751150D01*
X7994634Y-20751150D02*
X8023206Y-20751150D01*
X8023206Y-20751150D02*
X8042253Y-20760674D01*
X8042253Y-20760674D02*
X8051777Y-20770198D01*
X8051777Y-20770198D02*
X8061301Y-20789246D01*
X8061301Y-20789246D02*
X8061301Y-20846389D01*
X8061301Y-20846389D02*
X8051777Y-20865436D01*
X8051777Y-20865436D02*
X8042253Y-20874960D01*
X8042253Y-20874960D02*
X8023206Y-20884484D01*
X8023206Y-20884484D02*
X7994634Y-20884484D01*
X8175587Y-20884484D02*
X8156539Y-20874960D01*
X8156539Y-20874960D02*
X8147015Y-20855912D01*
X8147015Y-20855912D02*
X8147015Y-20684484D01*
X8327968Y-20874960D02*
X8308920Y-20884484D01*
X8308920Y-20884484D02*
X8270825Y-20884484D01*
X8270825Y-20884484D02*
X8251777Y-20874960D01*
X8251777Y-20874960D02*
X8242253Y-20855912D01*
X8242253Y-20855912D02*
X8242253Y-20779722D01*
X8242253Y-20779722D02*
X8251777Y-20760674D01*
X8251777Y-20760674D02*
X8270825Y-20751150D01*
X8270825Y-20751150D02*
X8308920Y-20751150D01*
X8308920Y-20751150D02*
X8327968Y-20760674D01*
X8327968Y-20760674D02*
X8337491Y-20779722D01*
X8337491Y-20779722D02*
X8337491Y-20798770D01*
X8337491Y-20798770D02*
X8242253Y-20817817D01*
X8413682Y-20874960D02*
X8432730Y-20884484D01*
X8432730Y-20884484D02*
X8470825Y-20884484D01*
X8470825Y-20884484D02*
X8489873Y-20874960D01*
X8489873Y-20874960D02*
X8499396Y-20855912D01*
X8499396Y-20855912D02*
X8499396Y-20846389D01*
X8499396Y-20846389D02*
X8489873Y-20827341D01*
X8489873Y-20827341D02*
X8470825Y-20817817D01*
X8470825Y-20817817D02*
X8442253Y-20817817D01*
X8442253Y-20817817D02*
X8423206Y-20808293D01*
X8423206Y-20808293D02*
X8413682Y-20789246D01*
X8413682Y-20789246D02*
X8413682Y-20779722D01*
X8413682Y-20779722D02*
X8423206Y-20760674D01*
X8423206Y-20760674D02*
X8442253Y-20751150D01*
X8442253Y-20751150D02*
X8470825Y-20751150D01*
X8470825Y-20751150D02*
X8489873Y-20760674D01*
X8566063Y-20960674D02*
X8575587Y-20951150D01*
X8575587Y-20951150D02*
X8594634Y-20922579D01*
X8594634Y-20922579D02*
X8604158Y-20903531D01*
X8604158Y-20903531D02*
X8613682Y-20874960D01*
X8613682Y-20874960D02*
X8623206Y-20827341D01*
X8623206Y-20827341D02*
X8623206Y-20789246D01*
X8623206Y-20789246D02*
X8613682Y-20741627D01*
X8613682Y-20741627D02*
X8604158Y-20713055D01*
X8604158Y-20713055D02*
X8594634Y-20694008D01*
X8594634Y-20694008D02*
X8575587Y-20665436D01*
X8575587Y-20665436D02*
X8566063Y-20655912D01*
D19*
X3606342Y-20964671D02*
X3791000Y-21149329D01*
X3791000Y-20964671D02*
X3606342Y-21149329D01*
X3698671Y-21149329D02*
X3791000Y-21057000D01*
X3698671Y-20964671D01*
X3606342Y-21057000D01*
X3698671Y-21149329D01*
D10*
X4156539Y-21148484D02*
X4042253Y-21148484D01*
X4099396Y-21148484D02*
X4099396Y-20948484D01*
X4099396Y-20948484D02*
X4080348Y-20977055D01*
X4080348Y-20977055D02*
X4061301Y-20996103D01*
X4061301Y-20996103D02*
X4042253Y-21005627D01*
X4242253Y-21129436D02*
X4251777Y-21138960D01*
X4251777Y-21138960D02*
X4242253Y-21148484D01*
X4242253Y-21148484D02*
X4232729Y-21138960D01*
X4232729Y-21138960D02*
X4242253Y-21129436D01*
X4242253Y-21129436D02*
X4242253Y-21148484D01*
X4366063Y-21034198D02*
X4347015Y-21024674D01*
X4347015Y-21024674D02*
X4337491Y-21015150D01*
X4337491Y-21015150D02*
X4327967Y-20996103D01*
X4327967Y-20996103D02*
X4327967Y-20986579D01*
X4327967Y-20986579D02*
X4337491Y-20967531D01*
X4337491Y-20967531D02*
X4347015Y-20958008D01*
X4347015Y-20958008D02*
X4366063Y-20948484D01*
X4366063Y-20948484D02*
X4404158Y-20948484D01*
X4404158Y-20948484D02*
X4423205Y-20958008D01*
X4423205Y-20958008D02*
X4432729Y-20967531D01*
X4432729Y-20967531D02*
X4442253Y-20986579D01*
X4442253Y-20986579D02*
X4442253Y-20996103D01*
X4442253Y-20996103D02*
X4432729Y-21015150D01*
X4432729Y-21015150D02*
X4423205Y-21024674D01*
X4423205Y-21024674D02*
X4404158Y-21034198D01*
X4404158Y-21034198D02*
X4366063Y-21034198D01*
X4366063Y-21034198D02*
X4347015Y-21043722D01*
X4347015Y-21043722D02*
X4337491Y-21053246D01*
X4337491Y-21053246D02*
X4327967Y-21072293D01*
X4327967Y-21072293D02*
X4327967Y-21110389D01*
X4327967Y-21110389D02*
X4337491Y-21129436D01*
X4337491Y-21129436D02*
X4347015Y-21138960D01*
X4347015Y-21138960D02*
X4366063Y-21148484D01*
X4366063Y-21148484D02*
X4404158Y-21148484D01*
X4404158Y-21148484D02*
X4423205Y-21138960D01*
X4423205Y-21138960D02*
X4432729Y-21129436D01*
X4432729Y-21129436D02*
X4442253Y-21110389D01*
X4442253Y-21110389D02*
X4442253Y-21072293D01*
X4442253Y-21072293D02*
X4432729Y-21053246D01*
X4432729Y-21053246D02*
X4423205Y-21043722D01*
X4423205Y-21043722D02*
X4404158Y-21034198D01*
X4613682Y-21015150D02*
X4613682Y-21148484D01*
X4566063Y-20938960D02*
X4518444Y-21081817D01*
X4518444Y-21081817D02*
X4642253Y-21081817D01*
X4699396Y-20948484D02*
X4832729Y-20948484D01*
X4832729Y-20948484D02*
X4747015Y-21148484D01*
X4908920Y-21148484D02*
X4908920Y-21015150D01*
X4908920Y-21034198D02*
X4918444Y-21024674D01*
X4918444Y-21024674D02*
X4937491Y-21015150D01*
X4937491Y-21015150D02*
X4966063Y-21015150D01*
X4966063Y-21015150D02*
X4985110Y-21024674D01*
X4985110Y-21024674D02*
X4994634Y-21043722D01*
X4994634Y-21043722D02*
X4994634Y-21148484D01*
X4994634Y-21043722D02*
X5004158Y-21024674D01*
X5004158Y-21024674D02*
X5023205Y-21015150D01*
X5023205Y-21015150D02*
X5051777Y-21015150D01*
X5051777Y-21015150D02*
X5070825Y-21024674D01*
X5070825Y-21024674D02*
X5080348Y-21043722D01*
X5080348Y-21043722D02*
X5080348Y-21148484D01*
X5175586Y-21148484D02*
X5175586Y-21015150D01*
X5175586Y-21034198D02*
X5185110Y-21024674D01*
X5185110Y-21024674D02*
X5204158Y-21015150D01*
X5204158Y-21015150D02*
X5232729Y-21015150D01*
X5232729Y-21015150D02*
X5251777Y-21024674D01*
X5251777Y-21024674D02*
X5261301Y-21043722D01*
X5261301Y-21043722D02*
X5261301Y-21148484D01*
X5261301Y-21043722D02*
X5270825Y-21024674D01*
X5270825Y-21024674D02*
X5289872Y-21015150D01*
X5289872Y-21015150D02*
X5318444Y-21015150D01*
X5318444Y-21015150D02*
X5337491Y-21024674D01*
X5337491Y-21024674D02*
X5347015Y-21043722D01*
X5347015Y-21043722D02*
X5347015Y-21148484D01*
X5737491Y-20938960D02*
X5566063Y-21196103D01*
X5994634Y-20948484D02*
X6013682Y-20948484D01*
X6013682Y-20948484D02*
X6032729Y-20958008D01*
X6032729Y-20958008D02*
X6042253Y-20967531D01*
X6042253Y-20967531D02*
X6051777Y-20986579D01*
X6051777Y-20986579D02*
X6061301Y-21024674D01*
X6061301Y-21024674D02*
X6061301Y-21072293D01*
X6061301Y-21072293D02*
X6051777Y-21110389D01*
X6051777Y-21110389D02*
X6042253Y-21129436D01*
X6042253Y-21129436D02*
X6032729Y-21138960D01*
X6032729Y-21138960D02*
X6013682Y-21148484D01*
X6013682Y-21148484D02*
X5994634Y-21148484D01*
X5994634Y-21148484D02*
X5975586Y-21138960D01*
X5975586Y-21138960D02*
X5966063Y-21129436D01*
X5966063Y-21129436D02*
X5956539Y-21110389D01*
X5956539Y-21110389D02*
X5947015Y-21072293D01*
X5947015Y-21072293D02*
X5947015Y-21024674D01*
X5947015Y-21024674D02*
X5956539Y-20986579D01*
X5956539Y-20986579D02*
X5966063Y-20967531D01*
X5966063Y-20967531D02*
X5975586Y-20958008D01*
X5975586Y-20958008D02*
X5994634Y-20948484D01*
X6147015Y-21129436D02*
X6156539Y-21138960D01*
X6156539Y-21138960D02*
X6147015Y-21148484D01*
X6147015Y-21148484D02*
X6137491Y-21138960D01*
X6137491Y-21138960D02*
X6147015Y-21129436D01*
X6147015Y-21129436D02*
X6147015Y-21148484D01*
X6280348Y-20948484D02*
X6299396Y-20948484D01*
X6299396Y-20948484D02*
X6318444Y-20958008D01*
X6318444Y-20958008D02*
X6327967Y-20967531D01*
X6327967Y-20967531D02*
X6337491Y-20986579D01*
X6337491Y-20986579D02*
X6347015Y-21024674D01*
X6347015Y-21024674D02*
X6347015Y-21072293D01*
X6347015Y-21072293D02*
X6337491Y-21110389D01*
X6337491Y-21110389D02*
X6327967Y-21129436D01*
X6327967Y-21129436D02*
X6318444Y-21138960D01*
X6318444Y-21138960D02*
X6299396Y-21148484D01*
X6299396Y-21148484D02*
X6280348Y-21148484D01*
X6280348Y-21148484D02*
X6261301Y-21138960D01*
X6261301Y-21138960D02*
X6251777Y-21129436D01*
X6251777Y-21129436D02*
X6242253Y-21110389D01*
X6242253Y-21110389D02*
X6232729Y-21072293D01*
X6232729Y-21072293D02*
X6232729Y-21024674D01*
X6232729Y-21024674D02*
X6242253Y-20986579D01*
X6242253Y-20986579D02*
X6251777Y-20967531D01*
X6251777Y-20967531D02*
X6261301Y-20958008D01*
X6261301Y-20958008D02*
X6280348Y-20948484D01*
X6413682Y-20948484D02*
X6547015Y-20948484D01*
X6547015Y-20948484D02*
X6461301Y-21148484D01*
X6613682Y-20967531D02*
X6623206Y-20958008D01*
X6623206Y-20958008D02*
X6642253Y-20948484D01*
X6642253Y-20948484D02*
X6689872Y-20948484D01*
X6689872Y-20948484D02*
X6708920Y-20958008D01*
X6708920Y-20958008D02*
X6718444Y-20967531D01*
X6718444Y-20967531D02*
X6727967Y-20986579D01*
X6727967Y-20986579D02*
X6727967Y-21005627D01*
X6727967Y-21005627D02*
X6718444Y-21034198D01*
X6718444Y-21034198D02*
X6604158Y-21148484D01*
X6604158Y-21148484D02*
X6727967Y-21148484D01*
X6794634Y-20948484D02*
X6927967Y-20948484D01*
X6927967Y-20948484D02*
X6842253Y-21148484D01*
X6994634Y-20948484D02*
X6994634Y-20986579D01*
X7070825Y-20948484D02*
X7070825Y-20986579D01*
X7366063Y-21224674D02*
X7356539Y-21215150D01*
X7356539Y-21215150D02*
X7337491Y-21186579D01*
X7337491Y-21186579D02*
X7327968Y-21167531D01*
X7327968Y-21167531D02*
X7318444Y-21138960D01*
X7318444Y-21138960D02*
X7308920Y-21091341D01*
X7308920Y-21091341D02*
X7308920Y-21053246D01*
X7308920Y-21053246D02*
X7318444Y-21005627D01*
X7318444Y-21005627D02*
X7327968Y-20977055D01*
X7327968Y-20977055D02*
X7337491Y-20958008D01*
X7337491Y-20958008D02*
X7356539Y-20929436D01*
X7356539Y-20929436D02*
X7366063Y-20919912D01*
X7423206Y-20948484D02*
X7547015Y-20948484D01*
X7547015Y-20948484D02*
X7480348Y-21024674D01*
X7480348Y-21024674D02*
X7508920Y-21024674D01*
X7508920Y-21024674D02*
X7527968Y-21034198D01*
X7527968Y-21034198D02*
X7537491Y-21043722D01*
X7537491Y-21043722D02*
X7547015Y-21062770D01*
X7547015Y-21062770D02*
X7547015Y-21110389D01*
X7547015Y-21110389D02*
X7537491Y-21129436D01*
X7537491Y-21129436D02*
X7527968Y-21138960D01*
X7527968Y-21138960D02*
X7508920Y-21148484D01*
X7508920Y-21148484D02*
X7451777Y-21148484D01*
X7451777Y-21148484D02*
X7432729Y-21138960D01*
X7432729Y-21138960D02*
X7423206Y-21129436D01*
X7613682Y-20948484D02*
X7737491Y-20948484D01*
X7737491Y-20948484D02*
X7670825Y-21024674D01*
X7670825Y-21024674D02*
X7699396Y-21024674D01*
X7699396Y-21024674D02*
X7718444Y-21034198D01*
X7718444Y-21034198D02*
X7727968Y-21043722D01*
X7727968Y-21043722D02*
X7737491Y-21062770D01*
X7737491Y-21062770D02*
X7737491Y-21110389D01*
X7737491Y-21110389D02*
X7727968Y-21129436D01*
X7727968Y-21129436D02*
X7718444Y-21138960D01*
X7718444Y-21138960D02*
X7699396Y-21148484D01*
X7699396Y-21148484D02*
X7642253Y-21148484D01*
X7642253Y-21148484D02*
X7623206Y-21138960D01*
X7623206Y-21138960D02*
X7613682Y-21129436D01*
X7975587Y-21148484D02*
X7975587Y-20948484D01*
X8061301Y-21148484D02*
X8061301Y-21043722D01*
X8061301Y-21043722D02*
X8051777Y-21024674D01*
X8051777Y-21024674D02*
X8032730Y-21015150D01*
X8032730Y-21015150D02*
X8004158Y-21015150D01*
X8004158Y-21015150D02*
X7985110Y-21024674D01*
X7985110Y-21024674D02*
X7975587Y-21034198D01*
X8185110Y-21148484D02*
X8166063Y-21138960D01*
X8166063Y-21138960D02*
X8156539Y-21129436D01*
X8156539Y-21129436D02*
X8147015Y-21110389D01*
X8147015Y-21110389D02*
X8147015Y-21053246D01*
X8147015Y-21053246D02*
X8156539Y-21034198D01*
X8156539Y-21034198D02*
X8166063Y-21024674D01*
X8166063Y-21024674D02*
X8185110Y-21015150D01*
X8185110Y-21015150D02*
X8213682Y-21015150D01*
X8213682Y-21015150D02*
X8232730Y-21024674D01*
X8232730Y-21024674D02*
X8242253Y-21034198D01*
X8242253Y-21034198D02*
X8251777Y-21053246D01*
X8251777Y-21053246D02*
X8251777Y-21110389D01*
X8251777Y-21110389D02*
X8242253Y-21129436D01*
X8242253Y-21129436D02*
X8232730Y-21138960D01*
X8232730Y-21138960D02*
X8213682Y-21148484D01*
X8213682Y-21148484D02*
X8185110Y-21148484D01*
X8366063Y-21148484D02*
X8347015Y-21138960D01*
X8347015Y-21138960D02*
X8337491Y-21119912D01*
X8337491Y-21119912D02*
X8337491Y-20948484D01*
X8518444Y-21138960D02*
X8499396Y-21148484D01*
X8499396Y-21148484D02*
X8461301Y-21148484D01*
X8461301Y-21148484D02*
X8442253Y-21138960D01*
X8442253Y-21138960D02*
X8432730Y-21119912D01*
X8432730Y-21119912D02*
X8432730Y-21043722D01*
X8432730Y-21043722D02*
X8442253Y-21024674D01*
X8442253Y-21024674D02*
X8461301Y-21015150D01*
X8461301Y-21015150D02*
X8499396Y-21015150D01*
X8499396Y-21015150D02*
X8518444Y-21024674D01*
X8518444Y-21024674D02*
X8527968Y-21043722D01*
X8527968Y-21043722D02*
X8527968Y-21062770D01*
X8527968Y-21062770D02*
X8432730Y-21081817D01*
X8604158Y-21138960D02*
X8623206Y-21148484D01*
X8623206Y-21148484D02*
X8661301Y-21148484D01*
X8661301Y-21148484D02*
X8680349Y-21138960D01*
X8680349Y-21138960D02*
X8689873Y-21119912D01*
X8689873Y-21119912D02*
X8689873Y-21110389D01*
X8689873Y-21110389D02*
X8680349Y-21091341D01*
X8680349Y-21091341D02*
X8661301Y-21081817D01*
X8661301Y-21081817D02*
X8632730Y-21081817D01*
X8632730Y-21081817D02*
X8613682Y-21072293D01*
X8613682Y-21072293D02*
X8604158Y-21053246D01*
X8604158Y-21053246D02*
X8604158Y-21043722D01*
X8604158Y-21043722D02*
X8613682Y-21024674D01*
X8613682Y-21024674D02*
X8632730Y-21015150D01*
X8632730Y-21015150D02*
X8661301Y-21015150D01*
X8661301Y-21015150D02*
X8680349Y-21024674D01*
X8756539Y-21224674D02*
X8766063Y-21215150D01*
X8766063Y-21215150D02*
X8785111Y-21186579D01*
X8785111Y-21186579D02*
X8794634Y-21167531D01*
X8794634Y-21167531D02*
X8804158Y-21138960D01*
X8804158Y-21138960D02*
X8813682Y-21091341D01*
X8813682Y-21091341D02*
X8813682Y-21053246D01*
X8813682Y-21053246D02*
X8804158Y-21005627D01*
X8804158Y-21005627D02*
X8794634Y-20977055D01*
X8794634Y-20977055D02*
X8785111Y-20958008D01*
X8785111Y-20958008D02*
X8766063Y-20929436D01*
X8766063Y-20929436D02*
X8756539Y-20919912D01*
M02*
