G04 #@! TF.GenerationSoftware,KiCad,Pcbnew,(5.1.7)-1*
G04 #@! TF.CreationDate,2020-11-15T10:54:59+01:00*
G04 #@! TF.ProjectId,Befehle,42656665-686c-4652-9e6b-696361645f70,rev?*
G04 #@! TF.SameCoordinates,Original*
G04 #@! TF.FileFunction,Legend,Top*
G04 #@! TF.FilePolarity,Positive*
%FSLAX46Y46*%
G04 Gerber Fmt 4.6, Leading zero omitted, Abs format (unit mm)*
G04 Created by KiCad (PCBNEW (5.1.7)-1) date 2020-11-15 10:54:59*
%MOMM*%
%LPD*%
G01*
G04 APERTURE LIST*
%ADD10C,0.170000*%
%ADD11C,0.200000*%
%ADD12C,0.250000*%
%ADD13C,0.400000*%
%ADD14C,0.500000*%
G04 APERTURE END LIST*
D10*
X55053595Y-42712380D02*
X55053595Y-42045714D01*
X55053595Y-42236190D02*
X55101214Y-42140952D01*
X55148833Y-42093333D01*
X55244071Y-42045714D01*
X55339309Y-42045714D01*
X56053595Y-42664761D02*
X55958357Y-42712380D01*
X55767880Y-42712380D01*
X55672642Y-42664761D01*
X55625023Y-42569523D01*
X55625023Y-42188571D01*
X55672642Y-42093333D01*
X55767880Y-42045714D01*
X55958357Y-42045714D01*
X56053595Y-42093333D01*
X56101214Y-42188571D01*
X56101214Y-42283809D01*
X55625023Y-42379047D01*
X56434547Y-42045714D02*
X56672642Y-42712380D01*
X56910738Y-42045714D01*
X58005976Y-41807619D02*
X58053595Y-41760000D01*
X58148833Y-41712380D01*
X58386928Y-41712380D01*
X58482166Y-41760000D01*
X58529785Y-41807619D01*
X58577404Y-41902857D01*
X58577404Y-41998095D01*
X58529785Y-42140952D01*
X57958357Y-42712380D01*
X58577404Y-42712380D01*
X59005976Y-42617142D02*
X59053595Y-42664761D01*
X59005976Y-42712380D01*
X58958357Y-42664761D01*
X59005976Y-42617142D01*
X59005976Y-42712380D01*
X59672642Y-41712380D02*
X59767880Y-41712380D01*
X59863119Y-41760000D01*
X59910738Y-41807619D01*
X59958357Y-41902857D01*
X60005976Y-42093333D01*
X60005976Y-42331428D01*
X59958357Y-42521904D01*
X59910738Y-42617142D01*
X59863119Y-42664761D01*
X59767880Y-42712380D01*
X59672642Y-42712380D01*
X59577404Y-42664761D01*
X59529785Y-42617142D01*
X59482166Y-42521904D01*
X59434547Y-42331428D01*
X59434547Y-42093333D01*
X59482166Y-41902857D01*
X59529785Y-41807619D01*
X59577404Y-41760000D01*
X59672642Y-41712380D01*
D11*
X95345000Y-127985000D02*
X113760000Y-127985000D01*
X95345000Y-124175000D02*
X113125000Y-124175000D01*
X95345000Y-120365000D02*
X113125000Y-120365000D01*
X95345000Y-116555000D02*
X113125000Y-116555000D01*
X111220000Y-112745000D02*
X111220000Y-130525000D01*
X107410000Y-112110000D02*
X107410000Y-130525000D01*
X103600000Y-112110000D02*
X103600000Y-130525000D01*
X99790000Y-112110000D02*
X99790000Y-130525000D01*
D12*
X97155714Y-110859857D02*
X97370000Y-110931285D01*
X97441428Y-111002714D01*
X97512857Y-111145571D01*
X97512857Y-111359857D01*
X97441428Y-111502714D01*
X97370000Y-111574142D01*
X97227142Y-111645571D01*
X96655714Y-111645571D01*
X96655714Y-110145571D01*
X97155714Y-110145571D01*
X97298571Y-110217000D01*
X97370000Y-110288428D01*
X97441428Y-110431285D01*
X97441428Y-110574142D01*
X97370000Y-110717000D01*
X97298571Y-110788428D01*
X97155714Y-110859857D01*
X96655714Y-110859857D01*
X98727142Y-111574142D02*
X98584285Y-111645571D01*
X98298571Y-111645571D01*
X98155714Y-111574142D01*
X98084285Y-111431285D01*
X98084285Y-110859857D01*
X98155714Y-110717000D01*
X98298571Y-110645571D01*
X98584285Y-110645571D01*
X98727142Y-110717000D01*
X98798571Y-110859857D01*
X98798571Y-111002714D01*
X98084285Y-111145571D01*
X99227142Y-110645571D02*
X99798571Y-110645571D01*
X99441428Y-111645571D02*
X99441428Y-110359857D01*
X99512857Y-110217000D01*
X99655714Y-110145571D01*
X99798571Y-110145571D01*
X100870000Y-111574142D02*
X100727142Y-111645571D01*
X100441428Y-111645571D01*
X100298571Y-111574142D01*
X100227142Y-111431285D01*
X100227142Y-110859857D01*
X100298571Y-110717000D01*
X100441428Y-110645571D01*
X100727142Y-110645571D01*
X100870000Y-110717000D01*
X100941428Y-110859857D01*
X100941428Y-111002714D01*
X100227142Y-111145571D01*
X101584285Y-111645571D02*
X101584285Y-110145571D01*
X102227142Y-111645571D02*
X102227142Y-110859857D01*
X102155714Y-110717000D01*
X102012857Y-110645571D01*
X101798571Y-110645571D01*
X101655714Y-110717000D01*
X101584285Y-110788428D01*
X103155714Y-111645571D02*
X103012857Y-111574142D01*
X102941428Y-111431285D01*
X102941428Y-110145571D01*
X103655714Y-111574142D02*
X103798571Y-111645571D01*
X104084285Y-111645571D01*
X104227142Y-111574142D01*
X104298571Y-111431285D01*
X104298571Y-111359857D01*
X104227142Y-111217000D01*
X104084285Y-111145571D01*
X103870000Y-111145571D01*
X103727142Y-111074142D01*
X103655714Y-110931285D01*
X103655714Y-110859857D01*
X103727142Y-110717000D01*
X103870000Y-110645571D01*
X104084285Y-110645571D01*
X104227142Y-110717000D01*
X105584285Y-111645571D02*
X105584285Y-110145571D01*
X105584285Y-111574142D02*
X105441428Y-111645571D01*
X105155714Y-111645571D01*
X105012857Y-111574142D01*
X104941428Y-111502714D01*
X104870000Y-111359857D01*
X104870000Y-110931285D01*
X104941428Y-110788428D01*
X105012857Y-110717000D01*
X105155714Y-110645571D01*
X105441428Y-110645571D01*
X105584285Y-110717000D01*
X106870000Y-111574142D02*
X106727142Y-111645571D01*
X106441428Y-111645571D01*
X106298571Y-111574142D01*
X106227142Y-111431285D01*
X106227142Y-110859857D01*
X106298571Y-110717000D01*
X106441428Y-110645571D01*
X106727142Y-110645571D01*
X106870000Y-110717000D01*
X106941428Y-110859857D01*
X106941428Y-111002714D01*
X106227142Y-111145571D01*
X108227142Y-111574142D02*
X108084285Y-111645571D01*
X107798571Y-111645571D01*
X107655714Y-111574142D01*
X107584285Y-111502714D01*
X107512857Y-111359857D01*
X107512857Y-110931285D01*
X107584285Y-110788428D01*
X107655714Y-110717000D01*
X107798571Y-110645571D01*
X108084285Y-110645571D01*
X108227142Y-110717000D01*
X109084285Y-111645571D02*
X108941428Y-111574142D01*
X108870000Y-111502714D01*
X108798571Y-111359857D01*
X108798571Y-110931285D01*
X108870000Y-110788428D01*
X108941428Y-110717000D01*
X109084285Y-110645571D01*
X109298571Y-110645571D01*
X109441428Y-110717000D01*
X109512857Y-110788428D01*
X109584285Y-110931285D01*
X109584285Y-111359857D01*
X109512857Y-111502714D01*
X109441428Y-111574142D01*
X109298571Y-111645571D01*
X109084285Y-111645571D01*
X110870000Y-111645571D02*
X110870000Y-110145571D01*
X110870000Y-111574142D02*
X110727142Y-111645571D01*
X110441428Y-111645571D01*
X110298571Y-111574142D01*
X110227142Y-111502714D01*
X110155714Y-111359857D01*
X110155714Y-110931285D01*
X110227142Y-110788428D01*
X110298571Y-110717000D01*
X110441428Y-110645571D01*
X110727142Y-110645571D01*
X110870000Y-110717000D01*
X112155714Y-111574142D02*
X112012857Y-111645571D01*
X111727142Y-111645571D01*
X111584285Y-111574142D01*
X111512857Y-111431285D01*
X111512857Y-110859857D01*
X111584285Y-110717000D01*
X111727142Y-110645571D01*
X112012857Y-110645571D01*
X112155714Y-110717000D01*
X112227142Y-110859857D01*
X112227142Y-111002714D01*
X111512857Y-111145571D01*
X112870000Y-111645571D02*
X112870000Y-110645571D01*
X112870000Y-110931285D02*
X112941428Y-110788428D01*
X113012857Y-110717000D01*
X113155714Y-110645571D01*
X113298571Y-110645571D01*
X80380000Y-28817857D02*
X80594285Y-28889285D01*
X80665714Y-28960714D01*
X80737142Y-29103571D01*
X80737142Y-29317857D01*
X80665714Y-29460714D01*
X80594285Y-29532142D01*
X80451428Y-29603571D01*
X79880000Y-29603571D01*
X79880000Y-28103571D01*
X80380000Y-28103571D01*
X80522857Y-28175000D01*
X80594285Y-28246428D01*
X80665714Y-28389285D01*
X80665714Y-28532142D01*
X80594285Y-28675000D01*
X80522857Y-28746428D01*
X80380000Y-28817857D01*
X79880000Y-28817857D01*
X81951428Y-29532142D02*
X81808571Y-29603571D01*
X81522857Y-29603571D01*
X81380000Y-29532142D01*
X81308571Y-29389285D01*
X81308571Y-28817857D01*
X81380000Y-28675000D01*
X81522857Y-28603571D01*
X81808571Y-28603571D01*
X81951428Y-28675000D01*
X82022857Y-28817857D01*
X82022857Y-28960714D01*
X81308571Y-29103571D01*
X82451428Y-28603571D02*
X83022857Y-28603571D01*
X82665714Y-29603571D02*
X82665714Y-28317857D01*
X82737142Y-28175000D01*
X82880000Y-28103571D01*
X83022857Y-28103571D01*
X84094285Y-29532142D02*
X83951428Y-29603571D01*
X83665714Y-29603571D01*
X83522857Y-29532142D01*
X83451428Y-29389285D01*
X83451428Y-28817857D01*
X83522857Y-28675000D01*
X83665714Y-28603571D01*
X83951428Y-28603571D01*
X84094285Y-28675000D01*
X84165714Y-28817857D01*
X84165714Y-28960714D01*
X83451428Y-29103571D01*
X84808571Y-29603571D02*
X84808571Y-28103571D01*
X85451428Y-29603571D02*
X85451428Y-28817857D01*
X85380000Y-28675000D01*
X85237142Y-28603571D01*
X85022857Y-28603571D01*
X84880000Y-28675000D01*
X84808571Y-28746428D01*
X86380000Y-29603571D02*
X86237142Y-29532142D01*
X86165714Y-29389285D01*
X86165714Y-28103571D01*
X86880000Y-29532142D02*
X87022857Y-29603571D01*
X87308571Y-29603571D01*
X87451428Y-29532142D01*
X87522857Y-29389285D01*
X87522857Y-29317857D01*
X87451428Y-29175000D01*
X87308571Y-29103571D01*
X87094285Y-29103571D01*
X86951428Y-29032142D01*
X86880000Y-28889285D01*
X86880000Y-28817857D01*
X86951428Y-28675000D01*
X87094285Y-28603571D01*
X87308571Y-28603571D01*
X87451428Y-28675000D01*
X88165714Y-29603571D02*
X88165714Y-28603571D01*
X88165714Y-28889285D02*
X88237142Y-28746428D01*
X88308571Y-28675000D01*
X88451428Y-28603571D01*
X88594285Y-28603571D01*
X89665714Y-29532142D02*
X89522857Y-29603571D01*
X89237142Y-29603571D01*
X89094285Y-29532142D01*
X89022857Y-29389285D01*
X89022857Y-28817857D01*
X89094285Y-28675000D01*
X89237142Y-28603571D01*
X89522857Y-28603571D01*
X89665714Y-28675000D01*
X89737142Y-28817857D01*
X89737142Y-28960714D01*
X89022857Y-29103571D01*
X91022857Y-28603571D02*
X91022857Y-29817857D01*
X90951428Y-29960714D01*
X90880000Y-30032142D01*
X90737142Y-30103571D01*
X90522857Y-30103571D01*
X90380000Y-30032142D01*
X91022857Y-29532142D02*
X90880000Y-29603571D01*
X90594285Y-29603571D01*
X90451428Y-29532142D01*
X90380000Y-29460714D01*
X90308571Y-29317857D01*
X90308571Y-28889285D01*
X90380000Y-28746428D01*
X90451428Y-28675000D01*
X90594285Y-28603571D01*
X90880000Y-28603571D01*
X91022857Y-28675000D01*
X91737142Y-29603571D02*
X91737142Y-28603571D01*
X91737142Y-28103571D02*
X91665714Y-28175000D01*
X91737142Y-28246428D01*
X91808571Y-28175000D01*
X91737142Y-28103571D01*
X91737142Y-28246428D01*
X92380000Y-29532142D02*
X92522857Y-29603571D01*
X92808571Y-29603571D01*
X92951428Y-29532142D01*
X93022857Y-29389285D01*
X93022857Y-29317857D01*
X92951428Y-29175000D01*
X92808571Y-29103571D01*
X92594285Y-29103571D01*
X92451428Y-29032142D01*
X92380000Y-28889285D01*
X92380000Y-28817857D01*
X92451428Y-28675000D01*
X92594285Y-28603571D01*
X92808571Y-28603571D01*
X92951428Y-28675000D01*
X93451428Y-28603571D02*
X94022857Y-28603571D01*
X93665714Y-28103571D02*
X93665714Y-29389285D01*
X93737142Y-29532142D01*
X93880000Y-29603571D01*
X94022857Y-29603571D01*
X95094285Y-29532142D02*
X94951428Y-29603571D01*
X94665714Y-29603571D01*
X94522857Y-29532142D01*
X94451428Y-29389285D01*
X94451428Y-28817857D01*
X94522857Y-28675000D01*
X94665714Y-28603571D01*
X94951428Y-28603571D01*
X95094285Y-28675000D01*
X95165714Y-28817857D01*
X95165714Y-28960714D01*
X94451428Y-29103571D01*
X95808571Y-29603571D02*
X95808571Y-28603571D01*
X95808571Y-28889285D02*
X95880000Y-28746428D01*
X95951428Y-28675000D01*
X96094285Y-28603571D01*
X96237142Y-28603571D01*
X97880000Y-29603571D02*
X97880000Y-28103571D01*
X99451428Y-29603571D02*
X98951428Y-28889285D01*
X98594285Y-29603571D02*
X98594285Y-28103571D01*
X99165714Y-28103571D01*
X99308571Y-28175000D01*
X99380000Y-28246428D01*
X99451428Y-28389285D01*
X99451428Y-28603571D01*
X99380000Y-28746428D01*
X99308571Y-28817857D01*
X99165714Y-28889285D01*
X98594285Y-28889285D01*
D11*
X117570000Y-40355000D02*
X117570000Y-27655000D01*
X76930000Y-40355000D02*
X76930000Y-27655000D01*
D12*
X89758571Y-169303571D02*
X89758571Y-167803571D01*
X90258571Y-168875000D01*
X90758571Y-167803571D01*
X90758571Y-169303571D01*
X91472857Y-169303571D02*
X91472857Y-168303571D01*
X91472857Y-167803571D02*
X91401428Y-167875000D01*
X91472857Y-167946428D01*
X91544285Y-167875000D01*
X91472857Y-167803571D01*
X91472857Y-167946428D01*
X92187142Y-169303571D02*
X92187142Y-167803571D01*
X92330000Y-168732142D02*
X92758571Y-169303571D01*
X92758571Y-168303571D02*
X92187142Y-168875000D01*
X93401428Y-169303571D02*
X93401428Y-168303571D01*
X93401428Y-168589285D02*
X93472857Y-168446428D01*
X93544285Y-168375000D01*
X93687142Y-168303571D01*
X93830000Y-168303571D01*
X94544285Y-169303571D02*
X94401428Y-169232142D01*
X94330000Y-169160714D01*
X94258571Y-169017857D01*
X94258571Y-168589285D01*
X94330000Y-168446428D01*
X94401428Y-168375000D01*
X94544285Y-168303571D01*
X94758571Y-168303571D01*
X94901428Y-168375000D01*
X94972857Y-168446428D01*
X95044285Y-168589285D01*
X95044285Y-169017857D01*
X94972857Y-169160714D01*
X94901428Y-169232142D01*
X94758571Y-169303571D01*
X94544285Y-169303571D01*
X95687142Y-168303571D02*
X95687142Y-169803571D01*
X95687142Y-168375000D02*
X95830000Y-168303571D01*
X96115714Y-168303571D01*
X96258571Y-168375000D01*
X96330000Y-168446428D01*
X96401428Y-168589285D01*
X96401428Y-169017857D01*
X96330000Y-169160714D01*
X96258571Y-169232142D01*
X96115714Y-169303571D01*
X95830000Y-169303571D01*
X95687142Y-169232142D01*
X97044285Y-169303571D02*
X97044285Y-168303571D01*
X97044285Y-168589285D02*
X97115714Y-168446428D01*
X97187142Y-168375000D01*
X97330000Y-168303571D01*
X97472857Y-168303571D01*
X98187142Y-169303571D02*
X98044285Y-169232142D01*
X97972857Y-169160714D01*
X97901428Y-169017857D01*
X97901428Y-168589285D01*
X97972857Y-168446428D01*
X98044285Y-168375000D01*
X98187142Y-168303571D01*
X98401428Y-168303571D01*
X98544285Y-168375000D01*
X98615714Y-168446428D01*
X98687142Y-168589285D01*
X98687142Y-169017857D01*
X98615714Y-169160714D01*
X98544285Y-169232142D01*
X98401428Y-169303571D01*
X98187142Y-169303571D01*
X99972857Y-168303571D02*
X99972857Y-169517857D01*
X99901428Y-169660714D01*
X99830000Y-169732142D01*
X99687142Y-169803571D01*
X99472857Y-169803571D01*
X99330000Y-169732142D01*
X99972857Y-169232142D02*
X99830000Y-169303571D01*
X99544285Y-169303571D01*
X99401428Y-169232142D01*
X99330000Y-169160714D01*
X99258571Y-169017857D01*
X99258571Y-168589285D01*
X99330000Y-168446428D01*
X99401428Y-168375000D01*
X99544285Y-168303571D01*
X99830000Y-168303571D01*
X99972857Y-168375000D01*
X100687142Y-169303571D02*
X100687142Y-168303571D01*
X100687142Y-168589285D02*
X100758571Y-168446428D01*
X100830000Y-168375000D01*
X100972857Y-168303571D01*
X101115714Y-168303571D01*
X102258571Y-169303571D02*
X102258571Y-168517857D01*
X102187142Y-168375000D01*
X102044285Y-168303571D01*
X101758571Y-168303571D01*
X101615714Y-168375000D01*
X102258571Y-169232142D02*
X102115714Y-169303571D01*
X101758571Y-169303571D01*
X101615714Y-169232142D01*
X101544285Y-169089285D01*
X101544285Y-168946428D01*
X101615714Y-168803571D01*
X101758571Y-168732142D01*
X102115714Y-168732142D01*
X102258571Y-168660714D01*
X102972857Y-169303571D02*
X102972857Y-168303571D01*
X102972857Y-168446428D02*
X103044285Y-168375000D01*
X103187142Y-168303571D01*
X103401428Y-168303571D01*
X103544285Y-168375000D01*
X103615714Y-168517857D01*
X103615714Y-169303571D01*
X103615714Y-168517857D02*
X103687142Y-168375000D01*
X103830000Y-168303571D01*
X104044285Y-168303571D01*
X104187142Y-168375000D01*
X104258571Y-168517857D01*
X104258571Y-169303571D01*
X104972857Y-169303571D02*
X104972857Y-168303571D01*
X104972857Y-168446428D02*
X105044285Y-168375000D01*
X105187142Y-168303571D01*
X105401428Y-168303571D01*
X105544285Y-168375000D01*
X105615714Y-168517857D01*
X105615714Y-169303571D01*
X105615714Y-168517857D02*
X105687142Y-168375000D01*
X105830000Y-168303571D01*
X106044285Y-168303571D01*
X106187142Y-168375000D01*
X106258571Y-168517857D01*
X106258571Y-169303571D01*
X107615714Y-169303571D02*
X107615714Y-168517857D01*
X107544285Y-168375000D01*
X107401428Y-168303571D01*
X107115714Y-168303571D01*
X106972857Y-168375000D01*
X107615714Y-169232142D02*
X107472857Y-169303571D01*
X107115714Y-169303571D01*
X106972857Y-169232142D01*
X106901428Y-169089285D01*
X106901428Y-168946428D01*
X106972857Y-168803571D01*
X107115714Y-168732142D01*
X107472857Y-168732142D01*
X107615714Y-168660714D01*
X108972857Y-169303571D02*
X108972857Y-167803571D01*
X108972857Y-169232142D02*
X108830000Y-169303571D01*
X108544285Y-169303571D01*
X108401428Y-169232142D01*
X108330000Y-169160714D01*
X108258571Y-169017857D01*
X108258571Y-168589285D01*
X108330000Y-168446428D01*
X108401428Y-168375000D01*
X108544285Y-168303571D01*
X108830000Y-168303571D01*
X108972857Y-168375000D01*
X109687142Y-169303571D02*
X109687142Y-168303571D01*
X109687142Y-168589285D02*
X109758571Y-168446428D01*
X109830000Y-168375000D01*
X109972857Y-168303571D01*
X110115714Y-168303571D01*
X111187142Y-169232142D02*
X111044285Y-169303571D01*
X110758571Y-169303571D01*
X110615714Y-169232142D01*
X110544285Y-169089285D01*
X110544285Y-168517857D01*
X110615714Y-168375000D01*
X110758571Y-168303571D01*
X111044285Y-168303571D01*
X111187142Y-168375000D01*
X111258571Y-168517857D01*
X111258571Y-168660714D01*
X110544285Y-168803571D01*
X111830000Y-169232142D02*
X111972857Y-169303571D01*
X112258571Y-169303571D01*
X112401428Y-169232142D01*
X112472857Y-169089285D01*
X112472857Y-169017857D01*
X112401428Y-168875000D01*
X112258571Y-168803571D01*
X112044285Y-168803571D01*
X111901428Y-168732142D01*
X111830000Y-168589285D01*
X111830000Y-168517857D01*
X111901428Y-168375000D01*
X112044285Y-168303571D01*
X112258571Y-168303571D01*
X112401428Y-168375000D01*
X113044285Y-169232142D02*
X113187142Y-169303571D01*
X113472857Y-169303571D01*
X113615714Y-169232142D01*
X113687142Y-169089285D01*
X113687142Y-169017857D01*
X113615714Y-168875000D01*
X113472857Y-168803571D01*
X113258571Y-168803571D01*
X113115714Y-168732142D01*
X113044285Y-168589285D01*
X113044285Y-168517857D01*
X113115714Y-168375000D01*
X113258571Y-168303571D01*
X113472857Y-168303571D01*
X113615714Y-168375000D01*
X114901428Y-169232142D02*
X114758571Y-169303571D01*
X114472857Y-169303571D01*
X114330000Y-169232142D01*
X114258571Y-169089285D01*
X114258571Y-168517857D01*
X114330000Y-168375000D01*
X114472857Y-168303571D01*
X114758571Y-168303571D01*
X114901428Y-168375000D01*
X114972857Y-168517857D01*
X114972857Y-168660714D01*
X114258571Y-168803571D01*
X94210000Y-165898571D02*
X95138571Y-165898571D01*
X94638571Y-166470000D01*
X94852857Y-166470000D01*
X94995714Y-166541428D01*
X95067142Y-166612857D01*
X95138571Y-166755714D01*
X95138571Y-167112857D01*
X95067142Y-167255714D01*
X94995714Y-167327142D01*
X94852857Y-167398571D01*
X94424285Y-167398571D01*
X94281428Y-167327142D01*
X94210000Y-167255714D01*
X99361428Y-166041428D02*
X99432857Y-165970000D01*
X99575714Y-165898571D01*
X99932857Y-165898571D01*
X100075714Y-165970000D01*
X100147142Y-166041428D01*
X100218571Y-166184285D01*
X100218571Y-166327142D01*
X100147142Y-166541428D01*
X99290000Y-167398571D01*
X100218571Y-167398571D01*
X105298571Y-167398571D02*
X104441428Y-167398571D01*
X104870000Y-167398571D02*
X104870000Y-165898571D01*
X104727142Y-166112857D01*
X104584285Y-166255714D01*
X104441428Y-166327142D01*
X109878571Y-165898571D02*
X110021428Y-165898571D01*
X110164285Y-165970000D01*
X110235714Y-166041428D01*
X110307142Y-166184285D01*
X110378571Y-166470000D01*
X110378571Y-166827142D01*
X110307142Y-167112857D01*
X110235714Y-167255714D01*
X110164285Y-167327142D01*
X110021428Y-167398571D01*
X109878571Y-167398571D01*
X109735714Y-167327142D01*
X109664285Y-167255714D01*
X109592857Y-167112857D01*
X109521428Y-166827142D01*
X109521428Y-166470000D01*
X109592857Y-166184285D01*
X109664285Y-166041428D01*
X109735714Y-165970000D01*
X109878571Y-165898571D01*
X114958571Y-33183571D02*
X115101428Y-33183571D01*
X115244285Y-33255000D01*
X115315714Y-33326428D01*
X115387142Y-33469285D01*
X115458571Y-33755000D01*
X115458571Y-34112142D01*
X115387142Y-34397857D01*
X115315714Y-34540714D01*
X115244285Y-34612142D01*
X115101428Y-34683571D01*
X114958571Y-34683571D01*
X114815714Y-34612142D01*
X114744285Y-34540714D01*
X114672857Y-34397857D01*
X114601428Y-34112142D01*
X114601428Y-33755000D01*
X114672857Y-33469285D01*
X114744285Y-33326428D01*
X114815714Y-33255000D01*
X114958571Y-33183571D01*
X110378571Y-34683571D02*
X109521428Y-34683571D01*
X109950000Y-34683571D02*
X109950000Y-33183571D01*
X109807142Y-33397857D01*
X109664285Y-33540714D01*
X109521428Y-33612142D01*
X104441428Y-33326428D02*
X104512857Y-33255000D01*
X104655714Y-33183571D01*
X105012857Y-33183571D01*
X105155714Y-33255000D01*
X105227142Y-33326428D01*
X105298571Y-33469285D01*
X105298571Y-33612142D01*
X105227142Y-33826428D01*
X104370000Y-34683571D01*
X105298571Y-34683571D01*
X99290000Y-33183571D02*
X100218571Y-33183571D01*
X99718571Y-33755000D01*
X99932857Y-33755000D01*
X100075714Y-33826428D01*
X100147142Y-33897857D01*
X100218571Y-34040714D01*
X100218571Y-34397857D01*
X100147142Y-34540714D01*
X100075714Y-34612142D01*
X99932857Y-34683571D01*
X99504285Y-34683571D01*
X99361428Y-34612142D01*
X99290000Y-34540714D01*
X94995714Y-33683571D02*
X94995714Y-34683571D01*
X94638571Y-33112142D02*
X94281428Y-34183571D01*
X95210000Y-34183571D01*
X89987142Y-33183571D02*
X89272857Y-33183571D01*
X89201428Y-33897857D01*
X89272857Y-33826428D01*
X89415714Y-33755000D01*
X89772857Y-33755000D01*
X89915714Y-33826428D01*
X89987142Y-33897857D01*
X90058571Y-34040714D01*
X90058571Y-34397857D01*
X89987142Y-34540714D01*
X89915714Y-34612142D01*
X89772857Y-34683571D01*
X89415714Y-34683571D01*
X89272857Y-34612142D01*
X89201428Y-34540714D01*
X98330000Y-31715000D02*
X99044285Y-31715000D01*
X98187142Y-32143571D02*
X98687142Y-30643571D01*
X99187142Y-32143571D01*
X100330000Y-32143571D02*
X100330000Y-30643571D01*
X100330000Y-32072142D02*
X100187142Y-32143571D01*
X99901428Y-32143571D01*
X99758571Y-32072142D01*
X99687142Y-32000714D01*
X99615714Y-31857857D01*
X99615714Y-31429285D01*
X99687142Y-31286428D01*
X99758571Y-31215000D01*
X99901428Y-31143571D01*
X100187142Y-31143571D01*
X100330000Y-31215000D01*
X101044285Y-32143571D02*
X101044285Y-31143571D01*
X101044285Y-31429285D02*
X101115714Y-31286428D01*
X101187142Y-31215000D01*
X101330000Y-31143571D01*
X101472857Y-31143571D01*
X102544285Y-32072142D02*
X102401428Y-32143571D01*
X102115714Y-32143571D01*
X101972857Y-32072142D01*
X101901428Y-31929285D01*
X101901428Y-31357857D01*
X101972857Y-31215000D01*
X102115714Y-31143571D01*
X102401428Y-31143571D01*
X102544285Y-31215000D01*
X102615714Y-31357857D01*
X102615714Y-31500714D01*
X101901428Y-31643571D01*
X103187142Y-32072142D02*
X103330000Y-32143571D01*
X103615714Y-32143571D01*
X103758571Y-32072142D01*
X103830000Y-31929285D01*
X103830000Y-31857857D01*
X103758571Y-31715000D01*
X103615714Y-31643571D01*
X103401428Y-31643571D01*
X103258571Y-31572142D01*
X103187142Y-31429285D01*
X103187142Y-31357857D01*
X103258571Y-31215000D01*
X103401428Y-31143571D01*
X103615714Y-31143571D01*
X103758571Y-31215000D01*
X104401428Y-32072142D02*
X104544285Y-32143571D01*
X104830000Y-32143571D01*
X104972857Y-32072142D01*
X105044285Y-31929285D01*
X105044285Y-31857857D01*
X104972857Y-31715000D01*
X104830000Y-31643571D01*
X104615714Y-31643571D01*
X104472857Y-31572142D01*
X104401428Y-31429285D01*
X104401428Y-31357857D01*
X104472857Y-31215000D01*
X104615714Y-31143571D01*
X104830000Y-31143571D01*
X104972857Y-31215000D01*
X106258571Y-32072142D02*
X106115714Y-32143571D01*
X105830000Y-32143571D01*
X105687142Y-32072142D01*
X105615714Y-31929285D01*
X105615714Y-31357857D01*
X105687142Y-31215000D01*
X105830000Y-31143571D01*
X106115714Y-31143571D01*
X106258571Y-31215000D01*
X106330000Y-31357857D01*
X106330000Y-31500714D01*
X105615714Y-31643571D01*
X79331428Y-31357857D02*
X79545714Y-31429285D01*
X79617142Y-31500714D01*
X79688571Y-31643571D01*
X79688571Y-31857857D01*
X79617142Y-32000714D01*
X79545714Y-32072142D01*
X79402857Y-32143571D01*
X78831428Y-32143571D01*
X78831428Y-30643571D01*
X79331428Y-30643571D01*
X79474285Y-30715000D01*
X79545714Y-30786428D01*
X79617142Y-30929285D01*
X79617142Y-31072142D01*
X79545714Y-31215000D01*
X79474285Y-31286428D01*
X79331428Y-31357857D01*
X78831428Y-31357857D01*
X80902857Y-32072142D02*
X80760000Y-32143571D01*
X80474285Y-32143571D01*
X80331428Y-32072142D01*
X80260000Y-31929285D01*
X80260000Y-31357857D01*
X80331428Y-31215000D01*
X80474285Y-31143571D01*
X80760000Y-31143571D01*
X80902857Y-31215000D01*
X80974285Y-31357857D01*
X80974285Y-31500714D01*
X80260000Y-31643571D01*
X81402857Y-31143571D02*
X81974285Y-31143571D01*
X81617142Y-32143571D02*
X81617142Y-30857857D01*
X81688571Y-30715000D01*
X81831428Y-30643571D01*
X81974285Y-30643571D01*
X83045714Y-32072142D02*
X82902857Y-32143571D01*
X82617142Y-32143571D01*
X82474285Y-32072142D01*
X82402857Y-31929285D01*
X82402857Y-31357857D01*
X82474285Y-31215000D01*
X82617142Y-31143571D01*
X82902857Y-31143571D01*
X83045714Y-31215000D01*
X83117142Y-31357857D01*
X83117142Y-31500714D01*
X82402857Y-31643571D01*
X83760000Y-32143571D02*
X83760000Y-30643571D01*
X84402857Y-32143571D02*
X84402857Y-31357857D01*
X84331428Y-31215000D01*
X84188571Y-31143571D01*
X83974285Y-31143571D01*
X83831428Y-31215000D01*
X83760000Y-31286428D01*
X85331428Y-32143571D02*
X85188571Y-32072142D01*
X85117142Y-31929285D01*
X85117142Y-30643571D01*
X79898571Y-34683571D02*
X79041428Y-34683571D01*
X79470000Y-34683571D02*
X79470000Y-33183571D01*
X79327142Y-33397857D01*
X79184285Y-33540714D01*
X79041428Y-33612142D01*
X84478571Y-33183571D02*
X84621428Y-33183571D01*
X84764285Y-33255000D01*
X84835714Y-33326428D01*
X84907142Y-33469285D01*
X84978571Y-33755000D01*
X84978571Y-34112142D01*
X84907142Y-34397857D01*
X84835714Y-34540714D01*
X84764285Y-34612142D01*
X84621428Y-34683571D01*
X84478571Y-34683571D01*
X84335714Y-34612142D01*
X84264285Y-34540714D01*
X84192857Y-34397857D01*
X84121428Y-34112142D01*
X84121428Y-33755000D01*
X84192857Y-33469285D01*
X84264285Y-33326428D01*
X84335714Y-33255000D01*
X84478571Y-33183571D01*
D11*
X87090000Y-40355000D02*
X87090000Y-30830000D01*
D12*
X29046785Y-63528571D02*
X29332500Y-64528571D01*
X29618214Y-63814285D01*
X29903928Y-64528571D01*
X30189642Y-63528571D01*
X30761071Y-64528571D02*
X30761071Y-63528571D01*
X30761071Y-63814285D02*
X30832500Y-63671428D01*
X30903928Y-63600000D01*
X31046785Y-63528571D01*
X31189642Y-63528571D01*
X31689642Y-64528571D02*
X31689642Y-63528571D01*
X31689642Y-63028571D02*
X31618214Y-63100000D01*
X31689642Y-63171428D01*
X31761071Y-63100000D01*
X31689642Y-63028571D01*
X31689642Y-63171428D01*
X32189642Y-63528571D02*
X32761071Y-63528571D01*
X32403928Y-63028571D02*
X32403928Y-64314285D01*
X32475357Y-64457142D01*
X32618214Y-64528571D01*
X32761071Y-64528571D01*
X33832500Y-64457142D02*
X33689642Y-64528571D01*
X33403928Y-64528571D01*
X33261071Y-64457142D01*
X33189642Y-64314285D01*
X33189642Y-63742857D01*
X33261071Y-63600000D01*
X33403928Y-63528571D01*
X33689642Y-63528571D01*
X33832500Y-63600000D01*
X33903928Y-63742857D01*
X33903928Y-63885714D01*
X33189642Y-64028571D01*
X34546785Y-64528571D02*
X34546785Y-63028571D01*
X36118214Y-64528571D02*
X35618214Y-63814285D01*
X35261071Y-64528571D02*
X35261071Y-63028571D01*
X35832500Y-63028571D01*
X35975357Y-63100000D01*
X36046785Y-63171428D01*
X36118214Y-63314285D01*
X36118214Y-63528571D01*
X36046785Y-63671428D01*
X35975357Y-63742857D01*
X35832500Y-63814285D01*
X35261071Y-63814285D01*
X62209642Y-141383571D02*
X62209642Y-139883571D01*
X62566785Y-139883571D01*
X62781071Y-139955000D01*
X62923928Y-140097857D01*
X62995357Y-140240714D01*
X63066785Y-140526428D01*
X63066785Y-140740714D01*
X62995357Y-141026428D01*
X62923928Y-141169285D01*
X62781071Y-141312142D01*
X62566785Y-141383571D01*
X62209642Y-141383571D01*
X64352500Y-141383571D02*
X64352500Y-140597857D01*
X64281071Y-140455000D01*
X64138214Y-140383571D01*
X63852500Y-140383571D01*
X63709642Y-140455000D01*
X64352500Y-141312142D02*
X64209642Y-141383571D01*
X63852500Y-141383571D01*
X63709642Y-141312142D01*
X63638214Y-141169285D01*
X63638214Y-141026428D01*
X63709642Y-140883571D01*
X63852500Y-140812142D01*
X64209642Y-140812142D01*
X64352500Y-140740714D01*
X64852500Y-140383571D02*
X65423928Y-140383571D01*
X65066785Y-139883571D02*
X65066785Y-141169285D01*
X65138214Y-141312142D01*
X65281071Y-141383571D01*
X65423928Y-141383571D01*
X66495357Y-141312142D02*
X66352500Y-141383571D01*
X66066785Y-141383571D01*
X65923928Y-141312142D01*
X65852500Y-141169285D01*
X65852500Y-140597857D01*
X65923928Y-140455000D01*
X66066785Y-140383571D01*
X66352500Y-140383571D01*
X66495357Y-140455000D01*
X66566785Y-140597857D01*
X66566785Y-140740714D01*
X65852500Y-140883571D01*
X67209642Y-140383571D02*
X67209642Y-141383571D01*
X67209642Y-140526428D02*
X67281071Y-140455000D01*
X67423928Y-140383571D01*
X67638214Y-140383571D01*
X67781071Y-140455000D01*
X67852500Y-140597857D01*
X67852500Y-141383571D01*
X68566785Y-141383571D02*
X68566785Y-139883571D01*
X68566785Y-140455000D02*
X68709642Y-140383571D01*
X68995357Y-140383571D01*
X69138214Y-140455000D01*
X69209642Y-140526428D01*
X69281071Y-140669285D01*
X69281071Y-141097857D01*
X69209642Y-141240714D01*
X69138214Y-141312142D01*
X68995357Y-141383571D01*
X68709642Y-141383571D01*
X68566785Y-141312142D01*
X70566785Y-140383571D02*
X70566785Y-141383571D01*
X69923928Y-140383571D02*
X69923928Y-141169285D01*
X69995357Y-141312142D01*
X70138214Y-141383571D01*
X70352500Y-141383571D01*
X70495357Y-141312142D01*
X70566785Y-141240714D01*
X71209642Y-141312142D02*
X71352500Y-141383571D01*
X71638214Y-141383571D01*
X71781071Y-141312142D01*
X71852500Y-141169285D01*
X71852500Y-141097857D01*
X71781071Y-140955000D01*
X71638214Y-140883571D01*
X71423928Y-140883571D01*
X71281071Y-140812142D01*
X71209642Y-140669285D01*
X71209642Y-140597857D01*
X71281071Y-140455000D01*
X71423928Y-140383571D01*
X71638214Y-140383571D01*
X71781071Y-140455000D01*
X62209642Y-143883571D02*
X62209642Y-142883571D01*
X62209642Y-142383571D02*
X62138214Y-142455000D01*
X62209642Y-142526428D01*
X62281071Y-142455000D01*
X62209642Y-142383571D01*
X62209642Y-142526428D01*
X62852500Y-143812142D02*
X62995357Y-143883571D01*
X63281071Y-143883571D01*
X63423928Y-143812142D01*
X63495357Y-143669285D01*
X63495357Y-143597857D01*
X63423928Y-143455000D01*
X63281071Y-143383571D01*
X63066785Y-143383571D01*
X62923928Y-143312142D01*
X62852500Y-143169285D01*
X62852500Y-143097857D01*
X62923928Y-142955000D01*
X63066785Y-142883571D01*
X63281071Y-142883571D01*
X63423928Y-142955000D01*
X63923928Y-142883571D02*
X64495357Y-142883571D01*
X64138214Y-142383571D02*
X64138214Y-143669285D01*
X64209642Y-143812142D01*
X64352500Y-143883571D01*
X64495357Y-143883571D01*
X66423928Y-142383571D02*
X66566785Y-142383571D01*
X66709642Y-142455000D01*
X66781071Y-142526428D01*
X66852500Y-142669285D01*
X66923928Y-142955000D01*
X66923928Y-143312142D01*
X66852500Y-143597857D01*
X66781071Y-143740714D01*
X66709642Y-143812142D01*
X66566785Y-143883571D01*
X66423928Y-143883571D01*
X66281071Y-143812142D01*
X66209642Y-143740714D01*
X66138214Y-143597857D01*
X66066785Y-143312142D01*
X66066785Y-142955000D01*
X66138214Y-142669285D01*
X66209642Y-142526428D01*
X66281071Y-142455000D01*
X66423928Y-142383571D01*
D10*
X31320500Y-149269000D02*
X31796690Y-149269000D01*
X31558595Y-150662380D02*
X31558595Y-149995714D01*
X31558595Y-149662380D02*
X31510976Y-149710000D01*
X31558595Y-149757619D01*
X31606214Y-149710000D01*
X31558595Y-149662380D01*
X31558595Y-149757619D01*
X31796690Y-149269000D02*
X32701452Y-149269000D01*
X32034785Y-149995714D02*
X32034785Y-150662380D01*
X32034785Y-150090952D02*
X32082404Y-150043333D01*
X32177642Y-149995714D01*
X32320500Y-149995714D01*
X32415738Y-150043333D01*
X32463357Y-150138571D01*
X32463357Y-150662380D01*
X32701452Y-149269000D02*
X33558595Y-149269000D01*
X33368119Y-150614761D02*
X33272880Y-150662380D01*
X33082404Y-150662380D01*
X32987166Y-150614761D01*
X32939547Y-150567142D01*
X32891928Y-150471904D01*
X32891928Y-150186190D01*
X32939547Y-150090952D01*
X32987166Y-150043333D01*
X33082404Y-149995714D01*
X33272880Y-149995714D01*
X33368119Y-150043333D01*
X33558595Y-149269000D02*
X34558595Y-149269000D01*
X33796690Y-150662380D02*
X33796690Y-149662380D01*
X34177642Y-149662380D01*
X34272880Y-149710000D01*
X34320500Y-149757619D01*
X34368119Y-149852857D01*
X34368119Y-149995714D01*
X34320500Y-150090952D01*
X34272880Y-150138571D01*
X34177642Y-150186190D01*
X33796690Y-150186190D01*
X34558595Y-149269000D02*
X35558595Y-149269000D01*
X35368119Y-150567142D02*
X35320500Y-150614761D01*
X35177642Y-150662380D01*
X35082404Y-150662380D01*
X34939547Y-150614761D01*
X34844309Y-150519523D01*
X34796690Y-150424285D01*
X34749071Y-150233809D01*
X34749071Y-150090952D01*
X34796690Y-149900476D01*
X34844309Y-149805238D01*
X34939547Y-149710000D01*
X35082404Y-149662380D01*
X35177642Y-149662380D01*
X35320500Y-149710000D01*
X35368119Y-149757619D01*
X35558595Y-149269000D02*
X36368119Y-149269000D01*
X35701452Y-149995714D02*
X36225261Y-149995714D01*
X35701452Y-150662380D01*
X36225261Y-150662380D01*
X31320500Y-151809000D02*
X31796690Y-151809000D01*
X31558595Y-153202380D02*
X31558595Y-152535714D01*
X31558595Y-152202380D02*
X31510976Y-152250000D01*
X31558595Y-152297619D01*
X31606214Y-152250000D01*
X31558595Y-152202380D01*
X31558595Y-152297619D01*
X31796690Y-151809000D02*
X32701452Y-151809000D01*
X32034785Y-152535714D02*
X32034785Y-153202380D01*
X32034785Y-152630952D02*
X32082404Y-152583333D01*
X32177642Y-152535714D01*
X32320500Y-152535714D01*
X32415738Y-152583333D01*
X32463357Y-152678571D01*
X32463357Y-153202380D01*
X32701452Y-151809000D02*
X33558595Y-151809000D01*
X33368119Y-153154761D02*
X33272880Y-153202380D01*
X33082404Y-153202380D01*
X32987166Y-153154761D01*
X32939547Y-153107142D01*
X32891928Y-153011904D01*
X32891928Y-152726190D01*
X32939547Y-152630952D01*
X32987166Y-152583333D01*
X33082404Y-152535714D01*
X33272880Y-152535714D01*
X33368119Y-152583333D01*
X33558595Y-151809000D02*
X34558595Y-151809000D01*
X33796690Y-153202380D02*
X33796690Y-152202380D01*
X34177642Y-152202380D01*
X34272880Y-152250000D01*
X34320500Y-152297619D01*
X34368119Y-152392857D01*
X34368119Y-152535714D01*
X34320500Y-152630952D01*
X34272880Y-152678571D01*
X34177642Y-152726190D01*
X33796690Y-152726190D01*
X34558595Y-151809000D02*
X35558595Y-151809000D01*
X35368119Y-153107142D02*
X35320500Y-153154761D01*
X35177642Y-153202380D01*
X35082404Y-153202380D01*
X34939547Y-153154761D01*
X34844309Y-153059523D01*
X34796690Y-152964285D01*
X34749071Y-152773809D01*
X34749071Y-152630952D01*
X34796690Y-152440476D01*
X34844309Y-152345238D01*
X34939547Y-152250000D01*
X35082404Y-152202380D01*
X35177642Y-152202380D01*
X35320500Y-152250000D01*
X35368119Y-152297619D01*
X31320500Y-154349000D02*
X32368119Y-154349000D01*
X31463357Y-155075714D02*
X31653833Y-155742380D01*
X31844309Y-155266190D01*
X32034785Y-155742380D01*
X32225261Y-155075714D01*
X32368119Y-154349000D02*
X32987166Y-154349000D01*
X32606214Y-155742380D02*
X32606214Y-155075714D01*
X32606214Y-155266190D02*
X32653833Y-155170952D01*
X32701452Y-155123333D01*
X32796690Y-155075714D01*
X32891928Y-155075714D01*
X32987166Y-154349000D02*
X33463357Y-154349000D01*
X33225261Y-155742380D02*
X33225261Y-155075714D01*
X33225261Y-154742380D02*
X33177642Y-154790000D01*
X33225261Y-154837619D01*
X33272880Y-154790000D01*
X33225261Y-154742380D01*
X33225261Y-154837619D01*
X33463357Y-154349000D02*
X34034785Y-154349000D01*
X33558595Y-155075714D02*
X33939547Y-155075714D01*
X33701452Y-154742380D02*
X33701452Y-155599523D01*
X33749071Y-155694761D01*
X33844309Y-155742380D01*
X33939547Y-155742380D01*
X34034785Y-154349000D02*
X34891928Y-154349000D01*
X34653833Y-155694761D02*
X34558595Y-155742380D01*
X34368119Y-155742380D01*
X34272880Y-155694761D01*
X34225261Y-155599523D01*
X34225261Y-155218571D01*
X34272880Y-155123333D01*
X34368119Y-155075714D01*
X34558595Y-155075714D01*
X34653833Y-155123333D01*
X34701452Y-155218571D01*
X34701452Y-155313809D01*
X34225261Y-155409047D01*
X34891928Y-154349000D02*
X35368119Y-154349000D01*
X35130023Y-155742380D02*
X35130023Y-154742380D01*
X35368119Y-154349000D02*
X36368119Y-154349000D01*
X36177642Y-155742380D02*
X35844309Y-155266190D01*
X35606214Y-155742380D02*
X35606214Y-154742380D01*
X35987166Y-154742380D01*
X36082404Y-154790000D01*
X36130023Y-154837619D01*
X36177642Y-154932857D01*
X36177642Y-155075714D01*
X36130023Y-155170952D01*
X36082404Y-155218571D01*
X35987166Y-155266190D01*
X35606214Y-155266190D01*
X31320500Y-156889000D02*
X31939547Y-156889000D01*
X31558595Y-158282380D02*
X31558595Y-157615714D01*
X31558595Y-157806190D02*
X31606214Y-157710952D01*
X31653833Y-157663333D01*
X31749071Y-157615714D01*
X31844309Y-157615714D01*
X31939547Y-156889000D02*
X32796690Y-156889000D01*
X32558595Y-158234761D02*
X32463357Y-158282380D01*
X32272880Y-158282380D01*
X32177642Y-158234761D01*
X32130023Y-158139523D01*
X32130023Y-157758571D01*
X32177642Y-157663333D01*
X32272880Y-157615714D01*
X32463357Y-157615714D01*
X32558595Y-157663333D01*
X32606214Y-157758571D01*
X32606214Y-157853809D01*
X32130023Y-157949047D01*
X32796690Y-156889000D02*
X33701452Y-156889000D01*
X33463357Y-158282380D02*
X33463357Y-157758571D01*
X33415738Y-157663333D01*
X33320500Y-157615714D01*
X33130023Y-157615714D01*
X33034785Y-157663333D01*
X33463357Y-158234761D02*
X33368119Y-158282380D01*
X33130023Y-158282380D01*
X33034785Y-158234761D01*
X32987166Y-158139523D01*
X32987166Y-158044285D01*
X33034785Y-157949047D01*
X33130023Y-157901428D01*
X33368119Y-157901428D01*
X33463357Y-157853809D01*
X33701452Y-156889000D02*
X34606214Y-156889000D01*
X34368119Y-158282380D02*
X34368119Y-157282380D01*
X34368119Y-158234761D02*
X34272880Y-158282380D01*
X34082404Y-158282380D01*
X33987166Y-158234761D01*
X33939547Y-158187142D01*
X33891928Y-158091904D01*
X33891928Y-157806190D01*
X33939547Y-157710952D01*
X33987166Y-157663333D01*
X34082404Y-157615714D01*
X34272880Y-157615714D01*
X34368119Y-157663333D01*
X34606214Y-156889000D02*
X35082404Y-156889000D01*
X34844309Y-158282380D02*
X34844309Y-157282380D01*
X35082404Y-156889000D02*
X36082404Y-156889000D01*
X35891928Y-158282380D02*
X35558595Y-157806190D01*
X35320500Y-158282380D02*
X35320500Y-157282380D01*
X35701452Y-157282380D01*
X35796690Y-157330000D01*
X35844309Y-157377619D01*
X35891928Y-157472857D01*
X35891928Y-157615714D01*
X35844309Y-157710952D01*
X35796690Y-157758571D01*
X35701452Y-157806190D01*
X35320500Y-157806190D01*
X31320500Y-165779000D02*
X32225261Y-165779000D01*
X31987166Y-166505714D02*
X31987166Y-167172380D01*
X31558595Y-166505714D02*
X31558595Y-167029523D01*
X31606214Y-167124761D01*
X31701452Y-167172380D01*
X31844309Y-167172380D01*
X31939547Y-167124761D01*
X31987166Y-167077142D01*
X32225261Y-165779000D02*
X33130023Y-165779000D01*
X32463357Y-166505714D02*
X32463357Y-167505714D01*
X32463357Y-166553333D02*
X32558595Y-166505714D01*
X32749071Y-166505714D01*
X32844309Y-166553333D01*
X32891928Y-166600952D01*
X32939547Y-166696190D01*
X32939547Y-166981904D01*
X32891928Y-167077142D01*
X32844309Y-167124761D01*
X32749071Y-167172380D01*
X32558595Y-167172380D01*
X32463357Y-167124761D01*
X33130023Y-165779000D02*
X34130023Y-165779000D01*
X33368119Y-167172380D02*
X33368119Y-166172380D01*
X33749071Y-166172380D01*
X33844309Y-166220000D01*
X33891928Y-166267619D01*
X33939547Y-166362857D01*
X33939547Y-166505714D01*
X33891928Y-166600952D01*
X33844309Y-166648571D01*
X33749071Y-166696190D01*
X33368119Y-166696190D01*
X34130023Y-165779000D02*
X35130023Y-165779000D01*
X34939547Y-167077142D02*
X34891928Y-167124761D01*
X34749071Y-167172380D01*
X34653833Y-167172380D01*
X34510976Y-167124761D01*
X34415738Y-167029523D01*
X34368119Y-166934285D01*
X34320500Y-166743809D01*
X34320500Y-166600952D01*
X34368119Y-166410476D01*
X34415738Y-166315238D01*
X34510976Y-166220000D01*
X34653833Y-166172380D01*
X34749071Y-166172380D01*
X34891928Y-166220000D01*
X34939547Y-166267619D01*
D12*
X30968571Y-35525000D02*
X31682857Y-35525000D01*
X30825714Y-35953571D02*
X31325714Y-34453571D01*
X31825714Y-35953571D01*
X32968571Y-35953571D02*
X32968571Y-34453571D01*
X32968571Y-35882142D02*
X32825714Y-35953571D01*
X32540000Y-35953571D01*
X32397142Y-35882142D01*
X32325714Y-35810714D01*
X32254285Y-35667857D01*
X32254285Y-35239285D01*
X32325714Y-35096428D01*
X32397142Y-35025000D01*
X32540000Y-34953571D01*
X32825714Y-34953571D01*
X32968571Y-35025000D01*
X33682857Y-35953571D02*
X33682857Y-34953571D01*
X33682857Y-35239285D02*
X33754285Y-35096428D01*
X33825714Y-35025000D01*
X33968571Y-34953571D01*
X34111428Y-34953571D01*
X35182857Y-35882142D02*
X35040000Y-35953571D01*
X34754285Y-35953571D01*
X34611428Y-35882142D01*
X34540000Y-35739285D01*
X34540000Y-35167857D01*
X34611428Y-35025000D01*
X34754285Y-34953571D01*
X35040000Y-34953571D01*
X35182857Y-35025000D01*
X35254285Y-35167857D01*
X35254285Y-35310714D01*
X34540000Y-35453571D01*
X35825714Y-35882142D02*
X35968571Y-35953571D01*
X36254285Y-35953571D01*
X36397142Y-35882142D01*
X36468571Y-35739285D01*
X36468571Y-35667857D01*
X36397142Y-35525000D01*
X36254285Y-35453571D01*
X36040000Y-35453571D01*
X35897142Y-35382142D01*
X35825714Y-35239285D01*
X35825714Y-35167857D01*
X35897142Y-35025000D01*
X36040000Y-34953571D01*
X36254285Y-34953571D01*
X36397142Y-35025000D01*
X37040000Y-35882142D02*
X37182857Y-35953571D01*
X37468571Y-35953571D01*
X37611428Y-35882142D01*
X37682857Y-35739285D01*
X37682857Y-35667857D01*
X37611428Y-35525000D01*
X37468571Y-35453571D01*
X37254285Y-35453571D01*
X37111428Y-35382142D01*
X37040000Y-35239285D01*
X37040000Y-35167857D01*
X37111428Y-35025000D01*
X37254285Y-34953571D01*
X37468571Y-34953571D01*
X37611428Y-35025000D01*
X38325714Y-35953571D02*
X38325714Y-34453571D01*
X38325714Y-35025000D02*
X38468571Y-34953571D01*
X38754285Y-34953571D01*
X38897142Y-35025000D01*
X38968571Y-35096428D01*
X39040000Y-35239285D01*
X39040000Y-35667857D01*
X38968571Y-35810714D01*
X38897142Y-35882142D01*
X38754285Y-35953571D01*
X38468571Y-35953571D01*
X38325714Y-35882142D01*
X40325714Y-34953571D02*
X40325714Y-35953571D01*
X39682857Y-34953571D02*
X39682857Y-35739285D01*
X39754285Y-35882142D01*
X39897142Y-35953571D01*
X40111428Y-35953571D01*
X40254285Y-35882142D01*
X40325714Y-35810714D01*
X40968571Y-35882142D02*
X41111428Y-35953571D01*
X41397142Y-35953571D01*
X41540000Y-35882142D01*
X41611428Y-35739285D01*
X41611428Y-35667857D01*
X41540000Y-35525000D01*
X41397142Y-35453571D01*
X41182857Y-35453571D01*
X41040000Y-35382142D01*
X40968571Y-35239285D01*
X40968571Y-35167857D01*
X41040000Y-35025000D01*
X41182857Y-34953571D01*
X41397142Y-34953571D01*
X41540000Y-35025000D01*
X63254285Y-168033571D02*
X63254285Y-166533571D01*
X63611428Y-166533571D01*
X63825714Y-166605000D01*
X63968571Y-166747857D01*
X64040000Y-166890714D01*
X64111428Y-167176428D01*
X64111428Y-167390714D01*
X64040000Y-167676428D01*
X63968571Y-167819285D01*
X63825714Y-167962142D01*
X63611428Y-168033571D01*
X63254285Y-168033571D01*
X65397142Y-168033571D02*
X65397142Y-167247857D01*
X65325714Y-167105000D01*
X65182857Y-167033571D01*
X64897142Y-167033571D01*
X64754285Y-167105000D01*
X65397142Y-167962142D02*
X65254285Y-168033571D01*
X64897142Y-168033571D01*
X64754285Y-167962142D01*
X64682857Y-167819285D01*
X64682857Y-167676428D01*
X64754285Y-167533571D01*
X64897142Y-167462142D01*
X65254285Y-167462142D01*
X65397142Y-167390714D01*
X65897142Y-167033571D02*
X66468571Y-167033571D01*
X66111428Y-166533571D02*
X66111428Y-167819285D01*
X66182857Y-167962142D01*
X66325714Y-168033571D01*
X66468571Y-168033571D01*
X67540000Y-167962142D02*
X67397142Y-168033571D01*
X67111428Y-168033571D01*
X66968571Y-167962142D01*
X66897142Y-167819285D01*
X66897142Y-167247857D01*
X66968571Y-167105000D01*
X67111428Y-167033571D01*
X67397142Y-167033571D01*
X67540000Y-167105000D01*
X67611428Y-167247857D01*
X67611428Y-167390714D01*
X66897142Y-167533571D01*
X68254285Y-167033571D02*
X68254285Y-168033571D01*
X68254285Y-167176428D02*
X68325714Y-167105000D01*
X68468571Y-167033571D01*
X68682857Y-167033571D01*
X68825714Y-167105000D01*
X68897142Y-167247857D01*
X68897142Y-168033571D01*
X69611428Y-168033571D02*
X69611428Y-166533571D01*
X69611428Y-167105000D02*
X69754285Y-167033571D01*
X70040000Y-167033571D01*
X70182857Y-167105000D01*
X70254285Y-167176428D01*
X70325714Y-167319285D01*
X70325714Y-167747857D01*
X70254285Y-167890714D01*
X70182857Y-167962142D01*
X70040000Y-168033571D01*
X69754285Y-168033571D01*
X69611428Y-167962142D01*
X71611428Y-167033571D02*
X71611428Y-168033571D01*
X70968571Y-167033571D02*
X70968571Y-167819285D01*
X71040000Y-167962142D01*
X71182857Y-168033571D01*
X71397142Y-168033571D01*
X71540000Y-167962142D01*
X71611428Y-167890714D01*
X72254285Y-167962142D02*
X72397142Y-168033571D01*
X72682857Y-168033571D01*
X72825714Y-167962142D01*
X72897142Y-167819285D01*
X72897142Y-167747857D01*
X72825714Y-167605000D01*
X72682857Y-167533571D01*
X72468571Y-167533571D01*
X72325714Y-167462142D01*
X72254285Y-167319285D01*
X72254285Y-167247857D01*
X72325714Y-167105000D01*
X72468571Y-167033571D01*
X72682857Y-167033571D01*
X72825714Y-167105000D01*
X58790000Y-84697857D02*
X59004285Y-84769285D01*
X59075714Y-84840714D01*
X59147142Y-84983571D01*
X59147142Y-85197857D01*
X59075714Y-85340714D01*
X59004285Y-85412142D01*
X58861428Y-85483571D01*
X58290000Y-85483571D01*
X58290000Y-83983571D01*
X58790000Y-83983571D01*
X58932857Y-84055000D01*
X59004285Y-84126428D01*
X59075714Y-84269285D01*
X59075714Y-84412142D01*
X59004285Y-84555000D01*
X58932857Y-84626428D01*
X58790000Y-84697857D01*
X58290000Y-84697857D01*
X60361428Y-85412142D02*
X60218571Y-85483571D01*
X59932857Y-85483571D01*
X59790000Y-85412142D01*
X59718571Y-85269285D01*
X59718571Y-84697857D01*
X59790000Y-84555000D01*
X59932857Y-84483571D01*
X60218571Y-84483571D01*
X60361428Y-84555000D01*
X60432857Y-84697857D01*
X60432857Y-84840714D01*
X59718571Y-84983571D01*
X60861428Y-84483571D02*
X61432857Y-84483571D01*
X61075714Y-85483571D02*
X61075714Y-84197857D01*
X61147142Y-84055000D01*
X61290000Y-83983571D01*
X61432857Y-83983571D01*
X62504285Y-85412142D02*
X62361428Y-85483571D01*
X62075714Y-85483571D01*
X61932857Y-85412142D01*
X61861428Y-85269285D01*
X61861428Y-84697857D01*
X61932857Y-84555000D01*
X62075714Y-84483571D01*
X62361428Y-84483571D01*
X62504285Y-84555000D01*
X62575714Y-84697857D01*
X62575714Y-84840714D01*
X61861428Y-84983571D01*
X63218571Y-85483571D02*
X63218571Y-83983571D01*
X63861428Y-85483571D02*
X63861428Y-84697857D01*
X63790000Y-84555000D01*
X63647142Y-84483571D01*
X63432857Y-84483571D01*
X63290000Y-84555000D01*
X63218571Y-84626428D01*
X64790000Y-85483571D02*
X64647142Y-85412142D01*
X64575714Y-85269285D01*
X64575714Y-83983571D01*
X65290000Y-85412142D02*
X65432857Y-85483571D01*
X65718571Y-85483571D01*
X65861428Y-85412142D01*
X65932857Y-85269285D01*
X65932857Y-85197857D01*
X65861428Y-85055000D01*
X65718571Y-84983571D01*
X65504285Y-84983571D01*
X65361428Y-84912142D01*
X65290000Y-84769285D01*
X65290000Y-84697857D01*
X65361428Y-84555000D01*
X65504285Y-84483571D01*
X65718571Y-84483571D01*
X65861428Y-84555000D01*
X66575714Y-85483571D02*
X66575714Y-84483571D01*
X66575714Y-84769285D02*
X66647142Y-84626428D01*
X66718571Y-84555000D01*
X66861428Y-84483571D01*
X67004285Y-84483571D01*
X68075714Y-85412142D02*
X67932857Y-85483571D01*
X67647142Y-85483571D01*
X67504285Y-85412142D01*
X67432857Y-85269285D01*
X67432857Y-84697857D01*
X67504285Y-84555000D01*
X67647142Y-84483571D01*
X67932857Y-84483571D01*
X68075714Y-84555000D01*
X68147142Y-84697857D01*
X68147142Y-84840714D01*
X67432857Y-84983571D01*
X69432857Y-84483571D02*
X69432857Y-85697857D01*
X69361428Y-85840714D01*
X69290000Y-85912142D01*
X69147142Y-85983571D01*
X68932857Y-85983571D01*
X68790000Y-85912142D01*
X69432857Y-85412142D02*
X69290000Y-85483571D01*
X69004285Y-85483571D01*
X68861428Y-85412142D01*
X68790000Y-85340714D01*
X68718571Y-85197857D01*
X68718571Y-84769285D01*
X68790000Y-84626428D01*
X68861428Y-84555000D01*
X69004285Y-84483571D01*
X69290000Y-84483571D01*
X69432857Y-84555000D01*
X70147142Y-85483571D02*
X70147142Y-84483571D01*
X70147142Y-83983571D02*
X70075714Y-84055000D01*
X70147142Y-84126428D01*
X70218571Y-84055000D01*
X70147142Y-83983571D01*
X70147142Y-84126428D01*
X70790000Y-85412142D02*
X70932857Y-85483571D01*
X71218571Y-85483571D01*
X71361428Y-85412142D01*
X71432857Y-85269285D01*
X71432857Y-85197857D01*
X71361428Y-85055000D01*
X71218571Y-84983571D01*
X71004285Y-84983571D01*
X70861428Y-84912142D01*
X70790000Y-84769285D01*
X70790000Y-84697857D01*
X70861428Y-84555000D01*
X71004285Y-84483571D01*
X71218571Y-84483571D01*
X71361428Y-84555000D01*
X71861428Y-84483571D02*
X72432857Y-84483571D01*
X72075714Y-83983571D02*
X72075714Y-85269285D01*
X72147142Y-85412142D01*
X72290000Y-85483571D01*
X72432857Y-85483571D01*
X73504285Y-85412142D02*
X73361428Y-85483571D01*
X73075714Y-85483571D01*
X72932857Y-85412142D01*
X72861428Y-85269285D01*
X72861428Y-84697857D01*
X72932857Y-84555000D01*
X73075714Y-84483571D01*
X73361428Y-84483571D01*
X73504285Y-84555000D01*
X73575714Y-84697857D01*
X73575714Y-84840714D01*
X72861428Y-84983571D01*
X74218571Y-85483571D02*
X74218571Y-84483571D01*
X74218571Y-84769285D02*
X74290000Y-84626428D01*
X74361428Y-84555000D01*
X74504285Y-84483571D01*
X74647142Y-84483571D01*
X76290000Y-85483571D02*
X76290000Y-83983571D01*
X77861428Y-85483571D02*
X77361428Y-84769285D01*
X77004285Y-85483571D02*
X77004285Y-83983571D01*
X77575714Y-83983571D01*
X77718571Y-84055000D01*
X77790000Y-84126428D01*
X77861428Y-84269285D01*
X77861428Y-84483571D01*
X77790000Y-84626428D01*
X77718571Y-84697857D01*
X77575714Y-84769285D01*
X77004285Y-84769285D01*
X89590714Y-105168571D02*
X89590714Y-104168571D01*
X89590714Y-104454285D02*
X89662142Y-104311428D01*
X89733571Y-104240000D01*
X89876428Y-104168571D01*
X90019285Y-104168571D01*
X91090714Y-105097142D02*
X90947857Y-105168571D01*
X90662142Y-105168571D01*
X90519285Y-105097142D01*
X90447857Y-104954285D01*
X90447857Y-104382857D01*
X90519285Y-104240000D01*
X90662142Y-104168571D01*
X90947857Y-104168571D01*
X91090714Y-104240000D01*
X91162142Y-104382857D01*
X91162142Y-104525714D01*
X90447857Y-104668571D01*
X92447857Y-105168571D02*
X92447857Y-104382857D01*
X92376428Y-104240000D01*
X92233571Y-104168571D01*
X91947857Y-104168571D01*
X91805000Y-104240000D01*
X92447857Y-105097142D02*
X92305000Y-105168571D01*
X91947857Y-105168571D01*
X91805000Y-105097142D01*
X91733571Y-104954285D01*
X91733571Y-104811428D01*
X91805000Y-104668571D01*
X91947857Y-104597142D01*
X92305000Y-104597142D01*
X92447857Y-104525714D01*
X93805000Y-105168571D02*
X93805000Y-103668571D01*
X93805000Y-105097142D02*
X93662142Y-105168571D01*
X93376428Y-105168571D01*
X93233571Y-105097142D01*
X93162142Y-105025714D01*
X93090714Y-104882857D01*
X93090714Y-104454285D01*
X93162142Y-104311428D01*
X93233571Y-104240000D01*
X93376428Y-104168571D01*
X93662142Y-104168571D01*
X93805000Y-104240000D01*
X94519285Y-105168571D02*
X94519285Y-103668571D01*
X96090714Y-105168571D02*
X95590714Y-104454285D01*
X95233571Y-105168571D02*
X95233571Y-103668571D01*
X95805000Y-103668571D01*
X95947857Y-103740000D01*
X96019285Y-103811428D01*
X96090714Y-103954285D01*
X96090714Y-104168571D01*
X96019285Y-104311428D01*
X95947857Y-104382857D01*
X95805000Y-104454285D01*
X95233571Y-104454285D01*
D13*
X81375000Y-102585000D02*
X82645000Y-103855000D01*
X80105000Y-103855000D02*
X81375000Y-102585000D01*
X81375000Y-102585000D02*
X81375000Y-107030000D01*
X25495000Y-61310000D02*
X24225000Y-60040000D01*
X25495000Y-58770000D02*
X24225000Y-60040000D01*
X24225000Y-60040000D02*
X28670000Y-60040000D01*
D12*
X32543571Y-22047142D02*
X33686428Y-22047142D01*
X33115000Y-22618571D02*
X33115000Y-21475714D01*
X30003571Y-22047142D02*
X31146428Y-22047142D01*
D14*
X56109285Y-38870714D02*
X56537857Y-39013571D01*
X56680714Y-39156428D01*
X56823571Y-39442142D01*
X56823571Y-39870714D01*
X56680714Y-40156428D01*
X56537857Y-40299285D01*
X56252142Y-40442142D01*
X55109285Y-40442142D01*
X55109285Y-37442142D01*
X56109285Y-37442142D01*
X56395000Y-37585000D01*
X56537857Y-37727857D01*
X56680714Y-38013571D01*
X56680714Y-38299285D01*
X56537857Y-38585000D01*
X56395000Y-38727857D01*
X56109285Y-38870714D01*
X55109285Y-38870714D01*
X59252142Y-40299285D02*
X58966428Y-40442142D01*
X58395000Y-40442142D01*
X58109285Y-40299285D01*
X57966428Y-40013571D01*
X57966428Y-38870714D01*
X58109285Y-38585000D01*
X58395000Y-38442142D01*
X58966428Y-38442142D01*
X59252142Y-38585000D01*
X59395000Y-38870714D01*
X59395000Y-39156428D01*
X57966428Y-39442142D01*
X60252142Y-38442142D02*
X61395000Y-38442142D01*
X60680714Y-40442142D02*
X60680714Y-37870714D01*
X60823571Y-37585000D01*
X61109285Y-37442142D01*
X61395000Y-37442142D01*
X63537857Y-40299285D02*
X63252142Y-40442142D01*
X62680714Y-40442142D01*
X62395000Y-40299285D01*
X62252142Y-40013571D01*
X62252142Y-38870714D01*
X62395000Y-38585000D01*
X62680714Y-38442142D01*
X63252142Y-38442142D01*
X63537857Y-38585000D01*
X63680714Y-38870714D01*
X63680714Y-39156428D01*
X62252142Y-39442142D01*
X64966428Y-40442142D02*
X64966428Y-37442142D01*
X66252142Y-40442142D02*
X66252142Y-38870714D01*
X66109285Y-38585000D01*
X65823571Y-38442142D01*
X65395000Y-38442142D01*
X65109285Y-38585000D01*
X64966428Y-38727857D01*
X68109285Y-40442142D02*
X67823571Y-40299285D01*
X67680714Y-40013571D01*
X67680714Y-37442142D01*
X70395000Y-40299285D02*
X70109285Y-40442142D01*
X69537857Y-40442142D01*
X69252142Y-40299285D01*
X69109285Y-40013571D01*
X69109285Y-38870714D01*
X69252142Y-38585000D01*
X69537857Y-38442142D01*
X70109285Y-38442142D01*
X70395000Y-38585000D01*
X70537857Y-38870714D01*
X70537857Y-39156428D01*
X69109285Y-39442142D01*
D11*
X111340000Y-142760000D02*
X111340000Y-132260000D01*
X85700000Y-142760000D02*
X111340000Y-142760000D01*
X85700000Y-132260000D02*
X85700000Y-142760000D01*
X111340000Y-132260000D02*
X85700000Y-132260000D01*
X111280000Y-139760000D02*
X111280000Y-138510000D01*
X85760000Y-139760000D02*
X111280000Y-139760000D01*
X85760000Y-135260000D02*
X85760000Y-139760000D01*
X111280000Y-135260000D02*
X85760000Y-135260000D01*
X111280000Y-136510000D02*
X111280000Y-135260000D01*
X111280000Y-138510000D02*
G75*
G02*
X111280000Y-136510000I0J1000000D01*
G01*
X56490000Y-87175000D02*
X56490000Y-97675000D01*
X82130000Y-87175000D02*
X56490000Y-87175000D01*
X82130000Y-97675000D02*
X82130000Y-87175000D01*
X56490000Y-97675000D02*
X82130000Y-97675000D01*
X56550000Y-90175000D02*
X56550000Y-91425000D01*
X82070000Y-90175000D02*
X56550000Y-90175000D01*
X82070000Y-94675000D02*
X82070000Y-90175000D01*
X56550000Y-94675000D02*
X82070000Y-94675000D01*
X56550000Y-93425000D02*
X56550000Y-94675000D01*
X56550000Y-91425000D02*
G75*
G02*
X56550000Y-93425000I0J-1000000D01*
G01*
X85700000Y-60505000D02*
X85700000Y-71005000D01*
X111340000Y-60505000D02*
X85700000Y-60505000D01*
X111340000Y-71005000D02*
X111340000Y-60505000D01*
X85700000Y-71005000D02*
X111340000Y-71005000D01*
X85760000Y-63505000D02*
X85760000Y-64755000D01*
X111280000Y-63505000D02*
X85760000Y-63505000D01*
X111280000Y-68005000D02*
X111280000Y-63505000D01*
X85760000Y-68005000D02*
X111280000Y-68005000D01*
X85760000Y-66755000D02*
X85760000Y-68005000D01*
X85760000Y-64755000D02*
G75*
G02*
X85760000Y-66755000I0J-1000000D01*
G01*
X53950000Y-60505000D02*
X53950000Y-71005000D01*
X79590000Y-60505000D02*
X53950000Y-60505000D01*
X79590000Y-71005000D02*
X79590000Y-60505000D01*
X53950000Y-71005000D02*
X79590000Y-71005000D01*
X54010000Y-63505000D02*
X54010000Y-64755000D01*
X79530000Y-63505000D02*
X54010000Y-63505000D01*
X79530000Y-68005000D02*
X79530000Y-63505000D01*
X54010000Y-68005000D02*
X79530000Y-68005000D01*
X54010000Y-66755000D02*
X54010000Y-68005000D01*
X54010000Y-64755000D02*
G75*
G02*
X54010000Y-66755000I0J-1000000D01*
G01*
X24370000Y-159210000D02*
X30390000Y-159210000D01*
X30390000Y-159210000D02*
X30390000Y-148830000D01*
X30390000Y-148830000D02*
X24370000Y-148830000D01*
X24370000Y-148830000D02*
X24370000Y-159210000D01*
X25400000Y-159500000D02*
X29400000Y-159500000D01*
X30390000Y-157830000D02*
X29390000Y-157830000D01*
X29390000Y-157830000D02*
X29390000Y-150210000D01*
X29390000Y-150210000D02*
X30390000Y-150210000D01*
X29390000Y-157830000D02*
X28860000Y-157580000D01*
X28860000Y-157580000D02*
X28860000Y-150460000D01*
X28860000Y-150460000D02*
X29390000Y-150210000D01*
X30390000Y-157580000D02*
X29390000Y-157580000D01*
X30390000Y-150460000D02*
X29390000Y-150460000D01*
X24370000Y-158630000D02*
X24970000Y-158630000D01*
X24970000Y-158630000D02*
X24970000Y-157030000D01*
X24970000Y-157030000D02*
X24370000Y-157030000D01*
X24370000Y-156090000D02*
X24970000Y-156090000D01*
X24970000Y-156090000D02*
X24970000Y-154490000D01*
X24970000Y-154490000D02*
X24370000Y-154490000D01*
X24370000Y-153550000D02*
X24970000Y-153550000D01*
X24970000Y-153550000D02*
X24970000Y-151950000D01*
X24970000Y-151950000D02*
X24370000Y-151950000D01*
X24370000Y-151010000D02*
X24970000Y-151010000D01*
X24970000Y-151010000D02*
X24970000Y-149410000D01*
X24970000Y-149410000D02*
X24370000Y-149410000D01*
X51495000Y-24915000D02*
X51495000Y-27855000D01*
X51735000Y-24915000D02*
X51735000Y-27855000D01*
X51615000Y-24915000D02*
X51615000Y-27855000D01*
X57375000Y-26385000D02*
X56155000Y-26385000D01*
X49495000Y-26385000D02*
X50715000Y-26385000D01*
X56155000Y-24915000D02*
X50715000Y-24915000D01*
X56155000Y-27855000D02*
X56155000Y-24915000D01*
X50715000Y-27855000D02*
X56155000Y-27855000D01*
X50715000Y-24915000D02*
X50715000Y-27855000D01*
X109950000Y-149345000D02*
X109950000Y-150115000D01*
X109950000Y-157425000D02*
X109950000Y-156655000D01*
X108580000Y-150115000D02*
X108580000Y-156655000D01*
X111320000Y-150115000D02*
X108580000Y-150115000D01*
X111320000Y-156655000D02*
X111320000Y-150115000D01*
X108580000Y-156655000D02*
X111320000Y-156655000D01*
X84610000Y-169200000D02*
X84610000Y-170530000D01*
X83280000Y-169200000D02*
X84610000Y-169200000D01*
X84610000Y-171800000D02*
X84610000Y-174400000D01*
X82010000Y-171800000D02*
X84610000Y-171800000D01*
X82010000Y-169200000D02*
X82010000Y-171800000D01*
X84610000Y-174400000D02*
X59090000Y-174400000D01*
X82010000Y-169200000D02*
X59090000Y-169200000D01*
X59090000Y-169200000D02*
X59090000Y-174400000D01*
X90780000Y-87175000D02*
X90780000Y-97675000D01*
X111340000Y-87175000D02*
X90780000Y-87175000D01*
X111340000Y-97675000D02*
X111340000Y-87175000D01*
X90780000Y-97675000D02*
X111340000Y-97675000D01*
X90840000Y-90175000D02*
X90840000Y-91425000D01*
X111280000Y-90175000D02*
X90840000Y-90175000D01*
X111280000Y-94675000D02*
X111280000Y-90175000D01*
X90840000Y-94675000D02*
X111280000Y-94675000D01*
X90840000Y-93425000D02*
X90840000Y-94675000D01*
X90840000Y-91425000D02*
G75*
G02*
X90840000Y-93425000I0J-1000000D01*
G01*
X40270000Y-75160000D02*
X29770000Y-75160000D01*
X40270000Y-93180000D02*
X40270000Y-75160000D01*
X29770000Y-93180000D02*
X40270000Y-93180000D01*
X29770000Y-75160000D02*
X29770000Y-93180000D01*
X37270000Y-75220000D02*
X36020000Y-75220000D01*
X37270000Y-93120000D02*
X37270000Y-75220000D01*
X32770000Y-93120000D02*
X37270000Y-93120000D01*
X32770000Y-75220000D02*
X32770000Y-93120000D01*
X34020000Y-75220000D02*
X32770000Y-75220000D01*
X36020000Y-75220000D02*
G75*
G02*
X34020000Y-75220000I-1000000J0D01*
G01*
X108680000Y-109065000D02*
X108680000Y-106265000D01*
X98350000Y-109065000D02*
X111390000Y-109065000D01*
X98350000Y-106265000D02*
X98350000Y-109065000D01*
X111390000Y-106265000D02*
X98350000Y-106265000D01*
X111390000Y-109065000D02*
X111390000Y-106265000D01*
X115030000Y-42665000D02*
X115030000Y-43435000D01*
X115030000Y-50745000D02*
X115030000Y-49975000D01*
X113660000Y-43435000D02*
X113660000Y-49975000D01*
X116400000Y-43435000D02*
X113660000Y-43435000D01*
X116400000Y-49975000D02*
X116400000Y-43435000D01*
X113660000Y-49975000D02*
X116400000Y-49975000D01*
X104870000Y-149345000D02*
X104870000Y-150115000D01*
X104870000Y-157425000D02*
X104870000Y-156655000D01*
X103500000Y-150115000D02*
X103500000Y-156655000D01*
X106240000Y-150115000D02*
X103500000Y-150115000D01*
X106240000Y-156655000D02*
X106240000Y-150115000D01*
X103500000Y-156655000D02*
X106240000Y-156655000D01*
X109950000Y-42665000D02*
X109950000Y-43435000D01*
X109950000Y-50745000D02*
X109950000Y-49975000D01*
X108580000Y-43435000D02*
X108580000Y-49975000D01*
X111320000Y-43435000D02*
X108580000Y-43435000D01*
X111320000Y-49975000D02*
X111320000Y-43435000D01*
X108580000Y-49975000D02*
X111320000Y-49975000D01*
X104870000Y-42665000D02*
X104870000Y-43435000D01*
X104870000Y-50745000D02*
X104870000Y-49975000D01*
X103500000Y-43435000D02*
X103500000Y-49975000D01*
X106240000Y-43435000D02*
X103500000Y-43435000D01*
X106240000Y-49975000D02*
X106240000Y-43435000D01*
X103500000Y-49975000D02*
X106240000Y-49975000D01*
X99790000Y-42665000D02*
X99790000Y-43435000D01*
X99790000Y-50745000D02*
X99790000Y-49975000D01*
X98420000Y-43435000D02*
X98420000Y-49975000D01*
X101160000Y-43435000D02*
X98420000Y-43435000D01*
X101160000Y-49975000D02*
X101160000Y-43435000D01*
X98420000Y-49975000D02*
X101160000Y-49975000D01*
X94710000Y-42665000D02*
X94710000Y-43435000D01*
X94710000Y-50745000D02*
X94710000Y-49975000D01*
X93340000Y-43435000D02*
X93340000Y-49975000D01*
X96080000Y-43435000D02*
X93340000Y-43435000D01*
X96080000Y-49975000D02*
X96080000Y-43435000D01*
X93340000Y-49975000D02*
X96080000Y-49975000D01*
X89630000Y-42665000D02*
X89630000Y-43435000D01*
X89630000Y-50745000D02*
X89630000Y-49975000D01*
X88260000Y-43435000D02*
X88260000Y-49975000D01*
X91000000Y-43435000D02*
X88260000Y-43435000D01*
X91000000Y-49975000D02*
X91000000Y-43435000D01*
X88260000Y-49975000D02*
X91000000Y-49975000D01*
X99790000Y-149345000D02*
X99790000Y-150115000D01*
X99790000Y-157425000D02*
X99790000Y-156655000D01*
X98420000Y-150115000D02*
X98420000Y-156655000D01*
X101160000Y-150115000D02*
X98420000Y-150115000D01*
X101160000Y-156655000D02*
X101160000Y-150115000D01*
X98420000Y-156655000D02*
X101160000Y-156655000D01*
X84550000Y-42665000D02*
X84550000Y-43435000D01*
X84550000Y-50745000D02*
X84550000Y-49975000D01*
X83180000Y-43435000D02*
X83180000Y-49975000D01*
X85920000Y-43435000D02*
X83180000Y-43435000D01*
X85920000Y-49975000D02*
X85920000Y-43435000D01*
X83180000Y-49975000D02*
X85920000Y-49975000D01*
X79470000Y-42665000D02*
X79470000Y-43435000D01*
X79470000Y-50745000D02*
X79470000Y-49975000D01*
X78100000Y-43435000D02*
X78100000Y-49975000D01*
X80840000Y-43435000D02*
X78100000Y-43435000D01*
X80840000Y-49975000D02*
X80840000Y-43435000D01*
X78100000Y-49975000D02*
X80840000Y-49975000D01*
X94710000Y-149345000D02*
X94710000Y-150115000D01*
X94710000Y-157425000D02*
X94710000Y-156655000D01*
X93340000Y-150115000D02*
X93340000Y-156655000D01*
X96080000Y-150115000D02*
X93340000Y-150115000D01*
X96080000Y-156655000D02*
X96080000Y-150115000D01*
X93340000Y-156655000D02*
X96080000Y-156655000D01*
X85185000Y-118055000D02*
X85185000Y-117285000D01*
X85185000Y-109975000D02*
X85185000Y-110745000D01*
X86555000Y-117285000D02*
X86555000Y-110745000D01*
X83815000Y-117285000D02*
X86555000Y-117285000D01*
X83815000Y-110745000D02*
X83815000Y-117285000D01*
X86555000Y-110745000D02*
X83815000Y-110745000D01*
X45815000Y-175840000D02*
X45815000Y-175070000D01*
X45815000Y-167760000D02*
X45815000Y-168530000D01*
X47185000Y-175070000D02*
X47185000Y-168530000D01*
X44445000Y-175070000D02*
X47185000Y-175070000D01*
X44445000Y-168530000D02*
X44445000Y-175070000D01*
X47185000Y-168530000D02*
X44445000Y-168530000D01*
X26130000Y-76780000D02*
X26130000Y-76010000D01*
X26130000Y-68700000D02*
X26130000Y-69470000D01*
X27500000Y-76010000D02*
X27500000Y-69470000D01*
X24760000Y-76010000D02*
X27500000Y-76010000D01*
X24760000Y-69470000D02*
X24760000Y-76010000D01*
X27500000Y-69470000D02*
X24760000Y-69470000D01*
X39465000Y-175840000D02*
X39465000Y-175070000D01*
X39465000Y-167760000D02*
X39465000Y-168530000D01*
X40835000Y-175070000D02*
X40835000Y-168530000D01*
X38095000Y-175070000D02*
X40835000Y-175070000D01*
X38095000Y-168530000D02*
X38095000Y-175070000D01*
X40835000Y-168530000D02*
X38095000Y-168530000D01*
X48990000Y-175840000D02*
X48990000Y-175070000D01*
X48990000Y-167760000D02*
X48990000Y-168530000D01*
X50360000Y-175070000D02*
X50360000Y-168530000D01*
X47620000Y-175070000D02*
X50360000Y-175070000D01*
X47620000Y-168530000D02*
X47620000Y-175070000D01*
X50360000Y-168530000D02*
X47620000Y-168530000D01*
X59150000Y-154885000D02*
X59150000Y-154115000D01*
X59150000Y-146805000D02*
X59150000Y-147575000D01*
X60520000Y-154115000D02*
X60520000Y-147575000D01*
X57780000Y-154115000D02*
X60520000Y-154115000D01*
X57780000Y-147575000D02*
X57780000Y-154115000D01*
X60520000Y-147575000D02*
X57780000Y-147575000D01*
X42640000Y-167760000D02*
X42640000Y-168530000D01*
X42640000Y-175840000D02*
X42640000Y-175070000D01*
X41270000Y-168530000D02*
X41270000Y-175070000D01*
X44010000Y-168530000D02*
X41270000Y-168530000D01*
X44010000Y-175070000D02*
X44010000Y-168530000D01*
X41270000Y-175070000D02*
X44010000Y-175070000D01*
X33915000Y-23955000D02*
X33915000Y-23355000D01*
X32315000Y-23955000D02*
X33915000Y-23955000D01*
X32315000Y-23355000D02*
X32315000Y-23955000D01*
X31375000Y-23955000D02*
X31375000Y-23355000D01*
X29775000Y-23955000D02*
X31375000Y-23955000D01*
X29775000Y-23355000D02*
X29775000Y-23955000D01*
X32865000Y-29375000D02*
X32865000Y-28375000D01*
X30825000Y-29375000D02*
X30825000Y-28375000D01*
X32865000Y-27845000D02*
X33115000Y-28375000D01*
X30825000Y-27845000D02*
X32865000Y-27845000D01*
X30575000Y-28375000D02*
X30825000Y-27845000D01*
X33115000Y-28375000D02*
X33115000Y-29375000D01*
X30575000Y-28375000D02*
X33115000Y-28375000D01*
X30575000Y-29375000D02*
X30575000Y-28375000D01*
X28905000Y-24385000D02*
X28905000Y-28385000D01*
X34495000Y-23355000D02*
X29195000Y-23355000D01*
X34495000Y-29375000D02*
X34495000Y-23355000D01*
X29195000Y-29375000D02*
X34495000Y-29375000D01*
X29195000Y-23355000D02*
X29195000Y-29375000D01*
X91370000Y-176770000D02*
X91370000Y-177370000D01*
X92970000Y-176770000D02*
X91370000Y-176770000D01*
X92970000Y-177370000D02*
X92970000Y-176770000D01*
X93910000Y-176770000D02*
X93910000Y-177370000D01*
X95510000Y-176770000D02*
X93910000Y-176770000D01*
X95510000Y-177370000D02*
X95510000Y-176770000D01*
X96450000Y-176770000D02*
X96450000Y-177370000D01*
X98050000Y-176770000D02*
X96450000Y-176770000D01*
X98050000Y-177370000D02*
X98050000Y-176770000D01*
X98990000Y-176770000D02*
X98990000Y-177370000D01*
X100590000Y-176770000D02*
X98990000Y-176770000D01*
X100590000Y-177370000D02*
X100590000Y-176770000D01*
X92420000Y-171350000D02*
X92420000Y-172350000D01*
X99540000Y-171350000D02*
X99540000Y-172350000D01*
X92420000Y-172880000D02*
X92170000Y-172350000D01*
X99540000Y-172880000D02*
X92420000Y-172880000D01*
X99790000Y-172350000D02*
X99540000Y-172880000D01*
X92170000Y-172350000D02*
X92170000Y-171350000D01*
X99790000Y-172350000D02*
X92170000Y-172350000D01*
X99790000Y-171350000D02*
X99790000Y-172350000D01*
X101460000Y-176340000D02*
X101460000Y-172340000D01*
X90790000Y-177370000D02*
X101170000Y-177370000D01*
X90790000Y-171350000D02*
X90790000Y-177370000D01*
X101170000Y-171350000D02*
X90790000Y-171350000D01*
X101170000Y-177370000D02*
X101170000Y-171350000D01*
X24970000Y-162745000D02*
X24370000Y-162745000D01*
X24970000Y-164345000D02*
X24970000Y-162745000D01*
X24370000Y-164345000D02*
X24970000Y-164345000D01*
X24970000Y-165285000D02*
X24370000Y-165285000D01*
X24970000Y-166885000D02*
X24970000Y-165285000D01*
X24370000Y-166885000D02*
X24970000Y-166885000D01*
X30390000Y-163795000D02*
X29390000Y-163795000D01*
X30390000Y-165835000D02*
X29390000Y-165835000D01*
X28860000Y-163795000D02*
X29390000Y-163545000D01*
X28860000Y-165835000D02*
X28860000Y-163795000D01*
X29390000Y-166085000D02*
X28860000Y-165835000D01*
X29390000Y-163545000D02*
X30390000Y-163545000D01*
X29390000Y-166085000D02*
X29390000Y-163545000D01*
X30390000Y-166085000D02*
X29390000Y-166085000D01*
X25400000Y-167755000D02*
X29400000Y-167755000D01*
X24370000Y-162165000D02*
X24370000Y-167465000D01*
X30390000Y-162165000D02*
X24370000Y-162165000D01*
X30390000Y-167465000D02*
X30390000Y-162165000D01*
X24370000Y-167465000D02*
X30390000Y-167465000D01*
X24165000Y-57560000D02*
X29365000Y-57560000D01*
X24165000Y-34640000D02*
X24165000Y-57560000D01*
X29365000Y-32040000D02*
X29365000Y-57560000D01*
X24165000Y-34640000D02*
X26765000Y-34640000D01*
X26765000Y-34640000D02*
X26765000Y-32040000D01*
X26765000Y-32040000D02*
X29365000Y-32040000D01*
X24165000Y-33370000D02*
X24165000Y-32040000D01*
X24165000Y-32040000D02*
X25495000Y-32040000D01*
X108870000Y-161350000D02*
X108714000Y-161350000D01*
X111186000Y-161350000D02*
X111030000Y-161350000D01*
X108870163Y-163951130D02*
G75*
G02*
X108870000Y-161869039I1079837J1041130D01*
G01*
X111029837Y-163951130D02*
G75*
G03*
X111030000Y-161869039I-1079837J1041130D01*
G01*
X108871392Y-164582335D02*
G75*
G02*
X108714484Y-161350000I1078608J1672335D01*
G01*
X111028608Y-164582335D02*
G75*
G03*
X111185516Y-161350000I-1078608J1672335D01*
G01*
X116110000Y-39375000D02*
X116266000Y-39375000D01*
X113794000Y-39375000D02*
X113950000Y-39375000D01*
X116109837Y-36773870D02*
G75*
G02*
X116110000Y-38855961I-1079837J-1041130D01*
G01*
X113950163Y-36773870D02*
G75*
G03*
X113950000Y-38855961I1079837J-1041130D01*
G01*
X116108608Y-36142665D02*
G75*
G02*
X116265516Y-39375000I-1078608J-1672335D01*
G01*
X113951392Y-36142665D02*
G75*
G03*
X113794484Y-39375000I1078608J-1672335D01*
G01*
X103635000Y-161350000D02*
X103479000Y-161350000D01*
X105951000Y-161350000D02*
X105795000Y-161350000D01*
X103635163Y-163951130D02*
G75*
G02*
X103635000Y-161869039I1079837J1041130D01*
G01*
X105794837Y-163951130D02*
G75*
G03*
X105795000Y-161869039I-1079837J1041130D01*
G01*
X103636392Y-164582335D02*
G75*
G02*
X103479484Y-161350000I1078608J1672335D01*
G01*
X105793608Y-164582335D02*
G75*
G03*
X105950516Y-161350000I-1078608J1672335D01*
G01*
X111030000Y-39375000D02*
X111186000Y-39375000D01*
X108714000Y-39375000D02*
X108870000Y-39375000D01*
X111029837Y-36773870D02*
G75*
G02*
X111030000Y-38855961I-1079837J-1041130D01*
G01*
X108870163Y-36773870D02*
G75*
G03*
X108870000Y-38855961I1079837J-1041130D01*
G01*
X111028608Y-36142665D02*
G75*
G02*
X111185516Y-39375000I-1078608J-1672335D01*
G01*
X108871392Y-36142665D02*
G75*
G03*
X108714484Y-39375000I1078608J-1672335D01*
G01*
X105950000Y-39375000D02*
X106106000Y-39375000D01*
X103634000Y-39375000D02*
X103790000Y-39375000D01*
X105949837Y-36773870D02*
G75*
G02*
X105950000Y-38855961I-1079837J-1041130D01*
G01*
X103790163Y-36773870D02*
G75*
G03*
X103790000Y-38855961I1079837J-1041130D01*
G01*
X105948608Y-36142665D02*
G75*
G02*
X106105516Y-39375000I-1078608J-1672335D01*
G01*
X103791392Y-36142665D02*
G75*
G03*
X103634484Y-39375000I1078608J-1672335D01*
G01*
X100870000Y-39375000D02*
X101026000Y-39375000D01*
X98554000Y-39375000D02*
X98710000Y-39375000D01*
X100869837Y-36773870D02*
G75*
G02*
X100870000Y-38855961I-1079837J-1041130D01*
G01*
X98710163Y-36773870D02*
G75*
G03*
X98710000Y-38855961I1079837J-1041130D01*
G01*
X100868608Y-36142665D02*
G75*
G02*
X101025516Y-39375000I-1078608J-1672335D01*
G01*
X98711392Y-36142665D02*
G75*
G03*
X98554484Y-39375000I1078608J-1672335D01*
G01*
X95790000Y-39375000D02*
X95946000Y-39375000D01*
X93474000Y-39375000D02*
X93630000Y-39375000D01*
X95789837Y-36773870D02*
G75*
G02*
X95790000Y-38855961I-1079837J-1041130D01*
G01*
X93630163Y-36773870D02*
G75*
G03*
X93630000Y-38855961I1079837J-1041130D01*
G01*
X95788608Y-36142665D02*
G75*
G02*
X95945516Y-39375000I-1078608J-1672335D01*
G01*
X93631392Y-36142665D02*
G75*
G03*
X93474484Y-39375000I1078608J-1672335D01*
G01*
X90710000Y-39375000D02*
X90866000Y-39375000D01*
X88394000Y-39375000D02*
X88550000Y-39375000D01*
X90709837Y-36773870D02*
G75*
G02*
X90710000Y-38855961I-1079837J-1041130D01*
G01*
X88550163Y-36773870D02*
G75*
G03*
X88550000Y-38855961I1079837J-1041130D01*
G01*
X90708608Y-36142665D02*
G75*
G02*
X90865516Y-39375000I-1078608J-1672335D01*
G01*
X88551392Y-36142665D02*
G75*
G03*
X88394484Y-39375000I1078608J-1672335D01*
G01*
X98635000Y-161350000D02*
X98479000Y-161350000D01*
X100951000Y-161350000D02*
X100795000Y-161350000D01*
X98635163Y-163951130D02*
G75*
G02*
X98635000Y-161869039I1079837J1041130D01*
G01*
X100794837Y-163951130D02*
G75*
G03*
X100795000Y-161869039I-1079837J1041130D01*
G01*
X98636392Y-164582335D02*
G75*
G02*
X98479484Y-161350000I1078608J1672335D01*
G01*
X100793608Y-164582335D02*
G75*
G03*
X100950516Y-161350000I-1078608J1672335D01*
G01*
X85630000Y-39375000D02*
X85786000Y-39375000D01*
X83314000Y-39375000D02*
X83470000Y-39375000D01*
X85629837Y-36773870D02*
G75*
G02*
X85630000Y-38855961I-1079837J-1041130D01*
G01*
X83470163Y-36773870D02*
G75*
G03*
X83470000Y-38855961I1079837J-1041130D01*
G01*
X85628608Y-36142665D02*
G75*
G02*
X85785516Y-39375000I-1078608J-1672335D01*
G01*
X83471392Y-36142665D02*
G75*
G03*
X83314484Y-39375000I1078608J-1672335D01*
G01*
X80550000Y-39375000D02*
X80706000Y-39375000D01*
X78234000Y-39375000D02*
X78390000Y-39375000D01*
X80549837Y-36773870D02*
G75*
G02*
X80550000Y-38855961I-1079837J-1041130D01*
G01*
X78390163Y-36773870D02*
G75*
G03*
X78390000Y-38855961I1079837J-1041130D01*
G01*
X80548608Y-36142665D02*
G75*
G02*
X80705516Y-39375000I-1078608J-1672335D01*
G01*
X78391392Y-36142665D02*
G75*
G03*
X78234484Y-39375000I1078608J-1672335D01*
G01*
X93630000Y-161350000D02*
X93474000Y-161350000D01*
X95946000Y-161350000D02*
X95790000Y-161350000D01*
X93630163Y-163951130D02*
G75*
G02*
X93630000Y-161869039I1079837J1041130D01*
G01*
X95789837Y-163951130D02*
G75*
G03*
X95790000Y-161869039I-1079837J1041130D01*
G01*
X93631392Y-164582335D02*
G75*
G02*
X93474484Y-161350000I1078608J1672335D01*
G01*
X95788608Y-164582335D02*
G75*
G03*
X95945516Y-161350000I-1078608J1672335D01*
G01*
X88015000Y-103410000D02*
X88015000Y-103254000D01*
X88015000Y-105726000D02*
X88015000Y-105570000D01*
X85413870Y-103410163D02*
G75*
G02*
X87495961Y-103410000I1041130J-1079837D01*
G01*
X85413870Y-105569837D02*
G75*
G03*
X87495961Y-105570000I1041130J1079837D01*
G01*
X84782665Y-103411392D02*
G75*
G02*
X88015000Y-103254484I1672335J-1078608D01*
G01*
X84782665Y-105568608D02*
G75*
G03*
X88015000Y-105725516I1672335J1078608D01*
G01*
X27210000Y-65410000D02*
X27366000Y-65410000D01*
X24894000Y-65410000D02*
X25050000Y-65410000D01*
X27209837Y-62808870D02*
G75*
G02*
X27210000Y-64890961I-1079837J-1041130D01*
G01*
X25050163Y-62808870D02*
G75*
G03*
X25050000Y-64890961I1079837J-1041130D01*
G01*
X27208608Y-62177665D02*
G75*
G02*
X27365516Y-65410000I-1078608J-1672335D01*
G01*
X25051392Y-62177665D02*
G75*
G03*
X24894484Y-65410000I1078608J-1672335D01*
G01*
X60230000Y-143515000D02*
X60386000Y-143515000D01*
X57914000Y-143515000D02*
X58070000Y-143515000D01*
X60229837Y-140913870D02*
G75*
G02*
X60230000Y-142995961I-1079837J-1041130D01*
G01*
X58070163Y-140913870D02*
G75*
G03*
X58070000Y-142995961I1079837J-1041130D01*
G01*
X60228608Y-140282665D02*
G75*
G02*
X60385516Y-143515000I-1078608J-1672335D01*
G01*
X58071392Y-140282665D02*
G75*
G03*
X57914484Y-143515000I1078608J-1672335D01*
G01*
X49260000Y-141260000D02*
X48010000Y-141260000D01*
X48010000Y-141260000D02*
X48010000Y-159160000D01*
X48010000Y-159160000D02*
X52510000Y-159160000D01*
X52510000Y-159160000D02*
X52510000Y-141260000D01*
X52510000Y-141260000D02*
X51260000Y-141260000D01*
X45010000Y-141200000D02*
X45010000Y-159220000D01*
X45010000Y-159220000D02*
X55510000Y-159220000D01*
X55510000Y-159220000D02*
X55510000Y-141200000D01*
X55510000Y-141200000D02*
X45010000Y-141200000D01*
X51260000Y-141260000D02*
G75*
G02*
X49260000Y-141260000I-1000000J0D01*
G01*
X40100000Y-73475000D02*
X29860000Y-73475000D01*
X40100000Y-70735000D02*
X29860000Y-70735000D01*
X40100000Y-73475000D02*
X40100000Y-70735000D01*
X29860000Y-73475000D02*
X29860000Y-70735000D01*
X40270000Y-111990000D02*
X29770000Y-111990000D01*
X40270000Y-130010000D02*
X40270000Y-111990000D01*
X29770000Y-130010000D02*
X40270000Y-130010000D01*
X29770000Y-111990000D02*
X29770000Y-130010000D01*
X37270000Y-112050000D02*
X36020000Y-112050000D01*
X37270000Y-129950000D02*
X37270000Y-112050000D01*
X32770000Y-129950000D02*
X37270000Y-129950000D01*
X32770000Y-112050000D02*
X32770000Y-129950000D01*
X34020000Y-112050000D02*
X32770000Y-112050000D01*
X36020000Y-112050000D02*
G75*
G02*
X34020000Y-112050000I-1000000J0D01*
G01*
X55461740Y-111990000D02*
X44961740Y-111990000D01*
X55461740Y-130010000D02*
X55461740Y-111990000D01*
X44961740Y-130010000D02*
X55461740Y-130010000D01*
X44961740Y-111990000D02*
X44961740Y-130010000D01*
X52461740Y-112050000D02*
X51211740Y-112050000D01*
X52461740Y-129950000D02*
X52461740Y-112050000D01*
X47961740Y-129950000D02*
X52461740Y-129950000D01*
X47961740Y-112050000D02*
X47961740Y-129950000D01*
X49211740Y-112050000D02*
X47961740Y-112050000D01*
X51211740Y-112050000D02*
G75*
G02*
X49211740Y-112050000I-1000000J0D01*
G01*
X45490000Y-27635000D02*
G75*
G03*
X45490000Y-27635000I-4120000J0D01*
G01*
X45450000Y-27635000D02*
X37290000Y-27635000D01*
X45450000Y-27675000D02*
X37290000Y-27675000D01*
X45450000Y-27715000D02*
X37290000Y-27715000D01*
X45449000Y-27755000D02*
X37291000Y-27755000D01*
X45447000Y-27795000D02*
X37293000Y-27795000D01*
X45446000Y-27835000D02*
X37294000Y-27835000D01*
X45444000Y-27875000D02*
X42410000Y-27875000D01*
X40330000Y-27875000D02*
X37296000Y-27875000D01*
X45441000Y-27915000D02*
X42410000Y-27915000D01*
X40330000Y-27915000D02*
X37299000Y-27915000D01*
X45438000Y-27955000D02*
X42410000Y-27955000D01*
X40330000Y-27955000D02*
X37302000Y-27955000D01*
X45435000Y-27995000D02*
X42410000Y-27995000D01*
X40330000Y-27995000D02*
X37305000Y-27995000D01*
X45431000Y-28035000D02*
X42410000Y-28035000D01*
X40330000Y-28035000D02*
X37309000Y-28035000D01*
X45427000Y-28075000D02*
X42410000Y-28075000D01*
X40330000Y-28075000D02*
X37313000Y-28075000D01*
X45422000Y-28115000D02*
X42410000Y-28115000D01*
X40330000Y-28115000D02*
X37318000Y-28115000D01*
X45418000Y-28155000D02*
X42410000Y-28155000D01*
X40330000Y-28155000D02*
X37322000Y-28155000D01*
X45412000Y-28195000D02*
X42410000Y-28195000D01*
X40330000Y-28195000D02*
X37328000Y-28195000D01*
X45407000Y-28235000D02*
X42410000Y-28235000D01*
X40330000Y-28235000D02*
X37333000Y-28235000D01*
X45400000Y-28275000D02*
X42410000Y-28275000D01*
X40330000Y-28275000D02*
X37340000Y-28275000D01*
X45394000Y-28315000D02*
X42410000Y-28315000D01*
X40330000Y-28315000D02*
X37346000Y-28315000D01*
X45387000Y-28356000D02*
X42410000Y-28356000D01*
X40330000Y-28356000D02*
X37353000Y-28356000D01*
X45380000Y-28396000D02*
X42410000Y-28396000D01*
X40330000Y-28396000D02*
X37360000Y-28396000D01*
X45372000Y-28436000D02*
X42410000Y-28436000D01*
X40330000Y-28436000D02*
X37368000Y-28436000D01*
X45364000Y-28476000D02*
X42410000Y-28476000D01*
X40330000Y-28476000D02*
X37376000Y-28476000D01*
X45355000Y-28516000D02*
X42410000Y-28516000D01*
X40330000Y-28516000D02*
X37385000Y-28516000D01*
X45346000Y-28556000D02*
X42410000Y-28556000D01*
X40330000Y-28556000D02*
X37394000Y-28556000D01*
X45337000Y-28596000D02*
X42410000Y-28596000D01*
X40330000Y-28596000D02*
X37403000Y-28596000D01*
X45327000Y-28636000D02*
X42410000Y-28636000D01*
X40330000Y-28636000D02*
X37413000Y-28636000D01*
X45317000Y-28676000D02*
X42410000Y-28676000D01*
X40330000Y-28676000D02*
X37423000Y-28676000D01*
X45306000Y-28716000D02*
X42410000Y-28716000D01*
X40330000Y-28716000D02*
X37434000Y-28716000D01*
X45295000Y-28756000D02*
X42410000Y-28756000D01*
X40330000Y-28756000D02*
X37445000Y-28756000D01*
X45284000Y-28796000D02*
X42410000Y-28796000D01*
X40330000Y-28796000D02*
X37456000Y-28796000D01*
X45272000Y-28836000D02*
X42410000Y-28836000D01*
X40330000Y-28836000D02*
X37468000Y-28836000D01*
X45259000Y-28876000D02*
X42410000Y-28876000D01*
X40330000Y-28876000D02*
X37481000Y-28876000D01*
X45247000Y-28916000D02*
X42410000Y-28916000D01*
X40330000Y-28916000D02*
X37493000Y-28916000D01*
X45233000Y-28956000D02*
X42410000Y-28956000D01*
X40330000Y-28956000D02*
X37507000Y-28956000D01*
X45220000Y-28996000D02*
X42410000Y-28996000D01*
X40330000Y-28996000D02*
X37520000Y-28996000D01*
X45205000Y-29036000D02*
X42410000Y-29036000D01*
X40330000Y-29036000D02*
X37535000Y-29036000D01*
X45191000Y-29076000D02*
X42410000Y-29076000D01*
X40330000Y-29076000D02*
X37549000Y-29076000D01*
X45175000Y-29116000D02*
X42410000Y-29116000D01*
X40330000Y-29116000D02*
X37565000Y-29116000D01*
X45160000Y-29156000D02*
X42410000Y-29156000D01*
X40330000Y-29156000D02*
X37580000Y-29156000D01*
X45144000Y-29196000D02*
X42410000Y-29196000D01*
X40330000Y-29196000D02*
X37596000Y-29196000D01*
X45127000Y-29236000D02*
X42410000Y-29236000D01*
X40330000Y-29236000D02*
X37613000Y-29236000D01*
X45110000Y-29276000D02*
X42410000Y-29276000D01*
X40330000Y-29276000D02*
X37630000Y-29276000D01*
X45092000Y-29316000D02*
X42410000Y-29316000D01*
X40330000Y-29316000D02*
X37648000Y-29316000D01*
X45074000Y-29356000D02*
X42410000Y-29356000D01*
X40330000Y-29356000D02*
X37666000Y-29356000D01*
X45056000Y-29396000D02*
X42410000Y-29396000D01*
X40330000Y-29396000D02*
X37684000Y-29396000D01*
X45036000Y-29436000D02*
X42410000Y-29436000D01*
X40330000Y-29436000D02*
X37704000Y-29436000D01*
X45017000Y-29476000D02*
X42410000Y-29476000D01*
X40330000Y-29476000D02*
X37723000Y-29476000D01*
X44997000Y-29516000D02*
X42410000Y-29516000D01*
X40330000Y-29516000D02*
X37743000Y-29516000D01*
X44976000Y-29556000D02*
X42410000Y-29556000D01*
X40330000Y-29556000D02*
X37764000Y-29556000D01*
X44954000Y-29596000D02*
X42410000Y-29596000D01*
X40330000Y-29596000D02*
X37786000Y-29596000D01*
X44932000Y-29636000D02*
X42410000Y-29636000D01*
X40330000Y-29636000D02*
X37808000Y-29636000D01*
X44910000Y-29676000D02*
X42410000Y-29676000D01*
X40330000Y-29676000D02*
X37830000Y-29676000D01*
X44887000Y-29716000D02*
X42410000Y-29716000D01*
X40330000Y-29716000D02*
X37853000Y-29716000D01*
X44863000Y-29756000D02*
X42410000Y-29756000D01*
X40330000Y-29756000D02*
X37877000Y-29756000D01*
X44839000Y-29796000D02*
X42410000Y-29796000D01*
X40330000Y-29796000D02*
X37901000Y-29796000D01*
X44814000Y-29836000D02*
X42410000Y-29836000D01*
X40330000Y-29836000D02*
X37926000Y-29836000D01*
X44788000Y-29876000D02*
X42410000Y-29876000D01*
X40330000Y-29876000D02*
X37952000Y-29876000D01*
X44762000Y-29916000D02*
X42410000Y-29916000D01*
X40330000Y-29916000D02*
X37978000Y-29916000D01*
X44735000Y-29956000D02*
X38005000Y-29956000D01*
X44708000Y-29996000D02*
X38032000Y-29996000D01*
X44679000Y-30036000D02*
X38061000Y-30036000D01*
X44650000Y-30076000D02*
X38090000Y-30076000D01*
X44620000Y-30116000D02*
X38120000Y-30116000D01*
X44590000Y-30156000D02*
X38150000Y-30156000D01*
X44559000Y-30196000D02*
X38181000Y-30196000D01*
X44526000Y-30236000D02*
X38214000Y-30236000D01*
X44494000Y-30276000D02*
X38246000Y-30276000D01*
X44460000Y-30316000D02*
X38280000Y-30316000D01*
X44425000Y-30356000D02*
X38315000Y-30356000D01*
X44389000Y-30396000D02*
X38351000Y-30396000D01*
X44353000Y-30436000D02*
X38387000Y-30436000D01*
X44315000Y-30476000D02*
X38425000Y-30476000D01*
X44277000Y-30516000D02*
X38463000Y-30516000D01*
X44237000Y-30556000D02*
X38503000Y-30556000D01*
X44196000Y-30596000D02*
X38544000Y-30596000D01*
X44154000Y-30636000D02*
X38586000Y-30636000D01*
X44111000Y-30676000D02*
X38629000Y-30676000D01*
X44067000Y-30716000D02*
X38673000Y-30716000D01*
X44021000Y-30756000D02*
X38719000Y-30756000D01*
X43974000Y-30796000D02*
X38766000Y-30796000D01*
X43926000Y-30836000D02*
X38814000Y-30836000D01*
X43875000Y-30876000D02*
X38865000Y-30876000D01*
X43824000Y-30916000D02*
X38916000Y-30916000D01*
X43770000Y-30956000D02*
X38970000Y-30956000D01*
X43715000Y-30996000D02*
X39025000Y-30996000D01*
X43657000Y-31036000D02*
X39083000Y-31036000D01*
X43598000Y-31076000D02*
X39142000Y-31076000D01*
X43536000Y-31116000D02*
X39204000Y-31116000D01*
X43472000Y-31156000D02*
X39268000Y-31156000D01*
X43404000Y-31196000D02*
X39336000Y-31196000D01*
X43334000Y-31236000D02*
X39406000Y-31236000D01*
X43260000Y-31276000D02*
X39480000Y-31276000D01*
X43183000Y-31316000D02*
X39557000Y-31316000D01*
X43101000Y-31356000D02*
X39639000Y-31356000D01*
X43015000Y-31396000D02*
X39725000Y-31396000D01*
X42922000Y-31436000D02*
X39818000Y-31436000D01*
X42823000Y-31476000D02*
X39917000Y-31476000D01*
X42716000Y-31516000D02*
X40024000Y-31516000D01*
X42599000Y-31556000D02*
X40141000Y-31556000D01*
X42468000Y-31596000D02*
X40272000Y-31596000D01*
X42318000Y-31636000D02*
X40422000Y-31636000D01*
X42138000Y-31676000D02*
X40602000Y-31676000D01*
X41903000Y-31716000D02*
X40837000Y-31716000D01*
X43685000Y-23225302D02*
X43685000Y-24025302D01*
X44085000Y-23625302D02*
X43285000Y-23625302D01*
X55340000Y-140150000D02*
X45100000Y-140150000D01*
X55340000Y-137410000D02*
X45100000Y-137410000D01*
X55340000Y-140150000D02*
X55340000Y-137410000D01*
X45100000Y-140150000D02*
X45100000Y-137410000D01*
X40180000Y-110940000D02*
X29940000Y-110940000D01*
X40180000Y-108200000D02*
X29940000Y-108200000D01*
X40180000Y-110940000D02*
X40180000Y-108200000D01*
X29940000Y-110940000D02*
X29940000Y-108200000D01*
X55420000Y-110940000D02*
X45180000Y-110940000D01*
X55420000Y-108200000D02*
X45180000Y-108200000D01*
X55420000Y-110940000D02*
X55420000Y-108200000D01*
X45180000Y-110940000D02*
X45180000Y-108200000D01*
X81910000Y-142670000D02*
X81910000Y-132430000D01*
X84650000Y-142670000D02*
X84650000Y-132430000D01*
X81910000Y-142670000D02*
X84650000Y-142670000D01*
X81910000Y-132430000D02*
X84650000Y-132430000D01*
X55440000Y-87265000D02*
X55440000Y-97505000D01*
X52700000Y-87265000D02*
X52700000Y-97505000D01*
X55440000Y-87265000D02*
X52700000Y-87265000D01*
X55440000Y-97505000D02*
X52700000Y-97505000D01*
X89095000Y-87265000D02*
X89095000Y-97505000D01*
X86355000Y-87265000D02*
X86355000Y-97505000D01*
X89095000Y-87265000D02*
X86355000Y-87265000D01*
X89095000Y-97505000D02*
X86355000Y-97505000D01*
X84650000Y-60595000D02*
X84650000Y-70835000D01*
X81910000Y-60595000D02*
X81910000Y-70835000D01*
X84650000Y-60595000D02*
X81910000Y-60595000D01*
X84650000Y-70835000D02*
X81910000Y-70835000D01*
X52900000Y-60595000D02*
X52900000Y-70835000D01*
X50160000Y-60595000D02*
X50160000Y-70835000D01*
X52900000Y-60595000D02*
X50160000Y-60595000D01*
X52900000Y-70835000D02*
X50160000Y-70835000D01*
X103955714Y-136852857D02*
X103955714Y-137824285D01*
X104012857Y-137938571D01*
X104070000Y-137995714D01*
X104184285Y-138052857D01*
X104412857Y-138052857D01*
X104527142Y-137995714D01*
X104584285Y-137938571D01*
X104641428Y-137824285D01*
X104641428Y-136852857D01*
X105727142Y-136852857D02*
X105498571Y-136852857D01*
X105384285Y-136910000D01*
X105327142Y-136967142D01*
X105212857Y-137138571D01*
X105155714Y-137367142D01*
X105155714Y-137824285D01*
X105212857Y-137938571D01*
X105270000Y-137995714D01*
X105384285Y-138052857D01*
X105612857Y-138052857D01*
X105727142Y-137995714D01*
X105784285Y-137938571D01*
X105841428Y-137824285D01*
X105841428Y-137538571D01*
X105784285Y-137424285D01*
X105727142Y-137367142D01*
X105612857Y-137310000D01*
X105384285Y-137310000D01*
X105270000Y-137367142D01*
X105212857Y-137424285D01*
X105155714Y-137538571D01*
X62045714Y-91767857D02*
X62045714Y-92739285D01*
X62102857Y-92853571D01*
X62160000Y-92910714D01*
X62274285Y-92967857D01*
X62502857Y-92967857D01*
X62617142Y-92910714D01*
X62674285Y-92853571D01*
X62731428Y-92739285D01*
X62731428Y-91767857D01*
X63874285Y-91767857D02*
X63302857Y-91767857D01*
X63245714Y-92339285D01*
X63302857Y-92282142D01*
X63417142Y-92225000D01*
X63702857Y-92225000D01*
X63817142Y-92282142D01*
X63874285Y-92339285D01*
X63931428Y-92453571D01*
X63931428Y-92739285D01*
X63874285Y-92853571D01*
X63817142Y-92910714D01*
X63702857Y-92967857D01*
X63417142Y-92967857D01*
X63302857Y-92910714D01*
X63245714Y-92853571D01*
X91255714Y-65097857D02*
X91255714Y-66069285D01*
X91312857Y-66183571D01*
X91370000Y-66240714D01*
X91484285Y-66297857D01*
X91712857Y-66297857D01*
X91827142Y-66240714D01*
X91884285Y-66183571D01*
X91941428Y-66069285D01*
X91941428Y-65097857D01*
X92398571Y-65097857D02*
X93141428Y-65097857D01*
X92741428Y-65555000D01*
X92912857Y-65555000D01*
X93027142Y-65612142D01*
X93084285Y-65669285D01*
X93141428Y-65783571D01*
X93141428Y-66069285D01*
X93084285Y-66183571D01*
X93027142Y-66240714D01*
X92912857Y-66297857D01*
X92570000Y-66297857D01*
X92455714Y-66240714D01*
X92398571Y-66183571D01*
X59505714Y-65097857D02*
X59505714Y-66069285D01*
X59562857Y-66183571D01*
X59620000Y-66240714D01*
X59734285Y-66297857D01*
X59962857Y-66297857D01*
X60077142Y-66240714D01*
X60134285Y-66183571D01*
X60191428Y-66069285D01*
X60191428Y-65097857D01*
X60705714Y-65212142D02*
X60762857Y-65155000D01*
X60877142Y-65097857D01*
X61162857Y-65097857D01*
X61277142Y-65155000D01*
X61334285Y-65212142D01*
X61391428Y-65326428D01*
X61391428Y-65440714D01*
X61334285Y-65612142D01*
X60648571Y-66297857D01*
X61391428Y-66297857D01*
X96335714Y-91767857D02*
X96335714Y-92739285D01*
X96392857Y-92853571D01*
X96450000Y-92910714D01*
X96564285Y-92967857D01*
X96792857Y-92967857D01*
X96907142Y-92910714D01*
X96964285Y-92853571D01*
X97021428Y-92739285D01*
X97021428Y-91767857D01*
X98107142Y-92167857D02*
X98107142Y-92967857D01*
X97821428Y-91710714D02*
X97535714Y-92567857D01*
X98278571Y-92567857D01*
X34105714Y-80972857D02*
X34105714Y-81944285D01*
X34162857Y-82058571D01*
X34220000Y-82115714D01*
X34334285Y-82172857D01*
X34562857Y-82172857D01*
X34677142Y-82115714D01*
X34734285Y-82058571D01*
X34791428Y-81944285D01*
X34791428Y-80972857D01*
X35991428Y-82172857D02*
X35305714Y-82172857D01*
X35648571Y-82172857D02*
X35648571Y-80972857D01*
X35534285Y-81144285D01*
X35420000Y-81258571D01*
X35305714Y-81315714D01*
X49345714Y-147012857D02*
X49345714Y-147984285D01*
X49402857Y-148098571D01*
X49460000Y-148155714D01*
X49574285Y-148212857D01*
X49802857Y-148212857D01*
X49917142Y-148155714D01*
X49974285Y-148098571D01*
X50031428Y-147984285D01*
X50031428Y-147012857D01*
X50660000Y-148212857D02*
X50888571Y-148212857D01*
X51002857Y-148155714D01*
X51060000Y-148098571D01*
X51174285Y-147927142D01*
X51231428Y-147698571D01*
X51231428Y-147241428D01*
X51174285Y-147127142D01*
X51117142Y-147070000D01*
X51002857Y-147012857D01*
X50774285Y-147012857D01*
X50660000Y-147070000D01*
X50602857Y-147127142D01*
X50545714Y-147241428D01*
X50545714Y-147527142D01*
X50602857Y-147641428D01*
X50660000Y-147698571D01*
X50774285Y-147755714D01*
X51002857Y-147755714D01*
X51117142Y-147698571D01*
X51174285Y-147641428D01*
X51231428Y-147527142D01*
X34105714Y-117802857D02*
X34105714Y-118774285D01*
X34162857Y-118888571D01*
X34220000Y-118945714D01*
X34334285Y-119002857D01*
X34562857Y-119002857D01*
X34677142Y-118945714D01*
X34734285Y-118888571D01*
X34791428Y-118774285D01*
X34791428Y-117802857D01*
X35534285Y-118317142D02*
X35420000Y-118260000D01*
X35362857Y-118202857D01*
X35305714Y-118088571D01*
X35305714Y-118031428D01*
X35362857Y-117917142D01*
X35420000Y-117860000D01*
X35534285Y-117802857D01*
X35762857Y-117802857D01*
X35877142Y-117860000D01*
X35934285Y-117917142D01*
X35991428Y-118031428D01*
X35991428Y-118088571D01*
X35934285Y-118202857D01*
X35877142Y-118260000D01*
X35762857Y-118317142D01*
X35534285Y-118317142D01*
X35420000Y-118374285D01*
X35362857Y-118431428D01*
X35305714Y-118545714D01*
X35305714Y-118774285D01*
X35362857Y-118888571D01*
X35420000Y-118945714D01*
X35534285Y-119002857D01*
X35762857Y-119002857D01*
X35877142Y-118945714D01*
X35934285Y-118888571D01*
X35991428Y-118774285D01*
X35991428Y-118545714D01*
X35934285Y-118431428D01*
X35877142Y-118374285D01*
X35762857Y-118317142D01*
X49345714Y-117802857D02*
X49345714Y-118774285D01*
X49402857Y-118888571D01*
X49460000Y-118945714D01*
X49574285Y-119002857D01*
X49802857Y-119002857D01*
X49917142Y-118945714D01*
X49974285Y-118888571D01*
X50031428Y-118774285D01*
X50031428Y-117802857D01*
X50488571Y-117802857D02*
X51288571Y-117802857D01*
X50774285Y-119002857D01*
M02*
