G04 #@! TF.GenerationSoftware,KiCad,Pcbnew,(5.1.7)-1*
G04 #@! TF.CreationDate,2020-11-15T10:54:59+01:00*
G04 #@! TF.ProjectId,Befehle,42656665-686c-4652-9e6b-696361645f70,rev?*
G04 #@! TF.SameCoordinates,Original*
G04 #@! TF.FileFunction,Copper,L2,Bot*
G04 #@! TF.FilePolarity,Positive*
%FSLAX46Y46*%
G04 Gerber Fmt 4.6, Leading zero omitted, Abs format (unit mm)*
G04 Created by KiCad (PCBNEW (5.1.7)-1) date 2020-11-15 10:54:59*
%MOMM*%
%LPD*%
G01*
G04 APERTURE LIST*
G04 #@! TA.AperFunction,ComponentPad*
%ADD10O,1.600000X2.400000*%
G04 #@! TD*
G04 #@! TA.AperFunction,ComponentPad*
%ADD11R,1.600000X2.400000*%
G04 #@! TD*
G04 #@! TA.AperFunction,ComponentPad*
%ADD12O,2.190000X1.740000*%
G04 #@! TD*
G04 #@! TA.AperFunction,ComponentPad*
%ADD13O,1.800000X1.800000*%
G04 #@! TD*
G04 #@! TA.AperFunction,ComponentPad*
%ADD14R,1.800000X1.800000*%
G04 #@! TD*
G04 #@! TA.AperFunction,ComponentPad*
%ADD15O,1.600000X1.600000*%
G04 #@! TD*
G04 #@! TA.AperFunction,ComponentPad*
%ADD16C,1.600000*%
G04 #@! TD*
G04 #@! TA.AperFunction,ComponentPad*
%ADD17C,1.800000*%
G04 #@! TD*
G04 #@! TA.AperFunction,ComponentPad*
%ADD18C,0.100000*%
G04 #@! TD*
G04 #@! TA.AperFunction,ComponentPad*
%ADD19O,1.700000X1.700000*%
G04 #@! TD*
G04 #@! TA.AperFunction,ComponentPad*
%ADD20R,1.700000X1.700000*%
G04 #@! TD*
G04 #@! TA.AperFunction,ComponentPad*
%ADD21O,2.400000X1.600000*%
G04 #@! TD*
G04 #@! TA.AperFunction,ComponentPad*
%ADD22R,2.400000X1.600000*%
G04 #@! TD*
G04 #@! TA.AperFunction,ComponentPad*
%ADD23R,1.600000X1.600000*%
G04 #@! TD*
G04 #@! TA.AperFunction,ComponentPad*
%ADD24O,1.740000X2.190000*%
G04 #@! TD*
G04 #@! TA.AperFunction,ViaPad*
%ADD25C,0.600000*%
G04 #@! TD*
G04 #@! TA.AperFunction,Conductor*
%ADD26C,0.400000*%
G04 #@! TD*
G04 #@! TA.AperFunction,Conductor*
%ADD27C,1.250000*%
G04 #@! TD*
G04 #@! TA.AperFunction,Conductor*
%ADD28C,1.000000*%
G04 #@! TD*
G04 APERTURE END LIST*
D10*
X109950000Y-141320000D03*
X87090000Y-133700000D03*
X107410000Y-141320000D03*
X89630000Y-133700000D03*
X104870000Y-141320000D03*
X92170000Y-133700000D03*
X102330000Y-141320000D03*
X94710000Y-133700000D03*
X99790000Y-141320000D03*
X97250000Y-133700000D03*
X97250000Y-141320000D03*
X99790000Y-133700000D03*
X94710000Y-141320000D03*
X102330000Y-133700000D03*
X92170000Y-141320000D03*
X104870000Y-133700000D03*
X89630000Y-141320000D03*
X107410000Y-133700000D03*
X87090000Y-141320000D03*
D11*
X109950000Y-133700000D03*
D10*
X57880000Y-88615000D03*
X80740000Y-96235000D03*
X60420000Y-88615000D03*
X78200000Y-96235000D03*
X62960000Y-88615000D03*
X75660000Y-96235000D03*
X65500000Y-88615000D03*
X73120000Y-96235000D03*
X68040000Y-88615000D03*
X70580000Y-96235000D03*
X70580000Y-88615000D03*
X68040000Y-96235000D03*
X73120000Y-88615000D03*
X65500000Y-96235000D03*
X75660000Y-88615000D03*
X62960000Y-96235000D03*
X78200000Y-88615000D03*
X60420000Y-96235000D03*
X80740000Y-88615000D03*
D11*
X57880000Y-96235000D03*
D10*
X87090000Y-61945000D03*
X109950000Y-69565000D03*
X89630000Y-61945000D03*
X107410000Y-69565000D03*
X92170000Y-61945000D03*
X104870000Y-69565000D03*
X94710000Y-61945000D03*
X102330000Y-69565000D03*
X97250000Y-61945000D03*
X99790000Y-69565000D03*
X99790000Y-61945000D03*
X97250000Y-69565000D03*
X102330000Y-61945000D03*
X94710000Y-69565000D03*
X104870000Y-61945000D03*
X92170000Y-69565000D03*
X107410000Y-61945000D03*
X89630000Y-69565000D03*
X109950000Y-61945000D03*
D11*
X87090000Y-69565000D03*
D10*
X55340000Y-61945000D03*
X78200000Y-69565000D03*
X57880000Y-61945000D03*
X75660000Y-69565000D03*
X60420000Y-61945000D03*
X73120000Y-69565000D03*
X62960000Y-61945000D03*
X70580000Y-69565000D03*
X65500000Y-61945000D03*
X68040000Y-69565000D03*
X68040000Y-61945000D03*
X65500000Y-69565000D03*
X70580000Y-61945000D03*
X62960000Y-69565000D03*
X73120000Y-61945000D03*
X60420000Y-69565000D03*
X75660000Y-61945000D03*
X57880000Y-69565000D03*
X78200000Y-61945000D03*
D11*
X55340000Y-69565000D03*
D12*
X27400000Y-150210000D03*
X27400000Y-152750000D03*
X27400000Y-155290000D03*
G04 #@! TA.AperFunction,ComponentPad*
G36*
G01*
X28245001Y-158700000D02*
X26554999Y-158700000D01*
G75*
G02*
X26305000Y-158450001I0J249999D01*
G01*
X26305000Y-157209999D01*
G75*
G02*
X26554999Y-156960000I249999J0D01*
G01*
X28245001Y-156960000D01*
G75*
G02*
X28495000Y-157209999I0J-249999D01*
G01*
X28495000Y-158450001D01*
G75*
G02*
X28245001Y-158700000I-249999J0D01*
G01*
G37*
G04 #@! TD.AperFunction*
D13*
X58515000Y-26385000D03*
D14*
X48355000Y-26385000D03*
D15*
X109950000Y-148305000D03*
D16*
X109950000Y-158465000D03*
D17*
X111220000Y-126188949D03*
G04 #@! TA.AperFunction,ComponentPad*
D18*
G36*
X109423949Y-129257792D02*
G01*
X108151157Y-127985000D01*
X109423949Y-126712208D01*
X110696741Y-127985000D01*
X109423949Y-129257792D01*
G37*
G04 #@! TD.AperFunction*
D17*
X103600000Y-122378949D03*
G04 #@! TA.AperFunction,ComponentPad*
D18*
G36*
X101803949Y-125447792D02*
G01*
X100531157Y-124175000D01*
X101803949Y-122902208D01*
X103076741Y-124175000D01*
X101803949Y-125447792D01*
G37*
G04 #@! TD.AperFunction*
D17*
X107410000Y-126188949D03*
G04 #@! TA.AperFunction,ComponentPad*
D18*
G36*
X105613949Y-129257792D02*
G01*
X104341157Y-127985000D01*
X105613949Y-126712208D01*
X106886741Y-127985000D01*
X105613949Y-129257792D01*
G37*
G04 #@! TD.AperFunction*
D19*
X60420000Y-173070000D03*
X60420000Y-170530000D03*
X62960000Y-173070000D03*
X62960000Y-170530000D03*
X65500000Y-173070000D03*
X65500000Y-170530000D03*
X68040000Y-173070000D03*
X68040000Y-170530000D03*
X70580000Y-173070000D03*
X70580000Y-170530000D03*
X73120000Y-173070000D03*
X73120000Y-170530000D03*
X75660000Y-173070000D03*
X75660000Y-170530000D03*
X78200000Y-173070000D03*
X78200000Y-170530000D03*
X80740000Y-173070000D03*
X80740000Y-170530000D03*
X83280000Y-173070000D03*
D20*
X83280000Y-170530000D03*
D10*
X92170000Y-88615000D03*
X109950000Y-96235000D03*
X94710000Y-88615000D03*
X107410000Y-96235000D03*
X97250000Y-88615000D03*
X104870000Y-96235000D03*
X99790000Y-88615000D03*
X102330000Y-96235000D03*
X102330000Y-88615000D03*
X99790000Y-96235000D03*
X104870000Y-88615000D03*
X97250000Y-96235000D03*
X107410000Y-88615000D03*
X94710000Y-96235000D03*
X109950000Y-88615000D03*
D11*
X92170000Y-96235000D03*
D21*
X38830000Y-76550000D03*
X31210000Y-91790000D03*
X38830000Y-79090000D03*
X31210000Y-89250000D03*
X38830000Y-81630000D03*
X31210000Y-86710000D03*
X38830000Y-84170000D03*
X31210000Y-84170000D03*
X38830000Y-86710000D03*
X31210000Y-81630000D03*
X38830000Y-89250000D03*
X31210000Y-79090000D03*
X38830000Y-91790000D03*
D22*
X31210000Y-76550000D03*
D15*
X99790000Y-107665000D03*
X102330000Y-107665000D03*
X104870000Y-107665000D03*
X107410000Y-107665000D03*
D23*
X109950000Y-107665000D03*
D15*
X115030000Y-41625000D03*
D16*
X115030000Y-51785000D03*
D15*
X104870000Y-148305000D03*
D16*
X104870000Y-158465000D03*
D15*
X109950000Y-41625000D03*
D16*
X109950000Y-51785000D03*
D15*
X104870000Y-41625000D03*
D16*
X104870000Y-51785000D03*
D15*
X99790000Y-41625000D03*
D16*
X99790000Y-51785000D03*
D15*
X94710000Y-41625000D03*
D16*
X94710000Y-51785000D03*
D15*
X89630000Y-41625000D03*
D16*
X89630000Y-51785000D03*
D15*
X99790000Y-148305000D03*
D16*
X99790000Y-158465000D03*
D15*
X84550000Y-41625000D03*
D16*
X84550000Y-51785000D03*
D15*
X79470000Y-41625000D03*
D16*
X79470000Y-51785000D03*
D15*
X94710000Y-148305000D03*
D16*
X94710000Y-158465000D03*
D15*
X85185000Y-119095000D03*
D16*
X85185000Y-108935000D03*
D15*
X45815000Y-176880000D03*
D16*
X45815000Y-166720000D03*
D15*
X26130000Y-77820000D03*
D16*
X26130000Y-67660000D03*
D15*
X39465000Y-176880000D03*
D16*
X39465000Y-166720000D03*
D15*
X48990000Y-176880000D03*
D16*
X48990000Y-166720000D03*
D15*
X59150000Y-155925000D03*
D16*
X59150000Y-145765000D03*
D15*
X42640000Y-166720000D03*
D16*
X42640000Y-176880000D03*
D24*
X33115000Y-26385000D03*
G04 #@! TA.AperFunction,ComponentPad*
G36*
G01*
X29705000Y-27230001D02*
X29705000Y-25539999D01*
G75*
G02*
X29954999Y-25290000I249999J0D01*
G01*
X31195001Y-25290000D01*
G75*
G02*
X31445000Y-25539999I0J-249999D01*
G01*
X31445000Y-27230001D01*
G75*
G02*
X31195001Y-27480000I-249999J0D01*
G01*
X29954999Y-27480000D01*
G75*
G02*
X29705000Y-27230001I0J249999D01*
G01*
G37*
G04 #@! TD.AperFunction*
X92170000Y-174340000D03*
X94710000Y-174340000D03*
X97250000Y-174340000D03*
G04 #@! TA.AperFunction,ComponentPad*
G36*
G01*
X100660000Y-173494999D02*
X100660000Y-175185001D01*
G75*
G02*
X100410001Y-175435000I-249999J0D01*
G01*
X99169999Y-175435000D01*
G75*
G02*
X98920000Y-175185001I0J249999D01*
G01*
X98920000Y-173494999D01*
G75*
G02*
X99169999Y-173245000I249999J0D01*
G01*
X100410001Y-173245000D01*
G75*
G02*
X100660000Y-173494999I0J-249999D01*
G01*
G37*
G04 #@! TD.AperFunction*
D12*
X27400000Y-163545000D03*
G04 #@! TA.AperFunction,ComponentPad*
G36*
G01*
X28245001Y-166955000D02*
X26554999Y-166955000D01*
G75*
G02*
X26305000Y-166705001I0J249999D01*
G01*
X26305000Y-165464999D01*
G75*
G02*
X26554999Y-165215000I249999J0D01*
G01*
X28245001Y-165215000D01*
G75*
G02*
X28495000Y-165464999I0J-249999D01*
G01*
X28495000Y-166705001D01*
G75*
G02*
X28245001Y-166955000I-249999J0D01*
G01*
G37*
G04 #@! TD.AperFunction*
D20*
X25495000Y-33370000D03*
D19*
X28035000Y-33370000D03*
X25495000Y-35910000D03*
X28035000Y-35910000D03*
X25495000Y-38450000D03*
X28035000Y-38450000D03*
X25495000Y-40990000D03*
X28035000Y-40990000D03*
X25495000Y-43530000D03*
X28035000Y-43530000D03*
X25495000Y-46070000D03*
X28035000Y-46070000D03*
X25495000Y-48610000D03*
X28035000Y-48610000D03*
X25495000Y-51150000D03*
X28035000Y-51150000D03*
X25495000Y-53690000D03*
X28035000Y-53690000D03*
X25495000Y-56230000D03*
X28035000Y-56230000D03*
D17*
X109950000Y-164180000D03*
D14*
X109950000Y-161640000D03*
D17*
X115030000Y-36545000D03*
D14*
X115030000Y-39085000D03*
D17*
X104715000Y-164180000D03*
D14*
X104715000Y-161640000D03*
D17*
X109950000Y-36545000D03*
D14*
X109950000Y-39085000D03*
D17*
X104870000Y-36545000D03*
D14*
X104870000Y-39085000D03*
D17*
X99790000Y-36545000D03*
D14*
X99790000Y-39085000D03*
D17*
X94710000Y-36545000D03*
D14*
X94710000Y-39085000D03*
D17*
X89630000Y-36545000D03*
D14*
X89630000Y-39085000D03*
D17*
X99715000Y-164180000D03*
D14*
X99715000Y-161640000D03*
D17*
X84550000Y-36545000D03*
D14*
X84550000Y-39085000D03*
D17*
X79470000Y-36545000D03*
D14*
X79470000Y-39085000D03*
D17*
X94710000Y-164180000D03*
D14*
X94710000Y-161640000D03*
D17*
X85185000Y-104490000D03*
D14*
X87725000Y-104490000D03*
D17*
X26130000Y-62580000D03*
D14*
X26130000Y-65120000D03*
D17*
X59150000Y-140685000D03*
D14*
X59150000Y-143225000D03*
D21*
X54070000Y-142590000D03*
X46450000Y-157830000D03*
X54070000Y-145130000D03*
X46450000Y-155290000D03*
X54070000Y-147670000D03*
X46450000Y-152750000D03*
X54070000Y-150210000D03*
X46450000Y-150210000D03*
X54070000Y-152750000D03*
X46450000Y-147670000D03*
X54070000Y-155290000D03*
X46450000Y-145130000D03*
X54070000Y-157830000D03*
D22*
X46450000Y-142590000D03*
D16*
X32480000Y-72105000D03*
X37480000Y-72105000D03*
D21*
X38830000Y-113380000D03*
X31210000Y-128620000D03*
X38830000Y-115920000D03*
X31210000Y-126080000D03*
X38830000Y-118460000D03*
X31210000Y-123540000D03*
X38830000Y-121000000D03*
X31210000Y-121000000D03*
X38830000Y-123540000D03*
X31210000Y-118460000D03*
X38830000Y-126080000D03*
X31210000Y-115920000D03*
X38830000Y-128620000D03*
D22*
X31210000Y-113380000D03*
D21*
X54021740Y-113380000D03*
X46401740Y-128620000D03*
X54021740Y-115920000D03*
X46401740Y-126080000D03*
X54021740Y-118460000D03*
X46401740Y-123540000D03*
X54021740Y-121000000D03*
X46401740Y-121000000D03*
X54021740Y-123540000D03*
X46401740Y-118460000D03*
X54021740Y-126080000D03*
X46401740Y-115920000D03*
X54021740Y-128620000D03*
D22*
X46401740Y-113380000D03*
D17*
X103600000Y-126188949D03*
G04 #@! TA.AperFunction,ComponentPad*
D18*
G36*
X101803949Y-129257792D02*
G01*
X100531157Y-127985000D01*
X101803949Y-126712208D01*
X103076741Y-127985000D01*
X101803949Y-129257792D01*
G37*
G04 #@! TD.AperFunction*
D17*
X99790000Y-126188949D03*
G04 #@! TA.AperFunction,ComponentPad*
D18*
G36*
X97993949Y-129257792D02*
G01*
X96721157Y-127985000D01*
X97993949Y-126712208D01*
X99266741Y-127985000D01*
X97993949Y-129257792D01*
G37*
G04 #@! TD.AperFunction*
D17*
X111220000Y-122378949D03*
G04 #@! TA.AperFunction,ComponentPad*
D18*
G36*
X109423949Y-125447792D02*
G01*
X108151157Y-124175000D01*
X109423949Y-122902208D01*
X110696741Y-124175000D01*
X109423949Y-125447792D01*
G37*
G04 #@! TD.AperFunction*
D17*
X107410000Y-122378949D03*
G04 #@! TA.AperFunction,ComponentPad*
D18*
G36*
X105613949Y-125447792D02*
G01*
X104341157Y-124175000D01*
X105613949Y-122902208D01*
X106886741Y-124175000D01*
X105613949Y-125447792D01*
G37*
G04 #@! TD.AperFunction*
D17*
X111220000Y-118568949D03*
G04 #@! TA.AperFunction,ComponentPad*
D18*
G36*
X109423949Y-121637792D02*
G01*
X108151157Y-120365000D01*
X109423949Y-119092208D01*
X110696741Y-120365000D01*
X109423949Y-121637792D01*
G37*
G04 #@! TD.AperFunction*
D17*
X107410000Y-118568949D03*
G04 #@! TA.AperFunction,ComponentPad*
D18*
G36*
X105613949Y-121637792D02*
G01*
X104341157Y-120365000D01*
X105613949Y-119092208D01*
X106886741Y-120365000D01*
X105613949Y-121637792D01*
G37*
G04 #@! TD.AperFunction*
D17*
X103600000Y-118568949D03*
G04 #@! TA.AperFunction,ComponentPad*
D18*
G36*
X101803949Y-121637792D02*
G01*
X100531157Y-120365000D01*
X101803949Y-119092208D01*
X103076741Y-120365000D01*
X101803949Y-121637792D01*
G37*
G04 #@! TD.AperFunction*
D17*
X111220000Y-114758949D03*
G04 #@! TA.AperFunction,ComponentPad*
D18*
G36*
X109423949Y-117827792D02*
G01*
X108151157Y-116555000D01*
X109423949Y-115282208D01*
X110696741Y-116555000D01*
X109423949Y-117827792D01*
G37*
G04 #@! TD.AperFunction*
D17*
X107410000Y-114758949D03*
G04 #@! TA.AperFunction,ComponentPad*
D18*
G36*
X105613949Y-117827792D02*
G01*
X104341157Y-116555000D01*
X105613949Y-115282208D01*
X106886741Y-116555000D01*
X105613949Y-117827792D01*
G37*
G04 #@! TD.AperFunction*
D17*
X99790000Y-122378949D03*
G04 #@! TA.AperFunction,ComponentPad*
D18*
G36*
X97993949Y-125447792D02*
G01*
X96721157Y-124175000D01*
X97993949Y-122902208D01*
X99266741Y-124175000D01*
X97993949Y-125447792D01*
G37*
G04 #@! TD.AperFunction*
D17*
X103600000Y-114758949D03*
G04 #@! TA.AperFunction,ComponentPad*
D18*
G36*
X101803949Y-117827792D02*
G01*
X100531157Y-116555000D01*
X101803949Y-115282208D01*
X103076741Y-116555000D01*
X101803949Y-117827792D01*
G37*
G04 #@! TD.AperFunction*
D17*
X99790000Y-118568949D03*
G04 #@! TA.AperFunction,ComponentPad*
D18*
G36*
X97993949Y-121637792D02*
G01*
X96721157Y-120365000D01*
X97993949Y-119092208D01*
X99266741Y-120365000D01*
X97993949Y-121637792D01*
G37*
G04 #@! TD.AperFunction*
D17*
X99790000Y-114758949D03*
G04 #@! TA.AperFunction,ComponentPad*
D18*
G36*
X97993949Y-117827792D02*
G01*
X96721157Y-116555000D01*
X97993949Y-115282208D01*
X99266741Y-116555000D01*
X97993949Y-117827792D01*
G37*
G04 #@! TD.AperFunction*
D16*
X41370000Y-28885000D03*
D23*
X41370000Y-26385000D03*
D16*
X47720000Y-138780000D03*
X52720000Y-138780000D03*
X32560000Y-109570000D03*
X37560000Y-109570000D03*
X47800000Y-109570000D03*
X52800000Y-109570000D03*
X83280000Y-135050000D03*
X83280000Y-140050000D03*
X54070000Y-94885000D03*
X54070000Y-89885000D03*
X87725000Y-94885000D03*
X87725000Y-89885000D03*
X83280000Y-68215000D03*
X83280000Y-63215000D03*
X51530000Y-68215000D03*
X51530000Y-63215000D03*
D25*
X70580000Y-75280000D03*
X68040000Y-76550000D03*
X65500000Y-77820000D03*
X62960000Y-79090000D03*
X60420000Y-80360000D03*
X24225000Y-133065000D03*
X47720000Y-133065000D03*
X24225000Y-107030000D03*
X92170000Y-120365000D03*
X93440000Y-124175000D03*
X94710000Y-127985000D03*
X28670000Y-136875000D03*
X36290000Y-139415000D03*
X62960000Y-114650000D03*
X65500000Y-117190000D03*
X68040000Y-122270000D03*
X70580000Y-124810000D03*
X73120000Y-128620000D03*
X75660000Y-126080000D03*
X78200000Y-121000000D03*
X80740000Y-118460000D03*
X57880000Y-81630000D03*
X76930000Y-74010000D03*
D26*
X70580000Y-75280000D02*
X70580000Y-69565000D01*
X70580000Y-75280000D02*
X70580000Y-88615000D01*
X69310000Y-85440000D02*
X68040000Y-84170000D01*
X69310000Y-91155000D02*
X69310000Y-85440000D01*
X70580000Y-92425000D02*
X69310000Y-91155000D01*
X70580000Y-96235000D02*
X70580000Y-92425000D01*
X68040000Y-76550000D02*
X68040000Y-84170000D01*
X68040000Y-76550000D02*
X68040000Y-69565000D01*
X68040000Y-86075000D02*
X68040000Y-88615000D01*
X65500000Y-83535000D02*
X68040000Y-86075000D01*
X65500000Y-77820000D02*
X65500000Y-69565000D01*
X65500000Y-83535000D02*
X65500000Y-77820000D01*
X62960000Y-79090000D02*
X62960000Y-69565000D01*
X68040000Y-92425000D02*
X68040000Y-96235000D01*
X66770000Y-91155000D02*
X68040000Y-92425000D01*
X66770000Y-86710000D02*
X66770000Y-91155000D01*
X62960000Y-82900000D02*
X66770000Y-86710000D01*
X62960000Y-79090000D02*
X62960000Y-82900000D01*
X60420000Y-80360000D02*
X60420000Y-69565000D01*
X60420000Y-80360000D02*
X60420000Y-88615000D01*
D27*
X29305000Y-26385000D02*
X27400000Y-28925000D01*
X30575000Y-26385000D02*
X29305000Y-26385000D01*
X28035000Y-29560000D02*
X27400000Y-28925000D01*
X28035000Y-33370000D02*
X28035000Y-29560000D01*
X28035000Y-33370000D02*
X28035000Y-56230000D01*
X25495000Y-56230000D02*
X28035000Y-56230000D01*
X25495000Y-33370000D02*
X28035000Y-33370000D01*
X24225000Y-28925000D02*
X27400000Y-28925000D01*
X21050000Y-32100000D02*
X24225000Y-28925000D01*
X21050000Y-72105000D02*
X21050000Y-32100000D01*
X47800000Y-108380000D02*
X46450000Y-107030000D01*
X47800000Y-109570000D02*
X47800000Y-108380000D01*
X21050000Y-72105000D02*
X21050000Y-107030000D01*
X48990000Y-128620000D02*
X46401740Y-128620000D01*
X49625000Y-127985000D02*
X48990000Y-128620000D01*
X49625000Y-111395000D02*
X49625000Y-127985000D01*
X47800000Y-109570000D02*
X49625000Y-111395000D01*
X21050000Y-107030000D02*
X21050000Y-132430000D01*
X47720000Y-107030000D02*
X52165000Y-107030000D01*
X54070000Y-105125000D02*
X54070000Y-94885000D01*
X52165000Y-107030000D02*
X54070000Y-105125000D01*
X83280000Y-170530000D02*
X83280000Y-173070000D01*
X60420000Y-170530000D02*
X60420000Y-173070000D01*
X60420000Y-173070000D02*
X83280000Y-173070000D01*
X57880000Y-173070000D02*
X60420000Y-173070000D01*
X22320000Y-170530000D02*
X55340000Y-170530000D01*
X55340000Y-170530000D02*
X57880000Y-173070000D01*
X21050000Y-169260000D02*
X22320000Y-170530000D01*
X92170000Y-100045000D02*
X87725000Y-104490000D01*
X92170000Y-96235000D02*
X92170000Y-100045000D01*
X21050000Y-132430000D02*
X21050000Y-133065000D01*
X21050000Y-133065000D02*
X21050000Y-169260000D01*
X24225000Y-133065000D02*
X21050000Y-133065000D01*
X47720000Y-133065000D02*
X47720000Y-138780000D01*
X87090000Y-133700000D02*
X87090000Y-134970000D01*
X87090000Y-134970000D02*
X88360000Y-136240000D01*
X88360000Y-136240000D02*
X109315000Y-136240000D01*
X109950000Y-135605000D02*
X109950000Y-133700000D01*
X109315000Y-136240000D02*
X109950000Y-135605000D01*
X21050000Y-107030000D02*
X24225000Y-107030000D01*
X47720000Y-107030000D02*
X34385000Y-107030000D01*
X32560000Y-109570000D02*
X32560000Y-108220000D01*
X33750000Y-107030000D02*
X34385000Y-107030000D01*
X32560000Y-108220000D02*
X33750000Y-107030000D01*
D26*
X33115000Y-128620000D02*
X31210000Y-128620000D01*
X33750000Y-127985000D02*
X33115000Y-128620000D01*
X33750000Y-110840000D02*
X33750000Y-127985000D01*
X32560000Y-109570000D02*
X33750000Y-110840000D01*
D27*
X32480000Y-72105000D02*
X21050000Y-72105000D01*
X51450000Y-68295000D02*
X51530000Y-68215000D01*
X36370000Y-68215000D02*
X32480000Y-72105000D01*
X51530000Y-68215000D02*
X36370000Y-68215000D01*
X30575000Y-26385000D02*
X30575000Y-28290000D01*
X30575000Y-28290000D02*
X30590010Y-28305010D01*
X30575000Y-28290000D02*
X30575000Y-28925000D01*
X30615000Y-28885000D02*
X41370000Y-28885000D01*
X30575000Y-28925000D02*
X30615000Y-28885000D01*
X56015000Y-28885000D02*
X58515000Y-26385000D01*
X41370000Y-28885000D02*
X56015000Y-28885000D01*
X83280000Y-140050000D02*
X85185000Y-138145000D01*
X85185000Y-138145000D02*
X109315000Y-138145000D01*
X109950000Y-138780000D02*
X109950000Y-141320000D01*
X109315000Y-138145000D02*
X109950000Y-138780000D01*
X94710000Y-164180000D02*
X109950000Y-164180000D01*
D26*
X85185000Y-138145000D02*
X85185000Y-131668000D01*
X85185000Y-131668000D02*
X85566000Y-131287000D01*
X85566000Y-131287000D02*
X94202000Y-131287000D01*
X94710000Y-131795000D02*
X94710000Y-133700000D01*
X94202000Y-131287000D02*
X94710000Y-131795000D01*
X94710000Y-133700000D02*
X97250000Y-133700000D01*
D27*
X79470000Y-41625000D02*
X79470000Y-39085000D01*
X84550000Y-41625000D02*
X84550000Y-39085000D01*
X94710000Y-41625000D02*
X94710000Y-39085000D01*
X99790000Y-41625000D02*
X99790000Y-39085000D01*
X104870000Y-41625000D02*
X104870000Y-39085000D01*
X109950000Y-41625000D02*
X109950000Y-39085000D01*
X115030000Y-41625000D02*
X115030000Y-39085000D01*
X26130000Y-67660000D02*
X26130000Y-65120000D01*
D26*
X57880000Y-61945000D02*
X57880000Y-63850000D01*
X55340000Y-66390000D02*
X55340000Y-69565000D01*
X57880000Y-63850000D02*
X55340000Y-66390000D01*
X55340000Y-73375000D02*
X55340000Y-69565000D01*
X54070000Y-74645000D02*
X55340000Y-73375000D01*
X34385000Y-83535000D02*
X34385000Y-77820000D01*
X34385000Y-77820000D02*
X37560000Y-74645000D01*
X33750000Y-84170000D02*
X34385000Y-83535000D01*
X37560000Y-74645000D02*
X54070000Y-74645000D01*
X31210000Y-84170000D02*
X33750000Y-84170000D01*
X97250000Y-143225000D02*
X94710000Y-145765000D01*
X97250000Y-141320000D02*
X97250000Y-143225000D01*
X94710000Y-145765000D02*
X94710000Y-148305000D01*
X109950000Y-51785000D02*
X107410000Y-54325000D01*
X107410000Y-54325000D02*
X107410000Y-61945000D01*
X102330000Y-101315000D02*
X102330000Y-96235000D01*
X101695000Y-101950000D02*
X102330000Y-101315000D01*
X94710000Y-101950000D02*
X101695000Y-101950000D01*
X92170000Y-104490000D02*
X94710000Y-101950000D01*
X92170000Y-120365000D02*
X92170000Y-104490000D01*
X93440000Y-124175000D02*
X93440000Y-105125000D01*
X93440000Y-105125000D02*
X95345000Y-103220000D01*
X95345000Y-103220000D02*
X104235000Y-103220000D01*
X104870000Y-102585000D02*
X104870000Y-96235000D01*
X104235000Y-103220000D02*
X104870000Y-102585000D01*
X107410000Y-103855000D02*
X107410000Y-96235000D01*
X106775000Y-104490000D02*
X107410000Y-103855000D01*
X95980000Y-104490000D02*
X106775000Y-104490000D01*
X94710000Y-105760000D02*
X95980000Y-104490000D01*
X94710000Y-127985000D02*
X94710000Y-105760000D01*
X99790000Y-107665000D02*
X99790000Y-129890000D01*
X99790000Y-129890000D02*
X99790000Y-133700000D01*
X103600000Y-112745000D02*
X103600000Y-129890000D01*
X103600000Y-112745000D02*
X102330000Y-111475000D01*
X102330000Y-111475000D02*
X102330000Y-107665000D01*
X103600000Y-129890000D02*
X102330000Y-131160000D01*
X102330000Y-131160000D02*
X102330000Y-133700000D01*
X104870000Y-110205000D02*
X104870000Y-107665000D01*
X107410000Y-112745000D02*
X104870000Y-110205000D01*
X107410000Y-129890000D02*
X107410000Y-112745000D01*
X107410000Y-129890000D02*
X104870000Y-132430000D01*
X104870000Y-132430000D02*
X104870000Y-133700000D01*
X109950000Y-131160000D02*
X108045000Y-131160000D01*
X107410000Y-131795000D02*
X107410000Y-133700000D01*
X111220000Y-129890000D02*
X109950000Y-131160000D01*
X108045000Y-131160000D02*
X107410000Y-131795000D01*
X111220000Y-112745000D02*
X111220000Y-129890000D01*
X107410000Y-108935000D02*
X111220000Y-112745000D01*
X107410000Y-107665000D02*
X107410000Y-108935000D01*
X32480000Y-150210000D02*
X48990000Y-166720000D01*
X27400000Y-150210000D02*
X32480000Y-150210000D01*
X46450000Y-152750000D02*
X46450000Y-150210000D01*
X48355000Y-152750000D02*
X46450000Y-152750000D01*
X48990000Y-153385000D02*
X48355000Y-152750000D01*
X48990000Y-166720000D02*
X48990000Y-153385000D01*
X31845000Y-152750000D02*
X45815000Y-166720000D01*
X27400000Y-152750000D02*
X31845000Y-152750000D01*
X35020000Y-138780000D02*
X35020000Y-120365000D01*
X25495000Y-148305000D02*
X35020000Y-138780000D01*
X37560000Y-118460000D02*
X38830000Y-118460000D01*
X25495000Y-152115000D02*
X25495000Y-148305000D01*
X26130000Y-152750000D02*
X25495000Y-152115000D01*
X35020000Y-120365000D02*
X37560000Y-118460000D01*
X27400000Y-152750000D02*
X26130000Y-152750000D01*
X31210000Y-126080000D02*
X29940000Y-126080000D01*
X29940000Y-126080000D02*
X28670000Y-127350000D01*
X28670000Y-127350000D02*
X28670000Y-136875000D01*
X42005000Y-147035000D02*
X42640000Y-147670000D01*
X42005000Y-117190000D02*
X42005000Y-147035000D01*
X40735000Y-115920000D02*
X42005000Y-117190000D01*
X38830000Y-115920000D02*
X40735000Y-115920000D01*
X42640000Y-147670000D02*
X46450000Y-147670000D01*
X36290000Y-121635000D02*
X36290000Y-139415000D01*
X36925000Y-121000000D02*
X36290000Y-121635000D01*
X38830000Y-121000000D02*
X36925000Y-121000000D01*
X62960000Y-114650000D02*
X62960000Y-170530000D01*
X62960000Y-96235000D02*
X62960000Y-114650000D01*
X62960000Y-91155000D02*
X64230000Y-92425000D01*
X62960000Y-88615000D02*
X62960000Y-91155000D01*
X65500000Y-101315000D02*
X64230000Y-100045000D01*
X64230000Y-92425000D02*
X64230000Y-100045000D01*
X65500000Y-117190000D02*
X65500000Y-101315000D01*
X65500000Y-170530000D02*
X65500000Y-117190000D01*
X65500000Y-98775000D02*
X65500000Y-96235000D01*
X68040000Y-101315000D02*
X65500000Y-98775000D01*
X68040000Y-122270000D02*
X68040000Y-101315000D01*
X68040000Y-170530000D02*
X68040000Y-122270000D01*
X70580000Y-170530000D02*
X70580000Y-124810000D01*
X65500000Y-92425000D02*
X65500000Y-88615000D01*
X66770000Y-93695000D02*
X65500000Y-92425000D01*
X66770000Y-98140000D02*
X66770000Y-93695000D01*
X70580000Y-101950000D02*
X66770000Y-98140000D01*
X70580000Y-124810000D02*
X70580000Y-101950000D01*
X73120000Y-170530000D02*
X73120000Y-128620000D01*
X73120000Y-101315000D02*
X73120000Y-96235000D01*
X73120000Y-128620000D02*
X73120000Y-101315000D01*
X75660000Y-170530000D02*
X75660000Y-126080000D01*
X74390000Y-100680000D02*
X74390000Y-93695000D01*
X75660000Y-101950000D02*
X74390000Y-100680000D01*
X75660000Y-126080000D02*
X75660000Y-101950000D01*
X74390000Y-93695000D02*
X73120000Y-92425000D01*
X73120000Y-92425000D02*
X73120000Y-88615000D01*
X78200000Y-101315000D02*
X75660000Y-98775000D01*
X75660000Y-98775000D02*
X75660000Y-96235000D01*
X78200000Y-121000000D02*
X78200000Y-101315000D01*
X78200000Y-170530000D02*
X78200000Y-121000000D01*
X80740000Y-170530000D02*
X80740000Y-118460000D01*
X75660000Y-92425000D02*
X75660000Y-88615000D01*
X76930000Y-93695000D02*
X75660000Y-92425000D01*
X76930000Y-98140000D02*
X76930000Y-93695000D01*
X80740000Y-101950000D02*
X76930000Y-98140000D01*
X80740000Y-118460000D02*
X80740000Y-101950000D01*
X60420000Y-94330000D02*
X60420000Y-96235000D01*
X59150000Y-93060000D02*
X60420000Y-94330000D01*
X59150000Y-86710000D02*
X59150000Y-93060000D01*
X57880000Y-85440000D02*
X59150000Y-86710000D01*
X57880000Y-81630000D02*
X57880000Y-69565000D01*
X57880000Y-85440000D02*
X57880000Y-81630000D01*
X78200000Y-86710000D02*
X78200000Y-88615000D01*
X89630000Y-71470000D02*
X89630000Y-69565000D01*
X88995000Y-72105000D02*
X89630000Y-71470000D01*
X78200000Y-72740000D02*
X78835000Y-72105000D01*
X78835000Y-72105000D02*
X88995000Y-72105000D01*
X78200000Y-73375000D02*
X78200000Y-86710000D01*
X78200000Y-72740000D02*
X78200000Y-73375000D01*
X78835000Y-86075000D02*
X78200000Y-86075000D01*
X82645000Y-86075000D02*
X78835000Y-86075000D01*
X84550000Y-87980000D02*
X82645000Y-86075000D01*
X84550000Y-91155000D02*
X84550000Y-87980000D01*
X85820000Y-92425000D02*
X84550000Y-91155000D01*
X93440000Y-92425000D02*
X85820000Y-92425000D01*
X97250000Y-96235000D02*
X93440000Y-92425000D01*
X76930000Y-74010000D02*
X76930000Y-74010000D01*
X78200000Y-93060000D02*
X78200000Y-96235000D01*
X76930000Y-91790000D02*
X78200000Y-93060000D01*
X76930000Y-74010000D02*
X76930000Y-91790000D01*
D27*
X89630000Y-39085000D02*
X89630000Y-41625000D01*
D28*
X94710000Y-161640000D02*
X94710000Y-158465000D01*
X99715000Y-158465000D02*
X99715000Y-161640000D01*
X104715000Y-161640000D02*
X104715000Y-158465000D01*
X109950000Y-161640000D02*
X109950000Y-158465000D01*
D26*
X85185000Y-108935000D02*
X85185000Y-104490000D01*
X92170000Y-59405000D02*
X92170000Y-61945000D01*
X88995000Y-56230000D02*
X92170000Y-59405000D01*
X82645000Y-56230000D02*
X88995000Y-56230000D01*
X79470000Y-53055000D02*
X82645000Y-56230000D01*
X79470000Y-51785000D02*
X79470000Y-53055000D01*
X84550000Y-51785000D02*
X84550000Y-53055000D01*
X84550000Y-53055000D02*
X85820000Y-54325000D01*
X85820000Y-54325000D02*
X89630000Y-54325000D01*
X94710000Y-59405000D02*
X94710000Y-61945000D01*
X89630000Y-54325000D02*
X94710000Y-59405000D01*
X89630000Y-51785000D02*
X97250000Y-59405000D01*
X97250000Y-59405000D02*
X97250000Y-61945000D01*
X94710000Y-51785000D02*
X99790000Y-56865000D01*
X99790000Y-56865000D02*
X99790000Y-61945000D01*
X99790000Y-51785000D02*
X102330000Y-54325000D01*
X102330000Y-54325000D02*
X102330000Y-61945000D01*
X104870000Y-51785000D02*
X104870000Y-61945000D01*
X115030000Y-52050000D02*
X115080000Y-52000000D01*
X115080000Y-51785000D02*
X109950000Y-56915000D01*
X109950000Y-56915000D02*
X109950000Y-61945000D01*
X26130000Y-77820000D02*
X26130000Y-87980000D01*
X26130000Y-87980000D02*
X27400000Y-89250000D01*
X27400000Y-89250000D02*
X31210000Y-89250000D01*
X99790000Y-141320000D02*
X99790000Y-145765000D01*
X99790000Y-145765000D02*
X99790000Y-148305000D01*
X102330000Y-143225000D02*
X104870000Y-145765000D01*
X102330000Y-141320000D02*
X102330000Y-143225000D01*
X104870000Y-145765000D02*
X104870000Y-148305000D01*
X104870000Y-141320000D02*
X104870000Y-142590000D01*
X104870000Y-142590000D02*
X106140000Y-143860000D01*
X108045000Y-143860000D02*
X109950000Y-145765000D01*
X106140000Y-143860000D02*
X108045000Y-143860000D01*
X109950000Y-145765000D02*
X109950000Y-148305000D01*
X82010000Y-88615000D02*
X80740000Y-88615000D01*
X82645000Y-89250000D02*
X82010000Y-88615000D01*
X85185000Y-119095000D02*
X82645000Y-116555000D01*
X82645000Y-116555000D02*
X82645000Y-89250000D01*
X31210000Y-155290000D02*
X42640000Y-166720000D01*
X27400000Y-155290000D02*
X31210000Y-155290000D01*
X29940000Y-76550000D02*
X29305000Y-75915000D01*
X31210000Y-76550000D02*
X29940000Y-76550000D01*
X24860000Y-155290000D02*
X27400000Y-155290000D01*
X24225000Y-154655000D02*
X24860000Y-155290000D01*
X24225000Y-147670000D02*
X24225000Y-154655000D01*
X26130000Y-103220000D02*
X26130000Y-145765000D01*
X24225000Y-101315000D02*
X26130000Y-103220000D01*
X24225000Y-76550000D02*
X24225000Y-101315000D01*
X24860000Y-75915000D02*
X24225000Y-76550000D01*
X26130000Y-145765000D02*
X24225000Y-147670000D01*
X29305000Y-75915000D02*
X24860000Y-75915000D01*
X30575000Y-157830000D02*
X39465000Y-166720000D01*
X27400000Y-157830000D02*
X30575000Y-157830000D01*
M02*
