G04 #@! TF.GenerationSoftware,KiCad,Pcbnew,(5.1.7)-1*
G04 #@! TF.CreationDate,2020-11-15T10:54:59+01:00*
G04 #@! TF.ProjectId,Befehle,42656665-686c-4652-9e6b-696361645f70,rev?*
G04 #@! TF.SameCoordinates,Original*
G04 #@! TF.FileFunction,Soldermask,Bot*
G04 #@! TF.FilePolarity,Negative*
%FSLAX46Y46*%
G04 Gerber Fmt 4.6, Leading zero omitted, Abs format (unit mm)*
G04 Created by KiCad (PCBNEW (5.1.7)-1) date 2020-11-15 10:54:59*
%MOMM*%
%LPD*%
G01*
G04 APERTURE LIST*
%ADD10O,1.760000X2.560000*%
%ADD11O,2.350000X1.900000*%
%ADD12C,3.660000*%
%ADD13O,1.960000X1.960000*%
%ADD14O,1.760000X1.760000*%
%ADD15C,1.760000*%
%ADD16C,1.960000*%
%ADD17O,1.860000X1.860000*%
%ADD18O,2.560000X1.760000*%
%ADD19O,1.900000X2.350000*%
%ADD20C,0.100000*%
G04 APERTURE END LIST*
D10*
X109950000Y-141320000D03*
X87090000Y-133700000D03*
X107410000Y-141320000D03*
X89630000Y-133700000D03*
X104870000Y-141320000D03*
X92170000Y-133700000D03*
X102330000Y-141320000D03*
X94710000Y-133700000D03*
X99790000Y-141320000D03*
X97250000Y-133700000D03*
X97250000Y-141320000D03*
X99790000Y-133700000D03*
X94710000Y-141320000D03*
X102330000Y-133700000D03*
X92170000Y-141320000D03*
X104870000Y-133700000D03*
X89630000Y-141320000D03*
X107410000Y-133700000D03*
X87090000Y-141320000D03*
G36*
G01*
X109150000Y-132420000D02*
X110750000Y-132420000D01*
G75*
G02*
X110830000Y-132500000I0J-80000D01*
G01*
X110830000Y-134900000D01*
G75*
G02*
X110750000Y-134980000I-80000J0D01*
G01*
X109150000Y-134980000D01*
G75*
G02*
X109070000Y-134900000I0J80000D01*
G01*
X109070000Y-132500000D01*
G75*
G02*
X109150000Y-132420000I80000J0D01*
G01*
G37*
X57880000Y-88615000D03*
X80740000Y-96235000D03*
X60420000Y-88615000D03*
X78200000Y-96235000D03*
X62960000Y-88615000D03*
X75660000Y-96235000D03*
X65500000Y-88615000D03*
X73120000Y-96235000D03*
X68040000Y-88615000D03*
X70580000Y-96235000D03*
X70580000Y-88615000D03*
X68040000Y-96235000D03*
X73120000Y-88615000D03*
X65500000Y-96235000D03*
X75660000Y-88615000D03*
X62960000Y-96235000D03*
X78200000Y-88615000D03*
X60420000Y-96235000D03*
X80740000Y-88615000D03*
G36*
G01*
X58680000Y-97515000D02*
X57080000Y-97515000D01*
G75*
G02*
X57000000Y-97435000I0J80000D01*
G01*
X57000000Y-95035000D01*
G75*
G02*
X57080000Y-94955000I80000J0D01*
G01*
X58680000Y-94955000D01*
G75*
G02*
X58760000Y-95035000I0J-80000D01*
G01*
X58760000Y-97435000D01*
G75*
G02*
X58680000Y-97515000I-80000J0D01*
G01*
G37*
X87090000Y-61945000D03*
X109950000Y-69565000D03*
X89630000Y-61945000D03*
X107410000Y-69565000D03*
X92170000Y-61945000D03*
X104870000Y-69565000D03*
X94710000Y-61945000D03*
X102330000Y-69565000D03*
X97250000Y-61945000D03*
X99790000Y-69565000D03*
X99790000Y-61945000D03*
X97250000Y-69565000D03*
X102330000Y-61945000D03*
X94710000Y-69565000D03*
X104870000Y-61945000D03*
X92170000Y-69565000D03*
X107410000Y-61945000D03*
X89630000Y-69565000D03*
X109950000Y-61945000D03*
G36*
G01*
X87890000Y-70845000D02*
X86290000Y-70845000D01*
G75*
G02*
X86210000Y-70765000I0J80000D01*
G01*
X86210000Y-68365000D01*
G75*
G02*
X86290000Y-68285000I80000J0D01*
G01*
X87890000Y-68285000D01*
G75*
G02*
X87970000Y-68365000I0J-80000D01*
G01*
X87970000Y-70765000D01*
G75*
G02*
X87890000Y-70845000I-80000J0D01*
G01*
G37*
X55340000Y-61945000D03*
X78200000Y-69565000D03*
X57880000Y-61945000D03*
X75660000Y-69565000D03*
X60420000Y-61945000D03*
X73120000Y-69565000D03*
X62960000Y-61945000D03*
X70580000Y-69565000D03*
X65500000Y-61945000D03*
X68040000Y-69565000D03*
X68040000Y-61945000D03*
X65500000Y-69565000D03*
X70580000Y-61945000D03*
X62960000Y-69565000D03*
X73120000Y-61945000D03*
X60420000Y-69565000D03*
X75660000Y-61945000D03*
X57880000Y-69565000D03*
X78200000Y-61945000D03*
G36*
G01*
X56140000Y-70845000D02*
X54540000Y-70845000D01*
G75*
G02*
X54460000Y-70765000I0J80000D01*
G01*
X54460000Y-68365000D01*
G75*
G02*
X54540000Y-68285000I80000J0D01*
G01*
X56140000Y-68285000D01*
G75*
G02*
X56220000Y-68365000I0J-80000D01*
G01*
X56220000Y-70765000D01*
G75*
G02*
X56140000Y-70845000I-80000J0D01*
G01*
G37*
D11*
X27400000Y-150210000D03*
X27400000Y-152750000D03*
X27400000Y-155290000D03*
G36*
G01*
X28302013Y-158780000D02*
X26497987Y-158780000D01*
G75*
G02*
X26225000Y-158507013I0J272987D01*
G01*
X26225000Y-157152987D01*
G75*
G02*
X26497987Y-156880000I272987J0D01*
G01*
X28302013Y-156880000D01*
G75*
G02*
X28575000Y-157152987I0J-272987D01*
G01*
X28575000Y-158507013D01*
G75*
G02*
X28302013Y-158780000I-272987J0D01*
G01*
G37*
D12*
X23510000Y-175035000D03*
X113510000Y-175035000D03*
X113510000Y-25035000D03*
X23510000Y-25035000D03*
D13*
X58515000Y-26385000D03*
G36*
G01*
X47375000Y-27285000D02*
X47375000Y-25485000D01*
G75*
G02*
X47455000Y-25405000I80000J0D01*
G01*
X49255000Y-25405000D01*
G75*
G02*
X49335000Y-25485000I0J-80000D01*
G01*
X49335000Y-27285000D01*
G75*
G02*
X49255000Y-27365000I-80000J0D01*
G01*
X47455000Y-27365000D01*
G75*
G02*
X47375000Y-27285000I0J80000D01*
G01*
G37*
D14*
X109950000Y-148305000D03*
D15*
X109950000Y-158465000D03*
D16*
X111220000Y-126188949D03*
G36*
G01*
X109367380Y-129314361D02*
X108094588Y-128041569D01*
G75*
G02*
X108094588Y-127928431I56569J56569D01*
G01*
X109367380Y-126655639D01*
G75*
G02*
X109480518Y-126655639I56569J-56569D01*
G01*
X110753310Y-127928431D01*
G75*
G02*
X110753310Y-128041569I-56569J-56569D01*
G01*
X109480518Y-129314361D01*
G75*
G02*
X109367380Y-129314361I-56569J56569D01*
G01*
G37*
X103600000Y-122378949D03*
G36*
G01*
X101747380Y-125504361D02*
X100474588Y-124231569D01*
G75*
G02*
X100474588Y-124118431I56569J56569D01*
G01*
X101747380Y-122845639D01*
G75*
G02*
X101860518Y-122845639I56569J-56569D01*
G01*
X103133310Y-124118431D01*
G75*
G02*
X103133310Y-124231569I-56569J-56569D01*
G01*
X101860518Y-125504361D01*
G75*
G02*
X101747380Y-125504361I-56569J56569D01*
G01*
G37*
X107410000Y-126188949D03*
G36*
G01*
X105557380Y-129314361D02*
X104284588Y-128041569D01*
G75*
G02*
X104284588Y-127928431I56569J56569D01*
G01*
X105557380Y-126655639D01*
G75*
G02*
X105670518Y-126655639I56569J-56569D01*
G01*
X106943310Y-127928431D01*
G75*
G02*
X106943310Y-128041569I-56569J-56569D01*
G01*
X105670518Y-129314361D01*
G75*
G02*
X105557380Y-129314361I-56569J56569D01*
G01*
G37*
D17*
X60420000Y-173070000D03*
X60420000Y-170530000D03*
X62960000Y-173070000D03*
X62960000Y-170530000D03*
X65500000Y-173070000D03*
X65500000Y-170530000D03*
X68040000Y-173070000D03*
X68040000Y-170530000D03*
X70580000Y-173070000D03*
X70580000Y-170530000D03*
X73120000Y-173070000D03*
X73120000Y-170530000D03*
X75660000Y-173070000D03*
X75660000Y-170530000D03*
X78200000Y-173070000D03*
X78200000Y-170530000D03*
X80740000Y-173070000D03*
X80740000Y-170530000D03*
X83280000Y-173070000D03*
G36*
G01*
X82430000Y-169600000D02*
X84130000Y-169600000D01*
G75*
G02*
X84210000Y-169680000I0J-80000D01*
G01*
X84210000Y-171380000D01*
G75*
G02*
X84130000Y-171460000I-80000J0D01*
G01*
X82430000Y-171460000D01*
G75*
G02*
X82350000Y-171380000I0J80000D01*
G01*
X82350000Y-169680000D01*
G75*
G02*
X82430000Y-169600000I80000J0D01*
G01*
G37*
D10*
X92170000Y-88615000D03*
X109950000Y-96235000D03*
X94710000Y-88615000D03*
X107410000Y-96235000D03*
X97250000Y-88615000D03*
X104870000Y-96235000D03*
X99790000Y-88615000D03*
X102330000Y-96235000D03*
X102330000Y-88615000D03*
X99790000Y-96235000D03*
X104870000Y-88615000D03*
X97250000Y-96235000D03*
X107410000Y-88615000D03*
X94710000Y-96235000D03*
X109950000Y-88615000D03*
G36*
G01*
X92970000Y-97515000D02*
X91370000Y-97515000D01*
G75*
G02*
X91290000Y-97435000I0J80000D01*
G01*
X91290000Y-95035000D01*
G75*
G02*
X91370000Y-94955000I80000J0D01*
G01*
X92970000Y-94955000D01*
G75*
G02*
X93050000Y-95035000I0J-80000D01*
G01*
X93050000Y-97435000D01*
G75*
G02*
X92970000Y-97515000I-80000J0D01*
G01*
G37*
D18*
X38830000Y-76550000D03*
X31210000Y-91790000D03*
X38830000Y-79090000D03*
X31210000Y-89250000D03*
X38830000Y-81630000D03*
X31210000Y-86710000D03*
X38830000Y-84170000D03*
X31210000Y-84170000D03*
X38830000Y-86710000D03*
X31210000Y-81630000D03*
X38830000Y-89250000D03*
X31210000Y-79090000D03*
X38830000Y-91790000D03*
G36*
G01*
X29930000Y-77350000D02*
X29930000Y-75750000D01*
G75*
G02*
X30010000Y-75670000I80000J0D01*
G01*
X32410000Y-75670000D01*
G75*
G02*
X32490000Y-75750000I0J-80000D01*
G01*
X32490000Y-77350000D01*
G75*
G02*
X32410000Y-77430000I-80000J0D01*
G01*
X30010000Y-77430000D01*
G75*
G02*
X29930000Y-77350000I0J80000D01*
G01*
G37*
D14*
X99790000Y-107665000D03*
X102330000Y-107665000D03*
X104870000Y-107665000D03*
X107410000Y-107665000D03*
G36*
G01*
X110830000Y-106865000D02*
X110830000Y-108465000D01*
G75*
G02*
X110750000Y-108545000I-80000J0D01*
G01*
X109150000Y-108545000D01*
G75*
G02*
X109070000Y-108465000I0J80000D01*
G01*
X109070000Y-106865000D01*
G75*
G02*
X109150000Y-106785000I80000J0D01*
G01*
X110750000Y-106785000D01*
G75*
G02*
X110830000Y-106865000I0J-80000D01*
G01*
G37*
X115030000Y-41625000D03*
D15*
X115030000Y-51785000D03*
D14*
X104870000Y-148305000D03*
D15*
X104870000Y-158465000D03*
D14*
X109950000Y-41625000D03*
D15*
X109950000Y-51785000D03*
D14*
X104870000Y-41625000D03*
D15*
X104870000Y-51785000D03*
D14*
X99790000Y-41625000D03*
D15*
X99790000Y-51785000D03*
D14*
X94710000Y-41625000D03*
D15*
X94710000Y-51785000D03*
D14*
X89630000Y-41625000D03*
D15*
X89630000Y-51785000D03*
D14*
X99790000Y-148305000D03*
D15*
X99790000Y-158465000D03*
D14*
X84550000Y-41625000D03*
D15*
X84550000Y-51785000D03*
D14*
X79470000Y-41625000D03*
D15*
X79470000Y-51785000D03*
D14*
X94710000Y-148305000D03*
D15*
X94710000Y-158465000D03*
D14*
X85185000Y-119095000D03*
D15*
X85185000Y-108935000D03*
D14*
X45815000Y-176880000D03*
D15*
X45815000Y-166720000D03*
D14*
X26130000Y-77820000D03*
D15*
X26130000Y-67660000D03*
D14*
X39465000Y-176880000D03*
D15*
X39465000Y-166720000D03*
D14*
X48990000Y-176880000D03*
D15*
X48990000Y-166720000D03*
D14*
X59150000Y-155925000D03*
D15*
X59150000Y-145765000D03*
D14*
X42640000Y-166720000D03*
D15*
X42640000Y-176880000D03*
D19*
X33115000Y-26385000D03*
G36*
G01*
X29625000Y-27287013D02*
X29625000Y-25482987D01*
G75*
G02*
X29897987Y-25210000I272987J0D01*
G01*
X31252013Y-25210000D01*
G75*
G02*
X31525000Y-25482987I0J-272987D01*
G01*
X31525000Y-27287013D01*
G75*
G02*
X31252013Y-27560000I-272987J0D01*
G01*
X29897987Y-27560000D01*
G75*
G02*
X29625000Y-27287013I0J272987D01*
G01*
G37*
X92170000Y-174340000D03*
X94710000Y-174340000D03*
X97250000Y-174340000D03*
G36*
G01*
X100740000Y-173437987D02*
X100740000Y-175242013D01*
G75*
G02*
X100467013Y-175515000I-272987J0D01*
G01*
X99112987Y-175515000D01*
G75*
G02*
X98840000Y-175242013I0J272987D01*
G01*
X98840000Y-173437987D01*
G75*
G02*
X99112987Y-173165000I272987J0D01*
G01*
X100467013Y-173165000D01*
G75*
G02*
X100740000Y-173437987I0J-272987D01*
G01*
G37*
D11*
X27400000Y-163545000D03*
G36*
G01*
X28302013Y-167035000D02*
X26497987Y-167035000D01*
G75*
G02*
X26225000Y-166762013I0J272987D01*
G01*
X26225000Y-165407987D01*
G75*
G02*
X26497987Y-165135000I272987J0D01*
G01*
X28302013Y-165135000D01*
G75*
G02*
X28575000Y-165407987I0J-272987D01*
G01*
X28575000Y-166762013D01*
G75*
G02*
X28302013Y-167035000I-272987J0D01*
G01*
G37*
G36*
G01*
X24565000Y-34220000D02*
X24565000Y-32520000D01*
G75*
G02*
X24645000Y-32440000I80000J0D01*
G01*
X26345000Y-32440000D01*
G75*
G02*
X26425000Y-32520000I0J-80000D01*
G01*
X26425000Y-34220000D01*
G75*
G02*
X26345000Y-34300000I-80000J0D01*
G01*
X24645000Y-34300000D01*
G75*
G02*
X24565000Y-34220000I0J80000D01*
G01*
G37*
D17*
X28035000Y-33370000D03*
X25495000Y-35910000D03*
X28035000Y-35910000D03*
X25495000Y-38450000D03*
X28035000Y-38450000D03*
X25495000Y-40990000D03*
X28035000Y-40990000D03*
X25495000Y-43530000D03*
X28035000Y-43530000D03*
X25495000Y-46070000D03*
X28035000Y-46070000D03*
X25495000Y-48610000D03*
X28035000Y-48610000D03*
X25495000Y-51150000D03*
X28035000Y-51150000D03*
X25495000Y-53690000D03*
X28035000Y-53690000D03*
X25495000Y-56230000D03*
X28035000Y-56230000D03*
D16*
X109950000Y-164180000D03*
G36*
G01*
X109050000Y-160660000D02*
X110850000Y-160660000D01*
G75*
G02*
X110930000Y-160740000I0J-80000D01*
G01*
X110930000Y-162540000D01*
G75*
G02*
X110850000Y-162620000I-80000J0D01*
G01*
X109050000Y-162620000D01*
G75*
G02*
X108970000Y-162540000I0J80000D01*
G01*
X108970000Y-160740000D01*
G75*
G02*
X109050000Y-160660000I80000J0D01*
G01*
G37*
X115030000Y-36545000D03*
G36*
G01*
X115930000Y-40065000D02*
X114130000Y-40065000D01*
G75*
G02*
X114050000Y-39985000I0J80000D01*
G01*
X114050000Y-38185000D01*
G75*
G02*
X114130000Y-38105000I80000J0D01*
G01*
X115930000Y-38105000D01*
G75*
G02*
X116010000Y-38185000I0J-80000D01*
G01*
X116010000Y-39985000D01*
G75*
G02*
X115930000Y-40065000I-80000J0D01*
G01*
G37*
X104715000Y-164180000D03*
G36*
G01*
X103815000Y-160660000D02*
X105615000Y-160660000D01*
G75*
G02*
X105695000Y-160740000I0J-80000D01*
G01*
X105695000Y-162540000D01*
G75*
G02*
X105615000Y-162620000I-80000J0D01*
G01*
X103815000Y-162620000D01*
G75*
G02*
X103735000Y-162540000I0J80000D01*
G01*
X103735000Y-160740000D01*
G75*
G02*
X103815000Y-160660000I80000J0D01*
G01*
G37*
X109950000Y-36545000D03*
G36*
G01*
X110850000Y-40065000D02*
X109050000Y-40065000D01*
G75*
G02*
X108970000Y-39985000I0J80000D01*
G01*
X108970000Y-38185000D01*
G75*
G02*
X109050000Y-38105000I80000J0D01*
G01*
X110850000Y-38105000D01*
G75*
G02*
X110930000Y-38185000I0J-80000D01*
G01*
X110930000Y-39985000D01*
G75*
G02*
X110850000Y-40065000I-80000J0D01*
G01*
G37*
X104870000Y-36545000D03*
G36*
G01*
X105770000Y-40065000D02*
X103970000Y-40065000D01*
G75*
G02*
X103890000Y-39985000I0J80000D01*
G01*
X103890000Y-38185000D01*
G75*
G02*
X103970000Y-38105000I80000J0D01*
G01*
X105770000Y-38105000D01*
G75*
G02*
X105850000Y-38185000I0J-80000D01*
G01*
X105850000Y-39985000D01*
G75*
G02*
X105770000Y-40065000I-80000J0D01*
G01*
G37*
X99790000Y-36545000D03*
G36*
G01*
X100690000Y-40065000D02*
X98890000Y-40065000D01*
G75*
G02*
X98810000Y-39985000I0J80000D01*
G01*
X98810000Y-38185000D01*
G75*
G02*
X98890000Y-38105000I80000J0D01*
G01*
X100690000Y-38105000D01*
G75*
G02*
X100770000Y-38185000I0J-80000D01*
G01*
X100770000Y-39985000D01*
G75*
G02*
X100690000Y-40065000I-80000J0D01*
G01*
G37*
X94710000Y-36545000D03*
G36*
G01*
X95610000Y-40065000D02*
X93810000Y-40065000D01*
G75*
G02*
X93730000Y-39985000I0J80000D01*
G01*
X93730000Y-38185000D01*
G75*
G02*
X93810000Y-38105000I80000J0D01*
G01*
X95610000Y-38105000D01*
G75*
G02*
X95690000Y-38185000I0J-80000D01*
G01*
X95690000Y-39985000D01*
G75*
G02*
X95610000Y-40065000I-80000J0D01*
G01*
G37*
X89630000Y-36545000D03*
G36*
G01*
X90530000Y-40065000D02*
X88730000Y-40065000D01*
G75*
G02*
X88650000Y-39985000I0J80000D01*
G01*
X88650000Y-38185000D01*
G75*
G02*
X88730000Y-38105000I80000J0D01*
G01*
X90530000Y-38105000D01*
G75*
G02*
X90610000Y-38185000I0J-80000D01*
G01*
X90610000Y-39985000D01*
G75*
G02*
X90530000Y-40065000I-80000J0D01*
G01*
G37*
X99715000Y-164180000D03*
G36*
G01*
X98815000Y-160660000D02*
X100615000Y-160660000D01*
G75*
G02*
X100695000Y-160740000I0J-80000D01*
G01*
X100695000Y-162540000D01*
G75*
G02*
X100615000Y-162620000I-80000J0D01*
G01*
X98815000Y-162620000D01*
G75*
G02*
X98735000Y-162540000I0J80000D01*
G01*
X98735000Y-160740000D01*
G75*
G02*
X98815000Y-160660000I80000J0D01*
G01*
G37*
X84550000Y-36545000D03*
G36*
G01*
X85450000Y-40065000D02*
X83650000Y-40065000D01*
G75*
G02*
X83570000Y-39985000I0J80000D01*
G01*
X83570000Y-38185000D01*
G75*
G02*
X83650000Y-38105000I80000J0D01*
G01*
X85450000Y-38105000D01*
G75*
G02*
X85530000Y-38185000I0J-80000D01*
G01*
X85530000Y-39985000D01*
G75*
G02*
X85450000Y-40065000I-80000J0D01*
G01*
G37*
X79470000Y-36545000D03*
G36*
G01*
X80370000Y-40065000D02*
X78570000Y-40065000D01*
G75*
G02*
X78490000Y-39985000I0J80000D01*
G01*
X78490000Y-38185000D01*
G75*
G02*
X78570000Y-38105000I80000J0D01*
G01*
X80370000Y-38105000D01*
G75*
G02*
X80450000Y-38185000I0J-80000D01*
G01*
X80450000Y-39985000D01*
G75*
G02*
X80370000Y-40065000I-80000J0D01*
G01*
G37*
X94710000Y-164180000D03*
G36*
G01*
X93810000Y-160660000D02*
X95610000Y-160660000D01*
G75*
G02*
X95690000Y-160740000I0J-80000D01*
G01*
X95690000Y-162540000D01*
G75*
G02*
X95610000Y-162620000I-80000J0D01*
G01*
X93810000Y-162620000D01*
G75*
G02*
X93730000Y-162540000I0J80000D01*
G01*
X93730000Y-160740000D01*
G75*
G02*
X93810000Y-160660000I80000J0D01*
G01*
G37*
X85185000Y-104490000D03*
G36*
G01*
X88705000Y-103590000D02*
X88705000Y-105390000D01*
G75*
G02*
X88625000Y-105470000I-80000J0D01*
G01*
X86825000Y-105470000D01*
G75*
G02*
X86745000Y-105390000I0J80000D01*
G01*
X86745000Y-103590000D01*
G75*
G02*
X86825000Y-103510000I80000J0D01*
G01*
X88625000Y-103510000D01*
G75*
G02*
X88705000Y-103590000I0J-80000D01*
G01*
G37*
X26130000Y-62580000D03*
G36*
G01*
X27030000Y-66100000D02*
X25230000Y-66100000D01*
G75*
G02*
X25150000Y-66020000I0J80000D01*
G01*
X25150000Y-64220000D01*
G75*
G02*
X25230000Y-64140000I80000J0D01*
G01*
X27030000Y-64140000D01*
G75*
G02*
X27110000Y-64220000I0J-80000D01*
G01*
X27110000Y-66020000D01*
G75*
G02*
X27030000Y-66100000I-80000J0D01*
G01*
G37*
X59150000Y-140685000D03*
G36*
G01*
X60050000Y-144205000D02*
X58250000Y-144205000D01*
G75*
G02*
X58170000Y-144125000I0J80000D01*
G01*
X58170000Y-142325000D01*
G75*
G02*
X58250000Y-142245000I80000J0D01*
G01*
X60050000Y-142245000D01*
G75*
G02*
X60130000Y-142325000I0J-80000D01*
G01*
X60130000Y-144125000D01*
G75*
G02*
X60050000Y-144205000I-80000J0D01*
G01*
G37*
D18*
X54070000Y-142590000D03*
X46450000Y-157830000D03*
X54070000Y-145130000D03*
X46450000Y-155290000D03*
X54070000Y-147670000D03*
X46450000Y-152750000D03*
X54070000Y-150210000D03*
X46450000Y-150210000D03*
X54070000Y-152750000D03*
X46450000Y-147670000D03*
X54070000Y-155290000D03*
X46450000Y-145130000D03*
X54070000Y-157830000D03*
G36*
G01*
X45170000Y-143390000D02*
X45170000Y-141790000D01*
G75*
G02*
X45250000Y-141710000I80000J0D01*
G01*
X47650000Y-141710000D01*
G75*
G02*
X47730000Y-141790000I0J-80000D01*
G01*
X47730000Y-143390000D01*
G75*
G02*
X47650000Y-143470000I-80000J0D01*
G01*
X45250000Y-143470000D01*
G75*
G02*
X45170000Y-143390000I0J80000D01*
G01*
G37*
D15*
X32480000Y-72105000D03*
X37480000Y-72105000D03*
D18*
X38830000Y-113380000D03*
X31210000Y-128620000D03*
X38830000Y-115920000D03*
X31210000Y-126080000D03*
X38830000Y-118460000D03*
X31210000Y-123540000D03*
X38830000Y-121000000D03*
X31210000Y-121000000D03*
X38830000Y-123540000D03*
X31210000Y-118460000D03*
X38830000Y-126080000D03*
X31210000Y-115920000D03*
X38830000Y-128620000D03*
G36*
G01*
X29930000Y-114180000D02*
X29930000Y-112580000D01*
G75*
G02*
X30010000Y-112500000I80000J0D01*
G01*
X32410000Y-112500000D01*
G75*
G02*
X32490000Y-112580000I0J-80000D01*
G01*
X32490000Y-114180000D01*
G75*
G02*
X32410000Y-114260000I-80000J0D01*
G01*
X30010000Y-114260000D01*
G75*
G02*
X29930000Y-114180000I0J80000D01*
G01*
G37*
X54021740Y-113380000D03*
X46401740Y-128620000D03*
X54021740Y-115920000D03*
X46401740Y-126080000D03*
X54021740Y-118460000D03*
X46401740Y-123540000D03*
X54021740Y-121000000D03*
X46401740Y-121000000D03*
X54021740Y-123540000D03*
X46401740Y-118460000D03*
X54021740Y-126080000D03*
X46401740Y-115920000D03*
X54021740Y-128620000D03*
G36*
G01*
X45121740Y-114180000D02*
X45121740Y-112580000D01*
G75*
G02*
X45201740Y-112500000I80000J0D01*
G01*
X47601740Y-112500000D01*
G75*
G02*
X47681740Y-112580000I0J-80000D01*
G01*
X47681740Y-114180000D01*
G75*
G02*
X47601740Y-114260000I-80000J0D01*
G01*
X45201740Y-114260000D01*
G75*
G02*
X45121740Y-114180000I0J80000D01*
G01*
G37*
D16*
X103600000Y-126188949D03*
G36*
G01*
X101747380Y-129314361D02*
X100474588Y-128041569D01*
G75*
G02*
X100474588Y-127928431I56569J56569D01*
G01*
X101747380Y-126655639D01*
G75*
G02*
X101860518Y-126655639I56569J-56569D01*
G01*
X103133310Y-127928431D01*
G75*
G02*
X103133310Y-128041569I-56569J-56569D01*
G01*
X101860518Y-129314361D01*
G75*
G02*
X101747380Y-129314361I-56569J56569D01*
G01*
G37*
X99790000Y-126188949D03*
G36*
G01*
X97937380Y-129314361D02*
X96664588Y-128041569D01*
G75*
G02*
X96664588Y-127928431I56569J56569D01*
G01*
X97937380Y-126655639D01*
G75*
G02*
X98050518Y-126655639I56569J-56569D01*
G01*
X99323310Y-127928431D01*
G75*
G02*
X99323310Y-128041569I-56569J-56569D01*
G01*
X98050518Y-129314361D01*
G75*
G02*
X97937380Y-129314361I-56569J56569D01*
G01*
G37*
X111220000Y-122378949D03*
G36*
G01*
X109367380Y-125504361D02*
X108094588Y-124231569D01*
G75*
G02*
X108094588Y-124118431I56569J56569D01*
G01*
X109367380Y-122845639D01*
G75*
G02*
X109480518Y-122845639I56569J-56569D01*
G01*
X110753310Y-124118431D01*
G75*
G02*
X110753310Y-124231569I-56569J-56569D01*
G01*
X109480518Y-125504361D01*
G75*
G02*
X109367380Y-125504361I-56569J56569D01*
G01*
G37*
X107410000Y-122378949D03*
G36*
G01*
X105557380Y-125504361D02*
X104284588Y-124231569D01*
G75*
G02*
X104284588Y-124118431I56569J56569D01*
G01*
X105557380Y-122845639D01*
G75*
G02*
X105670518Y-122845639I56569J-56569D01*
G01*
X106943310Y-124118431D01*
G75*
G02*
X106943310Y-124231569I-56569J-56569D01*
G01*
X105670518Y-125504361D01*
G75*
G02*
X105557380Y-125504361I-56569J56569D01*
G01*
G37*
X111220000Y-118568949D03*
G36*
G01*
X109367380Y-121694361D02*
X108094588Y-120421569D01*
G75*
G02*
X108094588Y-120308431I56569J56569D01*
G01*
X109367380Y-119035639D01*
G75*
G02*
X109480518Y-119035639I56569J-56569D01*
G01*
X110753310Y-120308431D01*
G75*
G02*
X110753310Y-120421569I-56569J-56569D01*
G01*
X109480518Y-121694361D01*
G75*
G02*
X109367380Y-121694361I-56569J56569D01*
G01*
G37*
X107410000Y-118568949D03*
G36*
G01*
X105557380Y-121694361D02*
X104284588Y-120421569D01*
G75*
G02*
X104284588Y-120308431I56569J56569D01*
G01*
X105557380Y-119035639D01*
G75*
G02*
X105670518Y-119035639I56569J-56569D01*
G01*
X106943310Y-120308431D01*
G75*
G02*
X106943310Y-120421569I-56569J-56569D01*
G01*
X105670518Y-121694361D01*
G75*
G02*
X105557380Y-121694361I-56569J56569D01*
G01*
G37*
X103600000Y-118568949D03*
G36*
G01*
X101747380Y-121694361D02*
X100474588Y-120421569D01*
G75*
G02*
X100474588Y-120308431I56569J56569D01*
G01*
X101747380Y-119035639D01*
G75*
G02*
X101860518Y-119035639I56569J-56569D01*
G01*
X103133310Y-120308431D01*
G75*
G02*
X103133310Y-120421569I-56569J-56569D01*
G01*
X101860518Y-121694361D01*
G75*
G02*
X101747380Y-121694361I-56569J56569D01*
G01*
G37*
X111220000Y-114758949D03*
G36*
G01*
X109367380Y-117884361D02*
X108094588Y-116611569D01*
G75*
G02*
X108094588Y-116498431I56569J56569D01*
G01*
X109367380Y-115225639D01*
G75*
G02*
X109480518Y-115225639I56569J-56569D01*
G01*
X110753310Y-116498431D01*
G75*
G02*
X110753310Y-116611569I-56569J-56569D01*
G01*
X109480518Y-117884361D01*
G75*
G02*
X109367380Y-117884361I-56569J56569D01*
G01*
G37*
X107410000Y-114758949D03*
G36*
G01*
X105557380Y-117884361D02*
X104284588Y-116611569D01*
G75*
G02*
X104284588Y-116498431I56569J56569D01*
G01*
X105557380Y-115225639D01*
G75*
G02*
X105670518Y-115225639I56569J-56569D01*
G01*
X106943310Y-116498431D01*
G75*
G02*
X106943310Y-116611569I-56569J-56569D01*
G01*
X105670518Y-117884361D01*
G75*
G02*
X105557380Y-117884361I-56569J56569D01*
G01*
G37*
X99790000Y-122378949D03*
G36*
G01*
X97937380Y-125504361D02*
X96664588Y-124231569D01*
G75*
G02*
X96664588Y-124118431I56569J56569D01*
G01*
X97937380Y-122845639D01*
G75*
G02*
X98050518Y-122845639I56569J-56569D01*
G01*
X99323310Y-124118431D01*
G75*
G02*
X99323310Y-124231569I-56569J-56569D01*
G01*
X98050518Y-125504361D01*
G75*
G02*
X97937380Y-125504361I-56569J56569D01*
G01*
G37*
X103600000Y-114758949D03*
G36*
G01*
X101747380Y-117884361D02*
X100474588Y-116611569D01*
G75*
G02*
X100474588Y-116498431I56569J56569D01*
G01*
X101747380Y-115225639D01*
G75*
G02*
X101860518Y-115225639I56569J-56569D01*
G01*
X103133310Y-116498431D01*
G75*
G02*
X103133310Y-116611569I-56569J-56569D01*
G01*
X101860518Y-117884361D01*
G75*
G02*
X101747380Y-117884361I-56569J56569D01*
G01*
G37*
X99790000Y-118568949D03*
G36*
G01*
X97937380Y-121694361D02*
X96664588Y-120421569D01*
G75*
G02*
X96664588Y-120308431I56569J56569D01*
G01*
X97937380Y-119035639D01*
G75*
G02*
X98050518Y-119035639I56569J-56569D01*
G01*
X99323310Y-120308431D01*
G75*
G02*
X99323310Y-120421569I-56569J-56569D01*
G01*
X98050518Y-121694361D01*
G75*
G02*
X97937380Y-121694361I-56569J56569D01*
G01*
G37*
X99790000Y-114758949D03*
G36*
G01*
X97937380Y-117884361D02*
X96664588Y-116611569D01*
G75*
G02*
X96664588Y-116498431I56569J56569D01*
G01*
X97937380Y-115225639D01*
G75*
G02*
X98050518Y-115225639I56569J-56569D01*
G01*
X99323310Y-116498431D01*
G75*
G02*
X99323310Y-116611569I-56569J-56569D01*
G01*
X98050518Y-117884361D01*
G75*
G02*
X97937380Y-117884361I-56569J56569D01*
G01*
G37*
D15*
X41370000Y-28885000D03*
G36*
G01*
X40570000Y-25505000D02*
X42170000Y-25505000D01*
G75*
G02*
X42250000Y-25585000I0J-80000D01*
G01*
X42250000Y-27185000D01*
G75*
G02*
X42170000Y-27265000I-80000J0D01*
G01*
X40570000Y-27265000D01*
G75*
G02*
X40490000Y-27185000I0J80000D01*
G01*
X40490000Y-25585000D01*
G75*
G02*
X40570000Y-25505000I80000J0D01*
G01*
G37*
X47720000Y-138780000D03*
X52720000Y-138780000D03*
X32560000Y-109570000D03*
X37560000Y-109570000D03*
X47800000Y-109570000D03*
X52800000Y-109570000D03*
X83280000Y-135050000D03*
X83280000Y-140050000D03*
X54070000Y-94885000D03*
X54070000Y-89885000D03*
X87725000Y-94885000D03*
X87725000Y-89885000D03*
X83280000Y-68215000D03*
X83280000Y-63215000D03*
X51530000Y-68215000D03*
X51530000Y-63215000D03*
D20*
G36*
X98841990Y-175241817D02*
G01*
X98847215Y-175294875D01*
X98862637Y-175345712D01*
X98887678Y-175392560D01*
X98921377Y-175433623D01*
X98962440Y-175467322D01*
X99009288Y-175492363D01*
X99060125Y-175507785D01*
X99113183Y-175513010D01*
X99114809Y-175514175D01*
X99114613Y-175516165D01*
X99112987Y-175517000D01*
X99028718Y-175517000D01*
X99028522Y-175516990D01*
X98986810Y-175512882D01*
X98986425Y-175512806D01*
X98952301Y-175502454D01*
X98951939Y-175502304D01*
X98920500Y-175485500D01*
X98920174Y-175485282D01*
X98892613Y-175462664D01*
X98892336Y-175462387D01*
X98869718Y-175434826D01*
X98869500Y-175434500D01*
X98852696Y-175403061D01*
X98852546Y-175402699D01*
X98842194Y-175368575D01*
X98842118Y-175368190D01*
X98838010Y-175326478D01*
X98838000Y-175326282D01*
X98838000Y-175242013D01*
X98839000Y-175240281D01*
X98841000Y-175240281D01*
X98841990Y-175241817D01*
G37*
G36*
X100741165Y-175240387D02*
G01*
X100742000Y-175242013D01*
X100742000Y-175326282D01*
X100741990Y-175326478D01*
X100737882Y-175368190D01*
X100737806Y-175368575D01*
X100727454Y-175402699D01*
X100727304Y-175403061D01*
X100710500Y-175434500D01*
X100710282Y-175434826D01*
X100687664Y-175462387D01*
X100687387Y-175462664D01*
X100659826Y-175485282D01*
X100659500Y-175485500D01*
X100628061Y-175502304D01*
X100627699Y-175502454D01*
X100593575Y-175512806D01*
X100593190Y-175512882D01*
X100551478Y-175516990D01*
X100551282Y-175517000D01*
X100467013Y-175517000D01*
X100465281Y-175516000D01*
X100465281Y-175514000D01*
X100466817Y-175513010D01*
X100519875Y-175507785D01*
X100570712Y-175492363D01*
X100617560Y-175467322D01*
X100658623Y-175433623D01*
X100692322Y-175392560D01*
X100717363Y-175345712D01*
X100732785Y-175294875D01*
X100738010Y-175241817D01*
X100739175Y-175240191D01*
X100741165Y-175240387D01*
G37*
G36*
X99114719Y-173164000D02*
G01*
X99114719Y-173166000D01*
X99113183Y-173166990D01*
X99060125Y-173172215D01*
X99009288Y-173187637D01*
X98962440Y-173212678D01*
X98921377Y-173246377D01*
X98887678Y-173287440D01*
X98862637Y-173334288D01*
X98847215Y-173385125D01*
X98841990Y-173438183D01*
X98840825Y-173439809D01*
X98838835Y-173439613D01*
X98838000Y-173437987D01*
X98838000Y-173353718D01*
X98838010Y-173353522D01*
X98842118Y-173311810D01*
X98842194Y-173311425D01*
X98852546Y-173277301D01*
X98852696Y-173276939D01*
X98869500Y-173245500D01*
X98869718Y-173245174D01*
X98892336Y-173217613D01*
X98892613Y-173217336D01*
X98920174Y-173194718D01*
X98920500Y-173194500D01*
X98951939Y-173177696D01*
X98952301Y-173177546D01*
X98986425Y-173167194D01*
X98986810Y-173167118D01*
X99028522Y-173163010D01*
X99028718Y-173163000D01*
X99112987Y-173163000D01*
X99114719Y-173164000D01*
G37*
G36*
X100551478Y-173163010D02*
G01*
X100593190Y-173167118D01*
X100593575Y-173167194D01*
X100627699Y-173177546D01*
X100628061Y-173177696D01*
X100659500Y-173194500D01*
X100659826Y-173194718D01*
X100687387Y-173217336D01*
X100687664Y-173217613D01*
X100710282Y-173245174D01*
X100710500Y-173245500D01*
X100727304Y-173276939D01*
X100727454Y-173277301D01*
X100737806Y-173311425D01*
X100737882Y-173311810D01*
X100741990Y-173353522D01*
X100742000Y-173353718D01*
X100742000Y-173437987D01*
X100741000Y-173439719D01*
X100739000Y-173439719D01*
X100738010Y-173438183D01*
X100732785Y-173385125D01*
X100717363Y-173334288D01*
X100692322Y-173287440D01*
X100658623Y-173246377D01*
X100617560Y-173212678D01*
X100570712Y-173187637D01*
X100519875Y-173172215D01*
X100466817Y-173166990D01*
X100465191Y-173165825D01*
X100465387Y-173163835D01*
X100467013Y-173163000D01*
X100551282Y-173163000D01*
X100551478Y-173163010D01*
G37*
G36*
X28576165Y-166760387D02*
G01*
X28577000Y-166762013D01*
X28577000Y-166846282D01*
X28576990Y-166846478D01*
X28572882Y-166888190D01*
X28572806Y-166888575D01*
X28562454Y-166922699D01*
X28562304Y-166923061D01*
X28545500Y-166954500D01*
X28545282Y-166954826D01*
X28522664Y-166982387D01*
X28522387Y-166982664D01*
X28494826Y-167005282D01*
X28494500Y-167005500D01*
X28463061Y-167022304D01*
X28462699Y-167022454D01*
X28428575Y-167032806D01*
X28428190Y-167032882D01*
X28386478Y-167036990D01*
X28386282Y-167037000D01*
X28302013Y-167037000D01*
X28300281Y-167036000D01*
X28300281Y-167034000D01*
X28301817Y-167033010D01*
X28354875Y-167027785D01*
X28405712Y-167012363D01*
X28452560Y-166987322D01*
X28493623Y-166953623D01*
X28527322Y-166912560D01*
X28552363Y-166865712D01*
X28567785Y-166814875D01*
X28573010Y-166761817D01*
X28574175Y-166760191D01*
X28576165Y-166760387D01*
G37*
G36*
X26226990Y-166761817D02*
G01*
X26232215Y-166814875D01*
X26247637Y-166865712D01*
X26272678Y-166912560D01*
X26306377Y-166953623D01*
X26347440Y-166987322D01*
X26394288Y-167012363D01*
X26445125Y-167027785D01*
X26498183Y-167033010D01*
X26499809Y-167034175D01*
X26499613Y-167036165D01*
X26497987Y-167037000D01*
X26413718Y-167037000D01*
X26413522Y-167036990D01*
X26371810Y-167032882D01*
X26371425Y-167032806D01*
X26337301Y-167022454D01*
X26336939Y-167022304D01*
X26305500Y-167005500D01*
X26305174Y-167005282D01*
X26277613Y-166982664D01*
X26277336Y-166982387D01*
X26254718Y-166954826D01*
X26254500Y-166954500D01*
X26237696Y-166923061D01*
X26237546Y-166922699D01*
X26227194Y-166888575D01*
X26227118Y-166888190D01*
X26223010Y-166846478D01*
X26223000Y-166846282D01*
X26223000Y-166762013D01*
X26224000Y-166760281D01*
X26226000Y-166760281D01*
X26226990Y-166761817D01*
G37*
G36*
X26499719Y-165134000D02*
G01*
X26499719Y-165136000D01*
X26498183Y-165136990D01*
X26445125Y-165142215D01*
X26394288Y-165157637D01*
X26347440Y-165182678D01*
X26306377Y-165216377D01*
X26272678Y-165257440D01*
X26247637Y-165304288D01*
X26232215Y-165355125D01*
X26226990Y-165408183D01*
X26225825Y-165409809D01*
X26223835Y-165409613D01*
X26223000Y-165407987D01*
X26223000Y-165323718D01*
X26223010Y-165323522D01*
X26227118Y-165281810D01*
X26227194Y-165281425D01*
X26237546Y-165247301D01*
X26237696Y-165246939D01*
X26254500Y-165215500D01*
X26254718Y-165215174D01*
X26277336Y-165187613D01*
X26277613Y-165187336D01*
X26305174Y-165164718D01*
X26305500Y-165164500D01*
X26336939Y-165147696D01*
X26337301Y-165147546D01*
X26371425Y-165137194D01*
X26371810Y-165137118D01*
X26413522Y-165133010D01*
X26413718Y-165133000D01*
X26497987Y-165133000D01*
X26499719Y-165134000D01*
G37*
G36*
X28386478Y-165133010D02*
G01*
X28428190Y-165137118D01*
X28428575Y-165137194D01*
X28462699Y-165147546D01*
X28463061Y-165147696D01*
X28494500Y-165164500D01*
X28494826Y-165164718D01*
X28522387Y-165187336D01*
X28522664Y-165187613D01*
X28545282Y-165215174D01*
X28545500Y-165215500D01*
X28562304Y-165246939D01*
X28562454Y-165247301D01*
X28572806Y-165281425D01*
X28572882Y-165281810D01*
X28576990Y-165323522D01*
X28577000Y-165323718D01*
X28577000Y-165407987D01*
X28576000Y-165409719D01*
X28574000Y-165409719D01*
X28573010Y-165408183D01*
X28567785Y-165355125D01*
X28552363Y-165304288D01*
X28527322Y-165257440D01*
X28493623Y-165216377D01*
X28452560Y-165182678D01*
X28405712Y-165157637D01*
X28354875Y-165142215D01*
X28301817Y-165136990D01*
X28300191Y-165135825D01*
X28300387Y-165133835D01*
X28302013Y-165133000D01*
X28386282Y-165133000D01*
X28386478Y-165133010D01*
G37*
G36*
X28576165Y-158505387D02*
G01*
X28577000Y-158507013D01*
X28577000Y-158591282D01*
X28576990Y-158591478D01*
X28572882Y-158633190D01*
X28572806Y-158633575D01*
X28562454Y-158667699D01*
X28562304Y-158668061D01*
X28545500Y-158699500D01*
X28545282Y-158699826D01*
X28522664Y-158727387D01*
X28522387Y-158727664D01*
X28494826Y-158750282D01*
X28494500Y-158750500D01*
X28463061Y-158767304D01*
X28462699Y-158767454D01*
X28428575Y-158777806D01*
X28428190Y-158777882D01*
X28386478Y-158781990D01*
X28386282Y-158782000D01*
X28302013Y-158782000D01*
X28300281Y-158781000D01*
X28300281Y-158779000D01*
X28301817Y-158778010D01*
X28354875Y-158772785D01*
X28405712Y-158757363D01*
X28452560Y-158732322D01*
X28493623Y-158698623D01*
X28527322Y-158657560D01*
X28552363Y-158610712D01*
X28567785Y-158559875D01*
X28573010Y-158506817D01*
X28574175Y-158505191D01*
X28576165Y-158505387D01*
G37*
G36*
X26226990Y-158506817D02*
G01*
X26232215Y-158559875D01*
X26247637Y-158610712D01*
X26272678Y-158657560D01*
X26306377Y-158698623D01*
X26347440Y-158732322D01*
X26394288Y-158757363D01*
X26445125Y-158772785D01*
X26498183Y-158778010D01*
X26499809Y-158779175D01*
X26499613Y-158781165D01*
X26497987Y-158782000D01*
X26413718Y-158782000D01*
X26413522Y-158781990D01*
X26371810Y-158777882D01*
X26371425Y-158777806D01*
X26337301Y-158767454D01*
X26336939Y-158767304D01*
X26305500Y-158750500D01*
X26305174Y-158750282D01*
X26277613Y-158727664D01*
X26277336Y-158727387D01*
X26254718Y-158699826D01*
X26254500Y-158699500D01*
X26237696Y-158668061D01*
X26237546Y-158667699D01*
X26227194Y-158633575D01*
X26227118Y-158633190D01*
X26223010Y-158591478D01*
X26223000Y-158591282D01*
X26223000Y-158507013D01*
X26224000Y-158505281D01*
X26226000Y-158505281D01*
X26226990Y-158506817D01*
G37*
G36*
X26499719Y-156879000D02*
G01*
X26499719Y-156881000D01*
X26498183Y-156881990D01*
X26445125Y-156887215D01*
X26394288Y-156902637D01*
X26347440Y-156927678D01*
X26306377Y-156961377D01*
X26272678Y-157002440D01*
X26247637Y-157049288D01*
X26232215Y-157100125D01*
X26226990Y-157153183D01*
X26225825Y-157154809D01*
X26223835Y-157154613D01*
X26223000Y-157152987D01*
X26223000Y-157068718D01*
X26223010Y-157068522D01*
X26227118Y-157026810D01*
X26227194Y-157026425D01*
X26237546Y-156992301D01*
X26237696Y-156991939D01*
X26254500Y-156960500D01*
X26254718Y-156960174D01*
X26277336Y-156932613D01*
X26277613Y-156932336D01*
X26305174Y-156909718D01*
X26305500Y-156909500D01*
X26336939Y-156892696D01*
X26337301Y-156892546D01*
X26371425Y-156882194D01*
X26371810Y-156882118D01*
X26413522Y-156878010D01*
X26413718Y-156878000D01*
X26497987Y-156878000D01*
X26499719Y-156879000D01*
G37*
G36*
X28386478Y-156878010D02*
G01*
X28428190Y-156882118D01*
X28428575Y-156882194D01*
X28462699Y-156892546D01*
X28463061Y-156892696D01*
X28494500Y-156909500D01*
X28494826Y-156909718D01*
X28522387Y-156932336D01*
X28522664Y-156932613D01*
X28545282Y-156960174D01*
X28545500Y-156960500D01*
X28562304Y-156991939D01*
X28562454Y-156992301D01*
X28572806Y-157026425D01*
X28572882Y-157026810D01*
X28576990Y-157068522D01*
X28577000Y-157068718D01*
X28577000Y-157152987D01*
X28576000Y-157154719D01*
X28574000Y-157154719D01*
X28573010Y-157153183D01*
X28567785Y-157100125D01*
X28552363Y-157049288D01*
X28527322Y-157002440D01*
X28493623Y-156961377D01*
X28452560Y-156927678D01*
X28405712Y-156902637D01*
X28354875Y-156887215D01*
X28301817Y-156881990D01*
X28300191Y-156880825D01*
X28300387Y-156878835D01*
X28302013Y-156878000D01*
X28386282Y-156878000D01*
X28386478Y-156878010D01*
G37*
G36*
X31526165Y-27285387D02*
G01*
X31527000Y-27287013D01*
X31527000Y-27371282D01*
X31526990Y-27371478D01*
X31522882Y-27413190D01*
X31522806Y-27413575D01*
X31512454Y-27447699D01*
X31512304Y-27448061D01*
X31495500Y-27479500D01*
X31495282Y-27479826D01*
X31472664Y-27507387D01*
X31472387Y-27507664D01*
X31444826Y-27530282D01*
X31444500Y-27530500D01*
X31413061Y-27547304D01*
X31412699Y-27547454D01*
X31378575Y-27557806D01*
X31378190Y-27557882D01*
X31336478Y-27561990D01*
X31336282Y-27562000D01*
X31252013Y-27562000D01*
X31250281Y-27561000D01*
X31250281Y-27559000D01*
X31251817Y-27558010D01*
X31304875Y-27552785D01*
X31355712Y-27537363D01*
X31402560Y-27512322D01*
X31443623Y-27478623D01*
X31477322Y-27437560D01*
X31502363Y-27390712D01*
X31517785Y-27339875D01*
X31523010Y-27286817D01*
X31524175Y-27285191D01*
X31526165Y-27285387D01*
G37*
G36*
X29626990Y-27286817D02*
G01*
X29632215Y-27339875D01*
X29647637Y-27390712D01*
X29672678Y-27437560D01*
X29706377Y-27478623D01*
X29747440Y-27512322D01*
X29794288Y-27537363D01*
X29845125Y-27552785D01*
X29898183Y-27558010D01*
X29899809Y-27559175D01*
X29899613Y-27561165D01*
X29897987Y-27562000D01*
X29813718Y-27562000D01*
X29813522Y-27561990D01*
X29771810Y-27557882D01*
X29771425Y-27557806D01*
X29737301Y-27547454D01*
X29736939Y-27547304D01*
X29705500Y-27530500D01*
X29705174Y-27530282D01*
X29677613Y-27507664D01*
X29677336Y-27507387D01*
X29654718Y-27479826D01*
X29654500Y-27479500D01*
X29637696Y-27448061D01*
X29637546Y-27447699D01*
X29627194Y-27413575D01*
X29627118Y-27413190D01*
X29623010Y-27371478D01*
X29623000Y-27371282D01*
X29623000Y-27287013D01*
X29624000Y-27285281D01*
X29626000Y-27285281D01*
X29626990Y-27286817D01*
G37*
G36*
X29899719Y-25209000D02*
G01*
X29899719Y-25211000D01*
X29898183Y-25211990D01*
X29845125Y-25217215D01*
X29794288Y-25232637D01*
X29747440Y-25257678D01*
X29706377Y-25291377D01*
X29672678Y-25332440D01*
X29647637Y-25379288D01*
X29632215Y-25430125D01*
X29626990Y-25483183D01*
X29625825Y-25484809D01*
X29623835Y-25484613D01*
X29623000Y-25482987D01*
X29623000Y-25398718D01*
X29623010Y-25398522D01*
X29627118Y-25356810D01*
X29627194Y-25356425D01*
X29637546Y-25322301D01*
X29637696Y-25321939D01*
X29654500Y-25290500D01*
X29654718Y-25290174D01*
X29677336Y-25262613D01*
X29677613Y-25262336D01*
X29705174Y-25239718D01*
X29705500Y-25239500D01*
X29736939Y-25222696D01*
X29737301Y-25222546D01*
X29771425Y-25212194D01*
X29771810Y-25212118D01*
X29813522Y-25208010D01*
X29813718Y-25208000D01*
X29897987Y-25208000D01*
X29899719Y-25209000D01*
G37*
G36*
X31336478Y-25208010D02*
G01*
X31378190Y-25212118D01*
X31378575Y-25212194D01*
X31412699Y-25222546D01*
X31413061Y-25222696D01*
X31444500Y-25239500D01*
X31444826Y-25239718D01*
X31472387Y-25262336D01*
X31472664Y-25262613D01*
X31495282Y-25290174D01*
X31495500Y-25290500D01*
X31512304Y-25321939D01*
X31512454Y-25322301D01*
X31522806Y-25356425D01*
X31522882Y-25356810D01*
X31526990Y-25398522D01*
X31527000Y-25398718D01*
X31527000Y-25482987D01*
X31526000Y-25484719D01*
X31524000Y-25484719D01*
X31523010Y-25483183D01*
X31517785Y-25430125D01*
X31502363Y-25379288D01*
X31477322Y-25332440D01*
X31443623Y-25291377D01*
X31402560Y-25257678D01*
X31355712Y-25232637D01*
X31304875Y-25217215D01*
X31251817Y-25211990D01*
X31250191Y-25210825D01*
X31250387Y-25208835D01*
X31252013Y-25208000D01*
X31336282Y-25208000D01*
X31336478Y-25208010D01*
G37*
M02*
