G04 #@! TF.GenerationSoftware,KiCad,Pcbnew,(5.1.7)-1*
G04 #@! TF.CreationDate,2020-11-15T10:54:59+01:00*
G04 #@! TF.ProjectId,Befehle,42656665-686c-4652-9e6b-696361645f70,rev?*
G04 #@! TF.SameCoordinates,Original*
G04 #@! TF.FileFunction,Copper,L1,Top*
G04 #@! TF.FilePolarity,Positive*
%FSLAX46Y46*%
G04 Gerber Fmt 4.6, Leading zero omitted, Abs format (unit mm)*
G04 Created by KiCad (PCBNEW (5.1.7)-1) date 2020-11-15 10:54:59*
%MOMM*%
%LPD*%
G01*
G04 APERTURE LIST*
G04 #@! TA.AperFunction,ComponentPad*
%ADD10O,1.600000X2.400000*%
G04 #@! TD*
G04 #@! TA.AperFunction,ComponentPad*
%ADD11R,1.600000X2.400000*%
G04 #@! TD*
G04 #@! TA.AperFunction,ComponentPad*
%ADD12O,2.190000X1.740000*%
G04 #@! TD*
G04 #@! TA.AperFunction,ComponentPad*
%ADD13O,1.800000X1.800000*%
G04 #@! TD*
G04 #@! TA.AperFunction,ComponentPad*
%ADD14R,1.800000X1.800000*%
G04 #@! TD*
G04 #@! TA.AperFunction,ComponentPad*
%ADD15O,1.600000X1.600000*%
G04 #@! TD*
G04 #@! TA.AperFunction,ComponentPad*
%ADD16C,1.600000*%
G04 #@! TD*
G04 #@! TA.AperFunction,ComponentPad*
%ADD17C,1.800000*%
G04 #@! TD*
G04 #@! TA.AperFunction,ComponentPad*
%ADD18C,0.100000*%
G04 #@! TD*
G04 #@! TA.AperFunction,ComponentPad*
%ADD19O,1.700000X1.700000*%
G04 #@! TD*
G04 #@! TA.AperFunction,ComponentPad*
%ADD20R,1.700000X1.700000*%
G04 #@! TD*
G04 #@! TA.AperFunction,ComponentPad*
%ADD21O,2.400000X1.600000*%
G04 #@! TD*
G04 #@! TA.AperFunction,ComponentPad*
%ADD22R,2.400000X1.600000*%
G04 #@! TD*
G04 #@! TA.AperFunction,ComponentPad*
%ADD23R,1.600000X1.600000*%
G04 #@! TD*
G04 #@! TA.AperFunction,ComponentPad*
%ADD24O,1.740000X2.190000*%
G04 #@! TD*
G04 #@! TA.AperFunction,ViaPad*
%ADD25C,0.600000*%
G04 #@! TD*
G04 #@! TA.AperFunction,Conductor*
%ADD26C,0.400000*%
G04 #@! TD*
G04 #@! TA.AperFunction,Conductor*
%ADD27C,1.250000*%
G04 #@! TD*
G04 APERTURE END LIST*
D10*
X109950000Y-141320000D03*
X87090000Y-133700000D03*
X107410000Y-141320000D03*
X89630000Y-133700000D03*
X104870000Y-141320000D03*
X92170000Y-133700000D03*
X102330000Y-141320000D03*
X94710000Y-133700000D03*
X99790000Y-141320000D03*
X97250000Y-133700000D03*
X97250000Y-141320000D03*
X99790000Y-133700000D03*
X94710000Y-141320000D03*
X102330000Y-133700000D03*
X92170000Y-141320000D03*
X104870000Y-133700000D03*
X89630000Y-141320000D03*
X107410000Y-133700000D03*
X87090000Y-141320000D03*
D11*
X109950000Y-133700000D03*
D10*
X57880000Y-88615000D03*
X80740000Y-96235000D03*
X60420000Y-88615000D03*
X78200000Y-96235000D03*
X62960000Y-88615000D03*
X75660000Y-96235000D03*
X65500000Y-88615000D03*
X73120000Y-96235000D03*
X68040000Y-88615000D03*
X70580000Y-96235000D03*
X70580000Y-88615000D03*
X68040000Y-96235000D03*
X73120000Y-88615000D03*
X65500000Y-96235000D03*
X75660000Y-88615000D03*
X62960000Y-96235000D03*
X78200000Y-88615000D03*
X60420000Y-96235000D03*
X80740000Y-88615000D03*
D11*
X57880000Y-96235000D03*
D10*
X87090000Y-61945000D03*
X109950000Y-69565000D03*
X89630000Y-61945000D03*
X107410000Y-69565000D03*
X92170000Y-61945000D03*
X104870000Y-69565000D03*
X94710000Y-61945000D03*
X102330000Y-69565000D03*
X97250000Y-61945000D03*
X99790000Y-69565000D03*
X99790000Y-61945000D03*
X97250000Y-69565000D03*
X102330000Y-61945000D03*
X94710000Y-69565000D03*
X104870000Y-61945000D03*
X92170000Y-69565000D03*
X107410000Y-61945000D03*
X89630000Y-69565000D03*
X109950000Y-61945000D03*
D11*
X87090000Y-69565000D03*
D10*
X55340000Y-61945000D03*
X78200000Y-69565000D03*
X57880000Y-61945000D03*
X75660000Y-69565000D03*
X60420000Y-61945000D03*
X73120000Y-69565000D03*
X62960000Y-61945000D03*
X70580000Y-69565000D03*
X65500000Y-61945000D03*
X68040000Y-69565000D03*
X68040000Y-61945000D03*
X65500000Y-69565000D03*
X70580000Y-61945000D03*
X62960000Y-69565000D03*
X73120000Y-61945000D03*
X60420000Y-69565000D03*
X75660000Y-61945000D03*
X57880000Y-69565000D03*
X78200000Y-61945000D03*
D11*
X55340000Y-69565000D03*
D12*
X27400000Y-150210000D03*
X27400000Y-152750000D03*
X27400000Y-155290000D03*
G04 #@! TA.AperFunction,ComponentPad*
G36*
G01*
X28245001Y-158700000D02*
X26554999Y-158700000D01*
G75*
G02*
X26305000Y-158450001I0J249999D01*
G01*
X26305000Y-157209999D01*
G75*
G02*
X26554999Y-156960000I249999J0D01*
G01*
X28245001Y-156960000D01*
G75*
G02*
X28495000Y-157209999I0J-249999D01*
G01*
X28495000Y-158450001D01*
G75*
G02*
X28245001Y-158700000I-249999J0D01*
G01*
G37*
G04 #@! TD.AperFunction*
D13*
X58515000Y-26385000D03*
D14*
X48355000Y-26385000D03*
D15*
X109950000Y-148305000D03*
D16*
X109950000Y-158465000D03*
D17*
X111220000Y-126188949D03*
G04 #@! TA.AperFunction,ComponentPad*
D18*
G36*
X109423949Y-129257792D02*
G01*
X108151157Y-127985000D01*
X109423949Y-126712208D01*
X110696741Y-127985000D01*
X109423949Y-129257792D01*
G37*
G04 #@! TD.AperFunction*
D17*
X103600000Y-122378949D03*
G04 #@! TA.AperFunction,ComponentPad*
D18*
G36*
X101803949Y-125447792D02*
G01*
X100531157Y-124175000D01*
X101803949Y-122902208D01*
X103076741Y-124175000D01*
X101803949Y-125447792D01*
G37*
G04 #@! TD.AperFunction*
D17*
X107410000Y-126188949D03*
G04 #@! TA.AperFunction,ComponentPad*
D18*
G36*
X105613949Y-129257792D02*
G01*
X104341157Y-127985000D01*
X105613949Y-126712208D01*
X106886741Y-127985000D01*
X105613949Y-129257792D01*
G37*
G04 #@! TD.AperFunction*
D19*
X60420000Y-173070000D03*
X60420000Y-170530000D03*
X62960000Y-173070000D03*
X62960000Y-170530000D03*
X65500000Y-173070000D03*
X65500000Y-170530000D03*
X68040000Y-173070000D03*
X68040000Y-170530000D03*
X70580000Y-173070000D03*
X70580000Y-170530000D03*
X73120000Y-173070000D03*
X73120000Y-170530000D03*
X75660000Y-173070000D03*
X75660000Y-170530000D03*
X78200000Y-173070000D03*
X78200000Y-170530000D03*
X80740000Y-173070000D03*
X80740000Y-170530000D03*
X83280000Y-173070000D03*
D20*
X83280000Y-170530000D03*
D10*
X92170000Y-88615000D03*
X109950000Y-96235000D03*
X94710000Y-88615000D03*
X107410000Y-96235000D03*
X97250000Y-88615000D03*
X104870000Y-96235000D03*
X99790000Y-88615000D03*
X102330000Y-96235000D03*
X102330000Y-88615000D03*
X99790000Y-96235000D03*
X104870000Y-88615000D03*
X97250000Y-96235000D03*
X107410000Y-88615000D03*
X94710000Y-96235000D03*
X109950000Y-88615000D03*
D11*
X92170000Y-96235000D03*
D21*
X38830000Y-76550000D03*
X31210000Y-91790000D03*
X38830000Y-79090000D03*
X31210000Y-89250000D03*
X38830000Y-81630000D03*
X31210000Y-86710000D03*
X38830000Y-84170000D03*
X31210000Y-84170000D03*
X38830000Y-86710000D03*
X31210000Y-81630000D03*
X38830000Y-89250000D03*
X31210000Y-79090000D03*
X38830000Y-91790000D03*
D22*
X31210000Y-76550000D03*
D15*
X99790000Y-107665000D03*
X102330000Y-107665000D03*
X104870000Y-107665000D03*
X107410000Y-107665000D03*
D23*
X109950000Y-107665000D03*
D15*
X115030000Y-41625000D03*
D16*
X115030000Y-51785000D03*
D15*
X104870000Y-148305000D03*
D16*
X104870000Y-158465000D03*
D15*
X109950000Y-41625000D03*
D16*
X109950000Y-51785000D03*
D15*
X104870000Y-41625000D03*
D16*
X104870000Y-51785000D03*
D15*
X99790000Y-41625000D03*
D16*
X99790000Y-51785000D03*
D15*
X94710000Y-41625000D03*
D16*
X94710000Y-51785000D03*
D15*
X89630000Y-41625000D03*
D16*
X89630000Y-51785000D03*
D15*
X99790000Y-148305000D03*
D16*
X99790000Y-158465000D03*
D15*
X84550000Y-41625000D03*
D16*
X84550000Y-51785000D03*
D15*
X79470000Y-41625000D03*
D16*
X79470000Y-51785000D03*
D15*
X94710000Y-148305000D03*
D16*
X94710000Y-158465000D03*
D15*
X85185000Y-119095000D03*
D16*
X85185000Y-108935000D03*
D15*
X45815000Y-176880000D03*
D16*
X45815000Y-166720000D03*
D15*
X26130000Y-77820000D03*
D16*
X26130000Y-67660000D03*
D15*
X39465000Y-176880000D03*
D16*
X39465000Y-166720000D03*
D15*
X48990000Y-176880000D03*
D16*
X48990000Y-166720000D03*
D15*
X59150000Y-155925000D03*
D16*
X59150000Y-145765000D03*
D15*
X42640000Y-166720000D03*
D16*
X42640000Y-176880000D03*
D24*
X33115000Y-26385000D03*
G04 #@! TA.AperFunction,ComponentPad*
G36*
G01*
X29705000Y-27230001D02*
X29705000Y-25539999D01*
G75*
G02*
X29954999Y-25290000I249999J0D01*
G01*
X31195001Y-25290000D01*
G75*
G02*
X31445000Y-25539999I0J-249999D01*
G01*
X31445000Y-27230001D01*
G75*
G02*
X31195001Y-27480000I-249999J0D01*
G01*
X29954999Y-27480000D01*
G75*
G02*
X29705000Y-27230001I0J249999D01*
G01*
G37*
G04 #@! TD.AperFunction*
X92170000Y-174340000D03*
X94710000Y-174340000D03*
X97250000Y-174340000D03*
G04 #@! TA.AperFunction,ComponentPad*
G36*
G01*
X100660000Y-173494999D02*
X100660000Y-175185001D01*
G75*
G02*
X100410001Y-175435000I-249999J0D01*
G01*
X99169999Y-175435000D01*
G75*
G02*
X98920000Y-175185001I0J249999D01*
G01*
X98920000Y-173494999D01*
G75*
G02*
X99169999Y-173245000I249999J0D01*
G01*
X100410001Y-173245000D01*
G75*
G02*
X100660000Y-173494999I0J-249999D01*
G01*
G37*
G04 #@! TD.AperFunction*
D12*
X27400000Y-163545000D03*
G04 #@! TA.AperFunction,ComponentPad*
G36*
G01*
X28245001Y-166955000D02*
X26554999Y-166955000D01*
G75*
G02*
X26305000Y-166705001I0J249999D01*
G01*
X26305000Y-165464999D01*
G75*
G02*
X26554999Y-165215000I249999J0D01*
G01*
X28245001Y-165215000D01*
G75*
G02*
X28495000Y-165464999I0J-249999D01*
G01*
X28495000Y-166705001D01*
G75*
G02*
X28245001Y-166955000I-249999J0D01*
G01*
G37*
G04 #@! TD.AperFunction*
D20*
X25495000Y-33370000D03*
D19*
X28035000Y-33370000D03*
X25495000Y-35910000D03*
X28035000Y-35910000D03*
X25495000Y-38450000D03*
X28035000Y-38450000D03*
X25495000Y-40990000D03*
X28035000Y-40990000D03*
X25495000Y-43530000D03*
X28035000Y-43530000D03*
X25495000Y-46070000D03*
X28035000Y-46070000D03*
X25495000Y-48610000D03*
X28035000Y-48610000D03*
X25495000Y-51150000D03*
X28035000Y-51150000D03*
X25495000Y-53690000D03*
X28035000Y-53690000D03*
X25495000Y-56230000D03*
X28035000Y-56230000D03*
D17*
X109950000Y-164180000D03*
D14*
X109950000Y-161640000D03*
D17*
X115030000Y-36545000D03*
D14*
X115030000Y-39085000D03*
D17*
X104715000Y-164180000D03*
D14*
X104715000Y-161640000D03*
D17*
X109950000Y-36545000D03*
D14*
X109950000Y-39085000D03*
D17*
X104870000Y-36545000D03*
D14*
X104870000Y-39085000D03*
D17*
X99790000Y-36545000D03*
D14*
X99790000Y-39085000D03*
D17*
X94710000Y-36545000D03*
D14*
X94710000Y-39085000D03*
D17*
X89630000Y-36545000D03*
D14*
X89630000Y-39085000D03*
D17*
X99715000Y-164180000D03*
D14*
X99715000Y-161640000D03*
D17*
X84550000Y-36545000D03*
D14*
X84550000Y-39085000D03*
D17*
X79470000Y-36545000D03*
D14*
X79470000Y-39085000D03*
D17*
X94710000Y-164180000D03*
D14*
X94710000Y-161640000D03*
D17*
X85185000Y-104490000D03*
D14*
X87725000Y-104490000D03*
D17*
X26130000Y-62580000D03*
D14*
X26130000Y-65120000D03*
D17*
X59150000Y-140685000D03*
D14*
X59150000Y-143225000D03*
D21*
X54070000Y-142590000D03*
X46450000Y-157830000D03*
X54070000Y-145130000D03*
X46450000Y-155290000D03*
X54070000Y-147670000D03*
X46450000Y-152750000D03*
X54070000Y-150210000D03*
X46450000Y-150210000D03*
X54070000Y-152750000D03*
X46450000Y-147670000D03*
X54070000Y-155290000D03*
X46450000Y-145130000D03*
X54070000Y-157830000D03*
D22*
X46450000Y-142590000D03*
D16*
X32480000Y-72105000D03*
X37480000Y-72105000D03*
D21*
X38830000Y-113380000D03*
X31210000Y-128620000D03*
X38830000Y-115920000D03*
X31210000Y-126080000D03*
X38830000Y-118460000D03*
X31210000Y-123540000D03*
X38830000Y-121000000D03*
X31210000Y-121000000D03*
X38830000Y-123540000D03*
X31210000Y-118460000D03*
X38830000Y-126080000D03*
X31210000Y-115920000D03*
X38830000Y-128620000D03*
D22*
X31210000Y-113380000D03*
D21*
X54021740Y-113380000D03*
X46401740Y-128620000D03*
X54021740Y-115920000D03*
X46401740Y-126080000D03*
X54021740Y-118460000D03*
X46401740Y-123540000D03*
X54021740Y-121000000D03*
X46401740Y-121000000D03*
X54021740Y-123540000D03*
X46401740Y-118460000D03*
X54021740Y-126080000D03*
X46401740Y-115920000D03*
X54021740Y-128620000D03*
D22*
X46401740Y-113380000D03*
D17*
X103600000Y-126188949D03*
G04 #@! TA.AperFunction,ComponentPad*
D18*
G36*
X101803949Y-129257792D02*
G01*
X100531157Y-127985000D01*
X101803949Y-126712208D01*
X103076741Y-127985000D01*
X101803949Y-129257792D01*
G37*
G04 #@! TD.AperFunction*
D17*
X99790000Y-126188949D03*
G04 #@! TA.AperFunction,ComponentPad*
D18*
G36*
X97993949Y-129257792D02*
G01*
X96721157Y-127985000D01*
X97993949Y-126712208D01*
X99266741Y-127985000D01*
X97993949Y-129257792D01*
G37*
G04 #@! TD.AperFunction*
D17*
X111220000Y-122378949D03*
G04 #@! TA.AperFunction,ComponentPad*
D18*
G36*
X109423949Y-125447792D02*
G01*
X108151157Y-124175000D01*
X109423949Y-122902208D01*
X110696741Y-124175000D01*
X109423949Y-125447792D01*
G37*
G04 #@! TD.AperFunction*
D17*
X107410000Y-122378949D03*
G04 #@! TA.AperFunction,ComponentPad*
D18*
G36*
X105613949Y-125447792D02*
G01*
X104341157Y-124175000D01*
X105613949Y-122902208D01*
X106886741Y-124175000D01*
X105613949Y-125447792D01*
G37*
G04 #@! TD.AperFunction*
D17*
X111220000Y-118568949D03*
G04 #@! TA.AperFunction,ComponentPad*
D18*
G36*
X109423949Y-121637792D02*
G01*
X108151157Y-120365000D01*
X109423949Y-119092208D01*
X110696741Y-120365000D01*
X109423949Y-121637792D01*
G37*
G04 #@! TD.AperFunction*
D17*
X107410000Y-118568949D03*
G04 #@! TA.AperFunction,ComponentPad*
D18*
G36*
X105613949Y-121637792D02*
G01*
X104341157Y-120365000D01*
X105613949Y-119092208D01*
X106886741Y-120365000D01*
X105613949Y-121637792D01*
G37*
G04 #@! TD.AperFunction*
D17*
X103600000Y-118568949D03*
G04 #@! TA.AperFunction,ComponentPad*
D18*
G36*
X101803949Y-121637792D02*
G01*
X100531157Y-120365000D01*
X101803949Y-119092208D01*
X103076741Y-120365000D01*
X101803949Y-121637792D01*
G37*
G04 #@! TD.AperFunction*
D17*
X111220000Y-114758949D03*
G04 #@! TA.AperFunction,ComponentPad*
D18*
G36*
X109423949Y-117827792D02*
G01*
X108151157Y-116555000D01*
X109423949Y-115282208D01*
X110696741Y-116555000D01*
X109423949Y-117827792D01*
G37*
G04 #@! TD.AperFunction*
D17*
X107410000Y-114758949D03*
G04 #@! TA.AperFunction,ComponentPad*
D18*
G36*
X105613949Y-117827792D02*
G01*
X104341157Y-116555000D01*
X105613949Y-115282208D01*
X106886741Y-116555000D01*
X105613949Y-117827792D01*
G37*
G04 #@! TD.AperFunction*
D17*
X99790000Y-122378949D03*
G04 #@! TA.AperFunction,ComponentPad*
D18*
G36*
X97993949Y-125447792D02*
G01*
X96721157Y-124175000D01*
X97993949Y-122902208D01*
X99266741Y-124175000D01*
X97993949Y-125447792D01*
G37*
G04 #@! TD.AperFunction*
D17*
X103600000Y-114758949D03*
G04 #@! TA.AperFunction,ComponentPad*
D18*
G36*
X101803949Y-117827792D02*
G01*
X100531157Y-116555000D01*
X101803949Y-115282208D01*
X103076741Y-116555000D01*
X101803949Y-117827792D01*
G37*
G04 #@! TD.AperFunction*
D17*
X99790000Y-118568949D03*
G04 #@! TA.AperFunction,ComponentPad*
D18*
G36*
X97993949Y-121637792D02*
G01*
X96721157Y-120365000D01*
X97993949Y-119092208D01*
X99266741Y-120365000D01*
X97993949Y-121637792D01*
G37*
G04 #@! TD.AperFunction*
D17*
X99790000Y-114758949D03*
G04 #@! TA.AperFunction,ComponentPad*
D18*
G36*
X97993949Y-117827792D02*
G01*
X96721157Y-116555000D01*
X97993949Y-115282208D01*
X99266741Y-116555000D01*
X97993949Y-117827792D01*
G37*
G04 #@! TD.AperFunction*
D16*
X41370000Y-28885000D03*
D23*
X41370000Y-26385000D03*
D16*
X47720000Y-138780000D03*
X52720000Y-138780000D03*
X32560000Y-109570000D03*
X37560000Y-109570000D03*
X47800000Y-109570000D03*
X52800000Y-109570000D03*
X83280000Y-135050000D03*
X83280000Y-140050000D03*
X54070000Y-94885000D03*
X54070000Y-89885000D03*
X87725000Y-94885000D03*
X87725000Y-89885000D03*
X83280000Y-68215000D03*
X83280000Y-63215000D03*
X51530000Y-68215000D03*
X51530000Y-63215000D03*
D25*
X70580000Y-75280000D03*
X68040000Y-76550000D03*
X65500000Y-77820000D03*
X62960000Y-79090000D03*
X60420000Y-80360000D03*
X24225000Y-133065000D03*
X47720000Y-133065000D03*
X24225000Y-107030000D03*
X92170000Y-120365000D03*
X93440000Y-124175000D03*
X94710000Y-127985000D03*
X28670000Y-136875000D03*
X36290000Y-139415000D03*
X62960000Y-114650000D03*
X65500000Y-117190000D03*
X68040000Y-122270000D03*
X70580000Y-124810000D03*
X73120000Y-128620000D03*
X75660000Y-126080000D03*
X78200000Y-121000000D03*
X80740000Y-118460000D03*
X57880000Y-81630000D03*
X76930000Y-74010000D03*
D26*
X94710000Y-72740000D02*
X94710000Y-69565000D01*
X92170000Y-75280000D02*
X94710000Y-72740000D01*
X70580000Y-75280000D02*
X92170000Y-75280000D01*
X93440000Y-76550000D02*
X97250000Y-72740000D01*
X97250000Y-72740000D02*
X97250000Y-69565000D01*
X68040000Y-76550000D02*
X93440000Y-76550000D01*
X94710000Y-77820000D02*
X99790000Y-72740000D01*
X99790000Y-72740000D02*
X99790000Y-69565000D01*
X65500000Y-77820000D02*
X94710000Y-77820000D01*
X102330000Y-72740000D02*
X102330000Y-69565000D01*
X95980000Y-79090000D02*
X102330000Y-72740000D01*
X62960000Y-79090000D02*
X95980000Y-79090000D01*
X104870000Y-72740000D02*
X104870000Y-69565000D01*
X97250000Y-80360000D02*
X104870000Y-72740000D01*
X60420000Y-80360000D02*
X97250000Y-80360000D01*
D27*
X51530000Y-68215000D02*
X53355000Y-66390000D01*
X53355000Y-66390000D02*
X77565000Y-66390000D01*
X78200000Y-67025000D02*
X78200000Y-69565000D01*
X77565000Y-66390000D02*
X78200000Y-67025000D01*
X85740000Y-68215000D02*
X87090000Y-69565000D01*
X83280000Y-68215000D02*
X85740000Y-68215000D01*
X85740000Y-67740000D02*
X87090000Y-66390000D01*
X109950000Y-67025000D02*
X109950000Y-69565000D01*
X109315000Y-66390000D02*
X109950000Y-67025000D01*
X32480000Y-72105000D02*
X34385000Y-74010000D01*
X34385000Y-74010000D02*
X34385000Y-91155000D01*
X33750000Y-91790000D02*
X31210000Y-91790000D01*
X34385000Y-91155000D02*
X33750000Y-91790000D01*
X85740000Y-135050000D02*
X87090000Y-133700000D01*
X83280000Y-135050000D02*
X85740000Y-135050000D01*
X56530000Y-94885000D02*
X57880000Y-96235000D01*
X54070000Y-94885000D02*
X56530000Y-94885000D01*
X80740000Y-93695000D02*
X80740000Y-96235000D01*
X86535000Y-93695000D02*
X87725000Y-94885000D01*
X80740000Y-93695000D02*
X86535000Y-93695000D01*
X80105000Y-93695000D02*
X80740000Y-93695000D01*
X57562500Y-93695000D02*
X80105000Y-93695000D01*
X56055000Y-94885000D02*
X57562500Y-93695000D01*
X54070000Y-94885000D02*
X56055000Y-94885000D01*
X90820000Y-94885000D02*
X92170000Y-96235000D01*
X87725000Y-94885000D02*
X90820000Y-94885000D01*
X90820000Y-94885000D02*
X90820000Y-94410000D01*
X90820000Y-94410000D02*
X92170000Y-93060000D01*
X92170000Y-93060000D02*
X109315000Y-93060000D01*
X109950000Y-93695000D02*
X109950000Y-96235000D01*
X109315000Y-93060000D02*
X109950000Y-93695000D01*
X47720000Y-138780000D02*
X49625000Y-140685000D01*
X49625000Y-140685000D02*
X49625000Y-157195000D01*
X48990000Y-157830000D02*
X46450000Y-157830000D01*
X49625000Y-157195000D02*
X48990000Y-157830000D01*
X24225000Y-133065000D02*
X82645000Y-133065000D01*
D26*
X107410000Y-141320000D02*
X107410000Y-138780000D01*
X109950000Y-136240000D02*
X109950000Y-133700000D01*
X107410000Y-138780000D02*
X109950000Y-136240000D01*
D27*
X24225000Y-107030000D02*
X31845000Y-107030000D01*
X32560000Y-107745000D02*
X32560000Y-109570000D01*
X31845000Y-107030000D02*
X32560000Y-107745000D01*
X82645000Y-133065000D02*
X83280000Y-133700000D01*
X83280000Y-133700000D02*
X83280000Y-135050000D01*
X82090000Y-67025000D02*
X83280000Y-68215000D01*
X78200000Y-67025000D02*
X82090000Y-67025000D01*
D26*
X75660000Y-69565000D02*
X78200000Y-69565000D01*
X73120000Y-69565000D02*
X75660000Y-69565000D01*
X89630000Y-61945000D02*
X89630000Y-66390000D01*
D27*
X89630000Y-66390000D02*
X109315000Y-66390000D01*
X87090000Y-66390000D02*
X89630000Y-66390000D01*
X33115000Y-26385000D02*
X33115000Y-28925000D01*
X33115000Y-28925000D02*
X31845000Y-30195000D01*
X31845000Y-30195000D02*
X24225000Y-30195000D01*
X24225000Y-30195000D02*
X22320000Y-32100000D01*
X22320000Y-32100000D02*
X22320000Y-51785000D01*
X22320000Y-62580000D02*
X22320000Y-67660000D01*
X26130000Y-62580000D02*
X22320000Y-62580000D01*
X22320000Y-51785000D02*
X22320000Y-62580000D01*
X54070000Y-63215000D02*
X55340000Y-61945000D01*
X51530000Y-63215000D02*
X54070000Y-63215000D01*
X85820000Y-63215000D02*
X87090000Y-61945000D01*
X83280000Y-63215000D02*
X85820000Y-63215000D01*
X37480000Y-75200000D02*
X38830000Y-76550000D01*
X37480000Y-72105000D02*
X37480000Y-75200000D01*
X22320000Y-67660000D02*
X22320000Y-70200000D01*
X48990000Y-176880000D02*
X39465000Y-176880000D01*
X22320000Y-71470000D02*
X22320000Y-70200000D01*
X31210000Y-176880000D02*
X22320000Y-167990000D01*
X39465000Y-176880000D02*
X31210000Y-176880000D01*
X37560000Y-112110000D02*
X38830000Y-113380000D01*
X37560000Y-109570000D02*
X37560000Y-112110000D01*
X52800000Y-112158260D02*
X54021740Y-113380000D01*
X52800000Y-109570000D02*
X52800000Y-112158260D01*
X22320000Y-105125000D02*
X22320000Y-71470000D01*
X37560000Y-109570000D02*
X37560000Y-105125000D01*
X37560000Y-105125000D02*
X22320000Y-105125000D01*
X22320000Y-134970000D02*
X51530000Y-134970000D01*
X22320000Y-167990000D02*
X22320000Y-134970000D01*
X22320000Y-134970000D02*
X22320000Y-105125000D01*
X52800000Y-138700000D02*
X52720000Y-138780000D01*
X52800000Y-134970000D02*
X52800000Y-138700000D01*
X57245000Y-138780000D02*
X59150000Y-140685000D01*
X52720000Y-138780000D02*
X57245000Y-138780000D01*
X48355000Y-105125000D02*
X48355000Y-95600000D01*
X48355000Y-95600000D02*
X54070000Y-89885000D01*
X48355000Y-105125000D02*
X37560000Y-105125000D01*
X56610000Y-89885000D02*
X57880000Y-88615000D01*
X54070000Y-89885000D02*
X56610000Y-89885000D01*
X57880000Y-88615000D02*
X57880000Y-90520000D01*
X86000010Y-91609990D02*
X87725000Y-89885000D01*
X58969990Y-91609990D02*
X86000010Y-91609990D01*
X57880000Y-90520000D02*
X58969990Y-91609990D01*
X90900000Y-89885000D02*
X92170000Y-88615000D01*
X87725000Y-89885000D02*
X90265000Y-89885000D01*
X90265000Y-89885000D02*
X90900000Y-89885000D01*
X90265000Y-90520000D02*
X90265000Y-89885000D01*
X90900000Y-91155000D02*
X90265000Y-90520000D01*
X111855000Y-91155000D02*
X90900000Y-91155000D01*
X112490000Y-91790000D02*
X111855000Y-91155000D01*
X112490000Y-105125000D02*
X112490000Y-91790000D01*
X109950000Y-107665000D02*
X112490000Y-105125000D01*
X94710000Y-166085000D02*
X94710000Y-164180000D01*
X94075000Y-166720000D02*
X94710000Y-166085000D01*
X89630000Y-166720000D02*
X94075000Y-166720000D01*
X88360000Y-167990000D02*
X89630000Y-166720000D01*
X88360000Y-175610000D02*
X88360000Y-167990000D01*
X87090000Y-176880000D02*
X88360000Y-175610000D01*
X48990000Y-176880000D02*
X87090000Y-176880000D01*
X78200000Y-134970000D02*
X83280000Y-140050000D01*
X51530000Y-134970000D02*
X78200000Y-134970000D01*
X22400000Y-70120000D02*
X37480000Y-70120000D01*
X22320000Y-70200000D02*
X22400000Y-70120000D01*
X37560000Y-72025000D02*
X37480000Y-72105000D01*
X55340000Y-64485000D02*
X54070000Y-63215000D01*
X82010000Y-64485000D02*
X55340000Y-64485000D01*
X83280000Y-63215000D02*
X82010000Y-64485000D01*
X37480000Y-72105000D02*
X37480000Y-70120000D01*
X48355000Y-105125000D02*
X52800000Y-109570000D01*
X47085000Y-63215000D02*
X51530000Y-63215000D01*
X40180000Y-70120000D02*
X47085000Y-63215000D01*
X37480000Y-70120000D02*
X40180000Y-70120000D01*
X115030000Y-36545000D02*
X79470000Y-36545000D01*
X33115000Y-26385000D02*
X41370000Y-26385000D01*
X41370000Y-26385000D02*
X48355000Y-26385000D01*
X48355000Y-26385000D02*
X52165000Y-26385000D01*
X52165000Y-26385000D02*
X59150000Y-33370000D01*
X76295000Y-33370000D02*
X79470000Y-36545000D01*
X59150000Y-33370000D02*
X76295000Y-33370000D01*
D26*
X38830000Y-76550000D02*
X38830000Y-79090000D01*
D27*
X52720000Y-141240000D02*
X54070000Y-142590000D01*
X52720000Y-138780000D02*
X52720000Y-141240000D01*
D26*
X54070000Y-142590000D02*
X54070000Y-145130000D01*
X54070000Y-145130000D02*
X54070000Y-147670000D01*
X54070000Y-147670000D02*
X52165000Y-147670000D01*
X52165000Y-147670000D02*
X51530000Y-148305000D01*
X51530000Y-148305000D02*
X51530000Y-152115000D01*
X52165000Y-152750000D02*
X54070000Y-152750000D01*
X51530000Y-152115000D02*
X52165000Y-152750000D01*
X54070000Y-152750000D02*
X54070000Y-155290000D01*
X92170000Y-88615000D02*
X99790000Y-88615000D01*
X31210000Y-79090000D02*
X31210000Y-81630000D01*
X29305000Y-86710000D02*
X31210000Y-86710000D01*
X28670000Y-86075000D02*
X29305000Y-86710000D01*
X28670000Y-82265000D02*
X28670000Y-86075000D01*
X29305000Y-81630000D02*
X28670000Y-82265000D01*
X31210000Y-81630000D02*
X29305000Y-81630000D01*
X38830000Y-86710000D02*
X38830000Y-89250000D01*
X38830000Y-81630000D02*
X38830000Y-84170000D01*
X26765000Y-37180000D02*
X25495000Y-35910000D01*
X61055000Y-37180000D02*
X26765000Y-37180000D01*
X78200000Y-54325000D02*
X61055000Y-37180000D01*
X78200000Y-61945000D02*
X78200000Y-54325000D01*
X75660000Y-54960000D02*
X75660000Y-61945000D01*
X60420000Y-39720000D02*
X75660000Y-54960000D01*
X26765000Y-39720000D02*
X60420000Y-39720000D01*
X25495000Y-38450000D02*
X26765000Y-39720000D01*
X59150000Y-42260000D02*
X73120000Y-56230000D01*
X73120000Y-56230000D02*
X73120000Y-61945000D01*
X26765000Y-42260000D02*
X59150000Y-42260000D01*
X25495000Y-40990000D02*
X26765000Y-42260000D01*
X70580000Y-56865000D02*
X70580000Y-61945000D01*
X58515000Y-44800000D02*
X70580000Y-56865000D01*
X26765000Y-44800000D02*
X58515000Y-44800000D01*
X25495000Y-43530000D02*
X26765000Y-44800000D01*
X25495000Y-46070000D02*
X26765000Y-47340000D01*
X26765000Y-47340000D02*
X57880000Y-47340000D01*
X68040000Y-57500000D02*
X68040000Y-61945000D01*
X57880000Y-47340000D02*
X68040000Y-57500000D01*
X25495000Y-48610000D02*
X26765000Y-49880000D01*
X26765000Y-49880000D02*
X57245000Y-49880000D01*
X65500000Y-58135000D02*
X65500000Y-61945000D01*
X57245000Y-49880000D02*
X65500000Y-58135000D01*
X62960000Y-58770000D02*
X62960000Y-61945000D01*
X56610000Y-52420000D02*
X62960000Y-58770000D01*
X26765000Y-52420000D02*
X56610000Y-52420000D01*
X25495000Y-51150000D02*
X26765000Y-52420000D01*
X60420000Y-59405000D02*
X60420000Y-61945000D01*
X55975000Y-54960000D02*
X60420000Y-59405000D01*
X26765000Y-54960000D02*
X55975000Y-54960000D01*
X25495000Y-53690000D02*
X26765000Y-54960000D01*
X99790000Y-100045000D02*
X99790000Y-96235000D01*
X99155000Y-100680000D02*
X99790000Y-100045000D01*
X94075000Y-100680000D02*
X99155000Y-100680000D01*
X90900000Y-103855000D02*
X94075000Y-100680000D01*
X90900000Y-115920000D02*
X90900000Y-103855000D01*
X91535000Y-116555000D02*
X90900000Y-115920000D01*
X111855000Y-116555000D02*
X91535000Y-116555000D01*
X95980000Y-120365000D02*
X111855000Y-120365000D01*
X95980000Y-120365000D02*
X92170000Y-120365000D01*
X95980000Y-124175000D02*
X111855000Y-124175000D01*
X95980000Y-124175000D02*
X93440000Y-124175000D01*
X95980000Y-127985000D02*
X111855000Y-127985000D01*
X95980000Y-127985000D02*
X94710000Y-127985000D01*
X99790000Y-135605000D02*
X99790000Y-133700000D01*
X98514999Y-136880001D02*
X99790000Y-135605000D01*
X98514999Y-142584999D02*
X98514999Y-136880001D01*
X98520000Y-142590000D02*
X98514999Y-142584999D01*
X97250000Y-166085000D02*
X92170000Y-171165000D01*
X97250000Y-146400000D02*
X97250000Y-166085000D01*
X98520000Y-145130000D02*
X97250000Y-146400000D01*
X92170000Y-171165000D02*
X92170000Y-174340000D01*
X98514999Y-142584999D02*
X98520000Y-145130000D01*
X94710000Y-173705000D02*
X94710000Y-174621940D01*
X94710000Y-170530000D02*
X94710000Y-174340000D01*
X97250000Y-167990000D02*
X94710000Y-170530000D01*
X101695000Y-167990000D02*
X97250000Y-167990000D01*
X102330000Y-167355000D02*
X101695000Y-167990000D01*
X102330000Y-146400000D02*
X102330000Y-167355000D01*
X101060000Y-145130000D02*
X102330000Y-146400000D01*
X101060000Y-136875000D02*
X101060000Y-145130000D01*
X102330000Y-135605000D02*
X101060000Y-136875000D01*
X102330000Y-133700000D02*
X102330000Y-135605000D01*
X97250000Y-173705000D02*
X97250000Y-174621940D01*
X107410000Y-166085000D02*
X103600000Y-169895000D01*
X107410000Y-146400000D02*
X107410000Y-166085000D01*
X103600000Y-169895000D02*
X98520000Y-169895000D01*
X106775000Y-145765000D02*
X107410000Y-146400000D01*
X104235000Y-145765000D02*
X106775000Y-145765000D01*
X103600000Y-145130000D02*
X104235000Y-145765000D01*
X103600000Y-136875000D02*
X103600000Y-145130000D01*
X98520000Y-169895000D02*
X97250000Y-171165000D01*
X104870000Y-135605000D02*
X103600000Y-136875000D01*
X97250000Y-171165000D02*
X97250000Y-174340000D01*
X104870000Y-133700000D02*
X104870000Y-135605000D01*
X99790000Y-173070000D02*
X99790000Y-174340000D01*
X113125000Y-144495000D02*
X113125000Y-166085000D01*
X106140000Y-143225000D02*
X106775000Y-143860000D01*
X112490000Y-143860000D02*
X113125000Y-144495000D01*
X106140000Y-136875000D02*
X106140000Y-143225000D01*
X101060000Y-171800000D02*
X99790000Y-173070000D01*
X113125000Y-166085000D02*
X107410000Y-171800000D01*
X106775000Y-143860000D02*
X112490000Y-143860000D01*
X107410000Y-135605000D02*
X106140000Y-136875000D01*
X107410000Y-171800000D02*
X101060000Y-171800000D01*
X107410000Y-133700000D02*
X107410000Y-135605000D01*
X40100000Y-141320000D02*
X41370000Y-142590000D01*
X40100000Y-137510000D02*
X40100000Y-141320000D01*
X39465000Y-136875000D02*
X40100000Y-137510000D01*
X28670000Y-136875000D02*
X39465000Y-136875000D01*
X90900000Y-143860000D02*
X89630000Y-145130000D01*
X90900000Y-138214990D02*
X90900000Y-143860000D01*
X89630000Y-136875000D02*
X90900000Y-138214990D01*
X89630000Y-133700000D02*
X89630000Y-136875000D01*
X41370000Y-157830000D02*
X41370000Y-142590000D01*
X44545000Y-161005000D02*
X41370000Y-157830000D01*
X88360000Y-161005000D02*
X44545000Y-161005000D01*
X89630000Y-159735000D02*
X88360000Y-161005000D01*
X89630000Y-145130000D02*
X89630000Y-159735000D01*
X41370000Y-142590000D02*
X46450000Y-142590000D01*
X36290000Y-157195000D02*
X36290000Y-139415000D01*
X27400000Y-166085000D02*
X36290000Y-157195000D01*
X49625000Y-114650000D02*
X62960000Y-114650000D01*
X48355000Y-115920000D02*
X49625000Y-114650000D01*
X46401740Y-115920000D02*
X48355000Y-115920000D01*
X49625000Y-117190000D02*
X65500000Y-117190000D01*
X48355000Y-118460000D02*
X49625000Y-117190000D01*
X46401740Y-118460000D02*
X48355000Y-118460000D01*
X49625000Y-122270000D02*
X68040000Y-122270000D01*
X48355000Y-123540000D02*
X49625000Y-122270000D01*
X46401740Y-123540000D02*
X48355000Y-123540000D01*
X49625000Y-124810000D02*
X70580000Y-124810000D01*
X48355000Y-126080000D02*
X49625000Y-124810000D01*
X46401740Y-126080000D02*
X48355000Y-126080000D01*
X54021740Y-128620000D02*
X73120000Y-128620000D01*
X54021740Y-126080000D02*
X75660000Y-126080000D01*
X54021740Y-121000000D02*
X78200000Y-121000000D01*
X54021740Y-118460000D02*
X80740000Y-118460000D01*
X107410000Y-72740000D02*
X107410000Y-69565000D01*
X98520000Y-81630000D02*
X107410000Y-72740000D01*
X57880000Y-81630000D02*
X98520000Y-81630000D01*
X78835000Y-98775000D02*
X94075000Y-98775000D01*
X78200000Y-98140000D02*
X78835000Y-98775000D01*
X78200000Y-96235000D02*
X78200000Y-98140000D01*
X94075000Y-98775000D02*
X94710000Y-98140000D01*
X94710000Y-98140000D02*
X94710000Y-96235000D01*
X92170000Y-72740000D02*
X92170000Y-69565000D01*
X90900000Y-74010000D02*
X92170000Y-72740000D01*
X76930000Y-74010000D02*
X90900000Y-74010000D01*
X59150000Y-145765000D02*
X59150000Y-143225000D01*
X89630000Y-141320000D02*
X89630000Y-138780000D01*
X88360000Y-122270000D02*
X85185000Y-119095000D01*
X89630000Y-138780000D02*
X88360000Y-137510000D01*
X88360000Y-122270000D02*
X88360000Y-137510000D01*
X85820000Y-155925000D02*
X87090000Y-154655000D01*
X87090000Y-154655000D02*
X87090000Y-141320000D01*
X59150000Y-155925000D02*
X85820000Y-155925000D01*
X38830000Y-123540000D02*
X41370000Y-123540000D01*
X41370000Y-123540000D02*
X42640000Y-122270000D01*
X42640000Y-122270000D02*
X42640000Y-117825000D01*
X42640000Y-117825000D02*
X43275000Y-117190000D01*
X49625000Y-115920000D02*
X54021740Y-115920000D01*
X48355000Y-117190000D02*
X49625000Y-115920000D01*
X43275000Y-117190000D02*
X48355000Y-117190000D01*
X44545000Y-121000000D02*
X46401740Y-121000000D01*
X35020000Y-124810000D02*
X42005000Y-124810000D01*
X34385000Y-124175000D02*
X35020000Y-124810000D01*
X34385000Y-117825000D02*
X34385000Y-124175000D01*
X32480000Y-115920000D02*
X34385000Y-117825000D01*
X31210000Y-115920000D02*
X32480000Y-115920000D01*
X42005000Y-124810000D02*
X43910000Y-122905000D01*
X43910000Y-122905000D02*
X43910000Y-121635000D01*
X43910000Y-121635000D02*
X44545000Y-121000000D01*
X48355000Y-124810000D02*
X49625000Y-123540000D01*
X49625000Y-123540000D02*
X54021740Y-123540000D01*
X42640000Y-126080000D02*
X43910000Y-124810000D01*
X38830000Y-126080000D02*
X42640000Y-126080000D01*
X43910000Y-124810000D02*
X48355000Y-124810000D01*
X44545000Y-113380000D02*
X46401740Y-113380000D01*
X33750000Y-114650000D02*
X43275000Y-114650000D01*
X32480000Y-113380000D02*
X33750000Y-114650000D01*
X31210000Y-113380000D02*
X32480000Y-113380000D01*
X44545000Y-113380000D02*
X43275000Y-114650000D01*
X31210000Y-123540000D02*
X32480000Y-123540000D01*
X32480000Y-123540000D02*
X37560000Y-128620000D01*
X37560000Y-128620000D02*
X38830000Y-128620000D01*
X31210000Y-118460000D02*
X31210000Y-121000000D01*
X90900000Y-146400000D02*
X93440000Y-143860000D01*
X93440000Y-143860000D02*
X93440000Y-136875000D01*
X92170000Y-135605000D02*
X92170000Y-133700000D01*
X93440000Y-136875000D02*
X92170000Y-135605000D01*
X87090000Y-164180000D02*
X90900000Y-160370000D01*
X40735000Y-164180000D02*
X87090000Y-164180000D01*
X39465000Y-165450000D02*
X40735000Y-164180000D01*
X90900000Y-160370000D02*
X90900000Y-146400000D01*
X39465000Y-166720000D02*
X39465000Y-165450000D01*
X46450000Y-145130000D02*
X44545000Y-145130000D01*
X44545000Y-145130000D02*
X43910000Y-145765000D01*
X43910000Y-145765000D02*
X43910000Y-154655000D01*
X44545000Y-155290000D02*
X46450000Y-155290000D01*
X43910000Y-154655000D02*
X44545000Y-155290000D01*
M02*
