M48
; DRILL file {KiCad (5.1.7)-1} date 11/15/20 10:55:06
; FORMAT={-:-/ absolute / inch / decimal}
; #@! TF.CreationDate,2020-11-15T10:55:06+01:00
; #@! TF.GenerationSoftware,Kicad,Pcbnew,(5.1.7)-1
FMAT,2
INCH
T1C0.0157
T2C0.0315
T3C0.0354
T4C0.0394
T5C0.0469
T6C0.1378
%
G90
G05
T1
X0.9537Y-4.2138
X0.9537Y-5.2388
X1.1287Y-5.3888
X1.4287Y-5.4888
X1.8787Y-5.2388
X2.2787Y-3.2138
X2.3787Y-3.1638
X2.4787Y-3.1138
X2.4787Y-4.5138
X2.5787Y-3.0638
X2.5787Y-4.6138
X2.6787Y-3.0138
X2.6787Y-4.8138
X2.7787Y-2.9638
X2.7787Y-4.9138
X2.8787Y-5.0638
X2.9787Y-4.9638
X3.0287Y-2.9138
X3.0787Y-4.7638
X3.1787Y-4.6638
X3.6287Y-4.7388
X3.6787Y-4.8888
X3.7287Y-5.0388
T2
X2.3287Y-5.7388
X2.3287Y-6.1388
X3.3537Y-4.2888
X3.3537Y-4.6888
X4.5287Y-1.6388
X4.5287Y-2.0388
X3.9287Y-5.8388
X3.9287Y-6.2388
X1.8287Y-5.6138
X1.8287Y-5.7138
X1.8287Y-5.8138
X1.8287Y-5.9138
X1.8287Y-6.0138
X1.8287Y-6.1138
X1.8287Y-6.2138
X2.1287Y-5.6138
X2.1287Y-5.7138
X2.1287Y-5.8138
X2.1287Y-5.9138
X2.1287Y-6.0138
X2.1287Y-6.1138
X2.1287Y-6.2138
X1.9287Y-6.5638
X1.9287Y-6.9638
X1.8819Y-4.3138
X2.0787Y-4.3138
X3.5287Y-1.6388
X3.5287Y-2.0388
X1.8037Y-6.5638
X1.8037Y-6.9638
X1.2287Y-4.4638
X1.2287Y-4.5638
X1.2287Y-4.6638
X1.2287Y-4.7638
X1.2287Y-4.8638
X1.2287Y-4.9638
X1.2287Y-5.0638
X1.5287Y-4.4638
X1.5287Y-4.5638
X1.5287Y-4.6638
X1.5287Y-4.7638
X1.5287Y-4.8638
X1.5287Y-4.9638
X1.5287Y-5.0638
X1.0287Y-2.6638
X1.0287Y-3.0638
X3.4287Y-2.4388
X3.4287Y-2.7388
X3.5287Y-2.4388
X3.5287Y-2.7388
X3.6287Y-2.4388
X3.6287Y-2.7388
X3.7287Y-2.4388
X3.7287Y-2.7388
X3.8287Y-2.4388
X3.8287Y-2.7388
X3.9287Y-2.4388
X3.9287Y-2.7388
X4.0287Y-2.4388
X4.0287Y-2.7388
X4.1287Y-2.4388
X4.1287Y-2.7388
X4.2287Y-2.4388
X4.2287Y-2.7388
X4.3287Y-2.4388
X4.3287Y-2.7388
X1.2819Y-4.3138
X1.4787Y-4.3138
X2.1787Y-2.4388
X2.1787Y-2.7388
X2.2787Y-2.4388
X2.2787Y-2.7388
X2.3787Y-2.4388
X2.3787Y-2.7388
X2.4787Y-2.4388
X2.4787Y-2.7388
X2.5787Y-2.4388
X2.5787Y-2.7388
X2.6787Y-2.4388
X2.6787Y-2.7388
X2.7787Y-2.4388
X2.7787Y-2.7388
X2.8787Y-2.4388
X2.8787Y-2.7388
X2.9787Y-2.4388
X2.9787Y-2.7388
X3.0787Y-2.4388
X3.0787Y-2.7388
X3.4537Y-3.5388
X3.4537Y-3.7356
X3.2787Y-5.3169
X3.2787Y-5.5138
X3.3287Y-1.6388
X3.3287Y-2.0388
X4.1287Y-1.6388
X4.1287Y-2.0388
X1.2787Y-2.8388
X1.4756Y-2.8388
X2.0287Y-2.4888
X2.0287Y-2.6856
X3.6287Y-3.4888
X3.6287Y-3.7888
X3.7287Y-3.4888
X3.7287Y-3.7888
X3.8287Y-3.4888
X3.8287Y-3.7888
X3.9287Y-3.4888
X3.9287Y-3.7888
X4.0287Y-3.4888
X4.0287Y-3.7888
X4.1287Y-3.4888
X4.1287Y-3.7888
X4.2287Y-3.4888
X4.2287Y-3.7888
X4.3287Y-3.4888
X4.3287Y-3.7888
X3.7287Y-1.6388
X3.7287Y-2.0388
X1.5537Y-6.5638
X1.5537Y-6.9638
X4.3287Y-5.8388
X4.3287Y-6.2388
X2.1287Y-3.5388
X2.1287Y-3.7356
X3.9287Y-4.2388
X4.0287Y-4.2388
X4.1287Y-4.2388
X4.2287Y-4.2388
X4.3287Y-4.2388
X1.2287Y-3.0138
X1.2287Y-3.1138
X1.2287Y-3.2138
X1.2287Y-3.3138
X1.2287Y-3.4138
X1.2287Y-3.5138
X1.2287Y-3.6138
X1.5287Y-3.0138
X1.5287Y-3.1138
X1.5287Y-3.2138
X1.5287Y-3.3138
X1.5287Y-3.4138
X1.5287Y-3.5138
X1.5287Y-3.6138
X3.9287Y-1.6388
X3.9287Y-2.0388
X2.2787Y-3.4888
X2.2787Y-3.7888
X2.3787Y-3.4888
X2.3787Y-3.7888
X2.4787Y-3.4888
X2.4787Y-3.7888
X2.5787Y-3.4888
X2.5787Y-3.7888
X2.6787Y-3.4888
X2.6787Y-3.7888
X2.7787Y-3.4888
X2.7787Y-3.7888
X2.8787Y-3.4888
X2.8787Y-3.7888
X2.9787Y-3.4888
X2.9787Y-3.7888
X3.0787Y-3.4888
X3.0787Y-3.7888
X3.1787Y-3.4888
X3.1787Y-3.7888
X1.6287Y-1.0388
X1.6287Y-1.1372
X3.2787Y-2.4888
X3.2787Y-2.6856
X3.7287Y-5.8388
X3.7287Y-6.2388
X4.3287Y-1.6388
X4.3287Y-2.0388
X1.8268Y-4.4638
X1.8268Y-4.5638
X1.8268Y-4.6638
X1.8268Y-4.7638
X1.8268Y-4.8638
X1.8268Y-4.9638
X1.8268Y-5.0638
X2.1268Y-4.4638
X2.1268Y-4.5638
X2.1268Y-4.6638
X2.1268Y-4.7638
X2.1268Y-4.8638
X2.1268Y-4.9638
X2.1268Y-5.0638
X1.6787Y-6.5638
X1.6787Y-6.9638
X3.4287Y-5.2638
X3.4287Y-5.5638
X3.5287Y-5.2638
X3.5287Y-5.5638
X3.6287Y-5.2638
X3.6287Y-5.5638
X3.7287Y-5.2638
X3.7287Y-5.5638
X3.8287Y-5.2638
X3.8287Y-5.5638
X3.9287Y-5.2638
X3.9287Y-5.5638
X4.0287Y-5.2638
X4.0287Y-5.5638
X4.1287Y-5.2638
X4.1287Y-5.5638
X4.2287Y-5.2638
X4.2287Y-5.5638
X4.3287Y-5.2638
X4.3287Y-5.5638
X1.8787Y-5.4638
X2.0756Y-5.4638
X3.1287Y-1.6388
X3.1287Y-2.0388
X4.1287Y-5.8388
X4.1287Y-6.2388
T3
X4.308Y-4.8888
X4.3787Y-4.8181
X3.7287Y-1.4388
X3.7287Y-1.5388
X3.7287Y-6.3638
X3.7287Y-6.4638
X3.858Y-4.8888
X3.9287Y-4.8181
X3.9287Y-1.4388
X3.9287Y-1.5388
X3.3537Y-4.1138
X3.4537Y-4.1138
X4.1226Y-6.3638
X4.1226Y-6.4638
X4.158Y-4.7388
X4.2287Y-4.6681
X4.1287Y-1.4388
X4.1287Y-1.5388
X4.5287Y-1.4388
X4.5287Y-1.5388
X4.008Y-4.5888
X4.0787Y-4.5181
X4.308Y-5.0388
X4.3787Y-4.9681
X4.3287Y-6.3638
X4.3287Y-6.4638
X4.158Y-4.8888
X4.2287Y-4.8181
X2.3287Y-5.5388
X2.3287Y-5.6388
X4.158Y-4.5888
X4.2287Y-4.5181
X4.308Y-4.7388
X4.3787Y-4.6681
X3.858Y-5.0388
X3.9287Y-4.9681
X4.3287Y-1.4388
X4.3287Y-1.5388
X1.0287Y-2.4638
X1.0287Y-2.5638
X4.008Y-4.8888
X4.0787Y-4.8181
X4.008Y-5.0388
X4.0787Y-4.9681
X3.1287Y-1.4388
X3.1287Y-1.5388
X3.858Y-4.5888
X3.9287Y-4.5181
X4.308Y-4.5888
X4.3787Y-4.5181
X4.158Y-5.0388
X4.2287Y-4.9681
X3.3287Y-1.4388
X3.3287Y-1.5388
X3.9258Y-6.3638
X3.9258Y-6.4638
X3.5287Y-1.4388
X3.5287Y-1.5388
X4.008Y-4.7388
X4.0787Y-4.6681
X1.9037Y-1.0388
X2.3037Y-1.0388
X3.858Y-4.7388
X3.9287Y-4.6681
T4
X1.0037Y-1.3138
X1.0037Y-1.4138
X1.0037Y-1.5138
X1.0037Y-1.6138
X1.0037Y-1.7138
X1.0037Y-1.8138
X1.0037Y-1.9138
X1.0037Y-2.0138
X1.0037Y-2.1138
X1.0037Y-2.2138
X1.1037Y-1.3138
X1.1037Y-1.4138
X1.1037Y-1.5138
X1.1037Y-1.6138
X1.1037Y-1.7138
X1.1037Y-1.8138
X1.1037Y-1.9138
X1.1037Y-2.0138
X1.1037Y-2.1138
X1.1037Y-2.2138
X2.3787Y-6.7138
X2.3787Y-6.8138
X2.4787Y-6.7138
X2.4787Y-6.8138
X2.5787Y-6.7138
X2.5787Y-6.8138
X2.6787Y-6.7138
X2.6787Y-6.8138
X2.7787Y-6.7138
X2.7787Y-6.8138
X2.8787Y-6.7138
X2.8787Y-6.8138
X2.9787Y-6.7138
X2.9787Y-6.8138
X3.0787Y-6.7138
X3.0787Y-6.8138
X3.1787Y-6.7138
X3.1787Y-6.8138
X3.2787Y-6.7138
X3.2787Y-6.8138
T5
X1.0787Y-6.4388
X1.0787Y-6.5388
X1.0787Y-5.9138
X1.0787Y-6.0138
X1.0787Y-6.1138
X1.0787Y-6.2138
X1.2037Y-1.0388
X1.3037Y-1.0388
X3.6287Y-6.8638
X3.7287Y-6.8638
X3.8287Y-6.8638
X3.9287Y-6.8638
T6
X0.9256Y-0.9856
X0.9256Y-6.8911
X4.4689Y-0.9856
X4.4689Y-6.8911
T0
M30
