G04 #@! TF.GenerationSoftware,KiCad,Pcbnew,(5.1.7)-1*
G04 #@! TF.CreationDate,2020-11-15T08:59:14+01:00*
G04 #@! TF.ProjectId,Steuerwerk,53746575-6572-4776-9572-6b2e6b696361,rev?*
G04 #@! TF.SameCoordinates,Original*
G04 #@! TF.FileFunction,Legend,Top*
G04 #@! TF.FilePolarity,Positive*
%FSLAX46Y46*%
G04 Gerber Fmt 4.6, Leading zero omitted, Abs format (unit mm)*
G04 Created by KiCad (PCBNEW (5.1.7)-1) date 2020-11-15 08:59:14*
%MOMM*%
%LPD*%
G01*
G04 APERTURE LIST*
%ADD10C,0.170000*%
%ADD11C,0.400000*%
G04 APERTURE END LIST*
D10*
X113153619Y-49308378D02*
X113153619Y-48641712D01*
X113153619Y-48832188D02*
X113201238Y-48736950D01*
X113248857Y-48689331D01*
X113344095Y-48641712D01*
X113439333Y-48641712D01*
X114153619Y-49260759D02*
X114058380Y-49308378D01*
X113867904Y-49308378D01*
X113772666Y-49260759D01*
X113725047Y-49165521D01*
X113725047Y-48784569D01*
X113772666Y-48689331D01*
X113867904Y-48641712D01*
X114058380Y-48641712D01*
X114153619Y-48689331D01*
X114201238Y-48784569D01*
X114201238Y-48879807D01*
X113725047Y-48975045D01*
X114534571Y-48641712D02*
X114772666Y-49308378D01*
X115010761Y-48641712D01*
X116106000Y-48403617D02*
X116153619Y-48355998D01*
X116248857Y-48308378D01*
X116486952Y-48308378D01*
X116582190Y-48355998D01*
X116629809Y-48403617D01*
X116677428Y-48498855D01*
X116677428Y-48594093D01*
X116629809Y-48736950D01*
X116058380Y-49308378D01*
X116677428Y-49308378D01*
X117106000Y-49213140D02*
X117153619Y-49260759D01*
X117106000Y-49308378D01*
X117058380Y-49260759D01*
X117106000Y-49213140D01*
X117106000Y-49308378D01*
X117772666Y-48308378D02*
X117867904Y-48308378D01*
X117963142Y-48355998D01*
X118010761Y-48403617D01*
X118058380Y-48498855D01*
X118106000Y-48689331D01*
X118106000Y-48927426D01*
X118058380Y-49117902D01*
X118010761Y-49213140D01*
X117963142Y-49260759D01*
X117867904Y-49308378D01*
X117772666Y-49308378D01*
X117677428Y-49260759D01*
X117629809Y-49213140D01*
X117582190Y-49117902D01*
X117534571Y-48927426D01*
X117534571Y-48689331D01*
X117582190Y-48498855D01*
X117629809Y-48403617D01*
X117677428Y-48355998D01*
X117772666Y-48308378D01*
D11*
X101001000Y-44410998D02*
X102271000Y-45680998D01*
X102271000Y-43140998D02*
X101001000Y-44410998D01*
X105446000Y-44410998D02*
X101001000Y-44410998D01*
D10*
X99929809Y-42323378D02*
X99929809Y-41656712D01*
X99929809Y-41847188D02*
X99977428Y-41751950D01*
X100025047Y-41704331D01*
X100120285Y-41656712D01*
X100215523Y-41656712D01*
X100929809Y-42275759D02*
X100834571Y-42323378D01*
X100644095Y-42323378D01*
X100548857Y-42275759D01*
X100501238Y-42180521D01*
X100501238Y-41799569D01*
X100548857Y-41704331D01*
X100644095Y-41656712D01*
X100834571Y-41656712D01*
X100929809Y-41704331D01*
X100977428Y-41799569D01*
X100977428Y-41894807D01*
X100501238Y-41990045D01*
X101834571Y-42323378D02*
X101834571Y-41799569D01*
X101786952Y-41704331D01*
X101691714Y-41656712D01*
X101501238Y-41656712D01*
X101406000Y-41704331D01*
X101834571Y-42275759D02*
X101739333Y-42323378D01*
X101501238Y-42323378D01*
X101406000Y-42275759D01*
X101358380Y-42180521D01*
X101358380Y-42085283D01*
X101406000Y-41990045D01*
X101501238Y-41942426D01*
X101739333Y-41942426D01*
X101834571Y-41894807D01*
X102739333Y-42323378D02*
X102739333Y-41323378D01*
X102739333Y-42275759D02*
X102644095Y-42323378D01*
X102453619Y-42323378D01*
X102358380Y-42275759D01*
X102310761Y-42228140D01*
X102263142Y-42132902D01*
X102263142Y-41847188D01*
X102310761Y-41751950D01*
X102358380Y-41704331D01*
X102453619Y-41656712D01*
X102644095Y-41656712D01*
X102739333Y-41704331D01*
X103215523Y-42323378D02*
X103215523Y-41323378D01*
X103548857Y-42037664D01*
X103882190Y-41323378D01*
X103882190Y-42323378D01*
X104358380Y-42323378D02*
X104358380Y-41323378D01*
X104739333Y-41323378D01*
X104834571Y-41370998D01*
X104882190Y-41418617D01*
X104929809Y-41513855D01*
X104929809Y-41656712D01*
X104882190Y-41751950D01*
X104834571Y-41799569D01*
X104739333Y-41847188D01*
X104358380Y-41847188D01*
X105929809Y-42228140D02*
X105882190Y-42275759D01*
X105739333Y-42323378D01*
X105644095Y-42323378D01*
X105501238Y-42275759D01*
X105406000Y-42180521D01*
X105358380Y-42085283D01*
X105310761Y-41894807D01*
X105310761Y-41751950D01*
X105358380Y-41561474D01*
X105406000Y-41466236D01*
X105501238Y-41370998D01*
X105644095Y-41323378D01*
X105739333Y-41323378D01*
X105882190Y-41370998D01*
X105929809Y-41418617D01*
D11*
X48296000Y-180300998D02*
X49566000Y-179030998D01*
X48296000Y-180300998D02*
X47026000Y-179030998D01*
X48296000Y-175855998D02*
X48296000Y-180300998D01*
D10*
X57487666Y-149908378D02*
X58106714Y-149908378D01*
X57773380Y-150289331D01*
X57916238Y-150289331D01*
X58011476Y-150336950D01*
X58059095Y-150384569D01*
X58106714Y-150479807D01*
X58106714Y-150717902D01*
X58059095Y-150813140D01*
X58011476Y-150860759D01*
X57916238Y-150908378D01*
X57630523Y-150908378D01*
X57535285Y-150860759D01*
X57487666Y-150813140D01*
X62615285Y-150003617D02*
X62662904Y-149955998D01*
X62758142Y-149908378D01*
X62996238Y-149908378D01*
X63091476Y-149955998D01*
X63139095Y-150003617D01*
X63186714Y-150098855D01*
X63186714Y-150194093D01*
X63139095Y-150336950D01*
X62567666Y-150908378D01*
X63186714Y-150908378D01*
X68266714Y-150908378D02*
X67695285Y-150908378D01*
X67981000Y-150908378D02*
X67981000Y-149908378D01*
X67885761Y-150051236D01*
X67790523Y-150146474D01*
X67695285Y-150194093D01*
X73013380Y-149908378D02*
X73108619Y-149908378D01*
X73203857Y-149955998D01*
X73251476Y-150003617D01*
X73299095Y-150098855D01*
X73346714Y-150289331D01*
X73346714Y-150527426D01*
X73299095Y-150717902D01*
X73251476Y-150813140D01*
X73203857Y-150860759D01*
X73108619Y-150908378D01*
X73013380Y-150908378D01*
X72918142Y-150860759D01*
X72870523Y-150813140D01*
X72822904Y-150717902D01*
X72775285Y-150527426D01*
X72775285Y-150289331D01*
X72822904Y-150098855D01*
X72870523Y-150003617D01*
X72918142Y-149955998D01*
X73013380Y-149908378D01*
X43200285Y-181340759D02*
X43105047Y-181388378D01*
X42914571Y-181388378D01*
X42819333Y-181340759D01*
X42771714Y-181245521D01*
X42771714Y-180864569D01*
X42819333Y-180769331D01*
X42914571Y-180721712D01*
X43105047Y-180721712D01*
X43200285Y-180769331D01*
X43247904Y-180864569D01*
X43247904Y-180959807D01*
X42771714Y-181055045D01*
X43676476Y-180721712D02*
X43676476Y-181388378D01*
X43676476Y-180816950D02*
X43724095Y-180769331D01*
X43819333Y-180721712D01*
X43962190Y-180721712D01*
X44057428Y-180769331D01*
X44105047Y-180864569D01*
X44105047Y-181388378D01*
X45152666Y-181293140D02*
X45105047Y-181340759D01*
X44962190Y-181388378D01*
X44866952Y-181388378D01*
X44724095Y-181340759D01*
X44628857Y-181245521D01*
X44581238Y-181150283D01*
X44533619Y-180959807D01*
X44533619Y-180816950D01*
X44581238Y-180626474D01*
X44628857Y-180531236D01*
X44724095Y-180435998D01*
X44866952Y-180388378D01*
X44962190Y-180388378D01*
X45105047Y-180435998D01*
X45152666Y-180483617D01*
X45581238Y-180388378D02*
X45581238Y-181197902D01*
X45628857Y-181293140D01*
X45676476Y-181340759D01*
X45771714Y-181388378D01*
X45962190Y-181388378D01*
X46057428Y-181340759D01*
X46105047Y-181293140D01*
X46152666Y-181197902D01*
X46152666Y-180388378D01*
X76172666Y-55658378D02*
X76172666Y-54658378D01*
X76506000Y-55372664D01*
X76839333Y-54658378D01*
X76839333Y-55658378D01*
X77315523Y-55658378D02*
X77315523Y-54658378D01*
X77696476Y-54658378D01*
X77791714Y-54705998D01*
X77839333Y-54753617D01*
X77886952Y-54848855D01*
X77886952Y-54991712D01*
X77839333Y-55086950D01*
X77791714Y-55134569D01*
X77696476Y-55182188D01*
X77315523Y-55182188D01*
X78886952Y-55563140D02*
X78839333Y-55610759D01*
X78696476Y-55658378D01*
X78601238Y-55658378D01*
X78458380Y-55610759D01*
X78363142Y-55515521D01*
X78315523Y-55420283D01*
X78267904Y-55229807D01*
X78267904Y-55086950D01*
X78315523Y-54896474D01*
X78363142Y-54801236D01*
X78458380Y-54705998D01*
X78601238Y-54658378D01*
X78696476Y-54658378D01*
X78839333Y-54705998D01*
X78886952Y-54753617D01*
X76252642Y-115983378D02*
X75681214Y-115983378D01*
X75966928Y-115983378D02*
X75966928Y-114983378D01*
X75871690Y-115126236D01*
X75776452Y-115221474D01*
X75681214Y-115269093D01*
X77157404Y-114983378D02*
X76681214Y-114983378D01*
X76633595Y-115459569D01*
X76681214Y-115411950D01*
X76776452Y-115364331D01*
X77014547Y-115364331D01*
X77109785Y-115411950D01*
X77157404Y-115459569D01*
X77205023Y-115554807D01*
X77205023Y-115792902D01*
X77157404Y-115888140D01*
X77109785Y-115935759D01*
X77014547Y-115983378D01*
X76776452Y-115983378D01*
X76681214Y-115935759D01*
X76633595Y-115888140D01*
X52106000Y-179030998D02*
X52106000Y-191730998D01*
X59321952Y-152613378D02*
X59321952Y-151613378D01*
X59655285Y-152327664D01*
X59988619Y-151613378D01*
X59988619Y-152613378D01*
X60464809Y-152613378D02*
X60464809Y-151946712D01*
X60464809Y-151613378D02*
X60417190Y-151660998D01*
X60464809Y-151708617D01*
X60512428Y-151660998D01*
X60464809Y-151613378D01*
X60464809Y-151708617D01*
X60941000Y-152613378D02*
X60941000Y-151613378D01*
X61036238Y-152232426D02*
X61321952Y-152613378D01*
X61321952Y-151946712D02*
X60941000Y-152327664D01*
X61750523Y-152613378D02*
X61750523Y-151946712D01*
X61750523Y-152137188D02*
X61798142Y-152041950D01*
X61845761Y-151994331D01*
X61941000Y-151946712D01*
X62036238Y-151946712D01*
X62512428Y-152613378D02*
X62417190Y-152565759D01*
X62369571Y-152518140D01*
X62321952Y-152422902D01*
X62321952Y-152137188D01*
X62369571Y-152041950D01*
X62417190Y-151994331D01*
X62512428Y-151946712D01*
X62655285Y-151946712D01*
X62750523Y-151994331D01*
X62798142Y-152041950D01*
X62845761Y-152137188D01*
X62845761Y-152422902D01*
X62798142Y-152518140D01*
X62750523Y-152565759D01*
X62655285Y-152613378D01*
X62512428Y-152613378D01*
X63274333Y-151946712D02*
X63274333Y-152946712D01*
X63274333Y-151994331D02*
X63369571Y-151946712D01*
X63560047Y-151946712D01*
X63655285Y-151994331D01*
X63702904Y-152041950D01*
X63750523Y-152137188D01*
X63750523Y-152422902D01*
X63702904Y-152518140D01*
X63655285Y-152565759D01*
X63560047Y-152613378D01*
X63369571Y-152613378D01*
X63274333Y-152565759D01*
X64179095Y-152613378D02*
X64179095Y-151946712D01*
X64179095Y-152137188D02*
X64226714Y-152041950D01*
X64274333Y-151994331D01*
X64369571Y-151946712D01*
X64464809Y-151946712D01*
X64941000Y-152613378D02*
X64845761Y-152565759D01*
X64798142Y-152518140D01*
X64750523Y-152422902D01*
X64750523Y-152137188D01*
X64798142Y-152041950D01*
X64845761Y-151994331D01*
X64941000Y-151946712D01*
X65083857Y-151946712D01*
X65179095Y-151994331D01*
X65226714Y-152041950D01*
X65274333Y-152137188D01*
X65274333Y-152422902D01*
X65226714Y-152518140D01*
X65179095Y-152565759D01*
X65083857Y-152613378D01*
X64941000Y-152613378D01*
X66131476Y-151946712D02*
X66131476Y-152756236D01*
X66083857Y-152851474D01*
X66036238Y-152899093D01*
X65941000Y-152946712D01*
X65798142Y-152946712D01*
X65702904Y-152899093D01*
X66131476Y-152565759D02*
X66036238Y-152613378D01*
X65845761Y-152613378D01*
X65750523Y-152565759D01*
X65702904Y-152518140D01*
X65655285Y-152422902D01*
X65655285Y-152137188D01*
X65702904Y-152041950D01*
X65750523Y-151994331D01*
X65845761Y-151946712D01*
X66036238Y-151946712D01*
X66131476Y-151994331D01*
X66607666Y-152613378D02*
X66607666Y-151946712D01*
X66607666Y-152137188D02*
X66655285Y-152041950D01*
X66702904Y-151994331D01*
X66798142Y-151946712D01*
X66893380Y-151946712D01*
X67655285Y-152613378D02*
X67655285Y-152089569D01*
X67607666Y-151994331D01*
X67512428Y-151946712D01*
X67321952Y-151946712D01*
X67226714Y-151994331D01*
X67655285Y-152565759D02*
X67560047Y-152613378D01*
X67321952Y-152613378D01*
X67226714Y-152565759D01*
X67179095Y-152470521D01*
X67179095Y-152375283D01*
X67226714Y-152280045D01*
X67321952Y-152232426D01*
X67560047Y-152232426D01*
X67655285Y-152184807D01*
X68131476Y-152613378D02*
X68131476Y-151946712D01*
X68131476Y-152041950D02*
X68179095Y-151994331D01*
X68274333Y-151946712D01*
X68417190Y-151946712D01*
X68512428Y-151994331D01*
X68560047Y-152089569D01*
X68560047Y-152613378D01*
X68560047Y-152089569D02*
X68607666Y-151994331D01*
X68702904Y-151946712D01*
X68845761Y-151946712D01*
X68941000Y-151994331D01*
X68988619Y-152089569D01*
X68988619Y-152613378D01*
X69464809Y-152613378D02*
X69464809Y-151946712D01*
X69464809Y-152041950D02*
X69512428Y-151994331D01*
X69607666Y-151946712D01*
X69750523Y-151946712D01*
X69845761Y-151994331D01*
X69893380Y-152089569D01*
X69893380Y-152613378D01*
X69893380Y-152089569D02*
X69941000Y-151994331D01*
X70036238Y-151946712D01*
X70179095Y-151946712D01*
X70274333Y-151994331D01*
X70321952Y-152089569D01*
X70321952Y-152613378D01*
X70798142Y-152232426D02*
X71560047Y-152232426D01*
X60607666Y-154283378D02*
X60607666Y-153759569D01*
X60560047Y-153664331D01*
X60464809Y-153616712D01*
X60274333Y-153616712D01*
X60179095Y-153664331D01*
X60607666Y-154235759D02*
X60512428Y-154283378D01*
X60274333Y-154283378D01*
X60179095Y-154235759D01*
X60131476Y-154140521D01*
X60131476Y-154045283D01*
X60179095Y-153950045D01*
X60274333Y-153902426D01*
X60512428Y-153902426D01*
X60607666Y-153854807D01*
X61512428Y-154283378D02*
X61512428Y-153283378D01*
X61512428Y-154235759D02*
X61417190Y-154283378D01*
X61226714Y-154283378D01*
X61131476Y-154235759D01*
X61083857Y-154188140D01*
X61036238Y-154092902D01*
X61036238Y-153807188D01*
X61083857Y-153711950D01*
X61131476Y-153664331D01*
X61226714Y-153616712D01*
X61417190Y-153616712D01*
X61512428Y-153664331D01*
X61988619Y-154283378D02*
X61988619Y-153616712D01*
X61988619Y-153807188D02*
X62036238Y-153711950D01*
X62083857Y-153664331D01*
X62179095Y-153616712D01*
X62274333Y-153616712D01*
X62988619Y-154235759D02*
X62893380Y-154283378D01*
X62702904Y-154283378D01*
X62607666Y-154235759D01*
X62560047Y-154140521D01*
X62560047Y-153759569D01*
X62607666Y-153664331D01*
X62702904Y-153616712D01*
X62893380Y-153616712D01*
X62988619Y-153664331D01*
X63036238Y-153759569D01*
X63036238Y-153854807D01*
X62560047Y-153950045D01*
X63417190Y-154235759D02*
X63512428Y-154283378D01*
X63702904Y-154283378D01*
X63798142Y-154235759D01*
X63845761Y-154140521D01*
X63845761Y-154092902D01*
X63798142Y-153997664D01*
X63702904Y-153950045D01*
X63560047Y-153950045D01*
X63464809Y-153902426D01*
X63417190Y-153807188D01*
X63417190Y-153759569D01*
X63464809Y-153664331D01*
X63560047Y-153616712D01*
X63702904Y-153616712D01*
X63798142Y-153664331D01*
X64226714Y-154235759D02*
X64321952Y-154283378D01*
X64512428Y-154283378D01*
X64607666Y-154235759D01*
X64655285Y-154140521D01*
X64655285Y-154092902D01*
X64607666Y-153997664D01*
X64512428Y-153950045D01*
X64369571Y-153950045D01*
X64274333Y-153902426D01*
X64226714Y-153807188D01*
X64226714Y-153759569D01*
X64274333Y-153664331D01*
X64369571Y-153616712D01*
X64512428Y-153616712D01*
X64607666Y-153664331D01*
X65464809Y-154235759D02*
X65369571Y-154283378D01*
X65179095Y-154283378D01*
X65083857Y-154235759D01*
X65036238Y-154140521D01*
X65036238Y-153759569D01*
X65083857Y-153664331D01*
X65179095Y-153616712D01*
X65369571Y-153616712D01*
X65464809Y-153664331D01*
X65512428Y-153759569D01*
X65512428Y-153854807D01*
X65036238Y-153950045D01*
X66988619Y-154664331D02*
X66941000Y-154616712D01*
X66845761Y-154473855D01*
X66798142Y-154378617D01*
X66750523Y-154235759D01*
X66702904Y-153997664D01*
X66702904Y-153807188D01*
X66750523Y-153569093D01*
X66798142Y-153426236D01*
X66845761Y-153330998D01*
X66941000Y-153188140D01*
X66988619Y-153140521D01*
X67369571Y-154283378D02*
X67369571Y-153283378D01*
X67702904Y-153997664D01*
X68036238Y-153283378D01*
X68036238Y-154283378D01*
X68512428Y-154283378D02*
X68512428Y-153283378D01*
X68893380Y-153283378D01*
X68988619Y-153330998D01*
X69036238Y-153378617D01*
X69083857Y-153473855D01*
X69083857Y-153616712D01*
X69036238Y-153711950D01*
X68988619Y-153759569D01*
X68893380Y-153807188D01*
X68512428Y-153807188D01*
X70083857Y-154188140D02*
X70036238Y-154235759D01*
X69893380Y-154283378D01*
X69798142Y-154283378D01*
X69655285Y-154235759D01*
X69560047Y-154140521D01*
X69512428Y-154045283D01*
X69464809Y-153854807D01*
X69464809Y-153711950D01*
X69512428Y-153521474D01*
X69560047Y-153426236D01*
X69655285Y-153330998D01*
X69798142Y-153283378D01*
X69893380Y-153283378D01*
X70036238Y-153330998D01*
X70083857Y-153378617D01*
X70417190Y-154664331D02*
X70464809Y-154616712D01*
X70560047Y-154473855D01*
X70607666Y-154378617D01*
X70655285Y-154235759D01*
X70702904Y-153997664D01*
X70702904Y-153807188D01*
X70655285Y-153569093D01*
X70607666Y-153426236D01*
X70560047Y-153330998D01*
X70464809Y-153188140D01*
X70417190Y-153140521D01*
X76252642Y-112173378D02*
X75681214Y-112173378D01*
X75966928Y-112173378D02*
X75966928Y-111173378D01*
X75871690Y-111316236D01*
X75776452Y-111411474D01*
X75681214Y-111459093D01*
X77109785Y-111506712D02*
X77109785Y-112173378D01*
X76871690Y-111125759D02*
X76633595Y-111840045D01*
X77252642Y-111840045D01*
X76252642Y-108363378D02*
X75681214Y-108363378D01*
X75966928Y-108363378D02*
X75966928Y-107363378D01*
X75871690Y-107506236D01*
X75776452Y-107601474D01*
X75681214Y-107649093D01*
X76585976Y-107363378D02*
X77205023Y-107363378D01*
X76871690Y-107744331D01*
X77014547Y-107744331D01*
X77109785Y-107791950D01*
X77157404Y-107839569D01*
X77205023Y-107934807D01*
X77205023Y-108172902D01*
X77157404Y-108268140D01*
X77109785Y-108315759D01*
X77014547Y-108363378D01*
X76728833Y-108363378D01*
X76633595Y-108315759D01*
X76585976Y-108268140D01*
X76252642Y-104553378D02*
X75681214Y-104553378D01*
X75966928Y-104553378D02*
X75966928Y-103553378D01*
X75871690Y-103696236D01*
X75776452Y-103791474D01*
X75681214Y-103839093D01*
X76633595Y-103648617D02*
X76681214Y-103600998D01*
X76776452Y-103553378D01*
X77014547Y-103553378D01*
X77109785Y-103600998D01*
X77157404Y-103648617D01*
X77205023Y-103743855D01*
X77205023Y-103839093D01*
X77157404Y-103981950D01*
X76585976Y-104553378D01*
X77205023Y-104553378D01*
X76252642Y-100743378D02*
X75681214Y-100743378D01*
X75966928Y-100743378D02*
X75966928Y-99743378D01*
X75871690Y-99886236D01*
X75776452Y-99981474D01*
X75681214Y-100029093D01*
X77205023Y-100743378D02*
X76633595Y-100743378D01*
X76919309Y-100743378D02*
X76919309Y-99743378D01*
X76824071Y-99886236D01*
X76728833Y-99981474D01*
X76633595Y-100029093D01*
X76252642Y-96933378D02*
X75681214Y-96933378D01*
X75966928Y-96933378D02*
X75966928Y-95933378D01*
X75871690Y-96076236D01*
X75776452Y-96171474D01*
X75681214Y-96219093D01*
X76871690Y-95933378D02*
X76966928Y-95933378D01*
X77062166Y-95980998D01*
X77109785Y-96028617D01*
X77157404Y-96123855D01*
X77205023Y-96314331D01*
X77205023Y-96552426D01*
X77157404Y-96742902D01*
X77109785Y-96838140D01*
X77062166Y-96885759D01*
X76966928Y-96933378D01*
X76871690Y-96933378D01*
X76776452Y-96885759D01*
X76728833Y-96838140D01*
X76681214Y-96742902D01*
X76633595Y-96552426D01*
X76633595Y-96314331D01*
X76681214Y-96123855D01*
X76728833Y-96028617D01*
X76776452Y-95980998D01*
X76871690Y-95933378D01*
X77315523Y-93123378D02*
X77506000Y-93123378D01*
X77601238Y-93075759D01*
X77648857Y-93028140D01*
X77744095Y-92885283D01*
X77791714Y-92694807D01*
X77791714Y-92313855D01*
X77744095Y-92218617D01*
X77696476Y-92170998D01*
X77601238Y-92123378D01*
X77410761Y-92123378D01*
X77315523Y-92170998D01*
X77267904Y-92218617D01*
X77220285Y-92313855D01*
X77220285Y-92551950D01*
X77267904Y-92647188D01*
X77315523Y-92694807D01*
X77410761Y-92742426D01*
X77601238Y-92742426D01*
X77696476Y-92694807D01*
X77744095Y-92647188D01*
X77791714Y-92551950D01*
X77410761Y-88741950D02*
X77315523Y-88694331D01*
X77267904Y-88646712D01*
X77220285Y-88551474D01*
X77220285Y-88503855D01*
X77267904Y-88408617D01*
X77315523Y-88360998D01*
X77410761Y-88313378D01*
X77601238Y-88313378D01*
X77696476Y-88360998D01*
X77744095Y-88408617D01*
X77791714Y-88503855D01*
X77791714Y-88551474D01*
X77744095Y-88646712D01*
X77696476Y-88694331D01*
X77601238Y-88741950D01*
X77410761Y-88741950D01*
X77315523Y-88789569D01*
X77267904Y-88837188D01*
X77220285Y-88932426D01*
X77220285Y-89122902D01*
X77267904Y-89218140D01*
X77315523Y-89265759D01*
X77410761Y-89313378D01*
X77601238Y-89313378D01*
X77696476Y-89265759D01*
X77744095Y-89218140D01*
X77791714Y-89122902D01*
X77791714Y-88932426D01*
X77744095Y-88837188D01*
X77696476Y-88789569D01*
X77601238Y-88741950D01*
X77172666Y-84503378D02*
X77839333Y-84503378D01*
X77410761Y-85503378D01*
X77696476Y-80693378D02*
X77506000Y-80693378D01*
X77410761Y-80740998D01*
X77363142Y-80788617D01*
X77267904Y-80931474D01*
X77220285Y-81121950D01*
X77220285Y-81502902D01*
X77267904Y-81598140D01*
X77315523Y-81645759D01*
X77410761Y-81693378D01*
X77601238Y-81693378D01*
X77696476Y-81645759D01*
X77744095Y-81598140D01*
X77791714Y-81502902D01*
X77791714Y-81264807D01*
X77744095Y-81169569D01*
X77696476Y-81121950D01*
X77601238Y-81074331D01*
X77410761Y-81074331D01*
X77315523Y-81121950D01*
X77267904Y-81169569D01*
X77220285Y-81264807D01*
X77744095Y-76883378D02*
X77267904Y-76883378D01*
X77220285Y-77359569D01*
X77267904Y-77311950D01*
X77363142Y-77264331D01*
X77601238Y-77264331D01*
X77696476Y-77311950D01*
X77744095Y-77359569D01*
X77791714Y-77454807D01*
X77791714Y-77692902D01*
X77744095Y-77788140D01*
X77696476Y-77835759D01*
X77601238Y-77883378D01*
X77363142Y-77883378D01*
X77267904Y-77835759D01*
X77220285Y-77788140D01*
X77696476Y-73406712D02*
X77696476Y-74073378D01*
X77458380Y-73025759D02*
X77220285Y-73740045D01*
X77839333Y-73740045D01*
X77172666Y-69263378D02*
X77791714Y-69263378D01*
X77458380Y-69644331D01*
X77601238Y-69644331D01*
X77696476Y-69691950D01*
X77744095Y-69739569D01*
X77791714Y-69834807D01*
X77791714Y-70072902D01*
X77744095Y-70168140D01*
X77696476Y-70215759D01*
X77601238Y-70263378D01*
X77315523Y-70263378D01*
X77220285Y-70215759D01*
X77172666Y-70168140D01*
X77220285Y-65548617D02*
X77267904Y-65500998D01*
X77363142Y-65453378D01*
X77601238Y-65453378D01*
X77696476Y-65500998D01*
X77744095Y-65548617D01*
X77791714Y-65643855D01*
X77791714Y-65739093D01*
X77744095Y-65881950D01*
X77172666Y-66453378D01*
X77791714Y-66453378D01*
X77791714Y-62643378D02*
X77220285Y-62643378D01*
X77506000Y-62643378D02*
X77506000Y-61643378D01*
X77410761Y-61786236D01*
X77315523Y-61881474D01*
X77220285Y-61929093D01*
X77458380Y-57833378D02*
X77553619Y-57833378D01*
X77648857Y-57880998D01*
X77696476Y-57928617D01*
X77744095Y-58023855D01*
X77791714Y-58214331D01*
X77791714Y-58452426D01*
X77744095Y-58642902D01*
X77696476Y-58738140D01*
X77648857Y-58785759D01*
X77553619Y-58833378D01*
X77458380Y-58833378D01*
X77363142Y-58785759D01*
X77315523Y-58738140D01*
X77267904Y-58642902D01*
X77220285Y-58452426D01*
X77220285Y-58214331D01*
X77267904Y-58023855D01*
X77315523Y-57928617D01*
X77363142Y-57880998D01*
X77458380Y-57833378D01*
X131298380Y-123863878D02*
X131298380Y-124435307D01*
X131298380Y-124149593D02*
X130298380Y-124149593D01*
X130441238Y-124244831D01*
X130536476Y-124340069D01*
X130584095Y-124435307D01*
X130631714Y-123006736D02*
X131298380Y-123006736D01*
X130250761Y-123244831D02*
X130965047Y-123482926D01*
X130965047Y-122863878D01*
X131298380Y-121721021D02*
X130631714Y-121721021D01*
X130298380Y-121721021D02*
X130346000Y-121768640D01*
X130393619Y-121721021D01*
X130346000Y-121673402D01*
X130298380Y-121721021D01*
X130393619Y-121721021D01*
X130631714Y-121244831D02*
X131298380Y-121244831D01*
X130726952Y-121244831D02*
X130679333Y-121197212D01*
X130631714Y-121101974D01*
X130631714Y-120959117D01*
X130679333Y-120863878D01*
X130774571Y-120816259D01*
X131298380Y-120816259D01*
X131250761Y-119911498D02*
X131298380Y-120006736D01*
X131298380Y-120197212D01*
X131250761Y-120292450D01*
X131203142Y-120340069D01*
X131107904Y-120387688D01*
X130822190Y-120387688D01*
X130726952Y-120340069D01*
X130679333Y-120292450D01*
X130631714Y-120197212D01*
X130631714Y-120006736D01*
X130679333Y-119911498D01*
X131298380Y-119482926D02*
X130298380Y-119482926D01*
X130298380Y-119101974D01*
X130346000Y-119006736D01*
X130393619Y-118959117D01*
X130488857Y-118911498D01*
X130631714Y-118911498D01*
X130726952Y-118959117D01*
X130774571Y-119006736D01*
X130822190Y-119101974D01*
X130822190Y-119482926D01*
X131203142Y-117911498D02*
X131250761Y-117959117D01*
X131298380Y-118101974D01*
X131298380Y-118197212D01*
X131250761Y-118340069D01*
X131155523Y-118435307D01*
X131060285Y-118482926D01*
X130869809Y-118530545D01*
X130726952Y-118530545D01*
X130536476Y-118482926D01*
X130441238Y-118435307D01*
X130346000Y-118340069D01*
X130298380Y-118197212D01*
X130298380Y-118101974D01*
X130346000Y-117959117D01*
X130393619Y-117911498D01*
X130631714Y-117578164D02*
X130631714Y-117054355D01*
X131298380Y-117578164D01*
X131298380Y-117054355D01*
X127488380Y-123054355D02*
X127488380Y-123625783D01*
X127488380Y-123340069D02*
X126488380Y-123340069D01*
X126631238Y-123435307D01*
X126726476Y-123530545D01*
X126774095Y-123625783D01*
X126488380Y-122721021D02*
X126488380Y-122101974D01*
X126869333Y-122435307D01*
X126869333Y-122292450D01*
X126916952Y-122197212D01*
X126964571Y-122149593D01*
X127059809Y-122101974D01*
X127297904Y-122101974D01*
X127393142Y-122149593D01*
X127440761Y-122197212D01*
X127488380Y-122292450D01*
X127488380Y-122578164D01*
X127440761Y-122673402D01*
X127393142Y-122721021D01*
X127488380Y-120911498D02*
X126821714Y-120911498D01*
X126488380Y-120911498D02*
X126536000Y-120959117D01*
X126583619Y-120911498D01*
X126536000Y-120863878D01*
X126488380Y-120911498D01*
X126583619Y-120911498D01*
X126821714Y-120435307D02*
X127488380Y-120435307D01*
X126916952Y-120435307D02*
X126869333Y-120387688D01*
X126821714Y-120292450D01*
X126821714Y-120149593D01*
X126869333Y-120054355D01*
X126964571Y-120006736D01*
X127488380Y-120006736D01*
X127440761Y-119101974D02*
X127488380Y-119197212D01*
X127488380Y-119387688D01*
X127440761Y-119482926D01*
X127393142Y-119530545D01*
X127297904Y-119578164D01*
X127012190Y-119578164D01*
X126916952Y-119530545D01*
X126869333Y-119482926D01*
X126821714Y-119387688D01*
X126821714Y-119197212D01*
X126869333Y-119101974D01*
X127488380Y-118673402D02*
X126488380Y-118673402D01*
X126488380Y-118292450D01*
X126536000Y-118197212D01*
X126583619Y-118149593D01*
X126678857Y-118101974D01*
X126821714Y-118101974D01*
X126916952Y-118149593D01*
X126964571Y-118197212D01*
X127012190Y-118292450D01*
X127012190Y-118673402D01*
X127393142Y-117101974D02*
X127440761Y-117149593D01*
X127488380Y-117292450D01*
X127488380Y-117387688D01*
X127440761Y-117530545D01*
X127345523Y-117625783D01*
X127250285Y-117673402D01*
X127059809Y-117721021D01*
X126916952Y-117721021D01*
X126726476Y-117673402D01*
X126631238Y-117625783D01*
X126536000Y-117530545D01*
X126488380Y-117387688D01*
X126488380Y-117292450D01*
X126536000Y-117149593D01*
X126583619Y-117101974D01*
X123678380Y-123863878D02*
X123678380Y-124435307D01*
X123678380Y-124149593D02*
X122678380Y-124149593D01*
X122821238Y-124244831D01*
X122916476Y-124340069D01*
X122964095Y-124435307D01*
X122773619Y-123482926D02*
X122726000Y-123435307D01*
X122678380Y-123340069D01*
X122678380Y-123101974D01*
X122726000Y-123006736D01*
X122773619Y-122959117D01*
X122868857Y-122911498D01*
X122964095Y-122911498D01*
X123106952Y-122959117D01*
X123678380Y-123530545D01*
X123678380Y-122911498D01*
X123011714Y-121816259D02*
X123678380Y-121625783D01*
X123202190Y-121435307D01*
X123678380Y-121244831D01*
X123011714Y-121054355D01*
X123678380Y-120673402D02*
X123011714Y-120673402D01*
X123202190Y-120673402D02*
X123106952Y-120625783D01*
X123059333Y-120578164D01*
X123011714Y-120482926D01*
X123011714Y-120387688D01*
X123678380Y-120054355D02*
X123011714Y-120054355D01*
X122678380Y-120054355D02*
X122726000Y-120101974D01*
X122773619Y-120054355D01*
X122726000Y-120006736D01*
X122678380Y-120054355D01*
X122773619Y-120054355D01*
X123011714Y-119721021D02*
X123011714Y-119340069D01*
X122678380Y-119578164D02*
X123535523Y-119578164D01*
X123630761Y-119530545D01*
X123678380Y-119435307D01*
X123678380Y-119340069D01*
X123630761Y-118625783D02*
X123678380Y-118721021D01*
X123678380Y-118911498D01*
X123630761Y-119006736D01*
X123535523Y-119054355D01*
X123154571Y-119054355D01*
X123059333Y-119006736D01*
X123011714Y-118911498D01*
X123011714Y-118721021D01*
X123059333Y-118625783D01*
X123154571Y-118578164D01*
X123249809Y-118578164D01*
X123345047Y-119054355D01*
X123678380Y-118149593D02*
X122678380Y-118149593D01*
X123678380Y-117101974D02*
X123202190Y-117435307D01*
X123678380Y-117673402D02*
X122678380Y-117673402D01*
X122678380Y-117292450D01*
X122726000Y-117197212D01*
X122773619Y-117149593D01*
X122868857Y-117101974D01*
X123011714Y-117101974D01*
X123106952Y-117149593D01*
X123154571Y-117197212D01*
X123202190Y-117292450D01*
X123202190Y-117673402D01*
X119868380Y-123578164D02*
X119868380Y-124149593D01*
X119868380Y-123863878D02*
X118868380Y-123863878D01*
X119011238Y-123959117D01*
X119106476Y-124054355D01*
X119154095Y-124149593D01*
X119868380Y-122625783D02*
X119868380Y-123197212D01*
X119868380Y-122911498D02*
X118868380Y-122911498D01*
X119011238Y-123006736D01*
X119106476Y-123101974D01*
X119154095Y-123197212D01*
X119868380Y-121435307D02*
X119201714Y-121435307D01*
X119392190Y-121435307D02*
X119296952Y-121387688D01*
X119249333Y-121340069D01*
X119201714Y-121244831D01*
X119201714Y-121149593D01*
X119820761Y-120435307D02*
X119868380Y-120530545D01*
X119868380Y-120721021D01*
X119820761Y-120816259D01*
X119725523Y-120863878D01*
X119344571Y-120863878D01*
X119249333Y-120816259D01*
X119201714Y-120721021D01*
X119201714Y-120530545D01*
X119249333Y-120435307D01*
X119344571Y-120387688D01*
X119439809Y-120387688D01*
X119535047Y-120863878D01*
X119868380Y-119530545D02*
X119344571Y-119530545D01*
X119249333Y-119578164D01*
X119201714Y-119673402D01*
X119201714Y-119863878D01*
X119249333Y-119959117D01*
X119820761Y-119530545D02*
X119868380Y-119625783D01*
X119868380Y-119863878D01*
X119820761Y-119959117D01*
X119725523Y-120006736D01*
X119630285Y-120006736D01*
X119535047Y-119959117D01*
X119487428Y-119863878D01*
X119487428Y-119625783D01*
X119439809Y-119530545D01*
X119868380Y-118625783D02*
X118868380Y-118625783D01*
X119820761Y-118625783D02*
X119868380Y-118721021D01*
X119868380Y-118911498D01*
X119820761Y-119006736D01*
X119773142Y-119054355D01*
X119677904Y-119101974D01*
X119392190Y-119101974D01*
X119296952Y-119054355D01*
X119249333Y-119006736D01*
X119201714Y-118911498D01*
X119201714Y-118721021D01*
X119249333Y-118625783D01*
X119868380Y-118149593D02*
X118868380Y-118149593D01*
X119868380Y-117101974D02*
X119392190Y-117435307D01*
X119868380Y-117673402D02*
X118868380Y-117673402D01*
X118868380Y-117292450D01*
X118916000Y-117197212D01*
X118963619Y-117149593D01*
X119058857Y-117101974D01*
X119201714Y-117101974D01*
X119296952Y-117149593D01*
X119344571Y-117197212D01*
X119392190Y-117292450D01*
X119392190Y-117673402D01*
X116058380Y-124387688D02*
X116058380Y-124959117D01*
X116058380Y-124673402D02*
X115058380Y-124673402D01*
X115201238Y-124768640D01*
X115296476Y-124863878D01*
X115344095Y-124959117D01*
X115058380Y-123768640D02*
X115058380Y-123673402D01*
X115106000Y-123578164D01*
X115153619Y-123530545D01*
X115248857Y-123482926D01*
X115439333Y-123435307D01*
X115677428Y-123435307D01*
X115867904Y-123482926D01*
X115963142Y-123530545D01*
X116010761Y-123578164D01*
X116058380Y-123673402D01*
X116058380Y-123768640D01*
X116010761Y-123863878D01*
X115963142Y-123911498D01*
X115867904Y-123959117D01*
X115677428Y-124006736D01*
X115439333Y-124006736D01*
X115248857Y-123959117D01*
X115153619Y-123911498D01*
X115106000Y-123863878D01*
X115058380Y-123768640D01*
X115391714Y-122340069D02*
X116058380Y-122149593D01*
X115582190Y-121959117D01*
X116058380Y-121768640D01*
X115391714Y-121578164D01*
X116058380Y-121197212D02*
X115391714Y-121197212D01*
X115582190Y-121197212D02*
X115486952Y-121149593D01*
X115439333Y-121101974D01*
X115391714Y-121006736D01*
X115391714Y-120911498D01*
X116058380Y-120578164D02*
X115391714Y-120578164D01*
X115058380Y-120578164D02*
X115106000Y-120625783D01*
X115153619Y-120578164D01*
X115106000Y-120530545D01*
X115058380Y-120578164D01*
X115153619Y-120578164D01*
X115391714Y-120244831D02*
X115391714Y-119863878D01*
X115058380Y-120101974D02*
X115915523Y-120101974D01*
X116010761Y-120054355D01*
X116058380Y-119959117D01*
X116058380Y-119863878D01*
X116010761Y-119149593D02*
X116058380Y-119244831D01*
X116058380Y-119435307D01*
X116010761Y-119530545D01*
X115915523Y-119578164D01*
X115534571Y-119578164D01*
X115439333Y-119530545D01*
X115391714Y-119435307D01*
X115391714Y-119244831D01*
X115439333Y-119149593D01*
X115534571Y-119101974D01*
X115629809Y-119101974D01*
X115725047Y-119578164D01*
X116058380Y-118673402D02*
X115058380Y-118673402D01*
X115058380Y-118292450D01*
X115106000Y-118197212D01*
X115153619Y-118149593D01*
X115248857Y-118101974D01*
X115391714Y-118101974D01*
X115486952Y-118149593D01*
X115534571Y-118197212D01*
X115582190Y-118292450D01*
X115582190Y-118673402D01*
X115963142Y-117101974D02*
X116010761Y-117149593D01*
X116058380Y-117292450D01*
X116058380Y-117387688D01*
X116010761Y-117530545D01*
X115915523Y-117625783D01*
X115820285Y-117673402D01*
X115629809Y-117721021D01*
X115486952Y-117721021D01*
X115296476Y-117673402D01*
X115201238Y-117625783D01*
X115106000Y-117530545D01*
X115058380Y-117387688D01*
X115058380Y-117292450D01*
X115106000Y-117149593D01*
X115153619Y-117101974D01*
X112248380Y-123625783D02*
X112248380Y-123435307D01*
X112200761Y-123340069D01*
X112153142Y-123292450D01*
X112010285Y-123197212D01*
X111819809Y-123149593D01*
X111438857Y-123149593D01*
X111343619Y-123197212D01*
X111296000Y-123244831D01*
X111248380Y-123340069D01*
X111248380Y-123530545D01*
X111296000Y-123625783D01*
X111343619Y-123673402D01*
X111438857Y-123721021D01*
X111676952Y-123721021D01*
X111772190Y-123673402D01*
X111819809Y-123625783D01*
X111867428Y-123530545D01*
X111867428Y-123340069D01*
X111819809Y-123244831D01*
X111772190Y-123197212D01*
X111676952Y-123149593D01*
X112248380Y-121959117D02*
X111581714Y-121959117D01*
X111772190Y-121959117D02*
X111676952Y-121911498D01*
X111629333Y-121863878D01*
X111581714Y-121768640D01*
X111581714Y-121673402D01*
X112200761Y-120959117D02*
X112248380Y-121054355D01*
X112248380Y-121244831D01*
X112200761Y-121340069D01*
X112105523Y-121387688D01*
X111724571Y-121387688D01*
X111629333Y-121340069D01*
X111581714Y-121244831D01*
X111581714Y-121054355D01*
X111629333Y-120959117D01*
X111724571Y-120911498D01*
X111819809Y-120911498D01*
X111915047Y-121387688D01*
X112248380Y-120054355D02*
X111724571Y-120054355D01*
X111629333Y-120101974D01*
X111581714Y-120197212D01*
X111581714Y-120387688D01*
X111629333Y-120482926D01*
X112200761Y-120054355D02*
X112248380Y-120149593D01*
X112248380Y-120387688D01*
X112200761Y-120482926D01*
X112105523Y-120530545D01*
X112010285Y-120530545D01*
X111915047Y-120482926D01*
X111867428Y-120387688D01*
X111867428Y-120149593D01*
X111819809Y-120054355D01*
X112248380Y-119149593D02*
X111248380Y-119149593D01*
X112200761Y-119149593D02*
X112248380Y-119244831D01*
X112248380Y-119435307D01*
X112200761Y-119530545D01*
X112153142Y-119578164D01*
X112057904Y-119625783D01*
X111772190Y-119625783D01*
X111676952Y-119578164D01*
X111629333Y-119530545D01*
X111581714Y-119435307D01*
X111581714Y-119244831D01*
X111629333Y-119149593D01*
X112248380Y-118673402D02*
X111248380Y-118673402D01*
X111248380Y-118292450D01*
X111296000Y-118197212D01*
X111343619Y-118149593D01*
X111438857Y-118101974D01*
X111581714Y-118101974D01*
X111676952Y-118149593D01*
X111724571Y-118197212D01*
X111772190Y-118292450D01*
X111772190Y-118673402D01*
X112153142Y-117101974D02*
X112200761Y-117149593D01*
X112248380Y-117292450D01*
X112248380Y-117387688D01*
X112200761Y-117530545D01*
X112105523Y-117625783D01*
X112010285Y-117673402D01*
X111819809Y-117721021D01*
X111676952Y-117721021D01*
X111486476Y-117673402D01*
X111391238Y-117625783D01*
X111296000Y-117530545D01*
X111248380Y-117387688D01*
X111248380Y-117292450D01*
X111296000Y-117149593D01*
X111343619Y-117101974D01*
X107866952Y-125292450D02*
X107819333Y-125387688D01*
X107771714Y-125435307D01*
X107676476Y-125482926D01*
X107628857Y-125482926D01*
X107533619Y-125435307D01*
X107486000Y-125387688D01*
X107438380Y-125292450D01*
X107438380Y-125101974D01*
X107486000Y-125006736D01*
X107533619Y-124959117D01*
X107628857Y-124911498D01*
X107676476Y-124911498D01*
X107771714Y-124959117D01*
X107819333Y-125006736D01*
X107866952Y-125101974D01*
X107866952Y-125292450D01*
X107914571Y-125387688D01*
X107962190Y-125435307D01*
X108057428Y-125482926D01*
X108247904Y-125482926D01*
X108343142Y-125435307D01*
X108390761Y-125387688D01*
X108438380Y-125292450D01*
X108438380Y-125101974D01*
X108390761Y-125006736D01*
X108343142Y-124959117D01*
X108247904Y-124911498D01*
X108057428Y-124911498D01*
X107962190Y-124959117D01*
X107914571Y-125006736D01*
X107866952Y-125101974D01*
X107771714Y-123816259D02*
X108438380Y-123625783D01*
X107962190Y-123435307D01*
X108438380Y-123244831D01*
X107771714Y-123054355D01*
X108438380Y-122673402D02*
X107771714Y-122673402D01*
X107962190Y-122673402D02*
X107866952Y-122625783D01*
X107819333Y-122578164D01*
X107771714Y-122482926D01*
X107771714Y-122387688D01*
X108438380Y-122054355D02*
X107771714Y-122054355D01*
X107438380Y-122054355D02*
X107486000Y-122101974D01*
X107533619Y-122054355D01*
X107486000Y-122006736D01*
X107438380Y-122054355D01*
X107533619Y-122054355D01*
X107771714Y-121721021D02*
X107771714Y-121340069D01*
X107438380Y-121578164D02*
X108295523Y-121578164D01*
X108390761Y-121530545D01*
X108438380Y-121435307D01*
X108438380Y-121340069D01*
X108390761Y-120625783D02*
X108438380Y-120721021D01*
X108438380Y-120911498D01*
X108390761Y-121006736D01*
X108295523Y-121054355D01*
X107914571Y-121054355D01*
X107819333Y-121006736D01*
X107771714Y-120911498D01*
X107771714Y-120721021D01*
X107819333Y-120625783D01*
X107914571Y-120578164D01*
X108009809Y-120578164D01*
X108105047Y-121054355D01*
X108152666Y-120197212D02*
X108152666Y-119721021D01*
X108438380Y-120292450D02*
X107438380Y-119959117D01*
X108438380Y-119625783D01*
X108390761Y-118863878D02*
X108438380Y-118959117D01*
X108438380Y-119149593D01*
X108390761Y-119244831D01*
X108343142Y-119292450D01*
X108247904Y-119340069D01*
X107962190Y-119340069D01*
X107866952Y-119292450D01*
X107819333Y-119244831D01*
X107771714Y-119149593D01*
X107771714Y-118959117D01*
X107819333Y-118863878D01*
X108390761Y-118006736D02*
X108438380Y-118101974D01*
X108438380Y-118292450D01*
X108390761Y-118387688D01*
X108343142Y-118435307D01*
X108247904Y-118482926D01*
X107962190Y-118482926D01*
X107866952Y-118435307D01*
X107819333Y-118387688D01*
X107771714Y-118292450D01*
X107771714Y-118101974D01*
X107819333Y-118006736D01*
X107771714Y-117149593D02*
X108438380Y-117149593D01*
X107771714Y-117578164D02*
X108295523Y-117578164D01*
X108390761Y-117530545D01*
X108438380Y-117435307D01*
X108438380Y-117292450D01*
X108390761Y-117197212D01*
X108343142Y-117149593D01*
X103628380Y-125244831D02*
X103628380Y-124578164D01*
X104628380Y-125006736D01*
X104628380Y-123435307D02*
X103961714Y-123435307D01*
X104152190Y-123435307D02*
X104056952Y-123387688D01*
X104009333Y-123340069D01*
X103961714Y-123244831D01*
X103961714Y-123149593D01*
X104580761Y-122435307D02*
X104628380Y-122530545D01*
X104628380Y-122721021D01*
X104580761Y-122816259D01*
X104485523Y-122863878D01*
X104104571Y-122863878D01*
X104009333Y-122816259D01*
X103961714Y-122721021D01*
X103961714Y-122530545D01*
X104009333Y-122435307D01*
X104104571Y-122387688D01*
X104199809Y-122387688D01*
X104295047Y-122863878D01*
X104628380Y-121530545D02*
X104104571Y-121530545D01*
X104009333Y-121578164D01*
X103961714Y-121673402D01*
X103961714Y-121863878D01*
X104009333Y-121959117D01*
X104580761Y-121530545D02*
X104628380Y-121625783D01*
X104628380Y-121863878D01*
X104580761Y-121959117D01*
X104485523Y-122006736D01*
X104390285Y-122006736D01*
X104295047Y-121959117D01*
X104247428Y-121863878D01*
X104247428Y-121625783D01*
X104199809Y-121530545D01*
X104628380Y-120625783D02*
X103628380Y-120625783D01*
X104580761Y-120625783D02*
X104628380Y-120721021D01*
X104628380Y-120911498D01*
X104580761Y-121006736D01*
X104533142Y-121054355D01*
X104437904Y-121101974D01*
X104152190Y-121101974D01*
X104056952Y-121054355D01*
X104009333Y-121006736D01*
X103961714Y-120911498D01*
X103961714Y-120721021D01*
X104009333Y-120625783D01*
X104342666Y-120197212D02*
X104342666Y-119721021D01*
X104628380Y-120292450D02*
X103628380Y-119959117D01*
X104628380Y-119625783D01*
X104580761Y-118863878D02*
X104628380Y-118959117D01*
X104628380Y-119149593D01*
X104580761Y-119244831D01*
X104533142Y-119292450D01*
X104437904Y-119340069D01*
X104152190Y-119340069D01*
X104056952Y-119292450D01*
X104009333Y-119244831D01*
X103961714Y-119149593D01*
X103961714Y-118959117D01*
X104009333Y-118863878D01*
X104580761Y-118006736D02*
X104628380Y-118101974D01*
X104628380Y-118292450D01*
X104580761Y-118387688D01*
X104533142Y-118435307D01*
X104437904Y-118482926D01*
X104152190Y-118482926D01*
X104056952Y-118435307D01*
X104009333Y-118387688D01*
X103961714Y-118292450D01*
X103961714Y-118101974D01*
X104009333Y-118006736D01*
X103961714Y-117149593D02*
X104628380Y-117149593D01*
X103961714Y-117578164D02*
X104485523Y-117578164D01*
X104580761Y-117530545D01*
X104628380Y-117435307D01*
X104628380Y-117292450D01*
X104580761Y-117197212D01*
X104533142Y-117149593D01*
X99818380Y-124054355D02*
X99818380Y-124244831D01*
X99866000Y-124340069D01*
X99913619Y-124387688D01*
X100056476Y-124482926D01*
X100246952Y-124530545D01*
X100627904Y-124530545D01*
X100723142Y-124482926D01*
X100770761Y-124435307D01*
X100818380Y-124340069D01*
X100818380Y-124149593D01*
X100770761Y-124054355D01*
X100723142Y-124006736D01*
X100627904Y-123959117D01*
X100389809Y-123959117D01*
X100294571Y-124006736D01*
X100246952Y-124054355D01*
X100199333Y-124149593D01*
X100199333Y-124340069D01*
X100246952Y-124435307D01*
X100294571Y-124482926D01*
X100389809Y-124530545D01*
X100818380Y-122340069D02*
X99818380Y-122340069D01*
X100770761Y-122340069D02*
X100818380Y-122435307D01*
X100818380Y-122625783D01*
X100770761Y-122721021D01*
X100723142Y-122768640D01*
X100627904Y-122816259D01*
X100342190Y-122816259D01*
X100246952Y-122768640D01*
X100199333Y-122721021D01*
X100151714Y-122625783D01*
X100151714Y-122435307D01*
X100199333Y-122340069D01*
X100770761Y-121482926D02*
X100818380Y-121578164D01*
X100818380Y-121768640D01*
X100770761Y-121863878D01*
X100675523Y-121911498D01*
X100294571Y-121911498D01*
X100199333Y-121863878D01*
X100151714Y-121768640D01*
X100151714Y-121578164D01*
X100199333Y-121482926D01*
X100294571Y-121435307D01*
X100389809Y-121435307D01*
X100485047Y-121911498D01*
X100770761Y-120578164D02*
X100818380Y-120673402D01*
X100818380Y-120863878D01*
X100770761Y-120959117D01*
X100723142Y-121006736D01*
X100627904Y-121054355D01*
X100342190Y-121054355D01*
X100246952Y-121006736D01*
X100199333Y-120959117D01*
X100151714Y-120863878D01*
X100151714Y-120673402D01*
X100199333Y-120578164D01*
X100532666Y-120197212D02*
X100532666Y-119721021D01*
X100818380Y-120292450D02*
X99818380Y-119959117D01*
X100818380Y-119625783D01*
X100770761Y-118863878D02*
X100818380Y-118959117D01*
X100818380Y-119149593D01*
X100770761Y-119244831D01*
X100723142Y-119292450D01*
X100627904Y-119340069D01*
X100342190Y-119340069D01*
X100246952Y-119292450D01*
X100199333Y-119244831D01*
X100151714Y-119149593D01*
X100151714Y-118959117D01*
X100199333Y-118863878D01*
X100770761Y-118006736D02*
X100818380Y-118101974D01*
X100818380Y-118292450D01*
X100770761Y-118387688D01*
X100723142Y-118435307D01*
X100627904Y-118482926D01*
X100342190Y-118482926D01*
X100246952Y-118435307D01*
X100199333Y-118387688D01*
X100151714Y-118292450D01*
X100151714Y-118101974D01*
X100199333Y-118006736D01*
X100151714Y-117149593D02*
X100818380Y-117149593D01*
X100151714Y-117578164D02*
X100675523Y-117578164D01*
X100770761Y-117530545D01*
X100818380Y-117435307D01*
X100818380Y-117292450D01*
X100770761Y-117197212D01*
X100723142Y-117149593D01*
X96008380Y-123625783D02*
X96008380Y-124101974D01*
X96484571Y-124149593D01*
X96436952Y-124101974D01*
X96389333Y-124006736D01*
X96389333Y-123768640D01*
X96436952Y-123673402D01*
X96484571Y-123625783D01*
X96579809Y-123578164D01*
X96817904Y-123578164D01*
X96913142Y-123625783D01*
X96960761Y-123673402D01*
X97008380Y-123768640D01*
X97008380Y-124006736D01*
X96960761Y-124101974D01*
X96913142Y-124149593D01*
X97008380Y-122387688D02*
X96341714Y-122387688D01*
X96008380Y-122387688D02*
X96056000Y-122435307D01*
X96103619Y-122387688D01*
X96056000Y-122340069D01*
X96008380Y-122387688D01*
X96103619Y-122387688D01*
X96341714Y-121911498D02*
X97008380Y-121911498D01*
X96436952Y-121911498D02*
X96389333Y-121863878D01*
X96341714Y-121768640D01*
X96341714Y-121625783D01*
X96389333Y-121530545D01*
X96484571Y-121482926D01*
X97008380Y-121482926D01*
X96960761Y-120578164D02*
X97008380Y-120673402D01*
X97008380Y-120863878D01*
X96960761Y-120959117D01*
X96913142Y-121006736D01*
X96817904Y-121054355D01*
X96532190Y-121054355D01*
X96436952Y-121006736D01*
X96389333Y-120959117D01*
X96341714Y-120863878D01*
X96341714Y-120673402D01*
X96389333Y-120578164D01*
X96722666Y-120197212D02*
X96722666Y-119721021D01*
X97008380Y-120292450D02*
X96008380Y-119959117D01*
X97008380Y-119625783D01*
X96960761Y-118863878D02*
X97008380Y-118959117D01*
X97008380Y-119149593D01*
X96960761Y-119244831D01*
X96913142Y-119292450D01*
X96817904Y-119340069D01*
X96532190Y-119340069D01*
X96436952Y-119292450D01*
X96389333Y-119244831D01*
X96341714Y-119149593D01*
X96341714Y-118959117D01*
X96389333Y-118863878D01*
X96960761Y-118006736D02*
X97008380Y-118101974D01*
X97008380Y-118292450D01*
X96960761Y-118387688D01*
X96913142Y-118435307D01*
X96817904Y-118482926D01*
X96532190Y-118482926D01*
X96436952Y-118435307D01*
X96389333Y-118387688D01*
X96341714Y-118292450D01*
X96341714Y-118101974D01*
X96389333Y-118006736D01*
X96341714Y-117149593D02*
X97008380Y-117149593D01*
X96341714Y-117578164D02*
X96865523Y-117578164D01*
X96960761Y-117530545D01*
X97008380Y-117435307D01*
X97008380Y-117292450D01*
X96960761Y-117197212D01*
X96913142Y-117149593D01*
X92531714Y-124578164D02*
X93198380Y-124578164D01*
X92150761Y-124816259D02*
X92865047Y-125054355D01*
X92865047Y-124435307D01*
X93198380Y-123292450D02*
X92531714Y-123292450D01*
X92722190Y-123292450D02*
X92626952Y-123244831D01*
X92579333Y-123197212D01*
X92531714Y-123101974D01*
X92531714Y-123006736D01*
X93150761Y-122292450D02*
X93198380Y-122387688D01*
X93198380Y-122578164D01*
X93150761Y-122673402D01*
X93055523Y-122721021D01*
X92674571Y-122721021D01*
X92579333Y-122673402D01*
X92531714Y-122578164D01*
X92531714Y-122387688D01*
X92579333Y-122292450D01*
X92674571Y-122244831D01*
X92769809Y-122244831D01*
X92865047Y-122721021D01*
X93198380Y-121387688D02*
X92674571Y-121387688D01*
X92579333Y-121435307D01*
X92531714Y-121530545D01*
X92531714Y-121721021D01*
X92579333Y-121816259D01*
X93150761Y-121387688D02*
X93198380Y-121482926D01*
X93198380Y-121721021D01*
X93150761Y-121816259D01*
X93055523Y-121863878D01*
X92960285Y-121863878D01*
X92865047Y-121816259D01*
X92817428Y-121721021D01*
X92817428Y-121482926D01*
X92769809Y-121387688D01*
X93198380Y-120482926D02*
X92198380Y-120482926D01*
X93150761Y-120482926D02*
X93198380Y-120578164D01*
X93198380Y-120768640D01*
X93150761Y-120863878D01*
X93103142Y-120911498D01*
X93007904Y-120959117D01*
X92722190Y-120959117D01*
X92626952Y-120911498D01*
X92579333Y-120863878D01*
X92531714Y-120768640D01*
X92531714Y-120578164D01*
X92579333Y-120482926D01*
X93198380Y-120006736D02*
X92198380Y-120006736D01*
X92912666Y-119673402D01*
X92198380Y-119340069D01*
X93198380Y-119340069D01*
X93150761Y-118482926D02*
X93198380Y-118578164D01*
X93198380Y-118768640D01*
X93150761Y-118863878D01*
X93055523Y-118911498D01*
X92674571Y-118911498D01*
X92579333Y-118863878D01*
X92531714Y-118768640D01*
X92531714Y-118578164D01*
X92579333Y-118482926D01*
X92674571Y-118435307D01*
X92769809Y-118435307D01*
X92865047Y-118911498D01*
X93198380Y-118006736D02*
X92531714Y-118006736D01*
X92626952Y-118006736D02*
X92579333Y-117959117D01*
X92531714Y-117863878D01*
X92531714Y-117721021D01*
X92579333Y-117625783D01*
X92674571Y-117578164D01*
X93198380Y-117578164D01*
X92674571Y-117578164D02*
X92579333Y-117530545D01*
X92531714Y-117435307D01*
X92531714Y-117292450D01*
X92579333Y-117197212D01*
X92674571Y-117149593D01*
X93198380Y-117149593D01*
X88388380Y-125387688D02*
X88388380Y-124768640D01*
X88769333Y-125101974D01*
X88769333Y-124959117D01*
X88816952Y-124863878D01*
X88864571Y-124816259D01*
X88959809Y-124768640D01*
X89197904Y-124768640D01*
X89293142Y-124816259D01*
X89340761Y-124863878D01*
X89388380Y-124959117D01*
X89388380Y-125244831D01*
X89340761Y-125340069D01*
X89293142Y-125387688D01*
X88721714Y-123673402D02*
X89388380Y-123482926D01*
X88912190Y-123292450D01*
X89388380Y-123101974D01*
X88721714Y-122911498D01*
X89388380Y-122530545D02*
X88721714Y-122530545D01*
X88912190Y-122530545D02*
X88816952Y-122482926D01*
X88769333Y-122435307D01*
X88721714Y-122340069D01*
X88721714Y-122244831D01*
X89388380Y-121911498D02*
X88721714Y-121911498D01*
X88388380Y-121911498D02*
X88436000Y-121959117D01*
X88483619Y-121911498D01*
X88436000Y-121863878D01*
X88388380Y-121911498D01*
X88483619Y-121911498D01*
X88721714Y-121578164D02*
X88721714Y-121197212D01*
X88388380Y-121435307D02*
X89245523Y-121435307D01*
X89340761Y-121387688D01*
X89388380Y-121292450D01*
X89388380Y-121197212D01*
X89340761Y-120482926D02*
X89388380Y-120578164D01*
X89388380Y-120768640D01*
X89340761Y-120863878D01*
X89245523Y-120911498D01*
X88864571Y-120911498D01*
X88769333Y-120863878D01*
X88721714Y-120768640D01*
X88721714Y-120578164D01*
X88769333Y-120482926D01*
X88864571Y-120435307D01*
X88959809Y-120435307D01*
X89055047Y-120911498D01*
X89388380Y-120006736D02*
X88388380Y-120006736D01*
X89102666Y-119673402D01*
X88388380Y-119340069D01*
X89388380Y-119340069D01*
X89340761Y-118482926D02*
X89388380Y-118578164D01*
X89388380Y-118768640D01*
X89340761Y-118863878D01*
X89245523Y-118911498D01*
X88864571Y-118911498D01*
X88769333Y-118863878D01*
X88721714Y-118768640D01*
X88721714Y-118578164D01*
X88769333Y-118482926D01*
X88864571Y-118435307D01*
X88959809Y-118435307D01*
X89055047Y-118911498D01*
X89388380Y-118006736D02*
X88721714Y-118006736D01*
X88816952Y-118006736D02*
X88769333Y-117959117D01*
X88721714Y-117863878D01*
X88721714Y-117721021D01*
X88769333Y-117625783D01*
X88864571Y-117578164D01*
X89388380Y-117578164D01*
X88864571Y-117578164D02*
X88769333Y-117530545D01*
X88721714Y-117435307D01*
X88721714Y-117292450D01*
X88769333Y-117197212D01*
X88864571Y-117149593D01*
X89388380Y-117149593D01*
X84673619Y-124863878D02*
X84626000Y-124816259D01*
X84578380Y-124721021D01*
X84578380Y-124482926D01*
X84626000Y-124387688D01*
X84673619Y-124340069D01*
X84768857Y-124292450D01*
X84864095Y-124292450D01*
X85006952Y-124340069D01*
X85578380Y-124911498D01*
X85578380Y-124292450D01*
X85578380Y-123101974D02*
X84911714Y-123101974D01*
X85102190Y-123101974D02*
X85006952Y-123054355D01*
X84959333Y-123006736D01*
X84911714Y-122911498D01*
X84911714Y-122816259D01*
X85530761Y-122101974D02*
X85578380Y-122197212D01*
X85578380Y-122387688D01*
X85530761Y-122482926D01*
X85435523Y-122530545D01*
X85054571Y-122530545D01*
X84959333Y-122482926D01*
X84911714Y-122387688D01*
X84911714Y-122197212D01*
X84959333Y-122101974D01*
X85054571Y-122054355D01*
X85149809Y-122054355D01*
X85245047Y-122530545D01*
X85578380Y-121197212D02*
X85054571Y-121197212D01*
X84959333Y-121244831D01*
X84911714Y-121340069D01*
X84911714Y-121530545D01*
X84959333Y-121625783D01*
X85530761Y-121197212D02*
X85578380Y-121292450D01*
X85578380Y-121530545D01*
X85530761Y-121625783D01*
X85435523Y-121673402D01*
X85340285Y-121673402D01*
X85245047Y-121625783D01*
X85197428Y-121530545D01*
X85197428Y-121292450D01*
X85149809Y-121197212D01*
X85578380Y-120292450D02*
X84578380Y-120292450D01*
X85530761Y-120292450D02*
X85578380Y-120387688D01*
X85578380Y-120578164D01*
X85530761Y-120673402D01*
X85483142Y-120721021D01*
X85387904Y-120768640D01*
X85102190Y-120768640D01*
X85006952Y-120721021D01*
X84959333Y-120673402D01*
X84911714Y-120578164D01*
X84911714Y-120387688D01*
X84959333Y-120292450D01*
X85578380Y-119816259D02*
X84578380Y-119816259D01*
X85292666Y-119482926D01*
X84578380Y-119149593D01*
X85578380Y-119149593D01*
X85578380Y-118673402D02*
X84578380Y-118673402D01*
X84578380Y-118292450D01*
X84626000Y-118197212D01*
X84673619Y-118149593D01*
X84768857Y-118101974D01*
X84911714Y-118101974D01*
X85006952Y-118149593D01*
X85054571Y-118197212D01*
X85102190Y-118292450D01*
X85102190Y-118673402D01*
X85483142Y-117101974D02*
X85530761Y-117149593D01*
X85578380Y-117292450D01*
X85578380Y-117387688D01*
X85530761Y-117530545D01*
X85435523Y-117625783D01*
X85340285Y-117673402D01*
X85149809Y-117721021D01*
X85006952Y-117721021D01*
X84816476Y-117673402D01*
X84721238Y-117625783D01*
X84626000Y-117530545D01*
X84578380Y-117387688D01*
X84578380Y-117292450D01*
X84626000Y-117149593D01*
X84673619Y-117101974D01*
X81768380Y-123006736D02*
X81768380Y-123578164D01*
X81768380Y-123292450D02*
X80768380Y-123292450D01*
X80911238Y-123387688D01*
X81006476Y-123482926D01*
X81054095Y-123578164D01*
X81720761Y-121387688D02*
X81768380Y-121482926D01*
X81768380Y-121673402D01*
X81720761Y-121768640D01*
X81673142Y-121816259D01*
X81577904Y-121863878D01*
X81292190Y-121863878D01*
X81196952Y-121816259D01*
X81149333Y-121768640D01*
X81101714Y-121673402D01*
X81101714Y-121482926D01*
X81149333Y-121387688D01*
X81768380Y-120816259D02*
X81720761Y-120911498D01*
X81625523Y-120959117D01*
X80768380Y-120959117D01*
X81768380Y-120435307D02*
X81101714Y-120435307D01*
X81292190Y-120435307D02*
X81196952Y-120387688D01*
X81149333Y-120340069D01*
X81101714Y-120244831D01*
X81101714Y-120149593D01*
X81768380Y-119816259D02*
X80768380Y-119816259D01*
X81482666Y-119482926D01*
X80768380Y-119149593D01*
X81768380Y-119149593D01*
X81768380Y-118673402D02*
X80768380Y-118673402D01*
X80768380Y-118292450D01*
X80816000Y-118197212D01*
X80863619Y-118149593D01*
X80958857Y-118101974D01*
X81101714Y-118101974D01*
X81196952Y-118149593D01*
X81244571Y-118197212D01*
X81292190Y-118292450D01*
X81292190Y-118673402D01*
X81673142Y-117101974D02*
X81720761Y-117149593D01*
X81768380Y-117292450D01*
X81768380Y-117387688D01*
X81720761Y-117530545D01*
X81625523Y-117625783D01*
X81530285Y-117673402D01*
X81339809Y-117721021D01*
X81196952Y-117721021D01*
X81006476Y-117673402D01*
X80911238Y-117625783D01*
X80816000Y-117530545D01*
X80768380Y-117387688D01*
X80768380Y-117292450D01*
X80816000Y-117149593D01*
X80863619Y-117101974D01*
X138466000Y-115530998D02*
X138466000Y-116165998D01*
X134656000Y-115530998D02*
X134656000Y-116165998D01*
X130846000Y-115530998D02*
X130846000Y-116165998D01*
X127036000Y-115530998D02*
X127036000Y-116165998D01*
X123226000Y-115530998D02*
X123226000Y-116165998D01*
X119416000Y-115530998D02*
X119416000Y-116165998D01*
X115606000Y-115530998D02*
X115606000Y-116165998D01*
X111796000Y-115530998D02*
X111796000Y-116165998D01*
X107986000Y-115530998D02*
X107986000Y-116165998D01*
X104176000Y-115530998D02*
X104176000Y-116165998D01*
X100366000Y-115530998D02*
X100366000Y-116165998D01*
X96556000Y-115530998D02*
X96556000Y-116165998D01*
X92746000Y-115530998D02*
X92746000Y-116165998D01*
X88936000Y-115530998D02*
X88936000Y-116165998D01*
X85126000Y-115530998D02*
X85126000Y-116165998D01*
X81316000Y-115530998D02*
X81316000Y-116165998D01*
X78141000Y-115530998D02*
X139101000Y-115530998D01*
X78141000Y-111720998D02*
X139101000Y-111720998D01*
X78141000Y-107910998D02*
X139101000Y-107910998D01*
X78141000Y-104100998D02*
X139101000Y-104100998D01*
X78141000Y-100290998D02*
X139101000Y-100290998D01*
X78141000Y-96480998D02*
X139101000Y-96480998D01*
X78141000Y-92670998D02*
X139101000Y-92670998D01*
X78141000Y-88860998D02*
X139101000Y-88860998D01*
X139101000Y-85050998D02*
X78141000Y-85050998D01*
X78141000Y-81240998D02*
X139101000Y-81240998D01*
X139101000Y-77430998D02*
X78141000Y-77430998D01*
X78141000Y-73620998D02*
X139101000Y-73620998D01*
X78141000Y-69810998D02*
X139101000Y-69810998D01*
X139101000Y-66000998D02*
X78141000Y-66000998D01*
X78141000Y-62190998D02*
X139101000Y-62190998D01*
X78141000Y-58380998D02*
X139101000Y-58380998D01*
X138466000Y-115530998D02*
X138466000Y-55205998D01*
X134656000Y-55205998D02*
X134656000Y-115530998D01*
X130846000Y-115530998D02*
X130846000Y-55205998D01*
X127036000Y-55205998D02*
X127036000Y-115530998D01*
X123226000Y-115530998D02*
X123226000Y-55205998D01*
X119416000Y-55205998D02*
X119416000Y-115530998D01*
X115606000Y-115530998D02*
X115606000Y-55205998D01*
X111796000Y-55205998D02*
X111796000Y-115530998D01*
X107986000Y-115530998D02*
X107986000Y-55205998D01*
X104176000Y-55205998D02*
X104176000Y-115530998D01*
X100366000Y-115530998D02*
X100366000Y-55205998D01*
X96556000Y-55205998D02*
X96556000Y-115530998D01*
X92746000Y-115530998D02*
X92746000Y-55205998D01*
X88936000Y-55205998D02*
X88936000Y-115530998D01*
X85126000Y-115530998D02*
X85126000Y-55205998D01*
X81316000Y-55205998D02*
X81316000Y-115530998D01*
X55344571Y-34993140D02*
X56487428Y-34993140D01*
X55916000Y-35564569D02*
X55916000Y-34421712D01*
X52804571Y-34993140D02*
X53947428Y-34993140D01*
X46374500Y-155737998D02*
X46993547Y-155737998D01*
X46612595Y-157131378D02*
X46612595Y-156464712D01*
X46612595Y-156655188D02*
X46660214Y-156559950D01*
X46707833Y-156512331D01*
X46803071Y-156464712D01*
X46898309Y-156464712D01*
X46993547Y-155737998D02*
X47850690Y-155737998D01*
X47612595Y-157083759D02*
X47517357Y-157131378D01*
X47326880Y-157131378D01*
X47231642Y-157083759D01*
X47184023Y-156988521D01*
X47184023Y-156607569D01*
X47231642Y-156512331D01*
X47326880Y-156464712D01*
X47517357Y-156464712D01*
X47612595Y-156512331D01*
X47660214Y-156607569D01*
X47660214Y-156702807D01*
X47184023Y-156798045D01*
X47850690Y-155737998D02*
X48755452Y-155737998D01*
X48517357Y-157131378D02*
X48517357Y-156607569D01*
X48469738Y-156512331D01*
X48374500Y-156464712D01*
X48184023Y-156464712D01*
X48088785Y-156512331D01*
X48517357Y-157083759D02*
X48422119Y-157131378D01*
X48184023Y-157131378D01*
X48088785Y-157083759D01*
X48041166Y-156988521D01*
X48041166Y-156893283D01*
X48088785Y-156798045D01*
X48184023Y-156750426D01*
X48422119Y-156750426D01*
X48517357Y-156702807D01*
X48755452Y-155737998D02*
X49660214Y-155737998D01*
X49422119Y-157131378D02*
X49422119Y-156131378D01*
X49422119Y-157083759D02*
X49326880Y-157131378D01*
X49136404Y-157131378D01*
X49041166Y-157083759D01*
X48993547Y-157036140D01*
X48945928Y-156940902D01*
X48945928Y-156655188D01*
X48993547Y-156559950D01*
X49041166Y-156512331D01*
X49136404Y-156464712D01*
X49326880Y-156464712D01*
X49422119Y-156512331D01*
X49660214Y-155737998D02*
X50136404Y-155737998D01*
X49898309Y-157131378D02*
X49898309Y-156131378D01*
X50136404Y-155737998D02*
X51136404Y-155737998D01*
X50945928Y-157131378D02*
X50612595Y-156655188D01*
X50374500Y-157131378D02*
X50374500Y-156131378D01*
X50755452Y-156131378D01*
X50850690Y-156178998D01*
X50898309Y-156226617D01*
X50945928Y-156321855D01*
X50945928Y-156464712D01*
X50898309Y-156559950D01*
X50850690Y-156607569D01*
X50755452Y-156655188D01*
X50374500Y-156655188D01*
X46501500Y-153959998D02*
X47549119Y-153959998D01*
X46644357Y-154686712D02*
X46834833Y-155353378D01*
X47025309Y-154877188D01*
X47215785Y-155353378D01*
X47406261Y-154686712D01*
X47549119Y-153959998D02*
X48168166Y-153959998D01*
X47787214Y-155353378D02*
X47787214Y-154686712D01*
X47787214Y-154877188D02*
X47834833Y-154781950D01*
X47882452Y-154734331D01*
X47977690Y-154686712D01*
X48072928Y-154686712D01*
X48168166Y-153959998D02*
X48644357Y-153959998D01*
X48406261Y-155353378D02*
X48406261Y-154686712D01*
X48406261Y-154353378D02*
X48358642Y-154400998D01*
X48406261Y-154448617D01*
X48453880Y-154400998D01*
X48406261Y-154353378D01*
X48406261Y-154448617D01*
X48644357Y-153959998D02*
X49215785Y-153959998D01*
X48739595Y-154686712D02*
X49120547Y-154686712D01*
X48882452Y-154353378D02*
X48882452Y-155210521D01*
X48930071Y-155305759D01*
X49025309Y-155353378D01*
X49120547Y-155353378D01*
X49215785Y-153959998D02*
X50072928Y-153959998D01*
X49834833Y-155305759D02*
X49739595Y-155353378D01*
X49549119Y-155353378D01*
X49453880Y-155305759D01*
X49406261Y-155210521D01*
X49406261Y-154829569D01*
X49453880Y-154734331D01*
X49549119Y-154686712D01*
X49739595Y-154686712D01*
X49834833Y-154734331D01*
X49882452Y-154829569D01*
X49882452Y-154924807D01*
X49406261Y-155020045D01*
X50072928Y-153959998D02*
X50930071Y-153959998D01*
X50263404Y-155067664D02*
X50739595Y-155067664D01*
X50168166Y-155353378D02*
X50501500Y-154353378D01*
X50834833Y-155353378D01*
X50930071Y-153959998D02*
X51787214Y-153959998D01*
X51596738Y-155305759D02*
X51501500Y-155353378D01*
X51311023Y-155353378D01*
X51215785Y-155305759D01*
X51168166Y-155258140D01*
X51120547Y-155162902D01*
X51120547Y-154877188D01*
X51168166Y-154781950D01*
X51215785Y-154734331D01*
X51311023Y-154686712D01*
X51501500Y-154686712D01*
X51596738Y-154734331D01*
X51787214Y-153959998D02*
X52644357Y-153959998D01*
X52453880Y-155305759D02*
X52358642Y-155353378D01*
X52168166Y-155353378D01*
X52072928Y-155305759D01*
X52025309Y-155258140D01*
X51977690Y-155162902D01*
X51977690Y-154877188D01*
X52025309Y-154781950D01*
X52072928Y-154734331D01*
X52168166Y-154686712D01*
X52358642Y-154686712D01*
X52453880Y-154734331D01*
X52644357Y-153959998D02*
X53549119Y-153959998D01*
X53311023Y-154686712D02*
X53311023Y-155353378D01*
X52882452Y-154686712D02*
X52882452Y-155210521D01*
X52930071Y-155305759D01*
X53025309Y-155353378D01*
X53168166Y-155353378D01*
X53263404Y-155305759D01*
X53311023Y-155258140D01*
X55391500Y-96809998D02*
X56248642Y-96809998D01*
X56010547Y-98155759D02*
X55915309Y-98203378D01*
X55724833Y-98203378D01*
X55629595Y-98155759D01*
X55581976Y-98060521D01*
X55581976Y-97679569D01*
X55629595Y-97584331D01*
X55724833Y-97536712D01*
X55915309Y-97536712D01*
X56010547Y-97584331D01*
X56058166Y-97679569D01*
X56058166Y-97774807D01*
X55581976Y-97870045D01*
X56248642Y-96809998D02*
X57153404Y-96809998D01*
X56486738Y-97536712D02*
X56486738Y-98203378D01*
X56486738Y-97631950D02*
X56534357Y-97584331D01*
X56629595Y-97536712D01*
X56772452Y-97536712D01*
X56867690Y-97584331D01*
X56915309Y-97679569D01*
X56915309Y-98203378D01*
X57153404Y-96809998D02*
X58153404Y-96809998D01*
X57962928Y-98108140D02*
X57915309Y-98155759D01*
X57772452Y-98203378D01*
X57677214Y-98203378D01*
X57534357Y-98155759D01*
X57439119Y-98060521D01*
X57391500Y-97965283D01*
X57343880Y-97774807D01*
X57343880Y-97631950D01*
X57391500Y-97441474D01*
X57439119Y-97346236D01*
X57534357Y-97250998D01*
X57677214Y-97203378D01*
X57772452Y-97203378D01*
X57915309Y-97250998D01*
X57962928Y-97298617D01*
X58153404Y-96809998D02*
X59201023Y-96809998D01*
X58391500Y-97203378D02*
X58391500Y-98012902D01*
X58439119Y-98108140D01*
X58486738Y-98155759D01*
X58581976Y-98203378D01*
X58772452Y-98203378D01*
X58867690Y-98155759D01*
X58915309Y-98108140D01*
X58962928Y-98012902D01*
X58962928Y-97203378D01*
X56201023Y-93028140D02*
X56153404Y-93075759D01*
X56010547Y-93123378D01*
X55915309Y-93123378D01*
X55772452Y-93075759D01*
X55677214Y-92980521D01*
X55629595Y-92885283D01*
X55581976Y-92694807D01*
X55581976Y-92551950D01*
X55629595Y-92361474D01*
X55677214Y-92266236D01*
X55772452Y-92170998D01*
X55915309Y-92123378D01*
X56010547Y-92123378D01*
X56153404Y-92170998D01*
X56201023Y-92218617D01*
X57105785Y-93123378D02*
X56629595Y-93123378D01*
X56629595Y-92123378D01*
X57439119Y-93123378D02*
X57439119Y-92123378D01*
X58010547Y-93123378D02*
X57581976Y-92551950D01*
X58010547Y-92123378D02*
X57439119Y-92694807D01*
X118598380Y-174348593D02*
X118598380Y-174920021D01*
X118598380Y-174634307D02*
X117598380Y-174634307D01*
X117741238Y-174729545D01*
X117836476Y-174824783D01*
X117884095Y-174920021D01*
X117931714Y-173491450D02*
X118598380Y-173491450D01*
X117550761Y-173729545D02*
X118265047Y-173967640D01*
X118265047Y-173348593D01*
X118598380Y-172205736D02*
X117931714Y-172205736D01*
X117598380Y-172205736D02*
X117646000Y-172253355D01*
X117693619Y-172205736D01*
X117646000Y-172158117D01*
X117598380Y-172205736D01*
X117693619Y-172205736D01*
X117931714Y-171729545D02*
X118598380Y-171729545D01*
X118026952Y-171729545D02*
X117979333Y-171681926D01*
X117931714Y-171586688D01*
X117931714Y-171443831D01*
X117979333Y-171348593D01*
X118074571Y-171300974D01*
X118598380Y-171300974D01*
X118550761Y-170396212D02*
X118598380Y-170491450D01*
X118598380Y-170681926D01*
X118550761Y-170777164D01*
X118503142Y-170824783D01*
X118407904Y-170872402D01*
X118122190Y-170872402D01*
X118026952Y-170824783D01*
X117979333Y-170777164D01*
X117931714Y-170681926D01*
X117931714Y-170491450D01*
X117979333Y-170396212D01*
X118598380Y-169967640D02*
X117598380Y-169967640D01*
X117598380Y-169586688D01*
X117646000Y-169491450D01*
X117693619Y-169443831D01*
X117788857Y-169396212D01*
X117931714Y-169396212D01*
X118026952Y-169443831D01*
X118074571Y-169491450D01*
X118122190Y-169586688D01*
X118122190Y-169967640D01*
X118503142Y-168396212D02*
X118550761Y-168443831D01*
X118598380Y-168586688D01*
X118598380Y-168681926D01*
X118550761Y-168824783D01*
X118455523Y-168920021D01*
X118360285Y-168967640D01*
X118169809Y-169015259D01*
X118026952Y-169015259D01*
X117836476Y-168967640D01*
X117741238Y-168920021D01*
X117646000Y-168824783D01*
X117598380Y-168681926D01*
X117598380Y-168586688D01*
X117646000Y-168443831D01*
X117693619Y-168396212D01*
X117931714Y-168062878D02*
X117931714Y-167539069D01*
X118598380Y-168062878D01*
X118598380Y-167539069D01*
X113518380Y-174348593D02*
X113518380Y-174920021D01*
X113518380Y-174634307D02*
X112518380Y-174634307D01*
X112661238Y-174729545D01*
X112756476Y-174824783D01*
X112804095Y-174920021D01*
X112518380Y-174015259D02*
X112518380Y-173396212D01*
X112899333Y-173729545D01*
X112899333Y-173586688D01*
X112946952Y-173491450D01*
X112994571Y-173443831D01*
X113089809Y-173396212D01*
X113327904Y-173396212D01*
X113423142Y-173443831D01*
X113470761Y-173491450D01*
X113518380Y-173586688D01*
X113518380Y-173872402D01*
X113470761Y-173967640D01*
X113423142Y-174015259D01*
X113518380Y-172205736D02*
X112851714Y-172205736D01*
X112518380Y-172205736D02*
X112566000Y-172253355D01*
X112613619Y-172205736D01*
X112566000Y-172158117D01*
X112518380Y-172205736D01*
X112613619Y-172205736D01*
X112851714Y-171729545D02*
X113518380Y-171729545D01*
X112946952Y-171729545D02*
X112899333Y-171681926D01*
X112851714Y-171586688D01*
X112851714Y-171443831D01*
X112899333Y-171348593D01*
X112994571Y-171300974D01*
X113518380Y-171300974D01*
X113470761Y-170396212D02*
X113518380Y-170491450D01*
X113518380Y-170681926D01*
X113470761Y-170777164D01*
X113423142Y-170824783D01*
X113327904Y-170872402D01*
X113042190Y-170872402D01*
X112946952Y-170824783D01*
X112899333Y-170777164D01*
X112851714Y-170681926D01*
X112851714Y-170491450D01*
X112899333Y-170396212D01*
X113518380Y-169967640D02*
X112518380Y-169967640D01*
X112518380Y-169586688D01*
X112566000Y-169491450D01*
X112613619Y-169443831D01*
X112708857Y-169396212D01*
X112851714Y-169396212D01*
X112946952Y-169443831D01*
X112994571Y-169491450D01*
X113042190Y-169586688D01*
X113042190Y-169967640D01*
X113423142Y-168396212D02*
X113470761Y-168443831D01*
X113518380Y-168586688D01*
X113518380Y-168681926D01*
X113470761Y-168824783D01*
X113375523Y-168920021D01*
X113280285Y-168967640D01*
X113089809Y-169015259D01*
X112946952Y-169015259D01*
X112756476Y-168967640D01*
X112661238Y-168920021D01*
X112566000Y-168824783D01*
X112518380Y-168681926D01*
X112518380Y-168586688D01*
X112566000Y-168443831D01*
X112613619Y-168396212D01*
X108438380Y-174348593D02*
X108438380Y-174920021D01*
X108438380Y-174634307D02*
X107438380Y-174634307D01*
X107581238Y-174729545D01*
X107676476Y-174824783D01*
X107724095Y-174920021D01*
X107533619Y-173967640D02*
X107486000Y-173920021D01*
X107438380Y-173824783D01*
X107438380Y-173586688D01*
X107486000Y-173491450D01*
X107533619Y-173443831D01*
X107628857Y-173396212D01*
X107724095Y-173396212D01*
X107866952Y-173443831D01*
X108438380Y-174015259D01*
X108438380Y-173396212D01*
X107771714Y-172300974D02*
X108438380Y-172110498D01*
X107962190Y-171920021D01*
X108438380Y-171729545D01*
X107771714Y-171539069D01*
X108438380Y-171158117D02*
X107771714Y-171158117D01*
X107962190Y-171158117D02*
X107866952Y-171110498D01*
X107819333Y-171062878D01*
X107771714Y-170967640D01*
X107771714Y-170872402D01*
X108438380Y-170539069D02*
X107771714Y-170539069D01*
X107438380Y-170539069D02*
X107486000Y-170586688D01*
X107533619Y-170539069D01*
X107486000Y-170491450D01*
X107438380Y-170539069D01*
X107533619Y-170539069D01*
X107771714Y-170205736D02*
X107771714Y-169824783D01*
X107438380Y-170062878D02*
X108295523Y-170062878D01*
X108390761Y-170015259D01*
X108438380Y-169920021D01*
X108438380Y-169824783D01*
X108390761Y-169110498D02*
X108438380Y-169205736D01*
X108438380Y-169396212D01*
X108390761Y-169491450D01*
X108295523Y-169539069D01*
X107914571Y-169539069D01*
X107819333Y-169491450D01*
X107771714Y-169396212D01*
X107771714Y-169205736D01*
X107819333Y-169110498D01*
X107914571Y-169062878D01*
X108009809Y-169062878D01*
X108105047Y-169539069D01*
X108438380Y-168634307D02*
X107438380Y-168634307D01*
X108438380Y-167586688D02*
X107962190Y-167920021D01*
X108438380Y-168158117D02*
X107438380Y-168158117D01*
X107438380Y-167777164D01*
X107486000Y-167681926D01*
X107533619Y-167634307D01*
X107628857Y-167586688D01*
X107771714Y-167586688D01*
X107866952Y-167634307D01*
X107914571Y-167681926D01*
X107962190Y-167777164D01*
X107962190Y-168158117D01*
X103358380Y-174348593D02*
X103358380Y-174920021D01*
X103358380Y-174634307D02*
X102358380Y-174634307D01*
X102501238Y-174729545D01*
X102596476Y-174824783D01*
X102644095Y-174920021D01*
X103358380Y-173396212D02*
X103358380Y-173967640D01*
X103358380Y-173681926D02*
X102358380Y-173681926D01*
X102501238Y-173777164D01*
X102596476Y-173872402D01*
X102644095Y-173967640D01*
X103358380Y-172205736D02*
X102691714Y-172205736D01*
X102882190Y-172205736D02*
X102786952Y-172158117D01*
X102739333Y-172110498D01*
X102691714Y-172015259D01*
X102691714Y-171920021D01*
X103310761Y-171205736D02*
X103358380Y-171300974D01*
X103358380Y-171491450D01*
X103310761Y-171586688D01*
X103215523Y-171634307D01*
X102834571Y-171634307D01*
X102739333Y-171586688D01*
X102691714Y-171491450D01*
X102691714Y-171300974D01*
X102739333Y-171205736D01*
X102834571Y-171158117D01*
X102929809Y-171158117D01*
X103025047Y-171634307D01*
X103358380Y-170300974D02*
X102834571Y-170300974D01*
X102739333Y-170348593D01*
X102691714Y-170443831D01*
X102691714Y-170634307D01*
X102739333Y-170729545D01*
X103310761Y-170300974D02*
X103358380Y-170396212D01*
X103358380Y-170634307D01*
X103310761Y-170729545D01*
X103215523Y-170777164D01*
X103120285Y-170777164D01*
X103025047Y-170729545D01*
X102977428Y-170634307D01*
X102977428Y-170396212D01*
X102929809Y-170300974D01*
X103358380Y-169396212D02*
X102358380Y-169396212D01*
X103310761Y-169396212D02*
X103358380Y-169491450D01*
X103358380Y-169681926D01*
X103310761Y-169777164D01*
X103263142Y-169824783D01*
X103167904Y-169872402D01*
X102882190Y-169872402D01*
X102786952Y-169824783D01*
X102739333Y-169777164D01*
X102691714Y-169681926D01*
X102691714Y-169491450D01*
X102739333Y-169396212D01*
X103358380Y-168920021D02*
X102358380Y-168920021D01*
X103358380Y-167872402D02*
X102882190Y-168205736D01*
X103358380Y-168443831D02*
X102358380Y-168443831D01*
X102358380Y-168062878D01*
X102406000Y-167967640D01*
X102453619Y-167920021D01*
X102548857Y-167872402D01*
X102691714Y-167872402D01*
X102786952Y-167920021D01*
X102834571Y-167967640D01*
X102882190Y-168062878D01*
X102882190Y-168443831D01*
X98278380Y-174348593D02*
X98278380Y-174920021D01*
X98278380Y-174634307D02*
X97278380Y-174634307D01*
X97421238Y-174729545D01*
X97516476Y-174824783D01*
X97564095Y-174920021D01*
X97278380Y-173729545D02*
X97278380Y-173634307D01*
X97326000Y-173539069D01*
X97373619Y-173491450D01*
X97468857Y-173443831D01*
X97659333Y-173396212D01*
X97897428Y-173396212D01*
X98087904Y-173443831D01*
X98183142Y-173491450D01*
X98230761Y-173539069D01*
X98278380Y-173634307D01*
X98278380Y-173729545D01*
X98230761Y-173824783D01*
X98183142Y-173872402D01*
X98087904Y-173920021D01*
X97897428Y-173967640D01*
X97659333Y-173967640D01*
X97468857Y-173920021D01*
X97373619Y-173872402D01*
X97326000Y-173824783D01*
X97278380Y-173729545D01*
X97611714Y-172300974D02*
X98278380Y-172110498D01*
X97802190Y-171920021D01*
X98278380Y-171729545D01*
X97611714Y-171539069D01*
X98278380Y-171158117D02*
X97611714Y-171158117D01*
X97802190Y-171158117D02*
X97706952Y-171110498D01*
X97659333Y-171062878D01*
X97611714Y-170967640D01*
X97611714Y-170872402D01*
X98278380Y-170539069D02*
X97611714Y-170539069D01*
X97278380Y-170539069D02*
X97326000Y-170586688D01*
X97373619Y-170539069D01*
X97326000Y-170491450D01*
X97278380Y-170539069D01*
X97373619Y-170539069D01*
X97611714Y-170205736D02*
X97611714Y-169824783D01*
X97278380Y-170062878D02*
X98135523Y-170062878D01*
X98230761Y-170015259D01*
X98278380Y-169920021D01*
X98278380Y-169824783D01*
X98230761Y-169110498D02*
X98278380Y-169205736D01*
X98278380Y-169396212D01*
X98230761Y-169491450D01*
X98135523Y-169539069D01*
X97754571Y-169539069D01*
X97659333Y-169491450D01*
X97611714Y-169396212D01*
X97611714Y-169205736D01*
X97659333Y-169110498D01*
X97754571Y-169062878D01*
X97849809Y-169062878D01*
X97945047Y-169539069D01*
X98278380Y-168634307D02*
X97278380Y-168634307D01*
X97278380Y-168253355D01*
X97326000Y-168158117D01*
X97373619Y-168110498D01*
X97468857Y-168062878D01*
X97611714Y-168062878D01*
X97706952Y-168110498D01*
X97754571Y-168158117D01*
X97802190Y-168253355D01*
X97802190Y-168634307D01*
X98183142Y-167062878D02*
X98230761Y-167110498D01*
X98278380Y-167253355D01*
X98278380Y-167348593D01*
X98230761Y-167491450D01*
X98135523Y-167586688D01*
X98040285Y-167634307D01*
X97849809Y-167681926D01*
X97706952Y-167681926D01*
X97516476Y-167634307D01*
X97421238Y-167586688D01*
X97326000Y-167491450D01*
X97278380Y-167348593D01*
X97278380Y-167253355D01*
X97326000Y-167110498D01*
X97373619Y-167062878D01*
X93198380Y-174824783D02*
X93198380Y-174634307D01*
X93150761Y-174539069D01*
X93103142Y-174491450D01*
X92960285Y-174396212D01*
X92769809Y-174348593D01*
X92388857Y-174348593D01*
X92293619Y-174396212D01*
X92246000Y-174443831D01*
X92198380Y-174539069D01*
X92198380Y-174729545D01*
X92246000Y-174824783D01*
X92293619Y-174872402D01*
X92388857Y-174920021D01*
X92626952Y-174920021D01*
X92722190Y-174872402D01*
X92769809Y-174824783D01*
X92817428Y-174729545D01*
X92817428Y-174539069D01*
X92769809Y-174443831D01*
X92722190Y-174396212D01*
X92626952Y-174348593D01*
X93198380Y-173158117D02*
X92531714Y-173158117D01*
X92722190Y-173158117D02*
X92626952Y-173110498D01*
X92579333Y-173062878D01*
X92531714Y-172967640D01*
X92531714Y-172872402D01*
X93150761Y-172158117D02*
X93198380Y-172253355D01*
X93198380Y-172443831D01*
X93150761Y-172539069D01*
X93055523Y-172586688D01*
X92674571Y-172586688D01*
X92579333Y-172539069D01*
X92531714Y-172443831D01*
X92531714Y-172253355D01*
X92579333Y-172158117D01*
X92674571Y-172110498D01*
X92769809Y-172110498D01*
X92865047Y-172586688D01*
X93198380Y-171253355D02*
X92674571Y-171253355D01*
X92579333Y-171300974D01*
X92531714Y-171396212D01*
X92531714Y-171586688D01*
X92579333Y-171681926D01*
X93150761Y-171253355D02*
X93198380Y-171348593D01*
X93198380Y-171586688D01*
X93150761Y-171681926D01*
X93055523Y-171729545D01*
X92960285Y-171729545D01*
X92865047Y-171681926D01*
X92817428Y-171586688D01*
X92817428Y-171348593D01*
X92769809Y-171253355D01*
X93198380Y-170348593D02*
X92198380Y-170348593D01*
X93150761Y-170348593D02*
X93198380Y-170443831D01*
X93198380Y-170634307D01*
X93150761Y-170729545D01*
X93103142Y-170777164D01*
X93007904Y-170824783D01*
X92722190Y-170824783D01*
X92626952Y-170777164D01*
X92579333Y-170729545D01*
X92531714Y-170634307D01*
X92531714Y-170443831D01*
X92579333Y-170348593D01*
X93198380Y-169872402D02*
X92198380Y-169872402D01*
X92198380Y-169491450D01*
X92246000Y-169396212D01*
X92293619Y-169348593D01*
X92388857Y-169300974D01*
X92531714Y-169300974D01*
X92626952Y-169348593D01*
X92674571Y-169396212D01*
X92722190Y-169491450D01*
X92722190Y-169872402D01*
X93103142Y-168300974D02*
X93150761Y-168348593D01*
X93198380Y-168491450D01*
X93198380Y-168586688D01*
X93150761Y-168729545D01*
X93055523Y-168824783D01*
X92960285Y-168872402D01*
X92769809Y-168920021D01*
X92626952Y-168920021D01*
X92436476Y-168872402D01*
X92341238Y-168824783D01*
X92246000Y-168729545D01*
X92198380Y-168586688D01*
X92198380Y-168491450D01*
X92246000Y-168348593D01*
X92293619Y-168300974D01*
X87546952Y-174729545D02*
X87499333Y-174824783D01*
X87451714Y-174872402D01*
X87356476Y-174920021D01*
X87308857Y-174920021D01*
X87213619Y-174872402D01*
X87166000Y-174824783D01*
X87118380Y-174729545D01*
X87118380Y-174539069D01*
X87166000Y-174443831D01*
X87213619Y-174396212D01*
X87308857Y-174348593D01*
X87356476Y-174348593D01*
X87451714Y-174396212D01*
X87499333Y-174443831D01*
X87546952Y-174539069D01*
X87546952Y-174729545D01*
X87594571Y-174824783D01*
X87642190Y-174872402D01*
X87737428Y-174920021D01*
X87927904Y-174920021D01*
X88023142Y-174872402D01*
X88070761Y-174824783D01*
X88118380Y-174729545D01*
X88118380Y-174539069D01*
X88070761Y-174443831D01*
X88023142Y-174396212D01*
X87927904Y-174348593D01*
X87737428Y-174348593D01*
X87642190Y-174396212D01*
X87594571Y-174443831D01*
X87546952Y-174539069D01*
X87451714Y-173253355D02*
X88118380Y-173062878D01*
X87642190Y-172872402D01*
X88118380Y-172681926D01*
X87451714Y-172491450D01*
X88118380Y-172110498D02*
X87451714Y-172110498D01*
X87642190Y-172110498D02*
X87546952Y-172062878D01*
X87499333Y-172015259D01*
X87451714Y-171920021D01*
X87451714Y-171824783D01*
X88118380Y-171491450D02*
X87451714Y-171491450D01*
X87118380Y-171491450D02*
X87166000Y-171539069D01*
X87213619Y-171491450D01*
X87166000Y-171443831D01*
X87118380Y-171491450D01*
X87213619Y-171491450D01*
X87451714Y-171158117D02*
X87451714Y-170777164D01*
X87118380Y-171015259D02*
X87975523Y-171015259D01*
X88070761Y-170967640D01*
X88118380Y-170872402D01*
X88118380Y-170777164D01*
X88070761Y-170062878D02*
X88118380Y-170158117D01*
X88118380Y-170348593D01*
X88070761Y-170443831D01*
X87975523Y-170491450D01*
X87594571Y-170491450D01*
X87499333Y-170443831D01*
X87451714Y-170348593D01*
X87451714Y-170158117D01*
X87499333Y-170062878D01*
X87594571Y-170015259D01*
X87689809Y-170015259D01*
X87785047Y-170491450D01*
X87832666Y-169634307D02*
X87832666Y-169158117D01*
X88118380Y-169729545D02*
X87118380Y-169396212D01*
X88118380Y-169062878D01*
X88070761Y-168300974D02*
X88118380Y-168396212D01*
X88118380Y-168586688D01*
X88070761Y-168681926D01*
X88023142Y-168729545D01*
X87927904Y-168777164D01*
X87642190Y-168777164D01*
X87546952Y-168729545D01*
X87499333Y-168681926D01*
X87451714Y-168586688D01*
X87451714Y-168396212D01*
X87499333Y-168300974D01*
X88070761Y-167443831D02*
X88118380Y-167539069D01*
X88118380Y-167729545D01*
X88070761Y-167824783D01*
X88023142Y-167872402D01*
X87927904Y-167920021D01*
X87642190Y-167920021D01*
X87546952Y-167872402D01*
X87499333Y-167824783D01*
X87451714Y-167729545D01*
X87451714Y-167539069D01*
X87499333Y-167443831D01*
X87451714Y-166586688D02*
X88118380Y-166586688D01*
X87451714Y-167015259D02*
X87975523Y-167015259D01*
X88070761Y-166967640D01*
X88118380Y-166872402D01*
X88118380Y-166729545D01*
X88070761Y-166634307D01*
X88023142Y-166586688D01*
X82038380Y-174967640D02*
X82038380Y-174300974D01*
X83038380Y-174729545D01*
X83038380Y-173158117D02*
X82371714Y-173158117D01*
X82562190Y-173158117D02*
X82466952Y-173110498D01*
X82419333Y-173062878D01*
X82371714Y-172967640D01*
X82371714Y-172872402D01*
X82990761Y-172158117D02*
X83038380Y-172253355D01*
X83038380Y-172443831D01*
X82990761Y-172539069D01*
X82895523Y-172586688D01*
X82514571Y-172586688D01*
X82419333Y-172539069D01*
X82371714Y-172443831D01*
X82371714Y-172253355D01*
X82419333Y-172158117D01*
X82514571Y-172110498D01*
X82609809Y-172110498D01*
X82705047Y-172586688D01*
X83038380Y-171253355D02*
X82514571Y-171253355D01*
X82419333Y-171300974D01*
X82371714Y-171396212D01*
X82371714Y-171586688D01*
X82419333Y-171681926D01*
X82990761Y-171253355D02*
X83038380Y-171348593D01*
X83038380Y-171586688D01*
X82990761Y-171681926D01*
X82895523Y-171729545D01*
X82800285Y-171729545D01*
X82705047Y-171681926D01*
X82657428Y-171586688D01*
X82657428Y-171348593D01*
X82609809Y-171253355D01*
X83038380Y-170348593D02*
X82038380Y-170348593D01*
X82990761Y-170348593D02*
X83038380Y-170443831D01*
X83038380Y-170634307D01*
X82990761Y-170729545D01*
X82943142Y-170777164D01*
X82847904Y-170824783D01*
X82562190Y-170824783D01*
X82466952Y-170777164D01*
X82419333Y-170729545D01*
X82371714Y-170634307D01*
X82371714Y-170443831D01*
X82419333Y-170348593D01*
X82752666Y-169920021D02*
X82752666Y-169443831D01*
X83038380Y-170015259D02*
X82038380Y-169681926D01*
X83038380Y-169348593D01*
X82990761Y-168586688D02*
X83038380Y-168681926D01*
X83038380Y-168872402D01*
X82990761Y-168967640D01*
X82943142Y-169015259D01*
X82847904Y-169062878D01*
X82562190Y-169062878D01*
X82466952Y-169015259D01*
X82419333Y-168967640D01*
X82371714Y-168872402D01*
X82371714Y-168681926D01*
X82419333Y-168586688D01*
X82990761Y-167729545D02*
X83038380Y-167824783D01*
X83038380Y-168015259D01*
X82990761Y-168110498D01*
X82943142Y-168158117D01*
X82847904Y-168205736D01*
X82562190Y-168205736D01*
X82466952Y-168158117D01*
X82419333Y-168110498D01*
X82371714Y-168015259D01*
X82371714Y-167824783D01*
X82419333Y-167729545D01*
X82371714Y-166872402D02*
X83038380Y-166872402D01*
X82371714Y-167300974D02*
X82895523Y-167300974D01*
X82990761Y-167253355D01*
X83038380Y-167158117D01*
X83038380Y-167015259D01*
X82990761Y-166920021D01*
X82943142Y-166872402D01*
X76958380Y-174443831D02*
X76958380Y-174634307D01*
X77006000Y-174729545D01*
X77053619Y-174777164D01*
X77196476Y-174872402D01*
X77386952Y-174920021D01*
X77767904Y-174920021D01*
X77863142Y-174872402D01*
X77910761Y-174824783D01*
X77958380Y-174729545D01*
X77958380Y-174539069D01*
X77910761Y-174443831D01*
X77863142Y-174396212D01*
X77767904Y-174348593D01*
X77529809Y-174348593D01*
X77434571Y-174396212D01*
X77386952Y-174443831D01*
X77339333Y-174539069D01*
X77339333Y-174729545D01*
X77386952Y-174824783D01*
X77434571Y-174872402D01*
X77529809Y-174920021D01*
X77958380Y-172729545D02*
X76958380Y-172729545D01*
X77910761Y-172729545D02*
X77958380Y-172824783D01*
X77958380Y-173015259D01*
X77910761Y-173110498D01*
X77863142Y-173158117D01*
X77767904Y-173205736D01*
X77482190Y-173205736D01*
X77386952Y-173158117D01*
X77339333Y-173110498D01*
X77291714Y-173015259D01*
X77291714Y-172824783D01*
X77339333Y-172729545D01*
X77910761Y-171872402D02*
X77958380Y-171967640D01*
X77958380Y-172158117D01*
X77910761Y-172253355D01*
X77815523Y-172300974D01*
X77434571Y-172300974D01*
X77339333Y-172253355D01*
X77291714Y-172158117D01*
X77291714Y-171967640D01*
X77339333Y-171872402D01*
X77434571Y-171824783D01*
X77529809Y-171824783D01*
X77625047Y-172300974D01*
X77910761Y-170967640D02*
X77958380Y-171062878D01*
X77958380Y-171253355D01*
X77910761Y-171348593D01*
X77863142Y-171396212D01*
X77767904Y-171443831D01*
X77482190Y-171443831D01*
X77386952Y-171396212D01*
X77339333Y-171348593D01*
X77291714Y-171253355D01*
X77291714Y-171062878D01*
X77339333Y-170967640D01*
X77672666Y-170586688D02*
X77672666Y-170110498D01*
X77958380Y-170681926D02*
X76958380Y-170348593D01*
X77958380Y-170015259D01*
X77910761Y-169253355D02*
X77958380Y-169348593D01*
X77958380Y-169539069D01*
X77910761Y-169634307D01*
X77863142Y-169681926D01*
X77767904Y-169729545D01*
X77482190Y-169729545D01*
X77386952Y-169681926D01*
X77339333Y-169634307D01*
X77291714Y-169539069D01*
X77291714Y-169348593D01*
X77339333Y-169253355D01*
X77910761Y-168396212D02*
X77958380Y-168491450D01*
X77958380Y-168681926D01*
X77910761Y-168777164D01*
X77863142Y-168824783D01*
X77767904Y-168872402D01*
X77482190Y-168872402D01*
X77386952Y-168824783D01*
X77339333Y-168777164D01*
X77291714Y-168681926D01*
X77291714Y-168491450D01*
X77339333Y-168396212D01*
X77291714Y-167539069D02*
X77958380Y-167539069D01*
X77291714Y-167967640D02*
X77815523Y-167967640D01*
X77910761Y-167920021D01*
X77958380Y-167824783D01*
X77958380Y-167681926D01*
X77910761Y-167586688D01*
X77863142Y-167539069D01*
X71878380Y-174396212D02*
X71878380Y-174872402D01*
X72354571Y-174920021D01*
X72306952Y-174872402D01*
X72259333Y-174777164D01*
X72259333Y-174539069D01*
X72306952Y-174443831D01*
X72354571Y-174396212D01*
X72449809Y-174348593D01*
X72687904Y-174348593D01*
X72783142Y-174396212D01*
X72830761Y-174443831D01*
X72878380Y-174539069D01*
X72878380Y-174777164D01*
X72830761Y-174872402D01*
X72783142Y-174920021D01*
X72878380Y-173158117D02*
X72211714Y-173158117D01*
X71878380Y-173158117D02*
X71926000Y-173205736D01*
X71973619Y-173158117D01*
X71926000Y-173110498D01*
X71878380Y-173158117D01*
X71973619Y-173158117D01*
X72211714Y-172681926D02*
X72878380Y-172681926D01*
X72306952Y-172681926D02*
X72259333Y-172634307D01*
X72211714Y-172539069D01*
X72211714Y-172396212D01*
X72259333Y-172300974D01*
X72354571Y-172253355D01*
X72878380Y-172253355D01*
X72830761Y-171348593D02*
X72878380Y-171443831D01*
X72878380Y-171634307D01*
X72830761Y-171729545D01*
X72783142Y-171777164D01*
X72687904Y-171824783D01*
X72402190Y-171824783D01*
X72306952Y-171777164D01*
X72259333Y-171729545D01*
X72211714Y-171634307D01*
X72211714Y-171443831D01*
X72259333Y-171348593D01*
X72592666Y-170967640D02*
X72592666Y-170491450D01*
X72878380Y-171062878D02*
X71878380Y-170729545D01*
X72878380Y-170396212D01*
X72830761Y-169634307D02*
X72878380Y-169729545D01*
X72878380Y-169920021D01*
X72830761Y-170015259D01*
X72783142Y-170062878D01*
X72687904Y-170110498D01*
X72402190Y-170110498D01*
X72306952Y-170062878D01*
X72259333Y-170015259D01*
X72211714Y-169920021D01*
X72211714Y-169729545D01*
X72259333Y-169634307D01*
X72830761Y-168777164D02*
X72878380Y-168872402D01*
X72878380Y-169062878D01*
X72830761Y-169158117D01*
X72783142Y-169205736D01*
X72687904Y-169253355D01*
X72402190Y-169253355D01*
X72306952Y-169205736D01*
X72259333Y-169158117D01*
X72211714Y-169062878D01*
X72211714Y-168872402D01*
X72259333Y-168777164D01*
X72211714Y-167920021D02*
X72878380Y-167920021D01*
X72211714Y-168348593D02*
X72735523Y-168348593D01*
X72830761Y-168300974D01*
X72878380Y-168205736D01*
X72878380Y-168062878D01*
X72830761Y-167967640D01*
X72783142Y-167920021D01*
X67131714Y-174443831D02*
X67798380Y-174443831D01*
X66750761Y-174681926D02*
X67465047Y-174920021D01*
X67465047Y-174300974D01*
X67798380Y-173158117D02*
X67131714Y-173158117D01*
X67322190Y-173158117D02*
X67226952Y-173110498D01*
X67179333Y-173062878D01*
X67131714Y-172967640D01*
X67131714Y-172872402D01*
X67750761Y-172158117D02*
X67798380Y-172253355D01*
X67798380Y-172443831D01*
X67750761Y-172539069D01*
X67655523Y-172586688D01*
X67274571Y-172586688D01*
X67179333Y-172539069D01*
X67131714Y-172443831D01*
X67131714Y-172253355D01*
X67179333Y-172158117D01*
X67274571Y-172110498D01*
X67369809Y-172110498D01*
X67465047Y-172586688D01*
X67798380Y-171253355D02*
X67274571Y-171253355D01*
X67179333Y-171300974D01*
X67131714Y-171396212D01*
X67131714Y-171586688D01*
X67179333Y-171681926D01*
X67750761Y-171253355D02*
X67798380Y-171348593D01*
X67798380Y-171586688D01*
X67750761Y-171681926D01*
X67655523Y-171729545D01*
X67560285Y-171729545D01*
X67465047Y-171681926D01*
X67417428Y-171586688D01*
X67417428Y-171348593D01*
X67369809Y-171253355D01*
X67798380Y-170348593D02*
X66798380Y-170348593D01*
X67750761Y-170348593D02*
X67798380Y-170443831D01*
X67798380Y-170634307D01*
X67750761Y-170729545D01*
X67703142Y-170777164D01*
X67607904Y-170824783D01*
X67322190Y-170824783D01*
X67226952Y-170777164D01*
X67179333Y-170729545D01*
X67131714Y-170634307D01*
X67131714Y-170443831D01*
X67179333Y-170348593D01*
X67798380Y-169872402D02*
X66798380Y-169872402D01*
X67512666Y-169539069D01*
X66798380Y-169205736D01*
X67798380Y-169205736D01*
X67750761Y-168348593D02*
X67798380Y-168443831D01*
X67798380Y-168634307D01*
X67750761Y-168729545D01*
X67655523Y-168777164D01*
X67274571Y-168777164D01*
X67179333Y-168729545D01*
X67131714Y-168634307D01*
X67131714Y-168443831D01*
X67179333Y-168348593D01*
X67274571Y-168300974D01*
X67369809Y-168300974D01*
X67465047Y-168777164D01*
X67798380Y-167872402D02*
X67131714Y-167872402D01*
X67226952Y-167872402D02*
X67179333Y-167824783D01*
X67131714Y-167729545D01*
X67131714Y-167586688D01*
X67179333Y-167491450D01*
X67274571Y-167443831D01*
X67798380Y-167443831D01*
X67274571Y-167443831D02*
X67179333Y-167396212D01*
X67131714Y-167300974D01*
X67131714Y-167158117D01*
X67179333Y-167062878D01*
X67274571Y-167015259D01*
X67798380Y-167015259D01*
X62266000Y-182840998D02*
X62266000Y-191730998D01*
X110851714Y-189754569D02*
X110994571Y-189802188D01*
X111042190Y-189849807D01*
X111089809Y-189945045D01*
X111089809Y-190087902D01*
X111042190Y-190183140D01*
X110994571Y-190230759D01*
X110899333Y-190278378D01*
X110518380Y-190278378D01*
X110518380Y-189278378D01*
X110851714Y-189278378D01*
X110946952Y-189325998D01*
X110994571Y-189373617D01*
X111042190Y-189468855D01*
X111042190Y-189564093D01*
X110994571Y-189659331D01*
X110946952Y-189706950D01*
X110851714Y-189754569D01*
X110518380Y-189754569D01*
X111899333Y-190230759D02*
X111804095Y-190278378D01*
X111613619Y-190278378D01*
X111518380Y-190230759D01*
X111470761Y-190135521D01*
X111470761Y-189754569D01*
X111518380Y-189659331D01*
X111613619Y-189611712D01*
X111804095Y-189611712D01*
X111899333Y-189659331D01*
X111946952Y-189754569D01*
X111946952Y-189849807D01*
X111470761Y-189945045D01*
X112232666Y-189611712D02*
X112613619Y-189611712D01*
X112375523Y-190278378D02*
X112375523Y-189421236D01*
X112423142Y-189325998D01*
X112518380Y-189278378D01*
X112613619Y-189278378D01*
X113327904Y-190230759D02*
X113232666Y-190278378D01*
X113042190Y-190278378D01*
X112946952Y-190230759D01*
X112899333Y-190135521D01*
X112899333Y-189754569D01*
X112946952Y-189659331D01*
X113042190Y-189611712D01*
X113232666Y-189611712D01*
X113327904Y-189659331D01*
X113375523Y-189754569D01*
X113375523Y-189849807D01*
X112899333Y-189945045D01*
X113804095Y-190278378D02*
X113804095Y-189278378D01*
X114232666Y-190278378D02*
X114232666Y-189754569D01*
X114185047Y-189659331D01*
X114089809Y-189611712D01*
X113946952Y-189611712D01*
X113851714Y-189659331D01*
X113804095Y-189706950D01*
X114851714Y-190278378D02*
X114756476Y-190230759D01*
X114708857Y-190135521D01*
X114708857Y-189278378D01*
X115613619Y-190230759D02*
X115518380Y-190278378D01*
X115327904Y-190278378D01*
X115232666Y-190230759D01*
X115185047Y-190135521D01*
X115185047Y-189754569D01*
X115232666Y-189659331D01*
X115327904Y-189611712D01*
X115518380Y-189611712D01*
X115613619Y-189659331D01*
X115661238Y-189754569D01*
X115661238Y-189849807D01*
X115185047Y-189945045D01*
X123226000Y-179030998D02*
X123226000Y-191730998D01*
X102906000Y-179030998D02*
X102906000Y-191730998D01*
X97064095Y-190278378D02*
X97064095Y-189278378D01*
X97445047Y-189278378D01*
X97540285Y-189325998D01*
X97587904Y-189373617D01*
X97635523Y-189468855D01*
X97635523Y-189611712D01*
X97587904Y-189706950D01*
X97540285Y-189754569D01*
X97445047Y-189802188D01*
X97064095Y-189802188D01*
X98635523Y-190183140D02*
X98587904Y-190230759D01*
X98445047Y-190278378D01*
X98349809Y-190278378D01*
X98206952Y-190230759D01*
X98111714Y-190135521D01*
X98064095Y-190040283D01*
X98016476Y-189849807D01*
X98016476Y-189706950D01*
X98064095Y-189516474D01*
X98111714Y-189421236D01*
X98206952Y-189325998D01*
X98349809Y-189278378D01*
X98445047Y-189278378D01*
X98587904Y-189325998D01*
X98635523Y-189373617D01*
X81038380Y-189992664D02*
X81514571Y-189992664D01*
X80943142Y-190278378D02*
X81276476Y-189278378D01*
X81609809Y-190278378D01*
X82371714Y-190230759D02*
X82276476Y-190278378D01*
X82086000Y-190278378D01*
X81990761Y-190230759D01*
X81943142Y-190183140D01*
X81895523Y-190087902D01*
X81895523Y-189802188D01*
X81943142Y-189706950D01*
X81990761Y-189659331D01*
X82086000Y-189611712D01*
X82276476Y-189611712D01*
X82371714Y-189659331D01*
X83228857Y-190230759D02*
X83133619Y-190278378D01*
X82943142Y-190278378D01*
X82847904Y-190230759D01*
X82800285Y-190183140D01*
X82752666Y-190087902D01*
X82752666Y-189802188D01*
X82800285Y-189706950D01*
X82847904Y-189659331D01*
X82943142Y-189611712D01*
X83133619Y-189611712D01*
X83228857Y-189659331D01*
X84086000Y-189611712D02*
X84086000Y-190278378D01*
X83657428Y-189611712D02*
X83657428Y-190135521D01*
X83705047Y-190230759D01*
X83800285Y-190278378D01*
X83943142Y-190278378D01*
X84038380Y-190230759D01*
X84086000Y-190183140D01*
X92746000Y-179030998D02*
X92746000Y-191730998D01*
X64322190Y-190230759D02*
X64465047Y-190278378D01*
X64703142Y-190278378D01*
X64798380Y-190230759D01*
X64846000Y-190183140D01*
X64893619Y-190087902D01*
X64893619Y-189992664D01*
X64846000Y-189897426D01*
X64798380Y-189849807D01*
X64703142Y-189802188D01*
X64512666Y-189754569D01*
X64417428Y-189706950D01*
X64369809Y-189659331D01*
X64322190Y-189564093D01*
X64322190Y-189468855D01*
X64369809Y-189373617D01*
X64417428Y-189325998D01*
X64512666Y-189278378D01*
X64750761Y-189278378D01*
X64893619Y-189325998D01*
X65322190Y-189611712D02*
X65322190Y-190611712D01*
X65322190Y-189659331D02*
X65417428Y-189611712D01*
X65607904Y-189611712D01*
X65703142Y-189659331D01*
X65750761Y-189706950D01*
X65798380Y-189802188D01*
X65798380Y-190087902D01*
X65750761Y-190183140D01*
X65703142Y-190230759D01*
X65607904Y-190278378D01*
X65417428Y-190278378D01*
X65322190Y-190230759D01*
X66607904Y-190230759D02*
X66512666Y-190278378D01*
X66322190Y-190278378D01*
X66226952Y-190230759D01*
X66179333Y-190135521D01*
X66179333Y-189754569D01*
X66226952Y-189659331D01*
X66322190Y-189611712D01*
X66512666Y-189611712D01*
X66607904Y-189659331D01*
X66655523Y-189754569D01*
X66655523Y-189849807D01*
X66179333Y-189945045D01*
X67084095Y-190278378D02*
X67084095Y-189611712D01*
X67084095Y-189278378D02*
X67036476Y-189325998D01*
X67084095Y-189373617D01*
X67131714Y-189325998D01*
X67084095Y-189278378D01*
X67084095Y-189373617D01*
X67988857Y-190230759D02*
X67893619Y-190278378D01*
X67703142Y-190278378D01*
X67607904Y-190230759D01*
X67560285Y-190183140D01*
X67512666Y-190087902D01*
X67512666Y-189802188D01*
X67560285Y-189706950D01*
X67607904Y-189659331D01*
X67703142Y-189611712D01*
X67893619Y-189611712D01*
X67988857Y-189659331D01*
X68417428Y-190278378D02*
X68417428Y-189278378D01*
X68846000Y-190278378D02*
X68846000Y-189754569D01*
X68798380Y-189659331D01*
X68703142Y-189611712D01*
X68560285Y-189611712D01*
X68465047Y-189659331D01*
X68417428Y-189706950D01*
X69703142Y-190230759D02*
X69607904Y-190278378D01*
X69417428Y-190278378D01*
X69322190Y-190230759D01*
X69274571Y-190135521D01*
X69274571Y-189754569D01*
X69322190Y-189659331D01*
X69417428Y-189611712D01*
X69607904Y-189611712D01*
X69703142Y-189659331D01*
X69750761Y-189754569D01*
X69750761Y-189849807D01*
X69274571Y-189945045D01*
X70179333Y-190278378D02*
X70179333Y-189611712D01*
X70179333Y-189802188D02*
X70226952Y-189706950D01*
X70274571Y-189659331D01*
X70369809Y-189611712D01*
X70465047Y-189611712D01*
X55852666Y-190278378D02*
X55852666Y-189278378D01*
X56186000Y-189992664D01*
X56519333Y-189278378D01*
X56519333Y-190278378D01*
X56995523Y-190278378D02*
X56995523Y-189278378D01*
X57376476Y-189278378D01*
X57471714Y-189325998D01*
X57519333Y-189373617D01*
X57566952Y-189468855D01*
X57566952Y-189611712D01*
X57519333Y-189706950D01*
X57471714Y-189754569D01*
X57376476Y-189802188D01*
X56995523Y-189802188D01*
X58566952Y-190183140D02*
X58519333Y-190230759D01*
X58376476Y-190278378D01*
X58281238Y-190278378D01*
X58138380Y-190230759D01*
X58043142Y-190135521D01*
X57995523Y-190040283D01*
X57947904Y-189849807D01*
X57947904Y-189706950D01*
X57995523Y-189516474D01*
X58043142Y-189421236D01*
X58138380Y-189325998D01*
X58281238Y-189278378D01*
X58376476Y-189278378D01*
X58519333Y-189325998D01*
X58566952Y-189373617D01*
X72426000Y-179030998D02*
X72426000Y-191730998D01*
X62266000Y-179030998D02*
X62266000Y-182840998D01*
X61718380Y-174967640D02*
X61718380Y-174348593D01*
X62099333Y-174681926D01*
X62099333Y-174539069D01*
X62146952Y-174443831D01*
X62194571Y-174396212D01*
X62289809Y-174348593D01*
X62527904Y-174348593D01*
X62623142Y-174396212D01*
X62670761Y-174443831D01*
X62718380Y-174539069D01*
X62718380Y-174824783D01*
X62670761Y-174920021D01*
X62623142Y-174967640D01*
X62051714Y-173253355D02*
X62718380Y-173062878D01*
X62242190Y-172872402D01*
X62718380Y-172681926D01*
X62051714Y-172491450D01*
X62718380Y-172110498D02*
X62051714Y-172110498D01*
X62242190Y-172110498D02*
X62146952Y-172062878D01*
X62099333Y-172015259D01*
X62051714Y-171920021D01*
X62051714Y-171824783D01*
X62718380Y-171491450D02*
X62051714Y-171491450D01*
X61718380Y-171491450D02*
X61766000Y-171539069D01*
X61813619Y-171491450D01*
X61766000Y-171443831D01*
X61718380Y-171491450D01*
X61813619Y-171491450D01*
X62051714Y-171158117D02*
X62051714Y-170777164D01*
X61718380Y-171015259D02*
X62575523Y-171015259D01*
X62670761Y-170967640D01*
X62718380Y-170872402D01*
X62718380Y-170777164D01*
X62670761Y-170062878D02*
X62718380Y-170158117D01*
X62718380Y-170348593D01*
X62670761Y-170443831D01*
X62575523Y-170491450D01*
X62194571Y-170491450D01*
X62099333Y-170443831D01*
X62051714Y-170348593D01*
X62051714Y-170158117D01*
X62099333Y-170062878D01*
X62194571Y-170015259D01*
X62289809Y-170015259D01*
X62385047Y-170491450D01*
X62718380Y-169586688D02*
X61718380Y-169586688D01*
X62432666Y-169253355D01*
X61718380Y-168920021D01*
X62718380Y-168920021D01*
X62670761Y-168062878D02*
X62718380Y-168158117D01*
X62718380Y-168348593D01*
X62670761Y-168443831D01*
X62575523Y-168491450D01*
X62194571Y-168491450D01*
X62099333Y-168443831D01*
X62051714Y-168348593D01*
X62051714Y-168158117D01*
X62099333Y-168062878D01*
X62194571Y-168015259D01*
X62289809Y-168015259D01*
X62385047Y-168491450D01*
X62718380Y-167586688D02*
X62051714Y-167586688D01*
X62146952Y-167586688D02*
X62099333Y-167539069D01*
X62051714Y-167443831D01*
X62051714Y-167300974D01*
X62099333Y-167205736D01*
X62194571Y-167158117D01*
X62718380Y-167158117D01*
X62194571Y-167158117D02*
X62099333Y-167110498D01*
X62051714Y-167015259D01*
X62051714Y-166872402D01*
X62099333Y-166777164D01*
X62194571Y-166729545D01*
X62718380Y-166729545D01*
X56733619Y-175291950D02*
X56686000Y-175244331D01*
X56638380Y-175149093D01*
X56638380Y-174910998D01*
X56686000Y-174815759D01*
X56733619Y-174768140D01*
X56828857Y-174720521D01*
X56924095Y-174720521D01*
X57066952Y-174768140D01*
X57638380Y-175339569D01*
X57638380Y-174720521D01*
X57638380Y-173530045D02*
X56971714Y-173530045D01*
X57162190Y-173530045D02*
X57066952Y-173482426D01*
X57019333Y-173434807D01*
X56971714Y-173339569D01*
X56971714Y-173244331D01*
X57590761Y-172530045D02*
X57638380Y-172625283D01*
X57638380Y-172815759D01*
X57590761Y-172910998D01*
X57495523Y-172958617D01*
X57114571Y-172958617D01*
X57019333Y-172910998D01*
X56971714Y-172815759D01*
X56971714Y-172625283D01*
X57019333Y-172530045D01*
X57114571Y-172482426D01*
X57209809Y-172482426D01*
X57305047Y-172958617D01*
X57638380Y-171625283D02*
X57114571Y-171625283D01*
X57019333Y-171672902D01*
X56971714Y-171768140D01*
X56971714Y-171958617D01*
X57019333Y-172053855D01*
X57590761Y-171625283D02*
X57638380Y-171720521D01*
X57638380Y-171958617D01*
X57590761Y-172053855D01*
X57495523Y-172101474D01*
X57400285Y-172101474D01*
X57305047Y-172053855D01*
X57257428Y-171958617D01*
X57257428Y-171720521D01*
X57209809Y-171625283D01*
X57638380Y-170720521D02*
X56638380Y-170720521D01*
X57590761Y-170720521D02*
X57638380Y-170815759D01*
X57638380Y-171006236D01*
X57590761Y-171101474D01*
X57543142Y-171149093D01*
X57447904Y-171196712D01*
X57162190Y-171196712D01*
X57066952Y-171149093D01*
X57019333Y-171101474D01*
X56971714Y-171006236D01*
X56971714Y-170815759D01*
X57019333Y-170720521D01*
X57638380Y-170244331D02*
X56638380Y-170244331D01*
X57352666Y-169910998D01*
X56638380Y-169577664D01*
X57638380Y-169577664D01*
X57638380Y-169101474D02*
X56638380Y-169101474D01*
X56638380Y-168720521D01*
X56686000Y-168625283D01*
X56733619Y-168577664D01*
X56828857Y-168530045D01*
X56971714Y-168530045D01*
X57066952Y-168577664D01*
X57114571Y-168625283D01*
X57162190Y-168720521D01*
X57162190Y-169101474D01*
X57543142Y-167530045D02*
X57590761Y-167577664D01*
X57638380Y-167720521D01*
X57638380Y-167815759D01*
X57590761Y-167958617D01*
X57495523Y-168053855D01*
X57400285Y-168101474D01*
X57209809Y-168149093D01*
X57066952Y-168149093D01*
X56876476Y-168101474D01*
X56781238Y-168053855D01*
X56686000Y-167958617D01*
X56638380Y-167815759D01*
X56638380Y-167720521D01*
X56686000Y-167577664D01*
X56733619Y-167530045D01*
X52558380Y-174348593D02*
X52558380Y-174920021D01*
X52558380Y-174634307D02*
X51558380Y-174634307D01*
X51701238Y-174729545D01*
X51796476Y-174824783D01*
X51844095Y-174920021D01*
X52510761Y-172729545D02*
X52558380Y-172824783D01*
X52558380Y-173015259D01*
X52510761Y-173110498D01*
X52463142Y-173158117D01*
X52367904Y-173205736D01*
X52082190Y-173205736D01*
X51986952Y-173158117D01*
X51939333Y-173110498D01*
X51891714Y-173015259D01*
X51891714Y-172824783D01*
X51939333Y-172729545D01*
X52558380Y-172158117D02*
X52510761Y-172253355D01*
X52415523Y-172300974D01*
X51558380Y-172300974D01*
X52558380Y-171777164D02*
X51891714Y-171777164D01*
X52082190Y-171777164D02*
X51986952Y-171729545D01*
X51939333Y-171681926D01*
X51891714Y-171586688D01*
X51891714Y-171491450D01*
X52558380Y-171158117D02*
X51558380Y-171158117D01*
X52272666Y-170824783D01*
X51558380Y-170491450D01*
X52558380Y-170491450D01*
X52558380Y-170015259D02*
X51558380Y-170015259D01*
X51558380Y-169634307D01*
X51606000Y-169539069D01*
X51653619Y-169491450D01*
X51748857Y-169443831D01*
X51891714Y-169443831D01*
X51986952Y-169491450D01*
X52034571Y-169539069D01*
X52082190Y-169634307D01*
X52082190Y-170015259D01*
X52463142Y-168443831D02*
X52510761Y-168491450D01*
X52558380Y-168634307D01*
X52558380Y-168729545D01*
X52510761Y-168872402D01*
X52415523Y-168967640D01*
X52320285Y-169015259D01*
X52129809Y-169062878D01*
X51986952Y-169062878D01*
X51796476Y-169015259D01*
X51701238Y-168967640D01*
X51606000Y-168872402D01*
X51558380Y-168729545D01*
X51558380Y-168634307D01*
X51606000Y-168491450D01*
X51653619Y-168443831D01*
X46501500Y-152308998D02*
X47358642Y-152308998D01*
X47168166Y-153654759D02*
X47072928Y-153702378D01*
X46882452Y-153702378D01*
X46787214Y-153654759D01*
X46739595Y-153607140D01*
X46691976Y-153511902D01*
X46691976Y-153226188D01*
X46739595Y-153130950D01*
X46787214Y-153083331D01*
X46882452Y-153035712D01*
X47072928Y-153035712D01*
X47168166Y-153083331D01*
X47358642Y-152308998D02*
X47882452Y-152308998D01*
X47739595Y-153702378D02*
X47644357Y-153654759D01*
X47596738Y-153559521D01*
X47596738Y-152702378D01*
X47882452Y-152308998D02*
X48501500Y-152308998D01*
X48120547Y-153702378D02*
X48120547Y-153035712D01*
X48120547Y-153226188D02*
X48168166Y-153130950D01*
X48215785Y-153083331D01*
X48311023Y-153035712D01*
X48406261Y-153035712D01*
X48501500Y-152308998D02*
X49644357Y-152308998D01*
X48739595Y-153702378D02*
X48739595Y-152702378D01*
X49072928Y-153416664D01*
X49406261Y-152702378D01*
X49406261Y-153702378D01*
X49644357Y-152308998D02*
X50644357Y-152308998D01*
X49882452Y-153702378D02*
X49882452Y-152702378D01*
X50263404Y-152702378D01*
X50358642Y-152749998D01*
X50406261Y-152797617D01*
X50453880Y-152892855D01*
X50453880Y-153035712D01*
X50406261Y-153130950D01*
X50358642Y-153178569D01*
X50263404Y-153226188D01*
X49882452Y-153226188D01*
X50644357Y-152308998D02*
X51644357Y-152308998D01*
X51453880Y-153607140D02*
X51406261Y-153654759D01*
X51263404Y-153702378D01*
X51168166Y-153702378D01*
X51025309Y-153654759D01*
X50930071Y-153559521D01*
X50882452Y-153464283D01*
X50834833Y-153273807D01*
X50834833Y-153130950D01*
X50882452Y-152940474D01*
X50930071Y-152845236D01*
X51025309Y-152749998D01*
X51168166Y-152702378D01*
X51263404Y-152702378D01*
X51406261Y-152749998D01*
X51453880Y-152797617D01*
X55391500Y-94269998D02*
X56248642Y-94269998D01*
X56010547Y-95615759D02*
X55915309Y-95663378D01*
X55724833Y-95663378D01*
X55629595Y-95615759D01*
X55581976Y-95520521D01*
X55581976Y-95139569D01*
X55629595Y-95044331D01*
X55724833Y-94996712D01*
X55915309Y-94996712D01*
X56010547Y-95044331D01*
X56058166Y-95139569D01*
X56058166Y-95234807D01*
X55581976Y-95330045D01*
X56248642Y-94269998D02*
X57153404Y-94269998D01*
X56486738Y-94996712D02*
X56486738Y-95663378D01*
X56486738Y-95091950D02*
X56534357Y-95044331D01*
X56629595Y-94996712D01*
X56772452Y-94996712D01*
X56867690Y-95044331D01*
X56915309Y-95139569D01*
X56915309Y-95663378D01*
X57153404Y-94269998D02*
X58153404Y-94269998D01*
X57391500Y-95663378D02*
X57391500Y-94663378D01*
X57629595Y-94663378D01*
X57772452Y-94710998D01*
X57867690Y-94806236D01*
X57915309Y-94901474D01*
X57962928Y-95091950D01*
X57962928Y-95234807D01*
X57915309Y-95425283D01*
X57867690Y-95520521D01*
X57772452Y-95615759D01*
X57629595Y-95663378D01*
X57391500Y-95663378D01*
X58153404Y-94269998D02*
X59058166Y-94269998D01*
X58391500Y-95139569D02*
X58724833Y-95139569D01*
X58867690Y-95663378D02*
X58391500Y-95663378D01*
X58391500Y-94663378D01*
X58867690Y-94663378D01*
X59058166Y-94269998D02*
X60058166Y-94269998D01*
X59867690Y-95568140D02*
X59820071Y-95615759D01*
X59677214Y-95663378D01*
X59581976Y-95663378D01*
X59439119Y-95615759D01*
X59343880Y-95520521D01*
X59296261Y-95425283D01*
X59248642Y-95234807D01*
X59248642Y-95091950D01*
X59296261Y-94901474D01*
X59343880Y-94806236D01*
X59439119Y-94710998D01*
X59581976Y-94663378D01*
X59677214Y-94663378D01*
X59820071Y-94710998D01*
X59867690Y-94758617D01*
D11*
X113432571Y-47276283D02*
X113861142Y-47419140D01*
X114575428Y-47419140D01*
X114861142Y-47276283D01*
X115004000Y-47133426D01*
X115146857Y-46847712D01*
X115146857Y-46561998D01*
X115004000Y-46276283D01*
X114861142Y-46133426D01*
X114575428Y-45990569D01*
X114004000Y-45847712D01*
X113718285Y-45704855D01*
X113575428Y-45561998D01*
X113432571Y-45276283D01*
X113432571Y-44990569D01*
X113575428Y-44704855D01*
X113718285Y-44561998D01*
X114004000Y-44419140D01*
X114718285Y-44419140D01*
X115146857Y-44561998D01*
X116004000Y-45419140D02*
X117146857Y-45419140D01*
X116432571Y-44419140D02*
X116432571Y-46990569D01*
X116575428Y-47276283D01*
X116861142Y-47419140D01*
X117146857Y-47419140D01*
X119289714Y-47276283D02*
X119004000Y-47419140D01*
X118432571Y-47419140D01*
X118146857Y-47276283D01*
X118004000Y-46990569D01*
X118004000Y-45847712D01*
X118146857Y-45561998D01*
X118432571Y-45419140D01*
X119004000Y-45419140D01*
X119289714Y-45561998D01*
X119432571Y-45847712D01*
X119432571Y-46133426D01*
X118004000Y-46419140D01*
X122004000Y-45419140D02*
X122004000Y-47419140D01*
X120718285Y-45419140D02*
X120718285Y-46990569D01*
X120861142Y-47276283D01*
X121146857Y-47419140D01*
X121575428Y-47419140D01*
X121861142Y-47276283D01*
X122004000Y-47133426D01*
X124575428Y-47276283D02*
X124289714Y-47419140D01*
X123718285Y-47419140D01*
X123432571Y-47276283D01*
X123289714Y-46990569D01*
X123289714Y-45847712D01*
X123432571Y-45561998D01*
X123718285Y-45419140D01*
X124289714Y-45419140D01*
X124575428Y-45561998D01*
X124718285Y-45847712D01*
X124718285Y-46133426D01*
X123289714Y-46419140D01*
X126004000Y-47419140D02*
X126004000Y-45419140D01*
X126004000Y-45990569D02*
X126146857Y-45704855D01*
X126289714Y-45561998D01*
X126575428Y-45419140D01*
X126861142Y-45419140D01*
X127575428Y-45419140D02*
X128146857Y-47419140D01*
X128718285Y-45990569D01*
X129289714Y-47419140D01*
X129861142Y-45419140D01*
X132146857Y-47276283D02*
X131861142Y-47419140D01*
X131289714Y-47419140D01*
X131004000Y-47276283D01*
X130861142Y-46990569D01*
X130861142Y-45847712D01*
X131004000Y-45561998D01*
X131289714Y-45419140D01*
X131861142Y-45419140D01*
X132146857Y-45561998D01*
X132289714Y-45847712D01*
X132289714Y-46133426D01*
X130861142Y-46419140D01*
X133575428Y-47419140D02*
X133575428Y-45419140D01*
X133575428Y-45990569D02*
X133718285Y-45704855D01*
X133861142Y-45561998D01*
X134146857Y-45419140D01*
X134432571Y-45419140D01*
X135432571Y-47419140D02*
X135432571Y-44419140D01*
X135718285Y-46276283D02*
X136575428Y-47419140D01*
X136575428Y-45419140D02*
X135432571Y-46561998D01*
D10*
X61059571Y-40073140D02*
X62202428Y-40073140D01*
X61631000Y-40644569D02*
X61631000Y-39501712D01*
X130321000Y-188410998D02*
X130321000Y-182390998D01*
X130321000Y-182390998D02*
X125021000Y-182390998D01*
X125021000Y-182390998D02*
X125021000Y-188410998D01*
X125021000Y-188410998D02*
X130321000Y-188410998D01*
X130611000Y-187380998D02*
X130611000Y-183380998D01*
X128941000Y-182390998D02*
X128941000Y-183390998D01*
X128941000Y-183390998D02*
X126401000Y-183390998D01*
X126401000Y-183390998D02*
X126401000Y-182390998D01*
X128941000Y-183390998D02*
X128691000Y-183920998D01*
X128691000Y-183920998D02*
X126651000Y-183920998D01*
X126651000Y-183920998D02*
X126401000Y-183390998D01*
X128691000Y-182390998D02*
X128691000Y-183390998D01*
X126651000Y-182390998D02*
X126651000Y-183390998D01*
X129741000Y-188410998D02*
X129741000Y-187810998D01*
X129741000Y-187810998D02*
X128141000Y-187810998D01*
X128141000Y-187810998D02*
X128141000Y-188410998D01*
X127201000Y-188410998D02*
X127201000Y-187810998D01*
X127201000Y-187810998D02*
X125601000Y-187810998D01*
X125601000Y-187810998D02*
X125601000Y-188410998D01*
X134426000Y-50965998D02*
X134426000Y-51565998D01*
X123226000Y-50965998D02*
X134426000Y-50965998D01*
X112026000Y-50965998D02*
X112026000Y-51265998D01*
X123326000Y-50965998D02*
X112026000Y-50965998D01*
X134426000Y-54365998D02*
X134426000Y-53665998D01*
X123226000Y-54365998D02*
X134426000Y-54365998D01*
X134426000Y-51465998D02*
X134426000Y-51665998D01*
X112026000Y-54365998D02*
X112026000Y-54065998D01*
X123226000Y-54365998D02*
X112026000Y-54365998D01*
X114526000Y-50965998D02*
X114526000Y-51665998D01*
X114526000Y-54365998D02*
X114526000Y-53665998D01*
X103946000Y-50965998D02*
X103946000Y-51565998D01*
X92746000Y-50965998D02*
X103946000Y-50965998D01*
X81546000Y-50965998D02*
X81546000Y-51265998D01*
X92846000Y-50965998D02*
X81546000Y-50965998D01*
X103946000Y-54365998D02*
X103946000Y-53665998D01*
X92746000Y-54365998D02*
X103946000Y-54365998D01*
X103946000Y-51465998D02*
X103946000Y-51665998D01*
X81546000Y-54365998D02*
X81546000Y-54065998D01*
X92746000Y-54365998D02*
X81546000Y-54365998D01*
X84046000Y-50965998D02*
X84046000Y-51665998D01*
X84046000Y-54365998D02*
X84046000Y-53665998D01*
X71756000Y-35955998D02*
X71756000Y-38895998D01*
X71996000Y-35955998D02*
X71996000Y-38895998D01*
X71876000Y-35955998D02*
X71876000Y-38895998D01*
X77636000Y-37425998D02*
X76416000Y-37425998D01*
X69756000Y-37425998D02*
X70976000Y-37425998D01*
X76416000Y-35955998D02*
X70976000Y-35955998D01*
X76416000Y-38895998D02*
X76416000Y-35955998D01*
X70976000Y-38895998D02*
X76416000Y-38895998D01*
X70976000Y-35955998D02*
X70976000Y-38895998D01*
X87771000Y-40545998D02*
X91371000Y-40545998D01*
X91895184Y-39818793D02*
G75*
G02*
X91371000Y-40545998I-2324184J1122795D01*
G01*
X91927400Y-37597191D02*
G75*
G03*
X89571000Y-36095998I-2356400J-1098807D01*
G01*
X87214600Y-37597191D02*
G75*
G02*
X89571000Y-36095998I2356400J-1098807D01*
G01*
X87246816Y-39818793D02*
G75*
G03*
X87771000Y-40545998I2324184J1122795D01*
G01*
X74501000Y-89375998D02*
X64001000Y-89375998D01*
X74501000Y-109935998D02*
X74501000Y-89375998D01*
X64001000Y-109935998D02*
X74501000Y-109935998D01*
X64001000Y-89375998D02*
X64001000Y-109935998D01*
X71501000Y-89435998D02*
X70251000Y-89435998D01*
X71501000Y-109875998D02*
X71501000Y-89435998D01*
X67001000Y-109875998D02*
X71501000Y-109875998D01*
X67001000Y-89435998D02*
X67001000Y-109875998D01*
X68251000Y-89435998D02*
X67001000Y-89435998D01*
X70251000Y-89435998D02*
G75*
G02*
X68251000Y-89435998I-1000000J0D01*
G01*
X74501000Y-63340998D02*
X64001000Y-63340998D01*
X74501000Y-83900998D02*
X74501000Y-63340998D01*
X64001000Y-83900998D02*
X74501000Y-83900998D01*
X64001000Y-63340998D02*
X64001000Y-83900998D01*
X71501000Y-63400998D02*
X70251000Y-63400998D01*
X71501000Y-83840998D02*
X71501000Y-63400998D01*
X67001000Y-83840998D02*
X71501000Y-83840998D01*
X67001000Y-63400998D02*
X67001000Y-83840998D01*
X68251000Y-63400998D02*
X67001000Y-63400998D01*
X70251000Y-63400998D02*
G75*
G02*
X68251000Y-63400998I-1000000J0D01*
G01*
X70641000Y-58550998D02*
X70641000Y-48050998D01*
X50081000Y-58550998D02*
X70641000Y-58550998D01*
X50081000Y-48050998D02*
X50081000Y-58550998D01*
X70641000Y-48050998D02*
X50081000Y-48050998D01*
X70581000Y-55550998D02*
X70581000Y-54300998D01*
X50141000Y-55550998D02*
X70581000Y-55550998D01*
X50141000Y-51050998D02*
X50141000Y-55550998D01*
X70581000Y-51050998D02*
X50141000Y-51050998D01*
X70581000Y-52300998D02*
X70581000Y-51050998D01*
X70581000Y-54300998D02*
G75*
G02*
X70581000Y-52300998I0J1000000D01*
G01*
X113581000Y-128060998D02*
X113581000Y-138560998D01*
X139221000Y-128060998D02*
X113581000Y-128060998D01*
X139221000Y-138560998D02*
X139221000Y-128060998D01*
X113581000Y-138560998D02*
X139221000Y-138560998D01*
X113641000Y-131060998D02*
X113641000Y-132310998D01*
X139161000Y-131060998D02*
X113641000Y-131060998D01*
X139161000Y-135560998D02*
X139161000Y-131060998D01*
X113641000Y-135560998D02*
X139161000Y-135560998D01*
X113641000Y-134310998D02*
X113641000Y-135560998D01*
X113641000Y-132310998D02*
G75*
G02*
X113641000Y-134310998I0J-1000000D01*
G01*
X81831000Y-128060998D02*
X81831000Y-138560998D01*
X107471000Y-128060998D02*
X81831000Y-128060998D01*
X107471000Y-138560998D02*
X107471000Y-128060998D01*
X81831000Y-138560998D02*
X107471000Y-138560998D01*
X81891000Y-131060998D02*
X81891000Y-132310998D01*
X107411000Y-131060998D02*
X81891000Y-131060998D01*
X107411000Y-135560998D02*
X107411000Y-131060998D01*
X81891000Y-135560998D02*
X107411000Y-135560998D01*
X81891000Y-134310998D02*
X81891000Y-135560998D01*
X81891000Y-132310998D02*
G75*
G02*
X81891000Y-134310998I0J-1000000D01*
G01*
X132216000Y-165600998D02*
X129476000Y-165600998D01*
X129476000Y-165600998D02*
X129476000Y-172140998D01*
X129476000Y-172140998D02*
X132216000Y-172140998D01*
X132216000Y-172140998D02*
X132216000Y-165600998D01*
X130846000Y-164830998D02*
X130846000Y-165600998D01*
X130846000Y-172910998D02*
X130846000Y-172140998D01*
X127136000Y-165600998D02*
X124396000Y-165600998D01*
X124396000Y-165600998D02*
X124396000Y-172140998D01*
X124396000Y-172140998D02*
X127136000Y-172140998D01*
X127136000Y-172140998D02*
X127136000Y-165600998D01*
X125766000Y-164830998D02*
X125766000Y-165600998D01*
X125766000Y-172910998D02*
X125766000Y-172140998D01*
X122056000Y-165600998D02*
X119316000Y-165600998D01*
X119316000Y-165600998D02*
X119316000Y-172140998D01*
X119316000Y-172140998D02*
X122056000Y-172140998D01*
X122056000Y-172140998D02*
X122056000Y-165600998D01*
X120686000Y-164830998D02*
X120686000Y-165600998D01*
X120686000Y-172910998D02*
X120686000Y-172140998D01*
X116976000Y-165600998D02*
X114236000Y-165600998D01*
X114236000Y-165600998D02*
X114236000Y-172140998D01*
X114236000Y-172140998D02*
X116976000Y-172140998D01*
X116976000Y-172140998D02*
X116976000Y-165600998D01*
X115606000Y-164830998D02*
X115606000Y-165600998D01*
X115606000Y-172910998D02*
X115606000Y-172140998D01*
X111896000Y-165600998D02*
X109156000Y-165600998D01*
X109156000Y-165600998D02*
X109156000Y-172140998D01*
X109156000Y-172140998D02*
X111896000Y-172140998D01*
X111896000Y-172140998D02*
X111896000Y-165600998D01*
X110526000Y-164830998D02*
X110526000Y-165600998D01*
X110526000Y-172910998D02*
X110526000Y-172140998D01*
X106816000Y-165600998D02*
X104076000Y-165600998D01*
X104076000Y-165600998D02*
X104076000Y-172140998D01*
X104076000Y-172140998D02*
X106816000Y-172140998D01*
X106816000Y-172140998D02*
X106816000Y-165600998D01*
X105446000Y-164830998D02*
X105446000Y-165600998D01*
X105446000Y-172910998D02*
X105446000Y-172140998D01*
X101736000Y-165600998D02*
X98996000Y-165600998D01*
X98996000Y-165600998D02*
X98996000Y-172140998D01*
X98996000Y-172140998D02*
X101736000Y-172140998D01*
X101736000Y-172140998D02*
X101736000Y-165600998D01*
X100366000Y-164830998D02*
X100366000Y-165600998D01*
X100366000Y-172910998D02*
X100366000Y-172140998D01*
X96656000Y-165600998D02*
X93916000Y-165600998D01*
X93916000Y-165600998D02*
X93916000Y-172140998D01*
X93916000Y-172140998D02*
X96656000Y-172140998D01*
X96656000Y-172140998D02*
X96656000Y-165600998D01*
X95286000Y-164830998D02*
X95286000Y-165600998D01*
X95286000Y-172910998D02*
X95286000Y-172140998D01*
X91576000Y-165600998D02*
X88836000Y-165600998D01*
X88836000Y-165600998D02*
X88836000Y-172140998D01*
X88836000Y-172140998D02*
X91576000Y-172140998D01*
X91576000Y-172140998D02*
X91576000Y-165600998D01*
X90206000Y-164830998D02*
X90206000Y-165600998D01*
X90206000Y-172910998D02*
X90206000Y-172140998D01*
X86496000Y-165600998D02*
X83756000Y-165600998D01*
X83756000Y-165600998D02*
X83756000Y-172140998D01*
X83756000Y-172140998D02*
X86496000Y-172140998D01*
X86496000Y-172140998D02*
X86496000Y-165600998D01*
X85126000Y-164830998D02*
X85126000Y-165600998D01*
X85126000Y-172910998D02*
X85126000Y-172140998D01*
X81416000Y-165600998D02*
X78676000Y-165600998D01*
X78676000Y-165600998D02*
X78676000Y-172140998D01*
X78676000Y-172140998D02*
X81416000Y-172140998D01*
X81416000Y-172140998D02*
X81416000Y-165600998D01*
X80046000Y-164830998D02*
X80046000Y-165600998D01*
X80046000Y-172910998D02*
X80046000Y-172140998D01*
X76336000Y-165600998D02*
X73596000Y-165600998D01*
X73596000Y-165600998D02*
X73596000Y-172140998D01*
X73596000Y-172140998D02*
X76336000Y-172140998D01*
X76336000Y-172140998D02*
X76336000Y-165600998D01*
X74966000Y-164830998D02*
X74966000Y-165600998D01*
X74966000Y-172910998D02*
X74966000Y-172140998D01*
X71256000Y-165600998D02*
X68516000Y-165600998D01*
X68516000Y-165600998D02*
X68516000Y-172140998D01*
X68516000Y-172140998D02*
X71256000Y-172140998D01*
X71256000Y-172140998D02*
X71256000Y-165600998D01*
X69886000Y-164830998D02*
X69886000Y-165600998D01*
X69886000Y-172910998D02*
X69886000Y-172140998D01*
X66176000Y-165600998D02*
X63436000Y-165600998D01*
X63436000Y-165600998D02*
X63436000Y-172140998D01*
X63436000Y-172140998D02*
X66176000Y-172140998D01*
X66176000Y-172140998D02*
X66176000Y-165600998D01*
X64806000Y-164830998D02*
X64806000Y-165600998D01*
X64806000Y-172910998D02*
X64806000Y-172140998D01*
X61096000Y-165600998D02*
X58356000Y-165600998D01*
X58356000Y-165600998D02*
X58356000Y-172140998D01*
X58356000Y-172140998D02*
X61096000Y-172140998D01*
X61096000Y-172140998D02*
X61096000Y-165600998D01*
X59726000Y-164830998D02*
X59726000Y-165600998D01*
X59726000Y-172910998D02*
X59726000Y-172140998D01*
X56016000Y-165600998D02*
X53276000Y-165600998D01*
X53276000Y-165600998D02*
X53276000Y-172140998D01*
X53276000Y-172140998D02*
X56016000Y-172140998D01*
X56016000Y-172140998D02*
X56016000Y-165600998D01*
X54646000Y-164830998D02*
X54646000Y-165600998D01*
X54646000Y-172910998D02*
X54646000Y-172140998D01*
X54746000Y-135120998D02*
X52006000Y-135120998D01*
X52006000Y-135120998D02*
X52006000Y-141660998D01*
X52006000Y-141660998D02*
X54746000Y-141660998D01*
X54746000Y-141660998D02*
X54746000Y-135120998D01*
X53376000Y-134350998D02*
X53376000Y-135120998D01*
X53376000Y-142430998D02*
X53376000Y-141660998D01*
X74431000Y-135120998D02*
X71691000Y-135120998D01*
X71691000Y-135120998D02*
X71691000Y-141660998D01*
X71691000Y-141660998D02*
X74431000Y-141660998D01*
X74431000Y-141660998D02*
X74431000Y-135120998D01*
X73061000Y-134350998D02*
X73061000Y-135120998D01*
X73061000Y-142430998D02*
X73061000Y-141660998D01*
X69351000Y-135120998D02*
X66611000Y-135120998D01*
X66611000Y-135120998D02*
X66611000Y-141660998D01*
X66611000Y-141660998D02*
X69351000Y-141660998D01*
X69351000Y-141660998D02*
X69351000Y-135120998D01*
X67981000Y-134350998D02*
X67981000Y-135120998D01*
X67981000Y-142430998D02*
X67981000Y-141660998D01*
X64271000Y-135120998D02*
X61531000Y-135120998D01*
X61531000Y-135120998D02*
X61531000Y-141660998D01*
X61531000Y-141660998D02*
X64271000Y-141660998D01*
X64271000Y-141660998D02*
X64271000Y-135120998D01*
X62901000Y-134350998D02*
X62901000Y-135120998D01*
X62901000Y-142430998D02*
X62901000Y-141660998D01*
X59191000Y-135120998D02*
X56451000Y-135120998D01*
X56451000Y-135120998D02*
X56451000Y-141660998D01*
X56451000Y-141660998D02*
X59191000Y-141660998D01*
X59191000Y-141660998D02*
X59191000Y-135120998D01*
X57821000Y-134350998D02*
X57821000Y-135120998D01*
X57821000Y-142430998D02*
X57821000Y-141660998D01*
X85226000Y-39235998D02*
X82486000Y-39235998D01*
X82486000Y-39235998D02*
X82486000Y-45775998D01*
X82486000Y-45775998D02*
X85226000Y-45775998D01*
X85226000Y-45775998D02*
X85226000Y-39235998D01*
X83856000Y-38465998D02*
X83856000Y-39235998D01*
X83856000Y-46545998D02*
X83856000Y-45775998D01*
X96656000Y-39235998D02*
X93916000Y-39235998D01*
X93916000Y-39235998D02*
X93916000Y-45775998D01*
X93916000Y-45775998D02*
X96656000Y-45775998D01*
X96656000Y-45775998D02*
X96656000Y-39235998D01*
X95286000Y-38465998D02*
X95286000Y-39235998D01*
X95286000Y-46545998D02*
X95286000Y-45775998D01*
X66386000Y-38675998D02*
G75*
G03*
X66386000Y-38675998I-4120000J0D01*
G01*
X66346000Y-38675998D02*
X58186000Y-38675998D01*
X66346000Y-38715998D02*
X58186000Y-38715998D01*
X66346000Y-38755998D02*
X58186000Y-38755998D01*
X66345000Y-38795998D02*
X58187000Y-38795998D01*
X66343000Y-38835998D02*
X58189000Y-38835998D01*
X66342000Y-38875998D02*
X58190000Y-38875998D01*
X66340000Y-38915998D02*
X63306000Y-38915998D01*
X61226000Y-38915998D02*
X58192000Y-38915998D01*
X66337000Y-38955998D02*
X63306000Y-38955998D01*
X61226000Y-38955998D02*
X58195000Y-38955998D01*
X66334000Y-38995998D02*
X63306000Y-38995998D01*
X61226000Y-38995998D02*
X58198000Y-38995998D01*
X66331000Y-39035998D02*
X63306000Y-39035998D01*
X61226000Y-39035998D02*
X58201000Y-39035998D01*
X66327000Y-39075998D02*
X63306000Y-39075998D01*
X61226000Y-39075998D02*
X58205000Y-39075998D01*
X66323000Y-39115998D02*
X63306000Y-39115998D01*
X61226000Y-39115998D02*
X58209000Y-39115998D01*
X66318000Y-39155998D02*
X63306000Y-39155998D01*
X61226000Y-39155998D02*
X58214000Y-39155998D01*
X66314000Y-39195998D02*
X63306000Y-39195998D01*
X61226000Y-39195998D02*
X58218000Y-39195998D01*
X66308000Y-39235998D02*
X63306000Y-39235998D01*
X61226000Y-39235998D02*
X58224000Y-39235998D01*
X66303000Y-39275998D02*
X63306000Y-39275998D01*
X61226000Y-39275998D02*
X58229000Y-39275998D01*
X66296000Y-39315998D02*
X63306000Y-39315998D01*
X61226000Y-39315998D02*
X58236000Y-39315998D01*
X66290000Y-39355998D02*
X63306000Y-39355998D01*
X61226000Y-39355998D02*
X58242000Y-39355998D01*
X66283000Y-39396998D02*
X63306000Y-39396998D01*
X61226000Y-39396998D02*
X58249000Y-39396998D01*
X66276000Y-39436998D02*
X63306000Y-39436998D01*
X61226000Y-39436998D02*
X58256000Y-39436998D01*
X66268000Y-39476998D02*
X63306000Y-39476998D01*
X61226000Y-39476998D02*
X58264000Y-39476998D01*
X66260000Y-39516998D02*
X63306000Y-39516998D01*
X61226000Y-39516998D02*
X58272000Y-39516998D01*
X66251000Y-39556998D02*
X63306000Y-39556998D01*
X61226000Y-39556998D02*
X58281000Y-39556998D01*
X66242000Y-39596998D02*
X63306000Y-39596998D01*
X61226000Y-39596998D02*
X58290000Y-39596998D01*
X66233000Y-39636998D02*
X63306000Y-39636998D01*
X61226000Y-39636998D02*
X58299000Y-39636998D01*
X66223000Y-39676998D02*
X63306000Y-39676998D01*
X61226000Y-39676998D02*
X58309000Y-39676998D01*
X66213000Y-39716998D02*
X63306000Y-39716998D01*
X61226000Y-39716998D02*
X58319000Y-39716998D01*
X66202000Y-39756998D02*
X63306000Y-39756998D01*
X61226000Y-39756998D02*
X58330000Y-39756998D01*
X66191000Y-39796998D02*
X63306000Y-39796998D01*
X61226000Y-39796998D02*
X58341000Y-39796998D01*
X66180000Y-39836998D02*
X63306000Y-39836998D01*
X61226000Y-39836998D02*
X58352000Y-39836998D01*
X66168000Y-39876998D02*
X63306000Y-39876998D01*
X61226000Y-39876998D02*
X58364000Y-39876998D01*
X66155000Y-39916998D02*
X63306000Y-39916998D01*
X61226000Y-39916998D02*
X58377000Y-39916998D01*
X66143000Y-39956998D02*
X63306000Y-39956998D01*
X61226000Y-39956998D02*
X58389000Y-39956998D01*
X66129000Y-39996998D02*
X63306000Y-39996998D01*
X61226000Y-39996998D02*
X58403000Y-39996998D01*
X66116000Y-40036998D02*
X63306000Y-40036998D01*
X61226000Y-40036998D02*
X58416000Y-40036998D01*
X66101000Y-40076998D02*
X63306000Y-40076998D01*
X61226000Y-40076998D02*
X58431000Y-40076998D01*
X66087000Y-40116998D02*
X63306000Y-40116998D01*
X61226000Y-40116998D02*
X58445000Y-40116998D01*
X66071000Y-40156998D02*
X63306000Y-40156998D01*
X61226000Y-40156998D02*
X58461000Y-40156998D01*
X66056000Y-40196998D02*
X63306000Y-40196998D01*
X61226000Y-40196998D02*
X58476000Y-40196998D01*
X66040000Y-40236998D02*
X63306000Y-40236998D01*
X61226000Y-40236998D02*
X58492000Y-40236998D01*
X66023000Y-40276998D02*
X63306000Y-40276998D01*
X61226000Y-40276998D02*
X58509000Y-40276998D01*
X66006000Y-40316998D02*
X63306000Y-40316998D01*
X61226000Y-40316998D02*
X58526000Y-40316998D01*
X65988000Y-40356998D02*
X63306000Y-40356998D01*
X61226000Y-40356998D02*
X58544000Y-40356998D01*
X65970000Y-40396998D02*
X63306000Y-40396998D01*
X61226000Y-40396998D02*
X58562000Y-40396998D01*
X65952000Y-40436998D02*
X63306000Y-40436998D01*
X61226000Y-40436998D02*
X58580000Y-40436998D01*
X65932000Y-40476998D02*
X63306000Y-40476998D01*
X61226000Y-40476998D02*
X58600000Y-40476998D01*
X65913000Y-40516998D02*
X63306000Y-40516998D01*
X61226000Y-40516998D02*
X58619000Y-40516998D01*
X65893000Y-40556998D02*
X63306000Y-40556998D01*
X61226000Y-40556998D02*
X58639000Y-40556998D01*
X65872000Y-40596998D02*
X63306000Y-40596998D01*
X61226000Y-40596998D02*
X58660000Y-40596998D01*
X65850000Y-40636998D02*
X63306000Y-40636998D01*
X61226000Y-40636998D02*
X58682000Y-40636998D01*
X65828000Y-40676998D02*
X63306000Y-40676998D01*
X61226000Y-40676998D02*
X58704000Y-40676998D01*
X65806000Y-40716998D02*
X63306000Y-40716998D01*
X61226000Y-40716998D02*
X58726000Y-40716998D01*
X65783000Y-40756998D02*
X63306000Y-40756998D01*
X61226000Y-40756998D02*
X58749000Y-40756998D01*
X65759000Y-40796998D02*
X63306000Y-40796998D01*
X61226000Y-40796998D02*
X58773000Y-40796998D01*
X65735000Y-40836998D02*
X63306000Y-40836998D01*
X61226000Y-40836998D02*
X58797000Y-40836998D01*
X65710000Y-40876998D02*
X63306000Y-40876998D01*
X61226000Y-40876998D02*
X58822000Y-40876998D01*
X65684000Y-40916998D02*
X63306000Y-40916998D01*
X61226000Y-40916998D02*
X58848000Y-40916998D01*
X65658000Y-40956998D02*
X63306000Y-40956998D01*
X61226000Y-40956998D02*
X58874000Y-40956998D01*
X65631000Y-40996998D02*
X58901000Y-40996998D01*
X65604000Y-41036998D02*
X58928000Y-41036998D01*
X65575000Y-41076998D02*
X58957000Y-41076998D01*
X65546000Y-41116998D02*
X58986000Y-41116998D01*
X65516000Y-41156998D02*
X59016000Y-41156998D01*
X65486000Y-41196998D02*
X59046000Y-41196998D01*
X65455000Y-41236998D02*
X59077000Y-41236998D01*
X65422000Y-41276998D02*
X59110000Y-41276998D01*
X65390000Y-41316998D02*
X59142000Y-41316998D01*
X65356000Y-41356998D02*
X59176000Y-41356998D01*
X65321000Y-41396998D02*
X59211000Y-41396998D01*
X65285000Y-41436998D02*
X59247000Y-41436998D01*
X65249000Y-41476998D02*
X59283000Y-41476998D01*
X65211000Y-41516998D02*
X59321000Y-41516998D01*
X65173000Y-41556998D02*
X59359000Y-41556998D01*
X65133000Y-41596998D02*
X59399000Y-41596998D01*
X65092000Y-41636998D02*
X59440000Y-41636998D01*
X65050000Y-41676998D02*
X59482000Y-41676998D01*
X65007000Y-41716998D02*
X59525000Y-41716998D01*
X64963000Y-41756998D02*
X59569000Y-41756998D01*
X64917000Y-41796998D02*
X59615000Y-41796998D01*
X64870000Y-41836998D02*
X59662000Y-41836998D01*
X64822000Y-41876998D02*
X59710000Y-41876998D01*
X64771000Y-41916998D02*
X59761000Y-41916998D01*
X64720000Y-41956998D02*
X59812000Y-41956998D01*
X64666000Y-41996998D02*
X59866000Y-41996998D01*
X64611000Y-42036998D02*
X59921000Y-42036998D01*
X64553000Y-42076998D02*
X59979000Y-42076998D01*
X64494000Y-42116998D02*
X60038000Y-42116998D01*
X64432000Y-42156998D02*
X60100000Y-42156998D01*
X64368000Y-42196998D02*
X60164000Y-42196998D01*
X64300000Y-42236998D02*
X60232000Y-42236998D01*
X64230000Y-42276998D02*
X60302000Y-42276998D01*
X64156000Y-42316998D02*
X60376000Y-42316998D01*
X64079000Y-42356998D02*
X60453000Y-42356998D01*
X63997000Y-42396998D02*
X60535000Y-42396998D01*
X63911000Y-42436998D02*
X60621000Y-42436998D01*
X63818000Y-42476998D02*
X60714000Y-42476998D01*
X63719000Y-42516998D02*
X60813000Y-42516998D01*
X63612000Y-42556998D02*
X60920000Y-42556998D01*
X63495000Y-42596998D02*
X61037000Y-42596998D01*
X63364000Y-42636998D02*
X61168000Y-42636998D01*
X63214000Y-42676998D02*
X61318000Y-42676998D01*
X63034000Y-42716998D02*
X61498000Y-42716998D01*
X62799000Y-42756998D02*
X61733000Y-42756998D01*
X64581000Y-34266300D02*
X64581000Y-35066300D01*
X64981000Y-34666300D02*
X64181000Y-34666300D01*
X60962000Y-176200998D02*
X60806000Y-176200998D01*
X58646000Y-176200998D02*
X58490000Y-176200998D01*
X58646163Y-178802128D02*
G75*
G02*
X58646000Y-176720037I1079837J1041130D01*
G01*
X60805837Y-178802128D02*
G75*
G03*
X60806000Y-176720037I-1079837J1041130D01*
G01*
X58647392Y-179433333D02*
G75*
G02*
X58490484Y-176200998I1078608J1672335D01*
G01*
X60804608Y-179433333D02*
G75*
G03*
X60961516Y-176200998I-1078608J1672335D01*
G01*
X55882000Y-176200998D02*
X55726000Y-176200998D01*
X53566000Y-176200998D02*
X53410000Y-176200998D01*
X53566163Y-178802128D02*
G75*
G02*
X53566000Y-176720037I1079837J1041130D01*
G01*
X55725837Y-178802128D02*
G75*
G03*
X55726000Y-176720037I-1079837J1041130D01*
G01*
X53567392Y-179433333D02*
G75*
G02*
X53410484Y-176200998I1078608J1672335D01*
G01*
X55724608Y-179433333D02*
G75*
G03*
X55881516Y-176200998I-1078608J1672335D01*
G01*
X45722000Y-176200998D02*
X45566000Y-176200998D01*
X43406000Y-176200998D02*
X43250000Y-176200998D01*
X43406163Y-178802128D02*
G75*
G02*
X43406000Y-176720037I1079837J1041130D01*
G01*
X45565837Y-178802128D02*
G75*
G03*
X45566000Y-176720037I-1079837J1041130D01*
G01*
X43407392Y-179433333D02*
G75*
G02*
X43250484Y-176200998I1078608J1672335D01*
G01*
X45564608Y-179433333D02*
G75*
G03*
X45721516Y-176200998I-1078608J1672335D01*
G01*
X132082000Y-176200998D02*
X131926000Y-176200998D01*
X129766000Y-176200998D02*
X129610000Y-176200998D01*
X129766163Y-178802128D02*
G75*
G02*
X129766000Y-176720037I1079837J1041130D01*
G01*
X131925837Y-178802128D02*
G75*
G03*
X131926000Y-176720037I-1079837J1041130D01*
G01*
X129767392Y-179433333D02*
G75*
G02*
X129610484Y-176200998I1078608J1672335D01*
G01*
X131924608Y-179433333D02*
G75*
G03*
X132081516Y-176200998I-1078608J1672335D01*
G01*
X127002000Y-176200998D02*
X126846000Y-176200998D01*
X124686000Y-176200998D02*
X124530000Y-176200998D01*
X124686163Y-178802128D02*
G75*
G02*
X124686000Y-176720037I1079837J1041130D01*
G01*
X126845837Y-178802128D02*
G75*
G03*
X126846000Y-176720037I-1079837J1041130D01*
G01*
X124687392Y-179433333D02*
G75*
G02*
X124530484Y-176200998I1078608J1672335D01*
G01*
X126844608Y-179433333D02*
G75*
G03*
X127001516Y-176200998I-1078608J1672335D01*
G01*
X121922000Y-176200998D02*
X121766000Y-176200998D01*
X119606000Y-176200998D02*
X119450000Y-176200998D01*
X119606163Y-178802128D02*
G75*
G02*
X119606000Y-176720037I1079837J1041130D01*
G01*
X121765837Y-178802128D02*
G75*
G03*
X121766000Y-176720037I-1079837J1041130D01*
G01*
X119607392Y-179433333D02*
G75*
G02*
X119450484Y-176200998I1078608J1672335D01*
G01*
X121764608Y-179433333D02*
G75*
G03*
X121921516Y-176200998I-1078608J1672335D01*
G01*
X116842000Y-176200998D02*
X116686000Y-176200998D01*
X114526000Y-176200998D02*
X114370000Y-176200998D01*
X114526163Y-178802128D02*
G75*
G02*
X114526000Y-176720037I1079837J1041130D01*
G01*
X116685837Y-178802128D02*
G75*
G03*
X116686000Y-176720037I-1079837J1041130D01*
G01*
X114527392Y-179433333D02*
G75*
G02*
X114370484Y-176200998I1078608J1672335D01*
G01*
X116684608Y-179433333D02*
G75*
G03*
X116841516Y-176200998I-1078608J1672335D01*
G01*
X111762000Y-176200998D02*
X111606000Y-176200998D01*
X109446000Y-176200998D02*
X109290000Y-176200998D01*
X109446163Y-178802128D02*
G75*
G02*
X109446000Y-176720037I1079837J1041130D01*
G01*
X111605837Y-178802128D02*
G75*
G03*
X111606000Y-176720037I-1079837J1041130D01*
G01*
X109447392Y-179433333D02*
G75*
G02*
X109290484Y-176200998I1078608J1672335D01*
G01*
X111604608Y-179433333D02*
G75*
G03*
X111761516Y-176200998I-1078608J1672335D01*
G01*
X106682000Y-176200998D02*
X106526000Y-176200998D01*
X104366000Y-176200998D02*
X104210000Y-176200998D01*
X104366163Y-178802128D02*
G75*
G02*
X104366000Y-176720037I1079837J1041130D01*
G01*
X106525837Y-178802128D02*
G75*
G03*
X106526000Y-176720037I-1079837J1041130D01*
G01*
X104367392Y-179433333D02*
G75*
G02*
X104210484Y-176200998I1078608J1672335D01*
G01*
X106524608Y-179433333D02*
G75*
G03*
X106681516Y-176200998I-1078608J1672335D01*
G01*
X101602000Y-176200998D02*
X101446000Y-176200998D01*
X99286000Y-176200998D02*
X99130000Y-176200998D01*
X99286163Y-178802128D02*
G75*
G02*
X99286000Y-176720037I1079837J1041130D01*
G01*
X101445837Y-178802128D02*
G75*
G03*
X101446000Y-176720037I-1079837J1041130D01*
G01*
X99287392Y-179433333D02*
G75*
G02*
X99130484Y-176200998I1078608J1672335D01*
G01*
X101444608Y-179433333D02*
G75*
G03*
X101601516Y-176200998I-1078608J1672335D01*
G01*
X96522000Y-176200998D02*
X96366000Y-176200998D01*
X94206000Y-176200998D02*
X94050000Y-176200998D01*
X94206163Y-178802128D02*
G75*
G02*
X94206000Y-176720037I1079837J1041130D01*
G01*
X96365837Y-178802128D02*
G75*
G03*
X96366000Y-176720037I-1079837J1041130D01*
G01*
X94207392Y-179433333D02*
G75*
G02*
X94050484Y-176200998I1078608J1672335D01*
G01*
X96364608Y-179433333D02*
G75*
G03*
X96521516Y-176200998I-1078608J1672335D01*
G01*
X91442000Y-176200998D02*
X91286000Y-176200998D01*
X89126000Y-176200998D02*
X88970000Y-176200998D01*
X89126163Y-178802128D02*
G75*
G02*
X89126000Y-176720037I1079837J1041130D01*
G01*
X91285837Y-178802128D02*
G75*
G03*
X91286000Y-176720037I-1079837J1041130D01*
G01*
X89127392Y-179433333D02*
G75*
G02*
X88970484Y-176200998I1078608J1672335D01*
G01*
X91284608Y-179433333D02*
G75*
G03*
X91441516Y-176200998I-1078608J1672335D01*
G01*
X101670000Y-40255998D02*
X101826000Y-40255998D01*
X103986000Y-40255998D02*
X104142000Y-40255998D01*
X103985837Y-37654868D02*
G75*
G02*
X103986000Y-39736959I-1079837J-1041130D01*
G01*
X101826163Y-37654868D02*
G75*
G03*
X101826000Y-39736959I1079837J-1041130D01*
G01*
X103984608Y-37023663D02*
G75*
G02*
X104141516Y-40255998I-1078608J-1672335D01*
G01*
X101827392Y-37023663D02*
G75*
G03*
X101670484Y-40255998I1078608J-1672335D01*
G01*
X86362000Y-176200998D02*
X86206000Y-176200998D01*
X84046000Y-176200998D02*
X83890000Y-176200998D01*
X84046163Y-178802128D02*
G75*
G02*
X84046000Y-176720037I1079837J1041130D01*
G01*
X86205837Y-178802128D02*
G75*
G03*
X86206000Y-176720037I-1079837J1041130D01*
G01*
X84047392Y-179433333D02*
G75*
G02*
X83890484Y-176200998I1078608J1672335D01*
G01*
X86204608Y-179433333D02*
G75*
G03*
X86361516Y-176200998I-1078608J1672335D01*
G01*
X81282000Y-176200998D02*
X81126000Y-176200998D01*
X78966000Y-176200998D02*
X78810000Y-176200998D01*
X78966163Y-178802128D02*
G75*
G02*
X78966000Y-176720037I1079837J1041130D01*
G01*
X81125837Y-178802128D02*
G75*
G03*
X81126000Y-176720037I-1079837J1041130D01*
G01*
X78967392Y-179433333D02*
G75*
G02*
X78810484Y-176200998I1078608J1672335D01*
G01*
X81124608Y-179433333D02*
G75*
G03*
X81281516Y-176200998I-1078608J1672335D01*
G01*
X74297000Y-145720998D02*
X74141000Y-145720998D01*
X71981000Y-145720998D02*
X71825000Y-145720998D01*
X71981163Y-148322128D02*
G75*
G02*
X71981000Y-146240037I1079837J1041130D01*
G01*
X74140837Y-148322128D02*
G75*
G03*
X74141000Y-146240037I-1079837J1041130D01*
G01*
X71982392Y-148953333D02*
G75*
G02*
X71825484Y-145720998I1078608J1672335D01*
G01*
X74139608Y-148953333D02*
G75*
G03*
X74296516Y-145720998I-1078608J1672335D01*
G01*
X76202000Y-176200998D02*
X76046000Y-176200998D01*
X73886000Y-176200998D02*
X73730000Y-176200998D01*
X73886163Y-178802128D02*
G75*
G02*
X73886000Y-176720037I1079837J1041130D01*
G01*
X76045837Y-178802128D02*
G75*
G03*
X76046000Y-176720037I-1079837J1041130D01*
G01*
X73887392Y-179433333D02*
G75*
G02*
X73730484Y-176200998I1078608J1672335D01*
G01*
X76044608Y-179433333D02*
G75*
G03*
X76201516Y-176200998I-1078608J1672335D01*
G01*
X69217000Y-145720998D02*
X69061000Y-145720998D01*
X66901000Y-145720998D02*
X66745000Y-145720998D01*
X66901163Y-148322128D02*
G75*
G02*
X66901000Y-146240037I1079837J1041130D01*
G01*
X69060837Y-148322128D02*
G75*
G03*
X69061000Y-146240037I-1079837J1041130D01*
G01*
X66902392Y-148953333D02*
G75*
G02*
X66745484Y-145720998I1078608J1672335D01*
G01*
X69059608Y-148953333D02*
G75*
G03*
X69216516Y-145720998I-1078608J1672335D01*
G01*
X71122000Y-176200998D02*
X70966000Y-176200998D01*
X68806000Y-176200998D02*
X68650000Y-176200998D01*
X68806163Y-178802128D02*
G75*
G02*
X68806000Y-176720037I1079837J1041130D01*
G01*
X70965837Y-178802128D02*
G75*
G03*
X70966000Y-176720037I-1079837J1041130D01*
G01*
X68807392Y-179433333D02*
G75*
G02*
X68650484Y-176200998I1078608J1672335D01*
G01*
X70964608Y-179433333D02*
G75*
G03*
X71121516Y-176200998I-1078608J1672335D01*
G01*
X64137000Y-145720998D02*
X63981000Y-145720998D01*
X61821000Y-145720998D02*
X61665000Y-145720998D01*
X61821163Y-148322128D02*
G75*
G02*
X61821000Y-146240037I1079837J1041130D01*
G01*
X63980837Y-148322128D02*
G75*
G03*
X63981000Y-146240037I-1079837J1041130D01*
G01*
X61822392Y-148953333D02*
G75*
G02*
X61665484Y-145720998I1078608J1672335D01*
G01*
X63979608Y-148953333D02*
G75*
G03*
X64136516Y-145720998I-1078608J1672335D01*
G01*
X66042000Y-176200998D02*
X65886000Y-176200998D01*
X63726000Y-176200998D02*
X63570000Y-176200998D01*
X63726163Y-178802128D02*
G75*
G02*
X63726000Y-176720037I1079837J1041130D01*
G01*
X65885837Y-178802128D02*
G75*
G03*
X65886000Y-176720037I-1079837J1041130D01*
G01*
X63727392Y-179433333D02*
G75*
G02*
X63570484Y-176200998I1078608J1672335D01*
G01*
X65884608Y-179433333D02*
G75*
G03*
X66041516Y-176200998I-1078608J1672335D01*
G01*
X59057000Y-145720998D02*
X58901000Y-145720998D01*
X56741000Y-145720998D02*
X56585000Y-145720998D01*
X56741163Y-148322128D02*
G75*
G02*
X56741000Y-146240037I1079837J1041130D01*
G01*
X58900837Y-148322128D02*
G75*
G03*
X58901000Y-146240037I-1079837J1041130D01*
G01*
X56742392Y-148953333D02*
G75*
G02*
X56585484Y-145720998I1078608J1672335D01*
G01*
X58899608Y-148953333D02*
G75*
G03*
X59056516Y-145720998I-1078608J1672335D01*
G01*
X51411000Y-124785998D02*
X51411000Y-126035998D01*
X51411000Y-126035998D02*
X76931000Y-126035998D01*
X76931000Y-126035998D02*
X76931000Y-121535998D01*
X76931000Y-121535998D02*
X51411000Y-121535998D01*
X51411000Y-121535998D02*
X51411000Y-122785998D01*
X51351000Y-129035998D02*
X76991000Y-129035998D01*
X76991000Y-129035998D02*
X76991000Y-118535998D01*
X76991000Y-118535998D02*
X51351000Y-118535998D01*
X51351000Y-118535998D02*
X51351000Y-129035998D01*
X51411000Y-122785998D02*
G75*
G02*
X51411000Y-124785998I0J-1000000D01*
G01*
X74411000Y-62290998D02*
X64171000Y-62290998D01*
X74411000Y-59550998D02*
X64171000Y-59550998D01*
X74411000Y-62290998D02*
X74411000Y-59550998D01*
X64171000Y-62290998D02*
X64171000Y-59550998D01*
X78041000Y-152440998D02*
X78041000Y-142200998D01*
X80781000Y-152440998D02*
X80781000Y-142200998D01*
X78041000Y-152440998D02*
X80781000Y-152440998D01*
X78041000Y-142200998D02*
X80781000Y-142200998D01*
X112531000Y-128150998D02*
X112531000Y-138390998D01*
X109791000Y-128150998D02*
X109791000Y-138390998D01*
X112531000Y-128150998D02*
X109791000Y-128150998D01*
X112531000Y-138390998D02*
X109791000Y-138390998D01*
X50301000Y-118625998D02*
X50301000Y-128865998D01*
X47561000Y-118625998D02*
X47561000Y-128865998D01*
X50301000Y-118625998D02*
X47561000Y-118625998D01*
X50301000Y-128865998D02*
X47561000Y-128865998D01*
X46291000Y-58460998D02*
X46291000Y-48220998D01*
X49031000Y-58460998D02*
X49031000Y-48220998D01*
X46291000Y-58460998D02*
X49031000Y-58460998D01*
X46291000Y-48220998D02*
X49031000Y-48220998D01*
X74411000Y-88325998D02*
X64171000Y-88325998D01*
X74411000Y-85585998D02*
X64171000Y-85585998D01*
X74411000Y-88325998D02*
X74411000Y-85585998D01*
X64171000Y-88325998D02*
X64171000Y-85585998D01*
X109791000Y-152440998D02*
X109791000Y-142200998D01*
X112531000Y-152440998D02*
X112531000Y-142200998D01*
X109791000Y-152440998D02*
X112531000Y-152440998D01*
X109791000Y-142200998D02*
X112531000Y-142200998D01*
X80781000Y-128150998D02*
X80781000Y-138390998D01*
X78041000Y-128150998D02*
X78041000Y-138390998D01*
X80781000Y-128150998D02*
X78041000Y-128150998D01*
X80781000Y-138390998D02*
X78041000Y-138390998D01*
X51996000Y-36935998D02*
X51996000Y-42955998D01*
X51996000Y-42955998D02*
X57296000Y-42955998D01*
X57296000Y-42955998D02*
X57296000Y-36935998D01*
X57296000Y-36935998D02*
X51996000Y-36935998D01*
X51706000Y-37965998D02*
X51706000Y-41965998D01*
X53376000Y-42955998D02*
X53376000Y-41955998D01*
X53376000Y-41955998D02*
X55916000Y-41955998D01*
X55916000Y-41955998D02*
X55916000Y-42955998D01*
X53376000Y-41955998D02*
X53626000Y-41425998D01*
X53626000Y-41425998D02*
X55666000Y-41425998D01*
X55666000Y-41425998D02*
X55916000Y-41955998D01*
X53626000Y-42955998D02*
X53626000Y-41955998D01*
X55666000Y-42955998D02*
X55666000Y-41955998D01*
X52576000Y-36935998D02*
X52576000Y-37535998D01*
X52576000Y-37535998D02*
X54176000Y-37535998D01*
X54176000Y-37535998D02*
X54176000Y-36935998D01*
X55116000Y-36935998D02*
X55116000Y-37535998D01*
X55116000Y-37535998D02*
X56716000Y-37535998D01*
X56716000Y-37535998D02*
X56716000Y-36935998D01*
X45901000Y-165805998D02*
X51921000Y-165805998D01*
X51921000Y-165805998D02*
X51921000Y-157965998D01*
X51921000Y-157965998D02*
X45901000Y-157965998D01*
X45901000Y-157965998D02*
X45901000Y-165805998D01*
X46931000Y-166095998D02*
X50931000Y-166095998D01*
X51921000Y-164425998D02*
X50921000Y-164425998D01*
X50921000Y-164425998D02*
X50921000Y-159345998D01*
X50921000Y-159345998D02*
X51921000Y-159345998D01*
X50921000Y-164425998D02*
X50391000Y-164175998D01*
X50391000Y-164175998D02*
X50391000Y-159595998D01*
X50391000Y-159595998D02*
X50921000Y-159345998D01*
X51921000Y-164175998D02*
X50921000Y-164175998D01*
X51921000Y-159595998D02*
X50921000Y-159595998D01*
X45901000Y-165225998D02*
X46501000Y-165225998D01*
X46501000Y-165225998D02*
X46501000Y-163625998D01*
X46501000Y-163625998D02*
X45901000Y-163625998D01*
X45901000Y-162685998D02*
X46501000Y-162685998D01*
X46501000Y-162685998D02*
X46501000Y-161085998D01*
X46501000Y-161085998D02*
X45901000Y-161085998D01*
X45901000Y-160145998D02*
X46501000Y-160145998D01*
X46501000Y-160145998D02*
X46501000Y-158545998D01*
X46501000Y-158545998D02*
X45901000Y-158545998D01*
X48441000Y-99130998D02*
X54461000Y-99130998D01*
X54461000Y-99130998D02*
X54461000Y-91290998D01*
X54461000Y-91290998D02*
X48441000Y-91290998D01*
X48441000Y-91290998D02*
X48441000Y-99130998D01*
X49471000Y-99420998D02*
X53471000Y-99420998D01*
X54461000Y-97750998D02*
X53461000Y-97750998D01*
X53461000Y-97750998D02*
X53461000Y-92670998D01*
X53461000Y-92670998D02*
X54461000Y-92670998D01*
X53461000Y-97750998D02*
X52931000Y-97500998D01*
X52931000Y-97500998D02*
X52931000Y-92920998D01*
X52931000Y-92920998D02*
X53461000Y-92670998D01*
X54461000Y-97500998D02*
X53461000Y-97500998D01*
X54461000Y-92920998D02*
X53461000Y-92920998D01*
X48441000Y-98550998D02*
X49041000Y-98550998D01*
X49041000Y-98550998D02*
X49041000Y-96950998D01*
X49041000Y-96950998D02*
X48441000Y-96950998D01*
X48441000Y-96010998D02*
X49041000Y-96010998D01*
X49041000Y-96010998D02*
X49041000Y-94410998D01*
X49041000Y-94410998D02*
X48441000Y-94410998D01*
X48441000Y-93470998D02*
X49041000Y-93470998D01*
X49041000Y-93470998D02*
X49041000Y-91870998D01*
X49041000Y-91870998D02*
X48441000Y-91870998D01*
X123391000Y-37535998D02*
X123391000Y-36935998D01*
X121791000Y-37535998D02*
X123391000Y-37535998D01*
X121791000Y-36935998D02*
X121791000Y-37535998D01*
X120851000Y-37535998D02*
X120851000Y-36935998D01*
X119251000Y-37535998D02*
X120851000Y-37535998D01*
X119251000Y-36935998D02*
X119251000Y-37535998D01*
X118311000Y-37535998D02*
X118311000Y-36935998D01*
X116711000Y-37535998D02*
X118311000Y-37535998D01*
X116711000Y-36935998D02*
X116711000Y-37535998D01*
X115771000Y-37535998D02*
X115771000Y-36935998D01*
X114171000Y-37535998D02*
X115771000Y-37535998D01*
X114171000Y-36935998D02*
X114171000Y-37535998D01*
X122341000Y-42955998D02*
X122341000Y-41955998D01*
X115221000Y-42955998D02*
X115221000Y-41955998D01*
X122341000Y-41425998D02*
X122591000Y-41955998D01*
X115221000Y-41425998D02*
X122341000Y-41425998D01*
X114971000Y-41955998D02*
X115221000Y-41425998D01*
X122591000Y-41955998D02*
X122591000Y-42955998D01*
X114971000Y-41955998D02*
X122591000Y-41955998D01*
X114971000Y-42955998D02*
X114971000Y-41955998D01*
X113301000Y-37965998D02*
X113301000Y-41965998D01*
X123971000Y-36935998D02*
X113591000Y-36935998D01*
X123971000Y-42955998D02*
X123971000Y-36935998D01*
X113591000Y-42955998D02*
X123971000Y-42955998D01*
X113591000Y-36935998D02*
X113591000Y-42955998D01*
X139161000Y-146280998D02*
X139161000Y-145030998D01*
X139161000Y-145030998D02*
X113641000Y-145030998D01*
X113641000Y-145030998D02*
X113641000Y-149530998D01*
X113641000Y-149530998D02*
X139161000Y-149530998D01*
X139161000Y-149530998D02*
X139161000Y-148280998D01*
X139221000Y-142030998D02*
X113581000Y-142030998D01*
X113581000Y-142030998D02*
X113581000Y-152530998D01*
X113581000Y-152530998D02*
X139221000Y-152530998D01*
X139221000Y-152530998D02*
X139221000Y-142030998D01*
X139161000Y-148280998D02*
G75*
G02*
X139161000Y-146280998I0J1000000D01*
G01*
X108456000Y-187810998D02*
X108456000Y-188410998D01*
X110056000Y-187810998D02*
X108456000Y-187810998D01*
X110056000Y-188410998D02*
X110056000Y-187810998D01*
X110996000Y-187810998D02*
X110996000Y-188410998D01*
X112596000Y-187810998D02*
X110996000Y-187810998D01*
X112596000Y-188410998D02*
X112596000Y-187810998D01*
X113536000Y-187810998D02*
X113536000Y-188410998D01*
X115136000Y-187810998D02*
X113536000Y-187810998D01*
X115136000Y-188410998D02*
X115136000Y-187810998D01*
X116076000Y-187810998D02*
X116076000Y-188410998D01*
X117676000Y-187810998D02*
X116076000Y-187810998D01*
X117676000Y-188410998D02*
X117676000Y-187810998D01*
X109506000Y-182390998D02*
X109506000Y-183390998D01*
X116626000Y-182390998D02*
X116626000Y-183390998D01*
X109506000Y-183920998D02*
X109256000Y-183390998D01*
X116626000Y-183920998D02*
X109506000Y-183920998D01*
X116876000Y-183390998D02*
X116626000Y-183920998D01*
X109256000Y-183390998D02*
X109256000Y-182390998D01*
X116876000Y-183390998D02*
X109256000Y-183390998D01*
X116876000Y-182390998D02*
X116876000Y-183390998D01*
X118546000Y-187380998D02*
X118546000Y-183380998D01*
X107876000Y-188410998D02*
X118256000Y-188410998D01*
X107876000Y-182390998D02*
X107876000Y-188410998D01*
X118256000Y-182390998D02*
X107876000Y-182390998D01*
X118256000Y-188410998D02*
X118256000Y-182390998D01*
X95756000Y-187810998D02*
X95756000Y-188410998D01*
X97356000Y-187810998D02*
X95756000Y-187810998D01*
X97356000Y-188410998D02*
X97356000Y-187810998D01*
X98296000Y-187810998D02*
X98296000Y-188410998D01*
X99896000Y-187810998D02*
X98296000Y-187810998D01*
X99896000Y-188410998D02*
X99896000Y-187810998D01*
X96806000Y-182390998D02*
X96806000Y-183390998D01*
X98846000Y-182390998D02*
X98846000Y-183390998D01*
X96806000Y-183920998D02*
X96556000Y-183390998D01*
X98846000Y-183920998D02*
X96806000Y-183920998D01*
X99096000Y-183390998D02*
X98846000Y-183920998D01*
X96556000Y-183390998D02*
X96556000Y-182390998D01*
X99096000Y-183390998D02*
X96556000Y-183390998D01*
X99096000Y-182390998D02*
X99096000Y-183390998D01*
X100766000Y-187380998D02*
X100766000Y-183380998D01*
X95176000Y-188410998D02*
X100476000Y-188410998D01*
X95176000Y-182390998D02*
X95176000Y-188410998D01*
X100476000Y-182390998D02*
X95176000Y-182390998D01*
X100476000Y-188410998D02*
X100476000Y-182390998D01*
X77976000Y-187810998D02*
X77976000Y-188410998D01*
X79576000Y-187810998D02*
X77976000Y-187810998D01*
X79576000Y-188410998D02*
X79576000Y-187810998D01*
X80516000Y-187810998D02*
X80516000Y-188410998D01*
X82116000Y-187810998D02*
X80516000Y-187810998D01*
X82116000Y-188410998D02*
X82116000Y-187810998D01*
X83056000Y-187810998D02*
X83056000Y-188410998D01*
X84656000Y-187810998D02*
X83056000Y-187810998D01*
X84656000Y-188410998D02*
X84656000Y-187810998D01*
X85596000Y-187810998D02*
X85596000Y-188410998D01*
X87196000Y-187810998D02*
X85596000Y-187810998D01*
X87196000Y-188410998D02*
X87196000Y-187810998D01*
X79026000Y-182390998D02*
X79026000Y-183390998D01*
X86146000Y-182390998D02*
X86146000Y-183390998D01*
X79026000Y-183920998D02*
X78776000Y-183390998D01*
X86146000Y-183920998D02*
X79026000Y-183920998D01*
X86396000Y-183390998D02*
X86146000Y-183920998D01*
X78776000Y-183390998D02*
X78776000Y-182390998D01*
X86396000Y-183390998D02*
X78776000Y-183390998D01*
X86396000Y-182390998D02*
X86396000Y-183390998D01*
X88066000Y-187380998D02*
X88066000Y-183380998D01*
X77396000Y-188410998D02*
X87776000Y-188410998D01*
X77396000Y-182390998D02*
X77396000Y-188410998D01*
X87776000Y-182390998D02*
X77396000Y-182390998D01*
X87776000Y-188410998D02*
X87776000Y-182390998D01*
X65276000Y-187810998D02*
X65276000Y-188410998D01*
X66876000Y-187810998D02*
X65276000Y-187810998D01*
X66876000Y-188410998D02*
X66876000Y-187810998D01*
X67816000Y-187810998D02*
X67816000Y-188410998D01*
X69416000Y-187810998D02*
X67816000Y-187810998D01*
X69416000Y-188410998D02*
X69416000Y-187810998D01*
X66326000Y-182390998D02*
X66326000Y-183390998D01*
X68366000Y-182390998D02*
X68366000Y-183390998D01*
X66326000Y-183920998D02*
X66076000Y-183390998D01*
X68366000Y-183920998D02*
X66326000Y-183920998D01*
X68616000Y-183390998D02*
X68366000Y-183920998D01*
X66076000Y-183390998D02*
X66076000Y-182390998D01*
X68616000Y-183390998D02*
X66076000Y-183390998D01*
X68616000Y-182390998D02*
X68616000Y-183390998D01*
X70286000Y-187380998D02*
X70286000Y-183380998D01*
X64696000Y-188410998D02*
X69996000Y-188410998D01*
X64696000Y-182390998D02*
X64696000Y-188410998D01*
X69996000Y-182390998D02*
X64696000Y-182390998D01*
X69996000Y-188410998D02*
X69996000Y-182390998D01*
X107411000Y-146280998D02*
X107411000Y-145030998D01*
X107411000Y-145030998D02*
X81891000Y-145030998D01*
X81891000Y-145030998D02*
X81891000Y-149530998D01*
X81891000Y-149530998D02*
X107411000Y-149530998D01*
X107411000Y-149530998D02*
X107411000Y-148280998D01*
X107471000Y-142030998D02*
X81831000Y-142030998D01*
X81831000Y-142030998D02*
X81831000Y-152530998D01*
X81831000Y-152530998D02*
X107471000Y-152530998D01*
X107471000Y-152530998D02*
X107471000Y-142030998D01*
X107411000Y-148280998D02*
G75*
G02*
X107411000Y-146280998I0J1000000D01*
G01*
X68489095Y-94663378D02*
X68489095Y-95472902D01*
X68536714Y-95568140D01*
X68584333Y-95615759D01*
X68679571Y-95663378D01*
X68870047Y-95663378D01*
X68965285Y-95615759D01*
X69012904Y-95568140D01*
X69060523Y-95472902D01*
X69060523Y-94663378D01*
X69441476Y-94663378D02*
X70060523Y-94663378D01*
X69727190Y-95044331D01*
X69870047Y-95044331D01*
X69965285Y-95091950D01*
X70012904Y-95139569D01*
X70060523Y-95234807D01*
X70060523Y-95472902D01*
X70012904Y-95568140D01*
X69965285Y-95615759D01*
X69870047Y-95663378D01*
X69584333Y-95663378D01*
X69489095Y-95615759D01*
X69441476Y-95568140D01*
X68489095Y-68628378D02*
X68489095Y-69437902D01*
X68536714Y-69533140D01*
X68584333Y-69580759D01*
X68679571Y-69628378D01*
X68870047Y-69628378D01*
X68965285Y-69580759D01*
X69012904Y-69533140D01*
X69060523Y-69437902D01*
X69060523Y-68628378D01*
X69489095Y-68723617D02*
X69536714Y-68675998D01*
X69631952Y-68628378D01*
X69870047Y-68628378D01*
X69965285Y-68675998D01*
X70012904Y-68723617D01*
X70060523Y-68818855D01*
X70060523Y-68914093D01*
X70012904Y-69056950D01*
X69441476Y-69628378D01*
X70060523Y-69628378D01*
X54519095Y-52753378D02*
X54519095Y-53562902D01*
X54566714Y-53658140D01*
X54614333Y-53705759D01*
X54709571Y-53753378D01*
X54900047Y-53753378D01*
X54995285Y-53705759D01*
X55042904Y-53658140D01*
X55090523Y-53562902D01*
X55090523Y-52753378D01*
X56090523Y-53753378D02*
X55519095Y-53753378D01*
X55804809Y-53753378D02*
X55804809Y-52753378D01*
X55709571Y-52896236D01*
X55614333Y-52991474D01*
X55519095Y-53039093D01*
X118654095Y-132763378D02*
X118654095Y-133572902D01*
X118701714Y-133668140D01*
X118749333Y-133715759D01*
X118844571Y-133763378D01*
X119035047Y-133763378D01*
X119130285Y-133715759D01*
X119177904Y-133668140D01*
X119225523Y-133572902D01*
X119225523Y-132763378D01*
X120130285Y-132763378D02*
X119939809Y-132763378D01*
X119844571Y-132810998D01*
X119796952Y-132858617D01*
X119701714Y-133001474D01*
X119654095Y-133191950D01*
X119654095Y-133572902D01*
X119701714Y-133668140D01*
X119749333Y-133715759D01*
X119844571Y-133763378D01*
X120035047Y-133763378D01*
X120130285Y-133715759D01*
X120177904Y-133668140D01*
X120225523Y-133572902D01*
X120225523Y-133334807D01*
X120177904Y-133239569D01*
X120130285Y-133191950D01*
X120035047Y-133144331D01*
X119844571Y-133144331D01*
X119749333Y-133191950D01*
X119701714Y-133239569D01*
X119654095Y-133334807D01*
X87539095Y-132763378D02*
X87539095Y-133572902D01*
X87586714Y-133668140D01*
X87634333Y-133715759D01*
X87729571Y-133763378D01*
X87920047Y-133763378D01*
X88015285Y-133715759D01*
X88062904Y-133668140D01*
X88110523Y-133572902D01*
X88110523Y-132763378D01*
X89062904Y-132763378D02*
X88586714Y-132763378D01*
X88539095Y-133239569D01*
X88586714Y-133191950D01*
X88681952Y-133144331D01*
X88920047Y-133144331D01*
X89015285Y-133191950D01*
X89062904Y-133239569D01*
X89110523Y-133334807D01*
X89110523Y-133572902D01*
X89062904Y-133668140D01*
X89015285Y-133715759D01*
X88920047Y-133763378D01*
X88681952Y-133763378D01*
X88586714Y-133715759D01*
X88539095Y-133668140D01*
X56424095Y-123238378D02*
X56424095Y-124047902D01*
X56471714Y-124143140D01*
X56519333Y-124190759D01*
X56614571Y-124238378D01*
X56805047Y-124238378D01*
X56900285Y-124190759D01*
X56947904Y-124143140D01*
X56995523Y-124047902D01*
X56995523Y-123238378D01*
X57900285Y-123571712D02*
X57900285Y-124238378D01*
X57662190Y-123190759D02*
X57424095Y-123905045D01*
X58043142Y-123905045D01*
X44263380Y-162219331D02*
X44977666Y-162219331D01*
X45120523Y-162266950D01*
X45215761Y-162362188D01*
X45263380Y-162505045D01*
X45263380Y-162600283D01*
X44596714Y-161314569D02*
X45263380Y-161314569D01*
X44215761Y-161552664D02*
X44930047Y-161790759D01*
X44930047Y-161171712D01*
X118654095Y-146733378D02*
X118654095Y-147542902D01*
X118701714Y-147638140D01*
X118749333Y-147685759D01*
X118844571Y-147733378D01*
X119035047Y-147733378D01*
X119130285Y-147685759D01*
X119177904Y-147638140D01*
X119225523Y-147542902D01*
X119225523Y-146733378D01*
X119844571Y-147161950D02*
X119749333Y-147114331D01*
X119701714Y-147066712D01*
X119654095Y-146971474D01*
X119654095Y-146923855D01*
X119701714Y-146828617D01*
X119749333Y-146780998D01*
X119844571Y-146733378D01*
X120035047Y-146733378D01*
X120130285Y-146780998D01*
X120177904Y-146828617D01*
X120225523Y-146923855D01*
X120225523Y-146971474D01*
X120177904Y-147066712D01*
X120130285Y-147114331D01*
X120035047Y-147161950D01*
X119844571Y-147161950D01*
X119749333Y-147209569D01*
X119701714Y-147257188D01*
X119654095Y-147352426D01*
X119654095Y-147542902D01*
X119701714Y-147638140D01*
X119749333Y-147685759D01*
X119844571Y-147733378D01*
X120035047Y-147733378D01*
X120130285Y-147685759D01*
X120177904Y-147638140D01*
X120225523Y-147542902D01*
X120225523Y-147352426D01*
X120177904Y-147257188D01*
X120130285Y-147209569D01*
X120035047Y-147161950D01*
X86904095Y-146733378D02*
X86904095Y-147542902D01*
X86951714Y-147638140D01*
X86999333Y-147685759D01*
X87094571Y-147733378D01*
X87285047Y-147733378D01*
X87380285Y-147685759D01*
X87427904Y-147638140D01*
X87475523Y-147542902D01*
X87475523Y-146733378D01*
X87856476Y-146733378D02*
X88523142Y-146733378D01*
X88094571Y-147733378D01*
M02*
