G04 #@! TF.GenerationSoftware,KiCad,Pcbnew,(5.1.7)-1*
G04 #@! TF.CreationDate,2020-11-15T08:59:14+01:00*
G04 #@! TF.ProjectId,Steuerwerk,53746575-6572-4776-9572-6b2e6b696361,rev?*
G04 #@! TF.SameCoordinates,Original*
G04 #@! TF.FileFunction,Copper,L1,Top*
G04 #@! TF.FilePolarity,Positive*
%FSLAX46Y46*%
G04 Gerber Fmt 4.6, Leading zero omitted, Abs format (unit mm)*
G04 Created by KiCad (PCBNEW (5.1.7)-1) date 2020-11-15 08:59:14*
%MOMM*%
%LPD*%
G01*
G04 APERTURE LIST*
G04 #@! TA.AperFunction,ComponentPad*
%ADD10C,1.800000*%
G04 #@! TD*
G04 #@! TA.AperFunction,ComponentPad*
%ADD11C,0.100000*%
G04 #@! TD*
G04 #@! TA.AperFunction,ComponentPad*
%ADD12O,1.740000X2.190000*%
G04 #@! TD*
G04 #@! TA.AperFunction,ComponentPad*
%ADD13O,1.600000X2.700000*%
G04 #@! TD*
G04 #@! TA.AperFunction,ComponentPad*
%ADD14R,1.600000X2.700000*%
G04 #@! TD*
G04 #@! TA.AperFunction,ComponentPad*
%ADD15O,1.800000X1.800000*%
G04 #@! TD*
G04 #@! TA.AperFunction,ComponentPad*
%ADD16R,1.800000X1.800000*%
G04 #@! TD*
G04 #@! TA.AperFunction,ComponentPad*
%ADD17R,1.500000X1.500000*%
G04 #@! TD*
G04 #@! TA.AperFunction,ComponentPad*
%ADD18C,1.500000*%
G04 #@! TD*
G04 #@! TA.AperFunction,ComponentPad*
%ADD19O,2.400000X1.600000*%
G04 #@! TD*
G04 #@! TA.AperFunction,ComponentPad*
%ADD20R,2.400000X1.600000*%
G04 #@! TD*
G04 #@! TA.AperFunction,ComponentPad*
%ADD21O,1.600000X2.400000*%
G04 #@! TD*
G04 #@! TA.AperFunction,ComponentPad*
%ADD22R,1.600000X2.400000*%
G04 #@! TD*
G04 #@! TA.AperFunction,ComponentPad*
%ADD23O,1.600000X1.600000*%
G04 #@! TD*
G04 #@! TA.AperFunction,ComponentPad*
%ADD24C,1.600000*%
G04 #@! TD*
G04 #@! TA.AperFunction,ComponentPad*
%ADD25R,1.600000X1.600000*%
G04 #@! TD*
G04 #@! TA.AperFunction,ComponentPad*
%ADD26O,2.190000X1.740000*%
G04 #@! TD*
G04 #@! TA.AperFunction,ViaPad*
%ADD27C,0.600000*%
G04 #@! TD*
G04 #@! TA.AperFunction,Conductor*
%ADD28C,1.250000*%
G04 #@! TD*
G04 #@! TA.AperFunction,Conductor*
%ADD29C,0.400000*%
G04 #@! TD*
G04 APERTURE END LIST*
D10*
X138466000Y-113734947D03*
G04 #@! TA.AperFunction,ComponentPad*
D11*
G36*
X136669949Y-116803790D02*
G01*
X135397157Y-115530998D01*
X136669949Y-114258206D01*
X137942741Y-115530998D01*
X136669949Y-116803790D01*
G37*
G04 #@! TD.AperFunction*
D10*
X134656000Y-113734947D03*
G04 #@! TA.AperFunction,ComponentPad*
D11*
G36*
X132859949Y-116803790D02*
G01*
X131587157Y-115530998D01*
X132859949Y-114258206D01*
X134132741Y-115530998D01*
X132859949Y-116803790D01*
G37*
G04 #@! TD.AperFunction*
D10*
X138466000Y-109924947D03*
G04 #@! TA.AperFunction,ComponentPad*
D11*
G36*
X136669949Y-112993790D02*
G01*
X135397157Y-111720998D01*
X136669949Y-110448206D01*
X137942741Y-111720998D01*
X136669949Y-112993790D01*
G37*
G04 #@! TD.AperFunction*
D10*
X134656000Y-109924947D03*
G04 #@! TA.AperFunction,ComponentPad*
D11*
G36*
X132859949Y-112993790D02*
G01*
X131587157Y-111720998D01*
X132859949Y-110448206D01*
X134132741Y-111720998D01*
X132859949Y-112993790D01*
G37*
G04 #@! TD.AperFunction*
D10*
X138466000Y-106114947D03*
G04 #@! TA.AperFunction,ComponentPad*
D11*
G36*
X136669949Y-109183790D02*
G01*
X135397157Y-107910998D01*
X136669949Y-106638206D01*
X137942741Y-107910998D01*
X136669949Y-109183790D01*
G37*
G04 #@! TD.AperFunction*
D10*
X134656000Y-106114947D03*
G04 #@! TA.AperFunction,ComponentPad*
D11*
G36*
X132859949Y-109183790D02*
G01*
X131587157Y-107910998D01*
X132859949Y-106638206D01*
X134132741Y-107910998D01*
X132859949Y-109183790D01*
G37*
G04 #@! TD.AperFunction*
D10*
X138466000Y-102304947D03*
G04 #@! TA.AperFunction,ComponentPad*
D11*
G36*
X136669949Y-105373790D02*
G01*
X135397157Y-104100998D01*
X136669949Y-102828206D01*
X137942741Y-104100998D01*
X136669949Y-105373790D01*
G37*
G04 #@! TD.AperFunction*
D10*
X134656000Y-102304947D03*
G04 #@! TA.AperFunction,ComponentPad*
D11*
G36*
X132859949Y-105373790D02*
G01*
X131587157Y-104100998D01*
X132859949Y-102828206D01*
X134132741Y-104100998D01*
X132859949Y-105373790D01*
G37*
G04 #@! TD.AperFunction*
D10*
X138466000Y-98494947D03*
G04 #@! TA.AperFunction,ComponentPad*
D11*
G36*
X136669949Y-101563790D02*
G01*
X135397157Y-100290998D01*
X136669949Y-99018206D01*
X137942741Y-100290998D01*
X136669949Y-101563790D01*
G37*
G04 #@! TD.AperFunction*
D10*
X134656000Y-98494947D03*
G04 #@! TA.AperFunction,ComponentPad*
D11*
G36*
X132859949Y-101563790D02*
G01*
X131587157Y-100290998D01*
X132859949Y-99018206D01*
X134132741Y-100290998D01*
X132859949Y-101563790D01*
G37*
G04 #@! TD.AperFunction*
D10*
X138466000Y-94684947D03*
G04 #@! TA.AperFunction,ComponentPad*
D11*
G36*
X136669949Y-97753790D02*
G01*
X135397157Y-96480998D01*
X136669949Y-95208206D01*
X137942741Y-96480998D01*
X136669949Y-97753790D01*
G37*
G04 #@! TD.AperFunction*
D10*
X134656000Y-94684947D03*
G04 #@! TA.AperFunction,ComponentPad*
D11*
G36*
X132859949Y-97753790D02*
G01*
X131587157Y-96480998D01*
X132859949Y-95208206D01*
X134132741Y-96480998D01*
X132859949Y-97753790D01*
G37*
G04 #@! TD.AperFunction*
D10*
X138466000Y-90874947D03*
G04 #@! TA.AperFunction,ComponentPad*
D11*
G36*
X136669949Y-93943790D02*
G01*
X135397157Y-92670998D01*
X136669949Y-91398206D01*
X137942741Y-92670998D01*
X136669949Y-93943790D01*
G37*
G04 #@! TD.AperFunction*
D10*
X134656000Y-90874947D03*
G04 #@! TA.AperFunction,ComponentPad*
D11*
G36*
X132859949Y-93943790D02*
G01*
X131587157Y-92670998D01*
X132859949Y-91398206D01*
X134132741Y-92670998D01*
X132859949Y-93943790D01*
G37*
G04 #@! TD.AperFunction*
D10*
X138466000Y-87064947D03*
G04 #@! TA.AperFunction,ComponentPad*
D11*
G36*
X136669949Y-90133790D02*
G01*
X135397157Y-88860998D01*
X136669949Y-87588206D01*
X137942741Y-88860998D01*
X136669949Y-90133790D01*
G37*
G04 #@! TD.AperFunction*
D10*
X134656000Y-87064947D03*
G04 #@! TA.AperFunction,ComponentPad*
D11*
G36*
X132859949Y-90133790D02*
G01*
X131587157Y-88860998D01*
X132859949Y-87588206D01*
X134132741Y-88860998D01*
X132859949Y-90133790D01*
G37*
G04 #@! TD.AperFunction*
D10*
X138466000Y-83254947D03*
G04 #@! TA.AperFunction,ComponentPad*
D11*
G36*
X136669949Y-86323790D02*
G01*
X135397157Y-85050998D01*
X136669949Y-83778206D01*
X137942741Y-85050998D01*
X136669949Y-86323790D01*
G37*
G04 #@! TD.AperFunction*
D10*
X134656000Y-83254947D03*
G04 #@! TA.AperFunction,ComponentPad*
D11*
G36*
X132859949Y-86323790D02*
G01*
X131587157Y-85050998D01*
X132859949Y-83778206D01*
X134132741Y-85050998D01*
X132859949Y-86323790D01*
G37*
G04 #@! TD.AperFunction*
D10*
X138466000Y-79444947D03*
G04 #@! TA.AperFunction,ComponentPad*
D11*
G36*
X136669949Y-82513790D02*
G01*
X135397157Y-81240998D01*
X136669949Y-79968206D01*
X137942741Y-81240998D01*
X136669949Y-82513790D01*
G37*
G04 #@! TD.AperFunction*
D10*
X134656000Y-79444947D03*
G04 #@! TA.AperFunction,ComponentPad*
D11*
G36*
X132859949Y-82513790D02*
G01*
X131587157Y-81240998D01*
X132859949Y-79968206D01*
X134132741Y-81240998D01*
X132859949Y-82513790D01*
G37*
G04 #@! TD.AperFunction*
D10*
X138466000Y-75634947D03*
G04 #@! TA.AperFunction,ComponentPad*
D11*
G36*
X136669949Y-78703790D02*
G01*
X135397157Y-77430998D01*
X136669949Y-76158206D01*
X137942741Y-77430998D01*
X136669949Y-78703790D01*
G37*
G04 #@! TD.AperFunction*
D10*
X134656000Y-75634947D03*
G04 #@! TA.AperFunction,ComponentPad*
D11*
G36*
X132859949Y-78703790D02*
G01*
X131587157Y-77430998D01*
X132859949Y-76158206D01*
X134132741Y-77430998D01*
X132859949Y-78703790D01*
G37*
G04 #@! TD.AperFunction*
D10*
X138466000Y-71824947D03*
G04 #@! TA.AperFunction,ComponentPad*
D11*
G36*
X136669949Y-74893790D02*
G01*
X135397157Y-73620998D01*
X136669949Y-72348206D01*
X137942741Y-73620998D01*
X136669949Y-74893790D01*
G37*
G04 #@! TD.AperFunction*
D10*
X134656000Y-71824947D03*
G04 #@! TA.AperFunction,ComponentPad*
D11*
G36*
X132859949Y-74893790D02*
G01*
X131587157Y-73620998D01*
X132859949Y-72348206D01*
X134132741Y-73620998D01*
X132859949Y-74893790D01*
G37*
G04 #@! TD.AperFunction*
D10*
X138466000Y-68014947D03*
G04 #@! TA.AperFunction,ComponentPad*
D11*
G36*
X136669949Y-71083790D02*
G01*
X135397157Y-69810998D01*
X136669949Y-68538206D01*
X137942741Y-69810998D01*
X136669949Y-71083790D01*
G37*
G04 #@! TD.AperFunction*
D10*
X134656000Y-68014947D03*
G04 #@! TA.AperFunction,ComponentPad*
D11*
G36*
X132859949Y-71083790D02*
G01*
X131587157Y-69810998D01*
X132859949Y-68538206D01*
X134132741Y-69810998D01*
X132859949Y-71083790D01*
G37*
G04 #@! TD.AperFunction*
D10*
X130846000Y-113734947D03*
G04 #@! TA.AperFunction,ComponentPad*
D11*
G36*
X129049949Y-116803790D02*
G01*
X127777157Y-115530998D01*
X129049949Y-114258206D01*
X130322741Y-115530998D01*
X129049949Y-116803790D01*
G37*
G04 #@! TD.AperFunction*
D10*
X130846000Y-106114947D03*
G04 #@! TA.AperFunction,ComponentPad*
D11*
G36*
X129049949Y-109183790D02*
G01*
X127777157Y-107910998D01*
X129049949Y-106638206D01*
X130322741Y-107910998D01*
X129049949Y-109183790D01*
G37*
G04 #@! TD.AperFunction*
D10*
X130846000Y-102304947D03*
G04 #@! TA.AperFunction,ComponentPad*
D11*
G36*
X129049949Y-105373790D02*
G01*
X127777157Y-104100998D01*
X129049949Y-102828206D01*
X130322741Y-104100998D01*
X129049949Y-105373790D01*
G37*
G04 #@! TD.AperFunction*
D10*
X130846000Y-98494947D03*
G04 #@! TA.AperFunction,ComponentPad*
D11*
G36*
X129049949Y-101563790D02*
G01*
X127777157Y-100290998D01*
X129049949Y-99018206D01*
X130322741Y-100290998D01*
X129049949Y-101563790D01*
G37*
G04 #@! TD.AperFunction*
D10*
X130846000Y-94684947D03*
G04 #@! TA.AperFunction,ComponentPad*
D11*
G36*
X129049949Y-97753790D02*
G01*
X127777157Y-96480998D01*
X129049949Y-95208206D01*
X130322741Y-96480998D01*
X129049949Y-97753790D01*
G37*
G04 #@! TD.AperFunction*
D10*
X130846000Y-90874947D03*
G04 #@! TA.AperFunction,ComponentPad*
D11*
G36*
X129049949Y-93943790D02*
G01*
X127777157Y-92670998D01*
X129049949Y-91398206D01*
X130322741Y-92670998D01*
X129049949Y-93943790D01*
G37*
G04 #@! TD.AperFunction*
D10*
X130846000Y-87064947D03*
G04 #@! TA.AperFunction,ComponentPad*
D11*
G36*
X129049949Y-90133790D02*
G01*
X127777157Y-88860998D01*
X129049949Y-87588206D01*
X130322741Y-88860998D01*
X129049949Y-90133790D01*
G37*
G04 #@! TD.AperFunction*
D10*
X130846000Y-83254947D03*
G04 #@! TA.AperFunction,ComponentPad*
D11*
G36*
X129049949Y-86323790D02*
G01*
X127777157Y-85050998D01*
X129049949Y-83778206D01*
X130322741Y-85050998D01*
X129049949Y-86323790D01*
G37*
G04 #@! TD.AperFunction*
D10*
X130846000Y-79444947D03*
G04 #@! TA.AperFunction,ComponentPad*
D11*
G36*
X129049949Y-82513790D02*
G01*
X127777157Y-81240998D01*
X129049949Y-79968206D01*
X130322741Y-81240998D01*
X129049949Y-82513790D01*
G37*
G04 #@! TD.AperFunction*
D10*
X130846000Y-75634947D03*
G04 #@! TA.AperFunction,ComponentPad*
D11*
G36*
X129049949Y-78703790D02*
G01*
X127777157Y-77430998D01*
X129049949Y-76158206D01*
X130322741Y-77430998D01*
X129049949Y-78703790D01*
G37*
G04 #@! TD.AperFunction*
D10*
X130846000Y-71824947D03*
G04 #@! TA.AperFunction,ComponentPad*
D11*
G36*
X129049949Y-74893790D02*
G01*
X127777157Y-73620998D01*
X129049949Y-72348206D01*
X130322741Y-73620998D01*
X129049949Y-74893790D01*
G37*
G04 #@! TD.AperFunction*
D10*
X130846000Y-68014947D03*
G04 #@! TA.AperFunction,ComponentPad*
D11*
G36*
X129049949Y-71083790D02*
G01*
X127777157Y-69810998D01*
X129049949Y-68538206D01*
X130322741Y-69810998D01*
X129049949Y-71083790D01*
G37*
G04 #@! TD.AperFunction*
D10*
X127036000Y-113734947D03*
G04 #@! TA.AperFunction,ComponentPad*
D11*
G36*
X125239949Y-116803790D02*
G01*
X123967157Y-115530998D01*
X125239949Y-114258206D01*
X126512741Y-115530998D01*
X125239949Y-116803790D01*
G37*
G04 #@! TD.AperFunction*
D10*
X127036000Y-109924947D03*
G04 #@! TA.AperFunction,ComponentPad*
D11*
G36*
X125239949Y-112993790D02*
G01*
X123967157Y-111720998D01*
X125239949Y-110448206D01*
X126512741Y-111720998D01*
X125239949Y-112993790D01*
G37*
G04 #@! TD.AperFunction*
D10*
X127036000Y-106114947D03*
G04 #@! TA.AperFunction,ComponentPad*
D11*
G36*
X125239949Y-109183790D02*
G01*
X123967157Y-107910998D01*
X125239949Y-106638206D01*
X126512741Y-107910998D01*
X125239949Y-109183790D01*
G37*
G04 #@! TD.AperFunction*
D10*
X127036000Y-98494947D03*
G04 #@! TA.AperFunction,ComponentPad*
D11*
G36*
X125239949Y-101563790D02*
G01*
X123967157Y-100290998D01*
X125239949Y-99018206D01*
X126512741Y-100290998D01*
X125239949Y-101563790D01*
G37*
G04 #@! TD.AperFunction*
D10*
X127036000Y-94684947D03*
G04 #@! TA.AperFunction,ComponentPad*
D11*
G36*
X125239949Y-97753790D02*
G01*
X123967157Y-96480998D01*
X125239949Y-95208206D01*
X126512741Y-96480998D01*
X125239949Y-97753790D01*
G37*
G04 #@! TD.AperFunction*
D10*
X127036000Y-87064947D03*
G04 #@! TA.AperFunction,ComponentPad*
D11*
G36*
X125239949Y-90133790D02*
G01*
X123967157Y-88860998D01*
X125239949Y-87588206D01*
X126512741Y-88860998D01*
X125239949Y-90133790D01*
G37*
G04 #@! TD.AperFunction*
D10*
X127036000Y-83254947D03*
G04 #@! TA.AperFunction,ComponentPad*
D11*
G36*
X125239949Y-86323790D02*
G01*
X123967157Y-85050998D01*
X125239949Y-83778206D01*
X126512741Y-85050998D01*
X125239949Y-86323790D01*
G37*
G04 #@! TD.AperFunction*
D10*
X127036000Y-79444947D03*
G04 #@! TA.AperFunction,ComponentPad*
D11*
G36*
X125239949Y-82513790D02*
G01*
X123967157Y-81240998D01*
X125239949Y-79968206D01*
X126512741Y-81240998D01*
X125239949Y-82513790D01*
G37*
G04 #@! TD.AperFunction*
D10*
X127036000Y-71824947D03*
G04 #@! TA.AperFunction,ComponentPad*
D11*
G36*
X125239949Y-74893790D02*
G01*
X123967157Y-73620998D01*
X125239949Y-72348206D01*
X126512741Y-73620998D01*
X125239949Y-74893790D01*
G37*
G04 #@! TD.AperFunction*
D10*
X127036000Y-68014947D03*
G04 #@! TA.AperFunction,ComponentPad*
D11*
G36*
X125239949Y-71083790D02*
G01*
X123967157Y-69810998D01*
X125239949Y-68538206D01*
X126512741Y-69810998D01*
X125239949Y-71083790D01*
G37*
G04 #@! TD.AperFunction*
D10*
X123226000Y-113734947D03*
G04 #@! TA.AperFunction,ComponentPad*
D11*
G36*
X121429949Y-116803790D02*
G01*
X120157157Y-115530998D01*
X121429949Y-114258206D01*
X122702741Y-115530998D01*
X121429949Y-116803790D01*
G37*
G04 #@! TD.AperFunction*
D10*
X119416000Y-113734947D03*
G04 #@! TA.AperFunction,ComponentPad*
D11*
G36*
X117619949Y-116803790D02*
G01*
X116347157Y-115530998D01*
X117619949Y-114258206D01*
X118892741Y-115530998D01*
X117619949Y-116803790D01*
G37*
G04 #@! TD.AperFunction*
D10*
X119416000Y-109924947D03*
G04 #@! TA.AperFunction,ComponentPad*
D11*
G36*
X117619949Y-112993790D02*
G01*
X116347157Y-111720998D01*
X117619949Y-110448206D01*
X118892741Y-111720998D01*
X117619949Y-112993790D01*
G37*
G04 #@! TD.AperFunction*
D10*
X119416000Y-106114947D03*
G04 #@! TA.AperFunction,ComponentPad*
D11*
G36*
X117619949Y-109183790D02*
G01*
X116347157Y-107910998D01*
X117619949Y-106638206D01*
X118892741Y-107910998D01*
X117619949Y-109183790D01*
G37*
G04 #@! TD.AperFunction*
D10*
X119416000Y-102304947D03*
G04 #@! TA.AperFunction,ComponentPad*
D11*
G36*
X117619949Y-105373790D02*
G01*
X116347157Y-104100998D01*
X117619949Y-102828206D01*
X118892741Y-104100998D01*
X117619949Y-105373790D01*
G37*
G04 #@! TD.AperFunction*
D10*
X119416000Y-98494947D03*
G04 #@! TA.AperFunction,ComponentPad*
D11*
G36*
X117619949Y-101563790D02*
G01*
X116347157Y-100290998D01*
X117619949Y-99018206D01*
X118892741Y-100290998D01*
X117619949Y-101563790D01*
G37*
G04 #@! TD.AperFunction*
D10*
X119416000Y-94684947D03*
G04 #@! TA.AperFunction,ComponentPad*
D11*
G36*
X117619949Y-97753790D02*
G01*
X116347157Y-96480998D01*
X117619949Y-95208206D01*
X118892741Y-96480998D01*
X117619949Y-97753790D01*
G37*
G04 #@! TD.AperFunction*
D10*
X119416000Y-90874947D03*
G04 #@! TA.AperFunction,ComponentPad*
D11*
G36*
X117619949Y-93943790D02*
G01*
X116347157Y-92670998D01*
X117619949Y-91398206D01*
X118892741Y-92670998D01*
X117619949Y-93943790D01*
G37*
G04 #@! TD.AperFunction*
D10*
X119416000Y-87064947D03*
G04 #@! TA.AperFunction,ComponentPad*
D11*
G36*
X117619949Y-90133790D02*
G01*
X116347157Y-88860998D01*
X117619949Y-87588206D01*
X118892741Y-88860998D01*
X117619949Y-90133790D01*
G37*
G04 #@! TD.AperFunction*
D10*
X119416000Y-83254947D03*
G04 #@! TA.AperFunction,ComponentPad*
D11*
G36*
X117619949Y-86323790D02*
G01*
X116347157Y-85050998D01*
X117619949Y-83778206D01*
X118892741Y-85050998D01*
X117619949Y-86323790D01*
G37*
G04 #@! TD.AperFunction*
D10*
X119416000Y-79444947D03*
G04 #@! TA.AperFunction,ComponentPad*
D11*
G36*
X117619949Y-82513790D02*
G01*
X116347157Y-81240998D01*
X117619949Y-79968206D01*
X118892741Y-81240998D01*
X117619949Y-82513790D01*
G37*
G04 #@! TD.AperFunction*
D10*
X119416000Y-75634947D03*
G04 #@! TA.AperFunction,ComponentPad*
D11*
G36*
X117619949Y-78703790D02*
G01*
X116347157Y-77430998D01*
X117619949Y-76158206D01*
X118892741Y-77430998D01*
X117619949Y-78703790D01*
G37*
G04 #@! TD.AperFunction*
D10*
X119416000Y-71824947D03*
G04 #@! TA.AperFunction,ComponentPad*
D11*
G36*
X117619949Y-74893790D02*
G01*
X116347157Y-73620998D01*
X117619949Y-72348206D01*
X118892741Y-73620998D01*
X117619949Y-74893790D01*
G37*
G04 #@! TD.AperFunction*
D10*
X119416000Y-68014947D03*
G04 #@! TA.AperFunction,ComponentPad*
D11*
G36*
X117619949Y-71083790D02*
G01*
X116347157Y-69810998D01*
X117619949Y-68538206D01*
X118892741Y-69810998D01*
X117619949Y-71083790D01*
G37*
G04 #@! TD.AperFunction*
D10*
X115606000Y-113734947D03*
G04 #@! TA.AperFunction,ComponentPad*
D11*
G36*
X113809949Y-116803790D02*
G01*
X112537157Y-115530998D01*
X113809949Y-114258206D01*
X115082741Y-115530998D01*
X113809949Y-116803790D01*
G37*
G04 #@! TD.AperFunction*
D10*
X115606000Y-109924947D03*
G04 #@! TA.AperFunction,ComponentPad*
D11*
G36*
X113809949Y-112993790D02*
G01*
X112537157Y-111720998D01*
X113809949Y-110448206D01*
X115082741Y-111720998D01*
X113809949Y-112993790D01*
G37*
G04 #@! TD.AperFunction*
D10*
X115606000Y-106114947D03*
G04 #@! TA.AperFunction,ComponentPad*
D11*
G36*
X113809949Y-109183790D02*
G01*
X112537157Y-107910998D01*
X113809949Y-106638206D01*
X115082741Y-107910998D01*
X113809949Y-109183790D01*
G37*
G04 #@! TD.AperFunction*
D10*
X115606000Y-102304947D03*
G04 #@! TA.AperFunction,ComponentPad*
D11*
G36*
X113809949Y-105373790D02*
G01*
X112537157Y-104100998D01*
X113809949Y-102828206D01*
X115082741Y-104100998D01*
X113809949Y-105373790D01*
G37*
G04 #@! TD.AperFunction*
D10*
X115606000Y-98494947D03*
G04 #@! TA.AperFunction,ComponentPad*
D11*
G36*
X113809949Y-101563790D02*
G01*
X112537157Y-100290998D01*
X113809949Y-99018206D01*
X115082741Y-100290998D01*
X113809949Y-101563790D01*
G37*
G04 #@! TD.AperFunction*
D10*
X115606000Y-94684947D03*
G04 #@! TA.AperFunction,ComponentPad*
D11*
G36*
X113809949Y-97753790D02*
G01*
X112537157Y-96480998D01*
X113809949Y-95208206D01*
X115082741Y-96480998D01*
X113809949Y-97753790D01*
G37*
G04 #@! TD.AperFunction*
D10*
X115606000Y-90874947D03*
G04 #@! TA.AperFunction,ComponentPad*
D11*
G36*
X113809949Y-93943790D02*
G01*
X112537157Y-92670998D01*
X113809949Y-91398206D01*
X115082741Y-92670998D01*
X113809949Y-93943790D01*
G37*
G04 #@! TD.AperFunction*
D10*
X115606000Y-87064947D03*
G04 #@! TA.AperFunction,ComponentPad*
D11*
G36*
X113809949Y-90133790D02*
G01*
X112537157Y-88860998D01*
X113809949Y-87588206D01*
X115082741Y-88860998D01*
X113809949Y-90133790D01*
G37*
G04 #@! TD.AperFunction*
D10*
X115606000Y-83254947D03*
G04 #@! TA.AperFunction,ComponentPad*
D11*
G36*
X113809949Y-86323790D02*
G01*
X112537157Y-85050998D01*
X113809949Y-83778206D01*
X115082741Y-85050998D01*
X113809949Y-86323790D01*
G37*
G04 #@! TD.AperFunction*
D10*
X115606000Y-79444947D03*
G04 #@! TA.AperFunction,ComponentPad*
D11*
G36*
X113809949Y-82513790D02*
G01*
X112537157Y-81240998D01*
X113809949Y-79968206D01*
X115082741Y-81240998D01*
X113809949Y-82513790D01*
G37*
G04 #@! TD.AperFunction*
D10*
X115606000Y-75634947D03*
G04 #@! TA.AperFunction,ComponentPad*
D11*
G36*
X113809949Y-78703790D02*
G01*
X112537157Y-77430998D01*
X113809949Y-76158206D01*
X115082741Y-77430998D01*
X113809949Y-78703790D01*
G37*
G04 #@! TD.AperFunction*
D10*
X115606000Y-71824947D03*
G04 #@! TA.AperFunction,ComponentPad*
D11*
G36*
X113809949Y-74893790D02*
G01*
X112537157Y-73620998D01*
X113809949Y-72348206D01*
X115082741Y-73620998D01*
X113809949Y-74893790D01*
G37*
G04 #@! TD.AperFunction*
D10*
X115606000Y-68014947D03*
G04 #@! TA.AperFunction,ComponentPad*
D11*
G36*
X113809949Y-71083790D02*
G01*
X112537157Y-69810998D01*
X113809949Y-68538206D01*
X115082741Y-69810998D01*
X113809949Y-71083790D01*
G37*
G04 #@! TD.AperFunction*
D10*
X111796000Y-113734947D03*
G04 #@! TA.AperFunction,ComponentPad*
D11*
G36*
X109999949Y-116803790D02*
G01*
X108727157Y-115530998D01*
X109999949Y-114258206D01*
X111272741Y-115530998D01*
X109999949Y-116803790D01*
G37*
G04 #@! TD.AperFunction*
D10*
X111796000Y-109924947D03*
G04 #@! TA.AperFunction,ComponentPad*
D11*
G36*
X109999949Y-112993790D02*
G01*
X108727157Y-111720998D01*
X109999949Y-110448206D01*
X111272741Y-111720998D01*
X109999949Y-112993790D01*
G37*
G04 #@! TD.AperFunction*
D10*
X111796000Y-106114947D03*
G04 #@! TA.AperFunction,ComponentPad*
D11*
G36*
X109999949Y-109183790D02*
G01*
X108727157Y-107910998D01*
X109999949Y-106638206D01*
X111272741Y-107910998D01*
X109999949Y-109183790D01*
G37*
G04 #@! TD.AperFunction*
D10*
X111796000Y-102304947D03*
G04 #@! TA.AperFunction,ComponentPad*
D11*
G36*
X109999949Y-105373790D02*
G01*
X108727157Y-104100998D01*
X109999949Y-102828206D01*
X111272741Y-104100998D01*
X109999949Y-105373790D01*
G37*
G04 #@! TD.AperFunction*
D10*
X111796000Y-94684947D03*
G04 #@! TA.AperFunction,ComponentPad*
D11*
G36*
X109999949Y-97753790D02*
G01*
X108727157Y-96480998D01*
X109999949Y-95208206D01*
X111272741Y-96480998D01*
X109999949Y-97753790D01*
G37*
G04 #@! TD.AperFunction*
D10*
X111796000Y-90874947D03*
G04 #@! TA.AperFunction,ComponentPad*
D11*
G36*
X109999949Y-93943790D02*
G01*
X108727157Y-92670998D01*
X109999949Y-91398206D01*
X111272741Y-92670998D01*
X109999949Y-93943790D01*
G37*
G04 #@! TD.AperFunction*
D10*
X111796000Y-87064947D03*
G04 #@! TA.AperFunction,ComponentPad*
D11*
G36*
X109999949Y-90133790D02*
G01*
X108727157Y-88860998D01*
X109999949Y-87588206D01*
X111272741Y-88860998D01*
X109999949Y-90133790D01*
G37*
G04 #@! TD.AperFunction*
D10*
X111796000Y-83254947D03*
G04 #@! TA.AperFunction,ComponentPad*
D11*
G36*
X109999949Y-86323790D02*
G01*
X108727157Y-85050998D01*
X109999949Y-83778206D01*
X111272741Y-85050998D01*
X109999949Y-86323790D01*
G37*
G04 #@! TD.AperFunction*
D10*
X111796000Y-79444947D03*
G04 #@! TA.AperFunction,ComponentPad*
D11*
G36*
X109999949Y-82513790D02*
G01*
X108727157Y-81240998D01*
X109999949Y-79968206D01*
X111272741Y-81240998D01*
X109999949Y-82513790D01*
G37*
G04 #@! TD.AperFunction*
D10*
X111796000Y-75634947D03*
G04 #@! TA.AperFunction,ComponentPad*
D11*
G36*
X109999949Y-78703790D02*
G01*
X108727157Y-77430998D01*
X109999949Y-76158206D01*
X111272741Y-77430998D01*
X109999949Y-78703790D01*
G37*
G04 #@! TD.AperFunction*
D10*
X111796000Y-71824947D03*
G04 #@! TA.AperFunction,ComponentPad*
D11*
G36*
X109999949Y-74893790D02*
G01*
X108727157Y-73620998D01*
X109999949Y-72348206D01*
X111272741Y-73620998D01*
X109999949Y-74893790D01*
G37*
G04 #@! TD.AperFunction*
D10*
X111796000Y-68014947D03*
G04 #@! TA.AperFunction,ComponentPad*
D11*
G36*
X109999949Y-71083790D02*
G01*
X108727157Y-69810998D01*
X109999949Y-68538206D01*
X111272741Y-69810998D01*
X109999949Y-71083790D01*
G37*
G04 #@! TD.AperFunction*
D10*
X138466000Y-64204947D03*
G04 #@! TA.AperFunction,ComponentPad*
D11*
G36*
X136669949Y-67273790D02*
G01*
X135397157Y-66000998D01*
X136669949Y-64728206D01*
X137942741Y-66000998D01*
X136669949Y-67273790D01*
G37*
G04 #@! TD.AperFunction*
D10*
X134656000Y-64204947D03*
G04 #@! TA.AperFunction,ComponentPad*
D11*
G36*
X132859949Y-67273790D02*
G01*
X131587157Y-66000998D01*
X132859949Y-64728206D01*
X134132741Y-66000998D01*
X132859949Y-67273790D01*
G37*
G04 #@! TD.AperFunction*
D10*
X130846000Y-64204947D03*
G04 #@! TA.AperFunction,ComponentPad*
D11*
G36*
X129049949Y-67273790D02*
G01*
X127777157Y-66000998D01*
X129049949Y-64728206D01*
X130322741Y-66000998D01*
X129049949Y-67273790D01*
G37*
G04 #@! TD.AperFunction*
D10*
X127036000Y-64204947D03*
G04 #@! TA.AperFunction,ComponentPad*
D11*
G36*
X125239949Y-67273790D02*
G01*
X123967157Y-66000998D01*
X125239949Y-64728206D01*
X126512741Y-66000998D01*
X125239949Y-67273790D01*
G37*
G04 #@! TD.AperFunction*
D10*
X123226000Y-64204947D03*
G04 #@! TA.AperFunction,ComponentPad*
D11*
G36*
X121429949Y-67273790D02*
G01*
X120157157Y-66000998D01*
X121429949Y-64728206D01*
X122702741Y-66000998D01*
X121429949Y-67273790D01*
G37*
G04 #@! TD.AperFunction*
D10*
X119416000Y-64204947D03*
G04 #@! TA.AperFunction,ComponentPad*
D11*
G36*
X117619949Y-67273790D02*
G01*
X116347157Y-66000998D01*
X117619949Y-64728206D01*
X118892741Y-66000998D01*
X117619949Y-67273790D01*
G37*
G04 #@! TD.AperFunction*
D10*
X111796000Y-64204947D03*
G04 #@! TA.AperFunction,ComponentPad*
D11*
G36*
X109999949Y-67273790D02*
G01*
X108727157Y-66000998D01*
X109999949Y-64728206D01*
X111272741Y-66000998D01*
X109999949Y-67273790D01*
G37*
G04 #@! TD.AperFunction*
D10*
X138466000Y-60394947D03*
G04 #@! TA.AperFunction,ComponentPad*
D11*
G36*
X136669949Y-63463790D02*
G01*
X135397157Y-62190998D01*
X136669949Y-60918206D01*
X137942741Y-62190998D01*
X136669949Y-63463790D01*
G37*
G04 #@! TD.AperFunction*
D10*
X134656000Y-60394947D03*
G04 #@! TA.AperFunction,ComponentPad*
D11*
G36*
X132859949Y-63463790D02*
G01*
X131587157Y-62190998D01*
X132859949Y-60918206D01*
X134132741Y-62190998D01*
X132859949Y-63463790D01*
G37*
G04 #@! TD.AperFunction*
D10*
X130846000Y-60394947D03*
G04 #@! TA.AperFunction,ComponentPad*
D11*
G36*
X129049949Y-63463790D02*
G01*
X127777157Y-62190998D01*
X129049949Y-60918206D01*
X130322741Y-62190998D01*
X129049949Y-63463790D01*
G37*
G04 #@! TD.AperFunction*
D10*
X127036000Y-60394947D03*
G04 #@! TA.AperFunction,ComponentPad*
D11*
G36*
X125239949Y-63463790D02*
G01*
X123967157Y-62190998D01*
X125239949Y-60918206D01*
X126512741Y-62190998D01*
X125239949Y-63463790D01*
G37*
G04 #@! TD.AperFunction*
D10*
X123226000Y-60394947D03*
G04 #@! TA.AperFunction,ComponentPad*
D11*
G36*
X121429949Y-63463790D02*
G01*
X120157157Y-62190998D01*
X121429949Y-60918206D01*
X122702741Y-62190998D01*
X121429949Y-63463790D01*
G37*
G04 #@! TD.AperFunction*
D10*
X111814051Y-60394947D03*
G04 #@! TA.AperFunction,ComponentPad*
D11*
G36*
X110018000Y-63463790D02*
G01*
X108745208Y-62190998D01*
X110018000Y-60918206D01*
X111290792Y-62190998D01*
X110018000Y-63463790D01*
G37*
G04 #@! TD.AperFunction*
D10*
X138466000Y-56584947D03*
G04 #@! TA.AperFunction,ComponentPad*
D11*
G36*
X136669949Y-59653790D02*
G01*
X135397157Y-58380998D01*
X136669949Y-57108206D01*
X137942741Y-58380998D01*
X136669949Y-59653790D01*
G37*
G04 #@! TD.AperFunction*
D10*
X134656000Y-56584947D03*
G04 #@! TA.AperFunction,ComponentPad*
D11*
G36*
X132859949Y-59653790D02*
G01*
X131587157Y-58380998D01*
X132859949Y-57108206D01*
X134132741Y-58380998D01*
X132859949Y-59653790D01*
G37*
G04 #@! TD.AperFunction*
D10*
X130846000Y-56584947D03*
G04 #@! TA.AperFunction,ComponentPad*
D11*
G36*
X129049949Y-59653790D02*
G01*
X127777157Y-58380998D01*
X129049949Y-57108206D01*
X130322741Y-58380998D01*
X129049949Y-59653790D01*
G37*
G04 #@! TD.AperFunction*
D10*
X127036000Y-56584947D03*
G04 #@! TA.AperFunction,ComponentPad*
D11*
G36*
X125239949Y-59653790D02*
G01*
X123967157Y-58380998D01*
X125239949Y-57108206D01*
X126512741Y-58380998D01*
X125239949Y-59653790D01*
G37*
G04 #@! TD.AperFunction*
D10*
X123226000Y-56584947D03*
G04 #@! TA.AperFunction,ComponentPad*
D11*
G36*
X121429949Y-59653790D02*
G01*
X120157157Y-58380998D01*
X121429949Y-57108206D01*
X122702741Y-58380998D01*
X121429949Y-59653790D01*
G37*
G04 #@! TD.AperFunction*
D10*
X119416000Y-56584947D03*
G04 #@! TA.AperFunction,ComponentPad*
D11*
G36*
X117619949Y-59653790D02*
G01*
X116347157Y-58380998D01*
X117619949Y-57108206D01*
X118892741Y-58380998D01*
X117619949Y-59653790D01*
G37*
G04 #@! TD.AperFunction*
D10*
X111796000Y-56584947D03*
G04 #@! TA.AperFunction,ComponentPad*
D11*
G36*
X109999949Y-59653790D02*
G01*
X108727157Y-58380998D01*
X109999949Y-57108206D01*
X111272741Y-58380998D01*
X109999949Y-59653790D01*
G37*
G04 #@! TD.AperFunction*
D10*
X130846000Y-109924947D03*
G04 #@! TA.AperFunction,ComponentPad*
D11*
G36*
X129049949Y-112993790D02*
G01*
X127777157Y-111720998D01*
X129049949Y-110448206D01*
X130322741Y-111720998D01*
X129049949Y-112993790D01*
G37*
G04 #@! TD.AperFunction*
D10*
X123226000Y-109924947D03*
G04 #@! TA.AperFunction,ComponentPad*
D11*
G36*
X121429949Y-112993790D02*
G01*
X120157157Y-111720998D01*
X121429949Y-110448206D01*
X122702741Y-111720998D01*
X121429949Y-112993790D01*
G37*
G04 #@! TD.AperFunction*
D10*
X88936000Y-109924947D03*
G04 #@! TA.AperFunction,ComponentPad*
D11*
G36*
X87139949Y-112993790D02*
G01*
X85867157Y-111720998D01*
X87139949Y-110448206D01*
X88412741Y-111720998D01*
X87139949Y-112993790D01*
G37*
G04 #@! TD.AperFunction*
D10*
X81316000Y-109924947D03*
G04 #@! TA.AperFunction,ComponentPad*
D11*
G36*
X79519949Y-112993790D02*
G01*
X78247157Y-111720998D01*
X79519949Y-110448206D01*
X80792741Y-111720998D01*
X79519949Y-112993790D01*
G37*
G04 #@! TD.AperFunction*
D10*
X123226000Y-106114947D03*
G04 #@! TA.AperFunction,ComponentPad*
D11*
G36*
X121429949Y-109183790D02*
G01*
X120157157Y-107910998D01*
X121429949Y-106638206D01*
X122702741Y-107910998D01*
X121429949Y-109183790D01*
G37*
G04 #@! TD.AperFunction*
D10*
X88936000Y-106114947D03*
G04 #@! TA.AperFunction,ComponentPad*
D11*
G36*
X87139949Y-109183790D02*
G01*
X85867157Y-107910998D01*
X87139949Y-106638206D01*
X88412741Y-107910998D01*
X87139949Y-109183790D01*
G37*
G04 #@! TD.AperFunction*
D10*
X127036000Y-102304947D03*
G04 #@! TA.AperFunction,ComponentPad*
D11*
G36*
X125239949Y-105373790D02*
G01*
X123967157Y-104100998D01*
X125239949Y-102828206D01*
X126512741Y-104100998D01*
X125239949Y-105373790D01*
G37*
G04 #@! TD.AperFunction*
D10*
X123226000Y-102304947D03*
G04 #@! TA.AperFunction,ComponentPad*
D11*
G36*
X121429949Y-105373790D02*
G01*
X120157157Y-104100998D01*
X121429949Y-102828206D01*
X122702741Y-104100998D01*
X121429949Y-105373790D01*
G37*
G04 #@! TD.AperFunction*
D10*
X123226000Y-98494947D03*
G04 #@! TA.AperFunction,ComponentPad*
D11*
G36*
X121429949Y-101563790D02*
G01*
X120157157Y-100290998D01*
X121429949Y-99018206D01*
X122702741Y-100290998D01*
X121429949Y-101563790D01*
G37*
G04 #@! TD.AperFunction*
D10*
X111796000Y-98494947D03*
G04 #@! TA.AperFunction,ComponentPad*
D11*
G36*
X109999949Y-101563790D02*
G01*
X108727157Y-100290998D01*
X109999949Y-99018206D01*
X111272741Y-100290998D01*
X109999949Y-101563790D01*
G37*
G04 #@! TD.AperFunction*
D10*
X81316000Y-98494947D03*
G04 #@! TA.AperFunction,ComponentPad*
D11*
G36*
X79519949Y-101563790D02*
G01*
X78247157Y-100290998D01*
X79519949Y-99018206D01*
X80792741Y-100290998D01*
X79519949Y-101563790D01*
G37*
G04 #@! TD.AperFunction*
D10*
X123226000Y-94684947D03*
G04 #@! TA.AperFunction,ComponentPad*
D11*
G36*
X121429949Y-97753790D02*
G01*
X120157157Y-96480998D01*
X121429949Y-95208206D01*
X122702741Y-96480998D01*
X121429949Y-97753790D01*
G37*
G04 #@! TD.AperFunction*
D10*
X107986000Y-94684947D03*
G04 #@! TA.AperFunction,ComponentPad*
D11*
G36*
X106189949Y-97753790D02*
G01*
X104917157Y-96480998D01*
X106189949Y-95208206D01*
X107462741Y-96480998D01*
X106189949Y-97753790D01*
G37*
G04 #@! TD.AperFunction*
D10*
X92746000Y-94684947D03*
G04 #@! TA.AperFunction,ComponentPad*
D11*
G36*
X90949949Y-97753790D02*
G01*
X89677157Y-96480998D01*
X90949949Y-95208206D01*
X92222741Y-96480998D01*
X90949949Y-97753790D01*
G37*
G04 #@! TD.AperFunction*
D10*
X81316000Y-94684947D03*
G04 #@! TA.AperFunction,ComponentPad*
D11*
G36*
X79519949Y-97753790D02*
G01*
X78247157Y-96480998D01*
X79519949Y-95208206D01*
X80792741Y-96480998D01*
X79519949Y-97753790D01*
G37*
G04 #@! TD.AperFunction*
D10*
X127036000Y-90874947D03*
G04 #@! TA.AperFunction,ComponentPad*
D11*
G36*
X125239949Y-93943790D02*
G01*
X123967157Y-92670998D01*
X125239949Y-91398206D01*
X126512741Y-92670998D01*
X125239949Y-93943790D01*
G37*
G04 #@! TD.AperFunction*
D10*
X123226000Y-90874947D03*
G04 #@! TA.AperFunction,ComponentPad*
D11*
G36*
X121429949Y-93943790D02*
G01*
X120157157Y-92670998D01*
X121429949Y-91398206D01*
X122702741Y-92670998D01*
X121429949Y-93943790D01*
G37*
G04 #@! TD.AperFunction*
D10*
X100366000Y-90874947D03*
G04 #@! TA.AperFunction,ComponentPad*
D11*
G36*
X98569949Y-93943790D02*
G01*
X97297157Y-92670998D01*
X98569949Y-91398206D01*
X99842741Y-92670998D01*
X98569949Y-93943790D01*
G37*
G04 #@! TD.AperFunction*
D10*
X123226000Y-87064947D03*
G04 #@! TA.AperFunction,ComponentPad*
D11*
G36*
X121429949Y-90133790D02*
G01*
X120157157Y-88860998D01*
X121429949Y-87588206D01*
X122702741Y-88860998D01*
X121429949Y-90133790D01*
G37*
G04 #@! TD.AperFunction*
D10*
X104176000Y-87064947D03*
G04 #@! TA.AperFunction,ComponentPad*
D11*
G36*
X102379949Y-90133790D02*
G01*
X101107157Y-88860998D01*
X102379949Y-87588206D01*
X103652741Y-88860998D01*
X102379949Y-90133790D01*
G37*
G04 #@! TD.AperFunction*
D10*
X88936000Y-87064947D03*
G04 #@! TA.AperFunction,ComponentPad*
D11*
G36*
X87139949Y-90133790D02*
G01*
X85867157Y-88860998D01*
X87139949Y-87588206D01*
X88412741Y-88860998D01*
X87139949Y-90133790D01*
G37*
G04 #@! TD.AperFunction*
D10*
X123226000Y-83254947D03*
G04 #@! TA.AperFunction,ComponentPad*
D11*
G36*
X121429949Y-86323790D02*
G01*
X120157157Y-85050998D01*
X121429949Y-83778206D01*
X122702741Y-85050998D01*
X121429949Y-86323790D01*
G37*
G04 #@! TD.AperFunction*
D10*
X123226000Y-79444947D03*
G04 #@! TA.AperFunction,ComponentPad*
D11*
G36*
X121429949Y-82513790D02*
G01*
X120157157Y-81240998D01*
X121429949Y-79968206D01*
X122702741Y-81240998D01*
X121429949Y-82513790D01*
G37*
G04 #@! TD.AperFunction*
D10*
X107986000Y-79444947D03*
G04 #@! TA.AperFunction,ComponentPad*
D11*
G36*
X106189949Y-82513790D02*
G01*
X104917157Y-81240998D01*
X106189949Y-79968206D01*
X107462741Y-81240998D01*
X106189949Y-82513790D01*
G37*
G04 #@! TD.AperFunction*
D10*
X92746000Y-79444947D03*
G04 #@! TA.AperFunction,ComponentPad*
D11*
G36*
X90949949Y-82513790D02*
G01*
X89677157Y-81240998D01*
X90949949Y-79968206D01*
X92222741Y-81240998D01*
X90949949Y-82513790D01*
G37*
G04 #@! TD.AperFunction*
D10*
X127036000Y-75634947D03*
G04 #@! TA.AperFunction,ComponentPad*
D11*
G36*
X125239949Y-78703790D02*
G01*
X123967157Y-77430998D01*
X125239949Y-76158206D01*
X126512741Y-77430998D01*
X125239949Y-78703790D01*
G37*
G04 #@! TD.AperFunction*
D10*
X123226000Y-75634947D03*
G04 #@! TA.AperFunction,ComponentPad*
D11*
G36*
X121429949Y-78703790D02*
G01*
X120157157Y-77430998D01*
X121429949Y-76158206D01*
X122702741Y-77430998D01*
X121429949Y-78703790D01*
G37*
G04 #@! TD.AperFunction*
D10*
X96556000Y-75634947D03*
G04 #@! TA.AperFunction,ComponentPad*
D11*
G36*
X94759949Y-78703790D02*
G01*
X93487157Y-77430998D01*
X94759949Y-76158206D01*
X96032741Y-77430998D01*
X94759949Y-78703790D01*
G37*
G04 #@! TD.AperFunction*
D10*
X123226000Y-71824947D03*
G04 #@! TA.AperFunction,ComponentPad*
D11*
G36*
X121429949Y-74893790D02*
G01*
X120157157Y-73620998D01*
X121429949Y-72348206D01*
X122702741Y-73620998D01*
X121429949Y-74893790D01*
G37*
G04 #@! TD.AperFunction*
D10*
X104176000Y-71824947D03*
G04 #@! TA.AperFunction,ComponentPad*
D11*
G36*
X102379949Y-74893790D02*
G01*
X101107157Y-73620998D01*
X102379949Y-72348206D01*
X103652741Y-73620998D01*
X102379949Y-74893790D01*
G37*
G04 #@! TD.AperFunction*
D10*
X88936000Y-71824947D03*
G04 #@! TA.AperFunction,ComponentPad*
D11*
G36*
X87139949Y-74893790D02*
G01*
X85867157Y-73620998D01*
X87139949Y-72348206D01*
X88412741Y-73620998D01*
X87139949Y-74893790D01*
G37*
G04 #@! TD.AperFunction*
D10*
X123226000Y-68014947D03*
G04 #@! TA.AperFunction,ComponentPad*
D11*
G36*
X121429949Y-71083790D02*
G01*
X120157157Y-69810998D01*
X121429949Y-68538206D01*
X122702741Y-69810998D01*
X121429949Y-71083790D01*
G37*
G04 #@! TD.AperFunction*
D10*
X81316000Y-79444947D03*
G04 #@! TA.AperFunction,ComponentPad*
D11*
G36*
X79519949Y-82513790D02*
G01*
X78247157Y-81240998D01*
X79519949Y-79968206D01*
X80792741Y-81240998D01*
X79519949Y-82513790D01*
G37*
G04 #@! TD.AperFunction*
D10*
X115606000Y-64204947D03*
G04 #@! TA.AperFunction,ComponentPad*
D11*
G36*
X113809949Y-67273790D02*
G01*
X112537157Y-66000998D01*
X113809949Y-64728206D01*
X115082741Y-66000998D01*
X113809949Y-67273790D01*
G37*
G04 #@! TD.AperFunction*
D10*
X88936000Y-64204947D03*
G04 #@! TA.AperFunction,ComponentPad*
D11*
G36*
X87139949Y-67273790D02*
G01*
X85867157Y-66000998D01*
X87139949Y-64728206D01*
X88412741Y-66000998D01*
X87139949Y-67273790D01*
G37*
G04 #@! TD.AperFunction*
D10*
X85126000Y-64204947D03*
G04 #@! TA.AperFunction,ComponentPad*
D11*
G36*
X83329949Y-67273790D02*
G01*
X82057157Y-66000998D01*
X83329949Y-64728206D01*
X84602741Y-66000998D01*
X83329949Y-67273790D01*
G37*
G04 #@! TD.AperFunction*
D10*
X119416000Y-60394947D03*
G04 #@! TA.AperFunction,ComponentPad*
D11*
G36*
X117619949Y-63463790D02*
G01*
X116347157Y-62190998D01*
X117619949Y-60918206D01*
X118892741Y-62190998D01*
X117619949Y-63463790D01*
G37*
G04 #@! TD.AperFunction*
D10*
X115606000Y-60394947D03*
G04 #@! TA.AperFunction,ComponentPad*
D11*
G36*
X113809949Y-63463790D02*
G01*
X112537157Y-62190998D01*
X113809949Y-60918206D01*
X115082741Y-62190998D01*
X113809949Y-63463790D01*
G37*
G04 #@! TD.AperFunction*
D10*
X115606000Y-56584947D03*
G04 #@! TA.AperFunction,ComponentPad*
D11*
G36*
X113809949Y-59653790D02*
G01*
X112537157Y-58380998D01*
X113809949Y-57108206D01*
X115082741Y-58380998D01*
X113809949Y-59653790D01*
G37*
G04 #@! TD.AperFunction*
D10*
X88936000Y-60394947D03*
G04 #@! TA.AperFunction,ComponentPad*
D11*
G36*
X87139949Y-63463790D02*
G01*
X85867157Y-62190998D01*
X87139949Y-60918206D01*
X88412741Y-62190998D01*
X87139949Y-63463790D01*
G37*
G04 #@! TD.AperFunction*
D10*
X107986000Y-113734947D03*
G04 #@! TA.AperFunction,ComponentPad*
D11*
G36*
X106189949Y-116803790D02*
G01*
X104917157Y-115530998D01*
X106189949Y-114258206D01*
X107462741Y-115530998D01*
X106189949Y-116803790D01*
G37*
G04 #@! TD.AperFunction*
D10*
X104176000Y-113734947D03*
G04 #@! TA.AperFunction,ComponentPad*
D11*
G36*
X102379949Y-116803790D02*
G01*
X101107157Y-115530998D01*
X102379949Y-114258206D01*
X103652741Y-115530998D01*
X102379949Y-116803790D01*
G37*
G04 #@! TD.AperFunction*
D10*
X100366000Y-113734947D03*
G04 #@! TA.AperFunction,ComponentPad*
D11*
G36*
X98569949Y-116803790D02*
G01*
X97297157Y-115530998D01*
X98569949Y-114258206D01*
X99842741Y-115530998D01*
X98569949Y-116803790D01*
G37*
G04 #@! TD.AperFunction*
D10*
X96556000Y-113734947D03*
G04 #@! TA.AperFunction,ComponentPad*
D11*
G36*
X94759949Y-116803790D02*
G01*
X93487157Y-115530998D01*
X94759949Y-114258206D01*
X96032741Y-115530998D01*
X94759949Y-116803790D01*
G37*
G04 #@! TD.AperFunction*
D10*
X92746000Y-113734947D03*
G04 #@! TA.AperFunction,ComponentPad*
D11*
G36*
X90949949Y-116803790D02*
G01*
X89677157Y-115530998D01*
X90949949Y-114258206D01*
X92222741Y-115530998D01*
X90949949Y-116803790D01*
G37*
G04 #@! TD.AperFunction*
D10*
X88936000Y-113734947D03*
G04 #@! TA.AperFunction,ComponentPad*
D11*
G36*
X87139949Y-116803790D02*
G01*
X85867157Y-115530998D01*
X87139949Y-114258206D01*
X88412741Y-115530998D01*
X87139949Y-116803790D01*
G37*
G04 #@! TD.AperFunction*
D10*
X85126000Y-113734947D03*
G04 #@! TA.AperFunction,ComponentPad*
D11*
G36*
X83329949Y-116803790D02*
G01*
X82057157Y-115530998D01*
X83329949Y-114258206D01*
X84602741Y-115530998D01*
X83329949Y-116803790D01*
G37*
G04 #@! TD.AperFunction*
D10*
X81316000Y-113734947D03*
G04 #@! TA.AperFunction,ComponentPad*
D11*
G36*
X79519949Y-116803790D02*
G01*
X78247157Y-115530998D01*
X79519949Y-114258206D01*
X80792741Y-115530998D01*
X79519949Y-116803790D01*
G37*
G04 #@! TD.AperFunction*
D10*
X107986000Y-109924947D03*
G04 #@! TA.AperFunction,ComponentPad*
D11*
G36*
X106189949Y-112993790D02*
G01*
X104917157Y-111720998D01*
X106189949Y-110448206D01*
X107462741Y-111720998D01*
X106189949Y-112993790D01*
G37*
G04 #@! TD.AperFunction*
D10*
X104176000Y-109924947D03*
G04 #@! TA.AperFunction,ComponentPad*
D11*
G36*
X102379949Y-112993790D02*
G01*
X101107157Y-111720998D01*
X102379949Y-110448206D01*
X103652741Y-111720998D01*
X102379949Y-112993790D01*
G37*
G04 #@! TD.AperFunction*
D10*
X100366000Y-109924947D03*
G04 #@! TA.AperFunction,ComponentPad*
D11*
G36*
X98569949Y-112993790D02*
G01*
X97297157Y-111720998D01*
X98569949Y-110448206D01*
X99842741Y-111720998D01*
X98569949Y-112993790D01*
G37*
G04 #@! TD.AperFunction*
D10*
X96556000Y-109924947D03*
G04 #@! TA.AperFunction,ComponentPad*
D11*
G36*
X94759949Y-112993790D02*
G01*
X93487157Y-111720998D01*
X94759949Y-110448206D01*
X96032741Y-111720998D01*
X94759949Y-112993790D01*
G37*
G04 #@! TD.AperFunction*
D10*
X92746000Y-109924947D03*
G04 #@! TA.AperFunction,ComponentPad*
D11*
G36*
X90949949Y-112993790D02*
G01*
X89677157Y-111720998D01*
X90949949Y-110448206D01*
X92222741Y-111720998D01*
X90949949Y-112993790D01*
G37*
G04 #@! TD.AperFunction*
D10*
X85126000Y-109924947D03*
G04 #@! TA.AperFunction,ComponentPad*
D11*
G36*
X83329949Y-112993790D02*
G01*
X82057157Y-111720998D01*
X83329949Y-110448206D01*
X84602741Y-111720998D01*
X83329949Y-112993790D01*
G37*
G04 #@! TD.AperFunction*
D10*
X107986000Y-106114947D03*
G04 #@! TA.AperFunction,ComponentPad*
D11*
G36*
X106189949Y-109183790D02*
G01*
X104917157Y-107910998D01*
X106189949Y-106638206D01*
X107462741Y-107910998D01*
X106189949Y-109183790D01*
G37*
G04 #@! TD.AperFunction*
D10*
X104176000Y-106114947D03*
G04 #@! TA.AperFunction,ComponentPad*
D11*
G36*
X102379949Y-109183790D02*
G01*
X101107157Y-107910998D01*
X102379949Y-106638206D01*
X103652741Y-107910998D01*
X102379949Y-109183790D01*
G37*
G04 #@! TD.AperFunction*
D10*
X100366000Y-106114947D03*
G04 #@! TA.AperFunction,ComponentPad*
D11*
G36*
X98569949Y-109183790D02*
G01*
X97297157Y-107910998D01*
X98569949Y-106638206D01*
X99842741Y-107910998D01*
X98569949Y-109183790D01*
G37*
G04 #@! TD.AperFunction*
D10*
X96556000Y-106114947D03*
G04 #@! TA.AperFunction,ComponentPad*
D11*
G36*
X94759949Y-109183790D02*
G01*
X93487157Y-107910998D01*
X94759949Y-106638206D01*
X96032741Y-107910998D01*
X94759949Y-109183790D01*
G37*
G04 #@! TD.AperFunction*
D10*
X92746000Y-106114947D03*
G04 #@! TA.AperFunction,ComponentPad*
D11*
G36*
X90949949Y-109183790D02*
G01*
X89677157Y-107910998D01*
X90949949Y-106638206D01*
X92222741Y-107910998D01*
X90949949Y-109183790D01*
G37*
G04 #@! TD.AperFunction*
D10*
X85126000Y-106114947D03*
G04 #@! TA.AperFunction,ComponentPad*
D11*
G36*
X83329949Y-109183790D02*
G01*
X82057157Y-107910998D01*
X83329949Y-106638206D01*
X84602741Y-107910998D01*
X83329949Y-109183790D01*
G37*
G04 #@! TD.AperFunction*
D10*
X81316000Y-106114947D03*
G04 #@! TA.AperFunction,ComponentPad*
D11*
G36*
X79519949Y-109183790D02*
G01*
X78247157Y-107910998D01*
X79519949Y-106638206D01*
X80792741Y-107910998D01*
X79519949Y-109183790D01*
G37*
G04 #@! TD.AperFunction*
D10*
X107986000Y-102304947D03*
G04 #@! TA.AperFunction,ComponentPad*
D11*
G36*
X106189949Y-105373790D02*
G01*
X104917157Y-104100998D01*
X106189949Y-102828206D01*
X107462741Y-104100998D01*
X106189949Y-105373790D01*
G37*
G04 #@! TD.AperFunction*
D10*
X104176000Y-102304947D03*
G04 #@! TA.AperFunction,ComponentPad*
D11*
G36*
X102379949Y-105373790D02*
G01*
X101107157Y-104100998D01*
X102379949Y-102828206D01*
X103652741Y-104100998D01*
X102379949Y-105373790D01*
G37*
G04 #@! TD.AperFunction*
D10*
X100366000Y-102304947D03*
G04 #@! TA.AperFunction,ComponentPad*
D11*
G36*
X98569949Y-105373790D02*
G01*
X97297157Y-104100998D01*
X98569949Y-102828206D01*
X99842741Y-104100998D01*
X98569949Y-105373790D01*
G37*
G04 #@! TD.AperFunction*
D10*
X96556000Y-102304947D03*
G04 #@! TA.AperFunction,ComponentPad*
D11*
G36*
X94759949Y-105373790D02*
G01*
X93487157Y-104100998D01*
X94759949Y-102828206D01*
X96032741Y-104100998D01*
X94759949Y-105373790D01*
G37*
G04 #@! TD.AperFunction*
D10*
X92746000Y-102304947D03*
G04 #@! TA.AperFunction,ComponentPad*
D11*
G36*
X90949949Y-105373790D02*
G01*
X89677157Y-104100998D01*
X90949949Y-102828206D01*
X92222741Y-104100998D01*
X90949949Y-105373790D01*
G37*
G04 #@! TD.AperFunction*
D10*
X88936000Y-102304947D03*
G04 #@! TA.AperFunction,ComponentPad*
D11*
G36*
X87139949Y-105373790D02*
G01*
X85867157Y-104100998D01*
X87139949Y-102828206D01*
X88412741Y-104100998D01*
X87139949Y-105373790D01*
G37*
G04 #@! TD.AperFunction*
D10*
X85126000Y-102304947D03*
G04 #@! TA.AperFunction,ComponentPad*
D11*
G36*
X83329949Y-105373790D02*
G01*
X82057157Y-104100998D01*
X83329949Y-102828206D01*
X84602741Y-104100998D01*
X83329949Y-105373790D01*
G37*
G04 #@! TD.AperFunction*
D10*
X81316000Y-102304947D03*
G04 #@! TA.AperFunction,ComponentPad*
D11*
G36*
X79519949Y-105373790D02*
G01*
X78247157Y-104100998D01*
X79519949Y-102828206D01*
X80792741Y-104100998D01*
X79519949Y-105373790D01*
G37*
G04 #@! TD.AperFunction*
D10*
X107986000Y-98494947D03*
G04 #@! TA.AperFunction,ComponentPad*
D11*
G36*
X106189949Y-101563790D02*
G01*
X104917157Y-100290998D01*
X106189949Y-99018206D01*
X107462741Y-100290998D01*
X106189949Y-101563790D01*
G37*
G04 #@! TD.AperFunction*
D10*
X104176000Y-98494947D03*
G04 #@! TA.AperFunction,ComponentPad*
D11*
G36*
X102379949Y-101563790D02*
G01*
X101107157Y-100290998D01*
X102379949Y-99018206D01*
X103652741Y-100290998D01*
X102379949Y-101563790D01*
G37*
G04 #@! TD.AperFunction*
D10*
X100366000Y-98494947D03*
G04 #@! TA.AperFunction,ComponentPad*
D11*
G36*
X98569949Y-101563790D02*
G01*
X97297157Y-100290998D01*
X98569949Y-99018206D01*
X99842741Y-100290998D01*
X98569949Y-101563790D01*
G37*
G04 #@! TD.AperFunction*
D10*
X96556000Y-98494947D03*
G04 #@! TA.AperFunction,ComponentPad*
D11*
G36*
X94759949Y-101563790D02*
G01*
X93487157Y-100290998D01*
X94759949Y-99018206D01*
X96032741Y-100290998D01*
X94759949Y-101563790D01*
G37*
G04 #@! TD.AperFunction*
D10*
X92746000Y-98494947D03*
G04 #@! TA.AperFunction,ComponentPad*
D11*
G36*
X90949949Y-101563790D02*
G01*
X89677157Y-100290998D01*
X90949949Y-99018206D01*
X92222741Y-100290998D01*
X90949949Y-101563790D01*
G37*
G04 #@! TD.AperFunction*
D10*
X88936000Y-98494947D03*
G04 #@! TA.AperFunction,ComponentPad*
D11*
G36*
X87139949Y-101563790D02*
G01*
X85867157Y-100290998D01*
X87139949Y-99018206D01*
X88412741Y-100290998D01*
X87139949Y-101563790D01*
G37*
G04 #@! TD.AperFunction*
D10*
X85126000Y-98494947D03*
G04 #@! TA.AperFunction,ComponentPad*
D11*
G36*
X83329949Y-101563790D02*
G01*
X82057157Y-100290998D01*
X83329949Y-99018206D01*
X84602741Y-100290998D01*
X83329949Y-101563790D01*
G37*
G04 #@! TD.AperFunction*
D10*
X104176000Y-94684947D03*
G04 #@! TA.AperFunction,ComponentPad*
D11*
G36*
X102379949Y-97753790D02*
G01*
X101107157Y-96480998D01*
X102379949Y-95208206D01*
X103652741Y-96480998D01*
X102379949Y-97753790D01*
G37*
G04 #@! TD.AperFunction*
D10*
X100366000Y-94684947D03*
G04 #@! TA.AperFunction,ComponentPad*
D11*
G36*
X98569949Y-97753790D02*
G01*
X97297157Y-96480998D01*
X98569949Y-95208206D01*
X99842741Y-96480998D01*
X98569949Y-97753790D01*
G37*
G04 #@! TD.AperFunction*
D10*
X96556000Y-94684947D03*
G04 #@! TA.AperFunction,ComponentPad*
D11*
G36*
X94759949Y-97753790D02*
G01*
X93487157Y-96480998D01*
X94759949Y-95208206D01*
X96032741Y-96480998D01*
X94759949Y-97753790D01*
G37*
G04 #@! TD.AperFunction*
D10*
X88936000Y-94684947D03*
G04 #@! TA.AperFunction,ComponentPad*
D11*
G36*
X87139949Y-97753790D02*
G01*
X85867157Y-96480998D01*
X87139949Y-95208206D01*
X88412741Y-96480998D01*
X87139949Y-97753790D01*
G37*
G04 #@! TD.AperFunction*
D10*
X85126000Y-94684947D03*
G04 #@! TA.AperFunction,ComponentPad*
D11*
G36*
X83329949Y-97753790D02*
G01*
X82057157Y-96480998D01*
X83329949Y-95208206D01*
X84602741Y-96480998D01*
X83329949Y-97753790D01*
G37*
G04 #@! TD.AperFunction*
D10*
X107986000Y-90874947D03*
G04 #@! TA.AperFunction,ComponentPad*
D11*
G36*
X106189949Y-93943790D02*
G01*
X104917157Y-92670998D01*
X106189949Y-91398206D01*
X107462741Y-92670998D01*
X106189949Y-93943790D01*
G37*
G04 #@! TD.AperFunction*
D10*
X104176000Y-90874947D03*
G04 #@! TA.AperFunction,ComponentPad*
D11*
G36*
X102379949Y-93943790D02*
G01*
X101107157Y-92670998D01*
X102379949Y-91398206D01*
X103652741Y-92670998D01*
X102379949Y-93943790D01*
G37*
G04 #@! TD.AperFunction*
D10*
X96574051Y-90874947D03*
G04 #@! TA.AperFunction,ComponentPad*
D11*
G36*
X94778000Y-93943790D02*
G01*
X93505208Y-92670998D01*
X94778000Y-91398206D01*
X96050792Y-92670998D01*
X94778000Y-93943790D01*
G37*
G04 #@! TD.AperFunction*
D10*
X92746000Y-90874947D03*
G04 #@! TA.AperFunction,ComponentPad*
D11*
G36*
X90949949Y-93943790D02*
G01*
X89677157Y-92670998D01*
X90949949Y-91398206D01*
X92222741Y-92670998D01*
X90949949Y-93943790D01*
G37*
G04 #@! TD.AperFunction*
D10*
X88936000Y-90874947D03*
G04 #@! TA.AperFunction,ComponentPad*
D11*
G36*
X87139949Y-93943790D02*
G01*
X85867157Y-92670998D01*
X87139949Y-91398206D01*
X88412741Y-92670998D01*
X87139949Y-93943790D01*
G37*
G04 #@! TD.AperFunction*
D10*
X85126000Y-90874947D03*
G04 #@! TA.AperFunction,ComponentPad*
D11*
G36*
X83329949Y-93943790D02*
G01*
X82057157Y-92670998D01*
X83329949Y-91398206D01*
X84602741Y-92670998D01*
X83329949Y-93943790D01*
G37*
G04 #@! TD.AperFunction*
D10*
X81316000Y-90874947D03*
G04 #@! TA.AperFunction,ComponentPad*
D11*
G36*
X79519949Y-93943790D02*
G01*
X78247157Y-92670998D01*
X79519949Y-91398206D01*
X80792741Y-92670998D01*
X79519949Y-93943790D01*
G37*
G04 #@! TD.AperFunction*
D10*
X107986000Y-87064947D03*
G04 #@! TA.AperFunction,ComponentPad*
D11*
G36*
X106189949Y-90133790D02*
G01*
X104917157Y-88860998D01*
X106189949Y-87588206D01*
X107462741Y-88860998D01*
X106189949Y-90133790D01*
G37*
G04 #@! TD.AperFunction*
D10*
X100366000Y-87064947D03*
G04 #@! TA.AperFunction,ComponentPad*
D11*
G36*
X98569949Y-90133790D02*
G01*
X97297157Y-88860998D01*
X98569949Y-87588206D01*
X99842741Y-88860998D01*
X98569949Y-90133790D01*
G37*
G04 #@! TD.AperFunction*
D10*
X96556000Y-87064947D03*
G04 #@! TA.AperFunction,ComponentPad*
D11*
G36*
X94759949Y-90133790D02*
G01*
X93487157Y-88860998D01*
X94759949Y-87588206D01*
X96032741Y-88860998D01*
X94759949Y-90133790D01*
G37*
G04 #@! TD.AperFunction*
D10*
X92746000Y-87064947D03*
G04 #@! TA.AperFunction,ComponentPad*
D11*
G36*
X90949949Y-90133790D02*
G01*
X89677157Y-88860998D01*
X90949949Y-87588206D01*
X92222741Y-88860998D01*
X90949949Y-90133790D01*
G37*
G04 #@! TD.AperFunction*
D10*
X85126000Y-87064947D03*
G04 #@! TA.AperFunction,ComponentPad*
D11*
G36*
X83329949Y-90133790D02*
G01*
X82057157Y-88860998D01*
X83329949Y-87588206D01*
X84602741Y-88860998D01*
X83329949Y-90133790D01*
G37*
G04 #@! TD.AperFunction*
D10*
X81316000Y-87064947D03*
G04 #@! TA.AperFunction,ComponentPad*
D11*
G36*
X79519949Y-90133790D02*
G01*
X78247157Y-88860998D01*
X79519949Y-87588206D01*
X80792741Y-88860998D01*
X79519949Y-90133790D01*
G37*
G04 #@! TD.AperFunction*
D10*
X107986000Y-83254947D03*
G04 #@! TA.AperFunction,ComponentPad*
D11*
G36*
X106189949Y-86323790D02*
G01*
X104917157Y-85050998D01*
X106189949Y-83778206D01*
X107462741Y-85050998D01*
X106189949Y-86323790D01*
G37*
G04 #@! TD.AperFunction*
D10*
X104176000Y-83254947D03*
G04 #@! TA.AperFunction,ComponentPad*
D11*
G36*
X102379949Y-86323790D02*
G01*
X101107157Y-85050998D01*
X102379949Y-83778206D01*
X103652741Y-85050998D01*
X102379949Y-86323790D01*
G37*
G04 #@! TD.AperFunction*
D10*
X100366000Y-83254947D03*
G04 #@! TA.AperFunction,ComponentPad*
D11*
G36*
X98569949Y-86323790D02*
G01*
X97297157Y-85050998D01*
X98569949Y-83778206D01*
X99842741Y-85050998D01*
X98569949Y-86323790D01*
G37*
G04 #@! TD.AperFunction*
D10*
X96556000Y-83254947D03*
G04 #@! TA.AperFunction,ComponentPad*
D11*
G36*
X94759949Y-86323790D02*
G01*
X93487157Y-85050998D01*
X94759949Y-83778206D01*
X96032741Y-85050998D01*
X94759949Y-86323790D01*
G37*
G04 #@! TD.AperFunction*
D10*
X92746000Y-83254947D03*
G04 #@! TA.AperFunction,ComponentPad*
D11*
G36*
X90949949Y-86323790D02*
G01*
X89677157Y-85050998D01*
X90949949Y-83778206D01*
X92222741Y-85050998D01*
X90949949Y-86323790D01*
G37*
G04 #@! TD.AperFunction*
D10*
X88936000Y-83254947D03*
G04 #@! TA.AperFunction,ComponentPad*
D11*
G36*
X87139949Y-86323790D02*
G01*
X85867157Y-85050998D01*
X87139949Y-83778206D01*
X88412741Y-85050998D01*
X87139949Y-86323790D01*
G37*
G04 #@! TD.AperFunction*
D10*
X85126000Y-83254947D03*
G04 #@! TA.AperFunction,ComponentPad*
D11*
G36*
X83329949Y-86323790D02*
G01*
X82057157Y-85050998D01*
X83329949Y-83778206D01*
X84602741Y-85050998D01*
X83329949Y-86323790D01*
G37*
G04 #@! TD.AperFunction*
D10*
X81316000Y-83254947D03*
G04 #@! TA.AperFunction,ComponentPad*
D11*
G36*
X79519949Y-86323790D02*
G01*
X78247157Y-85050998D01*
X79519949Y-83778206D01*
X80792741Y-85050998D01*
X79519949Y-86323790D01*
G37*
G04 #@! TD.AperFunction*
D10*
X104176000Y-79444947D03*
G04 #@! TA.AperFunction,ComponentPad*
D11*
G36*
X102379949Y-82513790D02*
G01*
X101107157Y-81240998D01*
X102379949Y-79968206D01*
X103652741Y-81240998D01*
X102379949Y-82513790D01*
G37*
G04 #@! TD.AperFunction*
D10*
X100366000Y-79444947D03*
G04 #@! TA.AperFunction,ComponentPad*
D11*
G36*
X98569949Y-82513790D02*
G01*
X97297157Y-81240998D01*
X98569949Y-79968206D01*
X99842741Y-81240998D01*
X98569949Y-82513790D01*
G37*
G04 #@! TD.AperFunction*
D10*
X96556000Y-79444947D03*
G04 #@! TA.AperFunction,ComponentPad*
D11*
G36*
X94759949Y-82513790D02*
G01*
X93487157Y-81240998D01*
X94759949Y-79968206D01*
X96032741Y-81240998D01*
X94759949Y-82513790D01*
G37*
G04 #@! TD.AperFunction*
D10*
X88936000Y-79444947D03*
G04 #@! TA.AperFunction,ComponentPad*
D11*
G36*
X87139949Y-82513790D02*
G01*
X85867157Y-81240998D01*
X87139949Y-79968206D01*
X88412741Y-81240998D01*
X87139949Y-82513790D01*
G37*
G04 #@! TD.AperFunction*
D10*
X85126000Y-79444947D03*
G04 #@! TA.AperFunction,ComponentPad*
D11*
G36*
X83329949Y-82513790D02*
G01*
X82057157Y-81240998D01*
X83329949Y-79968206D01*
X84602741Y-81240998D01*
X83329949Y-82513790D01*
G37*
G04 #@! TD.AperFunction*
D10*
X107986000Y-75634947D03*
G04 #@! TA.AperFunction,ComponentPad*
D11*
G36*
X106189949Y-78703790D02*
G01*
X104917157Y-77430998D01*
X106189949Y-76158206D01*
X107462741Y-77430998D01*
X106189949Y-78703790D01*
G37*
G04 #@! TD.AperFunction*
D10*
X104176000Y-75634947D03*
G04 #@! TA.AperFunction,ComponentPad*
D11*
G36*
X102379949Y-78703790D02*
G01*
X101107157Y-77430998D01*
X102379949Y-76158206D01*
X103652741Y-77430998D01*
X102379949Y-78703790D01*
G37*
G04 #@! TD.AperFunction*
D10*
X100366000Y-75634947D03*
G04 #@! TA.AperFunction,ComponentPad*
D11*
G36*
X98569949Y-78703790D02*
G01*
X97297157Y-77430998D01*
X98569949Y-76158206D01*
X99842741Y-77430998D01*
X98569949Y-78703790D01*
G37*
G04 #@! TD.AperFunction*
D10*
X92746000Y-75634947D03*
G04 #@! TA.AperFunction,ComponentPad*
D11*
G36*
X90949949Y-78703790D02*
G01*
X89677157Y-77430998D01*
X90949949Y-76158206D01*
X92222741Y-77430998D01*
X90949949Y-78703790D01*
G37*
G04 #@! TD.AperFunction*
D10*
X88936000Y-75634947D03*
G04 #@! TA.AperFunction,ComponentPad*
D11*
G36*
X87139949Y-78703790D02*
G01*
X85867157Y-77430998D01*
X87139949Y-76158206D01*
X88412741Y-77430998D01*
X87139949Y-78703790D01*
G37*
G04 #@! TD.AperFunction*
D10*
X85126000Y-75634947D03*
G04 #@! TA.AperFunction,ComponentPad*
D11*
G36*
X83329949Y-78703790D02*
G01*
X82057157Y-77430998D01*
X83329949Y-76158206D01*
X84602741Y-77430998D01*
X83329949Y-78703790D01*
G37*
G04 #@! TD.AperFunction*
D10*
X81316000Y-75634947D03*
G04 #@! TA.AperFunction,ComponentPad*
D11*
G36*
X79519949Y-78703790D02*
G01*
X78247157Y-77430998D01*
X79519949Y-76158206D01*
X80792741Y-77430998D01*
X79519949Y-78703790D01*
G37*
G04 #@! TD.AperFunction*
D10*
X107986000Y-71824947D03*
G04 #@! TA.AperFunction,ComponentPad*
D11*
G36*
X106189949Y-74893790D02*
G01*
X104917157Y-73620998D01*
X106189949Y-72348206D01*
X107462741Y-73620998D01*
X106189949Y-74893790D01*
G37*
G04 #@! TD.AperFunction*
D10*
X100366000Y-71824947D03*
G04 #@! TA.AperFunction,ComponentPad*
D11*
G36*
X98569949Y-74893790D02*
G01*
X97297157Y-73620998D01*
X98569949Y-72348206D01*
X99842741Y-73620998D01*
X98569949Y-74893790D01*
G37*
G04 #@! TD.AperFunction*
D10*
X96556000Y-71824947D03*
G04 #@! TA.AperFunction,ComponentPad*
D11*
G36*
X94759949Y-74893790D02*
G01*
X93487157Y-73620998D01*
X94759949Y-72348206D01*
X96032741Y-73620998D01*
X94759949Y-74893790D01*
G37*
G04 #@! TD.AperFunction*
D10*
X92746000Y-71824947D03*
G04 #@! TA.AperFunction,ComponentPad*
D11*
G36*
X90949949Y-74893790D02*
G01*
X89677157Y-73620998D01*
X90949949Y-72348206D01*
X92222741Y-73620998D01*
X90949949Y-74893790D01*
G37*
G04 #@! TD.AperFunction*
D10*
X85126000Y-71824947D03*
G04 #@! TA.AperFunction,ComponentPad*
D11*
G36*
X83329949Y-74893790D02*
G01*
X82057157Y-73620998D01*
X83329949Y-72348206D01*
X84602741Y-73620998D01*
X83329949Y-74893790D01*
G37*
G04 #@! TD.AperFunction*
D10*
X81316000Y-71824947D03*
G04 #@! TA.AperFunction,ComponentPad*
D11*
G36*
X79519949Y-74893790D02*
G01*
X78247157Y-73620998D01*
X79519949Y-72348206D01*
X80792741Y-73620998D01*
X79519949Y-74893790D01*
G37*
G04 #@! TD.AperFunction*
D10*
X107986000Y-68014947D03*
G04 #@! TA.AperFunction,ComponentPad*
D11*
G36*
X106189949Y-71083790D02*
G01*
X104917157Y-69810998D01*
X106189949Y-68538206D01*
X107462741Y-69810998D01*
X106189949Y-71083790D01*
G37*
G04 #@! TD.AperFunction*
D10*
X104176000Y-68014947D03*
G04 #@! TA.AperFunction,ComponentPad*
D11*
G36*
X102379949Y-71083790D02*
G01*
X101107157Y-69810998D01*
X102379949Y-68538206D01*
X103652741Y-69810998D01*
X102379949Y-71083790D01*
G37*
G04 #@! TD.AperFunction*
D10*
X100366000Y-68014947D03*
G04 #@! TA.AperFunction,ComponentPad*
D11*
G36*
X98569949Y-71083790D02*
G01*
X97297157Y-69810998D01*
X98569949Y-68538206D01*
X99842741Y-69810998D01*
X98569949Y-71083790D01*
G37*
G04 #@! TD.AperFunction*
D10*
X96556000Y-68014947D03*
G04 #@! TA.AperFunction,ComponentPad*
D11*
G36*
X94759949Y-71083790D02*
G01*
X93487157Y-69810998D01*
X94759949Y-68538206D01*
X96032741Y-69810998D01*
X94759949Y-71083790D01*
G37*
G04 #@! TD.AperFunction*
D10*
X92746000Y-68014947D03*
G04 #@! TA.AperFunction,ComponentPad*
D11*
G36*
X90949949Y-71083790D02*
G01*
X89677157Y-69810998D01*
X90949949Y-68538206D01*
X92222741Y-69810998D01*
X90949949Y-71083790D01*
G37*
G04 #@! TD.AperFunction*
D10*
X88936000Y-68014947D03*
G04 #@! TA.AperFunction,ComponentPad*
D11*
G36*
X87139949Y-71083790D02*
G01*
X85867157Y-69810998D01*
X87139949Y-68538206D01*
X88412741Y-69810998D01*
X87139949Y-71083790D01*
G37*
G04 #@! TD.AperFunction*
D10*
X85126000Y-68014947D03*
G04 #@! TA.AperFunction,ComponentPad*
D11*
G36*
X83329949Y-71083790D02*
G01*
X82057157Y-69810998D01*
X83329949Y-68538206D01*
X84602741Y-69810998D01*
X83329949Y-71083790D01*
G37*
G04 #@! TD.AperFunction*
D10*
X81316000Y-68014947D03*
G04 #@! TA.AperFunction,ComponentPad*
D11*
G36*
X79519949Y-71083790D02*
G01*
X78247157Y-69810998D01*
X79519949Y-68538206D01*
X80792741Y-69810998D01*
X79519949Y-71083790D01*
G37*
G04 #@! TD.AperFunction*
D10*
X107986000Y-64204947D03*
G04 #@! TA.AperFunction,ComponentPad*
D11*
G36*
X106189949Y-67273790D02*
G01*
X104917157Y-66000998D01*
X106189949Y-64728206D01*
X107462741Y-66000998D01*
X106189949Y-67273790D01*
G37*
G04 #@! TD.AperFunction*
D10*
X104176000Y-64204947D03*
G04 #@! TA.AperFunction,ComponentPad*
D11*
G36*
X102379949Y-67273790D02*
G01*
X101107157Y-66000998D01*
X102379949Y-64728206D01*
X103652741Y-66000998D01*
X102379949Y-67273790D01*
G37*
G04 #@! TD.AperFunction*
D10*
X100366000Y-64204947D03*
G04 #@! TA.AperFunction,ComponentPad*
D11*
G36*
X98569949Y-67273790D02*
G01*
X97297157Y-66000998D01*
X98569949Y-64728206D01*
X99842741Y-66000998D01*
X98569949Y-67273790D01*
G37*
G04 #@! TD.AperFunction*
D10*
X96556000Y-64204947D03*
G04 #@! TA.AperFunction,ComponentPad*
D11*
G36*
X94759949Y-67273790D02*
G01*
X93487157Y-66000998D01*
X94759949Y-64728206D01*
X96032741Y-66000998D01*
X94759949Y-67273790D01*
G37*
G04 #@! TD.AperFunction*
D10*
X92746000Y-64204947D03*
G04 #@! TA.AperFunction,ComponentPad*
D11*
G36*
X90949949Y-67273790D02*
G01*
X89677157Y-66000998D01*
X90949949Y-64728206D01*
X92222741Y-66000998D01*
X90949949Y-67273790D01*
G37*
G04 #@! TD.AperFunction*
D10*
X81316000Y-64204947D03*
G04 #@! TA.AperFunction,ComponentPad*
D11*
G36*
X79519949Y-67273790D02*
G01*
X78247157Y-66000998D01*
X79519949Y-64728206D01*
X80792741Y-66000998D01*
X79519949Y-67273790D01*
G37*
G04 #@! TD.AperFunction*
D10*
X107986000Y-60394947D03*
G04 #@! TA.AperFunction,ComponentPad*
D11*
G36*
X106189949Y-63463790D02*
G01*
X104917157Y-62190998D01*
X106189949Y-60918206D01*
X107462741Y-62190998D01*
X106189949Y-63463790D01*
G37*
G04 #@! TD.AperFunction*
D10*
X104176000Y-60394947D03*
G04 #@! TA.AperFunction,ComponentPad*
D11*
G36*
X102379949Y-63463790D02*
G01*
X101107157Y-62190998D01*
X102379949Y-60918206D01*
X103652741Y-62190998D01*
X102379949Y-63463790D01*
G37*
G04 #@! TD.AperFunction*
D10*
X100366000Y-60394947D03*
G04 #@! TA.AperFunction,ComponentPad*
D11*
G36*
X98569949Y-63463790D02*
G01*
X97297157Y-62190998D01*
X98569949Y-60918206D01*
X99842741Y-62190998D01*
X98569949Y-63463790D01*
G37*
G04 #@! TD.AperFunction*
D10*
X96556000Y-60394947D03*
G04 #@! TA.AperFunction,ComponentPad*
D11*
G36*
X94759949Y-63463790D02*
G01*
X93487157Y-62190998D01*
X94759949Y-60918206D01*
X96032741Y-62190998D01*
X94759949Y-63463790D01*
G37*
G04 #@! TD.AperFunction*
D10*
X92746000Y-60394947D03*
G04 #@! TA.AperFunction,ComponentPad*
D11*
G36*
X90949949Y-63463790D02*
G01*
X89677157Y-62190998D01*
X90949949Y-60918206D01*
X92222741Y-62190998D01*
X90949949Y-63463790D01*
G37*
G04 #@! TD.AperFunction*
D10*
X85126000Y-60394947D03*
G04 #@! TA.AperFunction,ComponentPad*
D11*
G36*
X83329949Y-63463790D02*
G01*
X82057157Y-62190998D01*
X83329949Y-60918206D01*
X84602741Y-62190998D01*
X83329949Y-63463790D01*
G37*
G04 #@! TD.AperFunction*
D10*
X81316000Y-60394947D03*
G04 #@! TA.AperFunction,ComponentPad*
D11*
G36*
X79519949Y-63463790D02*
G01*
X78247157Y-62190998D01*
X79519949Y-60918206D01*
X80792741Y-62190998D01*
X79519949Y-63463790D01*
G37*
G04 #@! TD.AperFunction*
D10*
X107986000Y-56584947D03*
G04 #@! TA.AperFunction,ComponentPad*
D11*
G36*
X106189949Y-59653790D02*
G01*
X104917157Y-58380998D01*
X106189949Y-57108206D01*
X107462741Y-58380998D01*
X106189949Y-59653790D01*
G37*
G04 #@! TD.AperFunction*
D10*
X104176000Y-56584947D03*
G04 #@! TA.AperFunction,ComponentPad*
D11*
G36*
X102379949Y-59653790D02*
G01*
X101107157Y-58380998D01*
X102379949Y-57108206D01*
X103652741Y-58380998D01*
X102379949Y-59653790D01*
G37*
G04 #@! TD.AperFunction*
D10*
X100366000Y-56584947D03*
G04 #@! TA.AperFunction,ComponentPad*
D11*
G36*
X98569949Y-59653790D02*
G01*
X97297157Y-58380998D01*
X98569949Y-57108206D01*
X99842741Y-58380998D01*
X98569949Y-59653790D01*
G37*
G04 #@! TD.AperFunction*
D10*
X96556000Y-56584947D03*
G04 #@! TA.AperFunction,ComponentPad*
D11*
G36*
X94759949Y-59653790D02*
G01*
X93487157Y-58380998D01*
X94759949Y-57108206D01*
X96032741Y-58380998D01*
X94759949Y-59653790D01*
G37*
G04 #@! TD.AperFunction*
D10*
X92746000Y-56584947D03*
G04 #@! TA.AperFunction,ComponentPad*
D11*
G36*
X90949949Y-59653790D02*
G01*
X89677157Y-58380998D01*
X90949949Y-57108206D01*
X92222741Y-58380998D01*
X90949949Y-59653790D01*
G37*
G04 #@! TD.AperFunction*
D10*
X88936000Y-56584947D03*
G04 #@! TA.AperFunction,ComponentPad*
D11*
G36*
X87139949Y-59653790D02*
G01*
X85867157Y-58380998D01*
X87139949Y-57108206D01*
X88412741Y-58380998D01*
X87139949Y-59653790D01*
G37*
G04 #@! TD.AperFunction*
D10*
X85126000Y-56584947D03*
G04 #@! TA.AperFunction,ComponentPad*
D11*
G36*
X83329949Y-59653790D02*
G01*
X82057157Y-58380998D01*
X83329949Y-57108206D01*
X84602741Y-58380998D01*
X83329949Y-59653790D01*
G37*
G04 #@! TD.AperFunction*
D10*
X81316000Y-56584947D03*
G04 #@! TA.AperFunction,ComponentPad*
D11*
G36*
X79519949Y-59653790D02*
G01*
X78247157Y-58380998D01*
X79519949Y-57108206D01*
X80792741Y-58380998D01*
X79519949Y-59653790D01*
G37*
G04 #@! TD.AperFunction*
D12*
X126401000Y-185380998D03*
G04 #@! TA.AperFunction,ComponentPad*
G36*
G01*
X129811000Y-184535997D02*
X129811000Y-186225999D01*
G75*
G02*
X129561001Y-186475998I-249999J0D01*
G01*
X128320999Y-186475998D01*
G75*
G02*
X128071000Y-186225999I0J249999D01*
G01*
X128071000Y-184535997D01*
G75*
G02*
X128320999Y-184285998I249999J0D01*
G01*
X129561001Y-184285998D01*
G75*
G02*
X129811000Y-184535997I0J-249999D01*
G01*
G37*
G04 #@! TD.AperFunction*
D13*
X133386000Y-52665998D03*
X130846000Y-52665998D03*
X128306000Y-52665998D03*
X125766000Y-52665998D03*
X123226000Y-52665998D03*
X120686000Y-52665998D03*
X118146000Y-52665998D03*
X115606000Y-52665998D03*
D14*
X113066000Y-52665998D03*
D13*
X102906000Y-52665998D03*
X100366000Y-52665998D03*
X97826000Y-52665998D03*
X95286000Y-52665998D03*
X92746000Y-52665998D03*
X90206000Y-52665998D03*
X87666000Y-52665998D03*
X85126000Y-52665998D03*
D14*
X82586000Y-52665998D03*
D15*
X78776000Y-37425998D03*
D16*
X68616000Y-37425998D03*
D17*
X87031000Y-38695998D03*
D18*
X92111000Y-38695998D03*
X89571000Y-38695998D03*
D19*
X73061000Y-90765998D03*
X65441000Y-108545998D03*
X73061000Y-93305998D03*
X65441000Y-106005998D03*
X73061000Y-95845998D03*
X65441000Y-103465998D03*
X73061000Y-98385998D03*
X65441000Y-100925998D03*
X73061000Y-100925998D03*
X65441000Y-98385998D03*
X73061000Y-103465998D03*
X65441000Y-95845998D03*
X73061000Y-106005998D03*
X65441000Y-93305998D03*
X73061000Y-108545998D03*
D20*
X65441000Y-90765998D03*
D19*
X73061000Y-64730998D03*
X65441000Y-82510998D03*
X73061000Y-67270998D03*
X65441000Y-79970998D03*
X73061000Y-69810998D03*
X65441000Y-77430998D03*
X73061000Y-72350998D03*
X65441000Y-74890998D03*
X73061000Y-74890998D03*
X65441000Y-72350998D03*
X73061000Y-77430998D03*
X65441000Y-69810998D03*
X73061000Y-79970998D03*
X65441000Y-67270998D03*
X73061000Y-82510998D03*
D20*
X65441000Y-64730998D03*
D21*
X69251000Y-57110998D03*
X51471000Y-49490998D03*
X66711000Y-57110998D03*
X54011000Y-49490998D03*
X64171000Y-57110998D03*
X56551000Y-49490998D03*
X61631000Y-57110998D03*
X59091000Y-49490998D03*
X59091000Y-57110998D03*
X61631000Y-49490998D03*
X56551000Y-57110998D03*
X64171000Y-49490998D03*
X54011000Y-57110998D03*
X66711000Y-49490998D03*
X51471000Y-57110998D03*
D22*
X69251000Y-49490998D03*
D21*
X114971000Y-129500998D03*
X137831000Y-137120998D03*
X117511000Y-129500998D03*
X135291000Y-137120998D03*
X120051000Y-129500998D03*
X132751000Y-137120998D03*
X122591000Y-129500998D03*
X130211000Y-137120998D03*
X125131000Y-129500998D03*
X127671000Y-137120998D03*
X127671000Y-129500998D03*
X125131000Y-137120998D03*
X130211000Y-129500998D03*
X122591000Y-137120998D03*
X132751000Y-129500998D03*
X120051000Y-137120998D03*
X135291000Y-129500998D03*
X117511000Y-137120998D03*
X137831000Y-129500998D03*
D22*
X114971000Y-137120998D03*
D21*
X83221000Y-129500998D03*
X106081000Y-137120998D03*
X85761000Y-129500998D03*
X103541000Y-137120998D03*
X88301000Y-129500998D03*
X101001000Y-137120998D03*
X90841000Y-129500998D03*
X98461000Y-137120998D03*
X93381000Y-129500998D03*
X95921000Y-137120998D03*
X95921000Y-129500998D03*
X93381000Y-137120998D03*
X98461000Y-129500998D03*
X90841000Y-137120998D03*
X101001000Y-129500998D03*
X88301000Y-137120998D03*
X103541000Y-129500998D03*
X85761000Y-137120998D03*
X106081000Y-129500998D03*
D22*
X83221000Y-137120998D03*
D23*
X130846000Y-173950998D03*
D24*
X130846000Y-163790998D03*
D23*
X125766000Y-173950998D03*
D24*
X125766000Y-163790998D03*
D23*
X120686000Y-173950998D03*
D24*
X120686000Y-163790998D03*
D23*
X115606000Y-173950998D03*
D24*
X115606000Y-163790998D03*
D23*
X110526000Y-173950998D03*
D24*
X110526000Y-163790998D03*
D23*
X105446000Y-173950998D03*
D24*
X105446000Y-163790998D03*
D23*
X100366000Y-173950998D03*
D24*
X100366000Y-163790998D03*
D23*
X95286000Y-173950998D03*
D24*
X95286000Y-163790998D03*
D23*
X90206000Y-173950998D03*
D24*
X90206000Y-163790998D03*
D23*
X85126000Y-173950998D03*
D24*
X85126000Y-163790998D03*
D23*
X80046000Y-173950998D03*
D24*
X80046000Y-163790998D03*
D23*
X74966000Y-173950998D03*
D24*
X74966000Y-163790998D03*
D23*
X69886000Y-173950998D03*
D24*
X69886000Y-163790998D03*
D23*
X64806000Y-173950998D03*
D24*
X64806000Y-163790998D03*
D23*
X59726000Y-173950998D03*
D24*
X59726000Y-163790998D03*
D23*
X54646000Y-173950998D03*
D24*
X54646000Y-163790998D03*
D23*
X53376000Y-143470998D03*
D24*
X53376000Y-133310998D03*
D23*
X73061000Y-143470998D03*
D24*
X73061000Y-133310998D03*
D23*
X67981000Y-143470998D03*
D24*
X67981000Y-133310998D03*
D23*
X62901000Y-143470998D03*
D24*
X62901000Y-133310998D03*
D23*
X57821000Y-143470998D03*
D24*
X57821000Y-133310998D03*
D23*
X83856000Y-47585998D03*
D24*
X83856000Y-37425998D03*
D23*
X95286000Y-47585998D03*
D24*
X95286000Y-37425998D03*
X62266000Y-39925998D03*
D25*
X62266000Y-37425998D03*
D10*
X59726000Y-179030998D03*
D16*
X59726000Y-176490998D03*
D10*
X54646000Y-179030998D03*
D16*
X54646000Y-176490998D03*
D10*
X44486000Y-179030998D03*
D16*
X44486000Y-176490998D03*
D10*
X130846000Y-179030998D03*
D16*
X130846000Y-176490998D03*
D10*
X125766000Y-179030998D03*
D16*
X125766000Y-176490998D03*
D10*
X120686000Y-179030998D03*
D16*
X120686000Y-176490998D03*
D10*
X115606000Y-179030998D03*
D16*
X115606000Y-176490998D03*
D10*
X110526000Y-179030998D03*
D16*
X110526000Y-176490998D03*
D10*
X105446000Y-179030998D03*
D16*
X105446000Y-176490998D03*
D10*
X100366000Y-179030998D03*
D16*
X100366000Y-176490998D03*
D10*
X95286000Y-179030998D03*
D16*
X95286000Y-176490998D03*
D10*
X90206000Y-179030998D03*
D16*
X90206000Y-176490998D03*
D10*
X102906000Y-37425998D03*
D16*
X102906000Y-39965998D03*
D10*
X85126000Y-179030998D03*
D16*
X85126000Y-176490998D03*
D10*
X80046000Y-179030998D03*
D16*
X80046000Y-176490998D03*
D10*
X73061000Y-148550998D03*
D16*
X73061000Y-146010998D03*
D10*
X74966000Y-179030998D03*
D16*
X74966000Y-176490998D03*
D10*
X67981000Y-148550998D03*
D16*
X67981000Y-146010998D03*
D10*
X69886000Y-179030998D03*
D16*
X69886000Y-176490998D03*
D10*
X62901000Y-148550998D03*
D16*
X62901000Y-146010998D03*
D10*
X64806000Y-179030998D03*
D16*
X64806000Y-176490998D03*
D10*
X57821000Y-148550998D03*
D16*
X57821000Y-146010998D03*
D21*
X52741000Y-119975998D03*
X75601000Y-127595998D03*
X55281000Y-119975998D03*
X73061000Y-127595998D03*
X57821000Y-119975998D03*
X70521000Y-127595998D03*
X60361000Y-119975998D03*
X67981000Y-127595998D03*
X62901000Y-119975998D03*
X65441000Y-127595998D03*
X65441000Y-119975998D03*
X62901000Y-127595998D03*
X67981000Y-119975998D03*
X60361000Y-127595998D03*
X70521000Y-119975998D03*
X57821000Y-127595998D03*
X73061000Y-119975998D03*
X55281000Y-127595998D03*
X75601000Y-119975998D03*
D22*
X52741000Y-127595998D03*
D24*
X66791000Y-60920998D03*
X71791000Y-60920998D03*
X79411000Y-144820998D03*
X79411000Y-149820998D03*
X111161000Y-135770998D03*
X111161000Y-130770998D03*
X48931000Y-126245998D03*
X48931000Y-121245998D03*
X47661000Y-50840998D03*
X47661000Y-55840998D03*
X66791000Y-86955998D03*
X71791000Y-86955998D03*
X111161000Y-144820998D03*
X111161000Y-149820998D03*
X79411000Y-135770998D03*
X79411000Y-130770998D03*
D12*
X55916000Y-39965998D03*
G04 #@! TA.AperFunction,ComponentPad*
G36*
G01*
X52506000Y-40810999D02*
X52506000Y-39120997D01*
G75*
G02*
X52755999Y-38870998I249999J0D01*
G01*
X53996001Y-38870998D01*
G75*
G02*
X54246000Y-39120997I0J-249999D01*
G01*
X54246000Y-40810999D01*
G75*
G02*
X53996001Y-41060998I-249999J0D01*
G01*
X52755999Y-41060998D01*
G75*
G02*
X52506000Y-40810999I0J249999D01*
G01*
G37*
G04 #@! TD.AperFunction*
D26*
X48931000Y-159345998D03*
X48931000Y-161885998D03*
G04 #@! TA.AperFunction,ComponentPad*
G36*
G01*
X49776001Y-165295998D02*
X48085999Y-165295998D01*
G75*
G02*
X47836000Y-165045999I0J249999D01*
G01*
X47836000Y-163805997D01*
G75*
G02*
X48085999Y-163555998I249999J0D01*
G01*
X49776001Y-163555998D01*
G75*
G02*
X50026000Y-163805997I0J-249999D01*
G01*
X50026000Y-165045999D01*
G75*
G02*
X49776001Y-165295998I-249999J0D01*
G01*
G37*
G04 #@! TD.AperFunction*
X51471000Y-92670998D03*
X51471000Y-95210998D03*
G04 #@! TA.AperFunction,ComponentPad*
G36*
G01*
X52316001Y-98620998D02*
X50625999Y-98620998D01*
G75*
G02*
X50376000Y-98370999I0J249999D01*
G01*
X50376000Y-97130997D01*
G75*
G02*
X50625999Y-96880998I249999J0D01*
G01*
X52316001Y-96880998D01*
G75*
G02*
X52566000Y-97130997I0J-249999D01*
G01*
X52566000Y-98370999D01*
G75*
G02*
X52316001Y-98620998I-249999J0D01*
G01*
G37*
G04 #@! TD.AperFunction*
D12*
X122591000Y-39965998D03*
X120051000Y-39965998D03*
X117511000Y-39965998D03*
G04 #@! TA.AperFunction,ComponentPad*
G36*
G01*
X114101000Y-40810999D02*
X114101000Y-39120997D01*
G75*
G02*
X114350999Y-38870998I249999J0D01*
G01*
X115591001Y-38870998D01*
G75*
G02*
X115841000Y-39120997I0J-249999D01*
G01*
X115841000Y-40810999D01*
G75*
G02*
X115591001Y-41060998I-249999J0D01*
G01*
X114350999Y-41060998D01*
G75*
G02*
X114101000Y-40810999I0J249999D01*
G01*
G37*
G04 #@! TD.AperFunction*
D21*
X137831000Y-151090998D03*
X114971000Y-143470998D03*
X135291000Y-151090998D03*
X117511000Y-143470998D03*
X132751000Y-151090998D03*
X120051000Y-143470998D03*
X130211000Y-151090998D03*
X122591000Y-143470998D03*
X127671000Y-151090998D03*
X125131000Y-143470998D03*
X125131000Y-151090998D03*
X127671000Y-143470998D03*
X122591000Y-151090998D03*
X130211000Y-143470998D03*
X120051000Y-151090998D03*
X132751000Y-143470998D03*
X117511000Y-151090998D03*
X135291000Y-143470998D03*
X114971000Y-151090998D03*
D22*
X137831000Y-143470998D03*
D12*
X109256000Y-185380998D03*
X111796000Y-185380998D03*
X114336000Y-185380998D03*
G04 #@! TA.AperFunction,ComponentPad*
G36*
G01*
X117746000Y-184535997D02*
X117746000Y-186225999D01*
G75*
G02*
X117496001Y-186475998I-249999J0D01*
G01*
X116255999Y-186475998D01*
G75*
G02*
X116006000Y-186225999I0J249999D01*
G01*
X116006000Y-184535997D01*
G75*
G02*
X116255999Y-184285998I249999J0D01*
G01*
X117496001Y-184285998D01*
G75*
G02*
X117746000Y-184535997I0J-249999D01*
G01*
G37*
G04 #@! TD.AperFunction*
X96556000Y-185380998D03*
G04 #@! TA.AperFunction,ComponentPad*
G36*
G01*
X99966000Y-184535997D02*
X99966000Y-186225999D01*
G75*
G02*
X99716001Y-186475998I-249999J0D01*
G01*
X98475999Y-186475998D01*
G75*
G02*
X98226000Y-186225999I0J249999D01*
G01*
X98226000Y-184535997D01*
G75*
G02*
X98475999Y-184285998I249999J0D01*
G01*
X99716001Y-184285998D01*
G75*
G02*
X99966000Y-184535997I0J-249999D01*
G01*
G37*
G04 #@! TD.AperFunction*
X78776000Y-185380998D03*
X81316000Y-185380998D03*
X83856000Y-185380998D03*
G04 #@! TA.AperFunction,ComponentPad*
G36*
G01*
X87266000Y-184535997D02*
X87266000Y-186225999D01*
G75*
G02*
X87016001Y-186475998I-249999J0D01*
G01*
X85775999Y-186475998D01*
G75*
G02*
X85526000Y-186225999I0J249999D01*
G01*
X85526000Y-184535997D01*
G75*
G02*
X85775999Y-184285998I249999J0D01*
G01*
X87016001Y-184285998D01*
G75*
G02*
X87266000Y-184535997I0J-249999D01*
G01*
G37*
G04 #@! TD.AperFunction*
X66076000Y-185380998D03*
G04 #@! TA.AperFunction,ComponentPad*
G36*
G01*
X69486000Y-184535997D02*
X69486000Y-186225999D01*
G75*
G02*
X69236001Y-186475998I-249999J0D01*
G01*
X67995999Y-186475998D01*
G75*
G02*
X67746000Y-186225999I0J249999D01*
G01*
X67746000Y-184535997D01*
G75*
G02*
X67995999Y-184285998I249999J0D01*
G01*
X69236001Y-184285998D01*
G75*
G02*
X69486000Y-184535997I0J-249999D01*
G01*
G37*
G04 #@! TD.AperFunction*
D21*
X106081000Y-151090998D03*
X83221000Y-143470998D03*
X103541000Y-151090998D03*
X85761000Y-143470998D03*
X101001000Y-151090998D03*
X88301000Y-143470998D03*
X98461000Y-151090998D03*
X90841000Y-143470998D03*
X95921000Y-151090998D03*
X93381000Y-143470998D03*
X93381000Y-151090998D03*
X95921000Y-143470998D03*
X90841000Y-151090998D03*
X98461000Y-143470998D03*
X88301000Y-151090998D03*
X101001000Y-143470998D03*
X85761000Y-151090998D03*
X103541000Y-143470998D03*
X83221000Y-151090998D03*
D22*
X106081000Y-143470998D03*
D27*
X47661000Y-60920998D03*
X47661000Y-135850998D03*
X47661000Y-86955998D03*
X73696000Y-110450998D03*
X56551000Y-72350998D03*
X58456000Y-69810998D03*
X60361000Y-67270998D03*
X49566000Y-74890998D03*
D28*
X47661000Y-60920998D02*
X47661000Y-60920998D01*
X109811000Y-137120998D02*
X111161000Y-135770998D01*
X106081000Y-137120998D02*
X109811000Y-137120998D01*
X80761000Y-143470998D02*
X79411000Y-144820998D01*
X83221000Y-143470998D02*
X80761000Y-143470998D01*
X113621000Y-144820998D02*
X114971000Y-143470998D01*
X111161000Y-144820998D02*
X113621000Y-144820998D01*
X79331000Y-144740998D02*
X79411000Y-144820998D01*
X51391000Y-126245998D02*
X52741000Y-127595998D01*
X48931000Y-126245998D02*
X51391000Y-126245998D01*
X75601000Y-125145998D02*
X75601000Y-127595998D01*
X74876000Y-124420998D02*
X75601000Y-125145998D01*
X52741000Y-126960998D02*
X55281000Y-124420998D01*
X52741000Y-127595998D02*
X52741000Y-126960998D01*
D29*
X55281000Y-124420998D02*
X55281000Y-119975998D01*
D28*
X66791000Y-86955998D02*
X47661000Y-86955998D01*
X66791000Y-60920998D02*
X47661000Y-60920998D01*
X79411000Y-135850998D02*
X47661000Y-135850998D01*
X135839112Y-133945998D02*
X137831000Y-136962887D01*
X113066000Y-133945998D02*
X135839112Y-133945998D01*
X137831000Y-136962887D02*
X137831000Y-137120998D01*
X111161000Y-135770998D02*
X113066000Y-133945998D01*
X106081000Y-136962887D02*
X106081000Y-137120998D01*
X104176000Y-134580998D02*
X106081000Y-136962887D01*
X81316000Y-134580998D02*
X104176000Y-134580998D01*
X79411000Y-135770998D02*
X81316000Y-134580998D01*
X80681000Y-146010998D02*
X79411000Y-144820998D01*
X109891000Y-146010998D02*
X80681000Y-146010998D01*
X111161000Y-144820998D02*
X109891000Y-146010998D01*
X79411000Y-142120998D02*
X80761000Y-143470998D01*
X79411000Y-135770998D02*
X79411000Y-142120998D01*
X55281000Y-124420998D02*
X74876000Y-124420998D01*
D29*
X83221000Y-151090998D02*
X83221000Y-152995998D01*
X83221000Y-152995998D02*
X81951000Y-154265998D01*
X81951000Y-154265998D02*
X64171000Y-154265998D01*
X64171000Y-154265998D02*
X54646000Y-163790998D01*
X85761000Y-151090998D02*
X85761000Y-152995998D01*
X85761000Y-152995998D02*
X83221000Y-155535998D01*
X83221000Y-155535998D02*
X67981000Y-155535998D01*
X67981000Y-155535998D02*
X59726000Y-163790998D01*
X88301000Y-151090998D02*
X88301000Y-152995998D01*
X88301000Y-152995998D02*
X84491000Y-156805998D01*
X84491000Y-156805998D02*
X71791000Y-156805998D01*
X71791000Y-156805998D02*
X64806000Y-163790998D01*
X90841000Y-151090998D02*
X90841000Y-152995998D01*
X90841000Y-152995998D02*
X85761000Y-158075998D01*
X85761000Y-158075998D02*
X75601000Y-158075998D01*
X75601000Y-158075998D02*
X69886000Y-163790998D01*
X95921000Y-151090998D02*
X95921000Y-152995998D01*
X95921000Y-152995998D02*
X88301000Y-160615998D01*
X88301000Y-160615998D02*
X83221000Y-160615998D01*
X83221000Y-160615998D02*
X80046000Y-163790998D01*
X87031000Y-161885998D02*
X85126000Y-163790998D01*
X89571000Y-161885998D02*
X87031000Y-161885998D01*
X98461000Y-152995998D02*
X89571000Y-161885998D01*
X98461000Y-151090998D02*
X98461000Y-152995998D01*
X101001000Y-151090998D02*
X101001000Y-152995998D01*
X101001000Y-152995998D02*
X90206000Y-163790998D01*
X104176000Y-159980998D02*
X100366000Y-163790998D01*
X110526000Y-159980998D02*
X104176000Y-159980998D01*
X117511000Y-152995998D02*
X110526000Y-159980998D01*
X117511000Y-151090998D02*
X117511000Y-152995998D01*
X111796000Y-162520998D02*
X110526000Y-163790998D01*
X113066000Y-162520998D02*
X111796000Y-162520998D01*
X122591000Y-152995998D02*
X113066000Y-162520998D01*
X122591000Y-151090998D02*
X122591000Y-152995998D01*
D28*
X46391000Y-55840998D02*
X45121000Y-57110998D01*
X47661000Y-55840998D02*
X46391000Y-55840998D01*
X47661000Y-55840998D02*
X50201000Y-53300998D01*
X69251000Y-54660998D02*
X69251000Y-57110998D01*
X67891000Y-53300998D02*
X69251000Y-54660998D01*
X51471000Y-121245998D02*
X52741000Y-119975998D01*
X48931000Y-121245998D02*
X51471000Y-121245998D01*
X71791000Y-63460998D02*
X73061000Y-64730998D01*
X71791000Y-60920998D02*
X71791000Y-63460998D01*
X45121000Y-85050998D02*
X45121000Y-116800998D01*
X45121000Y-57110998D02*
X45121000Y-85050998D01*
X71791000Y-89495998D02*
X73061000Y-90765998D01*
X71791000Y-86955998D02*
X71791000Y-89495998D01*
X113701000Y-130770998D02*
X114971000Y-129500998D01*
X111161000Y-130770998D02*
X113701000Y-130770998D01*
X109891000Y-151090998D02*
X111161000Y-149820998D01*
X106081000Y-151090998D02*
X109891000Y-151090998D01*
X130846000Y-179030998D02*
X54646000Y-179030998D01*
X45121000Y-142200998D02*
X45121000Y-152360998D01*
X45121000Y-130770998D02*
X45121000Y-142200998D01*
D29*
X54011000Y-49490998D02*
X54011000Y-53300998D01*
D28*
X54011000Y-53300998D02*
X67891000Y-53300998D01*
X50201000Y-53300998D02*
X54011000Y-53300998D01*
D29*
X54011000Y-57110998D02*
X54011000Y-53300998D01*
D28*
X71791000Y-59650998D02*
X69251000Y-57110998D01*
X71791000Y-60920998D02*
X71791000Y-59650998D01*
X69886000Y-85050998D02*
X45121000Y-85050998D01*
X71791000Y-86955998D02*
X69886000Y-85050998D01*
D29*
X71791000Y-64730998D02*
X73061000Y-64730998D01*
X70521000Y-66000998D02*
X71791000Y-64730998D01*
X70521000Y-72350998D02*
X70521000Y-66000998D01*
X65441000Y-77430998D02*
X70521000Y-72350998D01*
D28*
X62266000Y-37425998D02*
X68616000Y-37425998D01*
X71246000Y-52665998D02*
X69251000Y-54660998D01*
X82586000Y-52665998D02*
X71246000Y-52665998D01*
X93381000Y-49490998D02*
X95286000Y-47585998D01*
X84491000Y-49490998D02*
X93381000Y-49490998D01*
X82586000Y-51395998D02*
X84491000Y-49490998D01*
X82586000Y-52665998D02*
X82586000Y-51395998D01*
X107986000Y-47585998D02*
X113066000Y-52665998D01*
X95286000Y-47585998D02*
X107986000Y-47585998D01*
X48931000Y-121245998D02*
X45121000Y-121245998D01*
X45121000Y-121245998D02*
X45121000Y-130770998D01*
X45121000Y-116800998D02*
X45121000Y-121245998D01*
X45121000Y-152360998D02*
X52106000Y-152360998D01*
X55916000Y-148550998D02*
X57821000Y-148550998D01*
X52106000Y-152360998D02*
X55916000Y-148550998D01*
X57821000Y-148550998D02*
X62901000Y-148550998D01*
X62901000Y-148550998D02*
X67981000Y-148550998D01*
X67981000Y-148550998D02*
X73061000Y-148550998D01*
X73061000Y-148550998D02*
X75601000Y-148550998D01*
X109891000Y-132040998D02*
X111161000Y-130770998D01*
X80681000Y-132040998D02*
X109891000Y-132040998D01*
X79411000Y-130770998D02*
X80681000Y-132040998D01*
X79411000Y-130770998D02*
X80681000Y-129500998D01*
X80681000Y-129500998D02*
X83221000Y-129500998D01*
X106081000Y-150932887D02*
X106081000Y-151090998D01*
X104169112Y-148550998D02*
X106081000Y-150932887D01*
X81316000Y-148550998D02*
X104169112Y-148550998D01*
X79411000Y-149820998D02*
X81316000Y-148550998D01*
X137831000Y-150932887D02*
X137831000Y-151090998D01*
X135926000Y-148550998D02*
X137831000Y-150932887D01*
X113066000Y-148550998D02*
X135926000Y-148550998D01*
X111161000Y-149820998D02*
X113066000Y-148550998D01*
X45121000Y-168235998D02*
X45121000Y-152360998D01*
X45121000Y-172680998D02*
X45121000Y-168235998D01*
X51471000Y-179030998D02*
X45121000Y-172680998D01*
X54646000Y-179030998D02*
X51471000Y-179030998D01*
X75601000Y-148550998D02*
X76871000Y-149820998D01*
X76871000Y-149820998D02*
X79411000Y-149820998D01*
X45121000Y-47585998D02*
X45121000Y-57110998D01*
X49566000Y-43140998D02*
X45121000Y-47585998D01*
X53816000Y-43140998D02*
X49566000Y-43140998D01*
X55916000Y-41040998D02*
X55916000Y-39965998D01*
X53816000Y-43140998D02*
X55916000Y-41040998D01*
X55916000Y-38060998D02*
X55916000Y-39965998D01*
X56551000Y-37425998D02*
X55916000Y-38060998D01*
X62266000Y-37425998D02*
X56551000Y-37425998D01*
D29*
X60361000Y-130135998D02*
X60996000Y-130770998D01*
X60361000Y-127595998D02*
X60361000Y-130135998D01*
D28*
X60996000Y-130770998D02*
X45121000Y-130770998D01*
D29*
X65441000Y-127595998D02*
X65441000Y-130770998D01*
D28*
X65441000Y-130770998D02*
X60996000Y-130770998D01*
D29*
X70521000Y-130135998D02*
X69886000Y-130770998D01*
X70521000Y-127595998D02*
X70521000Y-130135998D01*
D28*
X69886000Y-130770998D02*
X65441000Y-130770998D01*
X79411000Y-130770998D02*
X69886000Y-130770998D01*
D29*
X127671000Y-156805998D02*
X120686000Y-163790998D01*
X127671000Y-151090998D02*
X127671000Y-156805998D01*
X78141000Y-69810998D02*
X139101000Y-69810998D01*
X78141000Y-69810998D02*
X73061000Y-74890998D01*
X74966000Y-96480998D02*
X73061000Y-98385998D01*
X139101000Y-96480998D02*
X74966000Y-96480998D01*
X73696000Y-100290998D02*
X73061000Y-100925998D01*
X139101000Y-100290998D02*
X73696000Y-100290998D01*
X74331000Y-108545998D02*
X73061000Y-108545998D01*
X77506000Y-111720998D02*
X74331000Y-108545998D01*
X139101000Y-111720998D02*
X77506000Y-111720998D01*
X73061000Y-72350998D02*
X73200998Y-72350998D01*
X75861030Y-69550968D02*
X73061000Y-72350998D01*
X75861030Y-66375968D02*
X75861030Y-69550968D01*
X76236000Y-66000998D02*
X75861030Y-66375968D01*
X139101000Y-66000998D02*
X76236000Y-66000998D01*
X75261020Y-67610978D02*
X73061000Y-69810998D01*
X75261020Y-63165978D02*
X75261020Y-67610978D01*
X76236000Y-62190998D02*
X75261020Y-63165978D01*
X139101000Y-62190998D02*
X76236000Y-62190998D01*
X76871000Y-73620998D02*
X73061000Y-77430998D01*
X139101000Y-73620998D02*
X76871000Y-73620998D01*
X77506000Y-88860998D02*
X73061000Y-93305998D01*
X139101000Y-88860998D02*
X77506000Y-88860998D01*
X74966000Y-107910998D02*
X73061000Y-106005998D01*
X139101000Y-107910998D02*
X74966000Y-107910998D01*
X74331000Y-81240998D02*
X73061000Y-82510998D01*
X139101000Y-81240998D02*
X74331000Y-81240998D01*
X75601000Y-77430998D02*
X73061000Y-79970998D01*
X139101000Y-77430998D02*
X75601000Y-77430998D01*
X76236000Y-92670998D02*
X73061000Y-95845998D01*
X139101000Y-92670998D02*
X76236000Y-92670998D01*
X78141000Y-58380998D02*
X139101000Y-58380998D01*
X74661010Y-65670988D02*
X73061000Y-67270998D01*
X74661010Y-62828038D02*
X74661010Y-65670988D01*
X78141000Y-59348048D02*
X74661010Y-62828038D01*
X78141000Y-58380998D02*
X78141000Y-59348048D01*
X139101000Y-85050998D02*
X75601000Y-85050998D01*
X74575991Y-84025989D02*
X72035991Y-84025989D01*
X75601000Y-85050998D02*
X74575991Y-84025989D01*
X67981000Y-79970998D02*
X65441000Y-79970998D01*
X72035991Y-84025989D02*
X67981000Y-79970998D01*
X73696000Y-104100998D02*
X73061000Y-103465998D01*
X139101000Y-104100998D02*
X73696000Y-104100998D01*
X78141000Y-115530998D02*
X139101000Y-115530998D01*
X77506000Y-114895998D02*
X78141000Y-115530998D01*
X77506000Y-114260998D02*
X77506000Y-114895998D01*
X73696000Y-110450998D02*
X77506000Y-114260998D01*
X93381000Y-151090998D02*
X93381000Y-152995998D01*
X93381000Y-152995998D02*
X87031000Y-159345998D01*
X87031000Y-159345998D02*
X79411000Y-159345998D01*
X79411000Y-159345998D02*
X74966000Y-163790998D01*
X114971000Y-151090998D02*
X114971000Y-152995998D01*
X114971000Y-152995998D02*
X109256000Y-158710998D01*
X109256000Y-158710998D02*
X100366000Y-158710998D01*
X100366000Y-158710998D02*
X95286000Y-163790998D01*
X120051000Y-151090998D02*
X120051000Y-152995998D01*
X120051000Y-152995998D02*
X111796000Y-161250998D01*
X111796000Y-161250998D02*
X107986000Y-161250998D01*
X107986000Y-161250998D02*
X105446000Y-163790998D01*
X125131000Y-151090998D02*
X125131000Y-154265998D01*
X125131000Y-154265998D02*
X115606000Y-163790998D01*
X130211000Y-159345998D02*
X125766000Y-163790998D01*
X130211000Y-151090998D02*
X130211000Y-159345998D01*
X132751000Y-161885998D02*
X130846000Y-163790998D01*
X132751000Y-151090998D02*
X132751000Y-161885998D01*
X65441000Y-72350998D02*
X56551000Y-72350998D01*
X56551000Y-72350998D02*
X56551000Y-72350998D01*
X68616000Y-99020998D02*
X65441000Y-95845998D01*
X68616000Y-112355998D02*
X68616000Y-99020998D01*
X65441000Y-69810998D02*
X58456000Y-69810998D01*
X68616000Y-112355998D02*
X65441000Y-115530998D01*
X65441000Y-115530998D02*
X65441000Y-119975998D01*
X65441000Y-67270998D02*
X60361000Y-67270998D01*
X69920990Y-99477446D02*
X69920990Y-112355998D01*
X69920990Y-112355998D02*
X70521000Y-112990998D01*
X70521000Y-112990998D02*
X70521000Y-119975998D01*
X65441000Y-93305998D02*
X69886000Y-97750998D01*
X69886000Y-97750998D02*
X69920990Y-99477446D01*
X71156000Y-96480998D02*
X71156000Y-111085998D01*
X65441000Y-90765998D02*
X71156000Y-96480998D01*
X71156000Y-111085998D02*
X75601000Y-115530998D01*
X75601000Y-115530998D02*
X75601000Y-119975998D01*
X137831000Y-129500998D02*
X137831000Y-128865998D01*
X137831000Y-128865998D02*
X135926000Y-126960998D01*
X108621000Y-126960998D02*
X106081000Y-129500998D01*
X135926000Y-126960998D02*
X108621000Y-126960998D01*
X106081000Y-129500998D02*
X106081000Y-128865998D01*
X58123950Y-122515998D02*
X56481010Y-120873058D01*
X56481010Y-106571008D02*
X48931000Y-99020998D01*
X48931000Y-99020998D02*
X48931000Y-94575998D01*
X50836000Y-92670998D02*
X51471000Y-92670998D01*
X48931000Y-94575998D02*
X50836000Y-92670998D01*
X56481010Y-106571008D02*
X56481010Y-120873058D01*
X58123950Y-122515998D02*
X102271000Y-122515998D01*
X106081000Y-126325998D02*
X106081000Y-129500998D01*
X102271000Y-122515998D02*
X106081000Y-126325998D01*
X65441000Y-74890998D02*
X49566000Y-74890998D01*
X59726000Y-95210998D02*
X65441000Y-100925998D01*
X51471000Y-95210998D02*
X59726000Y-95210998D01*
X114971000Y-139025998D02*
X114971000Y-137120998D01*
X137831000Y-139660998D02*
X137831000Y-143470998D01*
X137196000Y-139025998D02*
X137831000Y-139660998D01*
X84491000Y-139025998D02*
X137196000Y-139025998D01*
X83221000Y-137755998D02*
X84491000Y-139025998D01*
X83221000Y-137120998D02*
X83221000Y-137755998D01*
X106081000Y-143470998D02*
X106081000Y-139025998D01*
M02*
