M48
; DRILL file {KiCad (5.1.7)-1} date 11/15/20 10:49:21
; FORMAT={-:-/ absolute / inch / decimal}
; #@! TF.CreationDate,2020-11-15T10:49:21+01:00
; #@! TF.GenerationSoftware,Kicad,Pcbnew,(5.1.7)-1
FMAT,2
INCH
T1C0.0157
T2C0.0315
T3C0.0354
T4C0.0394
T5C0.0469
T6C0.1378
%
G90
G05
T1
X1.8764Y-2.3985
X1.8764Y-3.4235
X1.8764Y-5.3485
X1.9514Y-2.9485
X2.2264Y-2.8485
X2.3014Y-2.7485
X2.3764Y-2.6485
X2.9014Y-4.3485
T2
X2.9514Y-6.4485
X2.9514Y-6.8485
X2.5764Y-2.5485
X2.5764Y-2.6485
X2.5764Y-2.7485
X2.5764Y-2.8485
X2.5764Y-2.9485
X2.5764Y-3.0485
X2.5764Y-3.1485
X2.5764Y-3.2485
X2.8764Y-2.5485
X2.8764Y-2.6485
X2.8764Y-2.7485
X2.8764Y-2.8485
X2.8764Y-2.9485
X2.8764Y-3.0485
X2.8764Y-3.1485
X2.8764Y-3.2485
X4.9514Y-6.4485
X4.9514Y-6.8485
X3.3514Y-6.4485
X3.3514Y-6.8485
X2.8764Y-5.2485
X2.8764Y-5.6485
X4.5264Y-5.0985
X4.5264Y-5.3985
X4.6264Y-5.0985
X4.6264Y-5.3985
X4.7264Y-5.0985
X4.7264Y-5.3985
X4.8264Y-5.0985
X4.8264Y-5.3985
X4.9264Y-5.0985
X4.9264Y-5.3985
X5.0264Y-5.0985
X5.0264Y-5.3985
X5.1264Y-5.0985
X5.1264Y-5.3985
X5.2264Y-5.0985
X5.2264Y-5.3985
X5.3264Y-5.0985
X5.3264Y-5.3985
X5.4264Y-5.0985
X5.4264Y-5.3985
X3.2764Y-5.0985
X3.2764Y-5.3985
X3.3764Y-5.0985
X3.3764Y-5.3985
X3.4764Y-5.0985
X3.4764Y-5.3985
X3.5764Y-5.0985
X3.5764Y-5.3985
X3.6764Y-5.0985
X3.6764Y-5.3985
X3.7764Y-5.0985
X3.7764Y-5.3985
X3.8764Y-5.0985
X3.8764Y-5.3985
X3.9764Y-5.0985
X3.9764Y-5.3985
X4.0764Y-5.0985
X4.0764Y-5.3985
X4.1764Y-5.0985
X4.1764Y-5.3985
X3.4264Y-1.5235
X3.5264Y-1.5235
X3.6264Y-1.5235
X2.4764Y-5.2485
X2.4764Y-5.6485
X3.1264Y-5.1485
X3.1264Y-5.3453
X4.1514Y-6.4485
X4.1514Y-6.8485
X4.3764Y-5.1485
X4.3764Y-5.3453
X5.1514Y-6.4485
X5.1514Y-6.8485
X2.7514Y-6.4485
X2.7514Y-6.8485
X3.2764Y-5.6485
X3.2764Y-5.9485
X3.3764Y-5.6485
X3.3764Y-5.9485
X3.4764Y-5.6485
X3.4764Y-5.9485
X3.5764Y-5.6485
X3.5764Y-5.9485
X3.6764Y-5.6485
X3.6764Y-5.9485
X3.7764Y-5.6485
X3.7764Y-5.9485
X3.8764Y-5.6485
X3.8764Y-5.9485
X3.9764Y-5.6485
X3.9764Y-5.9485
X4.0764Y-5.6485
X4.0764Y-5.9485
X4.1764Y-5.6485
X4.1764Y-5.9485
X2.6764Y-5.2485
X2.6764Y-5.6485
X1.8764Y-2.0016
X1.8764Y-2.1985
X2.3514Y-6.4485
X2.3514Y-6.8485
X4.5264Y-5.6485
X4.5264Y-5.9485
X4.6264Y-5.6485
X4.6264Y-5.9485
X4.7264Y-5.6485
X4.7264Y-5.9485
X4.8264Y-5.6485
X4.8264Y-5.9485
X4.9264Y-5.6485
X4.9264Y-5.9485
X5.0264Y-5.6485
X5.0264Y-5.9485
X5.1264Y-5.6485
X5.1264Y-5.9485
X5.2264Y-5.6485
X5.2264Y-5.9485
X5.3264Y-5.6485
X5.3264Y-5.9485
X5.4264Y-5.6485
X5.4264Y-5.9485
X2.6296Y-3.4235
X2.8264Y-3.4235
X4.3764Y-5.7016
X4.3764Y-5.8985
X3.7514Y-6.4485
X3.7514Y-6.8485
X2.5764Y-3.5735
X2.5764Y-3.6735
X2.5764Y-3.7735
X2.5764Y-3.8735
X2.5764Y-3.9735
X2.5764Y-4.0735
X2.5764Y-4.1735
X2.5764Y-4.2735
X2.8764Y-3.5735
X2.8764Y-3.6735
X2.8764Y-3.7735
X2.8764Y-3.8735
X2.8764Y-3.9735
X2.8764Y-4.0735
X2.8764Y-4.1735
X2.8764Y-4.2735
X2.1014Y-5.2485
X2.1014Y-5.6485
X3.9514Y-6.4485
X3.9514Y-6.8485
X1.9264Y-4.7735
X1.9264Y-4.9703
X2.0264Y-1.9485
X2.0264Y-2.2485
X2.1264Y-1.9485
X2.1264Y-2.2485
X2.2264Y-1.9485
X2.2264Y-2.2485
X2.3264Y-1.9485
X2.3264Y-2.2485
X2.4264Y-1.9485
X2.4264Y-2.2485
X2.5264Y-1.9485
X2.5264Y-2.2485
X2.6264Y-1.9485
X2.6264Y-2.2485
X2.7264Y-1.9485
X2.7264Y-2.2485
X2.0764Y-4.7235
X2.0764Y-5.0235
X2.1764Y-4.7235
X2.1764Y-5.0235
X2.2764Y-4.7235
X2.2764Y-5.0235
X2.3764Y-4.7235
X2.3764Y-5.0235
X2.4764Y-4.7235
X2.4764Y-5.0235
X2.5764Y-4.7235
X2.5764Y-5.0235
X2.6764Y-4.7235
X2.6764Y-5.0235
X2.7764Y-4.7235
X2.7764Y-5.0235
X2.8764Y-4.7235
X2.8764Y-5.0235
X2.9764Y-4.7235
X2.9764Y-5.0235
X3.3014Y-1.4735
X3.3014Y-1.8735
X3.1264Y-5.7016
X3.1264Y-5.8985
X4.5514Y-6.4485
X4.5514Y-6.8485
X2.1514Y-6.4485
X2.1514Y-6.8485
X2.6296Y-2.3985
X2.8264Y-2.3985
X3.7514Y-1.4735
X3.7514Y-1.8735
X2.2764Y-5.2485
X2.2764Y-5.6485
X2.5514Y-6.4485
X2.5514Y-6.8485
X4.7514Y-6.4485
X4.7514Y-6.8485
X3.5514Y-6.4485
X3.5514Y-6.8485
X3.1514Y-6.4485
X3.1514Y-6.8485
X4.3514Y-6.4485
X4.3514Y-6.8485
X2.4514Y-1.4735
X2.4514Y-1.5719
T3
X4.9307Y-4.3985
X5.0014Y-4.3278
X4.7807Y-3.7985
X4.8514Y-3.7278
X5.0807Y-3.0485
X5.1514Y-2.9778
X5.2307Y-3.9485
X5.3014Y-3.8778
X4.6307Y-3.7985
X4.7014Y-3.7278
X3.1307Y-4.3985
X3.2014Y-4.3278
X4.6307Y-4.5485
X4.7014Y-4.4778
X5.3807Y-3.9485
X5.4514Y-3.8778
X5.3807Y-2.2985
X5.4514Y-2.2278
X5.0807Y-3.7985
X5.1514Y-3.7278
X4.0307Y-4.5485
X4.1014Y-4.4778
X4.4807Y-3.4985
X4.5514Y-3.4278
X4.3307Y-2.2985
X4.4014Y-2.2278
X4.4807Y-3.3485
X4.5514Y-3.2778
X4.4807Y-2.5985
X4.5514Y-2.5278
X5.0807Y-2.4485
X5.1514Y-2.3778
X5.2307Y-3.3485
X5.3014Y-3.2778
X3.5807Y-4.2485
X3.6514Y-4.1778
X4.4807Y-4.5485
X4.5514Y-4.4778
X3.8807Y-3.4985
X3.9514Y-3.4278
X4.4807Y-3.1985
X4.5514Y-3.1278
X4.1807Y-3.1985
X4.2514Y-3.1278
X4.9307Y-2.2985
X5.0014Y-2.2278
X3.2807Y-2.5985
X3.3514Y-2.5278
X3.2807Y-3.1985
X3.3514Y-3.1278
X4.3307Y-2.8985
X4.4014Y-2.8278
X2.7014Y-1.4735
X3.1014Y-1.4735
X3.2807Y-4.2485
X3.3514Y-4.1778
X4.0307Y-3.1985
X4.1014Y-3.1278
X3.2807Y-2.7485
X3.3514Y-2.6778
X4.0307Y-4.0985
X4.1014Y-4.0278
X4.0307Y-3.3485
X4.1014Y-3.2778
X3.7307Y-2.2985
X3.8014Y-2.2278
X3.2807Y-3.0485
X3.3514Y-2.9778
X3.7307Y-3.3485
X3.8014Y-3.2778
X3.5807Y-2.8985
X3.6514Y-2.8278
X3.3514Y-6.9485
X3.3514Y-7.0485
X3.8807Y-2.4485
X3.9514Y-2.3778
X3.8807Y-3.0485
X3.9514Y-2.9778
X2.7514Y-6.9485
X2.7514Y-7.0485
X3.9514Y-6.9485
X3.9514Y-7.0485
X5.3807Y-4.0985
X5.4514Y-4.0278
X4.9307Y-3.1985
X5.0014Y-3.1278
X4.3307Y-3.9485
X4.4014Y-3.8778
X4.9307Y-3.7985
X5.0014Y-3.7278
X5.3807Y-3.4985
X5.4514Y-3.4278
X3.1307Y-4.2485
X3.2014Y-4.1778
X4.6307Y-4.0985
X4.7014Y-4.0278
X4.7807Y-4.0985
X4.8514Y-4.0278
X4.9307Y-3.4985
X5.0014Y-3.4278
X5.2307Y-3.4985
X5.3014Y-3.4278
X4.3314Y-2.4485
X4.4021Y-2.3778
X5.2307Y-3.1985
X5.3014Y-3.1278
X3.1307Y-4.0985
X3.2014Y-4.0278
X4.6307Y-3.9485
X4.7014Y-3.8778
X4.4807Y-3.0485
X4.5514Y-2.9778
X3.5807Y-3.1985
X3.6514Y-3.1278
X4.7807Y-2.4485
X4.8514Y-2.3778
X5.2307Y-3.0485
X5.3014Y-2.9778
X4.1807Y-4.2485
X4.2514Y-4.1778
X3.4307Y-3.6485
X3.5014Y-3.5778
X5.3807Y-2.5985
X5.4514Y-2.5278
X4.0307Y-3.4985
X4.1014Y-3.4278
X4.9307Y-2.4485
X5.0014Y-2.3778
X4.1807Y-4.5485
X4.2514Y-4.4778
X3.2807Y-3.3485
X3.3514Y-3.2778
X4.3307Y-3.0485
X4.4014Y-2.9778
X3.4307Y-2.4485
X3.5014Y-2.3778
X3.1307Y-3.3485
X3.2014Y-3.2778
X3.4307Y-2.7485
X3.5014Y-2.6778
X4.1807Y-4.0985
X4.2514Y-4.0278
X3.7307Y-3.4985
X3.8014Y-3.4278
X4.0307Y-2.2985
X4.1014Y-2.2278
X3.2807Y-3.4985
X3.3514Y-3.4278
X3.1307Y-2.8985
X3.2014Y-2.8278
X4.3514Y-6.9485
X4.3514Y-7.0485
X3.2807Y-2.8985
X3.3514Y-2.8278
X4.1807Y-3.0485
X4.2514Y-2.9778
X5.2307Y-4.5485
X5.3014Y-4.4778
X4.0514Y-1.4735
X4.0514Y-1.5735
X5.2307Y-4.2485
X5.3014Y-4.1778
X4.9307Y-2.7485
X5.0014Y-2.6778
X3.4307Y-4.3985
X3.5014Y-4.3278
X5.0807Y-2.7485
X5.1514Y-2.6778
X5.2307Y-3.6485
X5.3014Y-3.5778
X5.3807Y-3.1985
X5.4514Y-3.1278
X3.8807Y-4.2485
X3.9514Y-4.1778
X4.6307Y-3.1985
X4.7014Y-3.1278
X4.9307Y-4.0985
X5.0014Y-4.0278
X4.9307Y-2.5985
X5.0014Y-2.5278
X5.3807Y-3.0485
X5.4514Y-2.9778
X3.7307Y-4.3985
X3.8014Y-4.3278
X4.4807Y-3.6485
X4.5514Y-3.5778
X3.2807Y-3.7985
X3.3514Y-3.7278
X4.3307Y-3.3485
X4.4014Y-3.2778
X4.0307Y-2.8985
X4.1014Y-2.8278
X4.3307Y-2.5985
X4.4014Y-2.5278
X5.3807Y-3.3485
X5.4514Y-3.2778
X4.4807Y-2.2985
X4.5514Y-2.2278
X3.5807Y-3.9485
X3.6514Y-3.8778
X4.3307Y-3.4985
X4.4014Y-3.4278
X4.7807Y-3.4985
X4.8514Y-3.4278
X3.1307Y-4.5485
X3.2014Y-4.4778
X3.4307Y-3.1985
X3.5014Y-3.1278
X4.3307Y-3.6485
X4.4014Y-3.5778
X3.5807Y-4.5485
X3.6514Y-4.4778
X3.8807Y-3.7985
X3.9514Y-3.7278
X4.1807Y-2.8985
X4.2514Y-2.8278
X3.8807Y-3.9485
X3.9514Y-3.8778
X3.7307Y-2.8985
X3.8014Y-2.8278
X3.5807Y-3.4985
X3.6514Y-3.4278
X3.2807Y-2.4485
X3.3514Y-2.3778
X2.3514Y-6.9485
X2.3514Y-7.0485
X3.1307Y-2.5985
X3.2014Y-2.5278
X3.1307Y-2.4485
X3.2014Y-2.3778
X1.7514Y-6.9485
X1.7514Y-7.0485
X5.0807Y-2.8985
X5.1514Y-2.8278
X3.1307Y-3.9485
X3.2014Y-3.8778
X4.6307Y-4.2485
X4.7014Y-4.1778
X5.3807Y-3.6485
X5.4514Y-3.5778
X5.2307Y-2.8985
X5.3014Y-2.8278
X4.6307Y-2.4485
X4.7014Y-2.3778
X4.4807Y-4.0985
X4.5514Y-4.0278
X4.9307Y-3.6485
X5.0014Y-3.5778
X4.7807Y-3.3485
X4.8514Y-3.2778
X5.2307Y-2.5985
X5.3014Y-2.5278
X5.0807Y-4.5485
X5.1514Y-4.4778
X4.1807Y-4.3985
X4.2514Y-4.3278
X4.4807Y-3.9485
X4.5514Y-3.8778
X3.7307Y-3.7985
X3.8014Y-3.7278
X4.3307Y-3.7985
X4.4014Y-3.7278
X4.7807Y-3.0485
X4.8514Y-2.9778
X4.7807Y-2.2985
X4.8514Y-2.2278
X5.0807Y-4.0985
X5.1514Y-4.0278
X3.7307Y-4.2485
X3.8014Y-4.1778
X3.5807Y-3.6485
X3.6514Y-3.5778
X4.4807Y-2.8985
X4.5514Y-2.8278
X3.8807Y-3.6485
X3.9514Y-3.5778
X3.7307Y-4.5485
X3.8014Y-4.4778
X3.7307Y-3.9485
X3.8014Y-3.8778
X3.7307Y-2.7485
X3.8014Y-2.6778
X4.0307Y-4.2485
X4.1014Y-4.1778
X3.4307Y-3.3485
X3.5014Y-3.2778
X3.1307Y-2.2985
X3.2014Y-2.2278
X3.4307Y-3.0485
X3.5014Y-2.9778
X4.0307Y-3.6485
X4.1014Y-3.5778
X4.1807Y-2.7485
X4.2514Y-2.6778
X3.7307Y-2.5985
X3.8014Y-2.5278
X4.1514Y-6.9485
X4.1514Y-7.0485
X3.8807Y-2.5985
X3.9514Y-2.5278
X4.5514Y-6.9485
X4.5514Y-7.0485
X4.1807Y-2.4485
X4.2514Y-2.3778
X3.7514Y-6.9485
X3.7514Y-7.0485
X5.3807Y-4.3985
X5.4514Y-4.3278
X4.7807Y-3.6485
X4.8514Y-3.5778
X4.7807Y-4.5485
X4.8514Y-4.4778
X4.6307Y-3.0485
X4.7014Y-2.9778
X4.7807Y-4.2485
X4.8514Y-4.1778
X4.6307Y-4.3985
X4.7014Y-4.3278
X5.2307Y-4.0985
X5.3014Y-4.0278
X5.3807Y-2.8985
X5.4514Y-2.8278
X4.0307Y-3.9485
X4.1014Y-3.8778
X4.6307Y-3.6485
X4.7014Y-3.5778
X3.5807Y-3.7985
X3.6514Y-3.7278
X4.9307Y-3.0485
X5.0014Y-2.9778
X4.6307Y-2.5985
X4.7014Y-2.5278
X5.3807Y-2.7485
X5.4514Y-2.6778
X3.7307Y-4.0985
X3.8014Y-4.0278
X4.6307Y-3.3485
X4.7014Y-3.2778
X3.2807Y-3.9485
X3.3514Y-3.8778
X4.3307Y-4.2485
X4.4014Y-4.1778
X4.7807Y-3.1985
X4.8514Y-3.1278
X4.7807Y-2.5985
X4.8514Y-2.5278
X5.0807Y-3.6485
X5.1514Y-3.5778
X3.2807Y-4.3985
X3.3514Y-4.3278
X3.1307Y-3.6485
X3.2014Y-3.5778
X4.4807Y-2.7485
X4.5514Y-2.6778
X3.1307Y-3.1985
X3.2014Y-3.1278
X4.0307Y-4.3985
X4.1014Y-4.3278
X3.7307Y-3.1985
X3.8014Y-3.1278
X4.0307Y-2.7485
X4.1014Y-2.6778
X3.2807Y-4.5485
X3.3514Y-4.4778
X4.0307Y-3.7985
X4.1014Y-3.7278
X3.5807Y-2.7485
X3.6514Y-2.6778
X3.4307Y-3.7985
X3.5014Y-3.7278
X3.5807Y-3.0485
X3.6514Y-2.9778
X3.5807Y-2.2985
X3.6514Y-2.2278
X2.5514Y-6.9485
X2.5514Y-7.0485
X3.5807Y-2.4485
X3.6514Y-2.3778
X2.1514Y-6.9485
X2.1514Y-7.0485
X4.1807Y-2.5985
X4.2514Y-2.5278
X5.1514Y-6.9485
X5.1514Y-7.0485
X2.4764Y-5.7485
X2.4764Y-5.8485
X2.2764Y-5.7485
X2.2764Y-5.8485
X4.9307Y-4.2485
X5.0014Y-4.1778
X3.1307Y-3.7985
X3.2014Y-3.7278
X4.9307Y-3.3485
X5.0014Y-3.2778
X4.6307Y-3.4985
X4.7014Y-3.4278
X5.0807Y-4.3985
X5.1514Y-4.3278
X4.9307Y-3.9485
X5.0014Y-3.8778
X5.2307Y-3.7985
X5.3014Y-3.7278
X5.0807Y-2.5985
X5.1514Y-2.5278
X5.0807Y-4.2485
X5.1514Y-4.1778
X3.8807Y-4.3985
X3.9514Y-4.3278
X4.4807Y-4.3985
X4.5514Y-4.3278
X3.4307Y-4.2485
X3.5014Y-4.1778
X4.7807Y-2.7485
X4.8514Y-2.6778
X5.3807Y-2.4485
X5.4514Y-2.3778
X5.2307Y-2.7485
X5.3014Y-2.6778
X3.2807Y-4.0985
X3.3514Y-4.0278
X4.4807Y-4.2485
X4.5514Y-4.1778
X3.4307Y-3.9485
X3.5014Y-3.8778
X4.3307Y-4.3985
X4.4014Y-4.3278
X4.7807Y-2.8985
X4.8514Y-2.8278
X4.6307Y-2.2985
X4.7014Y-2.2278
X5.0807Y-3.9485
X5.1514Y-3.8778
X3.5807Y-4.3985
X3.6514Y-4.3278
X3.2807Y-3.6485
X3.3514Y-3.5778
X4.3307Y-3.1985
X4.4014Y-3.1278
X3.4307Y-3.4985
X3.5014Y-3.4278
X3.4307Y-4.5485
X3.5014Y-4.4778
X4.1807Y-3.3485
X4.2514Y-3.2778
X4.0307Y-2.5985
X4.1014Y-2.5278
X3.5807Y-4.0985
X3.6514Y-4.0278
X4.1807Y-3.4985
X4.2514Y-3.4278
X4.0307Y-2.4485
X4.1014Y-2.3778
X3.5807Y-3.3485
X3.6514Y-3.2778
X4.1807Y-2.2985
X4.2514Y-2.2278
X2.9514Y-6.9485
X2.9514Y-7.0485
X3.8807Y-2.7485
X3.9514Y-2.6778
X3.1307Y-2.7485
X3.2014Y-2.6778
X2.8764Y-5.7485
X2.8764Y-5.8485
X3.5514Y-6.9485
X3.5514Y-7.0485
X5.3807Y-4.2485
X5.4514Y-4.1778
X5.2307Y-4.3985
X5.3014Y-4.3278
X2.6764Y-5.7485
X2.6764Y-5.8485
X4.9307Y-2.8985
X5.0014Y-2.8278
X4.1807Y-3.7985
X4.2514Y-3.7278
X4.9307Y-4.5485
X5.0014Y-4.4778
X4.6307Y-2.8985
X4.7014Y-2.8278
X4.7807Y-3.9485
X4.8514Y-3.8778
X5.0807Y-3.1985
X5.1514Y-3.1278
X5.3807Y-3.7985
X5.4514Y-3.7278
X5.2307Y-2.2985
X5.3014Y-2.2278
X5.0807Y-3.4985
X5.1514Y-3.4278
X3.8807Y-4.5485
X3.9514Y-4.4778
X4.6307Y-2.7485
X4.7014Y-2.6778
X4.7807Y-4.3985
X4.8514Y-4.3278
X4.3307Y-4.0985
X4.4014Y-4.0278
X3.4307Y-2.5985
X3.5014Y-2.5278
X5.0807Y-2.2985
X5.1514Y-2.2278
X5.0807Y-3.3485
X5.1514Y-3.2778
X3.4307Y-4.0985
X3.5014Y-4.0278
X4.4807Y-3.7985
X4.5514Y-3.7278
X3.1307Y-3.4985
X3.2014Y-3.4278
X4.3307Y-4.5485
X4.4014Y-4.4778
X3.7307Y-3.0485
X3.8014Y-2.9778
X5.2307Y-2.4485
X5.3014Y-2.3778
X4.4807Y-2.4485
X4.5514Y-2.3778
X4.1807Y-3.6485
X4.2514Y-3.5778
X4.3307Y-2.7485
X4.4014Y-2.6778
X3.4307Y-2.8985
X3.5014Y-2.8278
X4.1807Y-3.9485
X4.2514Y-3.8778
X3.8807Y-3.1985
X3.9514Y-3.1278
X3.4307Y-2.2985
X3.5014Y-2.2278
X4.0307Y-3.0485
X4.1014Y-2.9778
X3.8807Y-4.0985
X3.9514Y-4.0278
X3.8807Y-3.3485
X3.9514Y-3.2778
X3.2807Y-2.2985
X3.3514Y-2.2278
X3.1307Y-3.0485
X3.2014Y-2.9778
X3.7314Y-3.6485
X3.8021Y-3.5778
X3.5807Y-2.5985
X3.6514Y-2.5278
X3.8807Y-2.2985
X3.9514Y-2.2278
X3.1514Y-6.9485
X3.1514Y-7.0485
X3.7307Y-2.4485
X3.8014Y-2.3778
X3.8807Y-2.8985
X3.9514Y-2.8278
X4.9514Y-6.9485
X4.9514Y-7.0485
X5.3807Y-4.5485
X5.4514Y-4.4778
X4.7514Y-6.9485
X4.7514Y-7.0485
T4
X3.2514Y-2.0735
X3.3514Y-2.0735
X3.4514Y-2.0735
X3.5514Y-2.0735
X3.6514Y-2.0735
X3.7514Y-2.0735
X3.8514Y-2.0735
X3.9514Y-2.0735
X4.0514Y-2.0735
X4.4514Y-2.0735
X4.5514Y-2.0735
X4.6514Y-2.0735
X4.7514Y-2.0735
X4.8514Y-2.0735
X4.9514Y-2.0735
X5.0514Y-2.0735
X5.1514Y-2.0735
X5.2514Y-2.0735
T5
X2.6014Y-7.2985
X2.7014Y-7.2985
X3.1014Y-7.2985
X3.2014Y-7.2985
X3.3014Y-7.2985
X3.4014Y-7.2985
X3.8014Y-7.2985
X3.9014Y-7.2985
X4.5264Y-1.5735
X4.6264Y-1.5735
X4.7264Y-1.5735
X4.8264Y-1.5735
X2.0264Y-3.6485
X2.0264Y-3.7485
X2.0264Y-3.8485
X4.3014Y-7.2985
X4.4014Y-7.2985
X4.5014Y-7.2985
X4.6014Y-7.2985
X2.1014Y-1.5735
X2.2014Y-1.5735
X1.9264Y-6.2735
X1.9264Y-6.3735
X1.9264Y-6.4735
X4.9764Y-7.2985
X5.0764Y-7.2985
T6
X1.8233Y-1.5203
X1.8233Y-7.4258
X5.3666Y-1.5203
X5.3666Y-7.4258
T0
M30
