G04 #@! TF.GenerationSoftware,KiCad,Pcbnew,7.0.5*
G04 #@! TF.CreationDate,2024-04-01T13:17:15+02:00*
G04 #@! TF.ProjectId,power,706f7765-722e-46b6-9963-61645f706362,rev?*
G04 #@! TF.SameCoordinates,Original*
G04 #@! TF.FileFunction,Legend,Top*
G04 #@! TF.FilePolarity,Positive*
%FSLAX46Y46*%
G04 Gerber Fmt 4.6, Leading zero omitted, Abs format (unit mm)*
G04 Created by KiCad (PCBNEW 7.0.5) date 2024-04-01 13:17:15*
%MOMM*%
%LPD*%
G01*
G04 APERTURE LIST*
G04 Aperture macros list*
%AMRoundRect*
0 Rectangle with rounded corners*
0 $1 Rounding radius*
0 $2 $3 $4 $5 $6 $7 $8 $9 X,Y pos of 4 corners*
0 Add a 4 corners polygon primitive as box body*
4,1,4,$2,$3,$4,$5,$6,$7,$8,$9,$2,$3,0*
0 Add four circle primitives for the rounded corners*
1,1,$1+$1,$2,$3*
1,1,$1+$1,$4,$5*
1,1,$1+$1,$6,$7*
1,1,$1+$1,$8,$9*
0 Add four rect primitives between the rounded corners*
20,1,$1+$1,$2,$3,$4,$5,0*
20,1,$1+$1,$4,$5,$6,$7,0*
20,1,$1+$1,$6,$7,$8,$9,0*
20,1,$1+$1,$8,$9,$2,$3,0*%
G04 Aperture macros list end*
%ADD10C,0.120000*%
%ADD11C,2.500000*%
%ADD12R,3.000000X3.000000*%
%ADD13O,3.000000X3.000000*%
%ADD14C,2.600000*%
%ADD15RoundRect,0.250000X-0.620000X-0.845000X0.620000X-0.845000X0.620000X0.845000X-0.620000X0.845000X0*%
%ADD16O,1.740000X2.190000*%
%ADD17C,3.500000*%
%ADD18R,1.905000X2.000000*%
%ADD19O,1.905000X2.000000*%
%ADD20C,1.600000*%
%ADD21R,2.600000X2.600000*%
G04 APERTURE END LIST*
D10*
X49204000Y-121366000D02*
X49204000Y-99366000D01*
X40204000Y-121366000D02*
X40204000Y-99366000D01*
X40204000Y-99366000D02*
X49204000Y-99366000D01*
X49204000Y-121366000D02*
X40204000Y-121366000D01*
X53848000Y-108728000D02*
X53848000Y-108918000D01*
X56618000Y-108918000D02*
X51078000Y-108918000D01*
X51078000Y-108918000D02*
X51078000Y-118158000D01*
X56618000Y-110268000D02*
X51078000Y-110268000D01*
X56618000Y-110388000D02*
X51078000Y-110388000D01*
X56618000Y-110508000D02*
X51078000Y-110508000D01*
X56618000Y-118158000D02*
X56618000Y-108918000D01*
X51078000Y-118158000D02*
X56618000Y-118158000D01*
X53848000Y-118348000D02*
X53848000Y-118158000D01*
X49350000Y-125209000D02*
X49350000Y-139709000D01*
X40350000Y-125209000D02*
X49350000Y-125209000D01*
X49350000Y-139709000D02*
X40350000Y-139709000D01*
X40350000Y-139709000D02*
X40350000Y-125209000D01*
X57830000Y-77000000D02*
X57830000Y-81000000D01*
X58120000Y-75970000D02*
X58120000Y-81990000D01*
X58120000Y-81990000D02*
X63420000Y-81990000D01*
X58700000Y-75970000D02*
X58700000Y-76570000D01*
X58700000Y-76570000D02*
X60300000Y-76570000D01*
X59500000Y-80990000D02*
X59750000Y-80460000D01*
X59500000Y-80990000D02*
X62040000Y-80990000D01*
X59500000Y-81990000D02*
X59500000Y-80990000D01*
X59750000Y-80460000D02*
X61790000Y-80460000D01*
X59750000Y-81990000D02*
X59750000Y-80990000D01*
X60300000Y-76570000D02*
X60300000Y-75970000D01*
X61240000Y-75970000D02*
X61240000Y-76570000D01*
X61240000Y-76570000D02*
X62840000Y-76570000D01*
X61790000Y-80460000D02*
X62040000Y-80990000D01*
X61790000Y-81990000D02*
X61790000Y-80990000D01*
X62040000Y-80990000D02*
X62040000Y-81990000D01*
X62840000Y-76570000D02*
X62840000Y-75970000D01*
X63420000Y-75970000D02*
X58120000Y-75970000D01*
X63420000Y-81990000D02*
X63420000Y-75970000D01*
X46330000Y-77000000D02*
X46330000Y-81000000D01*
X46620000Y-75970000D02*
X46620000Y-81990000D01*
X46620000Y-81990000D02*
X51920000Y-81990000D01*
X47200000Y-75970000D02*
X47200000Y-76570000D01*
X47200000Y-76570000D02*
X48800000Y-76570000D01*
X48000000Y-80990000D02*
X48250000Y-80460000D01*
X48000000Y-80990000D02*
X50540000Y-80990000D01*
X48000000Y-81990000D02*
X48000000Y-80990000D01*
X48250000Y-80460000D02*
X50290000Y-80460000D01*
X48250000Y-81990000D02*
X48250000Y-80990000D01*
X48800000Y-76570000D02*
X48800000Y-75970000D01*
X49740000Y-75970000D02*
X49740000Y-76570000D01*
X49740000Y-76570000D02*
X51340000Y-76570000D01*
X50290000Y-80460000D02*
X50540000Y-80990000D01*
X50290000Y-81990000D02*
X50290000Y-80990000D01*
X50540000Y-80990000D02*
X50540000Y-81990000D01*
X51340000Y-76570000D02*
X51340000Y-75970000D01*
X51920000Y-75970000D02*
X46620000Y-75970000D01*
X51920000Y-81990000D02*
X51920000Y-75970000D01*
X56602000Y-94520000D02*
X56602000Y-99161000D01*
X56602000Y-94520000D02*
X66842000Y-94520000D01*
X56602000Y-96030000D02*
X66842000Y-96030000D01*
X56602000Y-99161000D02*
X66842000Y-99161000D01*
X59872000Y-94520000D02*
X59872000Y-96030000D01*
X63573000Y-94520000D02*
X63573000Y-96030000D01*
X66842000Y-94520000D02*
X66842000Y-99161000D01*
X46330000Y-53000000D02*
X46330000Y-57000000D01*
X46620000Y-51970000D02*
X46620000Y-57990000D01*
X46620000Y-57990000D02*
X51920000Y-57990000D01*
X47200000Y-51970000D02*
X47200000Y-52570000D01*
X47200000Y-52570000D02*
X48800000Y-52570000D01*
X48000000Y-56990000D02*
X48250000Y-56460000D01*
X48000000Y-56990000D02*
X50540000Y-56990000D01*
X48000000Y-57990000D02*
X48000000Y-56990000D01*
X48250000Y-56460000D02*
X50290000Y-56460000D01*
X48250000Y-57990000D02*
X48250000Y-56990000D01*
X48800000Y-52570000D02*
X48800000Y-51970000D01*
X49740000Y-51970000D02*
X49740000Y-52570000D01*
X49740000Y-52570000D02*
X51340000Y-52570000D01*
X50290000Y-56460000D02*
X50540000Y-56990000D01*
X50290000Y-57990000D02*
X50290000Y-56990000D01*
X50540000Y-56990000D02*
X50540000Y-57990000D01*
X51340000Y-52570000D02*
X51340000Y-51970000D01*
X51920000Y-51970000D02*
X46620000Y-51970000D01*
X51920000Y-57990000D02*
X51920000Y-51970000D01*
X52832000Y-88138000D02*
X52832000Y-84074000D01*
X52832000Y-88138000D02*
X45720000Y-88138000D01*
X52832000Y-84074000D02*
X45720000Y-84074000D01*
X45720000Y-88138000D02*
X45720000Y-84074000D01*
X58166000Y-105156000D02*
X58166000Y-109220000D01*
X58166000Y-105156000D02*
X65278000Y-105156000D01*
X58166000Y-109220000D02*
X65278000Y-109220000D01*
X65278000Y-105156000D02*
X65278000Y-109220000D01*
X58882000Y-124810000D02*
X58882000Y-125550000D01*
X58882000Y-125550000D02*
X59382000Y-125550000D01*
X59122000Y-115389000D02*
X59122000Y-125310000D01*
X59122000Y-115389000D02*
X69402000Y-115389000D01*
X59122000Y-118349000D02*
X69402000Y-118349000D01*
X59122000Y-123250000D02*
X69402000Y-123250000D01*
X59122000Y-124750000D02*
X69402000Y-124750000D01*
X59122000Y-125310000D02*
X69402000Y-125310000D01*
X65575000Y-121673000D02*
X65528000Y-121719000D01*
X65768000Y-121889000D02*
X65733000Y-121924000D01*
X67872000Y-119375000D02*
X67837000Y-119411000D01*
X68077000Y-119581000D02*
X68030000Y-119627000D01*
X69402000Y-115389000D02*
X69402000Y-125310000D01*
X60187001Y-119966001D02*
G75*
G03*
X60186574Y-121333042I1534992J-684000D01*
G01*
X62405999Y-119115001D02*
G75*
G03*
X61038958Y-119114574I-684000J-1534992D01*
G01*
X61038000Y-122184999D02*
G75*
G03*
X61750805Y-122330252I683999J1535000D01*
G01*
X61722000Y-122329999D02*
G75*
G03*
X62405318Y-122184755I0J1679999D01*
G01*
X63257000Y-121334000D02*
G75*
G03*
X63257426Y-119966958I-1535000J684000D01*
G01*
X68482000Y-120650000D02*
G75*
G03*
X68482000Y-120650000I-1680000J0D01*
G01*
X46330000Y-65000000D02*
X46330000Y-69000000D01*
X46620000Y-63970000D02*
X46620000Y-69990000D01*
X46620000Y-69990000D02*
X51920000Y-69990000D01*
X47200000Y-63970000D02*
X47200000Y-64570000D01*
X47200000Y-64570000D02*
X48800000Y-64570000D01*
X48000000Y-68990000D02*
X48250000Y-68460000D01*
X48000000Y-68990000D02*
X50540000Y-68990000D01*
X48000000Y-69990000D02*
X48000000Y-68990000D01*
X48250000Y-68460000D02*
X50290000Y-68460000D01*
X48250000Y-69990000D02*
X48250000Y-68990000D01*
X48800000Y-64570000D02*
X48800000Y-63970000D01*
X49740000Y-63970000D02*
X49740000Y-64570000D01*
X49740000Y-64570000D02*
X51340000Y-64570000D01*
X50290000Y-68460000D02*
X50540000Y-68990000D01*
X50290000Y-69990000D02*
X50290000Y-68990000D01*
X50540000Y-68990000D02*
X50540000Y-69990000D01*
X51340000Y-64570000D02*
X51340000Y-63970000D01*
X51920000Y-63970000D02*
X46620000Y-63970000D01*
X51920000Y-69990000D02*
X51920000Y-63970000D01*
X57830000Y-53000000D02*
X57830000Y-57000000D01*
X58120000Y-51970000D02*
X58120000Y-57990000D01*
X58120000Y-57990000D02*
X63420000Y-57990000D01*
X58700000Y-51970000D02*
X58700000Y-52570000D01*
X58700000Y-52570000D02*
X60300000Y-52570000D01*
X59500000Y-56990000D02*
X59750000Y-56460000D01*
X59500000Y-56990000D02*
X62040000Y-56990000D01*
X59500000Y-57990000D02*
X59500000Y-56990000D01*
X59750000Y-56460000D02*
X61790000Y-56460000D01*
X59750000Y-57990000D02*
X59750000Y-56990000D01*
X60300000Y-52570000D02*
X60300000Y-51970000D01*
X61240000Y-51970000D02*
X61240000Y-52570000D01*
X61240000Y-52570000D02*
X62840000Y-52570000D01*
X61790000Y-56460000D02*
X62040000Y-56990000D01*
X61790000Y-57990000D02*
X61790000Y-56990000D01*
X62040000Y-56990000D02*
X62040000Y-57990000D01*
X62840000Y-52570000D02*
X62840000Y-51970000D01*
X63420000Y-51970000D02*
X58120000Y-51970000D01*
X63420000Y-57990000D02*
X63420000Y-51970000D01*
X57830000Y-65000000D02*
X57830000Y-69000000D01*
X58120000Y-63970000D02*
X58120000Y-69990000D01*
X58120000Y-69990000D02*
X63420000Y-69990000D01*
X58700000Y-63970000D02*
X58700000Y-64570000D01*
X58700000Y-64570000D02*
X60300000Y-64570000D01*
X59500000Y-68990000D02*
X59750000Y-68460000D01*
X59500000Y-68990000D02*
X62040000Y-68990000D01*
X59500000Y-69990000D02*
X59500000Y-68990000D01*
X59750000Y-68460000D02*
X61790000Y-68460000D01*
X59750000Y-69990000D02*
X59750000Y-68990000D01*
X60300000Y-64570000D02*
X60300000Y-63970000D01*
X61240000Y-63970000D02*
X61240000Y-64570000D01*
X61240000Y-64570000D02*
X62840000Y-64570000D01*
X61790000Y-68460000D02*
X62040000Y-68990000D01*
X61790000Y-69990000D02*
X61790000Y-68990000D01*
X62040000Y-68990000D02*
X62040000Y-69990000D01*
X62840000Y-64570000D02*
X62840000Y-63970000D01*
X63420000Y-63970000D02*
X58120000Y-63970000D01*
X63420000Y-69990000D02*
X63420000Y-63970000D01*
%LPC*%
D11*
X44704000Y-121666000D03*
X44704000Y-99066000D03*
D12*
X53848000Y-107188000D03*
D13*
X53848000Y-119888000D03*
D14*
X44850000Y-126009000D03*
X49850000Y-129109000D03*
X44850000Y-132209000D03*
D15*
X59500000Y-79000000D03*
D16*
X62040000Y-79000000D03*
D17*
X55000000Y-135000000D03*
D15*
X48000000Y-79000000D03*
D16*
X50540000Y-79000000D03*
D18*
X59182000Y-97790000D03*
D19*
X61722000Y-97790000D03*
X64262000Y-97790000D03*
D15*
X48000000Y-55000000D03*
D16*
X50540000Y-55000000D03*
D20*
X51816000Y-86106000D03*
X50546000Y-86106000D03*
X48006000Y-86106000D03*
X46736000Y-86106000D03*
X59182000Y-107188000D03*
X60452000Y-107188000D03*
X62992000Y-107188000D03*
X64262000Y-107188000D03*
D21*
X61722000Y-120650000D03*
D14*
X66802000Y-120650000D03*
D17*
X55000000Y-45000000D03*
D15*
X48000000Y-67000000D03*
D16*
X50540000Y-67000000D03*
D15*
X59500000Y-55000000D03*
D16*
X62040000Y-55000000D03*
D15*
X59500000Y-67000000D03*
D16*
X62040000Y-67000000D03*
%LPD*%
M02*
