G04 #@! TF.GenerationSoftware,KiCad,Pcbnew,7.0.5*
G04 #@! TF.CreationDate,2024-04-01T13:17:15+02:00*
G04 #@! TF.ProjectId,power,706f7765-722e-46b6-9963-61645f706362,rev?*
G04 #@! TF.SameCoordinates,Original*
G04 #@! TF.FileFunction,Copper,L1,Top*
G04 #@! TF.FilePolarity,Positive*
%FSLAX46Y46*%
G04 Gerber Fmt 4.6, Leading zero omitted, Abs format (unit mm)*
G04 Created by KiCad (PCBNEW 7.0.5) date 2024-04-01 13:17:15*
%MOMM*%
%LPD*%
G01*
G04 APERTURE LIST*
G04 Aperture macros list*
%AMRoundRect*
0 Rectangle with rounded corners*
0 $1 Rounding radius*
0 $2 $3 $4 $5 $6 $7 $8 $9 X,Y pos of 4 corners*
0 Add a 4 corners polygon primitive as box body*
4,1,4,$2,$3,$4,$5,$6,$7,$8,$9,$2,$3,0*
0 Add four circle primitives for the rounded corners*
1,1,$1+$1,$2,$3*
1,1,$1+$1,$4,$5*
1,1,$1+$1,$6,$7*
1,1,$1+$1,$8,$9*
0 Add four rect primitives between the rounded corners*
20,1,$1+$1,$2,$3,$4,$5,0*
20,1,$1+$1,$4,$5,$6,$7,0*
20,1,$1+$1,$6,$7,$8,$9,0*
20,1,$1+$1,$8,$9,$2,$3,0*%
G04 Aperture macros list end*
G04 #@! TA.AperFunction,ComponentPad*
%ADD10C,2.500000*%
G04 #@! TD*
G04 #@! TA.AperFunction,ComponentPad*
%ADD11R,3.000000X3.000000*%
G04 #@! TD*
G04 #@! TA.AperFunction,ComponentPad*
%ADD12O,3.000000X3.000000*%
G04 #@! TD*
G04 #@! TA.AperFunction,ComponentPad*
%ADD13C,2.600000*%
G04 #@! TD*
G04 #@! TA.AperFunction,ComponentPad*
%ADD14RoundRect,0.250000X-0.620000X-0.845000X0.620000X-0.845000X0.620000X0.845000X-0.620000X0.845000X0*%
G04 #@! TD*
G04 #@! TA.AperFunction,ComponentPad*
%ADD15O,1.740000X2.190000*%
G04 #@! TD*
G04 #@! TA.AperFunction,ComponentPad*
%ADD16R,1.905000X2.000000*%
G04 #@! TD*
G04 #@! TA.AperFunction,ComponentPad*
%ADD17O,1.905000X2.000000*%
G04 #@! TD*
G04 #@! TA.AperFunction,ComponentPad*
%ADD18C,1.600000*%
G04 #@! TD*
G04 #@! TA.AperFunction,ComponentPad*
%ADD19R,2.600000X2.600000*%
G04 #@! TD*
G04 #@! TA.AperFunction,Conductor*
%ADD20C,1.000000*%
G04 #@! TD*
G04 APERTURE END LIST*
D10*
X44704000Y-121666000D03*
X44704000Y-99066000D03*
D11*
X53848000Y-107188000D03*
D12*
X53848000Y-119888000D03*
D13*
X44850000Y-126009000D03*
X49850000Y-129109000D03*
X44850000Y-132209000D03*
D14*
X59500000Y-79000000D03*
D15*
X62040000Y-79000000D03*
D14*
X48000000Y-79000000D03*
D15*
X50540000Y-79000000D03*
D16*
X59182000Y-97790000D03*
D17*
X61722000Y-97790000D03*
X64262000Y-97790000D03*
D14*
X48000000Y-55000000D03*
D15*
X50540000Y-55000000D03*
D18*
X51816000Y-86106000D03*
X50546000Y-86106000D03*
X48006000Y-86106000D03*
X46736000Y-86106000D03*
X59182000Y-107188000D03*
X60452000Y-107188000D03*
X62992000Y-107188000D03*
X64262000Y-107188000D03*
D19*
X61722000Y-120650000D03*
D13*
X66802000Y-120650000D03*
D14*
X48000000Y-67000000D03*
D15*
X50540000Y-67000000D03*
D14*
X59500000Y-55000000D03*
D15*
X62040000Y-55000000D03*
D14*
X59500000Y-67000000D03*
D15*
X62040000Y-67000000D03*
D20*
X60585000Y-82550000D02*
X62040000Y-81095000D01*
X50546000Y-82550000D02*
X60585000Y-82550000D01*
X50546000Y-82550000D02*
X50546000Y-79006000D01*
X62040000Y-81095000D02*
X62040000Y-79000000D01*
X50546000Y-86106000D02*
X50546000Y-82550000D01*
X50546000Y-79006000D02*
X50540000Y-79000000D01*
X54356000Y-91948000D02*
X50546000Y-88138000D01*
X61468000Y-91948000D02*
X54356000Y-91948000D01*
X64262000Y-94742000D02*
X61468000Y-91948000D01*
X64262000Y-97790000D02*
X64262000Y-94742000D01*
X50546000Y-88138000D02*
X50546000Y-86106000D01*
X62992000Y-103886000D02*
X62992000Y-107188000D01*
X61722000Y-102616000D02*
X62992000Y-103886000D01*
X61722000Y-97790000D02*
X61722000Y-102616000D01*
X59182000Y-107188000D02*
X59182000Y-97790000D01*
X53848000Y-107188000D02*
X59182000Y-107188000D01*
X50540000Y-67000000D02*
X50540000Y-55000000D01*
X50540000Y-79000000D02*
X50540000Y-67000000D01*
X62040000Y-67000000D02*
X62040000Y-55000000D01*
X62040000Y-79000000D02*
X62040000Y-67000000D01*
X61976000Y-79064000D02*
X62040000Y-79000000D01*
X44704000Y-110744000D02*
X53848000Y-119888000D01*
X44704000Y-99066000D02*
X44704000Y-110744000D01*
X59182000Y-123952000D02*
X46990000Y-123952000D01*
X46990000Y-123952000D02*
X44704000Y-121666000D01*
X61722000Y-121412000D02*
X59182000Y-123952000D01*
X61722000Y-120650000D02*
X61722000Y-121412000D01*
X44500000Y-121870000D02*
X44704000Y-121666000D01*
X44500000Y-126300000D02*
X44500000Y-121870000D01*
M02*
