G04 #@! TF.GenerationSoftware,KiCad,Pcbnew,7.0.5*
G04 #@! TF.CreationDate,2024-04-01T13:17:15+02:00*
G04 #@! TF.ProjectId,power,706f7765-722e-46b6-9963-61645f706362,rev?*
G04 #@! TF.SameCoordinates,Original*
G04 #@! TF.FileFunction,Legend,Bot*
G04 #@! TF.FilePolarity,Positive*
%FSLAX46Y46*%
G04 Gerber Fmt 4.6, Leading zero omitted, Abs format (unit mm)*
G04 Created by KiCad (PCBNEW 7.0.5) date 2024-04-01 13:17:15*
%MOMM*%
%LPD*%
G01*
G04 APERTURE LIST*
G04 Aperture macros list*
%AMRoundRect*
0 Rectangle with rounded corners*
0 $1 Rounding radius*
0 $2 $3 $4 $5 $6 $7 $8 $9 X,Y pos of 4 corners*
0 Add a 4 corners polygon primitive as box body*
4,1,4,$2,$3,$4,$5,$6,$7,$8,$9,$2,$3,0*
0 Add four circle primitives for the rounded corners*
1,1,$1+$1,$2,$3*
1,1,$1+$1,$4,$5*
1,1,$1+$1,$6,$7*
1,1,$1+$1,$8,$9*
0 Add four rect primitives between the rounded corners*
20,1,$1+$1,$2,$3,$4,$5,0*
20,1,$1+$1,$4,$5,$6,$7,0*
20,1,$1+$1,$6,$7,$8,$9,0*
20,1,$1+$1,$8,$9,$2,$3,0*%
G04 Aperture macros list end*
%ADD10C,0.150000*%
%ADD11C,2.500000*%
%ADD12R,3.000000X3.000000*%
%ADD13O,3.000000X3.000000*%
%ADD14C,2.600000*%
%ADD15RoundRect,0.250000X-0.620000X-0.845000X0.620000X-0.845000X0.620000X0.845000X-0.620000X0.845000X0*%
%ADD16O,1.740000X2.190000*%
%ADD17C,3.500000*%
%ADD18R,1.905000X2.000000*%
%ADD19O,1.905000X2.000000*%
%ADD20C,1.600000*%
%ADD21R,2.600000X2.600000*%
G04 APERTURE END LIST*
D10*
X66687819Y-71488493D02*
X67402104Y-71488493D01*
X67402104Y-71488493D02*
X67544961Y-71440874D01*
X67544961Y-71440874D02*
X67640200Y-71345636D01*
X67640200Y-71345636D02*
X67687819Y-71202779D01*
X67687819Y-71202779D02*
X67687819Y-71107541D01*
X67687819Y-72440874D02*
X67687819Y-71964684D01*
X67687819Y-71964684D02*
X66687819Y-71964684D01*
X67592580Y-73345636D02*
X67640200Y-73298017D01*
X67640200Y-73298017D02*
X67687819Y-73155160D01*
X67687819Y-73155160D02*
X67687819Y-73059922D01*
X67687819Y-73059922D02*
X67640200Y-72917065D01*
X67640200Y-72917065D02*
X67544961Y-72821827D01*
X67544961Y-72821827D02*
X67449723Y-72774208D01*
X67449723Y-72774208D02*
X67259247Y-72726589D01*
X67259247Y-72726589D02*
X67116390Y-72726589D01*
X67116390Y-72726589D02*
X66925914Y-72774208D01*
X66925914Y-72774208D02*
X66830676Y-72821827D01*
X66830676Y-72821827D02*
X66735438Y-72917065D01*
X66735438Y-72917065D02*
X66687819Y-73059922D01*
X66687819Y-73059922D02*
X66687819Y-73155160D01*
X66687819Y-73155160D02*
X66735438Y-73298017D01*
X66735438Y-73298017D02*
X66783057Y-73345636D01*
X66687819Y-74059922D02*
X67402104Y-74059922D01*
X67402104Y-74059922D02*
X67544961Y-74012303D01*
X67544961Y-74012303D02*
X67640200Y-73917065D01*
X67640200Y-73917065D02*
X67687819Y-73774208D01*
X67687819Y-73774208D02*
X67687819Y-73678970D01*
X67687819Y-75012303D02*
X67687819Y-74536113D01*
X67687819Y-74536113D02*
X66687819Y-74536113D01*
X67592580Y-75917065D02*
X67640200Y-75869446D01*
X67640200Y-75869446D02*
X67687819Y-75726589D01*
X67687819Y-75726589D02*
X67687819Y-75631351D01*
X67687819Y-75631351D02*
X67640200Y-75488494D01*
X67640200Y-75488494D02*
X67544961Y-75393256D01*
X67544961Y-75393256D02*
X67449723Y-75345637D01*
X67449723Y-75345637D02*
X67259247Y-75298018D01*
X67259247Y-75298018D02*
X67116390Y-75298018D01*
X67116390Y-75298018D02*
X66925914Y-75345637D01*
X66925914Y-75345637D02*
X66830676Y-75393256D01*
X66830676Y-75393256D02*
X66735438Y-75488494D01*
X66735438Y-75488494D02*
X66687819Y-75631351D01*
X66687819Y-75631351D02*
X66687819Y-75726589D01*
X66687819Y-75726589D02*
X66735438Y-75869446D01*
X66735438Y-75869446D02*
X66783057Y-75917065D01*
X66687819Y-76631351D02*
X67402104Y-76631351D01*
X67402104Y-76631351D02*
X67544961Y-76583732D01*
X67544961Y-76583732D02*
X67640200Y-76488494D01*
X67640200Y-76488494D02*
X67687819Y-76345637D01*
X67687819Y-76345637D02*
X67687819Y-76250399D01*
X67687819Y-77583732D02*
X67687819Y-77107542D01*
X67687819Y-77107542D02*
X66687819Y-77107542D01*
X67592580Y-78488494D02*
X67640200Y-78440875D01*
X67640200Y-78440875D02*
X67687819Y-78298018D01*
X67687819Y-78298018D02*
X67687819Y-78202780D01*
X67687819Y-78202780D02*
X67640200Y-78059923D01*
X67640200Y-78059923D02*
X67544961Y-77964685D01*
X67544961Y-77964685D02*
X67449723Y-77917066D01*
X67449723Y-77917066D02*
X67259247Y-77869447D01*
X67259247Y-77869447D02*
X67116390Y-77869447D01*
X67116390Y-77869447D02*
X66925914Y-77917066D01*
X66925914Y-77917066D02*
X66830676Y-77964685D01*
X66830676Y-77964685D02*
X66735438Y-78059923D01*
X66735438Y-78059923D02*
X66687819Y-78202780D01*
X66687819Y-78202780D02*
X66687819Y-78298018D01*
X66687819Y-78298018D02*
X66735438Y-78440875D01*
X66735438Y-78440875D02*
X66783057Y-78488494D01*
X66687819Y-79202780D02*
X67402104Y-79202780D01*
X67402104Y-79202780D02*
X67544961Y-79155161D01*
X67544961Y-79155161D02*
X67640200Y-79059923D01*
X67640200Y-79059923D02*
X67687819Y-78917066D01*
X67687819Y-78917066D02*
X67687819Y-78821828D01*
X67687819Y-80155161D02*
X67687819Y-79678971D01*
X67687819Y-79678971D02*
X66687819Y-79678971D01*
X67592580Y-81059923D02*
X67640200Y-81012304D01*
X67640200Y-81012304D02*
X67687819Y-80869447D01*
X67687819Y-80869447D02*
X67687819Y-80774209D01*
X67687819Y-80774209D02*
X67640200Y-80631352D01*
X67640200Y-80631352D02*
X67544961Y-80536114D01*
X67544961Y-80536114D02*
X67449723Y-80488495D01*
X67449723Y-80488495D02*
X67259247Y-80440876D01*
X67259247Y-80440876D02*
X67116390Y-80440876D01*
X67116390Y-80440876D02*
X66925914Y-80488495D01*
X66925914Y-80488495D02*
X66830676Y-80536114D01*
X66830676Y-80536114D02*
X66735438Y-80631352D01*
X66735438Y-80631352D02*
X66687819Y-80774209D01*
X66687819Y-80774209D02*
X66687819Y-80869447D01*
X66687819Y-80869447D02*
X66735438Y-81012304D01*
X66735438Y-81012304D02*
X66783057Y-81059923D01*
%LPC*%
D11*
X44704000Y-121666000D03*
X44704000Y-99066000D03*
D12*
X53848000Y-107188000D03*
D13*
X53848000Y-119888000D03*
D14*
X44850000Y-126009000D03*
X49850000Y-129109000D03*
X44850000Y-132209000D03*
D15*
X59500000Y-79000000D03*
D16*
X62040000Y-79000000D03*
D17*
X55000000Y-135000000D03*
D15*
X48000000Y-79000000D03*
D16*
X50540000Y-79000000D03*
D18*
X59182000Y-97790000D03*
D19*
X61722000Y-97790000D03*
X64262000Y-97790000D03*
D15*
X48000000Y-55000000D03*
D16*
X50540000Y-55000000D03*
D20*
X51816000Y-86106000D03*
X50546000Y-86106000D03*
X48006000Y-86106000D03*
X46736000Y-86106000D03*
X59182000Y-107188000D03*
X60452000Y-107188000D03*
X62992000Y-107188000D03*
X64262000Y-107188000D03*
D21*
X61722000Y-120650000D03*
D14*
X66802000Y-120650000D03*
D17*
X55000000Y-45000000D03*
D15*
X48000000Y-67000000D03*
D16*
X50540000Y-67000000D03*
D15*
X59500000Y-55000000D03*
D16*
X62040000Y-55000000D03*
D15*
X59500000Y-67000000D03*
D16*
X62040000Y-67000000D03*
%LPD*%
M02*
