G04 #@! TF.GenerationSoftware,KiCad,Pcbnew,7.0.5*
G04 #@! TF.CreationDate,2024-04-01T13:17:15+02:00*
G04 #@! TF.ProjectId,power,706f7765-722e-46b6-9963-61645f706362,rev?*
G04 #@! TF.SameCoordinates,Original*
G04 #@! TF.FileFunction,Copper,L2,Bot*
G04 #@! TF.FilePolarity,Positive*
%FSLAX46Y46*%
G04 Gerber Fmt 4.6, Leading zero omitted, Abs format (unit mm)*
G04 Created by KiCad (PCBNEW 7.0.5) date 2024-04-01 13:17:15*
%MOMM*%
%LPD*%
G01*
G04 APERTURE LIST*
G04 Aperture macros list*
%AMRoundRect*
0 Rectangle with rounded corners*
0 $1 Rounding radius*
0 $2 $3 $4 $5 $6 $7 $8 $9 X,Y pos of 4 corners*
0 Add a 4 corners polygon primitive as box body*
4,1,4,$2,$3,$4,$5,$6,$7,$8,$9,$2,$3,0*
0 Add four circle primitives for the rounded corners*
1,1,$1+$1,$2,$3*
1,1,$1+$1,$4,$5*
1,1,$1+$1,$6,$7*
1,1,$1+$1,$8,$9*
0 Add four rect primitives between the rounded corners*
20,1,$1+$1,$2,$3,$4,$5,0*
20,1,$1+$1,$4,$5,$6,$7,0*
20,1,$1+$1,$6,$7,$8,$9,0*
20,1,$1+$1,$8,$9,$2,$3,0*%
G04 Aperture macros list end*
G04 #@! TA.AperFunction,ComponentPad*
%ADD10C,2.500000*%
G04 #@! TD*
G04 #@! TA.AperFunction,ComponentPad*
%ADD11R,3.000000X3.000000*%
G04 #@! TD*
G04 #@! TA.AperFunction,ComponentPad*
%ADD12O,3.000000X3.000000*%
G04 #@! TD*
G04 #@! TA.AperFunction,ComponentPad*
%ADD13C,2.600000*%
G04 #@! TD*
G04 #@! TA.AperFunction,ComponentPad*
%ADD14RoundRect,0.250000X-0.620000X-0.845000X0.620000X-0.845000X0.620000X0.845000X-0.620000X0.845000X0*%
G04 #@! TD*
G04 #@! TA.AperFunction,ComponentPad*
%ADD15O,1.740000X2.190000*%
G04 #@! TD*
G04 #@! TA.AperFunction,ComponentPad*
%ADD16R,1.905000X2.000000*%
G04 #@! TD*
G04 #@! TA.AperFunction,ComponentPad*
%ADD17O,1.905000X2.000000*%
G04 #@! TD*
G04 #@! TA.AperFunction,ComponentPad*
%ADD18C,1.600000*%
G04 #@! TD*
G04 #@! TA.AperFunction,ComponentPad*
%ADD19R,2.600000X2.600000*%
G04 #@! TD*
G04 #@! TA.AperFunction,Conductor*
%ADD20C,1.000000*%
G04 #@! TD*
G04 APERTURE END LIST*
D10*
X44704000Y-121666000D03*
X44704000Y-99066000D03*
D11*
X53848000Y-107188000D03*
D12*
X53848000Y-119888000D03*
D13*
X44850000Y-126009000D03*
X49850000Y-129109000D03*
X44850000Y-132209000D03*
D14*
X59500000Y-79000000D03*
D15*
X62040000Y-79000000D03*
D14*
X48000000Y-79000000D03*
D15*
X50540000Y-79000000D03*
D16*
X59182000Y-97790000D03*
D17*
X61722000Y-97790000D03*
X64262000Y-97790000D03*
D14*
X48000000Y-55000000D03*
D15*
X50540000Y-55000000D03*
D18*
X51816000Y-86106000D03*
X50546000Y-86106000D03*
X48006000Y-86106000D03*
X46736000Y-86106000D03*
X59182000Y-107188000D03*
X60452000Y-107188000D03*
X62992000Y-107188000D03*
X64262000Y-107188000D03*
D19*
X61722000Y-120650000D03*
D13*
X66802000Y-120650000D03*
D14*
X48000000Y-67000000D03*
D15*
X50540000Y-67000000D03*
D14*
X59500000Y-55000000D03*
D15*
X62040000Y-55000000D03*
D14*
X59500000Y-67000000D03*
D15*
X62040000Y-67000000D03*
D20*
X60883000Y-129109000D02*
X66802000Y-123190000D01*
X66802000Y-123190000D02*
X66802000Y-120650000D01*
X49850000Y-129109000D02*
X60883000Y-129109000D01*
X46750000Y-132209000D02*
X49850000Y-129109000D01*
X44850000Y-132209000D02*
X46750000Y-132209000D01*
X48000000Y-67000000D02*
X48000000Y-55000000D01*
X48000000Y-79000000D02*
X48000000Y-67000000D01*
X59500000Y-67000000D02*
X59500000Y-55000000D01*
X59500000Y-79000000D02*
X59500000Y-67000000D01*
X59436000Y-79064000D02*
X59500000Y-79000000D01*
G04 #@! TA.AperFunction,Conductor*
G36*
X69538641Y-50565685D02*
G01*
X69584396Y-50618489D01*
X69595601Y-50670397D01*
X69342396Y-129670397D01*
X69322497Y-129737373D01*
X69269547Y-129782959D01*
X69218397Y-129794000D01*
X51695435Y-129794000D01*
X51628396Y-129774315D01*
X51582641Y-129721511D01*
X51572697Y-129652353D01*
X51574544Y-129642408D01*
X51634886Y-129378028D01*
X51634886Y-129378026D01*
X51655047Y-129109004D01*
X51655047Y-129108995D01*
X51634886Y-128839973D01*
X51634886Y-128839971D01*
X51574857Y-128576966D01*
X51574851Y-128576947D01*
X51476290Y-128325818D01*
X51476291Y-128325818D01*
X51341397Y-128092177D01*
X51287704Y-128024847D01*
X50566661Y-128745890D01*
X50479423Y-128607052D01*
X50351948Y-128479577D01*
X50213107Y-128392338D01*
X50935150Y-127670296D01*
X50752517Y-127545779D01*
X50752516Y-127545778D01*
X50509460Y-127428730D01*
X50509462Y-127428730D01*
X50251662Y-127349209D01*
X50251656Y-127349207D01*
X49984898Y-127309000D01*
X49715101Y-127309000D01*
X49448343Y-127349207D01*
X49448337Y-127349209D01*
X49190538Y-127428730D01*
X48947485Y-127545778D01*
X48947476Y-127545783D01*
X48764848Y-127670296D01*
X49486890Y-128392339D01*
X49348052Y-128479577D01*
X49220577Y-128607052D01*
X49133338Y-128745891D01*
X48412295Y-128024848D01*
X48358600Y-128092180D01*
X48223709Y-128325818D01*
X48125148Y-128576947D01*
X48125142Y-128576966D01*
X48065113Y-128839971D01*
X48065113Y-128839973D01*
X48044953Y-129108995D01*
X48044953Y-129109004D01*
X48065113Y-129378026D01*
X48065113Y-129378028D01*
X48125142Y-129641033D01*
X48125148Y-129641052D01*
X48223709Y-129892181D01*
X48223708Y-129892181D01*
X48358602Y-130125822D01*
X48412294Y-130193151D01*
X48412295Y-130193151D01*
X49133338Y-129472108D01*
X49220577Y-129610948D01*
X49348052Y-129738423D01*
X49486890Y-129825661D01*
X48764848Y-130547702D01*
X48947483Y-130672220D01*
X48947485Y-130672221D01*
X49190539Y-130789269D01*
X49190537Y-130789269D01*
X49448337Y-130868790D01*
X49448343Y-130868792D01*
X49715101Y-130908999D01*
X49715110Y-130909000D01*
X49984890Y-130909000D01*
X49984898Y-130908999D01*
X50156389Y-130883151D01*
X50225613Y-130892624D01*
X50278727Y-130938019D01*
X50298867Y-131004923D01*
X50279639Y-131072094D01*
X50262551Y-131093447D01*
X46772319Y-134583681D01*
X46710996Y-134617166D01*
X46684638Y-134620000D01*
X40764000Y-134620000D01*
X40696961Y-134600315D01*
X40651206Y-134547511D01*
X40640000Y-134496000D01*
X40640000Y-132209004D01*
X43044953Y-132209004D01*
X43065113Y-132478026D01*
X43065113Y-132478028D01*
X43125142Y-132741033D01*
X43125148Y-132741052D01*
X43223709Y-132992181D01*
X43223708Y-132992181D01*
X43358602Y-133225822D01*
X43412294Y-133293151D01*
X43412295Y-133293151D01*
X44133338Y-132572108D01*
X44220577Y-132710948D01*
X44348052Y-132838423D01*
X44486890Y-132925661D01*
X43764848Y-133647702D01*
X43947483Y-133772220D01*
X43947485Y-133772221D01*
X44190539Y-133889269D01*
X44190537Y-133889269D01*
X44448337Y-133968790D01*
X44448343Y-133968792D01*
X44715101Y-134008999D01*
X44715110Y-134009000D01*
X44984890Y-134009000D01*
X44984898Y-134008999D01*
X45251656Y-133968792D01*
X45251662Y-133968790D01*
X45509461Y-133889269D01*
X45752521Y-133772218D01*
X45935150Y-133647702D01*
X45213108Y-132925661D01*
X45351948Y-132838423D01*
X45479423Y-132710948D01*
X45566661Y-132572108D01*
X46287703Y-133293151D01*
X46287704Y-133293150D01*
X46341393Y-133225828D01*
X46341400Y-133225817D01*
X46476290Y-132992181D01*
X46574851Y-132741052D01*
X46574857Y-132741033D01*
X46634886Y-132478028D01*
X46634886Y-132478026D01*
X46655047Y-132209004D01*
X46655047Y-132208995D01*
X46634886Y-131939973D01*
X46634886Y-131939971D01*
X46574857Y-131676966D01*
X46574851Y-131676947D01*
X46476290Y-131425818D01*
X46476291Y-131425818D01*
X46341397Y-131192177D01*
X46287704Y-131124847D01*
X45566660Y-131845890D01*
X45479423Y-131707052D01*
X45351948Y-131579577D01*
X45213108Y-131492338D01*
X45935150Y-130770296D01*
X45752517Y-130645779D01*
X45752516Y-130645778D01*
X45509460Y-130528730D01*
X45509462Y-130528730D01*
X45251662Y-130449209D01*
X45251656Y-130449207D01*
X44984898Y-130409000D01*
X44715101Y-130409000D01*
X44448343Y-130449207D01*
X44448337Y-130449209D01*
X44190538Y-130528730D01*
X43947485Y-130645778D01*
X43947476Y-130645783D01*
X43764848Y-130770296D01*
X44486891Y-131492338D01*
X44348052Y-131579577D01*
X44220577Y-131707052D01*
X44133338Y-131845891D01*
X43412295Y-131124848D01*
X43358600Y-131192180D01*
X43223709Y-131425818D01*
X43125148Y-131676947D01*
X43125142Y-131676966D01*
X43065113Y-131939971D01*
X43065113Y-131939973D01*
X43044953Y-132208995D01*
X43044953Y-132209004D01*
X40640000Y-132209004D01*
X40640000Y-121666000D01*
X41948473Y-121666000D01*
X41968563Y-121998136D01*
X41968563Y-121998141D01*
X41968564Y-121998142D01*
X42028544Y-122325441D01*
X42028545Y-122325445D01*
X42028546Y-122325449D01*
X42127530Y-122643104D01*
X42127534Y-122643116D01*
X42127537Y-122643123D01*
X42264102Y-122946557D01*
X42402422Y-123175366D01*
X42436251Y-123231326D01*
X42641460Y-123493255D01*
X42876734Y-123728529D01*
X42876740Y-123728534D01*
X42876748Y-123728542D01*
X42915430Y-123758847D01*
X42929200Y-123769635D01*
X42969833Y-123826475D01*
X42973285Y-123896260D01*
X42938461Y-123956832D01*
X42932439Y-123962231D01*
X42924922Y-123968538D01*
X42790116Y-124111425D01*
X42701057Y-124205823D01*
X42701054Y-124205826D01*
X42701052Y-124205829D01*
X42701045Y-124205837D01*
X42506251Y-124467490D01*
X42343143Y-124750003D01*
X42343137Y-124750016D01*
X42213931Y-125049547D01*
X42120369Y-125362067D01*
X42120367Y-125362075D01*
X42063723Y-125683319D01*
X42063722Y-125683330D01*
X42044754Y-126008996D01*
X42044754Y-126009003D01*
X42063722Y-126334669D01*
X42063723Y-126334680D01*
X42120367Y-126655924D01*
X42120369Y-126655932D01*
X42213931Y-126968452D01*
X42343137Y-127267983D01*
X42343143Y-127267996D01*
X42506251Y-127550509D01*
X42701045Y-127812162D01*
X42701050Y-127812168D01*
X42701057Y-127812177D01*
X42924923Y-128049462D01*
X42924929Y-128049467D01*
X42924930Y-128049468D01*
X42924931Y-128049469D01*
X43174815Y-128259147D01*
X43174818Y-128259149D01*
X43174823Y-128259153D01*
X43447377Y-128438414D01*
X43738899Y-128584822D01*
X44045446Y-128696396D01*
X44045452Y-128696397D01*
X44045454Y-128696398D01*
X44362858Y-128771625D01*
X44362865Y-128771626D01*
X44362874Y-128771628D01*
X44686889Y-128809500D01*
X44686896Y-128809500D01*
X45013104Y-128809500D01*
X45013111Y-128809500D01*
X45337126Y-128771628D01*
X45337135Y-128771625D01*
X45337141Y-128771625D01*
X45593176Y-128710942D01*
X45654554Y-128696396D01*
X45961101Y-128584822D01*
X46252623Y-128438414D01*
X46525177Y-128259153D01*
X46775077Y-128049462D01*
X46998943Y-127812177D01*
X47193749Y-127550508D01*
X47356859Y-127267992D01*
X47486069Y-126968451D01*
X47579630Y-126655934D01*
X47636278Y-126334669D01*
X47655246Y-126009000D01*
X47636278Y-125683331D01*
X47579630Y-125362066D01*
X47486069Y-125049549D01*
X47356859Y-124750008D01*
X47193749Y-124467492D01*
X47193748Y-124467490D01*
X46998954Y-124205837D01*
X46998947Y-124205829D01*
X46998943Y-124205823D01*
X46775077Y-123968538D01*
X46775069Y-123968531D01*
X46775068Y-123968530D01*
X46615664Y-123834774D01*
X46576962Y-123776603D01*
X46575854Y-123706742D01*
X46607686Y-123652107D01*
X46766542Y-123493252D01*
X46971754Y-123231318D01*
X47143898Y-122946557D01*
X47280463Y-122643123D01*
X47379456Y-122325441D01*
X47439436Y-121998142D01*
X47459527Y-121666000D01*
X47439436Y-121333858D01*
X47379456Y-121006559D01*
X47280463Y-120688877D01*
X47143898Y-120385443D01*
X46971754Y-120100682D01*
X46971751Y-120100678D01*
X46971748Y-120100673D01*
X46805131Y-119888003D01*
X50842415Y-119888003D01*
X50862738Y-120236927D01*
X50862739Y-120236938D01*
X50923428Y-120581127D01*
X50923430Y-120581134D01*
X51023674Y-120915972D01*
X51162107Y-121236895D01*
X51162113Y-121236908D01*
X51336870Y-121539597D01*
X51545584Y-121819949D01*
X51545589Y-121819955D01*
X51669463Y-121951253D01*
X51785442Y-122074183D01*
X51951138Y-122213218D01*
X52053186Y-122298847D01*
X52053194Y-122298853D01*
X52345203Y-122490911D01*
X52345207Y-122490913D01*
X52657549Y-122647777D01*
X52985989Y-122767319D01*
X53326086Y-122847923D01*
X53673241Y-122888500D01*
X53673248Y-122888500D01*
X54022752Y-122888500D01*
X54022759Y-122888500D01*
X54369914Y-122847923D01*
X54710011Y-122767319D01*
X55038451Y-122647777D01*
X55350793Y-122490913D01*
X55642811Y-122298849D01*
X55910558Y-122074183D01*
X55949554Y-122032850D01*
X58921500Y-122032850D01*
X58927918Y-122136235D01*
X58927919Y-122136238D01*
X58978950Y-122379615D01*
X58978953Y-122379625D01*
X59069342Y-122611269D01*
X59069344Y-122611273D01*
X59162327Y-122767319D01*
X59196639Y-122824902D01*
X59357348Y-123014649D01*
X59357350Y-123014651D01*
X59547097Y-123175360D01*
X59547103Y-123175363D01*
X59547106Y-123175366D01*
X59760727Y-123302656D01*
X59760730Y-123302657D01*
X59992374Y-123393046D01*
X59992381Y-123393048D01*
X59992386Y-123393050D01*
X60235763Y-123444081D01*
X60339158Y-123450500D01*
X60339169Y-123450500D01*
X63104831Y-123450500D01*
X63104842Y-123450500D01*
X63208237Y-123444081D01*
X63451614Y-123393050D01*
X63451621Y-123393046D01*
X63451625Y-123393046D01*
X63530980Y-123362080D01*
X63683273Y-123302656D01*
X63896894Y-123175366D01*
X63896898Y-123175361D01*
X63896902Y-123175360D01*
X64086649Y-123014651D01*
X64086651Y-123014649D01*
X64247360Y-122824902D01*
X64247361Y-122824898D01*
X64247366Y-122824894D01*
X64374656Y-122611273D01*
X64437586Y-122449999D01*
X64465046Y-122379625D01*
X64465046Y-122379621D01*
X64465050Y-122379614D01*
X64516081Y-122136237D01*
X64522500Y-122032842D01*
X64522500Y-120650004D01*
X64996953Y-120650004D01*
X65017113Y-120919026D01*
X65017113Y-120919028D01*
X65077142Y-121182033D01*
X65077148Y-121182052D01*
X65175709Y-121433181D01*
X65175708Y-121433181D01*
X65310602Y-121666822D01*
X65364294Y-121734151D01*
X66199452Y-120898993D01*
X66209188Y-120928956D01*
X66297186Y-121067619D01*
X66416903Y-121180040D01*
X66551510Y-121254041D01*
X65716848Y-122088702D01*
X65899483Y-122213220D01*
X65899485Y-122213221D01*
X66142539Y-122330269D01*
X66142537Y-122330269D01*
X66400337Y-122409790D01*
X66400343Y-122409792D01*
X66667101Y-122449999D01*
X66667110Y-122450000D01*
X66936890Y-122450000D01*
X66936898Y-122449999D01*
X67203656Y-122409792D01*
X67203662Y-122409790D01*
X67461461Y-122330269D01*
X67704521Y-122213218D01*
X67887150Y-122088702D01*
X67049534Y-121251086D01*
X67117629Y-121224126D01*
X67250492Y-121127595D01*
X67355175Y-121001055D01*
X67403631Y-120898079D01*
X68239703Y-121734151D01*
X68239704Y-121734150D01*
X68293393Y-121666828D01*
X68293400Y-121666817D01*
X68428290Y-121433181D01*
X68526851Y-121182052D01*
X68526857Y-121182033D01*
X68586886Y-120919028D01*
X68586886Y-120919026D01*
X68607047Y-120650004D01*
X68607047Y-120649995D01*
X68586886Y-120380973D01*
X68586886Y-120380971D01*
X68526857Y-120117966D01*
X68526851Y-120117947D01*
X68428290Y-119866818D01*
X68428291Y-119866818D01*
X68293397Y-119633177D01*
X68239704Y-119565847D01*
X67404546Y-120401004D01*
X67394812Y-120371044D01*
X67306814Y-120232381D01*
X67187097Y-120119960D01*
X67052488Y-120045957D01*
X67887150Y-119211296D01*
X67704517Y-119086779D01*
X67704516Y-119086778D01*
X67461460Y-118969730D01*
X67461462Y-118969730D01*
X67203662Y-118890209D01*
X67203656Y-118890207D01*
X66936898Y-118850000D01*
X66667101Y-118850000D01*
X66400343Y-118890207D01*
X66400337Y-118890209D01*
X66142538Y-118969730D01*
X65899485Y-119086778D01*
X65899476Y-119086783D01*
X65716848Y-119211296D01*
X66554464Y-120048913D01*
X66486371Y-120075874D01*
X66353508Y-120172405D01*
X66248825Y-120298945D01*
X66200368Y-120401921D01*
X65364295Y-119565848D01*
X65310600Y-119633180D01*
X65175709Y-119866818D01*
X65077148Y-120117947D01*
X65077142Y-120117966D01*
X65017113Y-120380971D01*
X65017113Y-120380973D01*
X64996953Y-120649995D01*
X64996953Y-120650004D01*
X64522500Y-120650004D01*
X64522500Y-119267158D01*
X64516081Y-119163763D01*
X64465050Y-118920386D01*
X64465048Y-118920381D01*
X64465046Y-118920374D01*
X64374657Y-118688730D01*
X64374656Y-118688727D01*
X64247366Y-118475106D01*
X64247363Y-118475103D01*
X64247360Y-118475097D01*
X64086651Y-118285350D01*
X64086649Y-118285348D01*
X63896902Y-118124639D01*
X63896894Y-118124634D01*
X63683273Y-117997344D01*
X63683271Y-117997343D01*
X63683269Y-117997342D01*
X63451625Y-117906953D01*
X63451615Y-117906950D01*
X63208238Y-117855919D01*
X63208235Y-117855918D01*
X63104850Y-117849500D01*
X63104842Y-117849500D01*
X60339158Y-117849500D01*
X60339149Y-117849500D01*
X60235764Y-117855918D01*
X60235761Y-117855919D01*
X59992384Y-117906950D01*
X59992374Y-117906953D01*
X59760730Y-117997342D01*
X59547097Y-118124639D01*
X59357350Y-118285348D01*
X59357348Y-118285350D01*
X59196639Y-118475097D01*
X59069342Y-118688730D01*
X58978953Y-118920374D01*
X58978950Y-118920384D01*
X58927919Y-119163761D01*
X58927918Y-119163764D01*
X58921500Y-119267149D01*
X58921500Y-122032850D01*
X55949554Y-122032850D01*
X56150412Y-121819953D01*
X56359130Y-121539596D01*
X56533889Y-121236904D01*
X56672326Y-120915971D01*
X56772569Y-120581136D01*
X56782074Y-120527234D01*
X56833260Y-120236938D01*
X56833259Y-120236938D01*
X56833262Y-120236927D01*
X56853585Y-119888000D01*
X56833262Y-119539073D01*
X56833260Y-119539061D01*
X56772571Y-119194872D01*
X56772569Y-119194865D01*
X56741034Y-119089530D01*
X56672326Y-118860029D01*
X56533889Y-118539096D01*
X56359130Y-118236404D01*
X56359129Y-118236402D01*
X56150415Y-117956050D01*
X56150410Y-117956044D01*
X56034433Y-117833117D01*
X55910558Y-117701817D01*
X55762488Y-117577572D01*
X55642813Y-117477152D01*
X55642805Y-117477146D01*
X55350796Y-117285088D01*
X55038458Y-117128226D01*
X55038452Y-117128223D01*
X54710012Y-117008681D01*
X54710009Y-117008680D01*
X54369915Y-116928077D01*
X54326519Y-116923004D01*
X54022759Y-116887500D01*
X53673241Y-116887500D01*
X53369480Y-116923004D01*
X53326085Y-116928077D01*
X53326083Y-116928077D01*
X52985990Y-117008680D01*
X52985987Y-117008681D01*
X52657547Y-117128223D01*
X52657541Y-117128226D01*
X52345203Y-117285088D01*
X52053194Y-117477146D01*
X52053186Y-117477152D01*
X51785442Y-117701817D01*
X51785440Y-117701819D01*
X51545589Y-117956044D01*
X51545584Y-117956050D01*
X51336870Y-118236402D01*
X51162113Y-118539091D01*
X51162107Y-118539104D01*
X51023674Y-118860027D01*
X50923430Y-119194865D01*
X50923428Y-119194872D01*
X50862739Y-119539061D01*
X50862738Y-119539072D01*
X50842415Y-119887996D01*
X50842415Y-119888003D01*
X46805131Y-119888003D01*
X46766539Y-119838744D01*
X46531255Y-119603460D01*
X46269326Y-119398251D01*
X46269318Y-119398246D01*
X45984557Y-119226102D01*
X45681123Y-119089537D01*
X45681116Y-119089534D01*
X45681104Y-119089530D01*
X45363449Y-118990546D01*
X45363445Y-118990545D01*
X45363441Y-118990544D01*
X45036142Y-118930564D01*
X45036141Y-118930563D01*
X45036136Y-118930563D01*
X44704000Y-118910473D01*
X44371863Y-118930563D01*
X44371857Y-118930564D01*
X44371858Y-118930564D01*
X44044559Y-118990544D01*
X44044556Y-118990544D01*
X44044550Y-118990546D01*
X43726895Y-119089530D01*
X43726879Y-119089536D01*
X43726877Y-119089537D01*
X43561959Y-119163761D01*
X43423447Y-119226100D01*
X43423445Y-119226101D01*
X43138673Y-119398251D01*
X42876744Y-119603460D01*
X42641460Y-119838744D01*
X42436251Y-120100673D01*
X42436246Y-120100682D01*
X42264102Y-120385443D01*
X42145033Y-120650004D01*
X42127536Y-120688880D01*
X42127530Y-120688895D01*
X42028546Y-121006550D01*
X42028544Y-121006556D01*
X42028544Y-121006559D01*
X42006363Y-121127595D01*
X41968563Y-121333863D01*
X41948473Y-121666000D01*
X40640000Y-121666000D01*
X40640000Y-108770850D01*
X50847500Y-108770850D01*
X50853918Y-108874235D01*
X50853919Y-108874238D01*
X50904950Y-109117615D01*
X50904953Y-109117625D01*
X50983120Y-109317946D01*
X50995344Y-109349273D01*
X51069494Y-109473713D01*
X51122639Y-109562902D01*
X51283348Y-109752649D01*
X51283350Y-109752651D01*
X51473097Y-109913360D01*
X51473103Y-109913363D01*
X51473106Y-109913366D01*
X51686727Y-110040656D01*
X51686730Y-110040657D01*
X51918374Y-110131046D01*
X51918381Y-110131048D01*
X51918386Y-110131050D01*
X52161763Y-110182081D01*
X52265158Y-110188500D01*
X52265169Y-110188500D01*
X55430831Y-110188500D01*
X55430842Y-110188500D01*
X55534237Y-110182081D01*
X55777614Y-110131050D01*
X55777621Y-110131046D01*
X55777625Y-110131046D01*
X55856980Y-110100080D01*
X56009273Y-110040656D01*
X56222894Y-109913366D01*
X56222898Y-109913361D01*
X56222902Y-109913360D01*
X56412649Y-109752651D01*
X56412651Y-109752649D01*
X56573360Y-109562902D01*
X56573361Y-109562898D01*
X56573366Y-109562894D01*
X56700656Y-109349273D01*
X56791050Y-109117614D01*
X56842081Y-108874237D01*
X56848500Y-108770842D01*
X56848500Y-108189290D01*
X56868185Y-108122251D01*
X56920989Y-108076496D01*
X56990147Y-108066552D01*
X57053703Y-108095577D01*
X57083712Y-108134446D01*
X57185431Y-108340713D01*
X57185435Y-108340720D01*
X57352973Y-108591459D01*
X57551810Y-108818189D01*
X57778540Y-109017026D01*
X58029279Y-109184564D01*
X58029286Y-109184568D01*
X58299731Y-109317937D01*
X58299736Y-109317939D01*
X58299748Y-109317945D01*
X58585309Y-109414880D01*
X58785251Y-109454651D01*
X58881069Y-109473711D01*
X58881070Y-109473711D01*
X58881080Y-109473713D01*
X59182000Y-109493436D01*
X59482920Y-109473713D01*
X59778691Y-109414880D01*
X59778709Y-109414873D01*
X59782621Y-109413827D01*
X59782980Y-109415169D01*
X59846921Y-109412489D01*
X59852490Y-109414124D01*
X59855294Y-109414874D01*
X59855309Y-109414880D01*
X60094529Y-109462464D01*
X60151069Y-109473711D01*
X60151070Y-109473711D01*
X60151080Y-109473713D01*
X60452000Y-109493436D01*
X60752920Y-109473713D01*
X61048691Y-109414880D01*
X61334252Y-109317945D01*
X61604718Y-109184566D01*
X61855461Y-109017025D01*
X62082189Y-108818189D01*
X62281025Y-108591461D01*
X62375069Y-108450713D01*
X62428677Y-108405911D01*
X62498001Y-108397202D01*
X62530576Y-108407225D01*
X62545678Y-108414267D01*
X62545682Y-108414269D01*
X62765389Y-108473139D01*
X62765400Y-108473141D01*
X62991998Y-108492966D01*
X62992002Y-108492966D01*
X63218599Y-108473141D01*
X63218610Y-108473139D01*
X63438317Y-108414269D01*
X63438321Y-108414267D01*
X63574593Y-108350722D01*
X63643671Y-108340230D01*
X63679404Y-108350722D01*
X63815673Y-108414266D01*
X63815682Y-108414269D01*
X64035389Y-108473139D01*
X64035400Y-108473141D01*
X64261998Y-108492966D01*
X64262002Y-108492966D01*
X64488599Y-108473141D01*
X64488610Y-108473139D01*
X64708317Y-108414269D01*
X64708331Y-108414264D01*
X64914478Y-108318136D01*
X64987472Y-108267025D01*
X64306400Y-107585953D01*
X64387148Y-107573165D01*
X64500045Y-107515641D01*
X64589641Y-107426045D01*
X64647165Y-107313148D01*
X64659953Y-107232400D01*
X65341025Y-107913472D01*
X65392136Y-107840478D01*
X65488264Y-107634331D01*
X65488269Y-107634317D01*
X65547139Y-107414610D01*
X65547141Y-107414599D01*
X65566966Y-107188002D01*
X65566966Y-107187997D01*
X65547141Y-106961400D01*
X65547139Y-106961389D01*
X65488269Y-106741682D01*
X65488265Y-106741673D01*
X65392133Y-106535516D01*
X65392131Y-106535512D01*
X65341026Y-106462526D01*
X65341025Y-106462526D01*
X64659953Y-107143598D01*
X64647165Y-107062852D01*
X64589641Y-106949955D01*
X64500045Y-106860359D01*
X64387148Y-106802835D01*
X64306400Y-106790046D01*
X64987472Y-106108974D01*
X64987471Y-106108973D01*
X64914483Y-106057866D01*
X64914481Y-106057865D01*
X64708326Y-105961734D01*
X64708317Y-105961730D01*
X64488610Y-105902860D01*
X64488599Y-105902858D01*
X64262002Y-105883034D01*
X64261998Y-105883034D01*
X64035400Y-105902858D01*
X64035389Y-105902860D01*
X63815682Y-105961730D01*
X63815677Y-105961732D01*
X63679403Y-106025277D01*
X63610325Y-106035768D01*
X63574595Y-106025276D01*
X63438331Y-105961735D01*
X63438317Y-105961730D01*
X63218610Y-105902860D01*
X63218599Y-105902858D01*
X62992002Y-105883034D01*
X62991998Y-105883034D01*
X62765400Y-105902858D01*
X62765389Y-105902860D01*
X62545677Y-105961732D01*
X62530567Y-105968777D01*
X62461489Y-105979265D01*
X62397707Y-105950742D01*
X62375067Y-105925283D01*
X62281025Y-105784539D01*
X62237461Y-105734864D01*
X62082189Y-105557810D01*
X61855459Y-105358973D01*
X61604720Y-105191435D01*
X61604713Y-105191431D01*
X61334268Y-105058062D01*
X61334247Y-105058053D01*
X61048698Y-104961122D01*
X61048692Y-104961120D01*
X61048691Y-104961120D01*
X61048689Y-104961119D01*
X61048683Y-104961118D01*
X60752930Y-104902288D01*
X60752921Y-104902287D01*
X60752920Y-104902287D01*
X60452000Y-104882564D01*
X60151080Y-104902287D01*
X60151079Y-104902287D01*
X60151069Y-104902288D01*
X59855319Y-104961117D01*
X59851389Y-104962171D01*
X59851032Y-104960841D01*
X59787030Y-104963499D01*
X59781451Y-104961860D01*
X59778680Y-104961117D01*
X59482930Y-104902288D01*
X59482921Y-104902287D01*
X59482920Y-104902287D01*
X59182000Y-104882564D01*
X58881080Y-104902287D01*
X58881079Y-104902287D01*
X58881069Y-104902288D01*
X58585316Y-104961118D01*
X58585301Y-104961122D01*
X58299752Y-105058053D01*
X58299731Y-105058062D01*
X58029286Y-105191431D01*
X58029279Y-105191435D01*
X57778540Y-105358973D01*
X57551810Y-105557810D01*
X57352973Y-105784540D01*
X57185435Y-106035279D01*
X57185431Y-106035286D01*
X57083712Y-106241553D01*
X57036407Y-106292972D01*
X56968811Y-106310654D01*
X56902387Y-106288984D01*
X56858223Y-106234842D01*
X56848500Y-106186709D01*
X56848500Y-105605168D01*
X56848500Y-105605158D01*
X56842081Y-105501763D01*
X56791050Y-105258386D01*
X56791048Y-105258381D01*
X56791046Y-105258374D01*
X56700657Y-105026730D01*
X56700656Y-105026727D01*
X56573366Y-104813106D01*
X56573363Y-104813103D01*
X56573360Y-104813097D01*
X56412651Y-104623350D01*
X56412649Y-104623348D01*
X56222902Y-104462639D01*
X56222894Y-104462634D01*
X56009273Y-104335344D01*
X56009271Y-104335343D01*
X56009269Y-104335342D01*
X55777625Y-104244953D01*
X55777615Y-104244950D01*
X55534238Y-104193919D01*
X55534235Y-104193918D01*
X55430850Y-104187500D01*
X55430842Y-104187500D01*
X52265158Y-104187500D01*
X52265149Y-104187500D01*
X52161764Y-104193918D01*
X52161761Y-104193919D01*
X51918384Y-104244950D01*
X51918374Y-104244953D01*
X51686730Y-104335342D01*
X51473097Y-104462639D01*
X51283350Y-104623348D01*
X51283348Y-104623350D01*
X51122639Y-104813097D01*
X50995342Y-105026730D01*
X50904953Y-105258374D01*
X50904950Y-105258384D01*
X50853919Y-105501761D01*
X50853918Y-105501764D01*
X50847500Y-105605149D01*
X50847500Y-108770850D01*
X40640000Y-108770850D01*
X40640000Y-99066000D01*
X41948473Y-99066000D01*
X41968563Y-99398136D01*
X41968563Y-99398141D01*
X41968564Y-99398142D01*
X42028544Y-99725441D01*
X42028545Y-99725445D01*
X42028546Y-99725449D01*
X42127530Y-100043104D01*
X42127534Y-100043116D01*
X42127537Y-100043123D01*
X42264102Y-100346557D01*
X42436246Y-100631318D01*
X42436251Y-100631326D01*
X42641460Y-100893255D01*
X42876744Y-101128539D01*
X43138673Y-101333748D01*
X43138678Y-101333751D01*
X43138682Y-101333754D01*
X43423443Y-101505898D01*
X43726877Y-101642463D01*
X43726890Y-101642467D01*
X43726895Y-101642469D01*
X43938664Y-101708458D01*
X44044559Y-101741456D01*
X44371858Y-101801436D01*
X44704000Y-101821527D01*
X45036142Y-101801436D01*
X45363441Y-101741456D01*
X45681123Y-101642463D01*
X45984557Y-101505898D01*
X46269318Y-101333754D01*
X46531252Y-101128542D01*
X46766542Y-100893252D01*
X46971754Y-100631318D01*
X47143898Y-100346557D01*
X47280463Y-100043123D01*
X47379456Y-99725441D01*
X47439436Y-99398142D01*
X47459527Y-99066000D01*
X47447844Y-98872850D01*
X56729000Y-98872850D01*
X56735418Y-98976235D01*
X56735419Y-98976238D01*
X56786450Y-99219615D01*
X56786453Y-99219625D01*
X56876842Y-99451269D01*
X56876844Y-99451273D01*
X56934198Y-99547526D01*
X57004139Y-99664902D01*
X57164848Y-99854649D01*
X57164850Y-99854651D01*
X57354597Y-100015360D01*
X57354603Y-100015363D01*
X57354606Y-100015366D01*
X57568227Y-100142656D01*
X57614558Y-100160734D01*
X57799874Y-100233046D01*
X57799881Y-100233048D01*
X57799886Y-100233050D01*
X58043263Y-100284081D01*
X58146658Y-100290500D01*
X58146669Y-100290500D01*
X60217331Y-100290500D01*
X60217342Y-100290500D01*
X60320737Y-100284081D01*
X60564114Y-100233050D01*
X60564121Y-100233046D01*
X60564125Y-100233046D01*
X60664308Y-100193954D01*
X60795773Y-100142656D01*
X61009394Y-100015366D01*
X61009398Y-100015361D01*
X61009402Y-100015360D01*
X61199149Y-99854651D01*
X61199151Y-99854649D01*
X61359860Y-99664902D01*
X61359861Y-99664898D01*
X61359866Y-99664894D01*
X61487156Y-99451273D01*
X61572456Y-99232669D01*
X61577546Y-99219625D01*
X61577546Y-99219621D01*
X61577550Y-99219614D01*
X61628581Y-98976237D01*
X61635000Y-98872842D01*
X61634999Y-98466070D01*
X61654685Y-98399032D01*
X61707489Y-98353277D01*
X61776647Y-98343333D01*
X61840203Y-98372358D01*
X61877977Y-98431136D01*
X61880713Y-98442368D01*
X61884339Y-98460990D01*
X61884340Y-98460994D01*
X61884341Y-98460996D01*
X61965683Y-98705987D01*
X61972000Y-98745058D01*
X61972000Y-99268365D01*
X62079784Y-99250381D01*
X62131375Y-99232669D01*
X62201174Y-99229518D01*
X62261596Y-99264604D01*
X62275563Y-99282303D01*
X62292085Y-99307686D01*
X62369086Y-99398136D01*
X62496262Y-99547523D01*
X62496265Y-99547526D01*
X62729423Y-99759275D01*
X62729429Y-99759279D01*
X62729431Y-99759281D01*
X62987765Y-99939484D01*
X63267022Y-100085172D01*
X63562617Y-100193954D01*
X63869695Y-100264042D01*
X64183216Y-100294287D01*
X64498029Y-100284192D01*
X64808968Y-100233922D01*
X65110925Y-100144302D01*
X65114644Y-100142656D01*
X65155343Y-100124639D01*
X65398942Y-100016805D01*
X65668291Y-99853524D01*
X65914549Y-99657140D01*
X66133672Y-99430878D01*
X66322062Y-99178452D01*
X66476627Y-98904008D01*
X66594826Y-98612052D01*
X66674721Y-98307377D01*
X66715000Y-97994988D01*
X66715000Y-97663844D01*
X66699869Y-97428172D01*
X66639659Y-97119004D01*
X66540408Y-96820075D01*
X66403745Y-96536292D01*
X66373310Y-96489536D01*
X66231917Y-96272316D01*
X66231915Y-96272314D01*
X66231914Y-96272314D01*
X66027739Y-96032478D01*
X66027737Y-96032476D01*
X66027734Y-96032473D01*
X65794576Y-95820724D01*
X65536232Y-95640514D01*
X65256984Y-95494831D01*
X65256971Y-95494825D01*
X64961387Y-95386047D01*
X64961384Y-95386046D01*
X64961383Y-95386046D01*
X64859023Y-95362683D01*
X64654307Y-95315958D01*
X64340779Y-95285712D01*
X64025978Y-95295807D01*
X64025972Y-95295807D01*
X64025971Y-95295808D01*
X63901336Y-95315958D01*
X63715032Y-95346078D01*
X63413067Y-95435700D01*
X63125065Y-95563191D01*
X63125059Y-95563194D01*
X63125058Y-95563195D01*
X63122676Y-95564639D01*
X62855709Y-95726476D01*
X62855702Y-95726481D01*
X62609452Y-95922858D01*
X62390326Y-96149123D01*
X62273852Y-96305188D01*
X62217980Y-96347141D01*
X62148295Y-96352226D01*
X62134215Y-96348303D01*
X62079793Y-96329620D01*
X61972000Y-96311633D01*
X61971999Y-96311633D01*
X61971999Y-96838016D01*
X61962938Y-96884547D01*
X61929174Y-96967947D01*
X61929174Y-96967948D01*
X61889564Y-97119001D01*
X61878945Y-97159495D01*
X61842899Y-97219349D01*
X61799739Y-97240600D01*
X61797596Y-97240000D01*
X61707994Y-97240000D01*
X61656682Y-97198093D01*
X61635053Y-97131655D01*
X61635000Y-97128042D01*
X61635000Y-96707168D01*
X61635000Y-96707158D01*
X61628581Y-96603763D01*
X61577550Y-96360386D01*
X61577548Y-96360381D01*
X61577546Y-96360374D01*
X61505234Y-96175058D01*
X61487156Y-96128727D01*
X61359866Y-95915106D01*
X61359863Y-95915103D01*
X61359860Y-95915097D01*
X61199151Y-95725350D01*
X61199149Y-95725348D01*
X61009402Y-95564639D01*
X61006972Y-95563191D01*
X60795773Y-95437344D01*
X60795771Y-95437343D01*
X60795769Y-95437342D01*
X60564125Y-95346953D01*
X60564115Y-95346950D01*
X60320738Y-95295919D01*
X60320735Y-95295918D01*
X60217350Y-95289500D01*
X60217342Y-95289500D01*
X58146658Y-95289500D01*
X58146649Y-95289500D01*
X58043264Y-95295918D01*
X58043261Y-95295919D01*
X57799884Y-95346950D01*
X57799874Y-95346953D01*
X57568230Y-95437342D01*
X57354597Y-95564639D01*
X57164850Y-95725348D01*
X57164848Y-95725350D01*
X57004139Y-95915097D01*
X56876842Y-96128730D01*
X56786453Y-96360374D01*
X56786450Y-96360384D01*
X56735419Y-96603761D01*
X56735418Y-96603764D01*
X56729000Y-96707149D01*
X56729000Y-98872850D01*
X47447844Y-98872850D01*
X47439436Y-98733858D01*
X47379456Y-98406559D01*
X47335142Y-98264349D01*
X47280469Y-98088895D01*
X47280467Y-98088890D01*
X47280463Y-98088877D01*
X47143898Y-97785443D01*
X46971754Y-97500682D01*
X46971751Y-97500678D01*
X46971748Y-97500673D01*
X46766539Y-97238744D01*
X46531255Y-97003460D01*
X46269326Y-96798251D01*
X46269318Y-96798246D01*
X45984557Y-96626102D01*
X45681123Y-96489537D01*
X45681116Y-96489534D01*
X45681104Y-96489530D01*
X45363449Y-96390546D01*
X45363445Y-96390545D01*
X45363441Y-96390544D01*
X45036142Y-96330564D01*
X45036141Y-96330563D01*
X45036136Y-96330563D01*
X44704000Y-96310473D01*
X44371863Y-96330563D01*
X44371857Y-96330564D01*
X44371858Y-96330564D01*
X44044559Y-96390544D01*
X44044556Y-96390544D01*
X44044550Y-96390546D01*
X43726895Y-96489530D01*
X43726879Y-96489536D01*
X43726877Y-96489537D01*
X43622999Y-96536289D01*
X43423447Y-96626100D01*
X43423445Y-96626101D01*
X43138673Y-96798251D01*
X42876744Y-97003460D01*
X42641460Y-97238744D01*
X42436251Y-97500673D01*
X42264101Y-97785445D01*
X42264100Y-97785447D01*
X42127536Y-98088880D01*
X42127530Y-98088895D01*
X42028546Y-98406550D01*
X41968563Y-98733863D01*
X41948473Y-99066000D01*
X40640000Y-99066000D01*
X40640000Y-86106002D01*
X45431034Y-86106002D01*
X45450858Y-86332599D01*
X45450860Y-86332610D01*
X45509730Y-86552317D01*
X45509734Y-86552326D01*
X45605865Y-86758481D01*
X45605866Y-86758483D01*
X45656973Y-86831471D01*
X45656974Y-86831472D01*
X46338046Y-86150399D01*
X46350835Y-86231148D01*
X46408359Y-86344045D01*
X46497955Y-86433641D01*
X46610852Y-86491165D01*
X46691597Y-86503953D01*
X46010526Y-87185025D01*
X46010526Y-87185026D01*
X46083512Y-87236131D01*
X46083516Y-87236133D01*
X46289673Y-87332265D01*
X46289682Y-87332269D01*
X46509389Y-87391139D01*
X46509400Y-87391141D01*
X46735998Y-87410966D01*
X46736002Y-87410966D01*
X46962599Y-87391141D01*
X46962610Y-87391139D01*
X47182317Y-87332269D01*
X47182321Y-87332267D01*
X47318593Y-87268722D01*
X47387671Y-87258230D01*
X47423404Y-87268722D01*
X47559673Y-87332266D01*
X47559682Y-87332269D01*
X47779389Y-87391139D01*
X47779400Y-87391141D01*
X48005998Y-87410966D01*
X48006002Y-87410966D01*
X48232599Y-87391141D01*
X48232610Y-87391139D01*
X48452317Y-87332269D01*
X48452326Y-87332266D01*
X48467423Y-87325226D01*
X48536500Y-87314733D01*
X48600284Y-87343251D01*
X48622932Y-87368716D01*
X48716976Y-87509462D01*
X48915810Y-87736189D01*
X49142540Y-87935026D01*
X49393279Y-88102564D01*
X49393286Y-88102568D01*
X49663731Y-88235937D01*
X49663736Y-88235939D01*
X49663748Y-88235945D01*
X49949309Y-88332880D01*
X50149251Y-88372651D01*
X50245069Y-88391711D01*
X50245070Y-88391711D01*
X50245080Y-88391713D01*
X50546000Y-88411436D01*
X50846920Y-88391713D01*
X51142691Y-88332880D01*
X51142709Y-88332873D01*
X51146621Y-88331827D01*
X51146980Y-88333169D01*
X51210921Y-88330489D01*
X51216490Y-88332124D01*
X51219294Y-88332874D01*
X51219309Y-88332880D01*
X51458529Y-88380464D01*
X51515069Y-88391711D01*
X51515070Y-88391711D01*
X51515080Y-88391713D01*
X51816000Y-88411436D01*
X52116920Y-88391713D01*
X52412691Y-88332880D01*
X52698252Y-88235945D01*
X52968718Y-88102566D01*
X53219461Y-87935025D01*
X53446189Y-87736189D01*
X53645025Y-87509461D01*
X53812566Y-87258718D01*
X53945945Y-86988252D01*
X54042880Y-86702691D01*
X54101713Y-86406920D01*
X54121436Y-86106000D01*
X54101713Y-85805080D01*
X54084955Y-85720835D01*
X54072791Y-85659682D01*
X54042880Y-85509309D01*
X53945945Y-85223748D01*
X53812566Y-84953282D01*
X53769005Y-84888088D01*
X53645026Y-84702540D01*
X53446189Y-84475810D01*
X53219459Y-84276973D01*
X52968720Y-84109435D01*
X52968713Y-84109431D01*
X52698268Y-83976062D01*
X52698247Y-83976053D01*
X52412698Y-83879122D01*
X52412692Y-83879120D01*
X52412691Y-83879120D01*
X52412689Y-83879119D01*
X52412683Y-83879118D01*
X52116930Y-83820288D01*
X52116921Y-83820287D01*
X52116920Y-83820287D01*
X51816000Y-83800564D01*
X51815999Y-83800564D01*
X51665540Y-83810425D01*
X51515080Y-83820287D01*
X51515079Y-83820287D01*
X51515069Y-83820288D01*
X51219319Y-83879117D01*
X51215389Y-83880171D01*
X51215031Y-83878837D01*
X51151047Y-83881503D01*
X51145467Y-83879864D01*
X51142680Y-83879117D01*
X50846930Y-83820288D01*
X50846921Y-83820287D01*
X50846920Y-83820287D01*
X50546000Y-83800564D01*
X50545999Y-83800564D01*
X50395540Y-83810425D01*
X50245080Y-83820287D01*
X50245079Y-83820287D01*
X50245069Y-83820288D01*
X49949316Y-83879118D01*
X49949301Y-83879122D01*
X49663752Y-83976053D01*
X49663731Y-83976062D01*
X49393286Y-84109431D01*
X49393279Y-84109435D01*
X49142540Y-84276973D01*
X48915810Y-84475810D01*
X48716975Y-84702539D01*
X48716970Y-84702545D01*
X48622932Y-84843283D01*
X48569320Y-84888088D01*
X48499995Y-84896795D01*
X48467427Y-84886775D01*
X48452327Y-84879734D01*
X48452317Y-84879730D01*
X48232610Y-84820860D01*
X48232599Y-84820858D01*
X48006002Y-84801034D01*
X48005998Y-84801034D01*
X47779400Y-84820858D01*
X47779389Y-84820860D01*
X47559682Y-84879730D01*
X47559677Y-84879732D01*
X47423403Y-84943277D01*
X47354325Y-84953768D01*
X47318595Y-84943276D01*
X47182331Y-84879735D01*
X47182317Y-84879730D01*
X46962610Y-84820860D01*
X46962599Y-84820858D01*
X46736002Y-84801034D01*
X46735998Y-84801034D01*
X46509400Y-84820858D01*
X46509389Y-84820860D01*
X46289682Y-84879730D01*
X46289673Y-84879734D01*
X46083513Y-84975868D01*
X46010526Y-85026973D01*
X46691599Y-85708046D01*
X46610852Y-85720835D01*
X46497955Y-85778359D01*
X46408359Y-85867955D01*
X46350835Y-85980852D01*
X46338046Y-86061599D01*
X45656973Y-85380526D01*
X45656972Y-85380527D01*
X45605868Y-85453513D01*
X45509734Y-85659673D01*
X45509730Y-85659682D01*
X45450860Y-85879389D01*
X45450858Y-85879400D01*
X45431034Y-86105997D01*
X45431034Y-86106002D01*
X40640000Y-86106002D01*
X40640000Y-78750000D01*
X46630000Y-78750000D01*
X47459530Y-78750000D01*
X47420315Y-78844674D01*
X47399866Y-79000000D01*
X47420315Y-79155326D01*
X47459530Y-79250000D01*
X46630001Y-79250000D01*
X46630001Y-79894986D01*
X46640494Y-79997697D01*
X46695641Y-80164119D01*
X46695643Y-80164124D01*
X46787684Y-80313345D01*
X46911654Y-80437315D01*
X47060875Y-80529356D01*
X47060880Y-80529358D01*
X47227302Y-80584505D01*
X47227309Y-80584506D01*
X47330019Y-80594999D01*
X47749999Y-80594999D01*
X47750000Y-80594998D01*
X47750000Y-79540469D01*
X47844674Y-79579685D01*
X47961003Y-79595000D01*
X48038997Y-79595000D01*
X48155326Y-79579685D01*
X48190695Y-79565034D01*
X48245359Y-79839847D01*
X48245777Y-79841404D01*
X48245986Y-79842999D01*
X48246152Y-79843829D01*
X48246097Y-79843839D01*
X48250000Y-79873489D01*
X48250000Y-80594999D01*
X48538149Y-80594999D01*
X48605188Y-80614684D01*
X48641251Y-80650108D01*
X48655322Y-80671166D01*
X48860206Y-80904793D01*
X49042646Y-81064787D01*
X49093835Y-81109679D01*
X49352207Y-81282318D01*
X49630903Y-81419755D01*
X49925153Y-81519640D01*
X50131181Y-81560621D01*
X50229913Y-81580261D01*
X50229914Y-81580261D01*
X50229924Y-81580263D01*
X50540000Y-81600586D01*
X50850076Y-81580263D01*
X51154847Y-81519640D01*
X51449097Y-81419755D01*
X51727793Y-81282318D01*
X51986165Y-81109679D01*
X52219793Y-80904793D01*
X52424679Y-80671165D01*
X52597318Y-80412793D01*
X52734755Y-80134097D01*
X52834640Y-79839847D01*
X52895263Y-79535076D01*
X52910500Y-79302599D01*
X52910500Y-78750000D01*
X58130000Y-78750000D01*
X58959530Y-78750000D01*
X58920315Y-78844674D01*
X58899866Y-79000000D01*
X58920315Y-79155326D01*
X58959530Y-79250000D01*
X58130001Y-79250000D01*
X58130001Y-79894986D01*
X58140494Y-79997697D01*
X58195641Y-80164119D01*
X58195643Y-80164124D01*
X58287684Y-80313345D01*
X58411654Y-80437315D01*
X58560875Y-80529356D01*
X58560880Y-80529358D01*
X58727302Y-80584505D01*
X58727309Y-80584506D01*
X58830019Y-80594999D01*
X59249999Y-80594999D01*
X59250000Y-80594998D01*
X59250000Y-79540469D01*
X59344674Y-79579685D01*
X59461003Y-79595000D01*
X59538997Y-79595000D01*
X59655326Y-79579685D01*
X59690695Y-79565034D01*
X59745359Y-79839847D01*
X59745777Y-79841404D01*
X59745986Y-79842999D01*
X59746152Y-79843829D01*
X59746097Y-79843839D01*
X59750000Y-79873489D01*
X59749999Y-80594999D01*
X60038149Y-80594999D01*
X60105188Y-80614684D01*
X60141251Y-80650108D01*
X60155322Y-80671166D01*
X60360206Y-80904793D01*
X60542646Y-81064787D01*
X60593835Y-81109679D01*
X60852207Y-81282318D01*
X61130903Y-81419755D01*
X61425153Y-81519640D01*
X61631181Y-81560621D01*
X61729913Y-81580261D01*
X61729914Y-81580261D01*
X61729924Y-81580263D01*
X62040000Y-81600586D01*
X62350076Y-81580263D01*
X62654847Y-81519640D01*
X62949097Y-81419755D01*
X63227793Y-81282318D01*
X63486165Y-81109679D01*
X63719793Y-80904793D01*
X63924679Y-80671165D01*
X64097318Y-80412793D01*
X64234755Y-80134097D01*
X64334640Y-79839847D01*
X64395263Y-79535076D01*
X64410500Y-79302599D01*
X64410500Y-78697401D01*
X64395263Y-78464924D01*
X64334640Y-78160153D01*
X64234755Y-77865903D01*
X64097318Y-77587207D01*
X63924679Y-77328835D01*
X63879787Y-77277646D01*
X63719793Y-77095206D01*
X63486166Y-76890322D01*
X63227798Y-76717685D01*
X63227795Y-76717683D01*
X63227793Y-76717682D01*
X63227785Y-76717678D01*
X62949100Y-76580246D01*
X62654854Y-76480362D01*
X62654848Y-76480360D01*
X62654847Y-76480360D01*
X62654845Y-76480359D01*
X62654839Y-76480358D01*
X62350086Y-76419738D01*
X62350077Y-76419737D01*
X62350076Y-76419737D01*
X62040000Y-76399414D01*
X62039999Y-76399414D01*
X61884961Y-76409575D01*
X61729924Y-76419737D01*
X61729923Y-76419737D01*
X61729913Y-76419738D01*
X61425160Y-76480358D01*
X61425145Y-76480362D01*
X61130899Y-76580246D01*
X60852214Y-76717678D01*
X60852201Y-76717685D01*
X60593833Y-76890322D01*
X60360206Y-77095206D01*
X60155323Y-77328831D01*
X60147450Y-77340613D01*
X60141251Y-77349891D01*
X60087641Y-77394695D01*
X60038150Y-77405000D01*
X59750000Y-77405000D01*
X59750000Y-78126511D01*
X59746097Y-78156160D01*
X59746152Y-78156171D01*
X59745986Y-78157000D01*
X59745777Y-78158596D01*
X59745359Y-78160152D01*
X59690694Y-78434965D01*
X59655326Y-78420315D01*
X59538997Y-78405000D01*
X59461003Y-78405000D01*
X59344674Y-78420315D01*
X59249999Y-78459530D01*
X59249999Y-77405000D01*
X58830028Y-77405000D01*
X58830012Y-77405001D01*
X58727302Y-77415494D01*
X58560880Y-77470641D01*
X58560875Y-77470643D01*
X58411654Y-77562684D01*
X58287684Y-77686654D01*
X58195643Y-77835875D01*
X58195641Y-77835880D01*
X58140494Y-78002302D01*
X58140493Y-78002309D01*
X58130000Y-78105013D01*
X58130000Y-78750000D01*
X52910500Y-78750000D01*
X52910500Y-78697401D01*
X52895263Y-78464924D01*
X52834640Y-78160153D01*
X52734755Y-77865903D01*
X52597318Y-77587207D01*
X52424679Y-77328835D01*
X52379787Y-77277646D01*
X52219793Y-77095206D01*
X51986166Y-76890322D01*
X51727798Y-76717685D01*
X51727795Y-76717683D01*
X51727793Y-76717682D01*
X51727785Y-76717678D01*
X51449100Y-76580246D01*
X51154854Y-76480362D01*
X51154848Y-76480360D01*
X51154847Y-76480360D01*
X51154845Y-76480359D01*
X51154839Y-76480358D01*
X50850086Y-76419738D01*
X50850077Y-76419737D01*
X50850076Y-76419737D01*
X50540000Y-76399414D01*
X50229924Y-76419737D01*
X50229923Y-76419737D01*
X50229913Y-76419738D01*
X49925160Y-76480358D01*
X49925145Y-76480362D01*
X49630899Y-76580246D01*
X49352214Y-76717678D01*
X49352201Y-76717685D01*
X49093833Y-76890322D01*
X48860206Y-77095206D01*
X48655323Y-77328831D01*
X48647450Y-77340613D01*
X48641251Y-77349891D01*
X48587641Y-77394695D01*
X48538150Y-77405000D01*
X48250000Y-77405000D01*
X48250000Y-78126511D01*
X48246097Y-78156160D01*
X48246152Y-78156171D01*
X48245986Y-78157000D01*
X48245777Y-78158596D01*
X48245359Y-78160152D01*
X48190694Y-78434965D01*
X48155326Y-78420315D01*
X48038997Y-78405000D01*
X47961003Y-78405000D01*
X47844674Y-78420315D01*
X47749999Y-78459530D01*
X47750000Y-77405000D01*
X47330028Y-77405000D01*
X47330012Y-77405001D01*
X47227302Y-77415494D01*
X47060880Y-77470641D01*
X47060875Y-77470643D01*
X46911654Y-77562684D01*
X46787684Y-77686654D01*
X46695643Y-77835875D01*
X46695641Y-77835880D01*
X46640494Y-78002302D01*
X46640493Y-78002309D01*
X46630000Y-78105013D01*
X46630000Y-78750000D01*
X40640000Y-78750000D01*
X40640000Y-66750000D01*
X46630000Y-66750000D01*
X47459530Y-66750000D01*
X47420315Y-66844674D01*
X47399866Y-67000000D01*
X47420315Y-67155326D01*
X47459530Y-67250000D01*
X46630001Y-67250000D01*
X46630001Y-67894986D01*
X46640494Y-67997697D01*
X46695641Y-68164119D01*
X46695643Y-68164124D01*
X46787684Y-68313345D01*
X46911654Y-68437315D01*
X47060875Y-68529356D01*
X47060880Y-68529358D01*
X47227302Y-68584505D01*
X47227309Y-68584506D01*
X47330019Y-68594999D01*
X47749999Y-68594999D01*
X47750000Y-68594998D01*
X47750000Y-67540469D01*
X47844674Y-67579685D01*
X47961003Y-67595000D01*
X48038997Y-67595000D01*
X48155326Y-67579685D01*
X48190695Y-67565034D01*
X48245359Y-67839847D01*
X48245777Y-67841404D01*
X48245986Y-67842999D01*
X48246152Y-67843829D01*
X48246097Y-67843839D01*
X48250000Y-67873489D01*
X48250000Y-68594999D01*
X48538149Y-68594999D01*
X48605188Y-68614684D01*
X48641251Y-68650108D01*
X48655322Y-68671166D01*
X48860206Y-68904793D01*
X49042646Y-69064787D01*
X49093835Y-69109679D01*
X49352207Y-69282318D01*
X49630903Y-69419755D01*
X49925153Y-69519640D01*
X50131181Y-69560621D01*
X50229913Y-69580261D01*
X50229914Y-69580261D01*
X50229924Y-69580263D01*
X50540000Y-69600586D01*
X50850076Y-69580263D01*
X51154847Y-69519640D01*
X51449097Y-69419755D01*
X51727793Y-69282318D01*
X51986165Y-69109679D01*
X52219793Y-68904793D01*
X52424679Y-68671165D01*
X52597318Y-68412793D01*
X52734755Y-68134097D01*
X52834640Y-67839847D01*
X52895263Y-67535076D01*
X52910500Y-67302599D01*
X52910500Y-66750000D01*
X58130000Y-66750000D01*
X58959530Y-66750000D01*
X58920315Y-66844674D01*
X58899866Y-67000000D01*
X58920315Y-67155326D01*
X58959530Y-67250000D01*
X58130001Y-67250000D01*
X58130001Y-67894986D01*
X58140494Y-67997697D01*
X58195641Y-68164119D01*
X58195643Y-68164124D01*
X58287684Y-68313345D01*
X58411654Y-68437315D01*
X58560875Y-68529356D01*
X58560880Y-68529358D01*
X58727302Y-68584505D01*
X58727309Y-68584506D01*
X58830019Y-68594999D01*
X59249999Y-68594999D01*
X59250000Y-68594998D01*
X59250000Y-67540469D01*
X59344674Y-67579685D01*
X59461003Y-67595000D01*
X59538997Y-67595000D01*
X59655326Y-67579685D01*
X59690695Y-67565034D01*
X59745359Y-67839847D01*
X59745777Y-67841404D01*
X59745986Y-67842999D01*
X59746152Y-67843829D01*
X59746097Y-67843839D01*
X59750000Y-67873489D01*
X59749999Y-68594999D01*
X60038149Y-68594999D01*
X60105188Y-68614684D01*
X60141251Y-68650108D01*
X60155322Y-68671166D01*
X60360206Y-68904793D01*
X60542646Y-69064787D01*
X60593835Y-69109679D01*
X60852207Y-69282318D01*
X61130903Y-69419755D01*
X61425153Y-69519640D01*
X61631181Y-69560621D01*
X61729913Y-69580261D01*
X61729914Y-69580261D01*
X61729924Y-69580263D01*
X62040000Y-69600586D01*
X62350076Y-69580263D01*
X62654847Y-69519640D01*
X62949097Y-69419755D01*
X63227793Y-69282318D01*
X63486165Y-69109679D01*
X63719793Y-68904793D01*
X63924679Y-68671165D01*
X64097318Y-68412793D01*
X64234755Y-68134097D01*
X64334640Y-67839847D01*
X64395263Y-67535076D01*
X64410500Y-67302599D01*
X64410500Y-66697401D01*
X64395263Y-66464924D01*
X64334640Y-66160153D01*
X64234755Y-65865903D01*
X64097318Y-65587207D01*
X63924679Y-65328835D01*
X63879787Y-65277646D01*
X63719793Y-65095206D01*
X63486166Y-64890322D01*
X63227798Y-64717685D01*
X63227795Y-64717683D01*
X63227793Y-64717682D01*
X63227785Y-64717678D01*
X62949100Y-64580246D01*
X62654854Y-64480362D01*
X62654848Y-64480360D01*
X62654847Y-64480360D01*
X62654845Y-64480359D01*
X62654839Y-64480358D01*
X62350086Y-64419738D01*
X62350077Y-64419737D01*
X62350076Y-64419737D01*
X62040000Y-64399414D01*
X62039999Y-64399414D01*
X61884961Y-64409575D01*
X61729924Y-64419737D01*
X61729923Y-64419737D01*
X61729913Y-64419738D01*
X61425160Y-64480358D01*
X61425145Y-64480362D01*
X61130899Y-64580246D01*
X60852214Y-64717678D01*
X60852201Y-64717685D01*
X60593833Y-64890322D01*
X60360206Y-65095206D01*
X60155323Y-65328831D01*
X60147450Y-65340613D01*
X60141251Y-65349891D01*
X60087641Y-65394695D01*
X60038150Y-65405000D01*
X59750000Y-65405000D01*
X59750000Y-66126511D01*
X59746097Y-66156160D01*
X59746152Y-66156171D01*
X59745986Y-66157000D01*
X59745777Y-66158596D01*
X59745359Y-66160152D01*
X59690694Y-66434965D01*
X59655326Y-66420315D01*
X59538997Y-66405000D01*
X59461003Y-66405000D01*
X59344674Y-66420315D01*
X59249999Y-66459530D01*
X59249999Y-65405000D01*
X58830028Y-65405000D01*
X58830012Y-65405001D01*
X58727302Y-65415494D01*
X58560880Y-65470641D01*
X58560875Y-65470643D01*
X58411654Y-65562684D01*
X58287684Y-65686654D01*
X58195643Y-65835875D01*
X58195641Y-65835880D01*
X58140494Y-66002302D01*
X58140493Y-66002309D01*
X58130000Y-66105013D01*
X58130000Y-66750000D01*
X52910500Y-66750000D01*
X52910500Y-66697401D01*
X52895263Y-66464924D01*
X52834640Y-66160153D01*
X52734755Y-65865903D01*
X52597318Y-65587207D01*
X52424679Y-65328835D01*
X52379787Y-65277646D01*
X52219793Y-65095206D01*
X51986166Y-64890322D01*
X51727798Y-64717685D01*
X51727795Y-64717683D01*
X51727793Y-64717682D01*
X51727785Y-64717678D01*
X51449100Y-64580246D01*
X51154854Y-64480362D01*
X51154848Y-64480360D01*
X51154847Y-64480360D01*
X51154845Y-64480359D01*
X51154839Y-64480358D01*
X50850086Y-64419738D01*
X50850077Y-64419737D01*
X50850076Y-64419737D01*
X50540000Y-64399414D01*
X50229924Y-64419737D01*
X50229923Y-64419737D01*
X50229913Y-64419738D01*
X49925160Y-64480358D01*
X49925145Y-64480362D01*
X49630899Y-64580246D01*
X49352214Y-64717678D01*
X49352201Y-64717685D01*
X49093833Y-64890322D01*
X48860206Y-65095206D01*
X48655323Y-65328831D01*
X48647450Y-65340613D01*
X48641251Y-65349891D01*
X48587641Y-65394695D01*
X48538150Y-65405000D01*
X48250000Y-65405000D01*
X48250000Y-66126511D01*
X48246097Y-66156160D01*
X48246152Y-66156171D01*
X48245986Y-66157000D01*
X48245777Y-66158596D01*
X48245359Y-66160152D01*
X48190694Y-66434965D01*
X48155326Y-66420315D01*
X48038997Y-66405000D01*
X47961003Y-66405000D01*
X47844674Y-66420315D01*
X47749999Y-66459530D01*
X47750000Y-65405000D01*
X47330028Y-65405000D01*
X47330012Y-65405001D01*
X47227302Y-65415494D01*
X47060880Y-65470641D01*
X47060875Y-65470643D01*
X46911654Y-65562684D01*
X46787684Y-65686654D01*
X46695643Y-65835875D01*
X46695641Y-65835880D01*
X46640494Y-66002302D01*
X46640493Y-66002309D01*
X46630000Y-66105013D01*
X46630000Y-66750000D01*
X40640000Y-66750000D01*
X40640000Y-54750000D01*
X46630000Y-54750000D01*
X47459530Y-54750000D01*
X47420315Y-54844674D01*
X47399866Y-55000000D01*
X47420315Y-55155326D01*
X47459530Y-55250000D01*
X46630001Y-55250000D01*
X46630001Y-55894986D01*
X46640494Y-55997697D01*
X46695641Y-56164119D01*
X46695643Y-56164124D01*
X46787684Y-56313345D01*
X46911654Y-56437315D01*
X47060875Y-56529356D01*
X47060880Y-56529358D01*
X47227302Y-56584505D01*
X47227309Y-56584506D01*
X47330019Y-56594999D01*
X47749999Y-56594999D01*
X47750000Y-56594998D01*
X47750000Y-55540469D01*
X47844674Y-55579685D01*
X47961003Y-55595000D01*
X48038997Y-55595000D01*
X48155326Y-55579685D01*
X48190695Y-55565034D01*
X48245359Y-55839847D01*
X48245777Y-55841404D01*
X48245986Y-55842999D01*
X48246152Y-55843829D01*
X48246097Y-55843839D01*
X48250000Y-55873489D01*
X48250000Y-56594999D01*
X48538149Y-56594999D01*
X48605188Y-56614684D01*
X48641251Y-56650108D01*
X48655322Y-56671166D01*
X48860206Y-56904793D01*
X49042646Y-57064787D01*
X49093835Y-57109679D01*
X49352207Y-57282318D01*
X49630903Y-57419755D01*
X49925153Y-57519640D01*
X50131181Y-57560621D01*
X50229913Y-57580261D01*
X50229914Y-57580261D01*
X50229924Y-57580263D01*
X50540000Y-57600586D01*
X50850076Y-57580263D01*
X51154847Y-57519640D01*
X51449097Y-57419755D01*
X51727793Y-57282318D01*
X51986165Y-57109679D01*
X52219793Y-56904793D01*
X52424679Y-56671165D01*
X52597318Y-56412793D01*
X52734755Y-56134097D01*
X52834640Y-55839847D01*
X52895263Y-55535076D01*
X52910500Y-55302599D01*
X52910500Y-54750000D01*
X58130000Y-54750000D01*
X58959530Y-54750000D01*
X58920315Y-54844674D01*
X58899866Y-55000000D01*
X58920315Y-55155326D01*
X58959530Y-55250000D01*
X58130001Y-55250000D01*
X58130001Y-55894986D01*
X58140494Y-55997697D01*
X58195641Y-56164119D01*
X58195643Y-56164124D01*
X58287684Y-56313345D01*
X58411654Y-56437315D01*
X58560875Y-56529356D01*
X58560880Y-56529358D01*
X58727302Y-56584505D01*
X58727309Y-56584506D01*
X58830019Y-56594999D01*
X59249999Y-56594999D01*
X59250000Y-56594998D01*
X59250000Y-55540469D01*
X59344674Y-55579685D01*
X59461003Y-55595000D01*
X59538997Y-55595000D01*
X59655326Y-55579685D01*
X59690695Y-55565034D01*
X59745359Y-55839847D01*
X59745777Y-55841404D01*
X59745986Y-55842999D01*
X59746152Y-55843829D01*
X59746097Y-55843839D01*
X59750000Y-55873489D01*
X59749999Y-56594999D01*
X60038149Y-56594999D01*
X60105188Y-56614684D01*
X60141251Y-56650108D01*
X60155322Y-56671166D01*
X60360206Y-56904793D01*
X60542646Y-57064787D01*
X60593835Y-57109679D01*
X60852207Y-57282318D01*
X61130903Y-57419755D01*
X61425153Y-57519640D01*
X61631181Y-57560621D01*
X61729913Y-57580261D01*
X61729914Y-57580261D01*
X61729924Y-57580263D01*
X62040000Y-57600586D01*
X62350076Y-57580263D01*
X62654847Y-57519640D01*
X62949097Y-57419755D01*
X63227793Y-57282318D01*
X63486165Y-57109679D01*
X63719793Y-56904793D01*
X63924679Y-56671165D01*
X64097318Y-56412793D01*
X64234755Y-56134097D01*
X64334640Y-55839847D01*
X64395263Y-55535076D01*
X64410500Y-55302599D01*
X64410500Y-54697401D01*
X64395263Y-54464924D01*
X64334640Y-54160153D01*
X64234755Y-53865903D01*
X64097318Y-53587207D01*
X63924679Y-53328835D01*
X63879787Y-53277646D01*
X63719793Y-53095206D01*
X63486166Y-52890322D01*
X63227798Y-52717685D01*
X63227795Y-52717683D01*
X63227793Y-52717682D01*
X63227785Y-52717678D01*
X62949100Y-52580246D01*
X62654854Y-52480362D01*
X62654848Y-52480360D01*
X62654847Y-52480360D01*
X62654845Y-52480359D01*
X62654839Y-52480358D01*
X62350086Y-52419738D01*
X62350077Y-52419737D01*
X62350076Y-52419737D01*
X62040000Y-52399414D01*
X62039999Y-52399414D01*
X61884961Y-52409575D01*
X61729924Y-52419737D01*
X61729923Y-52419737D01*
X61729913Y-52419738D01*
X61425160Y-52480358D01*
X61425145Y-52480362D01*
X61130899Y-52580246D01*
X60852214Y-52717678D01*
X60852201Y-52717685D01*
X60593833Y-52890322D01*
X60360206Y-53095206D01*
X60155323Y-53328831D01*
X60147450Y-53340613D01*
X60141251Y-53349891D01*
X60087641Y-53394695D01*
X60038150Y-53405000D01*
X59750000Y-53405000D01*
X59750000Y-54126511D01*
X59746097Y-54156160D01*
X59746152Y-54156171D01*
X59745986Y-54157000D01*
X59745777Y-54158596D01*
X59745359Y-54160152D01*
X59690694Y-54434965D01*
X59655326Y-54420315D01*
X59538997Y-54405000D01*
X59461003Y-54405000D01*
X59344674Y-54420315D01*
X59249999Y-54459530D01*
X59249999Y-53405000D01*
X58830028Y-53405000D01*
X58830012Y-53405001D01*
X58727302Y-53415494D01*
X58560880Y-53470641D01*
X58560875Y-53470643D01*
X58411654Y-53562684D01*
X58287684Y-53686654D01*
X58195643Y-53835875D01*
X58195641Y-53835880D01*
X58140494Y-54002302D01*
X58140493Y-54002309D01*
X58130000Y-54105013D01*
X58130000Y-54750000D01*
X52910500Y-54750000D01*
X52910500Y-54697401D01*
X52895263Y-54464924D01*
X52834640Y-54160153D01*
X52734755Y-53865903D01*
X52597318Y-53587207D01*
X52424679Y-53328835D01*
X52379787Y-53277646D01*
X52219793Y-53095206D01*
X51986166Y-52890322D01*
X51727798Y-52717685D01*
X51727795Y-52717683D01*
X51727793Y-52717682D01*
X51727785Y-52717678D01*
X51449100Y-52580246D01*
X51154854Y-52480362D01*
X51154848Y-52480360D01*
X51154847Y-52480360D01*
X51154845Y-52480359D01*
X51154839Y-52480358D01*
X50850086Y-52419738D01*
X50850077Y-52419737D01*
X50850076Y-52419737D01*
X50540000Y-52399414D01*
X50229924Y-52419737D01*
X50229923Y-52419737D01*
X50229913Y-52419738D01*
X49925160Y-52480358D01*
X49925145Y-52480362D01*
X49630899Y-52580246D01*
X49352214Y-52717678D01*
X49352201Y-52717685D01*
X49093833Y-52890322D01*
X48860206Y-53095206D01*
X48655323Y-53328831D01*
X48647450Y-53340613D01*
X48641251Y-53349891D01*
X48587641Y-53394695D01*
X48538150Y-53405000D01*
X48250000Y-53405000D01*
X48250000Y-54126511D01*
X48246097Y-54156160D01*
X48246152Y-54156171D01*
X48245986Y-54157000D01*
X48245777Y-54158596D01*
X48245359Y-54160152D01*
X48190694Y-54434965D01*
X48155326Y-54420315D01*
X48038997Y-54405000D01*
X47961003Y-54405000D01*
X47844674Y-54420315D01*
X47749999Y-54459530D01*
X47750000Y-53405000D01*
X47330028Y-53405000D01*
X47330012Y-53405001D01*
X47227302Y-53415494D01*
X47060880Y-53470641D01*
X47060875Y-53470643D01*
X46911654Y-53562684D01*
X46787684Y-53686654D01*
X46695643Y-53835875D01*
X46695641Y-53835880D01*
X46640494Y-54002302D01*
X46640493Y-54002309D01*
X46630000Y-54105013D01*
X46630000Y-54750000D01*
X40640000Y-54750000D01*
X40640000Y-50670000D01*
X40659685Y-50602961D01*
X40712489Y-50557206D01*
X40764000Y-50546000D01*
X69471602Y-50546000D01*
X69538641Y-50565685D01*
G37*
G04 #@! TD.AperFunction*
M02*
