%TF.GenerationSoftware,KiCad,Pcbnew,7.0.5*%
%TF.CreationDate,2024-04-01T13:17:19+02:00*%
%TF.ProjectId,power,706f7765-722e-46b6-9963-61645f706362,rev?*%
%TF.SameCoordinates,Original*%
%TF.FileFunction,Drillmap*%
%TF.FilePolarity,Positive*%
%FSLAX45Y45*%
G04 Gerber Fmt 4.5, Leading zero omitted, Abs format (unit mm)*
G04 Created by KiCad (PCBNEW 7.0.5) date 2024-04-01 13:17:19*
%MOMM*%
%LPD*%
G01*
G04 APERTURE LIST*
%ADD10C,0.050000*%
%ADD11C,0.200000*%
%ADD12C,0.080000*%
%ADD13C,0.110000*%
%ADD14C,0.119000*%
%ADD15C,0.130000*%
%ADD16C,0.150000*%
%ADD17C,0.160000*%
%ADD18C,0.180000*%
G04 APERTURE END LIST*
D10*
X4000000Y-4000000D02*
X7000000Y-4000000D01*
X7000000Y-14000000D01*
X4000000Y-14000000D01*
X4000000Y-4000000D01*
D11*
D12*
X4633600Y-8570600D02*
X4713600Y-8650600D01*
X4713600Y-8570600D02*
X4633600Y-8650600D01*
X4760600Y-8570600D02*
X4840600Y-8650600D01*
X4840600Y-8570600D02*
X4760600Y-8650600D01*
X5014600Y-8570600D02*
X5094600Y-8650600D01*
X5094600Y-8570600D02*
X5014600Y-8650600D01*
X5141600Y-8570600D02*
X5221600Y-8650600D01*
X5221600Y-8570600D02*
X5141600Y-8650600D01*
X5878200Y-10678800D02*
X5958200Y-10758800D01*
X5958200Y-10678800D02*
X5878200Y-10758800D01*
X6005200Y-10678800D02*
X6085200Y-10758800D01*
X6085200Y-10678800D02*
X6005200Y-10758800D01*
X6259200Y-10678800D02*
X6339200Y-10758800D01*
X6339200Y-10678800D02*
X6259200Y-10758800D01*
X6386200Y-10678800D02*
X6466200Y-10758800D01*
X6466200Y-10678800D02*
X6386200Y-10758800D01*
D13*
X5973200Y-9779000D02*
G75*
G03*
X5973200Y-9779000I-55000J0D01*
G01*
X6227200Y-9779000D02*
G75*
G03*
X6227200Y-9779000I-55000J0D01*
G01*
X6481200Y-9779000D02*
G75*
G03*
X6481200Y-9779000I-55000J0D01*
G01*
D14*
X4800000Y-5440500D02*
X4800000Y-5559500D01*
X4740500Y-5500000D02*
X4859500Y-5500000D01*
X4800000Y-6640500D02*
X4800000Y-6759500D01*
X4740500Y-6700000D02*
X4859500Y-6700000D01*
X4800000Y-7840500D02*
X4800000Y-7959500D01*
X4740500Y-7900000D02*
X4859500Y-7900000D01*
X5054000Y-5440500D02*
X5054000Y-5559500D01*
X4994500Y-5500000D02*
X5113500Y-5500000D01*
X5054000Y-6640500D02*
X5054000Y-6759500D01*
X4994500Y-6700000D02*
X5113500Y-6700000D01*
X5054000Y-7840500D02*
X5054000Y-7959500D01*
X4994500Y-7900000D02*
X5113500Y-7900000D01*
X5950000Y-5440500D02*
X5950000Y-5559500D01*
X5890500Y-5500000D02*
X6009500Y-5500000D01*
X5950000Y-6640500D02*
X5950000Y-6759500D01*
X5890500Y-6700000D02*
X6009500Y-6700000D01*
X5950000Y-7840500D02*
X5950000Y-7959500D01*
X5890500Y-7900000D02*
X6009500Y-7900000D01*
X6204000Y-5440500D02*
X6204000Y-5559500D01*
X6144500Y-5500000D02*
X6263500Y-5500000D01*
X6204000Y-6640500D02*
X6204000Y-6759500D01*
X6144500Y-6700000D02*
X6263500Y-6700000D01*
X6204000Y-7840500D02*
X6204000Y-7959500D01*
X6144500Y-7900000D02*
X6263500Y-7900000D01*
D15*
X6218162Y-12110962D02*
X6218162Y-12019038D01*
X6126238Y-12019038D01*
X6126238Y-12110962D01*
X6218162Y-12110962D01*
X6726162Y-12110962D02*
X6726162Y-12019038D01*
X6634238Y-12019038D01*
X6634238Y-12110962D01*
X6726162Y-12110962D01*
D16*
X4470400Y-9981600D02*
X4545400Y-9906600D01*
X4470400Y-9831600D01*
X4395400Y-9906600D01*
X4470400Y-9981600D01*
X4470400Y-12241600D02*
X4545400Y-12166600D01*
X4470400Y-12091600D01*
X4395400Y-12166600D01*
X4470400Y-12241600D01*
D17*
X4405000Y-12520900D02*
X4565000Y-12680900D01*
X4565000Y-12520900D02*
X4405000Y-12680900D01*
X4565000Y-12600900D02*
G75*
G03*
X4565000Y-12600900I-80000J0D01*
G01*
X4405000Y-13140900D02*
X4565000Y-13300900D01*
X4565000Y-13140900D02*
X4405000Y-13300900D01*
X4565000Y-13220900D02*
G75*
G03*
X4565000Y-13220900I-80000J0D01*
G01*
X4905000Y-12830900D02*
X5065000Y-12990900D01*
X5065000Y-12830900D02*
X4905000Y-12990900D01*
X5065000Y-12910900D02*
G75*
G03*
X5065000Y-12910900I-80000J0D01*
G01*
D18*
X5294800Y-10628800D02*
X5474800Y-10808800D01*
X5474800Y-10628800D02*
X5294800Y-10808800D01*
X5384800Y-10628800D02*
X5384800Y-10808800D01*
X5294800Y-10718800D02*
X5474800Y-10718800D01*
X5294800Y-11898800D02*
X5474800Y-12078800D01*
X5474800Y-11898800D02*
X5294800Y-12078800D01*
X5384800Y-11898800D02*
X5384800Y-12078800D01*
X5294800Y-11988800D02*
X5474800Y-11988800D01*
D11*
X4258277Y-14313984D02*
X4258277Y-14113984D01*
X4258277Y-14113984D02*
X4305896Y-14113984D01*
X4305896Y-14113984D02*
X4334467Y-14123508D01*
X4334467Y-14123508D02*
X4353515Y-14142555D01*
X4353515Y-14142555D02*
X4363039Y-14161603D01*
X4363039Y-14161603D02*
X4372563Y-14199698D01*
X4372563Y-14199698D02*
X4372563Y-14228269D01*
X4372563Y-14228269D02*
X4363039Y-14266365D01*
X4363039Y-14266365D02*
X4353515Y-14285412D01*
X4353515Y-14285412D02*
X4334467Y-14304460D01*
X4334467Y-14304460D02*
X4305896Y-14313984D01*
X4305896Y-14313984D02*
X4258277Y-14313984D01*
X4458277Y-14313984D02*
X4458277Y-14180650D01*
X4458277Y-14218746D02*
X4467801Y-14199698D01*
X4467801Y-14199698D02*
X4477324Y-14190174D01*
X4477324Y-14190174D02*
X4496372Y-14180650D01*
X4496372Y-14180650D02*
X4515420Y-14180650D01*
X4582086Y-14313984D02*
X4582086Y-14180650D01*
X4582086Y-14113984D02*
X4572563Y-14123508D01*
X4572563Y-14123508D02*
X4582086Y-14133031D01*
X4582086Y-14133031D02*
X4591610Y-14123508D01*
X4591610Y-14123508D02*
X4582086Y-14113984D01*
X4582086Y-14113984D02*
X4582086Y-14133031D01*
X4705896Y-14313984D02*
X4686848Y-14304460D01*
X4686848Y-14304460D02*
X4677324Y-14285412D01*
X4677324Y-14285412D02*
X4677324Y-14113984D01*
X4810658Y-14313984D02*
X4791610Y-14304460D01*
X4791610Y-14304460D02*
X4782086Y-14285412D01*
X4782086Y-14285412D02*
X4782086Y-14113984D01*
X5039229Y-14313984D02*
X5039229Y-14113984D01*
X5039229Y-14113984D02*
X5105896Y-14256841D01*
X5105896Y-14256841D02*
X5172563Y-14113984D01*
X5172563Y-14113984D02*
X5172563Y-14313984D01*
X5353515Y-14313984D02*
X5353515Y-14209222D01*
X5353515Y-14209222D02*
X5343991Y-14190174D01*
X5343991Y-14190174D02*
X5324944Y-14180650D01*
X5324944Y-14180650D02*
X5286848Y-14180650D01*
X5286848Y-14180650D02*
X5267801Y-14190174D01*
X5353515Y-14304460D02*
X5334467Y-14313984D01*
X5334467Y-14313984D02*
X5286848Y-14313984D01*
X5286848Y-14313984D02*
X5267801Y-14304460D01*
X5267801Y-14304460D02*
X5258277Y-14285412D01*
X5258277Y-14285412D02*
X5258277Y-14266365D01*
X5258277Y-14266365D02*
X5267801Y-14247317D01*
X5267801Y-14247317D02*
X5286848Y-14237793D01*
X5286848Y-14237793D02*
X5334467Y-14237793D01*
X5334467Y-14237793D02*
X5353515Y-14228269D01*
X5448753Y-14180650D02*
X5448753Y-14380650D01*
X5448753Y-14190174D02*
X5467801Y-14180650D01*
X5467801Y-14180650D02*
X5505896Y-14180650D01*
X5505896Y-14180650D02*
X5524944Y-14190174D01*
X5524944Y-14190174D02*
X5534467Y-14199698D01*
X5534467Y-14199698D02*
X5543991Y-14218746D01*
X5543991Y-14218746D02*
X5543991Y-14275888D01*
X5543991Y-14275888D02*
X5534467Y-14294936D01*
X5534467Y-14294936D02*
X5524944Y-14304460D01*
X5524944Y-14304460D02*
X5505896Y-14313984D01*
X5505896Y-14313984D02*
X5467801Y-14313984D01*
X5467801Y-14313984D02*
X5448753Y-14304460D01*
X5629705Y-14294936D02*
X5639229Y-14304460D01*
X5639229Y-14304460D02*
X5629705Y-14313984D01*
X5629705Y-14313984D02*
X5620182Y-14304460D01*
X5620182Y-14304460D02*
X5629705Y-14294936D01*
X5629705Y-14294936D02*
X5629705Y-14313984D01*
X5629705Y-14190174D02*
X5639229Y-14199698D01*
X5639229Y-14199698D02*
X5629705Y-14209222D01*
X5629705Y-14209222D02*
X5620182Y-14199698D01*
X5620182Y-14199698D02*
X5629705Y-14190174D01*
X5629705Y-14190174D02*
X5629705Y-14209222D01*
D12*
X3917500Y-14602500D02*
X3997500Y-14682500D01*
X3997500Y-14602500D02*
X3917500Y-14682500D01*
D11*
X4296372Y-14533984D02*
X4315420Y-14533984D01*
X4315420Y-14533984D02*
X4334467Y-14543508D01*
X4334467Y-14543508D02*
X4343991Y-14553031D01*
X4343991Y-14553031D02*
X4353515Y-14572079D01*
X4353515Y-14572079D02*
X4363039Y-14610174D01*
X4363039Y-14610174D02*
X4363039Y-14657793D01*
X4363039Y-14657793D02*
X4353515Y-14695888D01*
X4353515Y-14695888D02*
X4343991Y-14714936D01*
X4343991Y-14714936D02*
X4334467Y-14724460D01*
X4334467Y-14724460D02*
X4315420Y-14733984D01*
X4315420Y-14733984D02*
X4296372Y-14733984D01*
X4296372Y-14733984D02*
X4277324Y-14724460D01*
X4277324Y-14724460D02*
X4267801Y-14714936D01*
X4267801Y-14714936D02*
X4258277Y-14695888D01*
X4258277Y-14695888D02*
X4248753Y-14657793D01*
X4248753Y-14657793D02*
X4248753Y-14610174D01*
X4248753Y-14610174D02*
X4258277Y-14572079D01*
X4258277Y-14572079D02*
X4267801Y-14553031D01*
X4267801Y-14553031D02*
X4277324Y-14543508D01*
X4277324Y-14543508D02*
X4296372Y-14533984D01*
X4448753Y-14714936D02*
X4458277Y-14724460D01*
X4458277Y-14724460D02*
X4448753Y-14733984D01*
X4448753Y-14733984D02*
X4439229Y-14724460D01*
X4439229Y-14724460D02*
X4448753Y-14714936D01*
X4448753Y-14714936D02*
X4448753Y-14733984D01*
X4572563Y-14619698D02*
X4553515Y-14610174D01*
X4553515Y-14610174D02*
X4543991Y-14600650D01*
X4543991Y-14600650D02*
X4534467Y-14581603D01*
X4534467Y-14581603D02*
X4534467Y-14572079D01*
X4534467Y-14572079D02*
X4543991Y-14553031D01*
X4543991Y-14553031D02*
X4553515Y-14543508D01*
X4553515Y-14543508D02*
X4572563Y-14533984D01*
X4572563Y-14533984D02*
X4610658Y-14533984D01*
X4610658Y-14533984D02*
X4629705Y-14543508D01*
X4629705Y-14543508D02*
X4639229Y-14553031D01*
X4639229Y-14553031D02*
X4648753Y-14572079D01*
X4648753Y-14572079D02*
X4648753Y-14581603D01*
X4648753Y-14581603D02*
X4639229Y-14600650D01*
X4639229Y-14600650D02*
X4629705Y-14610174D01*
X4629705Y-14610174D02*
X4610658Y-14619698D01*
X4610658Y-14619698D02*
X4572563Y-14619698D01*
X4572563Y-14619698D02*
X4553515Y-14629222D01*
X4553515Y-14629222D02*
X4543991Y-14638746D01*
X4543991Y-14638746D02*
X4534467Y-14657793D01*
X4534467Y-14657793D02*
X4534467Y-14695888D01*
X4534467Y-14695888D02*
X4543991Y-14714936D01*
X4543991Y-14714936D02*
X4553515Y-14724460D01*
X4553515Y-14724460D02*
X4572563Y-14733984D01*
X4572563Y-14733984D02*
X4610658Y-14733984D01*
X4610658Y-14733984D02*
X4629705Y-14724460D01*
X4629705Y-14724460D02*
X4639229Y-14714936D01*
X4639229Y-14714936D02*
X4648753Y-14695888D01*
X4648753Y-14695888D02*
X4648753Y-14657793D01*
X4648753Y-14657793D02*
X4639229Y-14638746D01*
X4639229Y-14638746D02*
X4629705Y-14629222D01*
X4629705Y-14629222D02*
X4610658Y-14619698D01*
X4772563Y-14533984D02*
X4791610Y-14533984D01*
X4791610Y-14533984D02*
X4810658Y-14543508D01*
X4810658Y-14543508D02*
X4820182Y-14553031D01*
X4820182Y-14553031D02*
X4829705Y-14572079D01*
X4829705Y-14572079D02*
X4839229Y-14610174D01*
X4839229Y-14610174D02*
X4839229Y-14657793D01*
X4839229Y-14657793D02*
X4829705Y-14695888D01*
X4829705Y-14695888D02*
X4820182Y-14714936D01*
X4820182Y-14714936D02*
X4810658Y-14724460D01*
X4810658Y-14724460D02*
X4791610Y-14733984D01*
X4791610Y-14733984D02*
X4772563Y-14733984D01*
X4772563Y-14733984D02*
X4753515Y-14724460D01*
X4753515Y-14724460D02*
X4743991Y-14714936D01*
X4743991Y-14714936D02*
X4734467Y-14695888D01*
X4734467Y-14695888D02*
X4724944Y-14657793D01*
X4724944Y-14657793D02*
X4724944Y-14610174D01*
X4724944Y-14610174D02*
X4734467Y-14572079D01*
X4734467Y-14572079D02*
X4743991Y-14553031D01*
X4743991Y-14553031D02*
X4753515Y-14543508D01*
X4753515Y-14543508D02*
X4772563Y-14533984D01*
X4963039Y-14533984D02*
X4982086Y-14533984D01*
X4982086Y-14533984D02*
X5001134Y-14543508D01*
X5001134Y-14543508D02*
X5010658Y-14553031D01*
X5010658Y-14553031D02*
X5020182Y-14572079D01*
X5020182Y-14572079D02*
X5029705Y-14610174D01*
X5029705Y-14610174D02*
X5029705Y-14657793D01*
X5029705Y-14657793D02*
X5020182Y-14695888D01*
X5020182Y-14695888D02*
X5010658Y-14714936D01*
X5010658Y-14714936D02*
X5001134Y-14724460D01*
X5001134Y-14724460D02*
X4982086Y-14733984D01*
X4982086Y-14733984D02*
X4963039Y-14733984D01*
X4963039Y-14733984D02*
X4943991Y-14724460D01*
X4943991Y-14724460D02*
X4934467Y-14714936D01*
X4934467Y-14714936D02*
X4924944Y-14695888D01*
X4924944Y-14695888D02*
X4915420Y-14657793D01*
X4915420Y-14657793D02*
X4915420Y-14610174D01*
X4915420Y-14610174D02*
X4924944Y-14572079D01*
X4924944Y-14572079D02*
X4934467Y-14553031D01*
X4934467Y-14553031D02*
X4943991Y-14543508D01*
X4943991Y-14543508D02*
X4963039Y-14533984D01*
X5115420Y-14733984D02*
X5115420Y-14600650D01*
X5115420Y-14619698D02*
X5124944Y-14610174D01*
X5124944Y-14610174D02*
X5143991Y-14600650D01*
X5143991Y-14600650D02*
X5172563Y-14600650D01*
X5172563Y-14600650D02*
X5191610Y-14610174D01*
X5191610Y-14610174D02*
X5201134Y-14629222D01*
X5201134Y-14629222D02*
X5201134Y-14733984D01*
X5201134Y-14629222D02*
X5210658Y-14610174D01*
X5210658Y-14610174D02*
X5229705Y-14600650D01*
X5229705Y-14600650D02*
X5258277Y-14600650D01*
X5258277Y-14600650D02*
X5277325Y-14610174D01*
X5277325Y-14610174D02*
X5286848Y-14629222D01*
X5286848Y-14629222D02*
X5286848Y-14733984D01*
X5382086Y-14733984D02*
X5382086Y-14600650D01*
X5382086Y-14619698D02*
X5391610Y-14610174D01*
X5391610Y-14610174D02*
X5410658Y-14600650D01*
X5410658Y-14600650D02*
X5439229Y-14600650D01*
X5439229Y-14600650D02*
X5458277Y-14610174D01*
X5458277Y-14610174D02*
X5467801Y-14629222D01*
X5467801Y-14629222D02*
X5467801Y-14733984D01*
X5467801Y-14629222D02*
X5477325Y-14610174D01*
X5477325Y-14610174D02*
X5496372Y-14600650D01*
X5496372Y-14600650D02*
X5524944Y-14600650D01*
X5524944Y-14600650D02*
X5543991Y-14610174D01*
X5543991Y-14610174D02*
X5553515Y-14629222D01*
X5553515Y-14629222D02*
X5553515Y-14733984D01*
X5943991Y-14524460D02*
X5772563Y-14781603D01*
X6201134Y-14533984D02*
X6220182Y-14533984D01*
X6220182Y-14533984D02*
X6239229Y-14543508D01*
X6239229Y-14543508D02*
X6248753Y-14553031D01*
X6248753Y-14553031D02*
X6258277Y-14572079D01*
X6258277Y-14572079D02*
X6267801Y-14610174D01*
X6267801Y-14610174D02*
X6267801Y-14657793D01*
X6267801Y-14657793D02*
X6258277Y-14695888D01*
X6258277Y-14695888D02*
X6248753Y-14714936D01*
X6248753Y-14714936D02*
X6239229Y-14724460D01*
X6239229Y-14724460D02*
X6220182Y-14733984D01*
X6220182Y-14733984D02*
X6201134Y-14733984D01*
X6201134Y-14733984D02*
X6182086Y-14724460D01*
X6182086Y-14724460D02*
X6172563Y-14714936D01*
X6172563Y-14714936D02*
X6163039Y-14695888D01*
X6163039Y-14695888D02*
X6153515Y-14657793D01*
X6153515Y-14657793D02*
X6153515Y-14610174D01*
X6153515Y-14610174D02*
X6163039Y-14572079D01*
X6163039Y-14572079D02*
X6172563Y-14553031D01*
X6172563Y-14553031D02*
X6182086Y-14543508D01*
X6182086Y-14543508D02*
X6201134Y-14533984D01*
X6353515Y-14714936D02*
X6363039Y-14724460D01*
X6363039Y-14724460D02*
X6353515Y-14733984D01*
X6353515Y-14733984D02*
X6343991Y-14724460D01*
X6343991Y-14724460D02*
X6353515Y-14714936D01*
X6353515Y-14714936D02*
X6353515Y-14733984D01*
X6486848Y-14533984D02*
X6505896Y-14533984D01*
X6505896Y-14533984D02*
X6524944Y-14543508D01*
X6524944Y-14543508D02*
X6534467Y-14553031D01*
X6534467Y-14553031D02*
X6543991Y-14572079D01*
X6543991Y-14572079D02*
X6553515Y-14610174D01*
X6553515Y-14610174D02*
X6553515Y-14657793D01*
X6553515Y-14657793D02*
X6543991Y-14695888D01*
X6543991Y-14695888D02*
X6534467Y-14714936D01*
X6534467Y-14714936D02*
X6524944Y-14724460D01*
X6524944Y-14724460D02*
X6505896Y-14733984D01*
X6505896Y-14733984D02*
X6486848Y-14733984D01*
X6486848Y-14733984D02*
X6467801Y-14724460D01*
X6467801Y-14724460D02*
X6458277Y-14714936D01*
X6458277Y-14714936D02*
X6448753Y-14695888D01*
X6448753Y-14695888D02*
X6439229Y-14657793D01*
X6439229Y-14657793D02*
X6439229Y-14610174D01*
X6439229Y-14610174D02*
X6448753Y-14572079D01*
X6448753Y-14572079D02*
X6458277Y-14553031D01*
X6458277Y-14553031D02*
X6467801Y-14543508D01*
X6467801Y-14543508D02*
X6486848Y-14533984D01*
X6620182Y-14533984D02*
X6743991Y-14533984D01*
X6743991Y-14533984D02*
X6677325Y-14610174D01*
X6677325Y-14610174D02*
X6705896Y-14610174D01*
X6705896Y-14610174D02*
X6724944Y-14619698D01*
X6724944Y-14619698D02*
X6734467Y-14629222D01*
X6734467Y-14629222D02*
X6743991Y-14648269D01*
X6743991Y-14648269D02*
X6743991Y-14695888D01*
X6743991Y-14695888D02*
X6734467Y-14714936D01*
X6734467Y-14714936D02*
X6724944Y-14724460D01*
X6724944Y-14724460D02*
X6705896Y-14733984D01*
X6705896Y-14733984D02*
X6648753Y-14733984D01*
X6648753Y-14733984D02*
X6629706Y-14724460D01*
X6629706Y-14724460D02*
X6620182Y-14714936D01*
X6934467Y-14733984D02*
X6820182Y-14733984D01*
X6877325Y-14733984D02*
X6877325Y-14533984D01*
X6877325Y-14533984D02*
X6858277Y-14562555D01*
X6858277Y-14562555D02*
X6839229Y-14581603D01*
X6839229Y-14581603D02*
X6820182Y-14591127D01*
X7115420Y-14533984D02*
X7020182Y-14533984D01*
X7020182Y-14533984D02*
X7010658Y-14629222D01*
X7010658Y-14629222D02*
X7020182Y-14619698D01*
X7020182Y-14619698D02*
X7039229Y-14610174D01*
X7039229Y-14610174D02*
X7086848Y-14610174D01*
X7086848Y-14610174D02*
X7105896Y-14619698D01*
X7105896Y-14619698D02*
X7115420Y-14629222D01*
X7115420Y-14629222D02*
X7124944Y-14648269D01*
X7124944Y-14648269D02*
X7124944Y-14695888D01*
X7124944Y-14695888D02*
X7115420Y-14714936D01*
X7115420Y-14714936D02*
X7105896Y-14724460D01*
X7105896Y-14724460D02*
X7086848Y-14733984D01*
X7086848Y-14733984D02*
X7039229Y-14733984D01*
X7039229Y-14733984D02*
X7020182Y-14724460D01*
X7020182Y-14724460D02*
X7010658Y-14714936D01*
X7201134Y-14533984D02*
X7201134Y-14572079D01*
X7277325Y-14533984D02*
X7277325Y-14572079D01*
X7572563Y-14810174D02*
X7563039Y-14800650D01*
X7563039Y-14800650D02*
X7543991Y-14772079D01*
X7543991Y-14772079D02*
X7534468Y-14753031D01*
X7534468Y-14753031D02*
X7524944Y-14724460D01*
X7524944Y-14724460D02*
X7515420Y-14676841D01*
X7515420Y-14676841D02*
X7515420Y-14638746D01*
X7515420Y-14638746D02*
X7524944Y-14591127D01*
X7524944Y-14591127D02*
X7534468Y-14562555D01*
X7534468Y-14562555D02*
X7543991Y-14543508D01*
X7543991Y-14543508D02*
X7563039Y-14514936D01*
X7563039Y-14514936D02*
X7572563Y-14505412D01*
X7677325Y-14619698D02*
X7658277Y-14610174D01*
X7658277Y-14610174D02*
X7648753Y-14600650D01*
X7648753Y-14600650D02*
X7639229Y-14581603D01*
X7639229Y-14581603D02*
X7639229Y-14572079D01*
X7639229Y-14572079D02*
X7648753Y-14553031D01*
X7648753Y-14553031D02*
X7658277Y-14543508D01*
X7658277Y-14543508D02*
X7677325Y-14533984D01*
X7677325Y-14533984D02*
X7715420Y-14533984D01*
X7715420Y-14533984D02*
X7734468Y-14543508D01*
X7734468Y-14543508D02*
X7743991Y-14553031D01*
X7743991Y-14553031D02*
X7753515Y-14572079D01*
X7753515Y-14572079D02*
X7753515Y-14581603D01*
X7753515Y-14581603D02*
X7743991Y-14600650D01*
X7743991Y-14600650D02*
X7734468Y-14610174D01*
X7734468Y-14610174D02*
X7715420Y-14619698D01*
X7715420Y-14619698D02*
X7677325Y-14619698D01*
X7677325Y-14619698D02*
X7658277Y-14629222D01*
X7658277Y-14629222D02*
X7648753Y-14638746D01*
X7648753Y-14638746D02*
X7639229Y-14657793D01*
X7639229Y-14657793D02*
X7639229Y-14695888D01*
X7639229Y-14695888D02*
X7648753Y-14714936D01*
X7648753Y-14714936D02*
X7658277Y-14724460D01*
X7658277Y-14724460D02*
X7677325Y-14733984D01*
X7677325Y-14733984D02*
X7715420Y-14733984D01*
X7715420Y-14733984D02*
X7734468Y-14724460D01*
X7734468Y-14724460D02*
X7743991Y-14714936D01*
X7743991Y-14714936D02*
X7753515Y-14695888D01*
X7753515Y-14695888D02*
X7753515Y-14657793D01*
X7753515Y-14657793D02*
X7743991Y-14638746D01*
X7743991Y-14638746D02*
X7734468Y-14629222D01*
X7734468Y-14629222D02*
X7715420Y-14619698D01*
X7991610Y-14733984D02*
X7991610Y-14533984D01*
X8077325Y-14733984D02*
X8077325Y-14629222D01*
X8077325Y-14629222D02*
X8067801Y-14610174D01*
X8067801Y-14610174D02*
X8048753Y-14600650D01*
X8048753Y-14600650D02*
X8020182Y-14600650D01*
X8020182Y-14600650D02*
X8001134Y-14610174D01*
X8001134Y-14610174D02*
X7991610Y-14619698D01*
X8201134Y-14733984D02*
X8182087Y-14724460D01*
X8182087Y-14724460D02*
X8172563Y-14714936D01*
X8172563Y-14714936D02*
X8163039Y-14695888D01*
X8163039Y-14695888D02*
X8163039Y-14638746D01*
X8163039Y-14638746D02*
X8172563Y-14619698D01*
X8172563Y-14619698D02*
X8182087Y-14610174D01*
X8182087Y-14610174D02*
X8201134Y-14600650D01*
X8201134Y-14600650D02*
X8229706Y-14600650D01*
X8229706Y-14600650D02*
X8248753Y-14610174D01*
X8248753Y-14610174D02*
X8258277Y-14619698D01*
X8258277Y-14619698D02*
X8267801Y-14638746D01*
X8267801Y-14638746D02*
X8267801Y-14695888D01*
X8267801Y-14695888D02*
X8258277Y-14714936D01*
X8258277Y-14714936D02*
X8248753Y-14724460D01*
X8248753Y-14724460D02*
X8229706Y-14733984D01*
X8229706Y-14733984D02*
X8201134Y-14733984D01*
X8382087Y-14733984D02*
X8363039Y-14724460D01*
X8363039Y-14724460D02*
X8353515Y-14705412D01*
X8353515Y-14705412D02*
X8353515Y-14533984D01*
X8534468Y-14724460D02*
X8515420Y-14733984D01*
X8515420Y-14733984D02*
X8477325Y-14733984D01*
X8477325Y-14733984D02*
X8458277Y-14724460D01*
X8458277Y-14724460D02*
X8448753Y-14705412D01*
X8448753Y-14705412D02*
X8448753Y-14629222D01*
X8448753Y-14629222D02*
X8458277Y-14610174D01*
X8458277Y-14610174D02*
X8477325Y-14600650D01*
X8477325Y-14600650D02*
X8515420Y-14600650D01*
X8515420Y-14600650D02*
X8534468Y-14610174D01*
X8534468Y-14610174D02*
X8543992Y-14629222D01*
X8543992Y-14629222D02*
X8543992Y-14648269D01*
X8543992Y-14648269D02*
X8448753Y-14667317D01*
X8620182Y-14724460D02*
X8639230Y-14733984D01*
X8639230Y-14733984D02*
X8677325Y-14733984D01*
X8677325Y-14733984D02*
X8696373Y-14724460D01*
X8696373Y-14724460D02*
X8705896Y-14705412D01*
X8705896Y-14705412D02*
X8705896Y-14695888D01*
X8705896Y-14695888D02*
X8696373Y-14676841D01*
X8696373Y-14676841D02*
X8677325Y-14667317D01*
X8677325Y-14667317D02*
X8648753Y-14667317D01*
X8648753Y-14667317D02*
X8629706Y-14657793D01*
X8629706Y-14657793D02*
X8620182Y-14638746D01*
X8620182Y-14638746D02*
X8620182Y-14629222D01*
X8620182Y-14629222D02*
X8629706Y-14610174D01*
X8629706Y-14610174D02*
X8648753Y-14600650D01*
X8648753Y-14600650D02*
X8677325Y-14600650D01*
X8677325Y-14600650D02*
X8696373Y-14610174D01*
X8772563Y-14810174D02*
X8782087Y-14800650D01*
X8782087Y-14800650D02*
X8801134Y-14772079D01*
X8801134Y-14772079D02*
X8810658Y-14753031D01*
X8810658Y-14753031D02*
X8820182Y-14724460D01*
X8820182Y-14724460D02*
X8829706Y-14676841D01*
X8829706Y-14676841D02*
X8829706Y-14638746D01*
X8829706Y-14638746D02*
X8820182Y-14591127D01*
X8820182Y-14591127D02*
X8810658Y-14562555D01*
X8810658Y-14562555D02*
X8801134Y-14543508D01*
X8801134Y-14543508D02*
X8782087Y-14514936D01*
X8782087Y-14514936D02*
X8772563Y-14505412D01*
D13*
X3997500Y-14906500D02*
G75*
G03*
X3997500Y-14906500I-55000J0D01*
G01*
D11*
X4363039Y-14997984D02*
X4248753Y-14997984D01*
X4305896Y-14997984D02*
X4305896Y-14797984D01*
X4305896Y-14797984D02*
X4286848Y-14826555D01*
X4286848Y-14826555D02*
X4267801Y-14845603D01*
X4267801Y-14845603D02*
X4248753Y-14855127D01*
X4448753Y-14978936D02*
X4458277Y-14988460D01*
X4458277Y-14988460D02*
X4448753Y-14997984D01*
X4448753Y-14997984D02*
X4439229Y-14988460D01*
X4439229Y-14988460D02*
X4448753Y-14978936D01*
X4448753Y-14978936D02*
X4448753Y-14997984D01*
X4648753Y-14997984D02*
X4534467Y-14997984D01*
X4591610Y-14997984D02*
X4591610Y-14797984D01*
X4591610Y-14797984D02*
X4572563Y-14826555D01*
X4572563Y-14826555D02*
X4553515Y-14845603D01*
X4553515Y-14845603D02*
X4534467Y-14855127D01*
X4772563Y-14797984D02*
X4791610Y-14797984D01*
X4791610Y-14797984D02*
X4810658Y-14807508D01*
X4810658Y-14807508D02*
X4820182Y-14817031D01*
X4820182Y-14817031D02*
X4829705Y-14836079D01*
X4829705Y-14836079D02*
X4839229Y-14874174D01*
X4839229Y-14874174D02*
X4839229Y-14921793D01*
X4839229Y-14921793D02*
X4829705Y-14959888D01*
X4829705Y-14959888D02*
X4820182Y-14978936D01*
X4820182Y-14978936D02*
X4810658Y-14988460D01*
X4810658Y-14988460D02*
X4791610Y-14997984D01*
X4791610Y-14997984D02*
X4772563Y-14997984D01*
X4772563Y-14997984D02*
X4753515Y-14988460D01*
X4753515Y-14988460D02*
X4743991Y-14978936D01*
X4743991Y-14978936D02*
X4734467Y-14959888D01*
X4734467Y-14959888D02*
X4724944Y-14921793D01*
X4724944Y-14921793D02*
X4724944Y-14874174D01*
X4724944Y-14874174D02*
X4734467Y-14836079D01*
X4734467Y-14836079D02*
X4743991Y-14817031D01*
X4743991Y-14817031D02*
X4753515Y-14807508D01*
X4753515Y-14807508D02*
X4772563Y-14797984D01*
X4963039Y-14797984D02*
X4982086Y-14797984D01*
X4982086Y-14797984D02*
X5001134Y-14807508D01*
X5001134Y-14807508D02*
X5010658Y-14817031D01*
X5010658Y-14817031D02*
X5020182Y-14836079D01*
X5020182Y-14836079D02*
X5029705Y-14874174D01*
X5029705Y-14874174D02*
X5029705Y-14921793D01*
X5029705Y-14921793D02*
X5020182Y-14959888D01*
X5020182Y-14959888D02*
X5010658Y-14978936D01*
X5010658Y-14978936D02*
X5001134Y-14988460D01*
X5001134Y-14988460D02*
X4982086Y-14997984D01*
X4982086Y-14997984D02*
X4963039Y-14997984D01*
X4963039Y-14997984D02*
X4943991Y-14988460D01*
X4943991Y-14988460D02*
X4934467Y-14978936D01*
X4934467Y-14978936D02*
X4924944Y-14959888D01*
X4924944Y-14959888D02*
X4915420Y-14921793D01*
X4915420Y-14921793D02*
X4915420Y-14874174D01*
X4915420Y-14874174D02*
X4924944Y-14836079D01*
X4924944Y-14836079D02*
X4934467Y-14817031D01*
X4934467Y-14817031D02*
X4943991Y-14807508D01*
X4943991Y-14807508D02*
X4963039Y-14797984D01*
X5115420Y-14997984D02*
X5115420Y-14864650D01*
X5115420Y-14883698D02*
X5124944Y-14874174D01*
X5124944Y-14874174D02*
X5143991Y-14864650D01*
X5143991Y-14864650D02*
X5172563Y-14864650D01*
X5172563Y-14864650D02*
X5191610Y-14874174D01*
X5191610Y-14874174D02*
X5201134Y-14893222D01*
X5201134Y-14893222D02*
X5201134Y-14997984D01*
X5201134Y-14893222D02*
X5210658Y-14874174D01*
X5210658Y-14874174D02*
X5229705Y-14864650D01*
X5229705Y-14864650D02*
X5258277Y-14864650D01*
X5258277Y-14864650D02*
X5277325Y-14874174D01*
X5277325Y-14874174D02*
X5286848Y-14893222D01*
X5286848Y-14893222D02*
X5286848Y-14997984D01*
X5382086Y-14997984D02*
X5382086Y-14864650D01*
X5382086Y-14883698D02*
X5391610Y-14874174D01*
X5391610Y-14874174D02*
X5410658Y-14864650D01*
X5410658Y-14864650D02*
X5439229Y-14864650D01*
X5439229Y-14864650D02*
X5458277Y-14874174D01*
X5458277Y-14874174D02*
X5467801Y-14893222D01*
X5467801Y-14893222D02*
X5467801Y-14997984D01*
X5467801Y-14893222D02*
X5477325Y-14874174D01*
X5477325Y-14874174D02*
X5496372Y-14864650D01*
X5496372Y-14864650D02*
X5524944Y-14864650D01*
X5524944Y-14864650D02*
X5543991Y-14874174D01*
X5543991Y-14874174D02*
X5553515Y-14893222D01*
X5553515Y-14893222D02*
X5553515Y-14997984D01*
X5943991Y-14788460D02*
X5772563Y-15045603D01*
X6201134Y-14797984D02*
X6220182Y-14797984D01*
X6220182Y-14797984D02*
X6239229Y-14807508D01*
X6239229Y-14807508D02*
X6248753Y-14817031D01*
X6248753Y-14817031D02*
X6258277Y-14836079D01*
X6258277Y-14836079D02*
X6267801Y-14874174D01*
X6267801Y-14874174D02*
X6267801Y-14921793D01*
X6267801Y-14921793D02*
X6258277Y-14959888D01*
X6258277Y-14959888D02*
X6248753Y-14978936D01*
X6248753Y-14978936D02*
X6239229Y-14988460D01*
X6239229Y-14988460D02*
X6220182Y-14997984D01*
X6220182Y-14997984D02*
X6201134Y-14997984D01*
X6201134Y-14997984D02*
X6182086Y-14988460D01*
X6182086Y-14988460D02*
X6172563Y-14978936D01*
X6172563Y-14978936D02*
X6163039Y-14959888D01*
X6163039Y-14959888D02*
X6153515Y-14921793D01*
X6153515Y-14921793D02*
X6153515Y-14874174D01*
X6153515Y-14874174D02*
X6163039Y-14836079D01*
X6163039Y-14836079D02*
X6172563Y-14817031D01*
X6172563Y-14817031D02*
X6182086Y-14807508D01*
X6182086Y-14807508D02*
X6201134Y-14797984D01*
X6353515Y-14978936D02*
X6363039Y-14988460D01*
X6363039Y-14988460D02*
X6353515Y-14997984D01*
X6353515Y-14997984D02*
X6343991Y-14988460D01*
X6343991Y-14988460D02*
X6353515Y-14978936D01*
X6353515Y-14978936D02*
X6353515Y-14997984D01*
X6486848Y-14797984D02*
X6505896Y-14797984D01*
X6505896Y-14797984D02*
X6524944Y-14807508D01*
X6524944Y-14807508D02*
X6534467Y-14817031D01*
X6534467Y-14817031D02*
X6543991Y-14836079D01*
X6543991Y-14836079D02*
X6553515Y-14874174D01*
X6553515Y-14874174D02*
X6553515Y-14921793D01*
X6553515Y-14921793D02*
X6543991Y-14959888D01*
X6543991Y-14959888D02*
X6534467Y-14978936D01*
X6534467Y-14978936D02*
X6524944Y-14988460D01*
X6524944Y-14988460D02*
X6505896Y-14997984D01*
X6505896Y-14997984D02*
X6486848Y-14997984D01*
X6486848Y-14997984D02*
X6467801Y-14988460D01*
X6467801Y-14988460D02*
X6458277Y-14978936D01*
X6458277Y-14978936D02*
X6448753Y-14959888D01*
X6448753Y-14959888D02*
X6439229Y-14921793D01*
X6439229Y-14921793D02*
X6439229Y-14874174D01*
X6439229Y-14874174D02*
X6448753Y-14836079D01*
X6448753Y-14836079D02*
X6458277Y-14817031D01*
X6458277Y-14817031D02*
X6467801Y-14807508D01*
X6467801Y-14807508D02*
X6486848Y-14797984D01*
X6724944Y-14864650D02*
X6724944Y-14997984D01*
X6677325Y-14788460D02*
X6629706Y-14931317D01*
X6629706Y-14931317D02*
X6753515Y-14931317D01*
X6810658Y-14797984D02*
X6934467Y-14797984D01*
X6934467Y-14797984D02*
X6867801Y-14874174D01*
X6867801Y-14874174D02*
X6896372Y-14874174D01*
X6896372Y-14874174D02*
X6915420Y-14883698D01*
X6915420Y-14883698D02*
X6924944Y-14893222D01*
X6924944Y-14893222D02*
X6934467Y-14912269D01*
X6934467Y-14912269D02*
X6934467Y-14959888D01*
X6934467Y-14959888D02*
X6924944Y-14978936D01*
X6924944Y-14978936D02*
X6915420Y-14988460D01*
X6915420Y-14988460D02*
X6896372Y-14997984D01*
X6896372Y-14997984D02*
X6839229Y-14997984D01*
X6839229Y-14997984D02*
X6820182Y-14988460D01*
X6820182Y-14988460D02*
X6810658Y-14978936D01*
X7001134Y-14797984D02*
X7124944Y-14797984D01*
X7124944Y-14797984D02*
X7058277Y-14874174D01*
X7058277Y-14874174D02*
X7086848Y-14874174D01*
X7086848Y-14874174D02*
X7105896Y-14883698D01*
X7105896Y-14883698D02*
X7115420Y-14893222D01*
X7115420Y-14893222D02*
X7124944Y-14912269D01*
X7124944Y-14912269D02*
X7124944Y-14959888D01*
X7124944Y-14959888D02*
X7115420Y-14978936D01*
X7115420Y-14978936D02*
X7105896Y-14988460D01*
X7105896Y-14988460D02*
X7086848Y-14997984D01*
X7086848Y-14997984D02*
X7029706Y-14997984D01*
X7029706Y-14997984D02*
X7010658Y-14988460D01*
X7010658Y-14988460D02*
X7001134Y-14978936D01*
X7201134Y-14797984D02*
X7201134Y-14836079D01*
X7277325Y-14797984D02*
X7277325Y-14836079D01*
X7572563Y-15074174D02*
X7563039Y-15064650D01*
X7563039Y-15064650D02*
X7543991Y-15036079D01*
X7543991Y-15036079D02*
X7534468Y-15017031D01*
X7534468Y-15017031D02*
X7524944Y-14988460D01*
X7524944Y-14988460D02*
X7515420Y-14940841D01*
X7515420Y-14940841D02*
X7515420Y-14902746D01*
X7515420Y-14902746D02*
X7524944Y-14855127D01*
X7524944Y-14855127D02*
X7534468Y-14826555D01*
X7534468Y-14826555D02*
X7543991Y-14807508D01*
X7543991Y-14807508D02*
X7563039Y-14778936D01*
X7563039Y-14778936D02*
X7572563Y-14769412D01*
X7629706Y-14797984D02*
X7753515Y-14797984D01*
X7753515Y-14797984D02*
X7686848Y-14874174D01*
X7686848Y-14874174D02*
X7715420Y-14874174D01*
X7715420Y-14874174D02*
X7734468Y-14883698D01*
X7734468Y-14883698D02*
X7743991Y-14893222D01*
X7743991Y-14893222D02*
X7753515Y-14912269D01*
X7753515Y-14912269D02*
X7753515Y-14959888D01*
X7753515Y-14959888D02*
X7743991Y-14978936D01*
X7743991Y-14978936D02*
X7734468Y-14988460D01*
X7734468Y-14988460D02*
X7715420Y-14997984D01*
X7715420Y-14997984D02*
X7658277Y-14997984D01*
X7658277Y-14997984D02*
X7639229Y-14988460D01*
X7639229Y-14988460D02*
X7629706Y-14978936D01*
X7991610Y-14997984D02*
X7991610Y-14797984D01*
X8077325Y-14997984D02*
X8077325Y-14893222D01*
X8077325Y-14893222D02*
X8067801Y-14874174D01*
X8067801Y-14874174D02*
X8048753Y-14864650D01*
X8048753Y-14864650D02*
X8020182Y-14864650D01*
X8020182Y-14864650D02*
X8001134Y-14874174D01*
X8001134Y-14874174D02*
X7991610Y-14883698D01*
X8201134Y-14997984D02*
X8182087Y-14988460D01*
X8182087Y-14988460D02*
X8172563Y-14978936D01*
X8172563Y-14978936D02*
X8163039Y-14959888D01*
X8163039Y-14959888D02*
X8163039Y-14902746D01*
X8163039Y-14902746D02*
X8172563Y-14883698D01*
X8172563Y-14883698D02*
X8182087Y-14874174D01*
X8182087Y-14874174D02*
X8201134Y-14864650D01*
X8201134Y-14864650D02*
X8229706Y-14864650D01*
X8229706Y-14864650D02*
X8248753Y-14874174D01*
X8248753Y-14874174D02*
X8258277Y-14883698D01*
X8258277Y-14883698D02*
X8267801Y-14902746D01*
X8267801Y-14902746D02*
X8267801Y-14959888D01*
X8267801Y-14959888D02*
X8258277Y-14978936D01*
X8258277Y-14978936D02*
X8248753Y-14988460D01*
X8248753Y-14988460D02*
X8229706Y-14997984D01*
X8229706Y-14997984D02*
X8201134Y-14997984D01*
X8382087Y-14997984D02*
X8363039Y-14988460D01*
X8363039Y-14988460D02*
X8353515Y-14969412D01*
X8353515Y-14969412D02*
X8353515Y-14797984D01*
X8534468Y-14988460D02*
X8515420Y-14997984D01*
X8515420Y-14997984D02*
X8477325Y-14997984D01*
X8477325Y-14997984D02*
X8458277Y-14988460D01*
X8458277Y-14988460D02*
X8448753Y-14969412D01*
X8448753Y-14969412D02*
X8448753Y-14893222D01*
X8448753Y-14893222D02*
X8458277Y-14874174D01*
X8458277Y-14874174D02*
X8477325Y-14864650D01*
X8477325Y-14864650D02*
X8515420Y-14864650D01*
X8515420Y-14864650D02*
X8534468Y-14874174D01*
X8534468Y-14874174D02*
X8543992Y-14893222D01*
X8543992Y-14893222D02*
X8543992Y-14912269D01*
X8543992Y-14912269D02*
X8448753Y-14931317D01*
X8620182Y-14988460D02*
X8639230Y-14997984D01*
X8639230Y-14997984D02*
X8677325Y-14997984D01*
X8677325Y-14997984D02*
X8696373Y-14988460D01*
X8696373Y-14988460D02*
X8705896Y-14969412D01*
X8705896Y-14969412D02*
X8705896Y-14959888D01*
X8705896Y-14959888D02*
X8696373Y-14940841D01*
X8696373Y-14940841D02*
X8677325Y-14931317D01*
X8677325Y-14931317D02*
X8648753Y-14931317D01*
X8648753Y-14931317D02*
X8629706Y-14921793D01*
X8629706Y-14921793D02*
X8620182Y-14902746D01*
X8620182Y-14902746D02*
X8620182Y-14893222D01*
X8620182Y-14893222D02*
X8629706Y-14874174D01*
X8629706Y-14874174D02*
X8648753Y-14864650D01*
X8648753Y-14864650D02*
X8677325Y-14864650D01*
X8677325Y-14864650D02*
X8696373Y-14874174D01*
X8772563Y-15074174D02*
X8782087Y-15064650D01*
X8782087Y-15064650D02*
X8801134Y-15036079D01*
X8801134Y-15036079D02*
X8810658Y-15017031D01*
X8810658Y-15017031D02*
X8820182Y-14988460D01*
X8820182Y-14988460D02*
X8829706Y-14940841D01*
X8829706Y-14940841D02*
X8829706Y-14902746D01*
X8829706Y-14902746D02*
X8820182Y-14855127D01*
X8820182Y-14855127D02*
X8810658Y-14826555D01*
X8810658Y-14826555D02*
X8801134Y-14807508D01*
X8801134Y-14807508D02*
X8782087Y-14778936D01*
X8782087Y-14778936D02*
X8772563Y-14769412D01*
D14*
X3938000Y-15111000D02*
X3938000Y-15230000D01*
X3878500Y-15170500D02*
X3997500Y-15170500D01*
D11*
X4363039Y-15261984D02*
X4248753Y-15261984D01*
X4305896Y-15261984D02*
X4305896Y-15061984D01*
X4305896Y-15061984D02*
X4286848Y-15090555D01*
X4286848Y-15090555D02*
X4267801Y-15109603D01*
X4267801Y-15109603D02*
X4248753Y-15119127D01*
X4448753Y-15242936D02*
X4458277Y-15252460D01*
X4458277Y-15252460D02*
X4448753Y-15261984D01*
X4448753Y-15261984D02*
X4439229Y-15252460D01*
X4439229Y-15252460D02*
X4448753Y-15242936D01*
X4448753Y-15242936D02*
X4448753Y-15261984D01*
X4648753Y-15261984D02*
X4534467Y-15261984D01*
X4591610Y-15261984D02*
X4591610Y-15061984D01*
X4591610Y-15061984D02*
X4572563Y-15090555D01*
X4572563Y-15090555D02*
X4553515Y-15109603D01*
X4553515Y-15109603D02*
X4534467Y-15119127D01*
X4743991Y-15261984D02*
X4782086Y-15261984D01*
X4782086Y-15261984D02*
X4801134Y-15252460D01*
X4801134Y-15252460D02*
X4810658Y-15242936D01*
X4810658Y-15242936D02*
X4829705Y-15214365D01*
X4829705Y-15214365D02*
X4839229Y-15176269D01*
X4839229Y-15176269D02*
X4839229Y-15100079D01*
X4839229Y-15100079D02*
X4829705Y-15081031D01*
X4829705Y-15081031D02*
X4820182Y-15071508D01*
X4820182Y-15071508D02*
X4801134Y-15061984D01*
X4801134Y-15061984D02*
X4763039Y-15061984D01*
X4763039Y-15061984D02*
X4743991Y-15071508D01*
X4743991Y-15071508D02*
X4734467Y-15081031D01*
X4734467Y-15081031D02*
X4724944Y-15100079D01*
X4724944Y-15100079D02*
X4724944Y-15147698D01*
X4724944Y-15147698D02*
X4734467Y-15166746D01*
X4734467Y-15166746D02*
X4743991Y-15176269D01*
X4743991Y-15176269D02*
X4763039Y-15185793D01*
X4763039Y-15185793D02*
X4801134Y-15185793D01*
X4801134Y-15185793D02*
X4820182Y-15176269D01*
X4820182Y-15176269D02*
X4829705Y-15166746D01*
X4829705Y-15166746D02*
X4839229Y-15147698D01*
X4963039Y-15061984D02*
X4982086Y-15061984D01*
X4982086Y-15061984D02*
X5001134Y-15071508D01*
X5001134Y-15071508D02*
X5010658Y-15081031D01*
X5010658Y-15081031D02*
X5020182Y-15100079D01*
X5020182Y-15100079D02*
X5029705Y-15138174D01*
X5029705Y-15138174D02*
X5029705Y-15185793D01*
X5029705Y-15185793D02*
X5020182Y-15223888D01*
X5020182Y-15223888D02*
X5010658Y-15242936D01*
X5010658Y-15242936D02*
X5001134Y-15252460D01*
X5001134Y-15252460D02*
X4982086Y-15261984D01*
X4982086Y-15261984D02*
X4963039Y-15261984D01*
X4963039Y-15261984D02*
X4943991Y-15252460D01*
X4943991Y-15252460D02*
X4934467Y-15242936D01*
X4934467Y-15242936D02*
X4924944Y-15223888D01*
X4924944Y-15223888D02*
X4915420Y-15185793D01*
X4915420Y-15185793D02*
X4915420Y-15138174D01*
X4915420Y-15138174D02*
X4924944Y-15100079D01*
X4924944Y-15100079D02*
X4934467Y-15081031D01*
X4934467Y-15081031D02*
X4943991Y-15071508D01*
X4943991Y-15071508D02*
X4963039Y-15061984D01*
X5115420Y-15261984D02*
X5115420Y-15128650D01*
X5115420Y-15147698D02*
X5124944Y-15138174D01*
X5124944Y-15138174D02*
X5143991Y-15128650D01*
X5143991Y-15128650D02*
X5172563Y-15128650D01*
X5172563Y-15128650D02*
X5191610Y-15138174D01*
X5191610Y-15138174D02*
X5201134Y-15157222D01*
X5201134Y-15157222D02*
X5201134Y-15261984D01*
X5201134Y-15157222D02*
X5210658Y-15138174D01*
X5210658Y-15138174D02*
X5229705Y-15128650D01*
X5229705Y-15128650D02*
X5258277Y-15128650D01*
X5258277Y-15128650D02*
X5277325Y-15138174D01*
X5277325Y-15138174D02*
X5286848Y-15157222D01*
X5286848Y-15157222D02*
X5286848Y-15261984D01*
X5382086Y-15261984D02*
X5382086Y-15128650D01*
X5382086Y-15147698D02*
X5391610Y-15138174D01*
X5391610Y-15138174D02*
X5410658Y-15128650D01*
X5410658Y-15128650D02*
X5439229Y-15128650D01*
X5439229Y-15128650D02*
X5458277Y-15138174D01*
X5458277Y-15138174D02*
X5467801Y-15157222D01*
X5467801Y-15157222D02*
X5467801Y-15261984D01*
X5467801Y-15157222D02*
X5477325Y-15138174D01*
X5477325Y-15138174D02*
X5496372Y-15128650D01*
X5496372Y-15128650D02*
X5524944Y-15128650D01*
X5524944Y-15128650D02*
X5543991Y-15138174D01*
X5543991Y-15138174D02*
X5553515Y-15157222D01*
X5553515Y-15157222D02*
X5553515Y-15261984D01*
X5943991Y-15052460D02*
X5772563Y-15309603D01*
X6201134Y-15061984D02*
X6220182Y-15061984D01*
X6220182Y-15061984D02*
X6239229Y-15071508D01*
X6239229Y-15071508D02*
X6248753Y-15081031D01*
X6248753Y-15081031D02*
X6258277Y-15100079D01*
X6258277Y-15100079D02*
X6267801Y-15138174D01*
X6267801Y-15138174D02*
X6267801Y-15185793D01*
X6267801Y-15185793D02*
X6258277Y-15223888D01*
X6258277Y-15223888D02*
X6248753Y-15242936D01*
X6248753Y-15242936D02*
X6239229Y-15252460D01*
X6239229Y-15252460D02*
X6220182Y-15261984D01*
X6220182Y-15261984D02*
X6201134Y-15261984D01*
X6201134Y-15261984D02*
X6182086Y-15252460D01*
X6182086Y-15252460D02*
X6172563Y-15242936D01*
X6172563Y-15242936D02*
X6163039Y-15223888D01*
X6163039Y-15223888D02*
X6153515Y-15185793D01*
X6153515Y-15185793D02*
X6153515Y-15138174D01*
X6153515Y-15138174D02*
X6163039Y-15100079D01*
X6163039Y-15100079D02*
X6172563Y-15081031D01*
X6172563Y-15081031D02*
X6182086Y-15071508D01*
X6182086Y-15071508D02*
X6201134Y-15061984D01*
X6353515Y-15242936D02*
X6363039Y-15252460D01*
X6363039Y-15252460D02*
X6353515Y-15261984D01*
X6353515Y-15261984D02*
X6343991Y-15252460D01*
X6343991Y-15252460D02*
X6353515Y-15242936D01*
X6353515Y-15242936D02*
X6353515Y-15261984D01*
X6486848Y-15061984D02*
X6505896Y-15061984D01*
X6505896Y-15061984D02*
X6524944Y-15071508D01*
X6524944Y-15071508D02*
X6534467Y-15081031D01*
X6534467Y-15081031D02*
X6543991Y-15100079D01*
X6543991Y-15100079D02*
X6553515Y-15138174D01*
X6553515Y-15138174D02*
X6553515Y-15185793D01*
X6553515Y-15185793D02*
X6543991Y-15223888D01*
X6543991Y-15223888D02*
X6534467Y-15242936D01*
X6534467Y-15242936D02*
X6524944Y-15252460D01*
X6524944Y-15252460D02*
X6505896Y-15261984D01*
X6505896Y-15261984D02*
X6486848Y-15261984D01*
X6486848Y-15261984D02*
X6467801Y-15252460D01*
X6467801Y-15252460D02*
X6458277Y-15242936D01*
X6458277Y-15242936D02*
X6448753Y-15223888D01*
X6448753Y-15223888D02*
X6439229Y-15185793D01*
X6439229Y-15185793D02*
X6439229Y-15138174D01*
X6439229Y-15138174D02*
X6448753Y-15100079D01*
X6448753Y-15100079D02*
X6458277Y-15081031D01*
X6458277Y-15081031D02*
X6467801Y-15071508D01*
X6467801Y-15071508D02*
X6486848Y-15061984D01*
X6724944Y-15128650D02*
X6724944Y-15261984D01*
X6677325Y-15052460D02*
X6629706Y-15195317D01*
X6629706Y-15195317D02*
X6753515Y-15195317D01*
X6915420Y-15061984D02*
X6877325Y-15061984D01*
X6877325Y-15061984D02*
X6858277Y-15071508D01*
X6858277Y-15071508D02*
X6848753Y-15081031D01*
X6848753Y-15081031D02*
X6829706Y-15109603D01*
X6829706Y-15109603D02*
X6820182Y-15147698D01*
X6820182Y-15147698D02*
X6820182Y-15223888D01*
X6820182Y-15223888D02*
X6829706Y-15242936D01*
X6829706Y-15242936D02*
X6839229Y-15252460D01*
X6839229Y-15252460D02*
X6858277Y-15261984D01*
X6858277Y-15261984D02*
X6896372Y-15261984D01*
X6896372Y-15261984D02*
X6915420Y-15252460D01*
X6915420Y-15252460D02*
X6924944Y-15242936D01*
X6924944Y-15242936D02*
X6934467Y-15223888D01*
X6934467Y-15223888D02*
X6934467Y-15176269D01*
X6934467Y-15176269D02*
X6924944Y-15157222D01*
X6924944Y-15157222D02*
X6915420Y-15147698D01*
X6915420Y-15147698D02*
X6896372Y-15138174D01*
X6896372Y-15138174D02*
X6858277Y-15138174D01*
X6858277Y-15138174D02*
X6839229Y-15147698D01*
X6839229Y-15147698D02*
X6829706Y-15157222D01*
X6829706Y-15157222D02*
X6820182Y-15176269D01*
X7029706Y-15261984D02*
X7067801Y-15261984D01*
X7067801Y-15261984D02*
X7086848Y-15252460D01*
X7086848Y-15252460D02*
X7096372Y-15242936D01*
X7096372Y-15242936D02*
X7115420Y-15214365D01*
X7115420Y-15214365D02*
X7124944Y-15176269D01*
X7124944Y-15176269D02*
X7124944Y-15100079D01*
X7124944Y-15100079D02*
X7115420Y-15081031D01*
X7115420Y-15081031D02*
X7105896Y-15071508D01*
X7105896Y-15071508D02*
X7086848Y-15061984D01*
X7086848Y-15061984D02*
X7048753Y-15061984D01*
X7048753Y-15061984D02*
X7029706Y-15071508D01*
X7029706Y-15071508D02*
X7020182Y-15081031D01*
X7020182Y-15081031D02*
X7010658Y-15100079D01*
X7010658Y-15100079D02*
X7010658Y-15147698D01*
X7010658Y-15147698D02*
X7020182Y-15166746D01*
X7020182Y-15166746D02*
X7029706Y-15176269D01*
X7029706Y-15176269D02*
X7048753Y-15185793D01*
X7048753Y-15185793D02*
X7086848Y-15185793D01*
X7086848Y-15185793D02*
X7105896Y-15176269D01*
X7105896Y-15176269D02*
X7115420Y-15166746D01*
X7115420Y-15166746D02*
X7124944Y-15147698D01*
X7201134Y-15061984D02*
X7201134Y-15100079D01*
X7277325Y-15061984D02*
X7277325Y-15100079D01*
X7572563Y-15338174D02*
X7563039Y-15328650D01*
X7563039Y-15328650D02*
X7543991Y-15300079D01*
X7543991Y-15300079D02*
X7534468Y-15281031D01*
X7534468Y-15281031D02*
X7524944Y-15252460D01*
X7524944Y-15252460D02*
X7515420Y-15204841D01*
X7515420Y-15204841D02*
X7515420Y-15166746D01*
X7515420Y-15166746D02*
X7524944Y-15119127D01*
X7524944Y-15119127D02*
X7534468Y-15090555D01*
X7534468Y-15090555D02*
X7543991Y-15071508D01*
X7543991Y-15071508D02*
X7563039Y-15042936D01*
X7563039Y-15042936D02*
X7572563Y-15033412D01*
X7753515Y-15261984D02*
X7639229Y-15261984D01*
X7696372Y-15261984D02*
X7696372Y-15061984D01*
X7696372Y-15061984D02*
X7677325Y-15090555D01*
X7677325Y-15090555D02*
X7658277Y-15109603D01*
X7658277Y-15109603D02*
X7639229Y-15119127D01*
X7829706Y-15081031D02*
X7839229Y-15071508D01*
X7839229Y-15071508D02*
X7858277Y-15061984D01*
X7858277Y-15061984D02*
X7905896Y-15061984D01*
X7905896Y-15061984D02*
X7924944Y-15071508D01*
X7924944Y-15071508D02*
X7934468Y-15081031D01*
X7934468Y-15081031D02*
X7943991Y-15100079D01*
X7943991Y-15100079D02*
X7943991Y-15119127D01*
X7943991Y-15119127D02*
X7934468Y-15147698D01*
X7934468Y-15147698D02*
X7820182Y-15261984D01*
X7820182Y-15261984D02*
X7943991Y-15261984D01*
X8182087Y-15261984D02*
X8182087Y-15061984D01*
X8267801Y-15261984D02*
X8267801Y-15157222D01*
X8267801Y-15157222D02*
X8258277Y-15138174D01*
X8258277Y-15138174D02*
X8239230Y-15128650D01*
X8239230Y-15128650D02*
X8210658Y-15128650D01*
X8210658Y-15128650D02*
X8191610Y-15138174D01*
X8191610Y-15138174D02*
X8182087Y-15147698D01*
X8391611Y-15261984D02*
X8372563Y-15252460D01*
X8372563Y-15252460D02*
X8363039Y-15242936D01*
X8363039Y-15242936D02*
X8353515Y-15223888D01*
X8353515Y-15223888D02*
X8353515Y-15166746D01*
X8353515Y-15166746D02*
X8363039Y-15147698D01*
X8363039Y-15147698D02*
X8372563Y-15138174D01*
X8372563Y-15138174D02*
X8391611Y-15128650D01*
X8391611Y-15128650D02*
X8420182Y-15128650D01*
X8420182Y-15128650D02*
X8439230Y-15138174D01*
X8439230Y-15138174D02*
X8448753Y-15147698D01*
X8448753Y-15147698D02*
X8458277Y-15166746D01*
X8458277Y-15166746D02*
X8458277Y-15223888D01*
X8458277Y-15223888D02*
X8448753Y-15242936D01*
X8448753Y-15242936D02*
X8439230Y-15252460D01*
X8439230Y-15252460D02*
X8420182Y-15261984D01*
X8420182Y-15261984D02*
X8391611Y-15261984D01*
X8572563Y-15261984D02*
X8553515Y-15252460D01*
X8553515Y-15252460D02*
X8543992Y-15233412D01*
X8543992Y-15233412D02*
X8543992Y-15061984D01*
X8724944Y-15252460D02*
X8705896Y-15261984D01*
X8705896Y-15261984D02*
X8667801Y-15261984D01*
X8667801Y-15261984D02*
X8648753Y-15252460D01*
X8648753Y-15252460D02*
X8639230Y-15233412D01*
X8639230Y-15233412D02*
X8639230Y-15157222D01*
X8639230Y-15157222D02*
X8648753Y-15138174D01*
X8648753Y-15138174D02*
X8667801Y-15128650D01*
X8667801Y-15128650D02*
X8705896Y-15128650D01*
X8705896Y-15128650D02*
X8724944Y-15138174D01*
X8724944Y-15138174D02*
X8734468Y-15157222D01*
X8734468Y-15157222D02*
X8734468Y-15176269D01*
X8734468Y-15176269D02*
X8639230Y-15195317D01*
X8810658Y-15252460D02*
X8829706Y-15261984D01*
X8829706Y-15261984D02*
X8867801Y-15261984D01*
X8867801Y-15261984D02*
X8886849Y-15252460D01*
X8886849Y-15252460D02*
X8896373Y-15233412D01*
X8896373Y-15233412D02*
X8896373Y-15223888D01*
X8896373Y-15223888D02*
X8886849Y-15204841D01*
X8886849Y-15204841D02*
X8867801Y-15195317D01*
X8867801Y-15195317D02*
X8839230Y-15195317D01*
X8839230Y-15195317D02*
X8820182Y-15185793D01*
X8820182Y-15185793D02*
X8810658Y-15166746D01*
X8810658Y-15166746D02*
X8810658Y-15157222D01*
X8810658Y-15157222D02*
X8820182Y-15138174D01*
X8820182Y-15138174D02*
X8839230Y-15128650D01*
X8839230Y-15128650D02*
X8867801Y-15128650D01*
X8867801Y-15128650D02*
X8886849Y-15138174D01*
X8963039Y-15338174D02*
X8972563Y-15328650D01*
X8972563Y-15328650D02*
X8991611Y-15300079D01*
X8991611Y-15300079D02*
X9001134Y-15281031D01*
X9001134Y-15281031D02*
X9010658Y-15252460D01*
X9010658Y-15252460D02*
X9020182Y-15204841D01*
X9020182Y-15204841D02*
X9020182Y-15166746D01*
X9020182Y-15166746D02*
X9010658Y-15119127D01*
X9010658Y-15119127D02*
X9001134Y-15090555D01*
X9001134Y-15090555D02*
X8991611Y-15071508D01*
X8991611Y-15071508D02*
X8972563Y-15042936D01*
X8972563Y-15042936D02*
X8963039Y-15033412D01*
D15*
X3978462Y-15480462D02*
X3978462Y-15388538D01*
X3886538Y-15388538D01*
X3886538Y-15480462D01*
X3978462Y-15480462D01*
D11*
X4363039Y-15525984D02*
X4248753Y-15525984D01*
X4305896Y-15525984D02*
X4305896Y-15325984D01*
X4305896Y-15325984D02*
X4286848Y-15354555D01*
X4286848Y-15354555D02*
X4267801Y-15373603D01*
X4267801Y-15373603D02*
X4248753Y-15383127D01*
X4448753Y-15506936D02*
X4458277Y-15516460D01*
X4458277Y-15516460D02*
X4448753Y-15525984D01*
X4448753Y-15525984D02*
X4439229Y-15516460D01*
X4439229Y-15516460D02*
X4448753Y-15506936D01*
X4448753Y-15506936D02*
X4448753Y-15525984D01*
X4524944Y-15325984D02*
X4648753Y-15325984D01*
X4648753Y-15325984D02*
X4582086Y-15402174D01*
X4582086Y-15402174D02*
X4610658Y-15402174D01*
X4610658Y-15402174D02*
X4629705Y-15411698D01*
X4629705Y-15411698D02*
X4639229Y-15421222D01*
X4639229Y-15421222D02*
X4648753Y-15440269D01*
X4648753Y-15440269D02*
X4648753Y-15487888D01*
X4648753Y-15487888D02*
X4639229Y-15506936D01*
X4639229Y-15506936D02*
X4629705Y-15516460D01*
X4629705Y-15516460D02*
X4610658Y-15525984D01*
X4610658Y-15525984D02*
X4553515Y-15525984D01*
X4553515Y-15525984D02*
X4534467Y-15516460D01*
X4534467Y-15516460D02*
X4524944Y-15506936D01*
X4772563Y-15325984D02*
X4791610Y-15325984D01*
X4791610Y-15325984D02*
X4810658Y-15335508D01*
X4810658Y-15335508D02*
X4820182Y-15345031D01*
X4820182Y-15345031D02*
X4829705Y-15364079D01*
X4829705Y-15364079D02*
X4839229Y-15402174D01*
X4839229Y-15402174D02*
X4839229Y-15449793D01*
X4839229Y-15449793D02*
X4829705Y-15487888D01*
X4829705Y-15487888D02*
X4820182Y-15506936D01*
X4820182Y-15506936D02*
X4810658Y-15516460D01*
X4810658Y-15516460D02*
X4791610Y-15525984D01*
X4791610Y-15525984D02*
X4772563Y-15525984D01*
X4772563Y-15525984D02*
X4753515Y-15516460D01*
X4753515Y-15516460D02*
X4743991Y-15506936D01*
X4743991Y-15506936D02*
X4734467Y-15487888D01*
X4734467Y-15487888D02*
X4724944Y-15449793D01*
X4724944Y-15449793D02*
X4724944Y-15402174D01*
X4724944Y-15402174D02*
X4734467Y-15364079D01*
X4734467Y-15364079D02*
X4743991Y-15345031D01*
X4743991Y-15345031D02*
X4753515Y-15335508D01*
X4753515Y-15335508D02*
X4772563Y-15325984D01*
X4963039Y-15325984D02*
X4982086Y-15325984D01*
X4982086Y-15325984D02*
X5001134Y-15335508D01*
X5001134Y-15335508D02*
X5010658Y-15345031D01*
X5010658Y-15345031D02*
X5020182Y-15364079D01*
X5020182Y-15364079D02*
X5029705Y-15402174D01*
X5029705Y-15402174D02*
X5029705Y-15449793D01*
X5029705Y-15449793D02*
X5020182Y-15487888D01*
X5020182Y-15487888D02*
X5010658Y-15506936D01*
X5010658Y-15506936D02*
X5001134Y-15516460D01*
X5001134Y-15516460D02*
X4982086Y-15525984D01*
X4982086Y-15525984D02*
X4963039Y-15525984D01*
X4963039Y-15525984D02*
X4943991Y-15516460D01*
X4943991Y-15516460D02*
X4934467Y-15506936D01*
X4934467Y-15506936D02*
X4924944Y-15487888D01*
X4924944Y-15487888D02*
X4915420Y-15449793D01*
X4915420Y-15449793D02*
X4915420Y-15402174D01*
X4915420Y-15402174D02*
X4924944Y-15364079D01*
X4924944Y-15364079D02*
X4934467Y-15345031D01*
X4934467Y-15345031D02*
X4943991Y-15335508D01*
X4943991Y-15335508D02*
X4963039Y-15325984D01*
X5115420Y-15525984D02*
X5115420Y-15392650D01*
X5115420Y-15411698D02*
X5124944Y-15402174D01*
X5124944Y-15402174D02*
X5143991Y-15392650D01*
X5143991Y-15392650D02*
X5172563Y-15392650D01*
X5172563Y-15392650D02*
X5191610Y-15402174D01*
X5191610Y-15402174D02*
X5201134Y-15421222D01*
X5201134Y-15421222D02*
X5201134Y-15525984D01*
X5201134Y-15421222D02*
X5210658Y-15402174D01*
X5210658Y-15402174D02*
X5229705Y-15392650D01*
X5229705Y-15392650D02*
X5258277Y-15392650D01*
X5258277Y-15392650D02*
X5277325Y-15402174D01*
X5277325Y-15402174D02*
X5286848Y-15421222D01*
X5286848Y-15421222D02*
X5286848Y-15525984D01*
X5382086Y-15525984D02*
X5382086Y-15392650D01*
X5382086Y-15411698D02*
X5391610Y-15402174D01*
X5391610Y-15402174D02*
X5410658Y-15392650D01*
X5410658Y-15392650D02*
X5439229Y-15392650D01*
X5439229Y-15392650D02*
X5458277Y-15402174D01*
X5458277Y-15402174D02*
X5467801Y-15421222D01*
X5467801Y-15421222D02*
X5467801Y-15525984D01*
X5467801Y-15421222D02*
X5477325Y-15402174D01*
X5477325Y-15402174D02*
X5496372Y-15392650D01*
X5496372Y-15392650D02*
X5524944Y-15392650D01*
X5524944Y-15392650D02*
X5543991Y-15402174D01*
X5543991Y-15402174D02*
X5553515Y-15421222D01*
X5553515Y-15421222D02*
X5553515Y-15525984D01*
X5943991Y-15316460D02*
X5772563Y-15573603D01*
X6201134Y-15325984D02*
X6220182Y-15325984D01*
X6220182Y-15325984D02*
X6239229Y-15335508D01*
X6239229Y-15335508D02*
X6248753Y-15345031D01*
X6248753Y-15345031D02*
X6258277Y-15364079D01*
X6258277Y-15364079D02*
X6267801Y-15402174D01*
X6267801Y-15402174D02*
X6267801Y-15449793D01*
X6267801Y-15449793D02*
X6258277Y-15487888D01*
X6258277Y-15487888D02*
X6248753Y-15506936D01*
X6248753Y-15506936D02*
X6239229Y-15516460D01*
X6239229Y-15516460D02*
X6220182Y-15525984D01*
X6220182Y-15525984D02*
X6201134Y-15525984D01*
X6201134Y-15525984D02*
X6182086Y-15516460D01*
X6182086Y-15516460D02*
X6172563Y-15506936D01*
X6172563Y-15506936D02*
X6163039Y-15487888D01*
X6163039Y-15487888D02*
X6153515Y-15449793D01*
X6153515Y-15449793D02*
X6153515Y-15402174D01*
X6153515Y-15402174D02*
X6163039Y-15364079D01*
X6163039Y-15364079D02*
X6172563Y-15345031D01*
X6172563Y-15345031D02*
X6182086Y-15335508D01*
X6182086Y-15335508D02*
X6201134Y-15325984D01*
X6353515Y-15506936D02*
X6363039Y-15516460D01*
X6363039Y-15516460D02*
X6353515Y-15525984D01*
X6353515Y-15525984D02*
X6343991Y-15516460D01*
X6343991Y-15516460D02*
X6353515Y-15506936D01*
X6353515Y-15506936D02*
X6353515Y-15525984D01*
X6486848Y-15325984D02*
X6505896Y-15325984D01*
X6505896Y-15325984D02*
X6524944Y-15335508D01*
X6524944Y-15335508D02*
X6534467Y-15345031D01*
X6534467Y-15345031D02*
X6543991Y-15364079D01*
X6543991Y-15364079D02*
X6553515Y-15402174D01*
X6553515Y-15402174D02*
X6553515Y-15449793D01*
X6553515Y-15449793D02*
X6543991Y-15487888D01*
X6543991Y-15487888D02*
X6534467Y-15506936D01*
X6534467Y-15506936D02*
X6524944Y-15516460D01*
X6524944Y-15516460D02*
X6505896Y-15525984D01*
X6505896Y-15525984D02*
X6486848Y-15525984D01*
X6486848Y-15525984D02*
X6467801Y-15516460D01*
X6467801Y-15516460D02*
X6458277Y-15506936D01*
X6458277Y-15506936D02*
X6448753Y-15487888D01*
X6448753Y-15487888D02*
X6439229Y-15449793D01*
X6439229Y-15449793D02*
X6439229Y-15402174D01*
X6439229Y-15402174D02*
X6448753Y-15364079D01*
X6448753Y-15364079D02*
X6458277Y-15345031D01*
X6458277Y-15345031D02*
X6467801Y-15335508D01*
X6467801Y-15335508D02*
X6486848Y-15325984D01*
X6734467Y-15325984D02*
X6639229Y-15325984D01*
X6639229Y-15325984D02*
X6629706Y-15421222D01*
X6629706Y-15421222D02*
X6639229Y-15411698D01*
X6639229Y-15411698D02*
X6658277Y-15402174D01*
X6658277Y-15402174D02*
X6705896Y-15402174D01*
X6705896Y-15402174D02*
X6724944Y-15411698D01*
X6724944Y-15411698D02*
X6734467Y-15421222D01*
X6734467Y-15421222D02*
X6743991Y-15440269D01*
X6743991Y-15440269D02*
X6743991Y-15487888D01*
X6743991Y-15487888D02*
X6734467Y-15506936D01*
X6734467Y-15506936D02*
X6724944Y-15516460D01*
X6724944Y-15516460D02*
X6705896Y-15525984D01*
X6705896Y-15525984D02*
X6658277Y-15525984D01*
X6658277Y-15525984D02*
X6639229Y-15516460D01*
X6639229Y-15516460D02*
X6629706Y-15506936D01*
X6934467Y-15525984D02*
X6820182Y-15525984D01*
X6877325Y-15525984D02*
X6877325Y-15325984D01*
X6877325Y-15325984D02*
X6858277Y-15354555D01*
X6858277Y-15354555D02*
X6839229Y-15373603D01*
X6839229Y-15373603D02*
X6820182Y-15383127D01*
X7010658Y-15345031D02*
X7020182Y-15335508D01*
X7020182Y-15335508D02*
X7039229Y-15325984D01*
X7039229Y-15325984D02*
X7086848Y-15325984D01*
X7086848Y-15325984D02*
X7105896Y-15335508D01*
X7105896Y-15335508D02*
X7115420Y-15345031D01*
X7115420Y-15345031D02*
X7124944Y-15364079D01*
X7124944Y-15364079D02*
X7124944Y-15383127D01*
X7124944Y-15383127D02*
X7115420Y-15411698D01*
X7115420Y-15411698D02*
X7001134Y-15525984D01*
X7001134Y-15525984D02*
X7124944Y-15525984D01*
X7201134Y-15325984D02*
X7201134Y-15364079D01*
X7277325Y-15325984D02*
X7277325Y-15364079D01*
X7572563Y-15602174D02*
X7563039Y-15592650D01*
X7563039Y-15592650D02*
X7543991Y-15564079D01*
X7543991Y-15564079D02*
X7534468Y-15545031D01*
X7534468Y-15545031D02*
X7524944Y-15516460D01*
X7524944Y-15516460D02*
X7515420Y-15468841D01*
X7515420Y-15468841D02*
X7515420Y-15430746D01*
X7515420Y-15430746D02*
X7524944Y-15383127D01*
X7524944Y-15383127D02*
X7534468Y-15354555D01*
X7534468Y-15354555D02*
X7543991Y-15335508D01*
X7543991Y-15335508D02*
X7563039Y-15306936D01*
X7563039Y-15306936D02*
X7572563Y-15297412D01*
X7639229Y-15345031D02*
X7648753Y-15335508D01*
X7648753Y-15335508D02*
X7667801Y-15325984D01*
X7667801Y-15325984D02*
X7715420Y-15325984D01*
X7715420Y-15325984D02*
X7734468Y-15335508D01*
X7734468Y-15335508D02*
X7743991Y-15345031D01*
X7743991Y-15345031D02*
X7753515Y-15364079D01*
X7753515Y-15364079D02*
X7753515Y-15383127D01*
X7753515Y-15383127D02*
X7743991Y-15411698D01*
X7743991Y-15411698D02*
X7629706Y-15525984D01*
X7629706Y-15525984D02*
X7753515Y-15525984D01*
X7991610Y-15525984D02*
X7991610Y-15325984D01*
X8077325Y-15525984D02*
X8077325Y-15421222D01*
X8077325Y-15421222D02*
X8067801Y-15402174D01*
X8067801Y-15402174D02*
X8048753Y-15392650D01*
X8048753Y-15392650D02*
X8020182Y-15392650D01*
X8020182Y-15392650D02*
X8001134Y-15402174D01*
X8001134Y-15402174D02*
X7991610Y-15411698D01*
X8201134Y-15525984D02*
X8182087Y-15516460D01*
X8182087Y-15516460D02*
X8172563Y-15506936D01*
X8172563Y-15506936D02*
X8163039Y-15487888D01*
X8163039Y-15487888D02*
X8163039Y-15430746D01*
X8163039Y-15430746D02*
X8172563Y-15411698D01*
X8172563Y-15411698D02*
X8182087Y-15402174D01*
X8182087Y-15402174D02*
X8201134Y-15392650D01*
X8201134Y-15392650D02*
X8229706Y-15392650D01*
X8229706Y-15392650D02*
X8248753Y-15402174D01*
X8248753Y-15402174D02*
X8258277Y-15411698D01*
X8258277Y-15411698D02*
X8267801Y-15430746D01*
X8267801Y-15430746D02*
X8267801Y-15487888D01*
X8267801Y-15487888D02*
X8258277Y-15506936D01*
X8258277Y-15506936D02*
X8248753Y-15516460D01*
X8248753Y-15516460D02*
X8229706Y-15525984D01*
X8229706Y-15525984D02*
X8201134Y-15525984D01*
X8382087Y-15525984D02*
X8363039Y-15516460D01*
X8363039Y-15516460D02*
X8353515Y-15497412D01*
X8353515Y-15497412D02*
X8353515Y-15325984D01*
X8534468Y-15516460D02*
X8515420Y-15525984D01*
X8515420Y-15525984D02*
X8477325Y-15525984D01*
X8477325Y-15525984D02*
X8458277Y-15516460D01*
X8458277Y-15516460D02*
X8448753Y-15497412D01*
X8448753Y-15497412D02*
X8448753Y-15421222D01*
X8448753Y-15421222D02*
X8458277Y-15402174D01*
X8458277Y-15402174D02*
X8477325Y-15392650D01*
X8477325Y-15392650D02*
X8515420Y-15392650D01*
X8515420Y-15392650D02*
X8534468Y-15402174D01*
X8534468Y-15402174D02*
X8543992Y-15421222D01*
X8543992Y-15421222D02*
X8543992Y-15440269D01*
X8543992Y-15440269D02*
X8448753Y-15459317D01*
X8620182Y-15516460D02*
X8639230Y-15525984D01*
X8639230Y-15525984D02*
X8677325Y-15525984D01*
X8677325Y-15525984D02*
X8696373Y-15516460D01*
X8696373Y-15516460D02*
X8705896Y-15497412D01*
X8705896Y-15497412D02*
X8705896Y-15487888D01*
X8705896Y-15487888D02*
X8696373Y-15468841D01*
X8696373Y-15468841D02*
X8677325Y-15459317D01*
X8677325Y-15459317D02*
X8648753Y-15459317D01*
X8648753Y-15459317D02*
X8629706Y-15449793D01*
X8629706Y-15449793D02*
X8620182Y-15430746D01*
X8620182Y-15430746D02*
X8620182Y-15421222D01*
X8620182Y-15421222D02*
X8629706Y-15402174D01*
X8629706Y-15402174D02*
X8648753Y-15392650D01*
X8648753Y-15392650D02*
X8677325Y-15392650D01*
X8677325Y-15392650D02*
X8696373Y-15402174D01*
X8772563Y-15602174D02*
X8782087Y-15592650D01*
X8782087Y-15592650D02*
X8801134Y-15564079D01*
X8801134Y-15564079D02*
X8810658Y-15545031D01*
X8810658Y-15545031D02*
X8820182Y-15516460D01*
X8820182Y-15516460D02*
X8829706Y-15468841D01*
X8829706Y-15468841D02*
X8829706Y-15430746D01*
X8829706Y-15430746D02*
X8820182Y-15383127D01*
X8820182Y-15383127D02*
X8810658Y-15354555D01*
X8810658Y-15354555D02*
X8801134Y-15335508D01*
X8801134Y-15335508D02*
X8782087Y-15306936D01*
X8782087Y-15306936D02*
X8772563Y-15297412D01*
D16*
X3922500Y-15773500D02*
X3997500Y-15698500D01*
X3922500Y-15623500D01*
X3847500Y-15698500D01*
X3922500Y-15773500D01*
D11*
X4363039Y-15789984D02*
X4248753Y-15789984D01*
X4305896Y-15789984D02*
X4305896Y-15589984D01*
X4305896Y-15589984D02*
X4286848Y-15618555D01*
X4286848Y-15618555D02*
X4267801Y-15637603D01*
X4267801Y-15637603D02*
X4248753Y-15647127D01*
X4448753Y-15770936D02*
X4458277Y-15780460D01*
X4458277Y-15780460D02*
X4448753Y-15789984D01*
X4448753Y-15789984D02*
X4439229Y-15780460D01*
X4439229Y-15780460D02*
X4448753Y-15770936D01*
X4448753Y-15770936D02*
X4448753Y-15789984D01*
X4639229Y-15589984D02*
X4543991Y-15589984D01*
X4543991Y-15589984D02*
X4534467Y-15685222D01*
X4534467Y-15685222D02*
X4543991Y-15675698D01*
X4543991Y-15675698D02*
X4563039Y-15666174D01*
X4563039Y-15666174D02*
X4610658Y-15666174D01*
X4610658Y-15666174D02*
X4629705Y-15675698D01*
X4629705Y-15675698D02*
X4639229Y-15685222D01*
X4639229Y-15685222D02*
X4648753Y-15704269D01*
X4648753Y-15704269D02*
X4648753Y-15751888D01*
X4648753Y-15751888D02*
X4639229Y-15770936D01*
X4639229Y-15770936D02*
X4629705Y-15780460D01*
X4629705Y-15780460D02*
X4610658Y-15789984D01*
X4610658Y-15789984D02*
X4563039Y-15789984D01*
X4563039Y-15789984D02*
X4543991Y-15780460D01*
X4543991Y-15780460D02*
X4534467Y-15770936D01*
X4772563Y-15589984D02*
X4791610Y-15589984D01*
X4791610Y-15589984D02*
X4810658Y-15599508D01*
X4810658Y-15599508D02*
X4820182Y-15609031D01*
X4820182Y-15609031D02*
X4829705Y-15628079D01*
X4829705Y-15628079D02*
X4839229Y-15666174D01*
X4839229Y-15666174D02*
X4839229Y-15713793D01*
X4839229Y-15713793D02*
X4829705Y-15751888D01*
X4829705Y-15751888D02*
X4820182Y-15770936D01*
X4820182Y-15770936D02*
X4810658Y-15780460D01*
X4810658Y-15780460D02*
X4791610Y-15789984D01*
X4791610Y-15789984D02*
X4772563Y-15789984D01*
X4772563Y-15789984D02*
X4753515Y-15780460D01*
X4753515Y-15780460D02*
X4743991Y-15770936D01*
X4743991Y-15770936D02*
X4734467Y-15751888D01*
X4734467Y-15751888D02*
X4724944Y-15713793D01*
X4724944Y-15713793D02*
X4724944Y-15666174D01*
X4724944Y-15666174D02*
X4734467Y-15628079D01*
X4734467Y-15628079D02*
X4743991Y-15609031D01*
X4743991Y-15609031D02*
X4753515Y-15599508D01*
X4753515Y-15599508D02*
X4772563Y-15589984D01*
X4963039Y-15589984D02*
X4982086Y-15589984D01*
X4982086Y-15589984D02*
X5001134Y-15599508D01*
X5001134Y-15599508D02*
X5010658Y-15609031D01*
X5010658Y-15609031D02*
X5020182Y-15628079D01*
X5020182Y-15628079D02*
X5029705Y-15666174D01*
X5029705Y-15666174D02*
X5029705Y-15713793D01*
X5029705Y-15713793D02*
X5020182Y-15751888D01*
X5020182Y-15751888D02*
X5010658Y-15770936D01*
X5010658Y-15770936D02*
X5001134Y-15780460D01*
X5001134Y-15780460D02*
X4982086Y-15789984D01*
X4982086Y-15789984D02*
X4963039Y-15789984D01*
X4963039Y-15789984D02*
X4943991Y-15780460D01*
X4943991Y-15780460D02*
X4934467Y-15770936D01*
X4934467Y-15770936D02*
X4924944Y-15751888D01*
X4924944Y-15751888D02*
X4915420Y-15713793D01*
X4915420Y-15713793D02*
X4915420Y-15666174D01*
X4915420Y-15666174D02*
X4924944Y-15628079D01*
X4924944Y-15628079D02*
X4934467Y-15609031D01*
X4934467Y-15609031D02*
X4943991Y-15599508D01*
X4943991Y-15599508D02*
X4963039Y-15589984D01*
X5115420Y-15789984D02*
X5115420Y-15656650D01*
X5115420Y-15675698D02*
X5124944Y-15666174D01*
X5124944Y-15666174D02*
X5143991Y-15656650D01*
X5143991Y-15656650D02*
X5172563Y-15656650D01*
X5172563Y-15656650D02*
X5191610Y-15666174D01*
X5191610Y-15666174D02*
X5201134Y-15685222D01*
X5201134Y-15685222D02*
X5201134Y-15789984D01*
X5201134Y-15685222D02*
X5210658Y-15666174D01*
X5210658Y-15666174D02*
X5229705Y-15656650D01*
X5229705Y-15656650D02*
X5258277Y-15656650D01*
X5258277Y-15656650D02*
X5277325Y-15666174D01*
X5277325Y-15666174D02*
X5286848Y-15685222D01*
X5286848Y-15685222D02*
X5286848Y-15789984D01*
X5382086Y-15789984D02*
X5382086Y-15656650D01*
X5382086Y-15675698D02*
X5391610Y-15666174D01*
X5391610Y-15666174D02*
X5410658Y-15656650D01*
X5410658Y-15656650D02*
X5439229Y-15656650D01*
X5439229Y-15656650D02*
X5458277Y-15666174D01*
X5458277Y-15666174D02*
X5467801Y-15685222D01*
X5467801Y-15685222D02*
X5467801Y-15789984D01*
X5467801Y-15685222D02*
X5477325Y-15666174D01*
X5477325Y-15666174D02*
X5496372Y-15656650D01*
X5496372Y-15656650D02*
X5524944Y-15656650D01*
X5524944Y-15656650D02*
X5543991Y-15666174D01*
X5543991Y-15666174D02*
X5553515Y-15685222D01*
X5553515Y-15685222D02*
X5553515Y-15789984D01*
X5943991Y-15580460D02*
X5772563Y-15837603D01*
X6201134Y-15589984D02*
X6220182Y-15589984D01*
X6220182Y-15589984D02*
X6239229Y-15599508D01*
X6239229Y-15599508D02*
X6248753Y-15609031D01*
X6248753Y-15609031D02*
X6258277Y-15628079D01*
X6258277Y-15628079D02*
X6267801Y-15666174D01*
X6267801Y-15666174D02*
X6267801Y-15713793D01*
X6267801Y-15713793D02*
X6258277Y-15751888D01*
X6258277Y-15751888D02*
X6248753Y-15770936D01*
X6248753Y-15770936D02*
X6239229Y-15780460D01*
X6239229Y-15780460D02*
X6220182Y-15789984D01*
X6220182Y-15789984D02*
X6201134Y-15789984D01*
X6201134Y-15789984D02*
X6182086Y-15780460D01*
X6182086Y-15780460D02*
X6172563Y-15770936D01*
X6172563Y-15770936D02*
X6163039Y-15751888D01*
X6163039Y-15751888D02*
X6153515Y-15713793D01*
X6153515Y-15713793D02*
X6153515Y-15666174D01*
X6153515Y-15666174D02*
X6163039Y-15628079D01*
X6163039Y-15628079D02*
X6172563Y-15609031D01*
X6172563Y-15609031D02*
X6182086Y-15599508D01*
X6182086Y-15599508D02*
X6201134Y-15589984D01*
X6353515Y-15770936D02*
X6363039Y-15780460D01*
X6363039Y-15780460D02*
X6353515Y-15789984D01*
X6353515Y-15789984D02*
X6343991Y-15780460D01*
X6343991Y-15780460D02*
X6353515Y-15770936D01*
X6353515Y-15770936D02*
X6353515Y-15789984D01*
X6486848Y-15589984D02*
X6505896Y-15589984D01*
X6505896Y-15589984D02*
X6524944Y-15599508D01*
X6524944Y-15599508D02*
X6534467Y-15609031D01*
X6534467Y-15609031D02*
X6543991Y-15628079D01*
X6543991Y-15628079D02*
X6553515Y-15666174D01*
X6553515Y-15666174D02*
X6553515Y-15713793D01*
X6553515Y-15713793D02*
X6543991Y-15751888D01*
X6543991Y-15751888D02*
X6534467Y-15770936D01*
X6534467Y-15770936D02*
X6524944Y-15780460D01*
X6524944Y-15780460D02*
X6505896Y-15789984D01*
X6505896Y-15789984D02*
X6486848Y-15789984D01*
X6486848Y-15789984D02*
X6467801Y-15780460D01*
X6467801Y-15780460D02*
X6458277Y-15770936D01*
X6458277Y-15770936D02*
X6448753Y-15751888D01*
X6448753Y-15751888D02*
X6439229Y-15713793D01*
X6439229Y-15713793D02*
X6439229Y-15666174D01*
X6439229Y-15666174D02*
X6448753Y-15628079D01*
X6448753Y-15628079D02*
X6458277Y-15609031D01*
X6458277Y-15609031D02*
X6467801Y-15599508D01*
X6467801Y-15599508D02*
X6486848Y-15589984D01*
X6734467Y-15589984D02*
X6639229Y-15589984D01*
X6639229Y-15589984D02*
X6629706Y-15685222D01*
X6629706Y-15685222D02*
X6639229Y-15675698D01*
X6639229Y-15675698D02*
X6658277Y-15666174D01*
X6658277Y-15666174D02*
X6705896Y-15666174D01*
X6705896Y-15666174D02*
X6724944Y-15675698D01*
X6724944Y-15675698D02*
X6734467Y-15685222D01*
X6734467Y-15685222D02*
X6743991Y-15704269D01*
X6743991Y-15704269D02*
X6743991Y-15751888D01*
X6743991Y-15751888D02*
X6734467Y-15770936D01*
X6734467Y-15770936D02*
X6724944Y-15780460D01*
X6724944Y-15780460D02*
X6705896Y-15789984D01*
X6705896Y-15789984D02*
X6658277Y-15789984D01*
X6658277Y-15789984D02*
X6639229Y-15780460D01*
X6639229Y-15780460D02*
X6629706Y-15770936D01*
X6839229Y-15789984D02*
X6877325Y-15789984D01*
X6877325Y-15789984D02*
X6896372Y-15780460D01*
X6896372Y-15780460D02*
X6905896Y-15770936D01*
X6905896Y-15770936D02*
X6924944Y-15742365D01*
X6924944Y-15742365D02*
X6934467Y-15704269D01*
X6934467Y-15704269D02*
X6934467Y-15628079D01*
X6934467Y-15628079D02*
X6924944Y-15609031D01*
X6924944Y-15609031D02*
X6915420Y-15599508D01*
X6915420Y-15599508D02*
X6896372Y-15589984D01*
X6896372Y-15589984D02*
X6858277Y-15589984D01*
X6858277Y-15589984D02*
X6839229Y-15599508D01*
X6839229Y-15599508D02*
X6829706Y-15609031D01*
X6829706Y-15609031D02*
X6820182Y-15628079D01*
X6820182Y-15628079D02*
X6820182Y-15675698D01*
X6820182Y-15675698D02*
X6829706Y-15694746D01*
X6829706Y-15694746D02*
X6839229Y-15704269D01*
X6839229Y-15704269D02*
X6858277Y-15713793D01*
X6858277Y-15713793D02*
X6896372Y-15713793D01*
X6896372Y-15713793D02*
X6915420Y-15704269D01*
X6915420Y-15704269D02*
X6924944Y-15694746D01*
X6924944Y-15694746D02*
X6934467Y-15675698D01*
X7124944Y-15789984D02*
X7010658Y-15789984D01*
X7067801Y-15789984D02*
X7067801Y-15589984D01*
X7067801Y-15589984D02*
X7048753Y-15618555D01*
X7048753Y-15618555D02*
X7029706Y-15637603D01*
X7029706Y-15637603D02*
X7010658Y-15647127D01*
X7201134Y-15589984D02*
X7201134Y-15628079D01*
X7277325Y-15589984D02*
X7277325Y-15628079D01*
X7572563Y-15866174D02*
X7563039Y-15856650D01*
X7563039Y-15856650D02*
X7543991Y-15828079D01*
X7543991Y-15828079D02*
X7534468Y-15809031D01*
X7534468Y-15809031D02*
X7524944Y-15780460D01*
X7524944Y-15780460D02*
X7515420Y-15732841D01*
X7515420Y-15732841D02*
X7515420Y-15694746D01*
X7515420Y-15694746D02*
X7524944Y-15647127D01*
X7524944Y-15647127D02*
X7534468Y-15618555D01*
X7534468Y-15618555D02*
X7543991Y-15599508D01*
X7543991Y-15599508D02*
X7563039Y-15570936D01*
X7563039Y-15570936D02*
X7572563Y-15561412D01*
X7639229Y-15609031D02*
X7648753Y-15599508D01*
X7648753Y-15599508D02*
X7667801Y-15589984D01*
X7667801Y-15589984D02*
X7715420Y-15589984D01*
X7715420Y-15589984D02*
X7734468Y-15599508D01*
X7734468Y-15599508D02*
X7743991Y-15609031D01*
X7743991Y-15609031D02*
X7753515Y-15628079D01*
X7753515Y-15628079D02*
X7753515Y-15647127D01*
X7753515Y-15647127D02*
X7743991Y-15675698D01*
X7743991Y-15675698D02*
X7629706Y-15789984D01*
X7629706Y-15789984D02*
X7753515Y-15789984D01*
X7991610Y-15789984D02*
X7991610Y-15589984D01*
X8077325Y-15789984D02*
X8077325Y-15685222D01*
X8077325Y-15685222D02*
X8067801Y-15666174D01*
X8067801Y-15666174D02*
X8048753Y-15656650D01*
X8048753Y-15656650D02*
X8020182Y-15656650D01*
X8020182Y-15656650D02*
X8001134Y-15666174D01*
X8001134Y-15666174D02*
X7991610Y-15675698D01*
X8201134Y-15789984D02*
X8182087Y-15780460D01*
X8182087Y-15780460D02*
X8172563Y-15770936D01*
X8172563Y-15770936D02*
X8163039Y-15751888D01*
X8163039Y-15751888D02*
X8163039Y-15694746D01*
X8163039Y-15694746D02*
X8172563Y-15675698D01*
X8172563Y-15675698D02*
X8182087Y-15666174D01*
X8182087Y-15666174D02*
X8201134Y-15656650D01*
X8201134Y-15656650D02*
X8229706Y-15656650D01*
X8229706Y-15656650D02*
X8248753Y-15666174D01*
X8248753Y-15666174D02*
X8258277Y-15675698D01*
X8258277Y-15675698D02*
X8267801Y-15694746D01*
X8267801Y-15694746D02*
X8267801Y-15751888D01*
X8267801Y-15751888D02*
X8258277Y-15770936D01*
X8258277Y-15770936D02*
X8248753Y-15780460D01*
X8248753Y-15780460D02*
X8229706Y-15789984D01*
X8229706Y-15789984D02*
X8201134Y-15789984D01*
X8382087Y-15789984D02*
X8363039Y-15780460D01*
X8363039Y-15780460D02*
X8353515Y-15761412D01*
X8353515Y-15761412D02*
X8353515Y-15589984D01*
X8534468Y-15780460D02*
X8515420Y-15789984D01*
X8515420Y-15789984D02*
X8477325Y-15789984D01*
X8477325Y-15789984D02*
X8458277Y-15780460D01*
X8458277Y-15780460D02*
X8448753Y-15761412D01*
X8448753Y-15761412D02*
X8448753Y-15685222D01*
X8448753Y-15685222D02*
X8458277Y-15666174D01*
X8458277Y-15666174D02*
X8477325Y-15656650D01*
X8477325Y-15656650D02*
X8515420Y-15656650D01*
X8515420Y-15656650D02*
X8534468Y-15666174D01*
X8534468Y-15666174D02*
X8543992Y-15685222D01*
X8543992Y-15685222D02*
X8543992Y-15704269D01*
X8543992Y-15704269D02*
X8448753Y-15723317D01*
X8620182Y-15780460D02*
X8639230Y-15789984D01*
X8639230Y-15789984D02*
X8677325Y-15789984D01*
X8677325Y-15789984D02*
X8696373Y-15780460D01*
X8696373Y-15780460D02*
X8705896Y-15761412D01*
X8705896Y-15761412D02*
X8705896Y-15751888D01*
X8705896Y-15751888D02*
X8696373Y-15732841D01*
X8696373Y-15732841D02*
X8677325Y-15723317D01*
X8677325Y-15723317D02*
X8648753Y-15723317D01*
X8648753Y-15723317D02*
X8629706Y-15713793D01*
X8629706Y-15713793D02*
X8620182Y-15694746D01*
X8620182Y-15694746D02*
X8620182Y-15685222D01*
X8620182Y-15685222D02*
X8629706Y-15666174D01*
X8629706Y-15666174D02*
X8648753Y-15656650D01*
X8648753Y-15656650D02*
X8677325Y-15656650D01*
X8677325Y-15656650D02*
X8696373Y-15666174D01*
X8772563Y-15866174D02*
X8782087Y-15856650D01*
X8782087Y-15856650D02*
X8801134Y-15828079D01*
X8801134Y-15828079D02*
X8810658Y-15809031D01*
X8810658Y-15809031D02*
X8820182Y-15780460D01*
X8820182Y-15780460D02*
X8829706Y-15732841D01*
X8829706Y-15732841D02*
X8829706Y-15694746D01*
X8829706Y-15694746D02*
X8820182Y-15647127D01*
X8820182Y-15647127D02*
X8810658Y-15618555D01*
X8810658Y-15618555D02*
X8801134Y-15599508D01*
X8801134Y-15599508D02*
X8782087Y-15570936D01*
X8782087Y-15570936D02*
X8772563Y-15561412D01*
D17*
X3837500Y-15888500D02*
X3997500Y-16048500D01*
X3997500Y-15888500D02*
X3837500Y-16048500D01*
X3997500Y-15968500D02*
G75*
G03*
X3997500Y-15968500I-80000J0D01*
G01*
D11*
X4363039Y-16059984D02*
X4248753Y-16059984D01*
X4305896Y-16059984D02*
X4305896Y-15859984D01*
X4305896Y-15859984D02*
X4286848Y-15888555D01*
X4286848Y-15888555D02*
X4267801Y-15907603D01*
X4267801Y-15907603D02*
X4248753Y-15917127D01*
X4448753Y-16040936D02*
X4458277Y-16050460D01*
X4458277Y-16050460D02*
X4448753Y-16059984D01*
X4448753Y-16059984D02*
X4439229Y-16050460D01*
X4439229Y-16050460D02*
X4448753Y-16040936D01*
X4448753Y-16040936D02*
X4448753Y-16059984D01*
X4629705Y-15859984D02*
X4591610Y-15859984D01*
X4591610Y-15859984D02*
X4572563Y-15869508D01*
X4572563Y-15869508D02*
X4563039Y-15879031D01*
X4563039Y-15879031D02*
X4543991Y-15907603D01*
X4543991Y-15907603D02*
X4534467Y-15945698D01*
X4534467Y-15945698D02*
X4534467Y-16021888D01*
X4534467Y-16021888D02*
X4543991Y-16040936D01*
X4543991Y-16040936D02*
X4553515Y-16050460D01*
X4553515Y-16050460D02*
X4572563Y-16059984D01*
X4572563Y-16059984D02*
X4610658Y-16059984D01*
X4610658Y-16059984D02*
X4629705Y-16050460D01*
X4629705Y-16050460D02*
X4639229Y-16040936D01*
X4639229Y-16040936D02*
X4648753Y-16021888D01*
X4648753Y-16021888D02*
X4648753Y-15974269D01*
X4648753Y-15974269D02*
X4639229Y-15955222D01*
X4639229Y-15955222D02*
X4629705Y-15945698D01*
X4629705Y-15945698D02*
X4610658Y-15936174D01*
X4610658Y-15936174D02*
X4572563Y-15936174D01*
X4572563Y-15936174D02*
X4553515Y-15945698D01*
X4553515Y-15945698D02*
X4543991Y-15955222D01*
X4543991Y-15955222D02*
X4534467Y-15974269D01*
X4772563Y-15859984D02*
X4791610Y-15859984D01*
X4791610Y-15859984D02*
X4810658Y-15869508D01*
X4810658Y-15869508D02*
X4820182Y-15879031D01*
X4820182Y-15879031D02*
X4829705Y-15898079D01*
X4829705Y-15898079D02*
X4839229Y-15936174D01*
X4839229Y-15936174D02*
X4839229Y-15983793D01*
X4839229Y-15983793D02*
X4829705Y-16021888D01*
X4829705Y-16021888D02*
X4820182Y-16040936D01*
X4820182Y-16040936D02*
X4810658Y-16050460D01*
X4810658Y-16050460D02*
X4791610Y-16059984D01*
X4791610Y-16059984D02*
X4772563Y-16059984D01*
X4772563Y-16059984D02*
X4753515Y-16050460D01*
X4753515Y-16050460D02*
X4743991Y-16040936D01*
X4743991Y-16040936D02*
X4734467Y-16021888D01*
X4734467Y-16021888D02*
X4724944Y-15983793D01*
X4724944Y-15983793D02*
X4724944Y-15936174D01*
X4724944Y-15936174D02*
X4734467Y-15898079D01*
X4734467Y-15898079D02*
X4743991Y-15879031D01*
X4743991Y-15879031D02*
X4753515Y-15869508D01*
X4753515Y-15869508D02*
X4772563Y-15859984D01*
X4963039Y-15859984D02*
X4982086Y-15859984D01*
X4982086Y-15859984D02*
X5001134Y-15869508D01*
X5001134Y-15869508D02*
X5010658Y-15879031D01*
X5010658Y-15879031D02*
X5020182Y-15898079D01*
X5020182Y-15898079D02*
X5029705Y-15936174D01*
X5029705Y-15936174D02*
X5029705Y-15983793D01*
X5029705Y-15983793D02*
X5020182Y-16021888D01*
X5020182Y-16021888D02*
X5010658Y-16040936D01*
X5010658Y-16040936D02*
X5001134Y-16050460D01*
X5001134Y-16050460D02*
X4982086Y-16059984D01*
X4982086Y-16059984D02*
X4963039Y-16059984D01*
X4963039Y-16059984D02*
X4943991Y-16050460D01*
X4943991Y-16050460D02*
X4934467Y-16040936D01*
X4934467Y-16040936D02*
X4924944Y-16021888D01*
X4924944Y-16021888D02*
X4915420Y-15983793D01*
X4915420Y-15983793D02*
X4915420Y-15936174D01*
X4915420Y-15936174D02*
X4924944Y-15898079D01*
X4924944Y-15898079D02*
X4934467Y-15879031D01*
X4934467Y-15879031D02*
X4943991Y-15869508D01*
X4943991Y-15869508D02*
X4963039Y-15859984D01*
X5115420Y-16059984D02*
X5115420Y-15926650D01*
X5115420Y-15945698D02*
X5124944Y-15936174D01*
X5124944Y-15936174D02*
X5143991Y-15926650D01*
X5143991Y-15926650D02*
X5172563Y-15926650D01*
X5172563Y-15926650D02*
X5191610Y-15936174D01*
X5191610Y-15936174D02*
X5201134Y-15955222D01*
X5201134Y-15955222D02*
X5201134Y-16059984D01*
X5201134Y-15955222D02*
X5210658Y-15936174D01*
X5210658Y-15936174D02*
X5229705Y-15926650D01*
X5229705Y-15926650D02*
X5258277Y-15926650D01*
X5258277Y-15926650D02*
X5277325Y-15936174D01*
X5277325Y-15936174D02*
X5286848Y-15955222D01*
X5286848Y-15955222D02*
X5286848Y-16059984D01*
X5382086Y-16059984D02*
X5382086Y-15926650D01*
X5382086Y-15945698D02*
X5391610Y-15936174D01*
X5391610Y-15936174D02*
X5410658Y-15926650D01*
X5410658Y-15926650D02*
X5439229Y-15926650D01*
X5439229Y-15926650D02*
X5458277Y-15936174D01*
X5458277Y-15936174D02*
X5467801Y-15955222D01*
X5467801Y-15955222D02*
X5467801Y-16059984D01*
X5467801Y-15955222D02*
X5477325Y-15936174D01*
X5477325Y-15936174D02*
X5496372Y-15926650D01*
X5496372Y-15926650D02*
X5524944Y-15926650D01*
X5524944Y-15926650D02*
X5543991Y-15936174D01*
X5543991Y-15936174D02*
X5553515Y-15955222D01*
X5553515Y-15955222D02*
X5553515Y-16059984D01*
X5943991Y-15850460D02*
X5772563Y-16107603D01*
X6201134Y-15859984D02*
X6220182Y-15859984D01*
X6220182Y-15859984D02*
X6239229Y-15869508D01*
X6239229Y-15869508D02*
X6248753Y-15879031D01*
X6248753Y-15879031D02*
X6258277Y-15898079D01*
X6258277Y-15898079D02*
X6267801Y-15936174D01*
X6267801Y-15936174D02*
X6267801Y-15983793D01*
X6267801Y-15983793D02*
X6258277Y-16021888D01*
X6258277Y-16021888D02*
X6248753Y-16040936D01*
X6248753Y-16040936D02*
X6239229Y-16050460D01*
X6239229Y-16050460D02*
X6220182Y-16059984D01*
X6220182Y-16059984D02*
X6201134Y-16059984D01*
X6201134Y-16059984D02*
X6182086Y-16050460D01*
X6182086Y-16050460D02*
X6172563Y-16040936D01*
X6172563Y-16040936D02*
X6163039Y-16021888D01*
X6163039Y-16021888D02*
X6153515Y-15983793D01*
X6153515Y-15983793D02*
X6153515Y-15936174D01*
X6153515Y-15936174D02*
X6163039Y-15898079D01*
X6163039Y-15898079D02*
X6172563Y-15879031D01*
X6172563Y-15879031D02*
X6182086Y-15869508D01*
X6182086Y-15869508D02*
X6201134Y-15859984D01*
X6353515Y-16040936D02*
X6363039Y-16050460D01*
X6363039Y-16050460D02*
X6353515Y-16059984D01*
X6353515Y-16059984D02*
X6343991Y-16050460D01*
X6343991Y-16050460D02*
X6353515Y-16040936D01*
X6353515Y-16040936D02*
X6353515Y-16059984D01*
X6486848Y-15859984D02*
X6505896Y-15859984D01*
X6505896Y-15859984D02*
X6524944Y-15869508D01*
X6524944Y-15869508D02*
X6534467Y-15879031D01*
X6534467Y-15879031D02*
X6543991Y-15898079D01*
X6543991Y-15898079D02*
X6553515Y-15936174D01*
X6553515Y-15936174D02*
X6553515Y-15983793D01*
X6553515Y-15983793D02*
X6543991Y-16021888D01*
X6543991Y-16021888D02*
X6534467Y-16040936D01*
X6534467Y-16040936D02*
X6524944Y-16050460D01*
X6524944Y-16050460D02*
X6505896Y-16059984D01*
X6505896Y-16059984D02*
X6486848Y-16059984D01*
X6486848Y-16059984D02*
X6467801Y-16050460D01*
X6467801Y-16050460D02*
X6458277Y-16040936D01*
X6458277Y-16040936D02*
X6448753Y-16021888D01*
X6448753Y-16021888D02*
X6439229Y-15983793D01*
X6439229Y-15983793D02*
X6439229Y-15936174D01*
X6439229Y-15936174D02*
X6448753Y-15898079D01*
X6448753Y-15898079D02*
X6458277Y-15879031D01*
X6458277Y-15879031D02*
X6467801Y-15869508D01*
X6467801Y-15869508D02*
X6486848Y-15859984D01*
X6724944Y-15859984D02*
X6686848Y-15859984D01*
X6686848Y-15859984D02*
X6667801Y-15869508D01*
X6667801Y-15869508D02*
X6658277Y-15879031D01*
X6658277Y-15879031D02*
X6639229Y-15907603D01*
X6639229Y-15907603D02*
X6629706Y-15945698D01*
X6629706Y-15945698D02*
X6629706Y-16021888D01*
X6629706Y-16021888D02*
X6639229Y-16040936D01*
X6639229Y-16040936D02*
X6648753Y-16050460D01*
X6648753Y-16050460D02*
X6667801Y-16059984D01*
X6667801Y-16059984D02*
X6705896Y-16059984D01*
X6705896Y-16059984D02*
X6724944Y-16050460D01*
X6724944Y-16050460D02*
X6734467Y-16040936D01*
X6734467Y-16040936D02*
X6743991Y-16021888D01*
X6743991Y-16021888D02*
X6743991Y-15974269D01*
X6743991Y-15974269D02*
X6734467Y-15955222D01*
X6734467Y-15955222D02*
X6724944Y-15945698D01*
X6724944Y-15945698D02*
X6705896Y-15936174D01*
X6705896Y-15936174D02*
X6667801Y-15936174D01*
X6667801Y-15936174D02*
X6648753Y-15945698D01*
X6648753Y-15945698D02*
X6639229Y-15955222D01*
X6639229Y-15955222D02*
X6629706Y-15974269D01*
X6810658Y-15859984D02*
X6934467Y-15859984D01*
X6934467Y-15859984D02*
X6867801Y-15936174D01*
X6867801Y-15936174D02*
X6896372Y-15936174D01*
X6896372Y-15936174D02*
X6915420Y-15945698D01*
X6915420Y-15945698D02*
X6924944Y-15955222D01*
X6924944Y-15955222D02*
X6934467Y-15974269D01*
X6934467Y-15974269D02*
X6934467Y-16021888D01*
X6934467Y-16021888D02*
X6924944Y-16040936D01*
X6924944Y-16040936D02*
X6915420Y-16050460D01*
X6915420Y-16050460D02*
X6896372Y-16059984D01*
X6896372Y-16059984D02*
X6839229Y-16059984D01*
X6839229Y-16059984D02*
X6820182Y-16050460D01*
X6820182Y-16050460D02*
X6810658Y-16040936D01*
X7058277Y-15859984D02*
X7077325Y-15859984D01*
X7077325Y-15859984D02*
X7096372Y-15869508D01*
X7096372Y-15869508D02*
X7105896Y-15879031D01*
X7105896Y-15879031D02*
X7115420Y-15898079D01*
X7115420Y-15898079D02*
X7124944Y-15936174D01*
X7124944Y-15936174D02*
X7124944Y-15983793D01*
X7124944Y-15983793D02*
X7115420Y-16021888D01*
X7115420Y-16021888D02*
X7105896Y-16040936D01*
X7105896Y-16040936D02*
X7096372Y-16050460D01*
X7096372Y-16050460D02*
X7077325Y-16059984D01*
X7077325Y-16059984D02*
X7058277Y-16059984D01*
X7058277Y-16059984D02*
X7039229Y-16050460D01*
X7039229Y-16050460D02*
X7029706Y-16040936D01*
X7029706Y-16040936D02*
X7020182Y-16021888D01*
X7020182Y-16021888D02*
X7010658Y-15983793D01*
X7010658Y-15983793D02*
X7010658Y-15936174D01*
X7010658Y-15936174D02*
X7020182Y-15898079D01*
X7020182Y-15898079D02*
X7029706Y-15879031D01*
X7029706Y-15879031D02*
X7039229Y-15869508D01*
X7039229Y-15869508D02*
X7058277Y-15859984D01*
X7201134Y-15859984D02*
X7201134Y-15898079D01*
X7277325Y-15859984D02*
X7277325Y-15898079D01*
X7572563Y-16136174D02*
X7563039Y-16126650D01*
X7563039Y-16126650D02*
X7543991Y-16098079D01*
X7543991Y-16098079D02*
X7534468Y-16079031D01*
X7534468Y-16079031D02*
X7524944Y-16050460D01*
X7524944Y-16050460D02*
X7515420Y-16002841D01*
X7515420Y-16002841D02*
X7515420Y-15964746D01*
X7515420Y-15964746D02*
X7524944Y-15917127D01*
X7524944Y-15917127D02*
X7534468Y-15888555D01*
X7534468Y-15888555D02*
X7543991Y-15869508D01*
X7543991Y-15869508D02*
X7563039Y-15840936D01*
X7563039Y-15840936D02*
X7572563Y-15831412D01*
X7629706Y-15859984D02*
X7753515Y-15859984D01*
X7753515Y-15859984D02*
X7686848Y-15936174D01*
X7686848Y-15936174D02*
X7715420Y-15936174D01*
X7715420Y-15936174D02*
X7734468Y-15945698D01*
X7734468Y-15945698D02*
X7743991Y-15955222D01*
X7743991Y-15955222D02*
X7753515Y-15974269D01*
X7753515Y-15974269D02*
X7753515Y-16021888D01*
X7753515Y-16021888D02*
X7743991Y-16040936D01*
X7743991Y-16040936D02*
X7734468Y-16050460D01*
X7734468Y-16050460D02*
X7715420Y-16059984D01*
X7715420Y-16059984D02*
X7658277Y-16059984D01*
X7658277Y-16059984D02*
X7639229Y-16050460D01*
X7639229Y-16050460D02*
X7629706Y-16040936D01*
X7991610Y-16059984D02*
X7991610Y-15859984D01*
X8077325Y-16059984D02*
X8077325Y-15955222D01*
X8077325Y-15955222D02*
X8067801Y-15936174D01*
X8067801Y-15936174D02*
X8048753Y-15926650D01*
X8048753Y-15926650D02*
X8020182Y-15926650D01*
X8020182Y-15926650D02*
X8001134Y-15936174D01*
X8001134Y-15936174D02*
X7991610Y-15945698D01*
X8201134Y-16059984D02*
X8182087Y-16050460D01*
X8182087Y-16050460D02*
X8172563Y-16040936D01*
X8172563Y-16040936D02*
X8163039Y-16021888D01*
X8163039Y-16021888D02*
X8163039Y-15964746D01*
X8163039Y-15964746D02*
X8172563Y-15945698D01*
X8172563Y-15945698D02*
X8182087Y-15936174D01*
X8182087Y-15936174D02*
X8201134Y-15926650D01*
X8201134Y-15926650D02*
X8229706Y-15926650D01*
X8229706Y-15926650D02*
X8248753Y-15936174D01*
X8248753Y-15936174D02*
X8258277Y-15945698D01*
X8258277Y-15945698D02*
X8267801Y-15964746D01*
X8267801Y-15964746D02*
X8267801Y-16021888D01*
X8267801Y-16021888D02*
X8258277Y-16040936D01*
X8258277Y-16040936D02*
X8248753Y-16050460D01*
X8248753Y-16050460D02*
X8229706Y-16059984D01*
X8229706Y-16059984D02*
X8201134Y-16059984D01*
X8382087Y-16059984D02*
X8363039Y-16050460D01*
X8363039Y-16050460D02*
X8353515Y-16031412D01*
X8353515Y-16031412D02*
X8353515Y-15859984D01*
X8534468Y-16050460D02*
X8515420Y-16059984D01*
X8515420Y-16059984D02*
X8477325Y-16059984D01*
X8477325Y-16059984D02*
X8458277Y-16050460D01*
X8458277Y-16050460D02*
X8448753Y-16031412D01*
X8448753Y-16031412D02*
X8448753Y-15955222D01*
X8448753Y-15955222D02*
X8458277Y-15936174D01*
X8458277Y-15936174D02*
X8477325Y-15926650D01*
X8477325Y-15926650D02*
X8515420Y-15926650D01*
X8515420Y-15926650D02*
X8534468Y-15936174D01*
X8534468Y-15936174D02*
X8543992Y-15955222D01*
X8543992Y-15955222D02*
X8543992Y-15974269D01*
X8543992Y-15974269D02*
X8448753Y-15993317D01*
X8620182Y-16050460D02*
X8639230Y-16059984D01*
X8639230Y-16059984D02*
X8677325Y-16059984D01*
X8677325Y-16059984D02*
X8696373Y-16050460D01*
X8696373Y-16050460D02*
X8705896Y-16031412D01*
X8705896Y-16031412D02*
X8705896Y-16021888D01*
X8705896Y-16021888D02*
X8696373Y-16002841D01*
X8696373Y-16002841D02*
X8677325Y-15993317D01*
X8677325Y-15993317D02*
X8648753Y-15993317D01*
X8648753Y-15993317D02*
X8629706Y-15983793D01*
X8629706Y-15983793D02*
X8620182Y-15964746D01*
X8620182Y-15964746D02*
X8620182Y-15955222D01*
X8620182Y-15955222D02*
X8629706Y-15936174D01*
X8629706Y-15936174D02*
X8648753Y-15926650D01*
X8648753Y-15926650D02*
X8677325Y-15926650D01*
X8677325Y-15926650D02*
X8696373Y-15936174D01*
X8772563Y-16136174D02*
X8782087Y-16126650D01*
X8782087Y-16126650D02*
X8801134Y-16098079D01*
X8801134Y-16098079D02*
X8810658Y-16079031D01*
X8810658Y-16079031D02*
X8820182Y-16050460D01*
X8820182Y-16050460D02*
X8829706Y-16002841D01*
X8829706Y-16002841D02*
X8829706Y-15964746D01*
X8829706Y-15964746D02*
X8820182Y-15917127D01*
X8820182Y-15917127D02*
X8810658Y-15888555D01*
X8810658Y-15888555D02*
X8801134Y-15869508D01*
X8801134Y-15869508D02*
X8782087Y-15840936D01*
X8782087Y-15840936D02*
X8772563Y-15831412D01*
D18*
X3817500Y-16158500D02*
X3997500Y-16338500D01*
X3997500Y-16158500D02*
X3817500Y-16338500D01*
X3907500Y-16158500D02*
X3907500Y-16338500D01*
X3817500Y-16248500D02*
X3997500Y-16248500D01*
D11*
X4363039Y-16339984D02*
X4248753Y-16339984D01*
X4305896Y-16339984D02*
X4305896Y-16139984D01*
X4305896Y-16139984D02*
X4286848Y-16168555D01*
X4286848Y-16168555D02*
X4267801Y-16187603D01*
X4267801Y-16187603D02*
X4248753Y-16197127D01*
X4448753Y-16320936D02*
X4458277Y-16330460D01*
X4458277Y-16330460D02*
X4448753Y-16339984D01*
X4448753Y-16339984D02*
X4439229Y-16330460D01*
X4439229Y-16330460D02*
X4448753Y-16320936D01*
X4448753Y-16320936D02*
X4448753Y-16339984D01*
X4572563Y-16225698D02*
X4553515Y-16216174D01*
X4553515Y-16216174D02*
X4543991Y-16206650D01*
X4543991Y-16206650D02*
X4534467Y-16187603D01*
X4534467Y-16187603D02*
X4534467Y-16178079D01*
X4534467Y-16178079D02*
X4543991Y-16159031D01*
X4543991Y-16159031D02*
X4553515Y-16149508D01*
X4553515Y-16149508D02*
X4572563Y-16139984D01*
X4572563Y-16139984D02*
X4610658Y-16139984D01*
X4610658Y-16139984D02*
X4629705Y-16149508D01*
X4629705Y-16149508D02*
X4639229Y-16159031D01*
X4639229Y-16159031D02*
X4648753Y-16178079D01*
X4648753Y-16178079D02*
X4648753Y-16187603D01*
X4648753Y-16187603D02*
X4639229Y-16206650D01*
X4639229Y-16206650D02*
X4629705Y-16216174D01*
X4629705Y-16216174D02*
X4610658Y-16225698D01*
X4610658Y-16225698D02*
X4572563Y-16225698D01*
X4572563Y-16225698D02*
X4553515Y-16235222D01*
X4553515Y-16235222D02*
X4543991Y-16244746D01*
X4543991Y-16244746D02*
X4534467Y-16263793D01*
X4534467Y-16263793D02*
X4534467Y-16301888D01*
X4534467Y-16301888D02*
X4543991Y-16320936D01*
X4543991Y-16320936D02*
X4553515Y-16330460D01*
X4553515Y-16330460D02*
X4572563Y-16339984D01*
X4572563Y-16339984D02*
X4610658Y-16339984D01*
X4610658Y-16339984D02*
X4629705Y-16330460D01*
X4629705Y-16330460D02*
X4639229Y-16320936D01*
X4639229Y-16320936D02*
X4648753Y-16301888D01*
X4648753Y-16301888D02*
X4648753Y-16263793D01*
X4648753Y-16263793D02*
X4639229Y-16244746D01*
X4639229Y-16244746D02*
X4629705Y-16235222D01*
X4629705Y-16235222D02*
X4610658Y-16225698D01*
X4772563Y-16139984D02*
X4791610Y-16139984D01*
X4791610Y-16139984D02*
X4810658Y-16149508D01*
X4810658Y-16149508D02*
X4820182Y-16159031D01*
X4820182Y-16159031D02*
X4829705Y-16178079D01*
X4829705Y-16178079D02*
X4839229Y-16216174D01*
X4839229Y-16216174D02*
X4839229Y-16263793D01*
X4839229Y-16263793D02*
X4829705Y-16301888D01*
X4829705Y-16301888D02*
X4820182Y-16320936D01*
X4820182Y-16320936D02*
X4810658Y-16330460D01*
X4810658Y-16330460D02*
X4791610Y-16339984D01*
X4791610Y-16339984D02*
X4772563Y-16339984D01*
X4772563Y-16339984D02*
X4753515Y-16330460D01*
X4753515Y-16330460D02*
X4743991Y-16320936D01*
X4743991Y-16320936D02*
X4734467Y-16301888D01*
X4734467Y-16301888D02*
X4724944Y-16263793D01*
X4724944Y-16263793D02*
X4724944Y-16216174D01*
X4724944Y-16216174D02*
X4734467Y-16178079D01*
X4734467Y-16178079D02*
X4743991Y-16159031D01*
X4743991Y-16159031D02*
X4753515Y-16149508D01*
X4753515Y-16149508D02*
X4772563Y-16139984D01*
X4963039Y-16139984D02*
X4982086Y-16139984D01*
X4982086Y-16139984D02*
X5001134Y-16149508D01*
X5001134Y-16149508D02*
X5010658Y-16159031D01*
X5010658Y-16159031D02*
X5020182Y-16178079D01*
X5020182Y-16178079D02*
X5029705Y-16216174D01*
X5029705Y-16216174D02*
X5029705Y-16263793D01*
X5029705Y-16263793D02*
X5020182Y-16301888D01*
X5020182Y-16301888D02*
X5010658Y-16320936D01*
X5010658Y-16320936D02*
X5001134Y-16330460D01*
X5001134Y-16330460D02*
X4982086Y-16339984D01*
X4982086Y-16339984D02*
X4963039Y-16339984D01*
X4963039Y-16339984D02*
X4943991Y-16330460D01*
X4943991Y-16330460D02*
X4934467Y-16320936D01*
X4934467Y-16320936D02*
X4924944Y-16301888D01*
X4924944Y-16301888D02*
X4915420Y-16263793D01*
X4915420Y-16263793D02*
X4915420Y-16216174D01*
X4915420Y-16216174D02*
X4924944Y-16178079D01*
X4924944Y-16178079D02*
X4934467Y-16159031D01*
X4934467Y-16159031D02*
X4943991Y-16149508D01*
X4943991Y-16149508D02*
X4963039Y-16139984D01*
X5115420Y-16339984D02*
X5115420Y-16206650D01*
X5115420Y-16225698D02*
X5124944Y-16216174D01*
X5124944Y-16216174D02*
X5143991Y-16206650D01*
X5143991Y-16206650D02*
X5172563Y-16206650D01*
X5172563Y-16206650D02*
X5191610Y-16216174D01*
X5191610Y-16216174D02*
X5201134Y-16235222D01*
X5201134Y-16235222D02*
X5201134Y-16339984D01*
X5201134Y-16235222D02*
X5210658Y-16216174D01*
X5210658Y-16216174D02*
X5229705Y-16206650D01*
X5229705Y-16206650D02*
X5258277Y-16206650D01*
X5258277Y-16206650D02*
X5277325Y-16216174D01*
X5277325Y-16216174D02*
X5286848Y-16235222D01*
X5286848Y-16235222D02*
X5286848Y-16339984D01*
X5382086Y-16339984D02*
X5382086Y-16206650D01*
X5382086Y-16225698D02*
X5391610Y-16216174D01*
X5391610Y-16216174D02*
X5410658Y-16206650D01*
X5410658Y-16206650D02*
X5439229Y-16206650D01*
X5439229Y-16206650D02*
X5458277Y-16216174D01*
X5458277Y-16216174D02*
X5467801Y-16235222D01*
X5467801Y-16235222D02*
X5467801Y-16339984D01*
X5467801Y-16235222D02*
X5477325Y-16216174D01*
X5477325Y-16216174D02*
X5496372Y-16206650D01*
X5496372Y-16206650D02*
X5524944Y-16206650D01*
X5524944Y-16206650D02*
X5543991Y-16216174D01*
X5543991Y-16216174D02*
X5553515Y-16235222D01*
X5553515Y-16235222D02*
X5553515Y-16339984D01*
X5943991Y-16130460D02*
X5772563Y-16387603D01*
X6201134Y-16139984D02*
X6220182Y-16139984D01*
X6220182Y-16139984D02*
X6239229Y-16149508D01*
X6239229Y-16149508D02*
X6248753Y-16159031D01*
X6248753Y-16159031D02*
X6258277Y-16178079D01*
X6258277Y-16178079D02*
X6267801Y-16216174D01*
X6267801Y-16216174D02*
X6267801Y-16263793D01*
X6267801Y-16263793D02*
X6258277Y-16301888D01*
X6258277Y-16301888D02*
X6248753Y-16320936D01*
X6248753Y-16320936D02*
X6239229Y-16330460D01*
X6239229Y-16330460D02*
X6220182Y-16339984D01*
X6220182Y-16339984D02*
X6201134Y-16339984D01*
X6201134Y-16339984D02*
X6182086Y-16330460D01*
X6182086Y-16330460D02*
X6172563Y-16320936D01*
X6172563Y-16320936D02*
X6163039Y-16301888D01*
X6163039Y-16301888D02*
X6153515Y-16263793D01*
X6153515Y-16263793D02*
X6153515Y-16216174D01*
X6153515Y-16216174D02*
X6163039Y-16178079D01*
X6163039Y-16178079D02*
X6172563Y-16159031D01*
X6172563Y-16159031D02*
X6182086Y-16149508D01*
X6182086Y-16149508D02*
X6201134Y-16139984D01*
X6353515Y-16320936D02*
X6363039Y-16330460D01*
X6363039Y-16330460D02*
X6353515Y-16339984D01*
X6353515Y-16339984D02*
X6343991Y-16330460D01*
X6343991Y-16330460D02*
X6353515Y-16320936D01*
X6353515Y-16320936D02*
X6353515Y-16339984D01*
X6486848Y-16139984D02*
X6505896Y-16139984D01*
X6505896Y-16139984D02*
X6524944Y-16149508D01*
X6524944Y-16149508D02*
X6534467Y-16159031D01*
X6534467Y-16159031D02*
X6543991Y-16178079D01*
X6543991Y-16178079D02*
X6553515Y-16216174D01*
X6553515Y-16216174D02*
X6553515Y-16263793D01*
X6553515Y-16263793D02*
X6543991Y-16301888D01*
X6543991Y-16301888D02*
X6534467Y-16320936D01*
X6534467Y-16320936D02*
X6524944Y-16330460D01*
X6524944Y-16330460D02*
X6505896Y-16339984D01*
X6505896Y-16339984D02*
X6486848Y-16339984D01*
X6486848Y-16339984D02*
X6467801Y-16330460D01*
X6467801Y-16330460D02*
X6458277Y-16320936D01*
X6458277Y-16320936D02*
X6448753Y-16301888D01*
X6448753Y-16301888D02*
X6439229Y-16263793D01*
X6439229Y-16263793D02*
X6439229Y-16216174D01*
X6439229Y-16216174D02*
X6448753Y-16178079D01*
X6448753Y-16178079D02*
X6458277Y-16159031D01*
X6458277Y-16159031D02*
X6467801Y-16149508D01*
X6467801Y-16149508D02*
X6486848Y-16139984D01*
X6620182Y-16139984D02*
X6753515Y-16139984D01*
X6753515Y-16139984D02*
X6667801Y-16339984D01*
X6867801Y-16139984D02*
X6886848Y-16139984D01*
X6886848Y-16139984D02*
X6905896Y-16149508D01*
X6905896Y-16149508D02*
X6915420Y-16159031D01*
X6915420Y-16159031D02*
X6924944Y-16178079D01*
X6924944Y-16178079D02*
X6934467Y-16216174D01*
X6934467Y-16216174D02*
X6934467Y-16263793D01*
X6934467Y-16263793D02*
X6924944Y-16301888D01*
X6924944Y-16301888D02*
X6915420Y-16320936D01*
X6915420Y-16320936D02*
X6905896Y-16330460D01*
X6905896Y-16330460D02*
X6886848Y-16339984D01*
X6886848Y-16339984D02*
X6867801Y-16339984D01*
X6867801Y-16339984D02*
X6848753Y-16330460D01*
X6848753Y-16330460D02*
X6839229Y-16320936D01*
X6839229Y-16320936D02*
X6829706Y-16301888D01*
X6829706Y-16301888D02*
X6820182Y-16263793D01*
X6820182Y-16263793D02*
X6820182Y-16216174D01*
X6820182Y-16216174D02*
X6829706Y-16178079D01*
X6829706Y-16178079D02*
X6839229Y-16159031D01*
X6839229Y-16159031D02*
X6848753Y-16149508D01*
X6848753Y-16149508D02*
X6867801Y-16139984D01*
X7029706Y-16339984D02*
X7067801Y-16339984D01*
X7067801Y-16339984D02*
X7086848Y-16330460D01*
X7086848Y-16330460D02*
X7096372Y-16320936D01*
X7096372Y-16320936D02*
X7115420Y-16292365D01*
X7115420Y-16292365D02*
X7124944Y-16254269D01*
X7124944Y-16254269D02*
X7124944Y-16178079D01*
X7124944Y-16178079D02*
X7115420Y-16159031D01*
X7115420Y-16159031D02*
X7105896Y-16149508D01*
X7105896Y-16149508D02*
X7086848Y-16139984D01*
X7086848Y-16139984D02*
X7048753Y-16139984D01*
X7048753Y-16139984D02*
X7029706Y-16149508D01*
X7029706Y-16149508D02*
X7020182Y-16159031D01*
X7020182Y-16159031D02*
X7010658Y-16178079D01*
X7010658Y-16178079D02*
X7010658Y-16225698D01*
X7010658Y-16225698D02*
X7020182Y-16244746D01*
X7020182Y-16244746D02*
X7029706Y-16254269D01*
X7029706Y-16254269D02*
X7048753Y-16263793D01*
X7048753Y-16263793D02*
X7086848Y-16263793D01*
X7086848Y-16263793D02*
X7105896Y-16254269D01*
X7105896Y-16254269D02*
X7115420Y-16244746D01*
X7115420Y-16244746D02*
X7124944Y-16225698D01*
X7201134Y-16139984D02*
X7201134Y-16178079D01*
X7277325Y-16139984D02*
X7277325Y-16178079D01*
X7572563Y-16416174D02*
X7563039Y-16406650D01*
X7563039Y-16406650D02*
X7543991Y-16378079D01*
X7543991Y-16378079D02*
X7534468Y-16359031D01*
X7534468Y-16359031D02*
X7524944Y-16330460D01*
X7524944Y-16330460D02*
X7515420Y-16282841D01*
X7515420Y-16282841D02*
X7515420Y-16244746D01*
X7515420Y-16244746D02*
X7524944Y-16197127D01*
X7524944Y-16197127D02*
X7534468Y-16168555D01*
X7534468Y-16168555D02*
X7543991Y-16149508D01*
X7543991Y-16149508D02*
X7563039Y-16120936D01*
X7563039Y-16120936D02*
X7572563Y-16111412D01*
X7639229Y-16159031D02*
X7648753Y-16149508D01*
X7648753Y-16149508D02*
X7667801Y-16139984D01*
X7667801Y-16139984D02*
X7715420Y-16139984D01*
X7715420Y-16139984D02*
X7734468Y-16149508D01*
X7734468Y-16149508D02*
X7743991Y-16159031D01*
X7743991Y-16159031D02*
X7753515Y-16178079D01*
X7753515Y-16178079D02*
X7753515Y-16197127D01*
X7753515Y-16197127D02*
X7743991Y-16225698D01*
X7743991Y-16225698D02*
X7629706Y-16339984D01*
X7629706Y-16339984D02*
X7753515Y-16339984D01*
X7991610Y-16339984D02*
X7991610Y-16139984D01*
X8077325Y-16339984D02*
X8077325Y-16235222D01*
X8077325Y-16235222D02*
X8067801Y-16216174D01*
X8067801Y-16216174D02*
X8048753Y-16206650D01*
X8048753Y-16206650D02*
X8020182Y-16206650D01*
X8020182Y-16206650D02*
X8001134Y-16216174D01*
X8001134Y-16216174D02*
X7991610Y-16225698D01*
X8201134Y-16339984D02*
X8182087Y-16330460D01*
X8182087Y-16330460D02*
X8172563Y-16320936D01*
X8172563Y-16320936D02*
X8163039Y-16301888D01*
X8163039Y-16301888D02*
X8163039Y-16244746D01*
X8163039Y-16244746D02*
X8172563Y-16225698D01*
X8172563Y-16225698D02*
X8182087Y-16216174D01*
X8182087Y-16216174D02*
X8201134Y-16206650D01*
X8201134Y-16206650D02*
X8229706Y-16206650D01*
X8229706Y-16206650D02*
X8248753Y-16216174D01*
X8248753Y-16216174D02*
X8258277Y-16225698D01*
X8258277Y-16225698D02*
X8267801Y-16244746D01*
X8267801Y-16244746D02*
X8267801Y-16301888D01*
X8267801Y-16301888D02*
X8258277Y-16320936D01*
X8258277Y-16320936D02*
X8248753Y-16330460D01*
X8248753Y-16330460D02*
X8229706Y-16339984D01*
X8229706Y-16339984D02*
X8201134Y-16339984D01*
X8382087Y-16339984D02*
X8363039Y-16330460D01*
X8363039Y-16330460D02*
X8353515Y-16311412D01*
X8353515Y-16311412D02*
X8353515Y-16139984D01*
X8534468Y-16330460D02*
X8515420Y-16339984D01*
X8515420Y-16339984D02*
X8477325Y-16339984D01*
X8477325Y-16339984D02*
X8458277Y-16330460D01*
X8458277Y-16330460D02*
X8448753Y-16311412D01*
X8448753Y-16311412D02*
X8448753Y-16235222D01*
X8448753Y-16235222D02*
X8458277Y-16216174D01*
X8458277Y-16216174D02*
X8477325Y-16206650D01*
X8477325Y-16206650D02*
X8515420Y-16206650D01*
X8515420Y-16206650D02*
X8534468Y-16216174D01*
X8534468Y-16216174D02*
X8543992Y-16235222D01*
X8543992Y-16235222D02*
X8543992Y-16254269D01*
X8543992Y-16254269D02*
X8448753Y-16273317D01*
X8620182Y-16330460D02*
X8639230Y-16339984D01*
X8639230Y-16339984D02*
X8677325Y-16339984D01*
X8677325Y-16339984D02*
X8696373Y-16330460D01*
X8696373Y-16330460D02*
X8705896Y-16311412D01*
X8705896Y-16311412D02*
X8705896Y-16301888D01*
X8705896Y-16301888D02*
X8696373Y-16282841D01*
X8696373Y-16282841D02*
X8677325Y-16273317D01*
X8677325Y-16273317D02*
X8648753Y-16273317D01*
X8648753Y-16273317D02*
X8629706Y-16263793D01*
X8629706Y-16263793D02*
X8620182Y-16244746D01*
X8620182Y-16244746D02*
X8620182Y-16235222D01*
X8620182Y-16235222D02*
X8629706Y-16216174D01*
X8629706Y-16216174D02*
X8648753Y-16206650D01*
X8648753Y-16206650D02*
X8677325Y-16206650D01*
X8677325Y-16206650D02*
X8696373Y-16216174D01*
X8772563Y-16416174D02*
X8782087Y-16406650D01*
X8782087Y-16406650D02*
X8801134Y-16378079D01*
X8801134Y-16378079D02*
X8810658Y-16359031D01*
X8810658Y-16359031D02*
X8820182Y-16330460D01*
X8820182Y-16330460D02*
X8829706Y-16282841D01*
X8829706Y-16282841D02*
X8829706Y-16244746D01*
X8829706Y-16244746D02*
X8820182Y-16197127D01*
X8820182Y-16197127D02*
X8810658Y-16168555D01*
X8810658Y-16168555D02*
X8801134Y-16149508D01*
X8801134Y-16149508D02*
X8782087Y-16120936D01*
X8782087Y-16120936D02*
X8772563Y-16111412D01*
M02*
