M48
; DRILL file {KiCad (5.1.7)-1} date 12/28/20 01:12:14
; FORMAT={-:-/ absolute / inch / decimal}
; #@! TF.CreationDate,2020-12-28T01:12:14+01:00
; #@! TF.GenerationSoftware,Kicad,Pcbnew,(5.1.7)-1
FMAT,2
INCH
T1C0.0300
T2C0.0315
T3C0.0394
T4C0.0433
T5C0.0469
T6C0.0512
T7C0.0591
T8C0.0630
T9C0.0709
T10C0.1378
%
G90
G05
T1
X1.8279Y-2.4487
X1.8776Y-2.4974
X1.8915Y-2.4139
X1.9611Y-2.4835
X1.975Y-2.4
X2.0247Y-2.4487
X2.3029Y-2.4487
X2.3526Y-2.4974
X2.3665Y-2.4139
X2.4361Y-2.4835
X2.45Y-2.4
X2.4997Y-2.4487
T2
X2.3016Y-2.775
X2.3516Y-2.775
X2.4516Y-2.775
X2.5016Y-2.775
X1.825Y-2.775
X1.875Y-2.775
X1.975Y-2.775
X2.025Y-2.775
X2.9311Y-1.4561
X2.9311Y-1.8561
T3
X2.7311Y-1.4561
X2.7311Y-1.8561
T4
X2.25Y-1.625
X2.35Y-1.625
X2.45Y-1.625
X2.1061Y-3.5061
X2.2061Y-3.5061
X2.3061Y-3.5061
T5
X3.2061Y-1.4561
X3.3061Y-1.4561
X3.2061Y-2.6561
X3.3061Y-2.6561
X3.6061Y-2.2561
X3.7061Y-2.2561
X3.2061Y-1.8561
X3.3061Y-1.8561
X3.6061Y-1.8561
X3.7061Y-1.8561
X3.6061Y-2.6561
X3.7061Y-2.6561
X3.6061Y-3.0561
X3.7061Y-3.0561
X3.2061Y-3.0561
X3.3061Y-3.0561
X3.2061Y-2.2561
X3.3061Y-2.2561
T6
X1.3061Y-2.3311
X1.3061Y-2.5311
T7
X2.8311Y-1.9663
X2.8311Y-2.8561
X1.725Y-1.325
X2.6148Y-1.325
T8
X1.3764Y-1.675
X1.4984Y-1.8719
X1.6205Y-1.675
T9
X1.975Y-1.625
X1.975Y-2.125
T10
X1.278Y-1.278
X1.278Y-3.4433
X3.6402Y-1.278
X3.6402Y-3.4433
T0
M30
