G04 #@! TF.GenerationSoftware,KiCad,Pcbnew,(5.1.7)-1*
G04 #@! TF.CreationDate,2020-12-28T01:12:10+01:00*
G04 #@! TF.ProjectId,power,706f7765-722e-46b6-9963-61645f706362,rev?*
G04 #@! TF.SameCoordinates,Original*
G04 #@! TF.FileFunction,Copper,L1,Top*
G04 #@! TF.FilePolarity,Positive*
%FSLAX46Y46*%
G04 Gerber Fmt 4.6, Leading zero omitted, Abs format (unit mm)*
G04 Created by KiCad (PCBNEW (5.1.7)-1) date 2020-12-28 01:12:10*
%MOMM*%
%LPD*%
G01*
G04 APERTURE LIST*
G04 #@! TA.AperFunction,ComponentPad*
%ADD10O,1.740000X2.190000*%
G04 #@! TD*
G04 #@! TA.AperFunction,ComponentPad*
%ADD11C,1.524000*%
G04 #@! TD*
G04 #@! TA.AperFunction,ComponentPad*
%ADD12R,1.524000X1.524000*%
G04 #@! TD*
G04 #@! TA.AperFunction,ComponentPad*
%ADD13C,2.500000*%
G04 #@! TD*
G04 #@! TA.AperFunction,ComponentPad*
%ADD14O,3.000000X3.000000*%
G04 #@! TD*
G04 #@! TA.AperFunction,ComponentPad*
%ADD15R,3.000000X3.000000*%
G04 #@! TD*
G04 #@! TA.AperFunction,ComponentPad*
%ADD16O,2.000000X2.000000*%
G04 #@! TD*
G04 #@! TA.AperFunction,ComponentPad*
%ADD17R,2.000000X2.000000*%
G04 #@! TD*
G04 #@! TA.AperFunction,ComponentPad*
%ADD18O,1.905000X2.000000*%
G04 #@! TD*
G04 #@! TA.AperFunction,ComponentPad*
%ADD19R,1.905000X2.000000*%
G04 #@! TD*
G04 #@! TA.AperFunction,ComponentPad*
%ADD20O,1.600000X1.600000*%
G04 #@! TD*
G04 #@! TA.AperFunction,ComponentPad*
%ADD21C,1.600000*%
G04 #@! TD*
G04 #@! TA.AperFunction,ComponentPad*
%ADD22C,2.600000*%
G04 #@! TD*
G04 #@! TA.AperFunction,ComponentPad*
%ADD23R,2.600000X2.600000*%
G04 #@! TD*
G04 #@! TA.AperFunction,Conductor*
%ADD24C,2.000000*%
G04 #@! TD*
G04 #@! TA.AperFunction,Conductor*
%ADD25C,1.700000*%
G04 #@! TD*
G04 #@! TA.AperFunction,Conductor*
%ADD26C,0.250000*%
G04 #@! TD*
G04 #@! TA.AperFunction,Conductor*
%ADD27C,1.500000*%
G04 #@! TD*
G04 APERTURE END LIST*
D10*
X94135000Y-77625000D03*
G04 #@! TA.AperFunction,ComponentPad*
G36*
G01*
X90725000Y-78470001D02*
X90725000Y-76779999D01*
G75*
G02*
X90974999Y-76530000I249999J0D01*
G01*
X92215001Y-76530000D01*
G75*
G02*
X92465000Y-76779999I0J-249999D01*
G01*
X92465000Y-78470001D01*
G75*
G02*
X92215001Y-78720000I-249999J0D01*
G01*
X90974999Y-78720000D01*
G75*
G02*
X90725000Y-78470001I0J249999D01*
G01*
G37*
G04 #@! TD.AperFunction*
D11*
X60109100Y-61313100D03*
D12*
X61876900Y-63080900D03*
D11*
X59756000Y-63434000D03*
D12*
X62230000Y-60960000D03*
D11*
X58493000Y-62197000D03*
D12*
X63493000Y-62197000D03*
D11*
X48044100Y-61313100D03*
D12*
X49811900Y-63080900D03*
D11*
X47691000Y-63434000D03*
D12*
X50165000Y-60960000D03*
D11*
X46428000Y-62197000D03*
D12*
X51428000Y-62197000D03*
D13*
X71910000Y-49945000D03*
X71910000Y-72545000D03*
X43815000Y-33655000D03*
X66415000Y-33655000D03*
D14*
X50165000Y-41275000D03*
D15*
X50165000Y-53975000D03*
D16*
X69370000Y-36985000D03*
D17*
X69370000Y-47145000D03*
D10*
X94135000Y-47145000D03*
G04 #@! TA.AperFunction,ComponentPad*
G36*
G01*
X90725000Y-47990001D02*
X90725000Y-46299999D01*
G75*
G02*
X90974999Y-46050000I249999J0D01*
G01*
X92215001Y-46050000D01*
G75*
G02*
X92465000Y-46299999I0J-249999D01*
G01*
X92465000Y-47990001D01*
G75*
G02*
X92215001Y-48240000I-249999J0D01*
G01*
X90974999Y-48240000D01*
G75*
G02*
X90725000Y-47990001I0J249999D01*
G01*
G37*
G04 #@! TD.AperFunction*
X83975000Y-36985000D03*
G04 #@! TA.AperFunction,ComponentPad*
G36*
G01*
X80565000Y-37830001D02*
X80565000Y-36139999D01*
G75*
G02*
X80814999Y-35890000I249999J0D01*
G01*
X82055001Y-35890000D01*
G75*
G02*
X82305000Y-36139999I0J-249999D01*
G01*
X82305000Y-37830001D01*
G75*
G02*
X82055001Y-38080000I-249999J0D01*
G01*
X80814999Y-38080000D01*
G75*
G02*
X80565000Y-37830001I0J249999D01*
G01*
G37*
G04 #@! TD.AperFunction*
X83975000Y-47145000D03*
G04 #@! TA.AperFunction,ComponentPad*
G36*
G01*
X80565000Y-47990001D02*
X80565000Y-46299999D01*
G75*
G02*
X80814999Y-46050000I249999J0D01*
G01*
X82055001Y-46050000D01*
G75*
G02*
X82305000Y-46299999I0J-249999D01*
G01*
X82305000Y-47990001D01*
G75*
G02*
X82055001Y-48240000I-249999J0D01*
G01*
X80814999Y-48240000D01*
G75*
G02*
X80565000Y-47990001I0J249999D01*
G01*
G37*
G04 #@! TD.AperFunction*
X83975000Y-77625000D03*
G04 #@! TA.AperFunction,ComponentPad*
G36*
G01*
X80565000Y-78470001D02*
X80565000Y-76779999D01*
G75*
G02*
X80814999Y-76530000I249999J0D01*
G01*
X82055001Y-76530000D01*
G75*
G02*
X82305000Y-76779999I0J-249999D01*
G01*
X82305000Y-78470001D01*
G75*
G02*
X82055001Y-78720000I-249999J0D01*
G01*
X80814999Y-78720000D01*
G75*
G02*
X80565000Y-78470001I0J249999D01*
G01*
G37*
G04 #@! TD.AperFunction*
X83975000Y-57305000D03*
G04 #@! TA.AperFunction,ComponentPad*
G36*
G01*
X80565000Y-58150001D02*
X80565000Y-56459999D01*
G75*
G02*
X80814999Y-56210000I249999J0D01*
G01*
X82055001Y-56210000D01*
G75*
G02*
X82305000Y-56459999I0J-249999D01*
G01*
X82305000Y-58150001D01*
G75*
G02*
X82055001Y-58400000I-249999J0D01*
G01*
X80814999Y-58400000D01*
G75*
G02*
X80565000Y-58150001I0J249999D01*
G01*
G37*
G04 #@! TD.AperFunction*
X94135000Y-67465000D03*
G04 #@! TA.AperFunction,ComponentPad*
G36*
G01*
X90725000Y-68310001D02*
X90725000Y-66619999D01*
G75*
G02*
X90974999Y-66370000I249999J0D01*
G01*
X92215001Y-66370000D01*
G75*
G02*
X92465000Y-66619999I0J-249999D01*
G01*
X92465000Y-68310001D01*
G75*
G02*
X92215001Y-68560000I-249999J0D01*
G01*
X90974999Y-68560000D01*
G75*
G02*
X90725000Y-68310001I0J249999D01*
G01*
G37*
G04 #@! TD.AperFunction*
X94135000Y-57305000D03*
G04 #@! TA.AperFunction,ComponentPad*
G36*
G01*
X90725000Y-58150001D02*
X90725000Y-56459999D01*
G75*
G02*
X90974999Y-56210000I249999J0D01*
G01*
X92215001Y-56210000D01*
G75*
G02*
X92465000Y-56459999I0J-249999D01*
G01*
X92465000Y-58150001D01*
G75*
G02*
X92215001Y-58400000I-249999J0D01*
G01*
X90974999Y-58400000D01*
G75*
G02*
X90725000Y-58150001I0J249999D01*
G01*
G37*
G04 #@! TD.AperFunction*
X83975000Y-67465000D03*
G04 #@! TA.AperFunction,ComponentPad*
G36*
G01*
X80565000Y-68310001D02*
X80565000Y-66619999D01*
G75*
G02*
X80814999Y-66370000I249999J0D01*
G01*
X82055001Y-66370000D01*
G75*
G02*
X82305000Y-66619999I0J-249999D01*
G01*
X82305000Y-68310001D01*
G75*
G02*
X82055001Y-68560000I-249999J0D01*
G01*
X80814999Y-68560000D01*
G75*
G02*
X80565000Y-68310001I0J249999D01*
G01*
G37*
G04 #@! TD.AperFunction*
D18*
X58575000Y-89055000D03*
X56035000Y-89055000D03*
D19*
X53495000Y-89055000D03*
D20*
X74450000Y-47145000D03*
D21*
X74450000Y-36985000D03*
D18*
X57150000Y-41275000D03*
X59690000Y-41275000D03*
D19*
X62230000Y-41275000D03*
D22*
X33175000Y-64290000D03*
D23*
X33175000Y-59210000D03*
D22*
X41160000Y-42545000D03*
X38060000Y-47545000D03*
X34960000Y-42545000D03*
D21*
X58460000Y-70485000D03*
X63540000Y-70485000D03*
X59730000Y-70485000D03*
X62270000Y-70485000D03*
X46355000Y-70485000D03*
X51435000Y-70485000D03*
X47625000Y-70485000D03*
X50165000Y-70485000D03*
D24*
X55880000Y-53975000D02*
X50165000Y-53975000D01*
X57150000Y-52705000D02*
X55880000Y-53975000D01*
X57150000Y-52070000D02*
X57150000Y-52705000D01*
D25*
X53495000Y-89055000D02*
X52225000Y-87785000D01*
D24*
X52225000Y-71275000D02*
X51435000Y-70485000D01*
X52225000Y-87785000D02*
X52225000Y-71275000D01*
D25*
X50165000Y-70485000D02*
X51435000Y-70485000D01*
D24*
X50165000Y-53975000D02*
X50165000Y-54610000D01*
X51428000Y-55873000D02*
X51428000Y-62197000D01*
X50165000Y-54610000D02*
X51428000Y-55873000D01*
D26*
X49928000Y-61197000D02*
X50165000Y-60960000D01*
D24*
X51435000Y-62204000D02*
X51428000Y-62197000D01*
X51435000Y-70485000D02*
X51435000Y-62204000D01*
D25*
X57305000Y-47145000D02*
X57150000Y-47300000D01*
X69370000Y-47145000D02*
X57305000Y-47145000D01*
D24*
X57150000Y-47300000D02*
X57150000Y-52070000D01*
X57150000Y-41275000D02*
X57150000Y-47300000D01*
D27*
X50191000Y-60960000D02*
X51428000Y-62197000D01*
X50165000Y-60960000D02*
X50191000Y-60960000D01*
X50695800Y-62197000D02*
X49811900Y-63080900D01*
X51428000Y-62197000D02*
X50695800Y-62197000D01*
X50165000Y-62727800D02*
X49811900Y-63080900D01*
X50165000Y-60960000D02*
X50165000Y-62727800D01*
D25*
X65080000Y-41275000D02*
X69370000Y-36985000D01*
X62230000Y-41275000D02*
X65080000Y-41275000D01*
X74450000Y-36985000D02*
X69370000Y-36985000D01*
X94135000Y-67465000D02*
X94135000Y-57305000D01*
X94135000Y-47145000D02*
X94135000Y-57305000D01*
X83975000Y-72545000D02*
X83975000Y-67465000D01*
X83975000Y-57305000D02*
X83975000Y-67465000D01*
X83975000Y-47145000D02*
X83975000Y-57305000D01*
X83975000Y-47145000D02*
X83975000Y-36985000D01*
X94135000Y-70640000D02*
X94135000Y-67465000D01*
X83975000Y-77625000D02*
X83975000Y-72545000D01*
D24*
X71910000Y-72545000D02*
X72545000Y-73180000D01*
X73180000Y-72545000D02*
X94135000Y-72545000D01*
X72545000Y-73180000D02*
X73180000Y-72545000D01*
D25*
X94135000Y-72545000D02*
X94135000Y-70640000D01*
X94135000Y-77625000D02*
X94135000Y-72545000D01*
D24*
X66415000Y-33655000D02*
X62230000Y-33655000D01*
X62230000Y-33655000D02*
X51435000Y-33655000D01*
X50165000Y-34925000D02*
X50165000Y-41275000D01*
X51435000Y-33655000D02*
X50165000Y-34925000D01*
X59690000Y-33655000D02*
X59690000Y-41275000D01*
X71910000Y-53780000D02*
X63493000Y-62197000D01*
X71910000Y-49945000D02*
X71910000Y-53780000D01*
X59845000Y-87785000D02*
X62385000Y-85245000D01*
X62385000Y-85245000D02*
X63020000Y-84610000D01*
X63020000Y-84610000D02*
X63020000Y-71275000D01*
D25*
X62270000Y-70525000D02*
X63020000Y-71275000D01*
X62270000Y-70485000D02*
X62270000Y-70525000D01*
X63540000Y-70755000D02*
X63020000Y-71275000D01*
X63540000Y-70485000D02*
X63540000Y-70755000D01*
D24*
X63540000Y-62244000D02*
X63493000Y-62197000D01*
X63540000Y-70485000D02*
X63540000Y-62244000D01*
D25*
X58575000Y-89055000D02*
X59845000Y-87785000D01*
D27*
X62230000Y-62727800D02*
X61876900Y-63080900D01*
X62230000Y-60960000D02*
X62230000Y-62727800D01*
X62256000Y-60960000D02*
X63493000Y-62197000D01*
X62230000Y-60960000D02*
X62256000Y-60960000D01*
X62609100Y-63080900D02*
X63493000Y-62197000D01*
X61876900Y-63080900D02*
X62609100Y-63080900D01*
D24*
X41245000Y-42545000D02*
X41160000Y-42460000D01*
X42545000Y-43930000D02*
X41160000Y-42545000D01*
X42545000Y-52705000D02*
X42545000Y-43930000D01*
X41160000Y-36310000D02*
X43815000Y-33655000D01*
X41160000Y-42545000D02*
X41160000Y-36310000D01*
X36040000Y-59210000D02*
X42545000Y-52705000D01*
X33175000Y-59210000D02*
X36040000Y-59210000D01*
M02*
