G04 #@! TF.GenerationSoftware,KiCad,Pcbnew,(5.1.7)-1*
G04 #@! TF.CreationDate,2020-12-28T01:09:54+01:00*
G04 #@! TF.ProjectId,EinTaktReset,45696e54-616b-4745-9265-7365742e6b69,rev?*
G04 #@! TF.SameCoordinates,Original*
G04 #@! TF.FileFunction,Soldermask,Bot*
G04 #@! TF.FilePolarity,Negative*
%FSLAX46Y46*%
G04 Gerber Fmt 4.6, Leading zero omitted, Abs format (unit mm)*
G04 Created by KiCad (PCBNEW (5.1.7)-1) date 2020-12-28 01:09:54*
%MOMM*%
%LPD*%
G01*
G04 APERTURE LIST*
%ADD10O,2.560000X2.560000*%
%ADD11O,1.760000X1.760000*%
%ADD12C,1.760000*%
%ADD13C,2.160000*%
%ADD14C,1.260000*%
%ADD15C,3.157200*%
%ADD16O,1.760000X2.560000*%
%ADD17C,2.500000*%
%ADD18C,3.660000*%
%ADD19O,2.350000X1.900000*%
%ADD20O,1.860000X1.860000*%
%ADD21O,1.900000X2.350000*%
%ADD22C,1.960000*%
%ADD23O,1.960000X1.960000*%
%ADD24C,0.100000*%
G04 APERTURE END LIST*
D10*
X93345000Y-125730000D03*
G36*
G01*
X57065000Y-126930000D02*
X57065000Y-124530000D01*
G75*
G02*
X57145000Y-124450000I80000J0D01*
G01*
X59545000Y-124450000D01*
G75*
G02*
X59625000Y-124530000I0J-80000D01*
G01*
X59625000Y-126930000D01*
G75*
G02*
X59545000Y-127010000I-80000J0D01*
G01*
X57145000Y-127010000D01*
G75*
G02*
X57065000Y-126930000I0J80000D01*
G01*
G37*
D11*
X97155000Y-161925000D03*
D12*
X107315000Y-161925000D03*
D11*
X107315000Y-158750000D03*
D12*
X97155000Y-158750000D03*
D11*
X93980000Y-62865000D03*
X91440000Y-62865000D03*
X88900000Y-62865000D03*
X86360000Y-62865000D03*
X83820000Y-62865000D03*
X81280000Y-62865000D03*
X78740000Y-62865000D03*
X76200000Y-62865000D03*
G36*
G01*
X72780000Y-63665000D02*
X72780000Y-62065000D01*
G75*
G02*
X72860000Y-61985000I80000J0D01*
G01*
X74460000Y-61985000D01*
G75*
G02*
X74540000Y-62065000I0J-80000D01*
G01*
X74540000Y-63665000D01*
G75*
G02*
X74460000Y-63745000I-80000J0D01*
G01*
X72860000Y-63745000D01*
G75*
G02*
X72780000Y-63665000I0J80000D01*
G01*
G37*
D13*
X54610000Y-136525000D03*
X54610000Y-141605000D03*
X46990000Y-136525000D03*
D14*
X46990000Y-149225000D03*
X54610000Y-133985000D03*
D13*
X46990000Y-141605000D03*
X54610000Y-158750000D03*
X54610000Y-163830000D03*
X46990000Y-158750000D03*
D14*
X46990000Y-171450000D03*
X54610000Y-156210000D03*
D13*
X46990000Y-163830000D03*
D15*
X46355000Y-116586000D03*
X46355000Y-121285000D03*
X46355000Y-125984000D03*
D16*
X74930000Y-140335000D03*
X90170000Y-147955000D03*
X77470000Y-140335000D03*
X87630000Y-147955000D03*
X80010000Y-140335000D03*
X85090000Y-147955000D03*
X82550000Y-140335000D03*
X82550000Y-147955000D03*
X85090000Y-140335000D03*
X80010000Y-147955000D03*
X87630000Y-140335000D03*
X77470000Y-147955000D03*
X90170000Y-140335000D03*
G36*
G01*
X75730000Y-149235000D02*
X74130000Y-149235000D01*
G75*
G02*
X74050000Y-149155000I0J80000D01*
G01*
X74050000Y-146755000D01*
G75*
G02*
X74130000Y-146675000I80000J0D01*
G01*
X75730000Y-146675000D01*
G75*
G02*
X75810000Y-146755000I0J-80000D01*
G01*
X75810000Y-149155000D01*
G75*
G02*
X75730000Y-149235000I-80000J0D01*
G01*
G37*
X108585000Y-92710000D03*
X123825000Y-100330000D03*
X111125000Y-92710000D03*
X121285000Y-100330000D03*
X113665000Y-92710000D03*
X118745000Y-100330000D03*
X116205000Y-92710000D03*
X116205000Y-100330000D03*
X118745000Y-92710000D03*
X113665000Y-100330000D03*
X121285000Y-92710000D03*
X111125000Y-100330000D03*
X123825000Y-92710000D03*
G36*
G01*
X109385000Y-101610000D02*
X107785000Y-101610000D01*
G75*
G02*
X107705000Y-101530000I0J80000D01*
G01*
X107705000Y-99130000D01*
G75*
G02*
X107785000Y-99050000I80000J0D01*
G01*
X109385000Y-99050000D01*
G75*
G02*
X109465000Y-99130000I0J-80000D01*
G01*
X109465000Y-101530000D01*
G75*
G02*
X109385000Y-101610000I-80000J0D01*
G01*
G37*
X97155000Y-167005000D03*
X120015000Y-174625000D03*
X99695000Y-167005000D03*
X117475000Y-174625000D03*
X102235000Y-167005000D03*
X114935000Y-174625000D03*
X104775000Y-167005000D03*
X112395000Y-174625000D03*
X107315000Y-167005000D03*
X109855000Y-174625000D03*
X109855000Y-167005000D03*
X107315000Y-174625000D03*
X112395000Y-167005000D03*
X104775000Y-174625000D03*
X114935000Y-167005000D03*
X102235000Y-174625000D03*
X117475000Y-167005000D03*
X99695000Y-174625000D03*
X120015000Y-167005000D03*
G36*
G01*
X97955000Y-175905000D02*
X96355000Y-175905000D01*
G75*
G02*
X96275000Y-175825000I0J80000D01*
G01*
X96275000Y-173425000D01*
G75*
G02*
X96355000Y-173345000I80000J0D01*
G01*
X97955000Y-173345000D01*
G75*
G02*
X98035000Y-173425000I0J-80000D01*
G01*
X98035000Y-175825000D01*
G75*
G02*
X97955000Y-175905000I-80000J0D01*
G01*
G37*
X71755000Y-167005000D03*
X86995000Y-174625000D03*
X74295000Y-167005000D03*
X84455000Y-174625000D03*
X76835000Y-167005000D03*
X81915000Y-174625000D03*
X79375000Y-167005000D03*
X79375000Y-174625000D03*
X81915000Y-167005000D03*
X76835000Y-174625000D03*
X84455000Y-167005000D03*
X74295000Y-174625000D03*
X86995000Y-167005000D03*
G36*
G01*
X72555000Y-175905000D02*
X70955000Y-175905000D01*
G75*
G02*
X70875000Y-175825000I0J80000D01*
G01*
X70875000Y-173425000D01*
G75*
G02*
X70955000Y-173345000I80000J0D01*
G01*
X72555000Y-173345000D01*
G75*
G02*
X72635000Y-173425000I0J-80000D01*
G01*
X72635000Y-175825000D01*
G75*
G02*
X72555000Y-175905000I-80000J0D01*
G01*
G37*
D15*
X46990000Y-101219000D03*
X46990000Y-96520000D03*
X46990000Y-91821000D03*
X127254000Y-140335000D03*
X122555000Y-140335000D03*
X117856000Y-140335000D03*
D12*
X125095000Y-174530000D03*
G36*
G01*
X125895000Y-177410000D02*
X124295000Y-177410000D01*
G75*
G02*
X124215000Y-177330000I0J80000D01*
G01*
X124215000Y-175730000D01*
G75*
G02*
X124295000Y-175650000I80000J0D01*
G01*
X125895000Y-175650000D01*
G75*
G02*
X125975000Y-175730000I0J-80000D01*
G01*
X125975000Y-177330000D01*
G75*
G02*
X125895000Y-177410000I-80000J0D01*
G01*
G37*
X61595000Y-172180000D03*
G36*
G01*
X60795000Y-169300000D02*
X62395000Y-169300000D01*
G75*
G02*
X62475000Y-169380000I0J-80000D01*
G01*
X62475000Y-170980000D01*
G75*
G02*
X62395000Y-171060000I-80000J0D01*
G01*
X60795000Y-171060000D01*
G75*
G02*
X60715000Y-170980000I0J80000D01*
G01*
X60715000Y-169380000D01*
G75*
G02*
X60795000Y-169300000I80000J0D01*
G01*
G37*
D17*
X65405000Y-99060000D03*
X62905000Y-94060000D03*
X60405000Y-99060000D03*
D15*
X120650000Y-82169000D03*
X120650000Y-77470000D03*
X120650000Y-72771000D03*
X110490000Y-82169000D03*
X110490000Y-77470000D03*
X110490000Y-72771000D03*
X100330000Y-82169000D03*
X100330000Y-77470000D03*
X100330000Y-72771000D03*
X90170000Y-82169000D03*
X90170000Y-77470000D03*
X90170000Y-72771000D03*
X80010000Y-82169000D03*
X80010000Y-77470000D03*
X80010000Y-72771000D03*
X69850000Y-82169000D03*
X69850000Y-77470000D03*
X69850000Y-72771000D03*
X59690000Y-82169000D03*
X59690000Y-77470000D03*
X59690000Y-72771000D03*
X49530000Y-82169000D03*
X49530000Y-77470000D03*
X49530000Y-72771000D03*
D18*
X43100000Y-177860000D03*
X133100000Y-177860000D03*
X133100000Y-27860000D03*
X43100000Y-27860000D03*
D19*
X132080000Y-153670000D03*
X132080000Y-151130000D03*
G36*
G01*
X131177987Y-147640000D02*
X132982013Y-147640000D01*
G75*
G02*
X133255000Y-147912987I0J-272987D01*
G01*
X133255000Y-149267013D01*
G75*
G02*
X132982013Y-149540000I-272987J0D01*
G01*
X131177987Y-149540000D01*
G75*
G02*
X130905000Y-149267013I0J272987D01*
G01*
X130905000Y-147912987D01*
G75*
G02*
X131177987Y-147640000I272987J0D01*
G01*
G37*
X132080000Y-130175000D03*
X132080000Y-127635000D03*
G36*
G01*
X131177987Y-124145000D02*
X132982013Y-124145000D01*
G75*
G02*
X133255000Y-124417987I0J-272987D01*
G01*
X133255000Y-125772013D01*
G75*
G02*
X132982013Y-126045000I-272987J0D01*
G01*
X131177987Y-126045000D01*
G75*
G02*
X130905000Y-125772013I0J272987D01*
G01*
X130905000Y-124417987D01*
G75*
G02*
X131177987Y-124145000I272987J0D01*
G01*
G37*
X132080000Y-86995000D03*
X132080000Y-84455000D03*
G36*
G01*
X131177987Y-80965000D02*
X132982013Y-80965000D01*
G75*
G02*
X133255000Y-81237987I0J-272987D01*
G01*
X133255000Y-82592013D01*
G75*
G02*
X132982013Y-82865000I-272987J0D01*
G01*
X131177987Y-82865000D01*
G75*
G02*
X130905000Y-82592013I0J272987D01*
G01*
X130905000Y-81237987D01*
G75*
G02*
X131177987Y-80965000I272987J0D01*
G01*
G37*
D16*
X81280000Y-92710000D03*
X99060000Y-100330000D03*
X83820000Y-92710000D03*
X96520000Y-100330000D03*
X86360000Y-92710000D03*
X93980000Y-100330000D03*
X88900000Y-92710000D03*
X91440000Y-100330000D03*
X91440000Y-92710000D03*
X88900000Y-100330000D03*
X93980000Y-92710000D03*
X86360000Y-100330000D03*
X96520000Y-92710000D03*
X83820000Y-100330000D03*
X99060000Y-92710000D03*
G36*
G01*
X82080000Y-101610000D02*
X80480000Y-101610000D01*
G75*
G02*
X80400000Y-101530000I0J80000D01*
G01*
X80400000Y-99130000D01*
G75*
G02*
X80480000Y-99050000I80000J0D01*
G01*
X82080000Y-99050000D01*
G75*
G02*
X82160000Y-99130000I0J-80000D01*
G01*
X82160000Y-101530000D01*
G75*
G02*
X82080000Y-101610000I-80000J0D01*
G01*
G37*
X73660000Y-51435000D03*
X96520000Y-59055000D03*
X76200000Y-51435000D03*
X93980000Y-59055000D03*
X78740000Y-51435000D03*
X91440000Y-59055000D03*
X81280000Y-51435000D03*
X88900000Y-59055000D03*
X83820000Y-51435000D03*
X86360000Y-59055000D03*
X86360000Y-51435000D03*
X83820000Y-59055000D03*
X88900000Y-51435000D03*
X81280000Y-59055000D03*
X91440000Y-51435000D03*
X78740000Y-59055000D03*
X93980000Y-51435000D03*
X76200000Y-59055000D03*
X96520000Y-51435000D03*
G36*
G01*
X74460000Y-60335000D02*
X72860000Y-60335000D01*
G75*
G02*
X72780000Y-60255000I0J80000D01*
G01*
X72780000Y-57855000D01*
G75*
G02*
X72860000Y-57775000I80000J0D01*
G01*
X74460000Y-57775000D01*
G75*
G02*
X74540000Y-57855000I0J-80000D01*
G01*
X74540000Y-60255000D01*
G75*
G02*
X74460000Y-60335000I-80000J0D01*
G01*
G37*
D11*
X55245000Y-90805000D03*
D12*
X55245000Y-100965000D03*
D11*
X70485000Y-100965000D03*
D12*
X70485000Y-90805000D03*
D11*
X83820000Y-88900000D03*
D12*
X93980000Y-88900000D03*
D11*
X53340000Y-116840000D03*
D12*
X53340000Y-127000000D03*
D11*
X59055000Y-149860000D03*
D12*
X59055000Y-139700000D03*
D11*
X62865000Y-139700000D03*
D12*
X62865000Y-149860000D03*
D11*
X109855000Y-125095000D03*
D12*
X120015000Y-125095000D03*
D11*
X109855000Y-128270000D03*
D12*
X120015000Y-128270000D03*
D11*
X104775000Y-155575000D03*
D12*
X94615000Y-155575000D03*
D11*
X94615000Y-152400000D03*
D12*
X104775000Y-152400000D03*
D11*
X132080000Y-64770000D03*
D12*
X132080000Y-74930000D03*
D11*
X85090000Y-179070000D03*
D12*
X95250000Y-179070000D03*
D11*
X99695000Y-179070000D03*
D12*
X109855000Y-179070000D03*
D11*
X132715000Y-97790000D03*
D12*
X132715000Y-107950000D03*
D11*
X120015000Y-161925000D03*
D12*
X109855000Y-161925000D03*
D11*
X59055000Y-163830000D03*
D12*
X59055000Y-153670000D03*
D11*
X66675000Y-153670000D03*
D12*
X66675000Y-163830000D03*
D20*
X133350000Y-59055000D03*
X130810000Y-59055000D03*
X133350000Y-56515000D03*
X130810000Y-56515000D03*
X133350000Y-53975000D03*
X130810000Y-53975000D03*
X133350000Y-51435000D03*
X130810000Y-51435000D03*
X133350000Y-48895000D03*
X130810000Y-48895000D03*
X133350000Y-46355000D03*
X130810000Y-46355000D03*
X133350000Y-43815000D03*
X130810000Y-43815000D03*
X133350000Y-41275000D03*
X130810000Y-41275000D03*
X133350000Y-38735000D03*
X130810000Y-38735000D03*
X133350000Y-36195000D03*
G36*
G01*
X129880000Y-37045000D02*
X129880000Y-35345000D01*
G75*
G02*
X129960000Y-35265000I80000J0D01*
G01*
X131660000Y-35265000D01*
G75*
G02*
X131740000Y-35345000I0J-80000D01*
G01*
X131740000Y-37045000D01*
G75*
G02*
X131660000Y-37125000I-80000J0D01*
G01*
X129960000Y-37125000D01*
G75*
G02*
X129880000Y-37045000I0J80000D01*
G01*
G37*
X47625000Y-59055000D03*
X45085000Y-59055000D03*
X47625000Y-56515000D03*
X45085000Y-56515000D03*
X47625000Y-53975000D03*
X45085000Y-53975000D03*
X47625000Y-51435000D03*
X45085000Y-51435000D03*
X47625000Y-48895000D03*
X45085000Y-48895000D03*
X47625000Y-46355000D03*
X45085000Y-46355000D03*
X47625000Y-43815000D03*
X45085000Y-43815000D03*
X47625000Y-41275000D03*
X45085000Y-41275000D03*
X47625000Y-38735000D03*
X45085000Y-38735000D03*
X47625000Y-36195000D03*
G36*
G01*
X44155000Y-37045000D02*
X44155000Y-35345000D01*
G75*
G02*
X44235000Y-35265000I80000J0D01*
G01*
X45935000Y-35265000D01*
G75*
G02*
X46015000Y-35345000I0J-80000D01*
G01*
X46015000Y-37045000D01*
G75*
G02*
X45935000Y-37125000I-80000J0D01*
G01*
X44235000Y-37125000D01*
G75*
G02*
X44155000Y-37045000I0J80000D01*
G01*
G37*
D19*
X132080000Y-168910000D03*
G36*
G01*
X131177987Y-165420000D02*
X132982013Y-165420000D01*
G75*
G02*
X133255000Y-165692987I0J-272987D01*
G01*
X133255000Y-167047013D01*
G75*
G02*
X132982013Y-167320000I-272987J0D01*
G01*
X131177987Y-167320000D01*
G75*
G02*
X130905000Y-167047013I0J272987D01*
G01*
X130905000Y-165692987D01*
G75*
G02*
X131177987Y-165420000I272987J0D01*
G01*
G37*
X132080000Y-161925000D03*
G36*
G01*
X131177987Y-158435000D02*
X132982013Y-158435000D01*
G75*
G02*
X133255000Y-158707987I0J-272987D01*
G01*
X133255000Y-160062013D01*
G75*
G02*
X132982013Y-160335000I-272987J0D01*
G01*
X131177987Y-160335000D01*
G75*
G02*
X130905000Y-160062013I0J272987D01*
G01*
X130905000Y-158707987D01*
G75*
G02*
X131177987Y-158435000I272987J0D01*
G01*
G37*
D21*
X52705000Y-29210000D03*
G36*
G01*
X49215000Y-30112013D02*
X49215000Y-28307987D01*
G75*
G02*
X49487987Y-28035000I272987J0D01*
G01*
X50842013Y-28035000D01*
G75*
G02*
X51115000Y-28307987I0J-272987D01*
G01*
X51115000Y-30112013D01*
G75*
G02*
X50842013Y-30385000I-272987J0D01*
G01*
X49487987Y-30385000D01*
G75*
G02*
X49215000Y-30112013I0J272987D01*
G01*
G37*
D22*
X132715000Y-113030000D03*
G36*
G01*
X131815000Y-109510000D02*
X133615000Y-109510000D01*
G75*
G02*
X133695000Y-109590000I0J-80000D01*
G01*
X133695000Y-111390000D01*
G75*
G02*
X133615000Y-111470000I-80000J0D01*
G01*
X131815000Y-111470000D01*
G75*
G02*
X131735000Y-111390000I0J80000D01*
G01*
X131735000Y-109590000D01*
G75*
G02*
X131815000Y-109510000I80000J0D01*
G01*
G37*
D23*
X67310000Y-27940000D03*
G36*
G01*
X56170000Y-28840000D02*
X56170000Y-27040000D01*
G75*
G02*
X56250000Y-26960000I80000J0D01*
G01*
X58050000Y-26960000D01*
G75*
G02*
X58130000Y-27040000I0J-80000D01*
G01*
X58130000Y-28840000D01*
G75*
G02*
X58050000Y-28920000I-80000J0D01*
G01*
X56250000Y-28920000D01*
G75*
G02*
X56170000Y-28840000I0J80000D01*
G01*
G37*
D22*
X111760000Y-53975000D03*
G36*
G01*
X112660000Y-57495000D02*
X110860000Y-57495000D01*
G75*
G02*
X110780000Y-57415000I0J80000D01*
G01*
X110780000Y-55615000D01*
G75*
G02*
X110860000Y-55535000I80000J0D01*
G01*
X112660000Y-55535000D01*
G75*
G02*
X112740000Y-55615000I0J-80000D01*
G01*
X112740000Y-57415000D01*
G75*
G02*
X112660000Y-57495000I-80000J0D01*
G01*
G37*
D23*
X62865000Y-153670000D03*
G36*
G01*
X63765000Y-164810000D02*
X61965000Y-164810000D01*
G75*
G02*
X61885000Y-164730000I0J80000D01*
G01*
X61885000Y-162930000D01*
G75*
G02*
X61965000Y-162850000I80000J0D01*
G01*
X63765000Y-162850000D01*
G75*
G02*
X63845000Y-162930000I0J-80000D01*
G01*
X63845000Y-164730000D01*
G75*
G02*
X63765000Y-164810000I-80000J0D01*
G01*
G37*
D12*
X92100000Y-109188126D03*
G36*
G01*
X89700000Y-113910000D02*
X88100000Y-113910000D01*
G75*
G02*
X88020000Y-113830000I0J80000D01*
G01*
X88020000Y-112230000D01*
G75*
G02*
X88100000Y-112150000I80000J0D01*
G01*
X89700000Y-112150000D01*
G75*
G02*
X89780000Y-112230000I0J-80000D01*
G01*
X89780000Y-113830000D01*
G75*
G02*
X89700000Y-113910000I-80000J0D01*
G01*
G37*
X90500000Y-109859063D03*
G36*
G01*
X91300000Y-113239063D02*
X89700000Y-113239063D01*
G75*
G02*
X89620000Y-113159063I0J80000D01*
G01*
X89620000Y-111559063D01*
G75*
G02*
X89700000Y-111479063I80000J0D01*
G01*
X91300000Y-111479063D01*
G75*
G02*
X91380000Y-111559063I0J-80000D01*
G01*
X91380000Y-113159063D01*
G75*
G02*
X91300000Y-113239063I-80000J0D01*
G01*
G37*
X104165000Y-109188126D03*
G36*
G01*
X101765000Y-113910000D02*
X100165000Y-113910000D01*
G75*
G02*
X100085000Y-113830000I0J80000D01*
G01*
X100085000Y-112230000D01*
G75*
G02*
X100165000Y-112150000I80000J0D01*
G01*
X101765000Y-112150000D01*
G75*
G02*
X101845000Y-112230000I0J-80000D01*
G01*
X101845000Y-113830000D01*
G75*
G02*
X101765000Y-113910000I-80000J0D01*
G01*
G37*
X102565000Y-109859063D03*
G36*
G01*
X103365000Y-113239063D02*
X101765000Y-113239063D01*
G75*
G02*
X101685000Y-113159063I0J80000D01*
G01*
X101685000Y-111559063D01*
G75*
G02*
X101765000Y-111479063I80000J0D01*
G01*
X103365000Y-111479063D01*
G75*
G02*
X103445000Y-111559063I0J-80000D01*
G01*
X103445000Y-113159063D01*
G75*
G02*
X103365000Y-113239063I-80000J0D01*
G01*
G37*
X77470000Y-98980000D03*
X77470000Y-93980000D03*
X93345000Y-173275000D03*
X93345000Y-168275000D03*
X73660000Y-27980000D03*
G36*
G01*
X74460000Y-31360000D02*
X72860000Y-31360000D01*
G75*
G02*
X72780000Y-31280000I0J80000D01*
G01*
X72780000Y-29680000D01*
G75*
G02*
X72860000Y-29600000I80000J0D01*
G01*
X74460000Y-29600000D01*
G75*
G02*
X74540000Y-29680000I0J-80000D01*
G01*
X74540000Y-31280000D01*
G75*
G02*
X74460000Y-31360000I-80000J0D01*
G01*
G37*
X99775000Y-120650000D03*
X104775000Y-120650000D03*
X69850000Y-57705000D03*
X69850000Y-52705000D03*
X67945000Y-173355000D03*
X67945000Y-168355000D03*
X67945000Y-146685000D03*
X67945000Y-141685000D03*
X104775000Y-98980000D03*
X104775000Y-93980000D03*
X78435000Y-109224063D03*
G36*
G01*
X76035000Y-113945937D02*
X74435000Y-113945937D01*
G75*
G02*
X74355000Y-113865937I0J80000D01*
G01*
X74355000Y-112265937D01*
G75*
G02*
X74435000Y-112185937I80000J0D01*
G01*
X76035000Y-112185937D01*
G75*
G02*
X76115000Y-112265937I0J-80000D01*
G01*
X76115000Y-113865937D01*
G75*
G02*
X76035000Y-113945937I-80000J0D01*
G01*
G37*
X76835000Y-109895000D03*
G36*
G01*
X77635000Y-113275000D02*
X76035000Y-113275000D01*
G75*
G02*
X75955000Y-113195000I0J80000D01*
G01*
X75955000Y-111595000D01*
G75*
G02*
X76035000Y-111515000I80000J0D01*
G01*
X77635000Y-111515000D01*
G75*
G02*
X77715000Y-111595000I0J-80000D01*
G01*
X77715000Y-113195000D01*
G75*
G02*
X77635000Y-113275000I-80000J0D01*
G01*
G37*
X65735000Y-109224063D03*
G36*
G01*
X63335000Y-113945937D02*
X61735000Y-113945937D01*
G75*
G02*
X61655000Y-113865937I0J80000D01*
G01*
X61655000Y-112265937D01*
G75*
G02*
X61735000Y-112185937I80000J0D01*
G01*
X63335000Y-112185937D01*
G75*
G02*
X63415000Y-112265937I0J-80000D01*
G01*
X63415000Y-113865937D01*
G75*
G02*
X63335000Y-113945937I-80000J0D01*
G01*
G37*
X64135000Y-109895000D03*
G36*
G01*
X64935000Y-113275000D02*
X63335000Y-113275000D01*
G75*
G02*
X63255000Y-113195000I0J80000D01*
G01*
X63255000Y-111595000D01*
G75*
G02*
X63335000Y-111515000I80000J0D01*
G01*
X64935000Y-111515000D01*
G75*
G02*
X65015000Y-111595000I0J-80000D01*
G01*
X65015000Y-113195000D01*
G75*
G02*
X64935000Y-113275000I-80000J0D01*
G01*
G37*
D24*
G36*
X125210450Y-175398936D02*
G01*
X125210840Y-175400898D01*
X125209527Y-175402169D01*
X125191867Y-175407526D01*
X125170257Y-175419076D01*
X125151317Y-175434620D01*
X125135773Y-175453560D01*
X125124223Y-175475170D01*
X125117109Y-175498620D01*
X125114708Y-175523001D01*
X125117109Y-175547382D01*
X125124223Y-175570832D01*
X125135773Y-175592442D01*
X125151317Y-175611382D01*
X125170257Y-175626926D01*
X125191867Y-175638476D01*
X125215317Y-175645590D01*
X125239894Y-175648010D01*
X125241520Y-175649175D01*
X125241324Y-175651165D01*
X125239698Y-175652000D01*
X124950302Y-175652000D01*
X124948570Y-175651000D01*
X124948570Y-175649000D01*
X124950106Y-175648010D01*
X124974683Y-175645590D01*
X124998133Y-175638476D01*
X125019743Y-175626926D01*
X125038683Y-175611382D01*
X125054227Y-175592442D01*
X125065777Y-175570832D01*
X125072891Y-175547382D01*
X125075292Y-175523001D01*
X125072891Y-175498620D01*
X125065777Y-175475170D01*
X125054227Y-175453560D01*
X125038683Y-175434620D01*
X125019743Y-175419076D01*
X124998133Y-175407526D01*
X124980473Y-175402169D01*
X124979106Y-175400709D01*
X124979687Y-175398795D01*
X124981444Y-175398293D01*
X125008944Y-175403763D01*
X125181056Y-175403763D01*
X125208556Y-175398293D01*
X125210450Y-175398936D01*
G37*
G36*
X61741430Y-171059000D02*
G01*
X61741430Y-171061000D01*
X61739894Y-171061990D01*
X61715317Y-171064410D01*
X61691867Y-171071524D01*
X61670257Y-171083074D01*
X61651317Y-171098618D01*
X61635773Y-171117558D01*
X61624223Y-171139168D01*
X61617109Y-171162618D01*
X61614708Y-171186999D01*
X61617109Y-171211380D01*
X61624223Y-171234830D01*
X61635773Y-171256440D01*
X61651317Y-171275380D01*
X61670257Y-171290924D01*
X61691867Y-171302474D01*
X61709527Y-171307831D01*
X61710894Y-171309291D01*
X61710313Y-171311205D01*
X61708556Y-171311707D01*
X61681056Y-171306237D01*
X61508944Y-171306237D01*
X61481444Y-171311707D01*
X61479550Y-171311064D01*
X61479160Y-171309102D01*
X61480473Y-171307831D01*
X61498133Y-171302474D01*
X61519743Y-171290924D01*
X61538683Y-171275380D01*
X61554227Y-171256440D01*
X61565777Y-171234830D01*
X61572891Y-171211380D01*
X61575292Y-171186999D01*
X61572891Y-171162618D01*
X61565777Y-171139168D01*
X61554227Y-171117558D01*
X61538683Y-171098618D01*
X61519743Y-171083074D01*
X61498133Y-171071524D01*
X61474683Y-171064410D01*
X61450106Y-171061990D01*
X61448480Y-171060825D01*
X61448676Y-171058835D01*
X61450302Y-171058000D01*
X61739698Y-171058000D01*
X61741430Y-171059000D01*
G37*
G36*
X130906990Y-167046817D02*
G01*
X130912215Y-167099875D01*
X130927637Y-167150712D01*
X130952678Y-167197560D01*
X130986377Y-167238623D01*
X131027440Y-167272322D01*
X131074288Y-167297363D01*
X131125125Y-167312785D01*
X131178183Y-167318010D01*
X131179809Y-167319175D01*
X131179613Y-167321165D01*
X131177987Y-167322000D01*
X131093718Y-167322000D01*
X131093522Y-167321990D01*
X131051810Y-167317882D01*
X131051425Y-167317806D01*
X131017301Y-167307454D01*
X131016939Y-167307304D01*
X130985500Y-167290500D01*
X130985174Y-167290282D01*
X130957613Y-167267664D01*
X130957336Y-167267387D01*
X130934718Y-167239826D01*
X130934500Y-167239500D01*
X130917696Y-167208061D01*
X130917546Y-167207699D01*
X130907194Y-167173575D01*
X130907118Y-167173190D01*
X130903010Y-167131478D01*
X130903000Y-167131282D01*
X130903000Y-167047013D01*
X130904000Y-167045281D01*
X130906000Y-167045281D01*
X130906990Y-167046817D01*
G37*
G36*
X133256165Y-167045387D02*
G01*
X133257000Y-167047013D01*
X133257000Y-167131282D01*
X133256990Y-167131478D01*
X133252882Y-167173190D01*
X133252806Y-167173575D01*
X133242454Y-167207699D01*
X133242304Y-167208061D01*
X133225500Y-167239500D01*
X133225282Y-167239826D01*
X133202664Y-167267387D01*
X133202387Y-167267664D01*
X133174826Y-167290282D01*
X133174500Y-167290500D01*
X133143061Y-167307304D01*
X133142699Y-167307454D01*
X133108575Y-167317806D01*
X133108190Y-167317882D01*
X133066478Y-167321990D01*
X133066282Y-167322000D01*
X132982013Y-167322000D01*
X132980281Y-167321000D01*
X132980281Y-167319000D01*
X132981817Y-167318010D01*
X133034875Y-167312785D01*
X133085712Y-167297363D01*
X133132560Y-167272322D01*
X133173623Y-167238623D01*
X133207322Y-167197560D01*
X133232363Y-167150712D01*
X133247785Y-167099875D01*
X133253010Y-167046817D01*
X133254175Y-167045191D01*
X133256165Y-167045387D01*
G37*
G36*
X131179719Y-165419000D02*
G01*
X131179719Y-165421000D01*
X131178183Y-165421990D01*
X131125125Y-165427215D01*
X131074288Y-165442637D01*
X131027440Y-165467678D01*
X130986377Y-165501377D01*
X130952678Y-165542440D01*
X130927637Y-165589288D01*
X130912215Y-165640125D01*
X130906990Y-165693183D01*
X130905825Y-165694809D01*
X130903835Y-165694613D01*
X130903000Y-165692987D01*
X130903000Y-165608718D01*
X130903010Y-165608522D01*
X130907118Y-165566810D01*
X130907194Y-165566425D01*
X130917546Y-165532301D01*
X130917696Y-165531939D01*
X130934500Y-165500500D01*
X130934718Y-165500174D01*
X130957336Y-165472613D01*
X130957613Y-165472336D01*
X130985174Y-165449718D01*
X130985500Y-165449500D01*
X131016939Y-165432696D01*
X131017301Y-165432546D01*
X131051425Y-165422194D01*
X131051810Y-165422118D01*
X131093522Y-165418010D01*
X131093718Y-165418000D01*
X131177987Y-165418000D01*
X131179719Y-165419000D01*
G37*
G36*
X133066478Y-165418010D02*
G01*
X133108190Y-165422118D01*
X133108575Y-165422194D01*
X133142699Y-165432546D01*
X133143061Y-165432696D01*
X133174500Y-165449500D01*
X133174826Y-165449718D01*
X133202387Y-165472336D01*
X133202664Y-165472613D01*
X133225282Y-165500174D01*
X133225500Y-165500500D01*
X133242304Y-165531939D01*
X133242454Y-165532301D01*
X133252806Y-165566425D01*
X133252882Y-165566810D01*
X133256990Y-165608522D01*
X133257000Y-165608718D01*
X133257000Y-165692987D01*
X133256000Y-165694719D01*
X133254000Y-165694719D01*
X133253010Y-165693183D01*
X133247785Y-165640125D01*
X133232363Y-165589288D01*
X133207322Y-165542440D01*
X133173623Y-165501377D01*
X133132560Y-165467678D01*
X133085712Y-165442637D01*
X133034875Y-165427215D01*
X132981817Y-165421990D01*
X132980191Y-165420825D01*
X132980387Y-165418835D01*
X132982013Y-165418000D01*
X133066282Y-165418000D01*
X133066478Y-165418010D01*
G37*
G36*
X130906990Y-160061817D02*
G01*
X130912215Y-160114875D01*
X130927637Y-160165712D01*
X130952678Y-160212560D01*
X130986377Y-160253623D01*
X131027440Y-160287322D01*
X131074288Y-160312363D01*
X131125125Y-160327785D01*
X131178183Y-160333010D01*
X131179809Y-160334175D01*
X131179613Y-160336165D01*
X131177987Y-160337000D01*
X131093718Y-160337000D01*
X131093522Y-160336990D01*
X131051810Y-160332882D01*
X131051425Y-160332806D01*
X131017301Y-160322454D01*
X131016939Y-160322304D01*
X130985500Y-160305500D01*
X130985174Y-160305282D01*
X130957613Y-160282664D01*
X130957336Y-160282387D01*
X130934718Y-160254826D01*
X130934500Y-160254500D01*
X130917696Y-160223061D01*
X130917546Y-160222699D01*
X130907194Y-160188575D01*
X130907118Y-160188190D01*
X130903010Y-160146478D01*
X130903000Y-160146282D01*
X130903000Y-160062013D01*
X130904000Y-160060281D01*
X130906000Y-160060281D01*
X130906990Y-160061817D01*
G37*
G36*
X133256165Y-160060387D02*
G01*
X133257000Y-160062013D01*
X133257000Y-160146282D01*
X133256990Y-160146478D01*
X133252882Y-160188190D01*
X133252806Y-160188575D01*
X133242454Y-160222699D01*
X133242304Y-160223061D01*
X133225500Y-160254500D01*
X133225282Y-160254826D01*
X133202664Y-160282387D01*
X133202387Y-160282664D01*
X133174826Y-160305282D01*
X133174500Y-160305500D01*
X133143061Y-160322304D01*
X133142699Y-160322454D01*
X133108575Y-160332806D01*
X133108190Y-160332882D01*
X133066478Y-160336990D01*
X133066282Y-160337000D01*
X132982013Y-160337000D01*
X132980281Y-160336000D01*
X132980281Y-160334000D01*
X132981817Y-160333010D01*
X133034875Y-160327785D01*
X133085712Y-160312363D01*
X133132560Y-160287322D01*
X133173623Y-160253623D01*
X133207322Y-160212560D01*
X133232363Y-160165712D01*
X133247785Y-160114875D01*
X133253010Y-160061817D01*
X133254175Y-160060191D01*
X133256165Y-160060387D01*
G37*
G36*
X131179719Y-158434000D02*
G01*
X131179719Y-158436000D01*
X131178183Y-158436990D01*
X131125125Y-158442215D01*
X131074288Y-158457637D01*
X131027440Y-158482678D01*
X130986377Y-158516377D01*
X130952678Y-158557440D01*
X130927637Y-158604288D01*
X130912215Y-158655125D01*
X130906990Y-158708183D01*
X130905825Y-158709809D01*
X130903835Y-158709613D01*
X130903000Y-158707987D01*
X130903000Y-158623718D01*
X130903010Y-158623522D01*
X130907118Y-158581810D01*
X130907194Y-158581425D01*
X130917546Y-158547301D01*
X130917696Y-158546939D01*
X130934500Y-158515500D01*
X130934718Y-158515174D01*
X130957336Y-158487613D01*
X130957613Y-158487336D01*
X130985174Y-158464718D01*
X130985500Y-158464500D01*
X131016939Y-158447696D01*
X131017301Y-158447546D01*
X131051425Y-158437194D01*
X131051810Y-158437118D01*
X131093522Y-158433010D01*
X131093718Y-158433000D01*
X131177987Y-158433000D01*
X131179719Y-158434000D01*
G37*
G36*
X133066478Y-158433010D02*
G01*
X133108190Y-158437118D01*
X133108575Y-158437194D01*
X133142699Y-158447546D01*
X133143061Y-158447696D01*
X133174500Y-158464500D01*
X133174826Y-158464718D01*
X133202387Y-158487336D01*
X133202664Y-158487613D01*
X133225282Y-158515174D01*
X133225500Y-158515500D01*
X133242304Y-158546939D01*
X133242454Y-158547301D01*
X133252806Y-158581425D01*
X133252882Y-158581810D01*
X133256990Y-158623522D01*
X133257000Y-158623718D01*
X133257000Y-158707987D01*
X133256000Y-158709719D01*
X133254000Y-158709719D01*
X133253010Y-158708183D01*
X133247785Y-158655125D01*
X133232363Y-158604288D01*
X133207322Y-158557440D01*
X133173623Y-158516377D01*
X133132560Y-158482678D01*
X133085712Y-158457637D01*
X133034875Y-158442215D01*
X132981817Y-158436990D01*
X132980191Y-158435825D01*
X132980387Y-158433835D01*
X132982013Y-158433000D01*
X133066282Y-158433000D01*
X133066478Y-158433010D01*
G37*
G36*
X130906990Y-149266817D02*
G01*
X130912215Y-149319875D01*
X130927637Y-149370712D01*
X130952678Y-149417560D01*
X130986377Y-149458623D01*
X131027440Y-149492322D01*
X131074288Y-149517363D01*
X131125125Y-149532785D01*
X131178183Y-149538010D01*
X131179809Y-149539175D01*
X131179613Y-149541165D01*
X131177987Y-149542000D01*
X131093718Y-149542000D01*
X131093522Y-149541990D01*
X131051810Y-149537882D01*
X131051425Y-149537806D01*
X131017301Y-149527454D01*
X131016939Y-149527304D01*
X130985500Y-149510500D01*
X130985174Y-149510282D01*
X130957613Y-149487664D01*
X130957336Y-149487387D01*
X130934718Y-149459826D01*
X130934500Y-149459500D01*
X130917696Y-149428061D01*
X130917546Y-149427699D01*
X130907194Y-149393575D01*
X130907118Y-149393190D01*
X130903010Y-149351478D01*
X130903000Y-149351282D01*
X130903000Y-149267013D01*
X130904000Y-149265281D01*
X130906000Y-149265281D01*
X130906990Y-149266817D01*
G37*
G36*
X133256165Y-149265387D02*
G01*
X133257000Y-149267013D01*
X133257000Y-149351282D01*
X133256990Y-149351478D01*
X133252882Y-149393190D01*
X133252806Y-149393575D01*
X133242454Y-149427699D01*
X133242304Y-149428061D01*
X133225500Y-149459500D01*
X133225282Y-149459826D01*
X133202664Y-149487387D01*
X133202387Y-149487664D01*
X133174826Y-149510282D01*
X133174500Y-149510500D01*
X133143061Y-149527304D01*
X133142699Y-149527454D01*
X133108575Y-149537806D01*
X133108190Y-149537882D01*
X133066478Y-149541990D01*
X133066282Y-149542000D01*
X132982013Y-149542000D01*
X132980281Y-149541000D01*
X132980281Y-149539000D01*
X132981817Y-149538010D01*
X133034875Y-149532785D01*
X133085712Y-149517363D01*
X133132560Y-149492322D01*
X133173623Y-149458623D01*
X133207322Y-149417560D01*
X133232363Y-149370712D01*
X133247785Y-149319875D01*
X133253010Y-149266817D01*
X133254175Y-149265191D01*
X133256165Y-149265387D01*
G37*
G36*
X131179719Y-147639000D02*
G01*
X131179719Y-147641000D01*
X131178183Y-147641990D01*
X131125125Y-147647215D01*
X131074288Y-147662637D01*
X131027440Y-147687678D01*
X130986377Y-147721377D01*
X130952678Y-147762440D01*
X130927637Y-147809288D01*
X130912215Y-147860125D01*
X130906990Y-147913183D01*
X130905825Y-147914809D01*
X130903835Y-147914613D01*
X130903000Y-147912987D01*
X130903000Y-147828718D01*
X130903010Y-147828522D01*
X130907118Y-147786810D01*
X130907194Y-147786425D01*
X130917546Y-147752301D01*
X130917696Y-147751939D01*
X130934500Y-147720500D01*
X130934718Y-147720174D01*
X130957336Y-147692613D01*
X130957613Y-147692336D01*
X130985174Y-147669718D01*
X130985500Y-147669500D01*
X131016939Y-147652696D01*
X131017301Y-147652546D01*
X131051425Y-147642194D01*
X131051810Y-147642118D01*
X131093522Y-147638010D01*
X131093718Y-147638000D01*
X131177987Y-147638000D01*
X131179719Y-147639000D01*
G37*
G36*
X133066478Y-147638010D02*
G01*
X133108190Y-147642118D01*
X133108575Y-147642194D01*
X133142699Y-147652546D01*
X133143061Y-147652696D01*
X133174500Y-147669500D01*
X133174826Y-147669718D01*
X133202387Y-147692336D01*
X133202664Y-147692613D01*
X133225282Y-147720174D01*
X133225500Y-147720500D01*
X133242304Y-147751939D01*
X133242454Y-147752301D01*
X133252806Y-147786425D01*
X133252882Y-147786810D01*
X133256990Y-147828522D01*
X133257000Y-147828718D01*
X133257000Y-147912987D01*
X133256000Y-147914719D01*
X133254000Y-147914719D01*
X133253010Y-147913183D01*
X133247785Y-147860125D01*
X133232363Y-147809288D01*
X133207322Y-147762440D01*
X133173623Y-147721377D01*
X133132560Y-147687678D01*
X133085712Y-147662637D01*
X133034875Y-147647215D01*
X132981817Y-147641990D01*
X132980191Y-147640825D01*
X132980387Y-147638835D01*
X132982013Y-147638000D01*
X133066282Y-147638000D01*
X133066478Y-147638010D01*
G37*
G36*
X130906990Y-125771817D02*
G01*
X130912215Y-125824875D01*
X130927637Y-125875712D01*
X130952678Y-125922560D01*
X130986377Y-125963623D01*
X131027440Y-125997322D01*
X131074288Y-126022363D01*
X131125125Y-126037785D01*
X131178183Y-126043010D01*
X131179809Y-126044175D01*
X131179613Y-126046165D01*
X131177987Y-126047000D01*
X131093718Y-126047000D01*
X131093522Y-126046990D01*
X131051810Y-126042882D01*
X131051425Y-126042806D01*
X131017301Y-126032454D01*
X131016939Y-126032304D01*
X130985500Y-126015500D01*
X130985174Y-126015282D01*
X130957613Y-125992664D01*
X130957336Y-125992387D01*
X130934718Y-125964826D01*
X130934500Y-125964500D01*
X130917696Y-125933061D01*
X130917546Y-125932699D01*
X130907194Y-125898575D01*
X130907118Y-125898190D01*
X130903010Y-125856478D01*
X130903000Y-125856282D01*
X130903000Y-125772013D01*
X130904000Y-125770281D01*
X130906000Y-125770281D01*
X130906990Y-125771817D01*
G37*
G36*
X133256165Y-125770387D02*
G01*
X133257000Y-125772013D01*
X133257000Y-125856282D01*
X133256990Y-125856478D01*
X133252882Y-125898190D01*
X133252806Y-125898575D01*
X133242454Y-125932699D01*
X133242304Y-125933061D01*
X133225500Y-125964500D01*
X133225282Y-125964826D01*
X133202664Y-125992387D01*
X133202387Y-125992664D01*
X133174826Y-126015282D01*
X133174500Y-126015500D01*
X133143061Y-126032304D01*
X133142699Y-126032454D01*
X133108575Y-126042806D01*
X133108190Y-126042882D01*
X133066478Y-126046990D01*
X133066282Y-126047000D01*
X132982013Y-126047000D01*
X132980281Y-126046000D01*
X132980281Y-126044000D01*
X132981817Y-126043010D01*
X133034875Y-126037785D01*
X133085712Y-126022363D01*
X133132560Y-125997322D01*
X133173623Y-125963623D01*
X133207322Y-125922560D01*
X133232363Y-125875712D01*
X133247785Y-125824875D01*
X133253010Y-125771817D01*
X133254175Y-125770191D01*
X133256165Y-125770387D01*
G37*
G36*
X131179719Y-124144000D02*
G01*
X131179719Y-124146000D01*
X131178183Y-124146990D01*
X131125125Y-124152215D01*
X131074288Y-124167637D01*
X131027440Y-124192678D01*
X130986377Y-124226377D01*
X130952678Y-124267440D01*
X130927637Y-124314288D01*
X130912215Y-124365125D01*
X130906990Y-124418183D01*
X130905825Y-124419809D01*
X130903835Y-124419613D01*
X130903000Y-124417987D01*
X130903000Y-124333718D01*
X130903010Y-124333522D01*
X130907118Y-124291810D01*
X130907194Y-124291425D01*
X130917546Y-124257301D01*
X130917696Y-124256939D01*
X130934500Y-124225500D01*
X130934718Y-124225174D01*
X130957336Y-124197613D01*
X130957613Y-124197336D01*
X130985174Y-124174718D01*
X130985500Y-124174500D01*
X131016939Y-124157696D01*
X131017301Y-124157546D01*
X131051425Y-124147194D01*
X131051810Y-124147118D01*
X131093522Y-124143010D01*
X131093718Y-124143000D01*
X131177987Y-124143000D01*
X131179719Y-124144000D01*
G37*
G36*
X133066478Y-124143010D02*
G01*
X133108190Y-124147118D01*
X133108575Y-124147194D01*
X133142699Y-124157546D01*
X133143061Y-124157696D01*
X133174500Y-124174500D01*
X133174826Y-124174718D01*
X133202387Y-124197336D01*
X133202664Y-124197613D01*
X133225282Y-124225174D01*
X133225500Y-124225500D01*
X133242304Y-124256939D01*
X133242454Y-124257301D01*
X133252806Y-124291425D01*
X133252882Y-124291810D01*
X133256990Y-124333522D01*
X133257000Y-124333718D01*
X133257000Y-124417987D01*
X133256000Y-124419719D01*
X133254000Y-124419719D01*
X133253010Y-124418183D01*
X133247785Y-124365125D01*
X133232363Y-124314288D01*
X133207322Y-124267440D01*
X133173623Y-124226377D01*
X133132560Y-124192678D01*
X133085712Y-124167637D01*
X133034875Y-124152215D01*
X132981817Y-124146990D01*
X132980191Y-124145825D01*
X132980387Y-124143835D01*
X132982013Y-124143000D01*
X133066282Y-124143000D01*
X133066478Y-124143010D01*
G37*
G36*
X64986298Y-109676282D02*
G01*
X65056305Y-109781055D01*
X65178008Y-109902758D01*
X65196964Y-109915424D01*
X65197849Y-109917218D01*
X65196738Y-109918881D01*
X65194910Y-109918851D01*
X65178632Y-109910150D01*
X65155181Y-109903036D01*
X65130800Y-109900635D01*
X65106419Y-109903036D01*
X65082969Y-109910150D01*
X65061359Y-109921700D01*
X65042419Y-109937244D01*
X65026875Y-109956184D01*
X65015325Y-109977793D01*
X65009969Y-109995450D01*
X65008509Y-109996817D01*
X65006595Y-109996236D01*
X65006093Y-109994479D01*
X65008763Y-109981056D01*
X65008763Y-109808944D01*
X64982673Y-109677783D01*
X64983316Y-109675889D01*
X64985278Y-109675499D01*
X64986298Y-109676282D01*
G37*
G36*
X77686298Y-109676282D02*
G01*
X77756305Y-109781055D01*
X77878008Y-109902758D01*
X77896964Y-109915424D01*
X77897849Y-109917218D01*
X77896738Y-109918881D01*
X77894910Y-109918851D01*
X77878632Y-109910150D01*
X77855181Y-109903036D01*
X77830800Y-109900635D01*
X77806419Y-109903036D01*
X77782969Y-109910150D01*
X77761359Y-109921700D01*
X77742419Y-109937244D01*
X77726875Y-109956184D01*
X77715325Y-109977793D01*
X77709969Y-109995450D01*
X77708509Y-109996817D01*
X77706595Y-109996236D01*
X77706093Y-109994479D01*
X77708763Y-109981056D01*
X77708763Y-109808944D01*
X77682673Y-109677783D01*
X77683316Y-109675889D01*
X77685278Y-109675499D01*
X77686298Y-109676282D01*
G37*
G36*
X91351298Y-109640345D02*
G01*
X91421305Y-109745118D01*
X91543008Y-109866821D01*
X91561964Y-109879487D01*
X91562849Y-109881281D01*
X91561738Y-109882944D01*
X91559910Y-109882914D01*
X91543632Y-109874213D01*
X91520181Y-109867099D01*
X91495800Y-109864698D01*
X91471419Y-109867099D01*
X91447969Y-109874213D01*
X91426359Y-109885763D01*
X91407419Y-109901307D01*
X91391875Y-109920247D01*
X91380325Y-109941856D01*
X91374969Y-109959513D01*
X91373509Y-109960880D01*
X91371595Y-109960299D01*
X91371093Y-109958542D01*
X91373763Y-109945119D01*
X91373763Y-109773007D01*
X91347673Y-109641846D01*
X91348316Y-109639952D01*
X91350278Y-109639562D01*
X91351298Y-109640345D01*
G37*
G36*
X103416298Y-109640345D02*
G01*
X103486305Y-109745118D01*
X103608008Y-109866821D01*
X103626964Y-109879487D01*
X103627849Y-109881281D01*
X103626738Y-109882944D01*
X103624910Y-109882914D01*
X103608632Y-109874213D01*
X103585181Y-109867099D01*
X103560800Y-109864698D01*
X103536419Y-109867099D01*
X103512969Y-109874213D01*
X103491359Y-109885763D01*
X103472419Y-109901307D01*
X103456875Y-109920247D01*
X103445325Y-109941856D01*
X103439969Y-109959513D01*
X103438509Y-109960880D01*
X103436595Y-109960299D01*
X103436093Y-109958542D01*
X103438763Y-109945119D01*
X103438763Y-109773007D01*
X103412673Y-109641846D01*
X103413316Y-109639952D01*
X103415278Y-109639562D01*
X103416298Y-109640345D01*
G37*
G36*
X77563405Y-109122827D02*
G01*
X77563907Y-109124584D01*
X77561237Y-109138007D01*
X77561237Y-109310119D01*
X77587327Y-109441280D01*
X77586684Y-109443174D01*
X77584722Y-109443564D01*
X77583702Y-109442781D01*
X77513695Y-109338008D01*
X77391992Y-109216305D01*
X77373036Y-109203639D01*
X77372151Y-109201845D01*
X77373262Y-109200182D01*
X77375090Y-109200212D01*
X77391368Y-109208913D01*
X77414819Y-109216027D01*
X77439200Y-109218428D01*
X77463581Y-109216027D01*
X77487031Y-109208913D01*
X77508641Y-109197363D01*
X77527581Y-109181819D01*
X77543125Y-109162879D01*
X77554675Y-109141270D01*
X77560031Y-109123613D01*
X77561491Y-109122246D01*
X77563405Y-109122827D01*
G37*
G36*
X64863405Y-109122827D02*
G01*
X64863907Y-109124584D01*
X64861237Y-109138007D01*
X64861237Y-109310119D01*
X64887327Y-109441280D01*
X64886684Y-109443174D01*
X64884722Y-109443564D01*
X64883702Y-109442781D01*
X64813695Y-109338008D01*
X64691992Y-109216305D01*
X64673036Y-109203639D01*
X64672151Y-109201845D01*
X64673262Y-109200182D01*
X64675090Y-109200212D01*
X64691368Y-109208913D01*
X64714819Y-109216027D01*
X64739200Y-109218428D01*
X64763581Y-109216027D01*
X64787031Y-109208913D01*
X64808641Y-109197363D01*
X64827581Y-109181819D01*
X64843125Y-109162879D01*
X64854675Y-109141270D01*
X64860031Y-109123613D01*
X64861491Y-109122246D01*
X64863405Y-109122827D01*
G37*
G36*
X103293405Y-109086890D02*
G01*
X103293907Y-109088647D01*
X103291237Y-109102070D01*
X103291237Y-109274182D01*
X103317327Y-109405343D01*
X103316684Y-109407237D01*
X103314722Y-109407627D01*
X103313702Y-109406844D01*
X103243695Y-109302071D01*
X103121992Y-109180368D01*
X103103036Y-109167702D01*
X103102151Y-109165908D01*
X103103262Y-109164245D01*
X103105090Y-109164275D01*
X103121368Y-109172976D01*
X103144819Y-109180090D01*
X103169200Y-109182491D01*
X103193581Y-109180090D01*
X103217031Y-109172976D01*
X103238641Y-109161426D01*
X103257581Y-109145882D01*
X103273125Y-109126942D01*
X103284675Y-109105333D01*
X103290031Y-109087676D01*
X103291491Y-109086309D01*
X103293405Y-109086890D01*
G37*
G36*
X91228405Y-109086890D02*
G01*
X91228907Y-109088647D01*
X91226237Y-109102070D01*
X91226237Y-109274182D01*
X91252327Y-109405343D01*
X91251684Y-109407237D01*
X91249722Y-109407627D01*
X91248702Y-109406844D01*
X91178695Y-109302071D01*
X91056992Y-109180368D01*
X91038036Y-109167702D01*
X91037151Y-109165908D01*
X91038262Y-109164245D01*
X91040090Y-109164275D01*
X91056368Y-109172976D01*
X91079819Y-109180090D01*
X91104200Y-109182491D01*
X91128581Y-109180090D01*
X91152031Y-109172976D01*
X91173641Y-109161426D01*
X91192581Y-109145882D01*
X91208125Y-109126942D01*
X91219675Y-109105333D01*
X91225031Y-109087676D01*
X91226491Y-109086309D01*
X91228405Y-109086890D01*
G37*
G36*
X133256165Y-82590387D02*
G01*
X133257000Y-82592013D01*
X133257000Y-82676282D01*
X133256990Y-82676478D01*
X133252882Y-82718190D01*
X133252806Y-82718575D01*
X133242454Y-82752699D01*
X133242304Y-82753061D01*
X133225500Y-82784500D01*
X133225282Y-82784826D01*
X133202664Y-82812387D01*
X133202387Y-82812664D01*
X133174826Y-82835282D01*
X133174500Y-82835500D01*
X133143061Y-82852304D01*
X133142699Y-82852454D01*
X133108575Y-82862806D01*
X133108190Y-82862882D01*
X133066478Y-82866990D01*
X133066282Y-82867000D01*
X132982013Y-82867000D01*
X132980281Y-82866000D01*
X132980281Y-82864000D01*
X132981817Y-82863010D01*
X133034875Y-82857785D01*
X133085712Y-82842363D01*
X133132560Y-82817322D01*
X133173623Y-82783623D01*
X133207322Y-82742560D01*
X133232363Y-82695712D01*
X133247785Y-82644875D01*
X133253010Y-82591817D01*
X133254175Y-82590191D01*
X133256165Y-82590387D01*
G37*
G36*
X130906990Y-82591817D02*
G01*
X130912215Y-82644875D01*
X130927637Y-82695712D01*
X130952678Y-82742560D01*
X130986377Y-82783623D01*
X131027440Y-82817322D01*
X131074288Y-82842363D01*
X131125125Y-82857785D01*
X131178183Y-82863010D01*
X131179809Y-82864175D01*
X131179613Y-82866165D01*
X131177987Y-82867000D01*
X131093718Y-82867000D01*
X131093522Y-82866990D01*
X131051810Y-82862882D01*
X131051425Y-82862806D01*
X131017301Y-82852454D01*
X131016939Y-82852304D01*
X130985500Y-82835500D01*
X130985174Y-82835282D01*
X130957613Y-82812664D01*
X130957336Y-82812387D01*
X130934718Y-82784826D01*
X130934500Y-82784500D01*
X130917696Y-82753061D01*
X130917546Y-82752699D01*
X130907194Y-82718575D01*
X130907118Y-82718190D01*
X130903010Y-82676478D01*
X130903000Y-82676282D01*
X130903000Y-82592013D01*
X130904000Y-82590281D01*
X130906000Y-82590281D01*
X130906990Y-82591817D01*
G37*
G36*
X131179719Y-80964000D02*
G01*
X131179719Y-80966000D01*
X131178183Y-80966990D01*
X131125125Y-80972215D01*
X131074288Y-80987637D01*
X131027440Y-81012678D01*
X130986377Y-81046377D01*
X130952678Y-81087440D01*
X130927637Y-81134288D01*
X130912215Y-81185125D01*
X130906990Y-81238183D01*
X130905825Y-81239809D01*
X130903835Y-81239613D01*
X130903000Y-81237987D01*
X130903000Y-81153718D01*
X130903010Y-81153522D01*
X130907118Y-81111810D01*
X130907194Y-81111425D01*
X130917546Y-81077301D01*
X130917696Y-81076939D01*
X130934500Y-81045500D01*
X130934718Y-81045174D01*
X130957336Y-81017613D01*
X130957613Y-81017336D01*
X130985174Y-80994718D01*
X130985500Y-80994500D01*
X131016939Y-80977696D01*
X131017301Y-80977546D01*
X131051425Y-80967194D01*
X131051810Y-80967118D01*
X131093522Y-80963010D01*
X131093718Y-80963000D01*
X131177987Y-80963000D01*
X131179719Y-80964000D01*
G37*
G36*
X133066478Y-80963010D02*
G01*
X133108190Y-80967118D01*
X133108575Y-80967194D01*
X133142699Y-80977546D01*
X133143061Y-80977696D01*
X133174500Y-80994500D01*
X133174826Y-80994718D01*
X133202387Y-81017336D01*
X133202664Y-81017613D01*
X133225282Y-81045174D01*
X133225500Y-81045500D01*
X133242304Y-81076939D01*
X133242454Y-81077301D01*
X133252806Y-81111425D01*
X133252882Y-81111810D01*
X133256990Y-81153522D01*
X133257000Y-81153718D01*
X133257000Y-81237987D01*
X133256000Y-81239719D01*
X133254000Y-81239719D01*
X133253010Y-81238183D01*
X133247785Y-81185125D01*
X133232363Y-81134288D01*
X133207322Y-81087440D01*
X133173623Y-81046377D01*
X133132560Y-81012678D01*
X133085712Y-80987637D01*
X133034875Y-80972215D01*
X132981817Y-80966990D01*
X132980191Y-80965825D01*
X132980387Y-80963835D01*
X132982013Y-80963000D01*
X133066282Y-80963000D01*
X133066478Y-80963010D01*
G37*
G36*
X51116165Y-30110387D02*
G01*
X51117000Y-30112013D01*
X51117000Y-30196282D01*
X51116990Y-30196478D01*
X51112882Y-30238190D01*
X51112806Y-30238575D01*
X51102454Y-30272699D01*
X51102304Y-30273061D01*
X51085500Y-30304500D01*
X51085282Y-30304826D01*
X51062664Y-30332387D01*
X51062387Y-30332664D01*
X51034826Y-30355282D01*
X51034500Y-30355500D01*
X51003061Y-30372304D01*
X51002699Y-30372454D01*
X50968575Y-30382806D01*
X50968190Y-30382882D01*
X50926478Y-30386990D01*
X50926282Y-30387000D01*
X50842013Y-30387000D01*
X50840281Y-30386000D01*
X50840281Y-30384000D01*
X50841817Y-30383010D01*
X50894875Y-30377785D01*
X50945712Y-30362363D01*
X50992560Y-30337322D01*
X51033623Y-30303623D01*
X51067322Y-30262560D01*
X51092363Y-30215712D01*
X51107785Y-30164875D01*
X51113010Y-30111817D01*
X51114175Y-30110191D01*
X51116165Y-30110387D01*
G37*
G36*
X49216990Y-30111817D02*
G01*
X49222215Y-30164875D01*
X49237637Y-30215712D01*
X49262678Y-30262560D01*
X49296377Y-30303623D01*
X49337440Y-30337322D01*
X49384288Y-30362363D01*
X49435125Y-30377785D01*
X49488183Y-30383010D01*
X49489809Y-30384175D01*
X49489613Y-30386165D01*
X49487987Y-30387000D01*
X49403718Y-30387000D01*
X49403522Y-30386990D01*
X49361810Y-30382882D01*
X49361425Y-30382806D01*
X49327301Y-30372454D01*
X49326939Y-30372304D01*
X49295500Y-30355500D01*
X49295174Y-30355282D01*
X49267613Y-30332664D01*
X49267336Y-30332387D01*
X49244718Y-30304826D01*
X49244500Y-30304500D01*
X49227696Y-30273061D01*
X49227546Y-30272699D01*
X49217194Y-30238575D01*
X49217118Y-30238190D01*
X49213010Y-30196478D01*
X49213000Y-30196282D01*
X49213000Y-30112013D01*
X49214000Y-30110281D01*
X49216000Y-30110281D01*
X49216990Y-30111817D01*
G37*
G36*
X49489719Y-28034000D02*
G01*
X49489719Y-28036000D01*
X49488183Y-28036990D01*
X49435125Y-28042215D01*
X49384288Y-28057637D01*
X49337440Y-28082678D01*
X49296377Y-28116377D01*
X49262678Y-28157440D01*
X49237637Y-28204288D01*
X49222215Y-28255125D01*
X49216990Y-28308183D01*
X49215825Y-28309809D01*
X49213835Y-28309613D01*
X49213000Y-28307987D01*
X49213000Y-28223716D01*
X49213010Y-28223520D01*
X49217118Y-28181810D01*
X49217194Y-28181425D01*
X49227546Y-28147301D01*
X49227696Y-28146939D01*
X49244500Y-28115500D01*
X49244718Y-28115174D01*
X49267336Y-28087613D01*
X49267613Y-28087336D01*
X49295174Y-28064718D01*
X49295500Y-28064500D01*
X49326939Y-28047696D01*
X49327301Y-28047546D01*
X49361425Y-28037194D01*
X49361810Y-28037118D01*
X49403522Y-28033010D01*
X49403718Y-28033000D01*
X49487987Y-28033000D01*
X49489719Y-28034000D01*
G37*
G36*
X50926478Y-28033010D02*
G01*
X50968190Y-28037118D01*
X50968575Y-28037194D01*
X51002699Y-28047546D01*
X51003061Y-28047696D01*
X51034500Y-28064500D01*
X51034826Y-28064718D01*
X51062387Y-28087336D01*
X51062664Y-28087613D01*
X51085282Y-28115174D01*
X51085500Y-28115500D01*
X51102304Y-28146939D01*
X51102454Y-28147301D01*
X51112806Y-28181425D01*
X51112882Y-28181810D01*
X51116990Y-28223520D01*
X51117000Y-28223716D01*
X51117000Y-28307987D01*
X51116000Y-28309719D01*
X51114000Y-28309719D01*
X51113010Y-28308183D01*
X51107785Y-28255125D01*
X51092363Y-28204288D01*
X51067322Y-28157440D01*
X51033623Y-28116377D01*
X50992560Y-28082678D01*
X50945712Y-28057637D01*
X50894875Y-28042215D01*
X50841817Y-28036990D01*
X50840191Y-28035825D01*
X50840387Y-28033835D01*
X50842013Y-28033000D01*
X50926282Y-28033000D01*
X50926478Y-28033010D01*
G37*
M02*
