G04 #@! TF.GenerationSoftware,KiCad,Pcbnew,(5.1.7)-1*
G04 #@! TF.CreationDate,2020-12-28T01:09:54+01:00*
G04 #@! TF.ProjectId,EinTaktReset,45696e54-616b-4745-9265-7365742e6b69,rev?*
G04 #@! TF.SameCoordinates,Original*
G04 #@! TF.FileFunction,Legend,Top*
G04 #@! TF.FilePolarity,Positive*
%FSLAX46Y46*%
G04 Gerber Fmt 4.6, Leading zero omitted, Abs format (unit mm)*
G04 Created by KiCad (PCBNEW (5.1.7)-1) date 2020-12-28 01:09:54*
%MOMM*%
%LPD*%
G01*
G04 APERTURE LIST*
%ADD10C,0.170000*%
%ADD11C,0.250000*%
%ADD12C,0.400000*%
%ADD13C,0.500000*%
%ADD14C,0.120000*%
%ADD15C,0.378460*%
%ADD16C,0.100000*%
G04 APERTURE END LIST*
D10*
X123397595Y-152729000D02*
X124016642Y-152729000D01*
X123635690Y-154122380D02*
X123635690Y-153455714D01*
X123635690Y-153646190D02*
X123683309Y-153550952D01*
X123730928Y-153503333D01*
X123826166Y-153455714D01*
X123921404Y-153455714D01*
X124016642Y-152729000D02*
X124873785Y-152729000D01*
X124635690Y-154074761D02*
X124540452Y-154122380D01*
X124349976Y-154122380D01*
X124254738Y-154074761D01*
X124207119Y-153979523D01*
X124207119Y-153598571D01*
X124254738Y-153503333D01*
X124349976Y-153455714D01*
X124540452Y-153455714D01*
X124635690Y-153503333D01*
X124683309Y-153598571D01*
X124683309Y-153693809D01*
X124207119Y-153789047D01*
X124873785Y-152729000D02*
X125778547Y-152729000D01*
X125540452Y-154122380D02*
X125540452Y-153598571D01*
X125492833Y-153503333D01*
X125397595Y-153455714D01*
X125207119Y-153455714D01*
X125111880Y-153503333D01*
X125540452Y-154074761D02*
X125445214Y-154122380D01*
X125207119Y-154122380D01*
X125111880Y-154074761D01*
X125064261Y-153979523D01*
X125064261Y-153884285D01*
X125111880Y-153789047D01*
X125207119Y-153741428D01*
X125445214Y-153741428D01*
X125540452Y-153693809D01*
X125778547Y-152729000D02*
X126683309Y-152729000D01*
X126445214Y-154122380D02*
X126445214Y-153122380D01*
X126445214Y-154074761D02*
X126349976Y-154122380D01*
X126159500Y-154122380D01*
X126064261Y-154074761D01*
X126016642Y-154027142D01*
X125969023Y-153931904D01*
X125969023Y-153646190D01*
X126016642Y-153550952D01*
X126064261Y-153503333D01*
X126159500Y-153455714D01*
X126349976Y-153455714D01*
X126445214Y-153503333D01*
X126683309Y-152729000D02*
X127159500Y-152729000D01*
X126921404Y-154122380D02*
X126921404Y-153122380D01*
X127159500Y-152729000D02*
X128159500Y-152729000D01*
X127969023Y-154122380D02*
X127635690Y-153646190D01*
X127397595Y-154122380D02*
X127397595Y-153122380D01*
X127778547Y-153122380D01*
X127873785Y-153170000D01*
X127921404Y-153217619D01*
X127969023Y-153312857D01*
X127969023Y-153455714D01*
X127921404Y-153550952D01*
X127873785Y-153598571D01*
X127778547Y-153646190D01*
X127397595Y-153646190D01*
X121111880Y-150189000D02*
X122159500Y-150189000D01*
X121254738Y-150915714D02*
X121445214Y-151582380D01*
X121635690Y-151106190D01*
X121826166Y-151582380D01*
X122016642Y-150915714D01*
X122159500Y-150189000D02*
X122778547Y-150189000D01*
X122397595Y-151582380D02*
X122397595Y-150915714D01*
X122397595Y-151106190D02*
X122445214Y-151010952D01*
X122492833Y-150963333D01*
X122588071Y-150915714D01*
X122683309Y-150915714D01*
X122778547Y-150189000D02*
X123254738Y-150189000D01*
X123016642Y-151582380D02*
X123016642Y-150915714D01*
X123016642Y-150582380D02*
X122969023Y-150630000D01*
X123016642Y-150677619D01*
X123064261Y-150630000D01*
X123016642Y-150582380D01*
X123016642Y-150677619D01*
X123254738Y-150189000D02*
X123826166Y-150189000D01*
X123349976Y-150915714D02*
X123730928Y-150915714D01*
X123492833Y-150582380D02*
X123492833Y-151439523D01*
X123540452Y-151534761D01*
X123635690Y-151582380D01*
X123730928Y-151582380D01*
X123826166Y-150189000D02*
X124683309Y-150189000D01*
X124445214Y-151534761D02*
X124349976Y-151582380D01*
X124159500Y-151582380D01*
X124064261Y-151534761D01*
X124016642Y-151439523D01*
X124016642Y-151058571D01*
X124064261Y-150963333D01*
X124159500Y-150915714D01*
X124349976Y-150915714D01*
X124445214Y-150963333D01*
X124492833Y-151058571D01*
X124492833Y-151153809D01*
X124016642Y-151249047D01*
X124683309Y-150189000D02*
X125540452Y-150189000D01*
X124873785Y-151296666D02*
X125349976Y-151296666D01*
X124778547Y-151582380D02*
X125111880Y-150582380D01*
X125445214Y-151582380D01*
X125540452Y-150189000D02*
X126397595Y-150189000D01*
X126207119Y-151534761D02*
X126111880Y-151582380D01*
X125921404Y-151582380D01*
X125826166Y-151534761D01*
X125778547Y-151487142D01*
X125730928Y-151391904D01*
X125730928Y-151106190D01*
X125778547Y-151010952D01*
X125826166Y-150963333D01*
X125921404Y-150915714D01*
X126111880Y-150915714D01*
X126207119Y-150963333D01*
X126397595Y-150189000D02*
X127254738Y-150189000D01*
X127064261Y-151534761D02*
X126969023Y-151582380D01*
X126778547Y-151582380D01*
X126683309Y-151534761D01*
X126635690Y-151487142D01*
X126588071Y-151391904D01*
X126588071Y-151106190D01*
X126635690Y-151010952D01*
X126683309Y-150963333D01*
X126778547Y-150915714D01*
X126969023Y-150915714D01*
X127064261Y-150963333D01*
X127254738Y-150189000D02*
X128159500Y-150189000D01*
X127921404Y-150915714D02*
X127921404Y-151582380D01*
X127492833Y-150915714D02*
X127492833Y-151439523D01*
X127540452Y-151534761D01*
X127635690Y-151582380D01*
X127778547Y-151582380D01*
X127873785Y-151534761D01*
X127921404Y-151487142D01*
X123016642Y-147649000D02*
X123873785Y-147649000D01*
X123683309Y-148994761D02*
X123588071Y-149042380D01*
X123397595Y-149042380D01*
X123302357Y-148994761D01*
X123254738Y-148947142D01*
X123207119Y-148851904D01*
X123207119Y-148566190D01*
X123254738Y-148470952D01*
X123302357Y-148423333D01*
X123397595Y-148375714D01*
X123588071Y-148375714D01*
X123683309Y-148423333D01*
X123873785Y-147649000D02*
X124397595Y-147649000D01*
X124254738Y-149042380D02*
X124159500Y-148994761D01*
X124111880Y-148899523D01*
X124111880Y-148042380D01*
X124397595Y-147649000D02*
X125016642Y-147649000D01*
X124635690Y-149042380D02*
X124635690Y-148375714D01*
X124635690Y-148566190D02*
X124683309Y-148470952D01*
X124730928Y-148423333D01*
X124826166Y-148375714D01*
X124921404Y-148375714D01*
X125016642Y-147649000D02*
X126159500Y-147649000D01*
X125254738Y-149042380D02*
X125254738Y-148042380D01*
X125588071Y-148756666D01*
X125921404Y-148042380D01*
X125921404Y-149042380D01*
X126159500Y-147649000D02*
X127159500Y-147649000D01*
X126397595Y-149042380D02*
X126397595Y-148042380D01*
X126778547Y-148042380D01*
X126873785Y-148090000D01*
X126921404Y-148137619D01*
X126969023Y-148232857D01*
X126969023Y-148375714D01*
X126921404Y-148470952D01*
X126873785Y-148518571D01*
X126778547Y-148566190D01*
X126397595Y-148566190D01*
X127159500Y-147649000D02*
X128159500Y-147649000D01*
X127969023Y-148947142D02*
X127921404Y-148994761D01*
X127778547Y-149042380D01*
X127683309Y-149042380D01*
X127540452Y-148994761D01*
X127445214Y-148899523D01*
X127397595Y-148804285D01*
X127349976Y-148613809D01*
X127349976Y-148470952D01*
X127397595Y-148280476D01*
X127445214Y-148185238D01*
X127540452Y-148090000D01*
X127683309Y-148042380D01*
X127778547Y-148042380D01*
X127921404Y-148090000D01*
X127969023Y-148137619D01*
X130246666Y-93039000D02*
X131103809Y-93039000D01*
X130865714Y-94384761D02*
X130770476Y-94432380D01*
X130580000Y-94432380D01*
X130484761Y-94384761D01*
X130437142Y-94289523D01*
X130437142Y-93908571D01*
X130484761Y-93813333D01*
X130580000Y-93765714D01*
X130770476Y-93765714D01*
X130865714Y-93813333D01*
X130913333Y-93908571D01*
X130913333Y-94003809D01*
X130437142Y-94099047D01*
X131103809Y-93039000D02*
X132008571Y-93039000D01*
X131341904Y-93765714D02*
X131341904Y-94432380D01*
X131341904Y-93860952D02*
X131389523Y-93813333D01*
X131484761Y-93765714D01*
X131627619Y-93765714D01*
X131722857Y-93813333D01*
X131770476Y-93908571D01*
X131770476Y-94432380D01*
X132008571Y-93039000D02*
X133008571Y-93039000D01*
X132818095Y-94337142D02*
X132770476Y-94384761D01*
X132627619Y-94432380D01*
X132532380Y-94432380D01*
X132389523Y-94384761D01*
X132294285Y-94289523D01*
X132246666Y-94194285D01*
X132199047Y-94003809D01*
X132199047Y-93860952D01*
X132246666Y-93670476D01*
X132294285Y-93575238D01*
X132389523Y-93480000D01*
X132532380Y-93432380D01*
X132627619Y-93432380D01*
X132770476Y-93480000D01*
X132818095Y-93527619D01*
X133008571Y-93039000D02*
X133913333Y-93039000D01*
X133675238Y-93765714D02*
X133675238Y-94432380D01*
X133246666Y-93765714D02*
X133246666Y-94289523D01*
X133294285Y-94384761D01*
X133389523Y-94432380D01*
X133532380Y-94432380D01*
X133627619Y-94384761D01*
X133675238Y-94337142D01*
X129841904Y-91134000D02*
X130699047Y-91134000D01*
X130460952Y-92479761D02*
X130365714Y-92527380D01*
X130175238Y-92527380D01*
X130080000Y-92479761D01*
X130032380Y-92384523D01*
X130032380Y-92003571D01*
X130080000Y-91908333D01*
X130175238Y-91860714D01*
X130365714Y-91860714D01*
X130460952Y-91908333D01*
X130508571Y-92003571D01*
X130508571Y-92098809D01*
X130032380Y-92194047D01*
X130699047Y-91134000D02*
X131603809Y-91134000D01*
X130937142Y-91860714D02*
X130937142Y-92527380D01*
X130937142Y-91955952D02*
X130984761Y-91908333D01*
X131080000Y-91860714D01*
X131222857Y-91860714D01*
X131318095Y-91908333D01*
X131365714Y-92003571D01*
X131365714Y-92527380D01*
X131603809Y-91134000D02*
X132603809Y-91134000D01*
X131841904Y-92527380D02*
X131841904Y-91527380D01*
X132080000Y-91527380D01*
X132222857Y-91575000D01*
X132318095Y-91670238D01*
X132365714Y-91765476D01*
X132413333Y-91955952D01*
X132413333Y-92098809D01*
X132365714Y-92289285D01*
X132318095Y-92384523D01*
X132222857Y-92479761D01*
X132080000Y-92527380D01*
X131841904Y-92527380D01*
X132603809Y-91134000D02*
X133460952Y-91134000D01*
X133222857Y-92479761D02*
X133127619Y-92527380D01*
X132937142Y-92527380D01*
X132841904Y-92479761D01*
X132794285Y-92384523D01*
X132794285Y-92003571D01*
X132841904Y-91908333D01*
X132937142Y-91860714D01*
X133127619Y-91860714D01*
X133222857Y-91908333D01*
X133270476Y-92003571D01*
X133270476Y-92098809D01*
X132794285Y-92194047D01*
X133460952Y-91134000D02*
X134318095Y-91134000D01*
X134127619Y-92479761D02*
X134032380Y-92527380D01*
X133841904Y-92527380D01*
X133746666Y-92479761D01*
X133699047Y-92432142D01*
X133651428Y-92336904D01*
X133651428Y-92051190D01*
X133699047Y-91955952D01*
X133746666Y-91908333D01*
X133841904Y-91860714D01*
X134032380Y-91860714D01*
X134127619Y-91908333D01*
X131484761Y-90527142D02*
X131437142Y-90574761D01*
X131294285Y-90622380D01*
X131199047Y-90622380D01*
X131056190Y-90574761D01*
X130960952Y-90479523D01*
X130913333Y-90384285D01*
X130865714Y-90193809D01*
X130865714Y-90050952D01*
X130913333Y-89860476D01*
X130960952Y-89765238D01*
X131056190Y-89670000D01*
X131199047Y-89622380D01*
X131294285Y-89622380D01*
X131437142Y-89670000D01*
X131484761Y-89717619D01*
X132389523Y-90622380D02*
X131913333Y-90622380D01*
X131913333Y-89622380D01*
X132722857Y-90622380D02*
X132722857Y-89622380D01*
X133294285Y-90622380D02*
X132865714Y-90050952D01*
X133294285Y-89622380D02*
X132722857Y-90193809D01*
D11*
X49593571Y-24872142D02*
X50736428Y-24872142D01*
X52133571Y-24872142D02*
X53276428Y-24872142D01*
X52705000Y-25443571D02*
X52705000Y-24300714D01*
X130572142Y-115383571D02*
X131429285Y-115383571D01*
X131000714Y-116883571D02*
X131000714Y-115383571D01*
X132572142Y-116883571D02*
X132572142Y-116097857D01*
X132500714Y-115955000D01*
X132357857Y-115883571D01*
X132072142Y-115883571D01*
X131929285Y-115955000D01*
X132572142Y-116812142D02*
X132429285Y-116883571D01*
X132072142Y-116883571D01*
X131929285Y-116812142D01*
X131857857Y-116669285D01*
X131857857Y-116526428D01*
X131929285Y-116383571D01*
X132072142Y-116312142D01*
X132429285Y-116312142D01*
X132572142Y-116240714D01*
X133286428Y-116883571D02*
X133286428Y-115383571D01*
X133429285Y-116312142D02*
X133857857Y-116883571D01*
X133857857Y-115883571D02*
X133286428Y-116455000D01*
X134286428Y-115883571D02*
X134857857Y-115883571D01*
X134500714Y-115383571D02*
X134500714Y-116669285D01*
X134572142Y-116812142D01*
X134715000Y-116883571D01*
X134857857Y-116883571D01*
D12*
X107315000Y-52705000D02*
X106045000Y-53975000D01*
X108585000Y-53975000D02*
X107315000Y-52705000D01*
X107315000Y-57150000D02*
X107315000Y-52705000D01*
D10*
X124873785Y-129234000D02*
X125778547Y-129234000D01*
X125540452Y-130627380D02*
X125540452Y-130103571D01*
X125492833Y-130008333D01*
X125397595Y-129960714D01*
X125207119Y-129960714D01*
X125111880Y-130008333D01*
X125540452Y-130579761D02*
X125445214Y-130627380D01*
X125207119Y-130627380D01*
X125111880Y-130579761D01*
X125064261Y-130484523D01*
X125064261Y-130389285D01*
X125111880Y-130294047D01*
X125207119Y-130246428D01*
X125445214Y-130246428D01*
X125540452Y-130198809D01*
X125778547Y-129234000D02*
X126683309Y-129234000D01*
X126445214Y-129960714D02*
X126445214Y-130627380D01*
X126016642Y-129960714D02*
X126016642Y-130484523D01*
X126064261Y-130579761D01*
X126159500Y-130627380D01*
X126302357Y-130627380D01*
X126397595Y-130579761D01*
X126445214Y-130532142D01*
X126683309Y-129234000D02*
X127254738Y-129234000D01*
X126778547Y-129960714D02*
X127159500Y-129960714D01*
X126921404Y-129627380D02*
X126921404Y-130484523D01*
X126969023Y-130579761D01*
X127064261Y-130627380D01*
X127159500Y-130627380D01*
X127254738Y-129234000D02*
X128159500Y-129234000D01*
X127635690Y-130627380D02*
X127540452Y-130579761D01*
X127492833Y-130532142D01*
X127445214Y-130436904D01*
X127445214Y-130151190D01*
X127492833Y-130055952D01*
X127540452Y-130008333D01*
X127635690Y-129960714D01*
X127778547Y-129960714D01*
X127873785Y-130008333D01*
X127921404Y-130055952D01*
X127969023Y-130151190D01*
X127969023Y-130436904D01*
X127921404Y-130532142D01*
X127873785Y-130579761D01*
X127778547Y-130627380D01*
X127635690Y-130627380D01*
X124064261Y-126694000D02*
X124921404Y-126694000D01*
X124683309Y-128039761D02*
X124588071Y-128087380D01*
X124397595Y-128087380D01*
X124302357Y-128039761D01*
X124254738Y-127944523D01*
X124254738Y-127563571D01*
X124302357Y-127468333D01*
X124397595Y-127420714D01*
X124588071Y-127420714D01*
X124683309Y-127468333D01*
X124730928Y-127563571D01*
X124730928Y-127658809D01*
X124254738Y-127754047D01*
X124921404Y-126694000D02*
X125826166Y-126694000D01*
X125159500Y-127420714D02*
X125159500Y-128087380D01*
X125159500Y-127515952D02*
X125207119Y-127468333D01*
X125302357Y-127420714D01*
X125445214Y-127420714D01*
X125540452Y-127468333D01*
X125588071Y-127563571D01*
X125588071Y-128087380D01*
X125826166Y-126694000D02*
X126302357Y-126694000D01*
X126064261Y-128087380D02*
X126064261Y-127087380D01*
X126302357Y-126694000D02*
X127207119Y-126694000D01*
X126540452Y-127420714D02*
X126540452Y-128087380D01*
X126540452Y-127515952D02*
X126588071Y-127468333D01*
X126683309Y-127420714D01*
X126826166Y-127420714D01*
X126921404Y-127468333D01*
X126969023Y-127563571D01*
X126969023Y-128087380D01*
X127207119Y-126694000D02*
X128159500Y-126694000D01*
X127397595Y-127182619D02*
X127445214Y-127135000D01*
X127540452Y-127087380D01*
X127778547Y-127087380D01*
X127873785Y-127135000D01*
X127921404Y-127182619D01*
X127969023Y-127277857D01*
X127969023Y-127373095D01*
X127921404Y-127515952D01*
X127349976Y-128087380D01*
X127969023Y-128087380D01*
X124064261Y-124154000D02*
X124921404Y-124154000D01*
X124683309Y-125499761D02*
X124588071Y-125547380D01*
X124397595Y-125547380D01*
X124302357Y-125499761D01*
X124254738Y-125404523D01*
X124254738Y-125023571D01*
X124302357Y-124928333D01*
X124397595Y-124880714D01*
X124588071Y-124880714D01*
X124683309Y-124928333D01*
X124730928Y-125023571D01*
X124730928Y-125118809D01*
X124254738Y-125214047D01*
X124921404Y-124154000D02*
X125826166Y-124154000D01*
X125159500Y-124880714D02*
X125159500Y-125547380D01*
X125159500Y-124975952D02*
X125207119Y-124928333D01*
X125302357Y-124880714D01*
X125445214Y-124880714D01*
X125540452Y-124928333D01*
X125588071Y-125023571D01*
X125588071Y-125547380D01*
X125826166Y-124154000D02*
X126302357Y-124154000D01*
X126064261Y-125547380D02*
X126064261Y-124547380D01*
X126302357Y-124154000D02*
X127207119Y-124154000D01*
X126540452Y-124880714D02*
X126540452Y-125547380D01*
X126540452Y-124975952D02*
X126588071Y-124928333D01*
X126683309Y-124880714D01*
X126826166Y-124880714D01*
X126921404Y-124928333D01*
X126969023Y-125023571D01*
X126969023Y-125547380D01*
X127207119Y-124154000D02*
X128159500Y-124154000D01*
X127969023Y-125547380D02*
X127397595Y-125547380D01*
X127683309Y-125547380D02*
X127683309Y-124547380D01*
X127588071Y-124690238D01*
X127492833Y-124785476D01*
X127397595Y-124833095D01*
D11*
X106275714Y-139692142D02*
X106490000Y-139763571D01*
X106847142Y-139763571D01*
X106990000Y-139692142D01*
X107061428Y-139620714D01*
X107132857Y-139477857D01*
X107132857Y-139335000D01*
X107061428Y-139192142D01*
X106990000Y-139120714D01*
X106847142Y-139049285D01*
X106561428Y-138977857D01*
X106418571Y-138906428D01*
X106347142Y-138835000D01*
X106275714Y-138692142D01*
X106275714Y-138549285D01*
X106347142Y-138406428D01*
X106418571Y-138335000D01*
X106561428Y-138263571D01*
X106918571Y-138263571D01*
X107132857Y-138335000D01*
X107561428Y-138763571D02*
X108132857Y-138763571D01*
X107775714Y-138263571D02*
X107775714Y-139549285D01*
X107847142Y-139692142D01*
X107990000Y-139763571D01*
X108132857Y-139763571D01*
X109204285Y-139692142D02*
X109061428Y-139763571D01*
X108775714Y-139763571D01*
X108632857Y-139692142D01*
X108561428Y-139549285D01*
X108561428Y-138977857D01*
X108632857Y-138835000D01*
X108775714Y-138763571D01*
X109061428Y-138763571D01*
X109204285Y-138835000D01*
X109275714Y-138977857D01*
X109275714Y-139120714D01*
X108561428Y-139263571D01*
X110561428Y-138763571D02*
X110561428Y-139763571D01*
X109918571Y-138763571D02*
X109918571Y-139549285D01*
X109990000Y-139692142D01*
X110132857Y-139763571D01*
X110347142Y-139763571D01*
X110490000Y-139692142D01*
X110561428Y-139620714D01*
X111847142Y-139692142D02*
X111704285Y-139763571D01*
X111418571Y-139763571D01*
X111275714Y-139692142D01*
X111204285Y-139549285D01*
X111204285Y-138977857D01*
X111275714Y-138835000D01*
X111418571Y-138763571D01*
X111704285Y-138763571D01*
X111847142Y-138835000D01*
X111918571Y-138977857D01*
X111918571Y-139120714D01*
X111204285Y-139263571D01*
X112561428Y-139763571D02*
X112561428Y-138763571D01*
X112561428Y-139049285D02*
X112632857Y-138906428D01*
X112704285Y-138835000D01*
X112847142Y-138763571D01*
X112990000Y-138763571D01*
X113490000Y-139192142D02*
X114632857Y-139192142D01*
X108204285Y-141263571D02*
X108490000Y-142263571D01*
X108775714Y-141549285D01*
X109061428Y-142263571D01*
X109347142Y-141263571D01*
X110490000Y-142192142D02*
X110347142Y-142263571D01*
X110061428Y-142263571D01*
X109918571Y-142192142D01*
X109847142Y-142049285D01*
X109847142Y-141477857D01*
X109918571Y-141335000D01*
X110061428Y-141263571D01*
X110347142Y-141263571D01*
X110490000Y-141335000D01*
X110561428Y-141477857D01*
X110561428Y-141620714D01*
X109847142Y-141763571D01*
X111204285Y-142263571D02*
X111204285Y-141263571D01*
X111204285Y-141549285D02*
X111275714Y-141406428D01*
X111347142Y-141335000D01*
X111490000Y-141263571D01*
X111632857Y-141263571D01*
X112132857Y-142263571D02*
X112132857Y-140763571D01*
X112275714Y-141692142D02*
X112704285Y-142263571D01*
X112704285Y-141263571D02*
X112132857Y-141835000D01*
X130885714Y-141013571D02*
X130885714Y-139513571D01*
X130885714Y-140227857D02*
X131742857Y-140227857D01*
X131742857Y-141013571D02*
X131742857Y-139513571D01*
X133100000Y-141013571D02*
X133100000Y-140227857D01*
X133028571Y-140085000D01*
X132885714Y-140013571D01*
X132600000Y-140013571D01*
X132457142Y-140085000D01*
X133100000Y-140942142D02*
X132957142Y-141013571D01*
X132600000Y-141013571D01*
X132457142Y-140942142D01*
X132385714Y-140799285D01*
X132385714Y-140656428D01*
X132457142Y-140513571D01*
X132600000Y-140442142D01*
X132957142Y-140442142D01*
X133100000Y-140370714D01*
X133814285Y-140013571D02*
X133814285Y-141013571D01*
X133814285Y-140156428D02*
X133885714Y-140085000D01*
X134028571Y-140013571D01*
X134242857Y-140013571D01*
X134385714Y-140085000D01*
X134457142Y-140227857D01*
X134457142Y-141013571D01*
X135814285Y-141013571D02*
X135814285Y-139513571D01*
X135814285Y-140942142D02*
X135671428Y-141013571D01*
X135385714Y-141013571D01*
X135242857Y-140942142D01*
X135171428Y-140870714D01*
X135100000Y-140727857D01*
X135100000Y-140299285D01*
X135171428Y-140156428D01*
X135242857Y-140085000D01*
X135385714Y-140013571D01*
X135671428Y-140013571D01*
X135814285Y-140085000D01*
X46025714Y-130218571D02*
X46025714Y-129432857D01*
X45954285Y-129290000D01*
X45811428Y-129218571D01*
X45525714Y-129218571D01*
X45382857Y-129290000D01*
X46025714Y-130147142D02*
X45882857Y-130218571D01*
X45525714Y-130218571D01*
X45382857Y-130147142D01*
X45311428Y-130004285D01*
X45311428Y-129861428D01*
X45382857Y-129718571D01*
X45525714Y-129647142D01*
X45882857Y-129647142D01*
X46025714Y-129575714D01*
X47382857Y-129218571D02*
X47382857Y-130218571D01*
X46740000Y-129218571D02*
X46740000Y-130004285D01*
X46811428Y-130147142D01*
X46954285Y-130218571D01*
X47168571Y-130218571D01*
X47311428Y-130147142D01*
X47382857Y-130075714D01*
X48025714Y-130147142D02*
X48168571Y-130218571D01*
X48454285Y-130218571D01*
X48597142Y-130147142D01*
X48668571Y-130004285D01*
X48668571Y-129932857D01*
X48597142Y-129790000D01*
X48454285Y-129718571D01*
X48240000Y-129718571D01*
X48097142Y-129647142D01*
X48025714Y-129504285D01*
X48025714Y-129432857D01*
X48097142Y-129290000D01*
X48240000Y-129218571D01*
X48454285Y-129218571D01*
X48597142Y-129290000D01*
X41740000Y-111823571D02*
X41740000Y-110323571D01*
X41882857Y-111252142D02*
X42311428Y-111823571D01*
X42311428Y-110823571D02*
X41740000Y-111395000D01*
X43168571Y-111823571D02*
X43025714Y-111752142D01*
X42954285Y-111680714D01*
X42882857Y-111537857D01*
X42882857Y-111109285D01*
X42954285Y-110966428D01*
X43025714Y-110895000D01*
X43168571Y-110823571D01*
X43382857Y-110823571D01*
X43525714Y-110895000D01*
X43597142Y-110966428D01*
X43668571Y-111109285D01*
X43668571Y-111537857D01*
X43597142Y-111680714D01*
X43525714Y-111752142D01*
X43382857Y-111823571D01*
X43168571Y-111823571D01*
X44311428Y-110823571D02*
X44311428Y-111823571D01*
X44311428Y-110966428D02*
X44382857Y-110895000D01*
X44525714Y-110823571D01*
X44740000Y-110823571D01*
X44882857Y-110895000D01*
X44954285Y-111037857D01*
X44954285Y-111823571D01*
X45454285Y-110823571D02*
X46025714Y-110823571D01*
X45668571Y-110323571D02*
X45668571Y-111609285D01*
X45740000Y-111752142D01*
X45882857Y-111823571D01*
X46025714Y-111823571D01*
X46525714Y-111680714D02*
X46597142Y-111752142D01*
X46525714Y-111823571D01*
X46454285Y-111752142D01*
X46525714Y-111680714D01*
X46525714Y-111823571D01*
X48168571Y-110323571D02*
X49025714Y-110323571D01*
X48597142Y-111823571D02*
X48597142Y-110323571D01*
X50168571Y-111823571D02*
X50168571Y-111037857D01*
X50097142Y-110895000D01*
X49954285Y-110823571D01*
X49668571Y-110823571D01*
X49525714Y-110895000D01*
X50168571Y-111752142D02*
X50025714Y-111823571D01*
X49668571Y-111823571D01*
X49525714Y-111752142D01*
X49454285Y-111609285D01*
X49454285Y-111466428D01*
X49525714Y-111323571D01*
X49668571Y-111252142D01*
X50025714Y-111252142D01*
X50168571Y-111180714D01*
X50882857Y-111823571D02*
X50882857Y-110323571D01*
X51025714Y-111252142D02*
X51454285Y-111823571D01*
X51454285Y-110823571D02*
X50882857Y-111395000D01*
X51882857Y-110823571D02*
X52454285Y-110823571D01*
X52097142Y-110323571D02*
X52097142Y-111609285D01*
X52168571Y-111752142D01*
X52311428Y-111823571D01*
X52454285Y-111823571D01*
X46240000Y-114252142D02*
X46097142Y-114323571D01*
X45811428Y-114323571D01*
X45668571Y-114252142D01*
X45597142Y-114109285D01*
X45597142Y-113537857D01*
X45668571Y-113395000D01*
X45811428Y-113323571D01*
X46097142Y-113323571D01*
X46240000Y-113395000D01*
X46311428Y-113537857D01*
X46311428Y-113680714D01*
X45597142Y-113823571D01*
X46954285Y-114323571D02*
X46954285Y-113323571D01*
X46954285Y-112823571D02*
X46882857Y-112895000D01*
X46954285Y-112966428D01*
X47025714Y-112895000D01*
X46954285Y-112823571D01*
X46954285Y-112966428D01*
X47668571Y-113323571D02*
X47668571Y-114323571D01*
X47668571Y-113466428D02*
X47740000Y-113395000D01*
X47882857Y-113323571D01*
X48097142Y-113323571D01*
X48240000Y-113395000D01*
X48311428Y-113537857D01*
X48311428Y-114323571D01*
D10*
X124969023Y-162329761D02*
X124873785Y-162377380D01*
X124683309Y-162377380D01*
X124588071Y-162329761D01*
X124540452Y-162282142D01*
X124492833Y-162186904D01*
X124492833Y-161901190D01*
X124540452Y-161805952D01*
X124588071Y-161758333D01*
X124683309Y-161710714D01*
X124873785Y-161710714D01*
X124969023Y-161758333D01*
X125540452Y-162377380D02*
X125445214Y-162329761D01*
X125397595Y-162234523D01*
X125397595Y-161377380D01*
X125921404Y-162377380D02*
X125921404Y-161710714D01*
X125921404Y-161901190D02*
X125969023Y-161805952D01*
X126016642Y-161758333D01*
X126111880Y-161710714D01*
X126207119Y-161710714D01*
X126540452Y-162377380D02*
X126540452Y-161377380D01*
X126921404Y-161377380D01*
X127016642Y-161425000D01*
X127064261Y-161472619D01*
X127111880Y-161567857D01*
X127111880Y-161710714D01*
X127064261Y-161805952D01*
X127016642Y-161853571D01*
X126921404Y-161901190D01*
X126540452Y-161901190D01*
X127969023Y-162329761D02*
X127873785Y-162377380D01*
X127683309Y-162377380D01*
X127588071Y-162329761D01*
X127540452Y-162282142D01*
X127492833Y-162186904D01*
X127492833Y-161901190D01*
X127540452Y-161805952D01*
X127588071Y-161758333D01*
X127683309Y-161710714D01*
X127873785Y-161710714D01*
X127969023Y-161758333D01*
X123445214Y-169314761D02*
X123349976Y-169362380D01*
X123159500Y-169362380D01*
X123064261Y-169314761D01*
X123016642Y-169267142D01*
X122969023Y-169171904D01*
X122969023Y-168886190D01*
X123016642Y-168790952D01*
X123064261Y-168743333D01*
X123159500Y-168695714D01*
X123349976Y-168695714D01*
X123445214Y-168743333D01*
X124016642Y-169362380D02*
X123921404Y-169314761D01*
X123873785Y-169219523D01*
X123873785Y-168362380D01*
X124397595Y-169362380D02*
X124397595Y-168695714D01*
X124397595Y-168886190D02*
X124445214Y-168790952D01*
X124492833Y-168743333D01*
X124588071Y-168695714D01*
X124683309Y-168695714D01*
X124969023Y-169076666D02*
X125445214Y-169076666D01*
X124873785Y-169362380D02*
X125207119Y-168362380D01*
X125540452Y-169362380D01*
X125873785Y-169362380D02*
X125873785Y-168362380D01*
X125969023Y-168981428D02*
X126254738Y-169362380D01*
X126254738Y-168695714D02*
X125873785Y-169076666D01*
X126683309Y-169362380D02*
X126683309Y-168362380D01*
X126778547Y-168981428D02*
X127064261Y-169362380D01*
X127064261Y-168695714D02*
X126683309Y-169076666D01*
X127921404Y-168695714D02*
X127921404Y-169362380D01*
X127492833Y-168695714D02*
X127492833Y-169219523D01*
X127540452Y-169314761D01*
X127635690Y-169362380D01*
X127778547Y-169362380D01*
X127873785Y-169314761D01*
X127921404Y-169267142D01*
D11*
X48942857Y-175303571D02*
X48442857Y-174589285D01*
X48085714Y-175303571D02*
X48085714Y-173803571D01*
X48657142Y-173803571D01*
X48800000Y-173875000D01*
X48871428Y-173946428D01*
X48942857Y-174089285D01*
X48942857Y-174303571D01*
X48871428Y-174446428D01*
X48800000Y-174517857D01*
X48657142Y-174589285D01*
X48085714Y-174589285D01*
X50157142Y-175232142D02*
X50014285Y-175303571D01*
X49728571Y-175303571D01*
X49585714Y-175232142D01*
X49514285Y-175089285D01*
X49514285Y-174517857D01*
X49585714Y-174375000D01*
X49728571Y-174303571D01*
X50014285Y-174303571D01*
X50157142Y-174375000D01*
X50228571Y-174517857D01*
X50228571Y-174660714D01*
X49514285Y-174803571D01*
X50800000Y-175232142D02*
X50942857Y-175303571D01*
X51228571Y-175303571D01*
X51371428Y-175232142D01*
X51442857Y-175089285D01*
X51442857Y-175017857D01*
X51371428Y-174875000D01*
X51228571Y-174803571D01*
X51014285Y-174803571D01*
X50871428Y-174732142D01*
X50800000Y-174589285D01*
X50800000Y-174517857D01*
X50871428Y-174375000D01*
X51014285Y-174303571D01*
X51228571Y-174303571D01*
X51371428Y-174375000D01*
X52657142Y-175232142D02*
X52514285Y-175303571D01*
X52228571Y-175303571D01*
X52085714Y-175232142D01*
X52014285Y-175089285D01*
X52014285Y-174517857D01*
X52085714Y-174375000D01*
X52228571Y-174303571D01*
X52514285Y-174303571D01*
X52657142Y-174375000D01*
X52728571Y-174517857D01*
X52728571Y-174660714D01*
X52014285Y-174803571D01*
X53157142Y-174303571D02*
X53728571Y-174303571D01*
X53371428Y-173803571D02*
X53371428Y-175089285D01*
X53442857Y-175232142D01*
X53585714Y-175303571D01*
X53728571Y-175303571D01*
X48022142Y-150943571D02*
X48879285Y-150943571D01*
X48450714Y-152443571D02*
X48450714Y-150943571D01*
X50022142Y-152443571D02*
X50022142Y-151657857D01*
X49950714Y-151515000D01*
X49807857Y-151443571D01*
X49522142Y-151443571D01*
X49379285Y-151515000D01*
X50022142Y-152372142D02*
X49879285Y-152443571D01*
X49522142Y-152443571D01*
X49379285Y-152372142D01*
X49307857Y-152229285D01*
X49307857Y-152086428D01*
X49379285Y-151943571D01*
X49522142Y-151872142D01*
X49879285Y-151872142D01*
X50022142Y-151800714D01*
X50736428Y-152443571D02*
X50736428Y-150943571D01*
X50879285Y-151872142D02*
X51307857Y-152443571D01*
X51307857Y-151443571D02*
X50736428Y-152015000D01*
X51736428Y-151443571D02*
X52307857Y-151443571D01*
X51950714Y-150943571D02*
X51950714Y-152229285D01*
X52022142Y-152372142D01*
X52165000Y-152443571D01*
X52307857Y-152443571D01*
X49958571Y-69893571D02*
X49101428Y-69893571D01*
X49530000Y-69893571D02*
X49530000Y-68393571D01*
X49387142Y-68607857D01*
X49244285Y-68750714D01*
X49101428Y-68822142D01*
X60118571Y-69893571D02*
X59261428Y-69893571D01*
X59690000Y-69893571D02*
X59690000Y-68393571D01*
X59547142Y-68607857D01*
X59404285Y-68750714D01*
X59261428Y-68822142D01*
X70278571Y-69893571D02*
X69421428Y-69893571D01*
X69850000Y-69893571D02*
X69850000Y-68393571D01*
X69707142Y-68607857D01*
X69564285Y-68750714D01*
X69421428Y-68822142D01*
X80438571Y-69893571D02*
X79581428Y-69893571D01*
X80010000Y-69893571D02*
X80010000Y-68393571D01*
X79867142Y-68607857D01*
X79724285Y-68750714D01*
X79581428Y-68822142D01*
X90598571Y-69893571D02*
X89741428Y-69893571D01*
X90170000Y-69893571D02*
X90170000Y-68393571D01*
X90027142Y-68607857D01*
X89884285Y-68750714D01*
X89741428Y-68822142D01*
X100758571Y-69893571D02*
X99901428Y-69893571D01*
X100330000Y-69893571D02*
X100330000Y-68393571D01*
X100187142Y-68607857D01*
X100044285Y-68750714D01*
X99901428Y-68822142D01*
X110918571Y-69893571D02*
X110061428Y-69893571D01*
X110490000Y-69893571D02*
X110490000Y-68393571D01*
X110347142Y-68607857D01*
X110204285Y-68750714D01*
X110061428Y-68822142D01*
X121078571Y-69893571D02*
X120221428Y-69893571D01*
X120650000Y-69893571D02*
X120650000Y-68393571D01*
X120507142Y-68607857D01*
X120364285Y-68750714D01*
X120221428Y-68822142D01*
X48823571Y-84903571D02*
X48966428Y-84903571D01*
X49109285Y-84975000D01*
X49180714Y-85046428D01*
X49252142Y-85189285D01*
X49323571Y-85475000D01*
X49323571Y-85832142D01*
X49252142Y-86117857D01*
X49180714Y-86260714D01*
X49109285Y-86332142D01*
X48966428Y-86403571D01*
X48823571Y-86403571D01*
X48680714Y-86332142D01*
X48609285Y-86260714D01*
X48537857Y-86117857D01*
X48466428Y-85832142D01*
X48466428Y-85475000D01*
X48537857Y-85189285D01*
X48609285Y-85046428D01*
X48680714Y-84975000D01*
X48823571Y-84903571D01*
X59618571Y-84903571D02*
X59761428Y-84903571D01*
X59904285Y-84975000D01*
X59975714Y-85046428D01*
X60047142Y-85189285D01*
X60118571Y-85475000D01*
X60118571Y-85832142D01*
X60047142Y-86117857D01*
X59975714Y-86260714D01*
X59904285Y-86332142D01*
X59761428Y-86403571D01*
X59618571Y-86403571D01*
X59475714Y-86332142D01*
X59404285Y-86260714D01*
X59332857Y-86117857D01*
X59261428Y-85832142D01*
X59261428Y-85475000D01*
X59332857Y-85189285D01*
X59404285Y-85046428D01*
X59475714Y-84975000D01*
X59618571Y-84903571D01*
X69778571Y-84903571D02*
X69921428Y-84903571D01*
X70064285Y-84975000D01*
X70135714Y-85046428D01*
X70207142Y-85189285D01*
X70278571Y-85475000D01*
X70278571Y-85832142D01*
X70207142Y-86117857D01*
X70135714Y-86260714D01*
X70064285Y-86332142D01*
X69921428Y-86403571D01*
X69778571Y-86403571D01*
X69635714Y-86332142D01*
X69564285Y-86260714D01*
X69492857Y-86117857D01*
X69421428Y-85832142D01*
X69421428Y-85475000D01*
X69492857Y-85189285D01*
X69564285Y-85046428D01*
X69635714Y-84975000D01*
X69778571Y-84903571D01*
X79938571Y-84903571D02*
X80081428Y-84903571D01*
X80224285Y-84975000D01*
X80295714Y-85046428D01*
X80367142Y-85189285D01*
X80438571Y-85475000D01*
X80438571Y-85832142D01*
X80367142Y-86117857D01*
X80295714Y-86260714D01*
X80224285Y-86332142D01*
X80081428Y-86403571D01*
X79938571Y-86403571D01*
X79795714Y-86332142D01*
X79724285Y-86260714D01*
X79652857Y-86117857D01*
X79581428Y-85832142D01*
X79581428Y-85475000D01*
X79652857Y-85189285D01*
X79724285Y-85046428D01*
X79795714Y-84975000D01*
X79938571Y-84903571D01*
X90098571Y-84903571D02*
X90241428Y-84903571D01*
X90384285Y-84975000D01*
X90455714Y-85046428D01*
X90527142Y-85189285D01*
X90598571Y-85475000D01*
X90598571Y-85832142D01*
X90527142Y-86117857D01*
X90455714Y-86260714D01*
X90384285Y-86332142D01*
X90241428Y-86403571D01*
X90098571Y-86403571D01*
X89955714Y-86332142D01*
X89884285Y-86260714D01*
X89812857Y-86117857D01*
X89741428Y-85832142D01*
X89741428Y-85475000D01*
X89812857Y-85189285D01*
X89884285Y-85046428D01*
X89955714Y-84975000D01*
X90098571Y-84903571D01*
X100258571Y-84903571D02*
X100401428Y-84903571D01*
X100544285Y-84975000D01*
X100615714Y-85046428D01*
X100687142Y-85189285D01*
X100758571Y-85475000D01*
X100758571Y-85832142D01*
X100687142Y-86117857D01*
X100615714Y-86260714D01*
X100544285Y-86332142D01*
X100401428Y-86403571D01*
X100258571Y-86403571D01*
X100115714Y-86332142D01*
X100044285Y-86260714D01*
X99972857Y-86117857D01*
X99901428Y-85832142D01*
X99901428Y-85475000D01*
X99972857Y-85189285D01*
X100044285Y-85046428D01*
X100115714Y-84975000D01*
X100258571Y-84903571D01*
X110418571Y-84903571D02*
X110561428Y-84903571D01*
X110704285Y-84975000D01*
X110775714Y-85046428D01*
X110847142Y-85189285D01*
X110918571Y-85475000D01*
X110918571Y-85832142D01*
X110847142Y-86117857D01*
X110775714Y-86260714D01*
X110704285Y-86332142D01*
X110561428Y-86403571D01*
X110418571Y-86403571D01*
X110275714Y-86332142D01*
X110204285Y-86260714D01*
X110132857Y-86117857D01*
X110061428Y-85832142D01*
X110061428Y-85475000D01*
X110132857Y-85189285D01*
X110204285Y-85046428D01*
X110275714Y-84975000D01*
X110418571Y-84903571D01*
X120578571Y-84903571D02*
X120721428Y-84903571D01*
X120864285Y-84975000D01*
X120935714Y-85046428D01*
X121007142Y-85189285D01*
X121078571Y-85475000D01*
X121078571Y-85832142D01*
X121007142Y-86117857D01*
X120935714Y-86260714D01*
X120864285Y-86332142D01*
X120721428Y-86403571D01*
X120578571Y-86403571D01*
X120435714Y-86332142D01*
X120364285Y-86260714D01*
X120292857Y-86117857D01*
X120221428Y-85832142D01*
X120221428Y-85475000D01*
X120292857Y-85189285D01*
X120364285Y-85046428D01*
X120435714Y-84975000D01*
X120578571Y-84903571D01*
X49030000Y-65853571D02*
X50030000Y-65853571D01*
X49387142Y-67353571D01*
X59975714Y-65853571D02*
X59690000Y-65853571D01*
X59547142Y-65925000D01*
X59475714Y-65996428D01*
X59332857Y-66210714D01*
X59261428Y-66496428D01*
X59261428Y-67067857D01*
X59332857Y-67210714D01*
X59404285Y-67282142D01*
X59547142Y-67353571D01*
X59832857Y-67353571D01*
X59975714Y-67282142D01*
X60047142Y-67210714D01*
X60118571Y-67067857D01*
X60118571Y-66710714D01*
X60047142Y-66567857D01*
X59975714Y-66496428D01*
X59832857Y-66425000D01*
X59547142Y-66425000D01*
X59404285Y-66496428D01*
X59332857Y-66567857D01*
X59261428Y-66710714D01*
X70207142Y-65853571D02*
X69492857Y-65853571D01*
X69421428Y-66567857D01*
X69492857Y-66496428D01*
X69635714Y-66425000D01*
X69992857Y-66425000D01*
X70135714Y-66496428D01*
X70207142Y-66567857D01*
X70278571Y-66710714D01*
X70278571Y-67067857D01*
X70207142Y-67210714D01*
X70135714Y-67282142D01*
X69992857Y-67353571D01*
X69635714Y-67353571D01*
X69492857Y-67282142D01*
X69421428Y-67210714D01*
X80295714Y-66353571D02*
X80295714Y-67353571D01*
X79938571Y-65782142D02*
X79581428Y-66853571D01*
X80510000Y-66853571D01*
X89670000Y-65853571D02*
X90598571Y-65853571D01*
X90098571Y-66425000D01*
X90312857Y-66425000D01*
X90455714Y-66496428D01*
X90527142Y-66567857D01*
X90598571Y-66710714D01*
X90598571Y-67067857D01*
X90527142Y-67210714D01*
X90455714Y-67282142D01*
X90312857Y-67353571D01*
X89884285Y-67353571D01*
X89741428Y-67282142D01*
X89670000Y-67210714D01*
X99901428Y-65996428D02*
X99972857Y-65925000D01*
X100115714Y-65853571D01*
X100472857Y-65853571D01*
X100615714Y-65925000D01*
X100687142Y-65996428D01*
X100758571Y-66139285D01*
X100758571Y-66282142D01*
X100687142Y-66496428D01*
X99830000Y-67353571D01*
X100758571Y-67353571D01*
X110918571Y-67353571D02*
X110061428Y-67353571D01*
X110490000Y-67353571D02*
X110490000Y-65853571D01*
X110347142Y-66067857D01*
X110204285Y-66210714D01*
X110061428Y-66282142D01*
X120578571Y-65853571D02*
X120721428Y-65853571D01*
X120864285Y-65925000D01*
X120935714Y-65996428D01*
X121007142Y-66139285D01*
X121078571Y-66425000D01*
X121078571Y-66782142D01*
X121007142Y-67067857D01*
X120935714Y-67210714D01*
X120864285Y-67282142D01*
X120721428Y-67353571D01*
X120578571Y-67353571D01*
X120435714Y-67282142D01*
X120364285Y-67210714D01*
X120292857Y-67067857D01*
X120221428Y-66782142D01*
X120221428Y-66425000D01*
X120292857Y-66139285D01*
X120364285Y-65996428D01*
X120435714Y-65925000D01*
X120578571Y-65853571D01*
X42847142Y-105453571D02*
X42704285Y-105382142D01*
X42632857Y-105239285D01*
X42632857Y-103953571D01*
X44061428Y-105453571D02*
X44061428Y-104667857D01*
X43990000Y-104525000D01*
X43847142Y-104453571D01*
X43561428Y-104453571D01*
X43418571Y-104525000D01*
X44061428Y-105382142D02*
X43918571Y-105453571D01*
X43561428Y-105453571D01*
X43418571Y-105382142D01*
X43347142Y-105239285D01*
X43347142Y-105096428D01*
X43418571Y-104953571D01*
X43561428Y-104882142D01*
X43918571Y-104882142D01*
X44061428Y-104810714D01*
X44775714Y-104453571D02*
X44775714Y-105453571D01*
X44775714Y-104596428D02*
X44847142Y-104525000D01*
X44990000Y-104453571D01*
X45204285Y-104453571D01*
X45347142Y-104525000D01*
X45418571Y-104667857D01*
X45418571Y-105453571D01*
X46775714Y-104453571D02*
X46775714Y-105667857D01*
X46704285Y-105810714D01*
X46632857Y-105882142D01*
X46490000Y-105953571D01*
X46275714Y-105953571D01*
X46132857Y-105882142D01*
X46775714Y-105382142D02*
X46632857Y-105453571D01*
X46347142Y-105453571D01*
X46204285Y-105382142D01*
X46132857Y-105310714D01*
X46061428Y-105167857D01*
X46061428Y-104739285D01*
X46132857Y-104596428D01*
X46204285Y-104525000D01*
X46347142Y-104453571D01*
X46632857Y-104453571D01*
X46775714Y-104525000D01*
X47418571Y-105382142D02*
X47561428Y-105453571D01*
X47847142Y-105453571D01*
X47990000Y-105382142D01*
X48061428Y-105239285D01*
X48061428Y-105167857D01*
X47990000Y-105025000D01*
X47847142Y-104953571D01*
X47632857Y-104953571D01*
X47490000Y-104882142D01*
X47418571Y-104739285D01*
X47418571Y-104667857D01*
X47490000Y-104525000D01*
X47632857Y-104453571D01*
X47847142Y-104453571D01*
X47990000Y-104525000D01*
X49347142Y-105453571D02*
X49347142Y-104667857D01*
X49275714Y-104525000D01*
X49132857Y-104453571D01*
X48847142Y-104453571D01*
X48704285Y-104525000D01*
X49347142Y-105382142D02*
X49204285Y-105453571D01*
X48847142Y-105453571D01*
X48704285Y-105382142D01*
X48632857Y-105239285D01*
X48632857Y-105096428D01*
X48704285Y-104953571D01*
X48847142Y-104882142D01*
X49204285Y-104882142D01*
X49347142Y-104810714D01*
X50061428Y-105453571D02*
X50061428Y-104453571D01*
X50061428Y-104596428D02*
X50132857Y-104525000D01*
X50275714Y-104453571D01*
X50490000Y-104453571D01*
X50632857Y-104525000D01*
X50704285Y-104667857D01*
X50704285Y-105453571D01*
X50704285Y-104667857D02*
X50775714Y-104525000D01*
X50918571Y-104453571D01*
X51132857Y-104453571D01*
X51275714Y-104525000D01*
X51347142Y-104667857D01*
X51347142Y-105453571D01*
X43240000Y-88872142D02*
X43382857Y-88943571D01*
X43668571Y-88943571D01*
X43811428Y-88872142D01*
X43882857Y-88729285D01*
X43882857Y-88657857D01*
X43811428Y-88515000D01*
X43668571Y-88443571D01*
X43454285Y-88443571D01*
X43311428Y-88372142D01*
X43240000Y-88229285D01*
X43240000Y-88157857D01*
X43311428Y-88015000D01*
X43454285Y-87943571D01*
X43668571Y-87943571D01*
X43811428Y-88015000D01*
X45168571Y-88872142D02*
X45025714Y-88943571D01*
X44740000Y-88943571D01*
X44597142Y-88872142D01*
X44525714Y-88800714D01*
X44454285Y-88657857D01*
X44454285Y-88229285D01*
X44525714Y-88086428D01*
X44597142Y-88015000D01*
X44740000Y-87943571D01*
X45025714Y-87943571D01*
X45168571Y-88015000D01*
X45811428Y-88943571D02*
X45811428Y-87443571D01*
X46454285Y-88943571D02*
X46454285Y-88157857D01*
X46382857Y-88015000D01*
X46240000Y-87943571D01*
X46025714Y-87943571D01*
X45882857Y-88015000D01*
X45811428Y-88086428D01*
X47168571Y-87943571D02*
X47168571Y-88943571D01*
X47168571Y-88086428D02*
X47240000Y-88015000D01*
X47382857Y-87943571D01*
X47597142Y-87943571D01*
X47740000Y-88015000D01*
X47811428Y-88157857D01*
X47811428Y-88943571D01*
X49097142Y-88872142D02*
X48954285Y-88943571D01*
X48668571Y-88943571D01*
X48525714Y-88872142D01*
X48454285Y-88729285D01*
X48454285Y-88157857D01*
X48525714Y-88015000D01*
X48668571Y-87943571D01*
X48954285Y-87943571D01*
X49097142Y-88015000D01*
X49168571Y-88157857D01*
X49168571Y-88300714D01*
X48454285Y-88443571D01*
X50025714Y-88943571D02*
X49882857Y-88872142D01*
X49811428Y-88729285D01*
X49811428Y-87443571D01*
X50811428Y-88943571D02*
X50668571Y-88872142D01*
X50597142Y-88729285D01*
X50597142Y-87443571D01*
X115010714Y-54923571D02*
X115296428Y-55923571D01*
X115582142Y-55209285D01*
X115867857Y-55923571D01*
X116153571Y-54923571D01*
X116725000Y-55923571D02*
X116725000Y-54923571D01*
X116725000Y-55209285D02*
X116796428Y-55066428D01*
X116867857Y-54995000D01*
X117010714Y-54923571D01*
X117153571Y-54923571D01*
X117653571Y-55923571D02*
X117653571Y-54923571D01*
X117653571Y-54423571D02*
X117582142Y-54495000D01*
X117653571Y-54566428D01*
X117725000Y-54495000D01*
X117653571Y-54423571D01*
X117653571Y-54566428D01*
X118153571Y-54923571D02*
X118725000Y-54923571D01*
X118367857Y-54423571D02*
X118367857Y-55709285D01*
X118439285Y-55852142D01*
X118582142Y-55923571D01*
X118725000Y-55923571D01*
X119796428Y-55852142D02*
X119653571Y-55923571D01*
X119367857Y-55923571D01*
X119225000Y-55852142D01*
X119153571Y-55709285D01*
X119153571Y-55137857D01*
X119225000Y-54995000D01*
X119367857Y-54923571D01*
X119653571Y-54923571D01*
X119796428Y-54995000D01*
X119867857Y-55137857D01*
X119867857Y-55280714D01*
X119153571Y-55423571D01*
D13*
X88203571Y-28995714D02*
X89203571Y-28995714D01*
X89632142Y-30567142D02*
X88203571Y-30567142D01*
X88203571Y-27567142D01*
X89632142Y-27567142D01*
X90917857Y-30567142D02*
X90917857Y-28567142D01*
X90917857Y-27567142D02*
X90775000Y-27710000D01*
X90917857Y-27852857D01*
X91060714Y-27710000D01*
X90917857Y-27567142D01*
X90917857Y-27852857D01*
X92346428Y-28567142D02*
X92346428Y-30567142D01*
X92346428Y-28852857D02*
X92489285Y-28710000D01*
X92775000Y-28567142D01*
X93203571Y-28567142D01*
X93489285Y-28710000D01*
X93632142Y-28995714D01*
X93632142Y-30567142D01*
X97203571Y-27424285D02*
X94632142Y-31281428D01*
X97775000Y-27567142D02*
X99489285Y-27567142D01*
X98632142Y-30567142D02*
X98632142Y-27567142D01*
X101775000Y-30567142D02*
X101775000Y-28995714D01*
X101632142Y-28710000D01*
X101346428Y-28567142D01*
X100775000Y-28567142D01*
X100489285Y-28710000D01*
X101775000Y-30424285D02*
X101489285Y-30567142D01*
X100775000Y-30567142D01*
X100489285Y-30424285D01*
X100346428Y-30138571D01*
X100346428Y-29852857D01*
X100489285Y-29567142D01*
X100775000Y-29424285D01*
X101489285Y-29424285D01*
X101775000Y-29281428D01*
X103203571Y-30567142D02*
X103203571Y-27567142D01*
X103489285Y-29424285D02*
X104346428Y-30567142D01*
X104346428Y-28567142D02*
X103203571Y-29710000D01*
X105203571Y-28567142D02*
X106346428Y-28567142D01*
X105632142Y-27567142D02*
X105632142Y-30138571D01*
X105775000Y-30424285D01*
X106060714Y-30567142D01*
X106346428Y-30567142D01*
X109489285Y-27424285D02*
X106917857Y-31281428D01*
X112203571Y-30567142D02*
X111203571Y-29138571D01*
X110489285Y-30567142D02*
X110489285Y-27567142D01*
X111632142Y-27567142D01*
X111917857Y-27710000D01*
X112060714Y-27852857D01*
X112203571Y-28138571D01*
X112203571Y-28567142D01*
X112060714Y-28852857D01*
X111917857Y-28995714D01*
X111632142Y-29138571D01*
X110489285Y-29138571D01*
X114632142Y-30424285D02*
X114346428Y-30567142D01*
X113775000Y-30567142D01*
X113489285Y-30424285D01*
X113346428Y-30138571D01*
X113346428Y-28995714D01*
X113489285Y-28710000D01*
X113775000Y-28567142D01*
X114346428Y-28567142D01*
X114632142Y-28710000D01*
X114775000Y-28995714D01*
X114775000Y-29281428D01*
X113346428Y-29567142D01*
X115917857Y-30424285D02*
X116203571Y-30567142D01*
X116775000Y-30567142D01*
X117060714Y-30424285D01*
X117203571Y-30138571D01*
X117203571Y-29995714D01*
X117060714Y-29710000D01*
X116775000Y-29567142D01*
X116346428Y-29567142D01*
X116060714Y-29424285D01*
X115917857Y-29138571D01*
X115917857Y-28995714D01*
X116060714Y-28710000D01*
X116346428Y-28567142D01*
X116775000Y-28567142D01*
X117060714Y-28710000D01*
X119632142Y-30424285D02*
X119346428Y-30567142D01*
X118775000Y-30567142D01*
X118489285Y-30424285D01*
X118346428Y-30138571D01*
X118346428Y-28995714D01*
X118489285Y-28710000D01*
X118775000Y-28567142D01*
X119346428Y-28567142D01*
X119632142Y-28710000D01*
X119775000Y-28995714D01*
X119775000Y-29281428D01*
X118346428Y-29567142D01*
X120632142Y-28567142D02*
X121775000Y-28567142D01*
X121060714Y-27567142D02*
X121060714Y-30138571D01*
X121203571Y-30424285D01*
X121489285Y-30567142D01*
X121775000Y-30567142D01*
D14*
X58625000Y-123130000D02*
X60425000Y-123130000D01*
X59525000Y-122230000D02*
X59525000Y-124030000D01*
X60725000Y-119360000D02*
X60725000Y-132100000D01*
X90965000Y-119360000D02*
X90965000Y-132100000D01*
X60725000Y-119360000D02*
X62525000Y-119360000D01*
X62525000Y-119360000D02*
X63425000Y-120260000D01*
X63425000Y-120260000D02*
X64325000Y-119360000D01*
X64325000Y-119360000D02*
X90965000Y-119360000D01*
X60725000Y-132100000D02*
X62525000Y-132100000D01*
X62525000Y-132100000D02*
X63425000Y-131200000D01*
X63425000Y-131200000D02*
X64325000Y-132100000D01*
X64325000Y-132100000D02*
X90965000Y-132100000D01*
X59785000Y-125730000D02*
X60725000Y-125730000D01*
X91905000Y-125730000D02*
X90965000Y-125730000D01*
X98195000Y-161925000D02*
X98965000Y-161925000D01*
X106275000Y-161925000D02*
X105505000Y-161925000D01*
X98965000Y-163295000D02*
X105505000Y-163295000D01*
X98965000Y-160555000D02*
X98965000Y-163295000D01*
X105505000Y-160555000D02*
X98965000Y-160555000D01*
X105505000Y-163295000D02*
X105505000Y-160555000D01*
X106275000Y-158750000D02*
X105505000Y-158750000D01*
X98195000Y-158750000D02*
X98965000Y-158750000D01*
X105505000Y-157380000D02*
X98965000Y-157380000D01*
X105505000Y-160120000D02*
X105505000Y-157380000D01*
X98965000Y-160120000D02*
X105505000Y-160120000D01*
X98965000Y-157380000D02*
X98965000Y-160120000D01*
X74930000Y-61465000D02*
X74930000Y-64265000D01*
X95420000Y-61465000D02*
X72220000Y-61465000D01*
X95420000Y-64265000D02*
X95420000Y-61465000D01*
X72220000Y-64265000D02*
X95420000Y-64265000D01*
X72220000Y-61465000D02*
X72220000Y-64265000D01*
X56896000Y-132842000D02*
X44577000Y-132842000D01*
X44577000Y-132842000D02*
X44577000Y-150368000D01*
X44577000Y-150368000D02*
X56896000Y-150368000D01*
X56896000Y-150368000D02*
X56896000Y-132842000D01*
X56896000Y-155067000D02*
X44577000Y-155067000D01*
X44577000Y-155067000D02*
X44577000Y-172593000D01*
X44577000Y-172593000D02*
X56896000Y-172593000D01*
X56896000Y-172593000D02*
X56896000Y-155067000D01*
D15*
X49855120Y-127685800D02*
X42854880Y-127685800D01*
X49855120Y-114884200D02*
X49855120Y-127685800D01*
X42854880Y-114884200D02*
X49855120Y-114884200D01*
X42857420Y-127685800D02*
X42857420Y-114884200D01*
X48973172Y-121285000D02*
G75*
G03*
X48973172Y-121285000I-2618172J0D01*
G01*
X45854620Y-118684040D02*
X45854620Y-118186200D01*
X46855380Y-118684040D02*
X46855380Y-118186200D01*
X43154600Y-121285000D02*
G75*
G03*
X46355000Y-124485400I3200400J0D01*
G01*
X46355000Y-124485400D02*
G75*
G03*
X49555400Y-121285000I0J3200400D01*
G01*
X45844460Y-118125240D02*
G75*
G03*
X43195240Y-121795540I510540J-3159760D01*
G01*
X49514760Y-121795540D02*
G75*
G03*
X46865540Y-118125240I-3159760J510540D01*
G01*
X43454320Y-121285000D02*
G75*
G03*
X46355000Y-124185680I2900680J0D01*
G01*
X46355000Y-124185680D02*
G75*
G03*
X49255680Y-121285000I0J2900680D01*
G01*
X43754040Y-121285000D02*
G75*
G03*
X46355000Y-123885960I2600960J0D01*
G01*
X46355000Y-123885960D02*
G75*
G03*
X48955960Y-121285000I0J2600960D01*
G01*
X45653960Y-118455440D02*
G75*
G03*
X43525440Y-121986040I701040J-2829560D01*
G01*
X49194720Y-121986040D02*
G75*
G03*
X47056040Y-118445280I-2839720J701040D01*
G01*
X48915320Y-121765060D02*
G75*
G03*
X46835060Y-118724680I-2560320J480060D01*
G01*
X45834300Y-118724680D02*
G75*
G03*
X43794680Y-121805700I520700J-2560320D01*
G01*
D14*
X73540000Y-138895000D02*
X73540000Y-149395000D01*
X91560000Y-138895000D02*
X73540000Y-138895000D01*
X91560000Y-149395000D02*
X91560000Y-138895000D01*
X73540000Y-149395000D02*
X91560000Y-149395000D01*
X73600000Y-141895000D02*
X73600000Y-143145000D01*
X91500000Y-141895000D02*
X73600000Y-141895000D01*
X91500000Y-146395000D02*
X91500000Y-141895000D01*
X73600000Y-146395000D02*
X91500000Y-146395000D01*
X73600000Y-145145000D02*
X73600000Y-146395000D01*
X73600000Y-143145000D02*
G75*
G02*
X73600000Y-145145000I0J-1000000D01*
G01*
X107195000Y-91270000D02*
X107195000Y-101770000D01*
X125215000Y-91270000D02*
X107195000Y-91270000D01*
X125215000Y-101770000D02*
X125215000Y-91270000D01*
X107195000Y-101770000D02*
X125215000Y-101770000D01*
X107255000Y-94270000D02*
X107255000Y-95520000D01*
X125155000Y-94270000D02*
X107255000Y-94270000D01*
X125155000Y-98770000D02*
X125155000Y-94270000D01*
X107255000Y-98770000D02*
X125155000Y-98770000D01*
X107255000Y-97520000D02*
X107255000Y-98770000D01*
X107255000Y-95520000D02*
G75*
G02*
X107255000Y-97520000I0J-1000000D01*
G01*
X95765000Y-165565000D02*
X95765000Y-176065000D01*
X121405000Y-165565000D02*
X95765000Y-165565000D01*
X121405000Y-176065000D02*
X121405000Y-165565000D01*
X95765000Y-176065000D02*
X121405000Y-176065000D01*
X95825000Y-168565000D02*
X95825000Y-169815000D01*
X121345000Y-168565000D02*
X95825000Y-168565000D01*
X121345000Y-173065000D02*
X121345000Y-168565000D01*
X95825000Y-173065000D02*
X121345000Y-173065000D01*
X95825000Y-171815000D02*
X95825000Y-173065000D01*
X95825000Y-169815000D02*
G75*
G02*
X95825000Y-171815000I0J-1000000D01*
G01*
X70365000Y-165565000D02*
X70365000Y-176065000D01*
X88385000Y-165565000D02*
X70365000Y-165565000D01*
X88385000Y-176065000D02*
X88385000Y-165565000D01*
X70365000Y-176065000D02*
X88385000Y-176065000D01*
X70425000Y-168565000D02*
X70425000Y-169815000D01*
X88325000Y-168565000D02*
X70425000Y-168565000D01*
X88325000Y-173065000D02*
X88325000Y-168565000D01*
X70425000Y-173065000D02*
X88325000Y-173065000D01*
X70425000Y-171815000D02*
X70425000Y-173065000D01*
X70425000Y-169815000D02*
G75*
G02*
X70425000Y-171815000I0J-1000000D01*
G01*
D15*
X43489880Y-90119200D02*
X50490120Y-90119200D01*
X43489880Y-102920800D02*
X43489880Y-90119200D01*
X50490120Y-102920800D02*
X43489880Y-102920800D01*
X50487580Y-90119200D02*
X50487580Y-102920800D01*
X49608172Y-96520000D02*
G75*
G03*
X49608172Y-96520000I-2618172J0D01*
G01*
X47490380Y-99120960D02*
X47490380Y-99618800D01*
X46489620Y-99120960D02*
X46489620Y-99618800D01*
X50190400Y-96520000D02*
G75*
G03*
X46990000Y-93319600I-3200400J0D01*
G01*
X46990000Y-93319600D02*
G75*
G03*
X43789600Y-96520000I0J-3200400D01*
G01*
X47500540Y-99679760D02*
G75*
G03*
X50149760Y-96009460I-510540J3159760D01*
G01*
X43830240Y-96009460D02*
G75*
G03*
X46479460Y-99679760I3159760J-510540D01*
G01*
X49890680Y-96520000D02*
G75*
G03*
X46990000Y-93619320I-2900680J0D01*
G01*
X46990000Y-93619320D02*
G75*
G03*
X44089320Y-96520000I0J-2900680D01*
G01*
X49590960Y-96520000D02*
G75*
G03*
X46990000Y-93919040I-2600960J0D01*
G01*
X46990000Y-93919040D02*
G75*
G03*
X44389040Y-96520000I0J-2600960D01*
G01*
X47691040Y-99349560D02*
G75*
G03*
X49819560Y-95818960I-701040J2829560D01*
G01*
X44150280Y-95818960D02*
G75*
G03*
X46288960Y-99359720I2839720J-701040D01*
G01*
X44429680Y-96039940D02*
G75*
G03*
X46509940Y-99080320I2560320J-480060D01*
G01*
X47510700Y-99080320D02*
G75*
G03*
X49550320Y-95999300I-520700J2560320D01*
G01*
X116154200Y-143835120D02*
X116154200Y-136834880D01*
X128955800Y-143835120D02*
X116154200Y-143835120D01*
X128955800Y-136834880D02*
X128955800Y-143835120D01*
X116154200Y-136837420D02*
X128955800Y-136837420D01*
X125173172Y-140335000D02*
G75*
G03*
X125173172Y-140335000I-2618172J0D01*
G01*
X125155960Y-139834620D02*
X125653800Y-139834620D01*
X125155960Y-140835380D02*
X125653800Y-140835380D01*
X122555000Y-137134600D02*
G75*
G03*
X119354600Y-140335000I0J-3200400D01*
G01*
X119354600Y-140335000D02*
G75*
G03*
X122555000Y-143535400I3200400J0D01*
G01*
X125714760Y-139824460D02*
G75*
G03*
X122044460Y-137175240I-3159760J-510540D01*
G01*
X122044460Y-143494760D02*
G75*
G03*
X125714760Y-140845540I510540J3159760D01*
G01*
X122555000Y-137434320D02*
G75*
G03*
X119654320Y-140335000I0J-2900680D01*
G01*
X119654320Y-140335000D02*
G75*
G03*
X122555000Y-143235680I2900680J0D01*
G01*
X122555000Y-137734040D02*
G75*
G03*
X119954040Y-140335000I0J-2600960D01*
G01*
X119954040Y-140335000D02*
G75*
G03*
X122555000Y-142935960I2600960J0D01*
G01*
X125384560Y-139633960D02*
G75*
G03*
X121853960Y-137505440I-2829560J-701040D01*
G01*
X121853960Y-143174720D02*
G75*
G03*
X125394720Y-141036040I701040J2839720D01*
G01*
X122074940Y-142895320D02*
G75*
G03*
X125115320Y-140815060I480060J2560320D01*
G01*
X125115320Y-139814300D02*
G75*
G03*
X122034300Y-137774680I-2560320J-520700D01*
G01*
D14*
X127715000Y-175530000D02*
G75*
G03*
X127715000Y-175530000I-2620000J0D01*
G01*
X126135000Y-175530000D02*
X127675000Y-175530000D01*
X122515000Y-175530000D02*
X124055000Y-175530000D01*
X126135000Y-175490000D02*
X127675000Y-175490000D01*
X122515000Y-175490000D02*
X124055000Y-175490000D01*
X122516000Y-175450000D02*
X124055000Y-175450000D01*
X126135000Y-175450000D02*
X127674000Y-175450000D01*
X122517000Y-175410000D02*
X124055000Y-175410000D01*
X126135000Y-175410000D02*
X127673000Y-175410000D01*
X122519000Y-175370000D02*
X124055000Y-175370000D01*
X126135000Y-175370000D02*
X127671000Y-175370000D01*
X122522000Y-175330000D02*
X124055000Y-175330000D01*
X126135000Y-175330000D02*
X127668000Y-175330000D01*
X122526000Y-175290000D02*
X124055000Y-175290000D01*
X126135000Y-175290000D02*
X127664000Y-175290000D01*
X122530000Y-175250000D02*
X124055000Y-175250000D01*
X126135000Y-175250000D02*
X127660000Y-175250000D01*
X122534000Y-175210000D02*
X124055000Y-175210000D01*
X126135000Y-175210000D02*
X127656000Y-175210000D01*
X122539000Y-175170000D02*
X124055000Y-175170000D01*
X126135000Y-175170000D02*
X127651000Y-175170000D01*
X122545000Y-175130000D02*
X124055000Y-175130000D01*
X126135000Y-175130000D02*
X127645000Y-175130000D01*
X122552000Y-175090000D02*
X124055000Y-175090000D01*
X126135000Y-175090000D02*
X127638000Y-175090000D01*
X122559000Y-175050000D02*
X124055000Y-175050000D01*
X126135000Y-175050000D02*
X127631000Y-175050000D01*
X122567000Y-175010000D02*
X124055000Y-175010000D01*
X126135000Y-175010000D02*
X127623000Y-175010000D01*
X122575000Y-174970000D02*
X124055000Y-174970000D01*
X126135000Y-174970000D02*
X127615000Y-174970000D01*
X122584000Y-174930000D02*
X124055000Y-174930000D01*
X126135000Y-174930000D02*
X127606000Y-174930000D01*
X122594000Y-174890000D02*
X124055000Y-174890000D01*
X126135000Y-174890000D02*
X127596000Y-174890000D01*
X122604000Y-174850000D02*
X124055000Y-174850000D01*
X126135000Y-174850000D02*
X127586000Y-174850000D01*
X122615000Y-174809000D02*
X124055000Y-174809000D01*
X126135000Y-174809000D02*
X127575000Y-174809000D01*
X122627000Y-174769000D02*
X124055000Y-174769000D01*
X126135000Y-174769000D02*
X127563000Y-174769000D01*
X122640000Y-174729000D02*
X124055000Y-174729000D01*
X126135000Y-174729000D02*
X127550000Y-174729000D01*
X122653000Y-174689000D02*
X124055000Y-174689000D01*
X126135000Y-174689000D02*
X127537000Y-174689000D01*
X122667000Y-174649000D02*
X124055000Y-174649000D01*
X126135000Y-174649000D02*
X127523000Y-174649000D01*
X122681000Y-174609000D02*
X124055000Y-174609000D01*
X126135000Y-174609000D02*
X127509000Y-174609000D01*
X122697000Y-174569000D02*
X124055000Y-174569000D01*
X126135000Y-174569000D02*
X127493000Y-174569000D01*
X122713000Y-174529000D02*
X124055000Y-174529000D01*
X126135000Y-174529000D02*
X127477000Y-174529000D01*
X122730000Y-174489000D02*
X124055000Y-174489000D01*
X126135000Y-174489000D02*
X127460000Y-174489000D01*
X122747000Y-174449000D02*
X124055000Y-174449000D01*
X126135000Y-174449000D02*
X127443000Y-174449000D01*
X122766000Y-174409000D02*
X124055000Y-174409000D01*
X126135000Y-174409000D02*
X127424000Y-174409000D01*
X122785000Y-174369000D02*
X124055000Y-174369000D01*
X126135000Y-174369000D02*
X127405000Y-174369000D01*
X122805000Y-174329000D02*
X124055000Y-174329000D01*
X126135000Y-174329000D02*
X127385000Y-174329000D01*
X122827000Y-174289000D02*
X124055000Y-174289000D01*
X126135000Y-174289000D02*
X127363000Y-174289000D01*
X122848000Y-174249000D02*
X124055000Y-174249000D01*
X126135000Y-174249000D02*
X127342000Y-174249000D01*
X122871000Y-174209000D02*
X124055000Y-174209000D01*
X126135000Y-174209000D02*
X127319000Y-174209000D01*
X122895000Y-174169000D02*
X124055000Y-174169000D01*
X126135000Y-174169000D02*
X127295000Y-174169000D01*
X122920000Y-174129000D02*
X124055000Y-174129000D01*
X126135000Y-174129000D02*
X127270000Y-174129000D01*
X122946000Y-174089000D02*
X124055000Y-174089000D01*
X126135000Y-174089000D02*
X127244000Y-174089000D01*
X122973000Y-174049000D02*
X124055000Y-174049000D01*
X126135000Y-174049000D02*
X127217000Y-174049000D01*
X123000000Y-174009000D02*
X124055000Y-174009000D01*
X126135000Y-174009000D02*
X127190000Y-174009000D01*
X123030000Y-173969000D02*
X124055000Y-173969000D01*
X126135000Y-173969000D02*
X127160000Y-173969000D01*
X123060000Y-173929000D02*
X124055000Y-173929000D01*
X126135000Y-173929000D02*
X127130000Y-173929000D01*
X123091000Y-173889000D02*
X124055000Y-173889000D01*
X126135000Y-173889000D02*
X127099000Y-173889000D01*
X123124000Y-173849000D02*
X124055000Y-173849000D01*
X126135000Y-173849000D02*
X127066000Y-173849000D01*
X123158000Y-173809000D02*
X124055000Y-173809000D01*
X126135000Y-173809000D02*
X127032000Y-173809000D01*
X123194000Y-173769000D02*
X124055000Y-173769000D01*
X126135000Y-173769000D02*
X126996000Y-173769000D01*
X123231000Y-173729000D02*
X124055000Y-173729000D01*
X126135000Y-173729000D02*
X126959000Y-173729000D01*
X123269000Y-173689000D02*
X124055000Y-173689000D01*
X126135000Y-173689000D02*
X126921000Y-173689000D01*
X123310000Y-173649000D02*
X124055000Y-173649000D01*
X126135000Y-173649000D02*
X126880000Y-173649000D01*
X123352000Y-173609000D02*
X124055000Y-173609000D01*
X126135000Y-173609000D02*
X126838000Y-173609000D01*
X123396000Y-173569000D02*
X124055000Y-173569000D01*
X126135000Y-173569000D02*
X126794000Y-173569000D01*
X123442000Y-173529000D02*
X124055000Y-173529000D01*
X126135000Y-173529000D02*
X126748000Y-173529000D01*
X123490000Y-173489000D02*
X126700000Y-173489000D01*
X123541000Y-173449000D02*
X126649000Y-173449000D01*
X123595000Y-173409000D02*
X126595000Y-173409000D01*
X123652000Y-173369000D02*
X126538000Y-173369000D01*
X123712000Y-173329000D02*
X126478000Y-173329000D01*
X123776000Y-173289000D02*
X126414000Y-173289000D01*
X123844000Y-173249000D02*
X126346000Y-173249000D01*
X123917000Y-173209000D02*
X126273000Y-173209000D01*
X123997000Y-173169000D02*
X126193000Y-173169000D01*
X124084000Y-173129000D02*
X126106000Y-173129000D01*
X124180000Y-173089000D02*
X126010000Y-173089000D01*
X124290000Y-173049000D02*
X125900000Y-173049000D01*
X124418000Y-173009000D02*
X125772000Y-173009000D01*
X124577000Y-172969000D02*
X125613000Y-172969000D01*
X124811000Y-172929000D02*
X125379000Y-172929000D01*
X123620000Y-178334775D02*
X123620000Y-177834775D01*
X123370000Y-178084775D02*
X123870000Y-178084775D01*
X64215000Y-171180000D02*
G75*
G03*
X64215000Y-171180000I-2620000J0D01*
G01*
X60555000Y-171180000D02*
X59015000Y-171180000D01*
X64175000Y-171180000D02*
X62635000Y-171180000D01*
X60555000Y-171220000D02*
X59015000Y-171220000D01*
X64175000Y-171220000D02*
X62635000Y-171220000D01*
X64174000Y-171260000D02*
X62635000Y-171260000D01*
X60555000Y-171260000D02*
X59016000Y-171260000D01*
X64173000Y-171300000D02*
X62635000Y-171300000D01*
X60555000Y-171300000D02*
X59017000Y-171300000D01*
X64171000Y-171340000D02*
X62635000Y-171340000D01*
X60555000Y-171340000D02*
X59019000Y-171340000D01*
X64168000Y-171380000D02*
X62635000Y-171380000D01*
X60555000Y-171380000D02*
X59022000Y-171380000D01*
X64164000Y-171420000D02*
X62635000Y-171420000D01*
X60555000Y-171420000D02*
X59026000Y-171420000D01*
X64160000Y-171460000D02*
X62635000Y-171460000D01*
X60555000Y-171460000D02*
X59030000Y-171460000D01*
X64156000Y-171500000D02*
X62635000Y-171500000D01*
X60555000Y-171500000D02*
X59034000Y-171500000D01*
X64151000Y-171540000D02*
X62635000Y-171540000D01*
X60555000Y-171540000D02*
X59039000Y-171540000D01*
X64145000Y-171580000D02*
X62635000Y-171580000D01*
X60555000Y-171580000D02*
X59045000Y-171580000D01*
X64138000Y-171620000D02*
X62635000Y-171620000D01*
X60555000Y-171620000D02*
X59052000Y-171620000D01*
X64131000Y-171660000D02*
X62635000Y-171660000D01*
X60555000Y-171660000D02*
X59059000Y-171660000D01*
X64123000Y-171700000D02*
X62635000Y-171700000D01*
X60555000Y-171700000D02*
X59067000Y-171700000D01*
X64115000Y-171740000D02*
X62635000Y-171740000D01*
X60555000Y-171740000D02*
X59075000Y-171740000D01*
X64106000Y-171780000D02*
X62635000Y-171780000D01*
X60555000Y-171780000D02*
X59084000Y-171780000D01*
X64096000Y-171820000D02*
X62635000Y-171820000D01*
X60555000Y-171820000D02*
X59094000Y-171820000D01*
X64086000Y-171860000D02*
X62635000Y-171860000D01*
X60555000Y-171860000D02*
X59104000Y-171860000D01*
X64075000Y-171901000D02*
X62635000Y-171901000D01*
X60555000Y-171901000D02*
X59115000Y-171901000D01*
X64063000Y-171941000D02*
X62635000Y-171941000D01*
X60555000Y-171941000D02*
X59127000Y-171941000D01*
X64050000Y-171981000D02*
X62635000Y-171981000D01*
X60555000Y-171981000D02*
X59140000Y-171981000D01*
X64037000Y-172021000D02*
X62635000Y-172021000D01*
X60555000Y-172021000D02*
X59153000Y-172021000D01*
X64023000Y-172061000D02*
X62635000Y-172061000D01*
X60555000Y-172061000D02*
X59167000Y-172061000D01*
X64009000Y-172101000D02*
X62635000Y-172101000D01*
X60555000Y-172101000D02*
X59181000Y-172101000D01*
X63993000Y-172141000D02*
X62635000Y-172141000D01*
X60555000Y-172141000D02*
X59197000Y-172141000D01*
X63977000Y-172181000D02*
X62635000Y-172181000D01*
X60555000Y-172181000D02*
X59213000Y-172181000D01*
X63960000Y-172221000D02*
X62635000Y-172221000D01*
X60555000Y-172221000D02*
X59230000Y-172221000D01*
X63943000Y-172261000D02*
X62635000Y-172261000D01*
X60555000Y-172261000D02*
X59247000Y-172261000D01*
X63924000Y-172301000D02*
X62635000Y-172301000D01*
X60555000Y-172301000D02*
X59266000Y-172301000D01*
X63905000Y-172341000D02*
X62635000Y-172341000D01*
X60555000Y-172341000D02*
X59285000Y-172341000D01*
X63885000Y-172381000D02*
X62635000Y-172381000D01*
X60555000Y-172381000D02*
X59305000Y-172381000D01*
X63863000Y-172421000D02*
X62635000Y-172421000D01*
X60555000Y-172421000D02*
X59327000Y-172421000D01*
X63842000Y-172461000D02*
X62635000Y-172461000D01*
X60555000Y-172461000D02*
X59348000Y-172461000D01*
X63819000Y-172501000D02*
X62635000Y-172501000D01*
X60555000Y-172501000D02*
X59371000Y-172501000D01*
X63795000Y-172541000D02*
X62635000Y-172541000D01*
X60555000Y-172541000D02*
X59395000Y-172541000D01*
X63770000Y-172581000D02*
X62635000Y-172581000D01*
X60555000Y-172581000D02*
X59420000Y-172581000D01*
X63744000Y-172621000D02*
X62635000Y-172621000D01*
X60555000Y-172621000D02*
X59446000Y-172621000D01*
X63717000Y-172661000D02*
X62635000Y-172661000D01*
X60555000Y-172661000D02*
X59473000Y-172661000D01*
X63690000Y-172701000D02*
X62635000Y-172701000D01*
X60555000Y-172701000D02*
X59500000Y-172701000D01*
X63660000Y-172741000D02*
X62635000Y-172741000D01*
X60555000Y-172741000D02*
X59530000Y-172741000D01*
X63630000Y-172781000D02*
X62635000Y-172781000D01*
X60555000Y-172781000D02*
X59560000Y-172781000D01*
X63599000Y-172821000D02*
X62635000Y-172821000D01*
X60555000Y-172821000D02*
X59591000Y-172821000D01*
X63566000Y-172861000D02*
X62635000Y-172861000D01*
X60555000Y-172861000D02*
X59624000Y-172861000D01*
X63532000Y-172901000D02*
X62635000Y-172901000D01*
X60555000Y-172901000D02*
X59658000Y-172901000D01*
X63496000Y-172941000D02*
X62635000Y-172941000D01*
X60555000Y-172941000D02*
X59694000Y-172941000D01*
X63459000Y-172981000D02*
X62635000Y-172981000D01*
X60555000Y-172981000D02*
X59731000Y-172981000D01*
X63421000Y-173021000D02*
X62635000Y-173021000D01*
X60555000Y-173021000D02*
X59769000Y-173021000D01*
X63380000Y-173061000D02*
X62635000Y-173061000D01*
X60555000Y-173061000D02*
X59810000Y-173061000D01*
X63338000Y-173101000D02*
X62635000Y-173101000D01*
X60555000Y-173101000D02*
X59852000Y-173101000D01*
X63294000Y-173141000D02*
X62635000Y-173141000D01*
X60555000Y-173141000D02*
X59896000Y-173141000D01*
X63248000Y-173181000D02*
X62635000Y-173181000D01*
X60555000Y-173181000D02*
X59942000Y-173181000D01*
X63200000Y-173221000D02*
X59990000Y-173221000D01*
X63149000Y-173261000D02*
X60041000Y-173261000D01*
X63095000Y-173301000D02*
X60095000Y-173301000D01*
X63038000Y-173341000D02*
X60152000Y-173341000D01*
X62978000Y-173381000D02*
X60212000Y-173381000D01*
X62914000Y-173421000D02*
X60276000Y-173421000D01*
X62846000Y-173461000D02*
X60344000Y-173461000D01*
X62773000Y-173501000D02*
X60417000Y-173501000D01*
X62693000Y-173541000D02*
X60497000Y-173541000D01*
X62606000Y-173581000D02*
X60584000Y-173581000D01*
X62510000Y-173621000D02*
X60680000Y-173621000D01*
X62400000Y-173661000D02*
X60790000Y-173661000D01*
X62272000Y-173701000D02*
X60918000Y-173701000D01*
X62113000Y-173741000D02*
X61077000Y-173741000D01*
X61879000Y-173781000D02*
X61311000Y-173781000D01*
X63070000Y-168375225D02*
X63070000Y-168875225D01*
X63320000Y-168625225D02*
X62820000Y-168625225D01*
X68115000Y-96559000D02*
G75*
G03*
X68115000Y-96559000I-5210000J0D01*
G01*
X64404302Y-96532815D02*
G75*
G02*
X62201000Y-95235000I-1499302J-26185D01*
G01*
X63609207Y-95234579D02*
G75*
G02*
X64405000Y-96559000I-704207J-1324421D01*
G01*
D15*
X117149880Y-71069200D02*
X124150120Y-71069200D01*
X117149880Y-83870800D02*
X117149880Y-71069200D01*
X124150120Y-83870800D02*
X117149880Y-83870800D01*
X124147580Y-71069200D02*
X124147580Y-83870800D01*
X123268172Y-77470000D02*
G75*
G03*
X123268172Y-77470000I-2618172J0D01*
G01*
X121150380Y-80070960D02*
X121150380Y-80568800D01*
X120149620Y-80070960D02*
X120149620Y-80568800D01*
X123850400Y-77470000D02*
G75*
G03*
X120650000Y-74269600I-3200400J0D01*
G01*
X120650000Y-74269600D02*
G75*
G03*
X117449600Y-77470000I0J-3200400D01*
G01*
X121160540Y-80629760D02*
G75*
G03*
X123809760Y-76959460I-510540J3159760D01*
G01*
X117490240Y-76959460D02*
G75*
G03*
X120139460Y-80629760I3159760J-510540D01*
G01*
X123550680Y-77470000D02*
G75*
G03*
X120650000Y-74569320I-2900680J0D01*
G01*
X120650000Y-74569320D02*
G75*
G03*
X117749320Y-77470000I0J-2900680D01*
G01*
X123250960Y-77470000D02*
G75*
G03*
X120650000Y-74869040I-2600960J0D01*
G01*
X120650000Y-74869040D02*
G75*
G03*
X118049040Y-77470000I0J-2600960D01*
G01*
X121351040Y-80299560D02*
G75*
G03*
X123479560Y-76768960I-701040J2829560D01*
G01*
X117810280Y-76768960D02*
G75*
G03*
X119948960Y-80309720I2839720J-701040D01*
G01*
X118089680Y-76989940D02*
G75*
G03*
X120169940Y-80030320I2560320J-480060D01*
G01*
X121170700Y-80030320D02*
G75*
G03*
X123210320Y-76949300I-520700J2560320D01*
G01*
X106989880Y-71069200D02*
X113990120Y-71069200D01*
X106989880Y-83870800D02*
X106989880Y-71069200D01*
X113990120Y-83870800D02*
X106989880Y-83870800D01*
X113987580Y-71069200D02*
X113987580Y-83870800D01*
X113108172Y-77470000D02*
G75*
G03*
X113108172Y-77470000I-2618172J0D01*
G01*
X110990380Y-80070960D02*
X110990380Y-80568800D01*
X109989620Y-80070960D02*
X109989620Y-80568800D01*
X113690400Y-77470000D02*
G75*
G03*
X110490000Y-74269600I-3200400J0D01*
G01*
X110490000Y-74269600D02*
G75*
G03*
X107289600Y-77470000I0J-3200400D01*
G01*
X111000540Y-80629760D02*
G75*
G03*
X113649760Y-76959460I-510540J3159760D01*
G01*
X107330240Y-76959460D02*
G75*
G03*
X109979460Y-80629760I3159760J-510540D01*
G01*
X113390680Y-77470000D02*
G75*
G03*
X110490000Y-74569320I-2900680J0D01*
G01*
X110490000Y-74569320D02*
G75*
G03*
X107589320Y-77470000I0J-2900680D01*
G01*
X113090960Y-77470000D02*
G75*
G03*
X110490000Y-74869040I-2600960J0D01*
G01*
X110490000Y-74869040D02*
G75*
G03*
X107889040Y-77470000I0J-2600960D01*
G01*
X111191040Y-80299560D02*
G75*
G03*
X113319560Y-76768960I-701040J2829560D01*
G01*
X107650280Y-76768960D02*
G75*
G03*
X109788960Y-80309720I2839720J-701040D01*
G01*
X107929680Y-76989940D02*
G75*
G03*
X110009940Y-80030320I2560320J-480060D01*
G01*
X111010700Y-80030320D02*
G75*
G03*
X113050320Y-76949300I-520700J2560320D01*
G01*
X96829880Y-71069200D02*
X103830120Y-71069200D01*
X96829880Y-83870800D02*
X96829880Y-71069200D01*
X103830120Y-83870800D02*
X96829880Y-83870800D01*
X103827580Y-71069200D02*
X103827580Y-83870800D01*
X102948172Y-77470000D02*
G75*
G03*
X102948172Y-77470000I-2618172J0D01*
G01*
X100830380Y-80070960D02*
X100830380Y-80568800D01*
X99829620Y-80070960D02*
X99829620Y-80568800D01*
X103530400Y-77470000D02*
G75*
G03*
X100330000Y-74269600I-3200400J0D01*
G01*
X100330000Y-74269600D02*
G75*
G03*
X97129600Y-77470000I0J-3200400D01*
G01*
X100840540Y-80629760D02*
G75*
G03*
X103489760Y-76959460I-510540J3159760D01*
G01*
X97170240Y-76959460D02*
G75*
G03*
X99819460Y-80629760I3159760J-510540D01*
G01*
X103230680Y-77470000D02*
G75*
G03*
X100330000Y-74569320I-2900680J0D01*
G01*
X100330000Y-74569320D02*
G75*
G03*
X97429320Y-77470000I0J-2900680D01*
G01*
X102930960Y-77470000D02*
G75*
G03*
X100330000Y-74869040I-2600960J0D01*
G01*
X100330000Y-74869040D02*
G75*
G03*
X97729040Y-77470000I0J-2600960D01*
G01*
X101031040Y-80299560D02*
G75*
G03*
X103159560Y-76768960I-701040J2829560D01*
G01*
X97490280Y-76768960D02*
G75*
G03*
X99628960Y-80309720I2839720J-701040D01*
G01*
X97769680Y-76989940D02*
G75*
G03*
X99849940Y-80030320I2560320J-480060D01*
G01*
X100850700Y-80030320D02*
G75*
G03*
X102890320Y-76949300I-520700J2560320D01*
G01*
X86669880Y-71069200D02*
X93670120Y-71069200D01*
X86669880Y-83870800D02*
X86669880Y-71069200D01*
X93670120Y-83870800D02*
X86669880Y-83870800D01*
X93667580Y-71069200D02*
X93667580Y-83870800D01*
X92788172Y-77470000D02*
G75*
G03*
X92788172Y-77470000I-2618172J0D01*
G01*
X90670380Y-80070960D02*
X90670380Y-80568800D01*
X89669620Y-80070960D02*
X89669620Y-80568800D01*
X93370400Y-77470000D02*
G75*
G03*
X90170000Y-74269600I-3200400J0D01*
G01*
X90170000Y-74269600D02*
G75*
G03*
X86969600Y-77470000I0J-3200400D01*
G01*
X90680540Y-80629760D02*
G75*
G03*
X93329760Y-76959460I-510540J3159760D01*
G01*
X87010240Y-76959460D02*
G75*
G03*
X89659460Y-80629760I3159760J-510540D01*
G01*
X93070680Y-77470000D02*
G75*
G03*
X90170000Y-74569320I-2900680J0D01*
G01*
X90170000Y-74569320D02*
G75*
G03*
X87269320Y-77470000I0J-2900680D01*
G01*
X92770960Y-77470000D02*
G75*
G03*
X90170000Y-74869040I-2600960J0D01*
G01*
X90170000Y-74869040D02*
G75*
G03*
X87569040Y-77470000I0J-2600960D01*
G01*
X90871040Y-80299560D02*
G75*
G03*
X92999560Y-76768960I-701040J2829560D01*
G01*
X87330280Y-76768960D02*
G75*
G03*
X89468960Y-80309720I2839720J-701040D01*
G01*
X87609680Y-76989940D02*
G75*
G03*
X89689940Y-80030320I2560320J-480060D01*
G01*
X90690700Y-80030320D02*
G75*
G03*
X92730320Y-76949300I-520700J2560320D01*
G01*
X76509880Y-71069200D02*
X83510120Y-71069200D01*
X76509880Y-83870800D02*
X76509880Y-71069200D01*
X83510120Y-83870800D02*
X76509880Y-83870800D01*
X83507580Y-71069200D02*
X83507580Y-83870800D01*
X82628172Y-77470000D02*
G75*
G03*
X82628172Y-77470000I-2618172J0D01*
G01*
X80510380Y-80070960D02*
X80510380Y-80568800D01*
X79509620Y-80070960D02*
X79509620Y-80568800D01*
X83210400Y-77470000D02*
G75*
G03*
X80010000Y-74269600I-3200400J0D01*
G01*
X80010000Y-74269600D02*
G75*
G03*
X76809600Y-77470000I0J-3200400D01*
G01*
X80520540Y-80629760D02*
G75*
G03*
X83169760Y-76959460I-510540J3159760D01*
G01*
X76850240Y-76959460D02*
G75*
G03*
X79499460Y-80629760I3159760J-510540D01*
G01*
X82910680Y-77470000D02*
G75*
G03*
X80010000Y-74569320I-2900680J0D01*
G01*
X80010000Y-74569320D02*
G75*
G03*
X77109320Y-77470000I0J-2900680D01*
G01*
X82610960Y-77470000D02*
G75*
G03*
X80010000Y-74869040I-2600960J0D01*
G01*
X80010000Y-74869040D02*
G75*
G03*
X77409040Y-77470000I0J-2600960D01*
G01*
X80711040Y-80299560D02*
G75*
G03*
X82839560Y-76768960I-701040J2829560D01*
G01*
X77170280Y-76768960D02*
G75*
G03*
X79308960Y-80309720I2839720J-701040D01*
G01*
X77449680Y-76989940D02*
G75*
G03*
X79529940Y-80030320I2560320J-480060D01*
G01*
X80530700Y-80030320D02*
G75*
G03*
X82570320Y-76949300I-520700J2560320D01*
G01*
X66349880Y-71069200D02*
X73350120Y-71069200D01*
X66349880Y-83870800D02*
X66349880Y-71069200D01*
X73350120Y-83870800D02*
X66349880Y-83870800D01*
X73347580Y-71069200D02*
X73347580Y-83870800D01*
X72468172Y-77470000D02*
G75*
G03*
X72468172Y-77470000I-2618172J0D01*
G01*
X70350380Y-80070960D02*
X70350380Y-80568800D01*
X69349620Y-80070960D02*
X69349620Y-80568800D01*
X73050400Y-77470000D02*
G75*
G03*
X69850000Y-74269600I-3200400J0D01*
G01*
X69850000Y-74269600D02*
G75*
G03*
X66649600Y-77470000I0J-3200400D01*
G01*
X70360540Y-80629760D02*
G75*
G03*
X73009760Y-76959460I-510540J3159760D01*
G01*
X66690240Y-76959460D02*
G75*
G03*
X69339460Y-80629760I3159760J-510540D01*
G01*
X72750680Y-77470000D02*
G75*
G03*
X69850000Y-74569320I-2900680J0D01*
G01*
X69850000Y-74569320D02*
G75*
G03*
X66949320Y-77470000I0J-2900680D01*
G01*
X72450960Y-77470000D02*
G75*
G03*
X69850000Y-74869040I-2600960J0D01*
G01*
X69850000Y-74869040D02*
G75*
G03*
X67249040Y-77470000I0J-2600960D01*
G01*
X70551040Y-80299560D02*
G75*
G03*
X72679560Y-76768960I-701040J2829560D01*
G01*
X67010280Y-76768960D02*
G75*
G03*
X69148960Y-80309720I2839720J-701040D01*
G01*
X67289680Y-76989940D02*
G75*
G03*
X69369940Y-80030320I2560320J-480060D01*
G01*
X70370700Y-80030320D02*
G75*
G03*
X72410320Y-76949300I-520700J2560320D01*
G01*
X56189880Y-71069200D02*
X63190120Y-71069200D01*
X56189880Y-83870800D02*
X56189880Y-71069200D01*
X63190120Y-83870800D02*
X56189880Y-83870800D01*
X63187580Y-71069200D02*
X63187580Y-83870800D01*
X62308172Y-77470000D02*
G75*
G03*
X62308172Y-77470000I-2618172J0D01*
G01*
X60190380Y-80070960D02*
X60190380Y-80568800D01*
X59189620Y-80070960D02*
X59189620Y-80568800D01*
X62890400Y-77470000D02*
G75*
G03*
X59690000Y-74269600I-3200400J0D01*
G01*
X59690000Y-74269600D02*
G75*
G03*
X56489600Y-77470000I0J-3200400D01*
G01*
X60200540Y-80629760D02*
G75*
G03*
X62849760Y-76959460I-510540J3159760D01*
G01*
X56530240Y-76959460D02*
G75*
G03*
X59179460Y-80629760I3159760J-510540D01*
G01*
X62590680Y-77470000D02*
G75*
G03*
X59690000Y-74569320I-2900680J0D01*
G01*
X59690000Y-74569320D02*
G75*
G03*
X56789320Y-77470000I0J-2900680D01*
G01*
X62290960Y-77470000D02*
G75*
G03*
X59690000Y-74869040I-2600960J0D01*
G01*
X59690000Y-74869040D02*
G75*
G03*
X57089040Y-77470000I0J-2600960D01*
G01*
X60391040Y-80299560D02*
G75*
G03*
X62519560Y-76768960I-701040J2829560D01*
G01*
X56850280Y-76768960D02*
G75*
G03*
X58988960Y-80309720I2839720J-701040D01*
G01*
X57129680Y-76989940D02*
G75*
G03*
X59209940Y-80030320I2560320J-480060D01*
G01*
X60210700Y-80030320D02*
G75*
G03*
X62250320Y-76949300I-520700J2560320D01*
G01*
X46029880Y-71069200D02*
X53030120Y-71069200D01*
X46029880Y-83870800D02*
X46029880Y-71069200D01*
X53030120Y-83870800D02*
X46029880Y-83870800D01*
X53027580Y-71069200D02*
X53027580Y-83870800D01*
X52148172Y-77470000D02*
G75*
G03*
X52148172Y-77470000I-2618172J0D01*
G01*
X50030380Y-80070960D02*
X50030380Y-80568800D01*
X49029620Y-80070960D02*
X49029620Y-80568800D01*
X52730400Y-77470000D02*
G75*
G03*
X49530000Y-74269600I-3200400J0D01*
G01*
X49530000Y-74269600D02*
G75*
G03*
X46329600Y-77470000I0J-3200400D01*
G01*
X50040540Y-80629760D02*
G75*
G03*
X52689760Y-76959460I-510540J3159760D01*
G01*
X46370240Y-76959460D02*
G75*
G03*
X49019460Y-80629760I3159760J-510540D01*
G01*
X52430680Y-77470000D02*
G75*
G03*
X49530000Y-74569320I-2900680J0D01*
G01*
X49530000Y-74569320D02*
G75*
G03*
X46629320Y-77470000I0J-2900680D01*
G01*
X52130960Y-77470000D02*
G75*
G03*
X49530000Y-74869040I-2600960J0D01*
G01*
X49530000Y-74869040D02*
G75*
G03*
X46929040Y-77470000I0J-2600960D01*
G01*
X50231040Y-80299560D02*
G75*
G03*
X52359560Y-76768960I-701040J2829560D01*
G01*
X46690280Y-76768960D02*
G75*
G03*
X48828960Y-80309720I2839720J-701040D01*
G01*
X46969680Y-76989940D02*
G75*
G03*
X49049940Y-80030320I2560320J-480060D01*
G01*
X50050700Y-80030320D02*
G75*
G03*
X52090320Y-76949300I-520700J2560320D01*
G01*
D14*
X135110000Y-147210000D02*
X129090000Y-147210000D01*
X129090000Y-147210000D02*
X129090000Y-155050000D01*
X129090000Y-155050000D02*
X135110000Y-155050000D01*
X135110000Y-155050000D02*
X135110000Y-147210000D01*
X134080000Y-146920000D02*
X130080000Y-146920000D01*
X129090000Y-148590000D02*
X130090000Y-148590000D01*
X130090000Y-148590000D02*
X130090000Y-153670000D01*
X130090000Y-153670000D02*
X129090000Y-153670000D01*
X130090000Y-148590000D02*
X130620000Y-148840000D01*
X130620000Y-148840000D02*
X130620000Y-153420000D01*
X130620000Y-153420000D02*
X130090000Y-153670000D01*
X129090000Y-148840000D02*
X130090000Y-148840000D01*
X129090000Y-153420000D02*
X130090000Y-153420000D01*
X135110000Y-147790000D02*
X134510000Y-147790000D01*
X134510000Y-147790000D02*
X134510000Y-149390000D01*
X134510000Y-149390000D02*
X135110000Y-149390000D01*
X135110000Y-150330000D02*
X134510000Y-150330000D01*
X134510000Y-150330000D02*
X134510000Y-151930000D01*
X134510000Y-151930000D02*
X135110000Y-151930000D01*
X135110000Y-152870000D02*
X134510000Y-152870000D01*
X134510000Y-152870000D02*
X134510000Y-154470000D01*
X134510000Y-154470000D02*
X135110000Y-154470000D01*
X135110000Y-123715000D02*
X129090000Y-123715000D01*
X129090000Y-123715000D02*
X129090000Y-131555000D01*
X129090000Y-131555000D02*
X135110000Y-131555000D01*
X135110000Y-131555000D02*
X135110000Y-123715000D01*
X134080000Y-123425000D02*
X130080000Y-123425000D01*
X129090000Y-125095000D02*
X130090000Y-125095000D01*
X130090000Y-125095000D02*
X130090000Y-130175000D01*
X130090000Y-130175000D02*
X129090000Y-130175000D01*
X130090000Y-125095000D02*
X130620000Y-125345000D01*
X130620000Y-125345000D02*
X130620000Y-129925000D01*
X130620000Y-129925000D02*
X130090000Y-130175000D01*
X129090000Y-125345000D02*
X130090000Y-125345000D01*
X129090000Y-129925000D02*
X130090000Y-129925000D01*
X135110000Y-124295000D02*
X134510000Y-124295000D01*
X134510000Y-124295000D02*
X134510000Y-125895000D01*
X134510000Y-125895000D02*
X135110000Y-125895000D01*
X135110000Y-126835000D02*
X134510000Y-126835000D01*
X134510000Y-126835000D02*
X134510000Y-128435000D01*
X134510000Y-128435000D02*
X135110000Y-128435000D01*
X135110000Y-129375000D02*
X134510000Y-129375000D01*
X134510000Y-129375000D02*
X134510000Y-130975000D01*
X134510000Y-130975000D02*
X135110000Y-130975000D01*
X135110000Y-80535000D02*
X129090000Y-80535000D01*
X129090000Y-80535000D02*
X129090000Y-88375000D01*
X129090000Y-88375000D02*
X135110000Y-88375000D01*
X135110000Y-88375000D02*
X135110000Y-80535000D01*
X134080000Y-80245000D02*
X130080000Y-80245000D01*
X129090000Y-81915000D02*
X130090000Y-81915000D01*
X130090000Y-81915000D02*
X130090000Y-86995000D01*
X130090000Y-86995000D02*
X129090000Y-86995000D01*
X130090000Y-81915000D02*
X130620000Y-82165000D01*
X130620000Y-82165000D02*
X130620000Y-86745000D01*
X130620000Y-86745000D02*
X130090000Y-86995000D01*
X129090000Y-82165000D02*
X130090000Y-82165000D01*
X129090000Y-86745000D02*
X130090000Y-86745000D01*
X135110000Y-81115000D02*
X134510000Y-81115000D01*
X134510000Y-81115000D02*
X134510000Y-82715000D01*
X134510000Y-82715000D02*
X135110000Y-82715000D01*
X135110000Y-83655000D02*
X134510000Y-83655000D01*
X134510000Y-83655000D02*
X134510000Y-85255000D01*
X134510000Y-85255000D02*
X135110000Y-85255000D01*
X135110000Y-86195000D02*
X134510000Y-86195000D01*
X134510000Y-86195000D02*
X134510000Y-87795000D01*
X134510000Y-87795000D02*
X135110000Y-87795000D01*
X79890000Y-91270000D02*
X79890000Y-101770000D01*
X100450000Y-91270000D02*
X79890000Y-91270000D01*
X100450000Y-101770000D02*
X100450000Y-91270000D01*
X79890000Y-101770000D02*
X100450000Y-101770000D01*
X79950000Y-94270000D02*
X79950000Y-95520000D01*
X100390000Y-94270000D02*
X79950000Y-94270000D01*
X100390000Y-98770000D02*
X100390000Y-94270000D01*
X79950000Y-98770000D02*
X100390000Y-98770000D01*
X79950000Y-97520000D02*
X79950000Y-98770000D01*
X79950000Y-95520000D02*
G75*
G02*
X79950000Y-97520000I0J-1000000D01*
G01*
X72270000Y-49995000D02*
X72270000Y-60495000D01*
X97910000Y-49995000D02*
X72270000Y-49995000D01*
X97910000Y-60495000D02*
X97910000Y-49995000D01*
X72270000Y-60495000D02*
X97910000Y-60495000D01*
X72330000Y-52995000D02*
X72330000Y-54245000D01*
X97850000Y-52995000D02*
X72330000Y-52995000D01*
X97850000Y-57495000D02*
X97850000Y-52995000D01*
X72330000Y-57495000D02*
X97850000Y-57495000D01*
X72330000Y-56245000D02*
X72330000Y-57495000D01*
X72330000Y-54245000D02*
G75*
G02*
X72330000Y-56245000I0J-1000000D01*
G01*
X55245000Y-91845000D02*
X55245000Y-92615000D01*
X55245000Y-99925000D02*
X55245000Y-99155000D01*
X53875000Y-92615000D02*
X53875000Y-99155000D01*
X56615000Y-92615000D02*
X53875000Y-92615000D01*
X56615000Y-99155000D02*
X56615000Y-92615000D01*
X53875000Y-99155000D02*
X56615000Y-99155000D01*
X70485000Y-99925000D02*
X70485000Y-99155000D01*
X70485000Y-91845000D02*
X70485000Y-92615000D01*
X71855000Y-99155000D02*
X71855000Y-92615000D01*
X69115000Y-99155000D02*
X71855000Y-99155000D01*
X69115000Y-92615000D02*
X69115000Y-99155000D01*
X71855000Y-92615000D02*
X69115000Y-92615000D01*
X84860000Y-88900000D02*
X85630000Y-88900000D01*
X92940000Y-88900000D02*
X92170000Y-88900000D01*
X85630000Y-90270000D02*
X92170000Y-90270000D01*
X85630000Y-87530000D02*
X85630000Y-90270000D01*
X92170000Y-87530000D02*
X85630000Y-87530000D01*
X92170000Y-90270000D02*
X92170000Y-87530000D01*
X53340000Y-117880000D02*
X53340000Y-118650000D01*
X53340000Y-125960000D02*
X53340000Y-125190000D01*
X51970000Y-118650000D02*
X51970000Y-125190000D01*
X54710000Y-118650000D02*
X51970000Y-118650000D01*
X54710000Y-125190000D02*
X54710000Y-118650000D01*
X51970000Y-125190000D02*
X54710000Y-125190000D01*
X59055000Y-148820000D02*
X59055000Y-148050000D01*
X59055000Y-140740000D02*
X59055000Y-141510000D01*
X60425000Y-148050000D02*
X60425000Y-141510000D01*
X57685000Y-148050000D02*
X60425000Y-148050000D01*
X57685000Y-141510000D02*
X57685000Y-148050000D01*
X60425000Y-141510000D02*
X57685000Y-141510000D01*
X62865000Y-140740000D02*
X62865000Y-141510000D01*
X62865000Y-148820000D02*
X62865000Y-148050000D01*
X61495000Y-141510000D02*
X61495000Y-148050000D01*
X64235000Y-141510000D02*
X61495000Y-141510000D01*
X64235000Y-148050000D02*
X64235000Y-141510000D01*
X61495000Y-148050000D02*
X64235000Y-148050000D01*
X110895000Y-125095000D02*
X111665000Y-125095000D01*
X118975000Y-125095000D02*
X118205000Y-125095000D01*
X111665000Y-126465000D02*
X118205000Y-126465000D01*
X111665000Y-123725000D02*
X111665000Y-126465000D01*
X118205000Y-123725000D02*
X111665000Y-123725000D01*
X118205000Y-126465000D02*
X118205000Y-123725000D01*
X110895000Y-128270000D02*
X111665000Y-128270000D01*
X118975000Y-128270000D02*
X118205000Y-128270000D01*
X111665000Y-129640000D02*
X118205000Y-129640000D01*
X111665000Y-126900000D02*
X111665000Y-129640000D01*
X118205000Y-126900000D02*
X111665000Y-126900000D01*
X118205000Y-129640000D02*
X118205000Y-126900000D01*
X103735000Y-155575000D02*
X102965000Y-155575000D01*
X95655000Y-155575000D02*
X96425000Y-155575000D01*
X102965000Y-154205000D02*
X96425000Y-154205000D01*
X102965000Y-156945000D02*
X102965000Y-154205000D01*
X96425000Y-156945000D02*
X102965000Y-156945000D01*
X96425000Y-154205000D02*
X96425000Y-156945000D01*
X95655000Y-152400000D02*
X96425000Y-152400000D01*
X103735000Y-152400000D02*
X102965000Y-152400000D01*
X96425000Y-153770000D02*
X102965000Y-153770000D01*
X96425000Y-151030000D02*
X96425000Y-153770000D01*
X102965000Y-151030000D02*
X96425000Y-151030000D01*
X102965000Y-153770000D02*
X102965000Y-151030000D01*
X132080000Y-65810000D02*
X132080000Y-66580000D01*
X132080000Y-73890000D02*
X132080000Y-73120000D01*
X130710000Y-66580000D02*
X130710000Y-73120000D01*
X133450000Y-66580000D02*
X130710000Y-66580000D01*
X133450000Y-73120000D02*
X133450000Y-66580000D01*
X130710000Y-73120000D02*
X133450000Y-73120000D01*
X86130000Y-179070000D02*
X86900000Y-179070000D01*
X94210000Y-179070000D02*
X93440000Y-179070000D01*
X86900000Y-180440000D02*
X93440000Y-180440000D01*
X86900000Y-177700000D02*
X86900000Y-180440000D01*
X93440000Y-177700000D02*
X86900000Y-177700000D01*
X93440000Y-180440000D02*
X93440000Y-177700000D01*
X100735000Y-179070000D02*
X101505000Y-179070000D01*
X108815000Y-179070000D02*
X108045000Y-179070000D01*
X101505000Y-180440000D02*
X108045000Y-180440000D01*
X101505000Y-177700000D02*
X101505000Y-180440000D01*
X108045000Y-177700000D02*
X101505000Y-177700000D01*
X108045000Y-180440000D02*
X108045000Y-177700000D01*
X132715000Y-98830000D02*
X132715000Y-99600000D01*
X132715000Y-106910000D02*
X132715000Y-106140000D01*
X131345000Y-99600000D02*
X131345000Y-106140000D01*
X134085000Y-99600000D02*
X131345000Y-99600000D01*
X134085000Y-106140000D02*
X134085000Y-99600000D01*
X131345000Y-106140000D02*
X134085000Y-106140000D01*
X118975000Y-161925000D02*
X118205000Y-161925000D01*
X110895000Y-161925000D02*
X111665000Y-161925000D01*
X118205000Y-160555000D02*
X111665000Y-160555000D01*
X118205000Y-163295000D02*
X118205000Y-160555000D01*
X111665000Y-163295000D02*
X118205000Y-163295000D01*
X111665000Y-160555000D02*
X111665000Y-163295000D01*
X59055000Y-162790000D02*
X59055000Y-162020000D01*
X59055000Y-154710000D02*
X59055000Y-155480000D01*
X60425000Y-162020000D02*
X60425000Y-155480000D01*
X57685000Y-162020000D02*
X60425000Y-162020000D01*
X57685000Y-155480000D02*
X57685000Y-162020000D01*
X60425000Y-155480000D02*
X57685000Y-155480000D01*
X66675000Y-154710000D02*
X66675000Y-155480000D01*
X66675000Y-162790000D02*
X66675000Y-162020000D01*
X65305000Y-155480000D02*
X65305000Y-162020000D01*
X68045000Y-155480000D02*
X65305000Y-155480000D01*
X68045000Y-162020000D02*
X68045000Y-155480000D01*
X65305000Y-162020000D02*
X68045000Y-162020000D01*
X129480000Y-34865000D02*
X130810000Y-34865000D01*
X129480000Y-36195000D02*
X129480000Y-34865000D01*
X132080000Y-34865000D02*
X134680000Y-34865000D01*
X132080000Y-37465000D02*
X132080000Y-34865000D01*
X129480000Y-37465000D02*
X132080000Y-37465000D01*
X134680000Y-34865000D02*
X134680000Y-60385000D01*
X129480000Y-37465000D02*
X129480000Y-60385000D01*
X129480000Y-60385000D02*
X134680000Y-60385000D01*
X43755000Y-34865000D02*
X45085000Y-34865000D01*
X43755000Y-36195000D02*
X43755000Y-34865000D01*
X46355000Y-34865000D02*
X48955000Y-34865000D01*
X46355000Y-37465000D02*
X46355000Y-34865000D01*
X43755000Y-37465000D02*
X46355000Y-37465000D01*
X48955000Y-34865000D02*
X48955000Y-60385000D01*
X43755000Y-37465000D02*
X43755000Y-60385000D01*
X43755000Y-60385000D02*
X48955000Y-60385000D01*
X134510000Y-169710000D02*
X135110000Y-169710000D01*
X134510000Y-168110000D02*
X134510000Y-169710000D01*
X135110000Y-168110000D02*
X134510000Y-168110000D01*
X134510000Y-167170000D02*
X135110000Y-167170000D01*
X134510000Y-165570000D02*
X134510000Y-167170000D01*
X135110000Y-165570000D02*
X134510000Y-165570000D01*
X129090000Y-168660000D02*
X130090000Y-168660000D01*
X129090000Y-166620000D02*
X130090000Y-166620000D01*
X130620000Y-168660000D02*
X130090000Y-168910000D01*
X130620000Y-166620000D02*
X130620000Y-168660000D01*
X130090000Y-166370000D02*
X130620000Y-166620000D01*
X130090000Y-168910000D02*
X129090000Y-168910000D01*
X130090000Y-166370000D02*
X130090000Y-168910000D01*
X129090000Y-166370000D02*
X130090000Y-166370000D01*
X134080000Y-164700000D02*
X130080000Y-164700000D01*
X135110000Y-170290000D02*
X135110000Y-164990000D01*
X129090000Y-170290000D02*
X135110000Y-170290000D01*
X129090000Y-164990000D02*
X129090000Y-170290000D01*
X135110000Y-164990000D02*
X129090000Y-164990000D01*
X134510000Y-162725000D02*
X135110000Y-162725000D01*
X134510000Y-161125000D02*
X134510000Y-162725000D01*
X135110000Y-161125000D02*
X134510000Y-161125000D01*
X134510000Y-160185000D02*
X135110000Y-160185000D01*
X134510000Y-158585000D02*
X134510000Y-160185000D01*
X135110000Y-158585000D02*
X134510000Y-158585000D01*
X129090000Y-161675000D02*
X130090000Y-161675000D01*
X129090000Y-159635000D02*
X130090000Y-159635000D01*
X130620000Y-161675000D02*
X130090000Y-161925000D01*
X130620000Y-159635000D02*
X130620000Y-161675000D01*
X130090000Y-159385000D02*
X130620000Y-159635000D01*
X130090000Y-161925000D02*
X129090000Y-161925000D01*
X130090000Y-159385000D02*
X130090000Y-161925000D01*
X129090000Y-159385000D02*
X130090000Y-159385000D01*
X134080000Y-157715000D02*
X130080000Y-157715000D01*
X135110000Y-163305000D02*
X135110000Y-158005000D01*
X129090000Y-163305000D02*
X135110000Y-163305000D01*
X129090000Y-158005000D02*
X129090000Y-163305000D01*
X135110000Y-158005000D02*
X129090000Y-158005000D01*
X53505000Y-26780000D02*
X53505000Y-26180000D01*
X51905000Y-26780000D02*
X53505000Y-26780000D01*
X51905000Y-26180000D02*
X51905000Y-26780000D01*
X50965000Y-26780000D02*
X50965000Y-26180000D01*
X49365000Y-26780000D02*
X50965000Y-26780000D01*
X49365000Y-26180000D02*
X49365000Y-26780000D01*
X52455000Y-32200000D02*
X52455000Y-31200000D01*
X50415000Y-32200000D02*
X50415000Y-31200000D01*
X52455000Y-30670000D02*
X52705000Y-31200000D01*
X50415000Y-30670000D02*
X52455000Y-30670000D01*
X50165000Y-31200000D02*
X50415000Y-30670000D01*
X52705000Y-31200000D02*
X52705000Y-32200000D01*
X50165000Y-31200000D02*
X52705000Y-31200000D01*
X50165000Y-32200000D02*
X50165000Y-31200000D01*
X48495000Y-27210000D02*
X48495000Y-31210000D01*
X54085000Y-26180000D02*
X48785000Y-26180000D01*
X54085000Y-32200000D02*
X54085000Y-26180000D01*
X48785000Y-32200000D02*
X54085000Y-32200000D01*
X48785000Y-26180000D02*
X48785000Y-32200000D01*
X131635000Y-110200000D02*
X131479000Y-110200000D01*
X133951000Y-110200000D02*
X133795000Y-110200000D01*
X131635163Y-112801130D02*
G75*
G02*
X131635000Y-110719039I1079837J1041130D01*
G01*
X133794837Y-112801130D02*
G75*
G03*
X133795000Y-110719039I-1079837J1041130D01*
G01*
X131636392Y-113432335D02*
G75*
G02*
X131479484Y-110200000I1078608J1672335D01*
G01*
X133793608Y-113432335D02*
G75*
G03*
X133950516Y-110200000I-1078608J1672335D01*
G01*
X60290000Y-26470000D02*
X60290000Y-29410000D01*
X60530000Y-26470000D02*
X60530000Y-29410000D01*
X60410000Y-26470000D02*
X60410000Y-29410000D01*
X66170000Y-27940000D02*
X64950000Y-27940000D01*
X58290000Y-27940000D02*
X59510000Y-27940000D01*
X64950000Y-26470000D02*
X59510000Y-26470000D01*
X64950000Y-29410000D02*
X64950000Y-26470000D01*
X59510000Y-29410000D02*
X64950000Y-29410000D01*
X59510000Y-26470000D02*
X59510000Y-29410000D01*
X112840000Y-56805000D02*
X112996000Y-56805000D01*
X110524000Y-56805000D02*
X110680000Y-56805000D01*
X112839837Y-54203870D02*
G75*
G02*
X112840000Y-56285961I-1079837J-1041130D01*
G01*
X110680163Y-54203870D02*
G75*
G03*
X110680000Y-56285961I1079837J-1041130D01*
G01*
X112838608Y-53572665D02*
G75*
G02*
X112995516Y-56805000I-1078608J-1672335D01*
G01*
X110681392Y-53572665D02*
G75*
G03*
X110524484Y-56805000I1078608J-1672335D01*
G01*
X61395000Y-160690000D02*
X64335000Y-160690000D01*
X61395000Y-160450000D02*
X64335000Y-160450000D01*
X61395000Y-160570000D02*
X64335000Y-160570000D01*
X62865000Y-154810000D02*
X62865000Y-156030000D01*
X62865000Y-162690000D02*
X62865000Y-161470000D01*
X61395000Y-156030000D02*
X61395000Y-161470000D01*
X64335000Y-156030000D02*
X61395000Y-156030000D01*
X64335000Y-161470000D02*
X64335000Y-156030000D01*
X61395000Y-161470000D02*
X64335000Y-161470000D01*
X87125000Y-116088709D02*
X88125000Y-116088709D01*
X87625000Y-116588709D02*
X87625000Y-115588709D01*
X89901000Y-106028063D02*
X91099000Y-106028063D01*
X89638000Y-106068063D02*
X91362000Y-106068063D01*
X89438000Y-106108063D02*
X91562000Y-106108063D01*
X89270000Y-106148063D02*
X91730000Y-106148063D01*
X89122000Y-106188063D02*
X91878000Y-106188063D01*
X88990000Y-106228063D02*
X92010000Y-106228063D01*
X88870000Y-106268063D02*
X92130000Y-106268063D01*
X88758000Y-106308063D02*
X92242000Y-106308063D01*
X88654000Y-106348063D02*
X92346000Y-106348063D01*
X88556000Y-106388063D02*
X92444000Y-106388063D01*
X88463000Y-106428063D02*
X92537000Y-106428063D01*
X88375000Y-106468063D02*
X92625000Y-106468063D01*
X88291000Y-106508063D02*
X92709000Y-106508063D01*
X88211000Y-106548063D02*
X92789000Y-106548063D01*
X88135000Y-106588063D02*
X92865000Y-106588063D01*
X88061000Y-106628063D02*
X92939000Y-106628063D01*
X87990000Y-106668063D02*
X93010000Y-106668063D01*
X87921000Y-106708063D02*
X93079000Y-106708063D01*
X87855000Y-106748063D02*
X93145000Y-106748063D01*
X87791000Y-106788063D02*
X93209000Y-106788063D01*
X87730000Y-106828063D02*
X93270000Y-106828063D01*
X87670000Y-106868063D02*
X93330000Y-106868063D01*
X87611000Y-106908063D02*
X93389000Y-106908063D01*
X87555000Y-106948063D02*
X93445000Y-106948063D01*
X87500000Y-106988063D02*
X93500000Y-106988063D01*
X87446000Y-107028063D02*
X93554000Y-107028063D01*
X87394000Y-107068063D02*
X93606000Y-107068063D01*
X87344000Y-107108063D02*
X93656000Y-107108063D01*
X87294000Y-107148063D02*
X93706000Y-107148063D01*
X87246000Y-107188063D02*
X93754000Y-107188063D01*
X87199000Y-107228063D02*
X93801000Y-107228063D01*
X87153000Y-107268063D02*
X93847000Y-107268063D01*
X87108000Y-107308063D02*
X93892000Y-107308063D01*
X87064000Y-107348063D02*
X93936000Y-107348063D01*
X87022000Y-107388063D02*
X93978000Y-107388063D01*
X86980000Y-107428063D02*
X94020000Y-107428063D01*
X86939000Y-107468063D02*
X94061000Y-107468063D01*
X86899000Y-107508063D02*
X94101000Y-107508063D01*
X86860000Y-107548063D02*
X94140000Y-107548063D01*
X86821000Y-107588063D02*
X94179000Y-107588063D01*
X86784000Y-107628063D02*
X94216000Y-107628063D01*
X86747000Y-107668063D02*
X94253000Y-107668063D01*
X86711000Y-107708063D02*
X94289000Y-107708063D01*
X86676000Y-107748063D02*
X94324000Y-107748063D01*
X86642000Y-107788063D02*
X94358000Y-107788063D01*
X86608000Y-107828063D02*
X94392000Y-107828063D01*
X86575000Y-107868063D02*
X94425000Y-107868063D01*
X86543000Y-107908063D02*
X94457000Y-107908063D01*
X86511000Y-107948063D02*
X94489000Y-107948063D01*
X86480000Y-107988063D02*
X94520000Y-107988063D01*
X86450000Y-108028063D02*
X94550000Y-108028063D01*
X86420000Y-108068063D02*
X94580000Y-108068063D01*
X86390000Y-108108063D02*
X94610000Y-108108063D01*
X93140000Y-108148063D02*
X94638000Y-108148063D01*
X86362000Y-108148063D02*
X91060000Y-108148063D01*
X93140000Y-108188063D02*
X94666000Y-108188063D01*
X86334000Y-108188063D02*
X91060000Y-108188063D01*
X93140000Y-108228063D02*
X94694000Y-108228063D01*
X86306000Y-108228063D02*
X91060000Y-108228063D01*
X93140000Y-108268063D02*
X94721000Y-108268063D01*
X86279000Y-108268063D02*
X91060000Y-108268063D01*
X93140000Y-108308063D02*
X94747000Y-108308063D01*
X86253000Y-108308063D02*
X91060000Y-108308063D01*
X93140000Y-108348063D02*
X94773000Y-108348063D01*
X86227000Y-108348063D02*
X91060000Y-108348063D01*
X93140000Y-108388063D02*
X94798000Y-108388063D01*
X86202000Y-108388063D02*
X91060000Y-108388063D01*
X93140000Y-108428063D02*
X94823000Y-108428063D01*
X86177000Y-108428063D02*
X91060000Y-108428063D01*
X93140000Y-108468063D02*
X94847000Y-108468063D01*
X86153000Y-108468063D02*
X91060000Y-108468063D01*
X93140000Y-108508063D02*
X94871000Y-108508063D01*
X86129000Y-108508063D02*
X91060000Y-108508063D01*
X93140000Y-108548063D02*
X94895000Y-108548063D01*
X86105000Y-108548063D02*
X91060000Y-108548063D01*
X93140000Y-108588063D02*
X94917000Y-108588063D01*
X86083000Y-108588063D02*
X91060000Y-108588063D01*
X93140000Y-108628063D02*
X94940000Y-108628063D01*
X86060000Y-108628063D02*
X91060000Y-108628063D01*
X93140000Y-108668063D02*
X94962000Y-108668063D01*
X86038000Y-108668063D02*
X91060000Y-108668063D01*
X93140000Y-108708063D02*
X94983000Y-108708063D01*
X86017000Y-108708063D02*
X91060000Y-108708063D01*
X93140000Y-108748063D02*
X95004000Y-108748063D01*
X85996000Y-108748063D02*
X91060000Y-108748063D01*
X93140000Y-108788063D02*
X95025000Y-108788063D01*
X85975000Y-108788063D02*
X91060000Y-108788063D01*
X93140000Y-108828063D02*
X95045000Y-108828063D01*
X85955000Y-108828063D02*
X89460000Y-108828063D01*
X93140000Y-108868063D02*
X95064000Y-108868063D01*
X85936000Y-108868063D02*
X89460000Y-108868063D01*
X93140000Y-108908063D02*
X95084000Y-108908063D01*
X85916000Y-108908063D02*
X89460000Y-108908063D01*
X93140000Y-108948063D02*
X95103000Y-108948063D01*
X85897000Y-108948063D02*
X89460000Y-108948063D01*
X93140000Y-108988063D02*
X95121000Y-108988063D01*
X85879000Y-108988063D02*
X89460000Y-108988063D01*
X93140000Y-109028063D02*
X95139000Y-109028063D01*
X85861000Y-109028063D02*
X89460000Y-109028063D01*
X93140000Y-109068063D02*
X95157000Y-109068063D01*
X85843000Y-109068063D02*
X89460000Y-109068063D01*
X93140000Y-109108063D02*
X95174000Y-109108063D01*
X85826000Y-109108063D02*
X89460000Y-109108063D01*
X93140000Y-109148063D02*
X95190000Y-109148063D01*
X85810000Y-109148063D02*
X89460000Y-109148063D01*
X93140000Y-109188063D02*
X95207000Y-109188063D01*
X85793000Y-109188063D02*
X89460000Y-109188063D01*
X93140000Y-109228063D02*
X95223000Y-109228063D01*
X85777000Y-109228063D02*
X89460000Y-109228063D01*
X93140000Y-109268063D02*
X95238000Y-109268063D01*
X85762000Y-109268063D02*
X89460000Y-109268063D01*
X93140000Y-109308063D02*
X95254000Y-109308063D01*
X85746000Y-109308063D02*
X89460000Y-109308063D01*
X93140000Y-109348063D02*
X95268000Y-109348063D01*
X85732000Y-109348063D02*
X89460000Y-109348063D01*
X93140000Y-109388063D02*
X95283000Y-109388063D01*
X85717000Y-109388063D02*
X89460000Y-109388063D01*
X93140000Y-109428063D02*
X95297000Y-109428063D01*
X85703000Y-109428063D02*
X89460000Y-109428063D01*
X93140000Y-109468063D02*
X95311000Y-109468063D01*
X85689000Y-109468063D02*
X89460000Y-109468063D01*
X93140000Y-109508063D02*
X95324000Y-109508063D01*
X85676000Y-109508063D02*
X89460000Y-109508063D01*
X93140000Y-109548063D02*
X95337000Y-109548063D01*
X85663000Y-109548063D02*
X89460000Y-109548063D01*
X93140000Y-109588063D02*
X95350000Y-109588063D01*
X85650000Y-109588063D02*
X89460000Y-109588063D01*
X93140000Y-109628063D02*
X95362000Y-109628063D01*
X85638000Y-109628063D02*
X89460000Y-109628063D01*
X93140000Y-109668063D02*
X95374000Y-109668063D01*
X85626000Y-109668063D02*
X89460000Y-109668063D01*
X93140000Y-109708063D02*
X95385000Y-109708063D01*
X85615000Y-109708063D02*
X89460000Y-109708063D01*
X93140000Y-109748063D02*
X95397000Y-109748063D01*
X85603000Y-109748063D02*
X89460000Y-109748063D01*
X93140000Y-109788063D02*
X95407000Y-109788063D01*
X85593000Y-109788063D02*
X89460000Y-109788063D01*
X93140000Y-109828063D02*
X95418000Y-109828063D01*
X85582000Y-109828063D02*
X89460000Y-109828063D01*
X93140000Y-109868063D02*
X95428000Y-109868063D01*
X85572000Y-109868063D02*
X89460000Y-109868063D01*
X93140000Y-109908063D02*
X95438000Y-109908063D01*
X85562000Y-109908063D02*
X89460000Y-109908063D01*
X93140000Y-109948063D02*
X95447000Y-109948063D01*
X85553000Y-109948063D02*
X89460000Y-109948063D01*
X93140000Y-109988063D02*
X95456000Y-109988063D01*
X85544000Y-109988063D02*
X89460000Y-109988063D01*
X93140000Y-110028063D02*
X95465000Y-110028063D01*
X85535000Y-110028063D02*
X89460000Y-110028063D01*
X93140000Y-110068063D02*
X95474000Y-110068063D01*
X85526000Y-110068063D02*
X89460000Y-110068063D01*
X93140000Y-110108063D02*
X95482000Y-110108063D01*
X85518000Y-110108063D02*
X89460000Y-110108063D01*
X93140000Y-110148063D02*
X95490000Y-110148063D01*
X85510000Y-110148063D02*
X89460000Y-110148063D01*
X93140000Y-110188063D02*
X95497000Y-110188063D01*
X85503000Y-110188063D02*
X89460000Y-110188063D01*
X91540000Y-110228063D02*
X95504000Y-110228063D01*
X85496000Y-110228063D02*
X89460000Y-110228063D01*
X91540000Y-110268063D02*
X95511000Y-110268063D01*
X85489000Y-110268063D02*
X89460000Y-110268063D01*
X91540000Y-110308063D02*
X95518000Y-110308063D01*
X85482000Y-110308063D02*
X89460000Y-110308063D01*
X91540000Y-110348063D02*
X95524000Y-110348063D01*
X85476000Y-110348063D02*
X89460000Y-110348063D01*
X91540000Y-110388063D02*
X95530000Y-110388063D01*
X85470000Y-110388063D02*
X89460000Y-110388063D01*
X91540000Y-110429063D02*
X95535000Y-110429063D01*
X85465000Y-110429063D02*
X89460000Y-110429063D01*
X91540000Y-110469063D02*
X95540000Y-110469063D01*
X85460000Y-110469063D02*
X89460000Y-110469063D01*
X91540000Y-110509063D02*
X95545000Y-110509063D01*
X85455000Y-110509063D02*
X89460000Y-110509063D01*
X91540000Y-110549063D02*
X95550000Y-110549063D01*
X85450000Y-110549063D02*
X89460000Y-110549063D01*
X91540000Y-110589063D02*
X95554000Y-110589063D01*
X85446000Y-110589063D02*
X89460000Y-110589063D01*
X91540000Y-110629063D02*
X95558000Y-110629063D01*
X85442000Y-110629063D02*
X89460000Y-110629063D01*
X91540000Y-110669063D02*
X95562000Y-110669063D01*
X85438000Y-110669063D02*
X89460000Y-110669063D01*
X91540000Y-110709063D02*
X95565000Y-110709063D01*
X85435000Y-110709063D02*
X89460000Y-110709063D01*
X91540000Y-110749063D02*
X95568000Y-110749063D01*
X85432000Y-110749063D02*
X89460000Y-110749063D01*
X91540000Y-110789063D02*
X95570000Y-110789063D01*
X85430000Y-110789063D02*
X89460000Y-110789063D01*
X91540000Y-110829063D02*
X95573000Y-110829063D01*
X85427000Y-110829063D02*
X89460000Y-110829063D01*
X91540000Y-110869063D02*
X95575000Y-110869063D01*
X85425000Y-110869063D02*
X89460000Y-110869063D01*
X85423000Y-110909063D02*
X95577000Y-110909063D01*
X85422000Y-110949063D02*
X95578000Y-110949063D01*
X85421000Y-110989063D02*
X95579000Y-110989063D01*
X85420000Y-111029063D02*
X95580000Y-111029063D01*
X85420000Y-111069063D02*
X95580000Y-111069063D01*
X85420000Y-111109063D02*
X95580000Y-111109063D01*
X95620000Y-111109063D02*
G75*
G03*
X95620000Y-111109063I-5120000J0D01*
G01*
X99190000Y-116088709D02*
X100190000Y-116088709D01*
X99690000Y-116588709D02*
X99690000Y-115588709D01*
X101966000Y-106028063D02*
X103164000Y-106028063D01*
X101703000Y-106068063D02*
X103427000Y-106068063D01*
X101503000Y-106108063D02*
X103627000Y-106108063D01*
X101335000Y-106148063D02*
X103795000Y-106148063D01*
X101187000Y-106188063D02*
X103943000Y-106188063D01*
X101055000Y-106228063D02*
X104075000Y-106228063D01*
X100935000Y-106268063D02*
X104195000Y-106268063D01*
X100823000Y-106308063D02*
X104307000Y-106308063D01*
X100719000Y-106348063D02*
X104411000Y-106348063D01*
X100621000Y-106388063D02*
X104509000Y-106388063D01*
X100528000Y-106428063D02*
X104602000Y-106428063D01*
X100440000Y-106468063D02*
X104690000Y-106468063D01*
X100356000Y-106508063D02*
X104774000Y-106508063D01*
X100276000Y-106548063D02*
X104854000Y-106548063D01*
X100200000Y-106588063D02*
X104930000Y-106588063D01*
X100126000Y-106628063D02*
X105004000Y-106628063D01*
X100055000Y-106668063D02*
X105075000Y-106668063D01*
X99986000Y-106708063D02*
X105144000Y-106708063D01*
X99920000Y-106748063D02*
X105210000Y-106748063D01*
X99856000Y-106788063D02*
X105274000Y-106788063D01*
X99795000Y-106828063D02*
X105335000Y-106828063D01*
X99735000Y-106868063D02*
X105395000Y-106868063D01*
X99676000Y-106908063D02*
X105454000Y-106908063D01*
X99620000Y-106948063D02*
X105510000Y-106948063D01*
X99565000Y-106988063D02*
X105565000Y-106988063D01*
X99511000Y-107028063D02*
X105619000Y-107028063D01*
X99459000Y-107068063D02*
X105671000Y-107068063D01*
X99409000Y-107108063D02*
X105721000Y-107108063D01*
X99359000Y-107148063D02*
X105771000Y-107148063D01*
X99311000Y-107188063D02*
X105819000Y-107188063D01*
X99264000Y-107228063D02*
X105866000Y-107228063D01*
X99218000Y-107268063D02*
X105912000Y-107268063D01*
X99173000Y-107308063D02*
X105957000Y-107308063D01*
X99129000Y-107348063D02*
X106001000Y-107348063D01*
X99087000Y-107388063D02*
X106043000Y-107388063D01*
X99045000Y-107428063D02*
X106085000Y-107428063D01*
X99004000Y-107468063D02*
X106126000Y-107468063D01*
X98964000Y-107508063D02*
X106166000Y-107508063D01*
X98925000Y-107548063D02*
X106205000Y-107548063D01*
X98886000Y-107588063D02*
X106244000Y-107588063D01*
X98849000Y-107628063D02*
X106281000Y-107628063D01*
X98812000Y-107668063D02*
X106318000Y-107668063D01*
X98776000Y-107708063D02*
X106354000Y-107708063D01*
X98741000Y-107748063D02*
X106389000Y-107748063D01*
X98707000Y-107788063D02*
X106423000Y-107788063D01*
X98673000Y-107828063D02*
X106457000Y-107828063D01*
X98640000Y-107868063D02*
X106490000Y-107868063D01*
X98608000Y-107908063D02*
X106522000Y-107908063D01*
X98576000Y-107948063D02*
X106554000Y-107948063D01*
X98545000Y-107988063D02*
X106585000Y-107988063D01*
X98515000Y-108028063D02*
X106615000Y-108028063D01*
X98485000Y-108068063D02*
X106645000Y-108068063D01*
X98455000Y-108108063D02*
X106675000Y-108108063D01*
X105205000Y-108148063D02*
X106703000Y-108148063D01*
X98427000Y-108148063D02*
X103125000Y-108148063D01*
X105205000Y-108188063D02*
X106731000Y-108188063D01*
X98399000Y-108188063D02*
X103125000Y-108188063D01*
X105205000Y-108228063D02*
X106759000Y-108228063D01*
X98371000Y-108228063D02*
X103125000Y-108228063D01*
X105205000Y-108268063D02*
X106786000Y-108268063D01*
X98344000Y-108268063D02*
X103125000Y-108268063D01*
X105205000Y-108308063D02*
X106812000Y-108308063D01*
X98318000Y-108308063D02*
X103125000Y-108308063D01*
X105205000Y-108348063D02*
X106838000Y-108348063D01*
X98292000Y-108348063D02*
X103125000Y-108348063D01*
X105205000Y-108388063D02*
X106863000Y-108388063D01*
X98267000Y-108388063D02*
X103125000Y-108388063D01*
X105205000Y-108428063D02*
X106888000Y-108428063D01*
X98242000Y-108428063D02*
X103125000Y-108428063D01*
X105205000Y-108468063D02*
X106912000Y-108468063D01*
X98218000Y-108468063D02*
X103125000Y-108468063D01*
X105205000Y-108508063D02*
X106936000Y-108508063D01*
X98194000Y-108508063D02*
X103125000Y-108508063D01*
X105205000Y-108548063D02*
X106960000Y-108548063D01*
X98170000Y-108548063D02*
X103125000Y-108548063D01*
X105205000Y-108588063D02*
X106982000Y-108588063D01*
X98148000Y-108588063D02*
X103125000Y-108588063D01*
X105205000Y-108628063D02*
X107005000Y-108628063D01*
X98125000Y-108628063D02*
X103125000Y-108628063D01*
X105205000Y-108668063D02*
X107027000Y-108668063D01*
X98103000Y-108668063D02*
X103125000Y-108668063D01*
X105205000Y-108708063D02*
X107048000Y-108708063D01*
X98082000Y-108708063D02*
X103125000Y-108708063D01*
X105205000Y-108748063D02*
X107069000Y-108748063D01*
X98061000Y-108748063D02*
X103125000Y-108748063D01*
X105205000Y-108788063D02*
X107090000Y-108788063D01*
X98040000Y-108788063D02*
X103125000Y-108788063D01*
X105205000Y-108828063D02*
X107110000Y-108828063D01*
X98020000Y-108828063D02*
X101525000Y-108828063D01*
X105205000Y-108868063D02*
X107129000Y-108868063D01*
X98001000Y-108868063D02*
X101525000Y-108868063D01*
X105205000Y-108908063D02*
X107149000Y-108908063D01*
X97981000Y-108908063D02*
X101525000Y-108908063D01*
X105205000Y-108948063D02*
X107168000Y-108948063D01*
X97962000Y-108948063D02*
X101525000Y-108948063D01*
X105205000Y-108988063D02*
X107186000Y-108988063D01*
X97944000Y-108988063D02*
X101525000Y-108988063D01*
X105205000Y-109028063D02*
X107204000Y-109028063D01*
X97926000Y-109028063D02*
X101525000Y-109028063D01*
X105205000Y-109068063D02*
X107222000Y-109068063D01*
X97908000Y-109068063D02*
X101525000Y-109068063D01*
X105205000Y-109108063D02*
X107239000Y-109108063D01*
X97891000Y-109108063D02*
X101525000Y-109108063D01*
X105205000Y-109148063D02*
X107255000Y-109148063D01*
X97875000Y-109148063D02*
X101525000Y-109148063D01*
X105205000Y-109188063D02*
X107272000Y-109188063D01*
X97858000Y-109188063D02*
X101525000Y-109188063D01*
X105205000Y-109228063D02*
X107288000Y-109228063D01*
X97842000Y-109228063D02*
X101525000Y-109228063D01*
X105205000Y-109268063D02*
X107303000Y-109268063D01*
X97827000Y-109268063D02*
X101525000Y-109268063D01*
X105205000Y-109308063D02*
X107319000Y-109308063D01*
X97811000Y-109308063D02*
X101525000Y-109308063D01*
X105205000Y-109348063D02*
X107333000Y-109348063D01*
X97797000Y-109348063D02*
X101525000Y-109348063D01*
X105205000Y-109388063D02*
X107348000Y-109388063D01*
X97782000Y-109388063D02*
X101525000Y-109388063D01*
X105205000Y-109428063D02*
X107362000Y-109428063D01*
X97768000Y-109428063D02*
X101525000Y-109428063D01*
X105205000Y-109468063D02*
X107376000Y-109468063D01*
X97754000Y-109468063D02*
X101525000Y-109468063D01*
X105205000Y-109508063D02*
X107389000Y-109508063D01*
X97741000Y-109508063D02*
X101525000Y-109508063D01*
X105205000Y-109548063D02*
X107402000Y-109548063D01*
X97728000Y-109548063D02*
X101525000Y-109548063D01*
X105205000Y-109588063D02*
X107415000Y-109588063D01*
X97715000Y-109588063D02*
X101525000Y-109588063D01*
X105205000Y-109628063D02*
X107427000Y-109628063D01*
X97703000Y-109628063D02*
X101525000Y-109628063D01*
X105205000Y-109668063D02*
X107439000Y-109668063D01*
X97691000Y-109668063D02*
X101525000Y-109668063D01*
X105205000Y-109708063D02*
X107450000Y-109708063D01*
X97680000Y-109708063D02*
X101525000Y-109708063D01*
X105205000Y-109748063D02*
X107462000Y-109748063D01*
X97668000Y-109748063D02*
X101525000Y-109748063D01*
X105205000Y-109788063D02*
X107472000Y-109788063D01*
X97658000Y-109788063D02*
X101525000Y-109788063D01*
X105205000Y-109828063D02*
X107483000Y-109828063D01*
X97647000Y-109828063D02*
X101525000Y-109828063D01*
X105205000Y-109868063D02*
X107493000Y-109868063D01*
X97637000Y-109868063D02*
X101525000Y-109868063D01*
X105205000Y-109908063D02*
X107503000Y-109908063D01*
X97627000Y-109908063D02*
X101525000Y-109908063D01*
X105205000Y-109948063D02*
X107512000Y-109948063D01*
X97618000Y-109948063D02*
X101525000Y-109948063D01*
X105205000Y-109988063D02*
X107521000Y-109988063D01*
X97609000Y-109988063D02*
X101525000Y-109988063D01*
X105205000Y-110028063D02*
X107530000Y-110028063D01*
X97600000Y-110028063D02*
X101525000Y-110028063D01*
X105205000Y-110068063D02*
X107539000Y-110068063D01*
X97591000Y-110068063D02*
X101525000Y-110068063D01*
X105205000Y-110108063D02*
X107547000Y-110108063D01*
X97583000Y-110108063D02*
X101525000Y-110108063D01*
X105205000Y-110148063D02*
X107555000Y-110148063D01*
X97575000Y-110148063D02*
X101525000Y-110148063D01*
X105205000Y-110188063D02*
X107562000Y-110188063D01*
X97568000Y-110188063D02*
X101525000Y-110188063D01*
X103605000Y-110228063D02*
X107569000Y-110228063D01*
X97561000Y-110228063D02*
X101525000Y-110228063D01*
X103605000Y-110268063D02*
X107576000Y-110268063D01*
X97554000Y-110268063D02*
X101525000Y-110268063D01*
X103605000Y-110308063D02*
X107583000Y-110308063D01*
X97547000Y-110308063D02*
X101525000Y-110308063D01*
X103605000Y-110348063D02*
X107589000Y-110348063D01*
X97541000Y-110348063D02*
X101525000Y-110348063D01*
X103605000Y-110388063D02*
X107595000Y-110388063D01*
X97535000Y-110388063D02*
X101525000Y-110388063D01*
X103605000Y-110429063D02*
X107600000Y-110429063D01*
X97530000Y-110429063D02*
X101525000Y-110429063D01*
X103605000Y-110469063D02*
X107605000Y-110469063D01*
X97525000Y-110469063D02*
X101525000Y-110469063D01*
X103605000Y-110509063D02*
X107610000Y-110509063D01*
X97520000Y-110509063D02*
X101525000Y-110509063D01*
X103605000Y-110549063D02*
X107615000Y-110549063D01*
X97515000Y-110549063D02*
X101525000Y-110549063D01*
X103605000Y-110589063D02*
X107619000Y-110589063D01*
X97511000Y-110589063D02*
X101525000Y-110589063D01*
X103605000Y-110629063D02*
X107623000Y-110629063D01*
X97507000Y-110629063D02*
X101525000Y-110629063D01*
X103605000Y-110669063D02*
X107627000Y-110669063D01*
X97503000Y-110669063D02*
X101525000Y-110669063D01*
X103605000Y-110709063D02*
X107630000Y-110709063D01*
X97500000Y-110709063D02*
X101525000Y-110709063D01*
X103605000Y-110749063D02*
X107633000Y-110749063D01*
X97497000Y-110749063D02*
X101525000Y-110749063D01*
X103605000Y-110789063D02*
X107635000Y-110789063D01*
X97495000Y-110789063D02*
X101525000Y-110789063D01*
X103605000Y-110829063D02*
X107638000Y-110829063D01*
X97492000Y-110829063D02*
X101525000Y-110829063D01*
X103605000Y-110869063D02*
X107640000Y-110869063D01*
X97490000Y-110869063D02*
X101525000Y-110869063D01*
X97488000Y-110909063D02*
X107642000Y-110909063D01*
X97487000Y-110949063D02*
X107643000Y-110949063D01*
X97486000Y-110989063D02*
X107644000Y-110989063D01*
X97485000Y-111029063D02*
X107645000Y-111029063D01*
X97485000Y-111069063D02*
X107645000Y-111069063D01*
X97485000Y-111109063D02*
X107645000Y-111109063D01*
X107685000Y-111109063D02*
G75*
G03*
X107685000Y-111109063I-5120000J0D01*
G01*
X78840000Y-101600000D02*
X76100000Y-101600000D01*
X78840000Y-91360000D02*
X76100000Y-91360000D01*
X76100000Y-91360000D02*
X76100000Y-101600000D01*
X78840000Y-91360000D02*
X78840000Y-101600000D01*
X94715000Y-175895000D02*
X91975000Y-175895000D01*
X94715000Y-165655000D02*
X91975000Y-165655000D01*
X91975000Y-165655000D02*
X91975000Y-175895000D01*
X94715000Y-165655000D02*
X94715000Y-175895000D01*
X70945000Y-33239698D02*
X71745000Y-33239698D01*
X71345000Y-33639698D02*
X71345000Y-32839698D01*
X73127000Y-25149000D02*
X74193000Y-25149000D01*
X72892000Y-25189000D02*
X74428000Y-25189000D01*
X72712000Y-25229000D02*
X74608000Y-25229000D01*
X72562000Y-25269000D02*
X74758000Y-25269000D01*
X72431000Y-25309000D02*
X74889000Y-25309000D01*
X72314000Y-25349000D02*
X75006000Y-25349000D01*
X72207000Y-25389000D02*
X75113000Y-25389000D01*
X72108000Y-25429000D02*
X75212000Y-25429000D01*
X72015000Y-25469000D02*
X75305000Y-25469000D01*
X71929000Y-25509000D02*
X75391000Y-25509000D01*
X71847000Y-25549000D02*
X75473000Y-25549000D01*
X71770000Y-25589000D02*
X75550000Y-25589000D01*
X71696000Y-25629000D02*
X75624000Y-25629000D01*
X71626000Y-25669000D02*
X75694000Y-25669000D01*
X71558000Y-25709000D02*
X75762000Y-25709000D01*
X71494000Y-25749000D02*
X75826000Y-25749000D01*
X71432000Y-25789000D02*
X75888000Y-25789000D01*
X71373000Y-25829000D02*
X75947000Y-25829000D01*
X71315000Y-25869000D02*
X76005000Y-25869000D01*
X71260000Y-25909000D02*
X76060000Y-25909000D01*
X71206000Y-25949000D02*
X76114000Y-25949000D01*
X71155000Y-25989000D02*
X76165000Y-25989000D01*
X71104000Y-26029000D02*
X76216000Y-26029000D01*
X71056000Y-26069000D02*
X76264000Y-26069000D01*
X71009000Y-26109000D02*
X76311000Y-26109000D01*
X70963000Y-26149000D02*
X76357000Y-26149000D01*
X70919000Y-26189000D02*
X76401000Y-26189000D01*
X70876000Y-26229000D02*
X76444000Y-26229000D01*
X70834000Y-26269000D02*
X76486000Y-26269000D01*
X70793000Y-26309000D02*
X76527000Y-26309000D01*
X70753000Y-26349000D02*
X76567000Y-26349000D01*
X70715000Y-26389000D02*
X76605000Y-26389000D01*
X70677000Y-26429000D02*
X76643000Y-26429000D01*
X70641000Y-26469000D02*
X76679000Y-26469000D01*
X70605000Y-26509000D02*
X76715000Y-26509000D01*
X70570000Y-26549000D02*
X76750000Y-26549000D01*
X70536000Y-26589000D02*
X76784000Y-26589000D01*
X70504000Y-26629000D02*
X76816000Y-26629000D01*
X70471000Y-26669000D02*
X76849000Y-26669000D01*
X70440000Y-26709000D02*
X76880000Y-26709000D01*
X70410000Y-26749000D02*
X76910000Y-26749000D01*
X70380000Y-26789000D02*
X76940000Y-26789000D01*
X70351000Y-26829000D02*
X76969000Y-26829000D01*
X70322000Y-26869000D02*
X76998000Y-26869000D01*
X70295000Y-26909000D02*
X77025000Y-26909000D01*
X74700000Y-26949000D02*
X77052000Y-26949000D01*
X70268000Y-26949000D02*
X72620000Y-26949000D01*
X74700000Y-26989000D02*
X77078000Y-26989000D01*
X70242000Y-26989000D02*
X72620000Y-26989000D01*
X74700000Y-27029000D02*
X77104000Y-27029000D01*
X70216000Y-27029000D02*
X72620000Y-27029000D01*
X74700000Y-27069000D02*
X77129000Y-27069000D01*
X70191000Y-27069000D02*
X72620000Y-27069000D01*
X74700000Y-27109000D02*
X77153000Y-27109000D01*
X70167000Y-27109000D02*
X72620000Y-27109000D01*
X74700000Y-27149000D02*
X77177000Y-27149000D01*
X70143000Y-27149000D02*
X72620000Y-27149000D01*
X74700000Y-27189000D02*
X77200000Y-27189000D01*
X70120000Y-27189000D02*
X72620000Y-27189000D01*
X74700000Y-27229000D02*
X77222000Y-27229000D01*
X70098000Y-27229000D02*
X72620000Y-27229000D01*
X74700000Y-27269000D02*
X77244000Y-27269000D01*
X70076000Y-27269000D02*
X72620000Y-27269000D01*
X74700000Y-27309000D02*
X77266000Y-27309000D01*
X70054000Y-27309000D02*
X72620000Y-27309000D01*
X74700000Y-27349000D02*
X77287000Y-27349000D01*
X70033000Y-27349000D02*
X72620000Y-27349000D01*
X74700000Y-27389000D02*
X77307000Y-27389000D01*
X70013000Y-27389000D02*
X72620000Y-27389000D01*
X74700000Y-27429000D02*
X77326000Y-27429000D01*
X69994000Y-27429000D02*
X72620000Y-27429000D01*
X74700000Y-27469000D02*
X77346000Y-27469000D01*
X69974000Y-27469000D02*
X72620000Y-27469000D01*
X74700000Y-27509000D02*
X77364000Y-27509000D01*
X69956000Y-27509000D02*
X72620000Y-27509000D01*
X74700000Y-27549000D02*
X77382000Y-27549000D01*
X69938000Y-27549000D02*
X72620000Y-27549000D01*
X74700000Y-27589000D02*
X77400000Y-27589000D01*
X69920000Y-27589000D02*
X72620000Y-27589000D01*
X74700000Y-27629000D02*
X77417000Y-27629000D01*
X69903000Y-27629000D02*
X72620000Y-27629000D01*
X74700000Y-27669000D02*
X77434000Y-27669000D01*
X69886000Y-27669000D02*
X72620000Y-27669000D01*
X74700000Y-27709000D02*
X77450000Y-27709000D01*
X69870000Y-27709000D02*
X72620000Y-27709000D01*
X74700000Y-27749000D02*
X77465000Y-27749000D01*
X69855000Y-27749000D02*
X72620000Y-27749000D01*
X74700000Y-27789000D02*
X77481000Y-27789000D01*
X69839000Y-27789000D02*
X72620000Y-27789000D01*
X74700000Y-27829000D02*
X77495000Y-27829000D01*
X69825000Y-27829000D02*
X72620000Y-27829000D01*
X74700000Y-27869000D02*
X77510000Y-27869000D01*
X69810000Y-27869000D02*
X72620000Y-27869000D01*
X74700000Y-27909000D02*
X77523000Y-27909000D01*
X69797000Y-27909000D02*
X72620000Y-27909000D01*
X74700000Y-27949000D02*
X77537000Y-27949000D01*
X69783000Y-27949000D02*
X72620000Y-27949000D01*
X74700000Y-27989000D02*
X77549000Y-27989000D01*
X69771000Y-27989000D02*
X72620000Y-27989000D01*
X74700000Y-28029000D02*
X77562000Y-28029000D01*
X69758000Y-28029000D02*
X72620000Y-28029000D01*
X74700000Y-28069000D02*
X77574000Y-28069000D01*
X69746000Y-28069000D02*
X72620000Y-28069000D01*
X74700000Y-28109000D02*
X77585000Y-28109000D01*
X69735000Y-28109000D02*
X72620000Y-28109000D01*
X74700000Y-28149000D02*
X77596000Y-28149000D01*
X69724000Y-28149000D02*
X72620000Y-28149000D01*
X74700000Y-28189000D02*
X77607000Y-28189000D01*
X69713000Y-28189000D02*
X72620000Y-28189000D01*
X74700000Y-28229000D02*
X77617000Y-28229000D01*
X69703000Y-28229000D02*
X72620000Y-28229000D01*
X74700000Y-28269000D02*
X77627000Y-28269000D01*
X69693000Y-28269000D02*
X72620000Y-28269000D01*
X74700000Y-28309000D02*
X77636000Y-28309000D01*
X69684000Y-28309000D02*
X72620000Y-28309000D01*
X74700000Y-28349000D02*
X77645000Y-28349000D01*
X69675000Y-28349000D02*
X72620000Y-28349000D01*
X74700000Y-28389000D02*
X77654000Y-28389000D01*
X69666000Y-28389000D02*
X72620000Y-28389000D01*
X74700000Y-28429000D02*
X77662000Y-28429000D01*
X69658000Y-28429000D02*
X72620000Y-28429000D01*
X74700000Y-28469000D02*
X77670000Y-28469000D01*
X69650000Y-28469000D02*
X72620000Y-28469000D01*
X74700000Y-28509000D02*
X77677000Y-28509000D01*
X69643000Y-28509000D02*
X72620000Y-28509000D01*
X74700000Y-28550000D02*
X77684000Y-28550000D01*
X69636000Y-28550000D02*
X72620000Y-28550000D01*
X74700000Y-28590000D02*
X77690000Y-28590000D01*
X69630000Y-28590000D02*
X72620000Y-28590000D01*
X74700000Y-28630000D02*
X77697000Y-28630000D01*
X69623000Y-28630000D02*
X72620000Y-28630000D01*
X74700000Y-28670000D02*
X77702000Y-28670000D01*
X69618000Y-28670000D02*
X72620000Y-28670000D01*
X74700000Y-28710000D02*
X77708000Y-28710000D01*
X69612000Y-28710000D02*
X72620000Y-28710000D01*
X74700000Y-28750000D02*
X77712000Y-28750000D01*
X69608000Y-28750000D02*
X72620000Y-28750000D01*
X74700000Y-28790000D02*
X77717000Y-28790000D01*
X69603000Y-28790000D02*
X72620000Y-28790000D01*
X74700000Y-28830000D02*
X77721000Y-28830000D01*
X69599000Y-28830000D02*
X72620000Y-28830000D01*
X74700000Y-28870000D02*
X77725000Y-28870000D01*
X69595000Y-28870000D02*
X72620000Y-28870000D01*
X74700000Y-28910000D02*
X77728000Y-28910000D01*
X69592000Y-28910000D02*
X72620000Y-28910000D01*
X74700000Y-28950000D02*
X77731000Y-28950000D01*
X69589000Y-28950000D02*
X72620000Y-28950000D01*
X74700000Y-28990000D02*
X77734000Y-28990000D01*
X69586000Y-28990000D02*
X72620000Y-28990000D01*
X69584000Y-29030000D02*
X77736000Y-29030000D01*
X69583000Y-29070000D02*
X77737000Y-29070000D01*
X69581000Y-29110000D02*
X77739000Y-29110000D01*
X69580000Y-29150000D02*
X77740000Y-29150000D01*
X69580000Y-29190000D02*
X77740000Y-29190000D01*
X69580000Y-29230000D02*
X77740000Y-29230000D01*
X77780000Y-29230000D02*
G75*
G03*
X77780000Y-29230000I-4120000J0D01*
G01*
X97155000Y-122020000D02*
X97155000Y-119280000D01*
X107395000Y-122020000D02*
X107395000Y-119280000D01*
X107395000Y-119280000D02*
X97155000Y-119280000D01*
X107395000Y-122020000D02*
X97155000Y-122020000D01*
X71220000Y-60325000D02*
X68480000Y-60325000D01*
X71220000Y-50085000D02*
X68480000Y-50085000D01*
X68480000Y-50085000D02*
X68480000Y-60325000D01*
X71220000Y-50085000D02*
X71220000Y-60325000D01*
X69315000Y-175975000D02*
X66575000Y-175975000D01*
X69315000Y-165735000D02*
X66575000Y-165735000D01*
X66575000Y-165735000D02*
X66575000Y-175975000D01*
X69315000Y-165735000D02*
X69315000Y-175975000D01*
X69315000Y-149305000D02*
X66575000Y-149305000D01*
X69315000Y-139065000D02*
X66575000Y-139065000D01*
X66575000Y-139065000D02*
X66575000Y-149305000D01*
X69315000Y-139065000D02*
X69315000Y-149305000D01*
X106145000Y-101600000D02*
X103405000Y-101600000D01*
X106145000Y-91360000D02*
X103405000Y-91360000D01*
X103405000Y-91360000D02*
X103405000Y-101600000D01*
X106145000Y-91360000D02*
X106145000Y-101600000D01*
X73460000Y-116124646D02*
X74460000Y-116124646D01*
X73960000Y-116624646D02*
X73960000Y-115624646D01*
X76236000Y-106064000D02*
X77434000Y-106064000D01*
X75973000Y-106104000D02*
X77697000Y-106104000D01*
X75773000Y-106144000D02*
X77897000Y-106144000D01*
X75605000Y-106184000D02*
X78065000Y-106184000D01*
X75457000Y-106224000D02*
X78213000Y-106224000D01*
X75325000Y-106264000D02*
X78345000Y-106264000D01*
X75205000Y-106304000D02*
X78465000Y-106304000D01*
X75093000Y-106344000D02*
X78577000Y-106344000D01*
X74989000Y-106384000D02*
X78681000Y-106384000D01*
X74891000Y-106424000D02*
X78779000Y-106424000D01*
X74798000Y-106464000D02*
X78872000Y-106464000D01*
X74710000Y-106504000D02*
X78960000Y-106504000D01*
X74626000Y-106544000D02*
X79044000Y-106544000D01*
X74546000Y-106584000D02*
X79124000Y-106584000D01*
X74470000Y-106624000D02*
X79200000Y-106624000D01*
X74396000Y-106664000D02*
X79274000Y-106664000D01*
X74325000Y-106704000D02*
X79345000Y-106704000D01*
X74256000Y-106744000D02*
X79414000Y-106744000D01*
X74190000Y-106784000D02*
X79480000Y-106784000D01*
X74126000Y-106824000D02*
X79544000Y-106824000D01*
X74065000Y-106864000D02*
X79605000Y-106864000D01*
X74005000Y-106904000D02*
X79665000Y-106904000D01*
X73946000Y-106944000D02*
X79724000Y-106944000D01*
X73890000Y-106984000D02*
X79780000Y-106984000D01*
X73835000Y-107024000D02*
X79835000Y-107024000D01*
X73781000Y-107064000D02*
X79889000Y-107064000D01*
X73729000Y-107104000D02*
X79941000Y-107104000D01*
X73679000Y-107144000D02*
X79991000Y-107144000D01*
X73629000Y-107184000D02*
X80041000Y-107184000D01*
X73581000Y-107224000D02*
X80089000Y-107224000D01*
X73534000Y-107264000D02*
X80136000Y-107264000D01*
X73488000Y-107304000D02*
X80182000Y-107304000D01*
X73443000Y-107344000D02*
X80227000Y-107344000D01*
X73399000Y-107384000D02*
X80271000Y-107384000D01*
X73357000Y-107424000D02*
X80313000Y-107424000D01*
X73315000Y-107464000D02*
X80355000Y-107464000D01*
X73274000Y-107504000D02*
X80396000Y-107504000D01*
X73234000Y-107544000D02*
X80436000Y-107544000D01*
X73195000Y-107584000D02*
X80475000Y-107584000D01*
X73156000Y-107624000D02*
X80514000Y-107624000D01*
X73119000Y-107664000D02*
X80551000Y-107664000D01*
X73082000Y-107704000D02*
X80588000Y-107704000D01*
X73046000Y-107744000D02*
X80624000Y-107744000D01*
X73011000Y-107784000D02*
X80659000Y-107784000D01*
X72977000Y-107824000D02*
X80693000Y-107824000D01*
X72943000Y-107864000D02*
X80727000Y-107864000D01*
X72910000Y-107904000D02*
X80760000Y-107904000D01*
X72878000Y-107944000D02*
X80792000Y-107944000D01*
X72846000Y-107984000D02*
X80824000Y-107984000D01*
X72815000Y-108024000D02*
X80855000Y-108024000D01*
X72785000Y-108064000D02*
X80885000Y-108064000D01*
X72755000Y-108104000D02*
X80915000Y-108104000D01*
X72725000Y-108144000D02*
X80945000Y-108144000D01*
X79475000Y-108184000D02*
X80973000Y-108184000D01*
X72697000Y-108184000D02*
X77395000Y-108184000D01*
X79475000Y-108224000D02*
X81001000Y-108224000D01*
X72669000Y-108224000D02*
X77395000Y-108224000D01*
X79475000Y-108264000D02*
X81029000Y-108264000D01*
X72641000Y-108264000D02*
X77395000Y-108264000D01*
X79475000Y-108304000D02*
X81056000Y-108304000D01*
X72614000Y-108304000D02*
X77395000Y-108304000D01*
X79475000Y-108344000D02*
X81082000Y-108344000D01*
X72588000Y-108344000D02*
X77395000Y-108344000D01*
X79475000Y-108384000D02*
X81108000Y-108384000D01*
X72562000Y-108384000D02*
X77395000Y-108384000D01*
X79475000Y-108424000D02*
X81133000Y-108424000D01*
X72537000Y-108424000D02*
X77395000Y-108424000D01*
X79475000Y-108464000D02*
X81158000Y-108464000D01*
X72512000Y-108464000D02*
X77395000Y-108464000D01*
X79475000Y-108504000D02*
X81182000Y-108504000D01*
X72488000Y-108504000D02*
X77395000Y-108504000D01*
X79475000Y-108544000D02*
X81206000Y-108544000D01*
X72464000Y-108544000D02*
X77395000Y-108544000D01*
X79475000Y-108584000D02*
X81230000Y-108584000D01*
X72440000Y-108584000D02*
X77395000Y-108584000D01*
X79475000Y-108624000D02*
X81252000Y-108624000D01*
X72418000Y-108624000D02*
X77395000Y-108624000D01*
X79475000Y-108664000D02*
X81275000Y-108664000D01*
X72395000Y-108664000D02*
X77395000Y-108664000D01*
X79475000Y-108704000D02*
X81297000Y-108704000D01*
X72373000Y-108704000D02*
X77395000Y-108704000D01*
X79475000Y-108744000D02*
X81318000Y-108744000D01*
X72352000Y-108744000D02*
X77395000Y-108744000D01*
X79475000Y-108784000D02*
X81339000Y-108784000D01*
X72331000Y-108784000D02*
X77395000Y-108784000D01*
X79475000Y-108824000D02*
X81360000Y-108824000D01*
X72310000Y-108824000D02*
X77395000Y-108824000D01*
X79475000Y-108864000D02*
X81380000Y-108864000D01*
X72290000Y-108864000D02*
X75795000Y-108864000D01*
X79475000Y-108904000D02*
X81399000Y-108904000D01*
X72271000Y-108904000D02*
X75795000Y-108904000D01*
X79475000Y-108944000D02*
X81419000Y-108944000D01*
X72251000Y-108944000D02*
X75795000Y-108944000D01*
X79475000Y-108984000D02*
X81438000Y-108984000D01*
X72232000Y-108984000D02*
X75795000Y-108984000D01*
X79475000Y-109024000D02*
X81456000Y-109024000D01*
X72214000Y-109024000D02*
X75795000Y-109024000D01*
X79475000Y-109064000D02*
X81474000Y-109064000D01*
X72196000Y-109064000D02*
X75795000Y-109064000D01*
X79475000Y-109104000D02*
X81492000Y-109104000D01*
X72178000Y-109104000D02*
X75795000Y-109104000D01*
X79475000Y-109144000D02*
X81509000Y-109144000D01*
X72161000Y-109144000D02*
X75795000Y-109144000D01*
X79475000Y-109184000D02*
X81525000Y-109184000D01*
X72145000Y-109184000D02*
X75795000Y-109184000D01*
X79475000Y-109224000D02*
X81542000Y-109224000D01*
X72128000Y-109224000D02*
X75795000Y-109224000D01*
X79475000Y-109264000D02*
X81558000Y-109264000D01*
X72112000Y-109264000D02*
X75795000Y-109264000D01*
X79475000Y-109304000D02*
X81573000Y-109304000D01*
X72097000Y-109304000D02*
X75795000Y-109304000D01*
X79475000Y-109344000D02*
X81589000Y-109344000D01*
X72081000Y-109344000D02*
X75795000Y-109344000D01*
X79475000Y-109384000D02*
X81603000Y-109384000D01*
X72067000Y-109384000D02*
X75795000Y-109384000D01*
X79475000Y-109424000D02*
X81618000Y-109424000D01*
X72052000Y-109424000D02*
X75795000Y-109424000D01*
X79475000Y-109464000D02*
X81632000Y-109464000D01*
X72038000Y-109464000D02*
X75795000Y-109464000D01*
X79475000Y-109504000D02*
X81646000Y-109504000D01*
X72024000Y-109504000D02*
X75795000Y-109504000D01*
X79475000Y-109544000D02*
X81659000Y-109544000D01*
X72011000Y-109544000D02*
X75795000Y-109544000D01*
X79475000Y-109584000D02*
X81672000Y-109584000D01*
X71998000Y-109584000D02*
X75795000Y-109584000D01*
X79475000Y-109624000D02*
X81685000Y-109624000D01*
X71985000Y-109624000D02*
X75795000Y-109624000D01*
X79475000Y-109664000D02*
X81697000Y-109664000D01*
X71973000Y-109664000D02*
X75795000Y-109664000D01*
X79475000Y-109704000D02*
X81709000Y-109704000D01*
X71961000Y-109704000D02*
X75795000Y-109704000D01*
X79475000Y-109744000D02*
X81720000Y-109744000D01*
X71950000Y-109744000D02*
X75795000Y-109744000D01*
X79475000Y-109784000D02*
X81732000Y-109784000D01*
X71938000Y-109784000D02*
X75795000Y-109784000D01*
X79475000Y-109824000D02*
X81742000Y-109824000D01*
X71928000Y-109824000D02*
X75795000Y-109824000D01*
X79475000Y-109864000D02*
X81753000Y-109864000D01*
X71917000Y-109864000D02*
X75795000Y-109864000D01*
X79475000Y-109904000D02*
X81763000Y-109904000D01*
X71907000Y-109904000D02*
X75795000Y-109904000D01*
X79475000Y-109944000D02*
X81773000Y-109944000D01*
X71897000Y-109944000D02*
X75795000Y-109944000D01*
X79475000Y-109984000D02*
X81782000Y-109984000D01*
X71888000Y-109984000D02*
X75795000Y-109984000D01*
X79475000Y-110024000D02*
X81791000Y-110024000D01*
X71879000Y-110024000D02*
X75795000Y-110024000D01*
X79475000Y-110064000D02*
X81800000Y-110064000D01*
X71870000Y-110064000D02*
X75795000Y-110064000D01*
X79475000Y-110104000D02*
X81809000Y-110104000D01*
X71861000Y-110104000D02*
X75795000Y-110104000D01*
X79475000Y-110144000D02*
X81817000Y-110144000D01*
X71853000Y-110144000D02*
X75795000Y-110144000D01*
X79475000Y-110184000D02*
X81825000Y-110184000D01*
X71845000Y-110184000D02*
X75795000Y-110184000D01*
X79475000Y-110224000D02*
X81832000Y-110224000D01*
X71838000Y-110224000D02*
X75795000Y-110224000D01*
X77875000Y-110264000D02*
X81839000Y-110264000D01*
X71831000Y-110264000D02*
X75795000Y-110264000D01*
X77875000Y-110304000D02*
X81846000Y-110304000D01*
X71824000Y-110304000D02*
X75795000Y-110304000D01*
X77875000Y-110344000D02*
X81853000Y-110344000D01*
X71817000Y-110344000D02*
X75795000Y-110344000D01*
X77875000Y-110384000D02*
X81859000Y-110384000D01*
X71811000Y-110384000D02*
X75795000Y-110384000D01*
X77875000Y-110424000D02*
X81865000Y-110424000D01*
X71805000Y-110424000D02*
X75795000Y-110424000D01*
X77875000Y-110465000D02*
X81870000Y-110465000D01*
X71800000Y-110465000D02*
X75795000Y-110465000D01*
X77875000Y-110505000D02*
X81875000Y-110505000D01*
X71795000Y-110505000D02*
X75795000Y-110505000D01*
X77875000Y-110545000D02*
X81880000Y-110545000D01*
X71790000Y-110545000D02*
X75795000Y-110545000D01*
X77875000Y-110585000D02*
X81885000Y-110585000D01*
X71785000Y-110585000D02*
X75795000Y-110585000D01*
X77875000Y-110625000D02*
X81889000Y-110625000D01*
X71781000Y-110625000D02*
X75795000Y-110625000D01*
X77875000Y-110665000D02*
X81893000Y-110665000D01*
X71777000Y-110665000D02*
X75795000Y-110665000D01*
X77875000Y-110705000D02*
X81897000Y-110705000D01*
X71773000Y-110705000D02*
X75795000Y-110705000D01*
X77875000Y-110745000D02*
X81900000Y-110745000D01*
X71770000Y-110745000D02*
X75795000Y-110745000D01*
X77875000Y-110785000D02*
X81903000Y-110785000D01*
X71767000Y-110785000D02*
X75795000Y-110785000D01*
X77875000Y-110825000D02*
X81905000Y-110825000D01*
X71765000Y-110825000D02*
X75795000Y-110825000D01*
X77875000Y-110865000D02*
X81908000Y-110865000D01*
X71762000Y-110865000D02*
X75795000Y-110865000D01*
X77875000Y-110905000D02*
X81910000Y-110905000D01*
X71760000Y-110905000D02*
X75795000Y-110905000D01*
X71758000Y-110945000D02*
X81912000Y-110945000D01*
X71757000Y-110985000D02*
X81913000Y-110985000D01*
X71756000Y-111025000D02*
X81914000Y-111025000D01*
X71755000Y-111065000D02*
X81915000Y-111065000D01*
X71755000Y-111105000D02*
X81915000Y-111105000D01*
X71755000Y-111145000D02*
X81915000Y-111145000D01*
X81955000Y-111145000D02*
G75*
G03*
X81955000Y-111145000I-5120000J0D01*
G01*
X60760000Y-116124646D02*
X61760000Y-116124646D01*
X61260000Y-116624646D02*
X61260000Y-115624646D01*
X63536000Y-106064000D02*
X64734000Y-106064000D01*
X63273000Y-106104000D02*
X64997000Y-106104000D01*
X63073000Y-106144000D02*
X65197000Y-106144000D01*
X62905000Y-106184000D02*
X65365000Y-106184000D01*
X62757000Y-106224000D02*
X65513000Y-106224000D01*
X62625000Y-106264000D02*
X65645000Y-106264000D01*
X62505000Y-106304000D02*
X65765000Y-106304000D01*
X62393000Y-106344000D02*
X65877000Y-106344000D01*
X62289000Y-106384000D02*
X65981000Y-106384000D01*
X62191000Y-106424000D02*
X66079000Y-106424000D01*
X62098000Y-106464000D02*
X66172000Y-106464000D01*
X62010000Y-106504000D02*
X66260000Y-106504000D01*
X61926000Y-106544000D02*
X66344000Y-106544000D01*
X61846000Y-106584000D02*
X66424000Y-106584000D01*
X61770000Y-106624000D02*
X66500000Y-106624000D01*
X61696000Y-106664000D02*
X66574000Y-106664000D01*
X61625000Y-106704000D02*
X66645000Y-106704000D01*
X61556000Y-106744000D02*
X66714000Y-106744000D01*
X61490000Y-106784000D02*
X66780000Y-106784000D01*
X61426000Y-106824000D02*
X66844000Y-106824000D01*
X61365000Y-106864000D02*
X66905000Y-106864000D01*
X61305000Y-106904000D02*
X66965000Y-106904000D01*
X61246000Y-106944000D02*
X67024000Y-106944000D01*
X61190000Y-106984000D02*
X67080000Y-106984000D01*
X61135000Y-107024000D02*
X67135000Y-107024000D01*
X61081000Y-107064000D02*
X67189000Y-107064000D01*
X61029000Y-107104000D02*
X67241000Y-107104000D01*
X60979000Y-107144000D02*
X67291000Y-107144000D01*
X60929000Y-107184000D02*
X67341000Y-107184000D01*
X60881000Y-107224000D02*
X67389000Y-107224000D01*
X60834000Y-107264000D02*
X67436000Y-107264000D01*
X60788000Y-107304000D02*
X67482000Y-107304000D01*
X60743000Y-107344000D02*
X67527000Y-107344000D01*
X60699000Y-107384000D02*
X67571000Y-107384000D01*
X60657000Y-107424000D02*
X67613000Y-107424000D01*
X60615000Y-107464000D02*
X67655000Y-107464000D01*
X60574000Y-107504000D02*
X67696000Y-107504000D01*
X60534000Y-107544000D02*
X67736000Y-107544000D01*
X60495000Y-107584000D02*
X67775000Y-107584000D01*
X60456000Y-107624000D02*
X67814000Y-107624000D01*
X60419000Y-107664000D02*
X67851000Y-107664000D01*
X60382000Y-107704000D02*
X67888000Y-107704000D01*
X60346000Y-107744000D02*
X67924000Y-107744000D01*
X60311000Y-107784000D02*
X67959000Y-107784000D01*
X60277000Y-107824000D02*
X67993000Y-107824000D01*
X60243000Y-107864000D02*
X68027000Y-107864000D01*
X60210000Y-107904000D02*
X68060000Y-107904000D01*
X60178000Y-107944000D02*
X68092000Y-107944000D01*
X60146000Y-107984000D02*
X68124000Y-107984000D01*
X60115000Y-108024000D02*
X68155000Y-108024000D01*
X60085000Y-108064000D02*
X68185000Y-108064000D01*
X60055000Y-108104000D02*
X68215000Y-108104000D01*
X60025000Y-108144000D02*
X68245000Y-108144000D01*
X66775000Y-108184000D02*
X68273000Y-108184000D01*
X59997000Y-108184000D02*
X64695000Y-108184000D01*
X66775000Y-108224000D02*
X68301000Y-108224000D01*
X59969000Y-108224000D02*
X64695000Y-108224000D01*
X66775000Y-108264000D02*
X68329000Y-108264000D01*
X59941000Y-108264000D02*
X64695000Y-108264000D01*
X66775000Y-108304000D02*
X68356000Y-108304000D01*
X59914000Y-108304000D02*
X64695000Y-108304000D01*
X66775000Y-108344000D02*
X68382000Y-108344000D01*
X59888000Y-108344000D02*
X64695000Y-108344000D01*
X66775000Y-108384000D02*
X68408000Y-108384000D01*
X59862000Y-108384000D02*
X64695000Y-108384000D01*
X66775000Y-108424000D02*
X68433000Y-108424000D01*
X59837000Y-108424000D02*
X64695000Y-108424000D01*
X66775000Y-108464000D02*
X68458000Y-108464000D01*
X59812000Y-108464000D02*
X64695000Y-108464000D01*
X66775000Y-108504000D02*
X68482000Y-108504000D01*
X59788000Y-108504000D02*
X64695000Y-108504000D01*
X66775000Y-108544000D02*
X68506000Y-108544000D01*
X59764000Y-108544000D02*
X64695000Y-108544000D01*
X66775000Y-108584000D02*
X68530000Y-108584000D01*
X59740000Y-108584000D02*
X64695000Y-108584000D01*
X66775000Y-108624000D02*
X68552000Y-108624000D01*
X59718000Y-108624000D02*
X64695000Y-108624000D01*
X66775000Y-108664000D02*
X68575000Y-108664000D01*
X59695000Y-108664000D02*
X64695000Y-108664000D01*
X66775000Y-108704000D02*
X68597000Y-108704000D01*
X59673000Y-108704000D02*
X64695000Y-108704000D01*
X66775000Y-108744000D02*
X68618000Y-108744000D01*
X59652000Y-108744000D02*
X64695000Y-108744000D01*
X66775000Y-108784000D02*
X68639000Y-108784000D01*
X59631000Y-108784000D02*
X64695000Y-108784000D01*
X66775000Y-108824000D02*
X68660000Y-108824000D01*
X59610000Y-108824000D02*
X64695000Y-108824000D01*
X66775000Y-108864000D02*
X68680000Y-108864000D01*
X59590000Y-108864000D02*
X63095000Y-108864000D01*
X66775000Y-108904000D02*
X68699000Y-108904000D01*
X59571000Y-108904000D02*
X63095000Y-108904000D01*
X66775000Y-108944000D02*
X68719000Y-108944000D01*
X59551000Y-108944000D02*
X63095000Y-108944000D01*
X66775000Y-108984000D02*
X68738000Y-108984000D01*
X59532000Y-108984000D02*
X63095000Y-108984000D01*
X66775000Y-109024000D02*
X68756000Y-109024000D01*
X59514000Y-109024000D02*
X63095000Y-109024000D01*
X66775000Y-109064000D02*
X68774000Y-109064000D01*
X59496000Y-109064000D02*
X63095000Y-109064000D01*
X66775000Y-109104000D02*
X68792000Y-109104000D01*
X59478000Y-109104000D02*
X63095000Y-109104000D01*
X66775000Y-109144000D02*
X68809000Y-109144000D01*
X59461000Y-109144000D02*
X63095000Y-109144000D01*
X66775000Y-109184000D02*
X68825000Y-109184000D01*
X59445000Y-109184000D02*
X63095000Y-109184000D01*
X66775000Y-109224000D02*
X68842000Y-109224000D01*
X59428000Y-109224000D02*
X63095000Y-109224000D01*
X66775000Y-109264000D02*
X68858000Y-109264000D01*
X59412000Y-109264000D02*
X63095000Y-109264000D01*
X66775000Y-109304000D02*
X68873000Y-109304000D01*
X59397000Y-109304000D02*
X63095000Y-109304000D01*
X66775000Y-109344000D02*
X68889000Y-109344000D01*
X59381000Y-109344000D02*
X63095000Y-109344000D01*
X66775000Y-109384000D02*
X68903000Y-109384000D01*
X59367000Y-109384000D02*
X63095000Y-109384000D01*
X66775000Y-109424000D02*
X68918000Y-109424000D01*
X59352000Y-109424000D02*
X63095000Y-109424000D01*
X66775000Y-109464000D02*
X68932000Y-109464000D01*
X59338000Y-109464000D02*
X63095000Y-109464000D01*
X66775000Y-109504000D02*
X68946000Y-109504000D01*
X59324000Y-109504000D02*
X63095000Y-109504000D01*
X66775000Y-109544000D02*
X68959000Y-109544000D01*
X59311000Y-109544000D02*
X63095000Y-109544000D01*
X66775000Y-109584000D02*
X68972000Y-109584000D01*
X59298000Y-109584000D02*
X63095000Y-109584000D01*
X66775000Y-109624000D02*
X68985000Y-109624000D01*
X59285000Y-109624000D02*
X63095000Y-109624000D01*
X66775000Y-109664000D02*
X68997000Y-109664000D01*
X59273000Y-109664000D02*
X63095000Y-109664000D01*
X66775000Y-109704000D02*
X69009000Y-109704000D01*
X59261000Y-109704000D02*
X63095000Y-109704000D01*
X66775000Y-109744000D02*
X69020000Y-109744000D01*
X59250000Y-109744000D02*
X63095000Y-109744000D01*
X66775000Y-109784000D02*
X69032000Y-109784000D01*
X59238000Y-109784000D02*
X63095000Y-109784000D01*
X66775000Y-109824000D02*
X69042000Y-109824000D01*
X59228000Y-109824000D02*
X63095000Y-109824000D01*
X66775000Y-109864000D02*
X69053000Y-109864000D01*
X59217000Y-109864000D02*
X63095000Y-109864000D01*
X66775000Y-109904000D02*
X69063000Y-109904000D01*
X59207000Y-109904000D02*
X63095000Y-109904000D01*
X66775000Y-109944000D02*
X69073000Y-109944000D01*
X59197000Y-109944000D02*
X63095000Y-109944000D01*
X66775000Y-109984000D02*
X69082000Y-109984000D01*
X59188000Y-109984000D02*
X63095000Y-109984000D01*
X66775000Y-110024000D02*
X69091000Y-110024000D01*
X59179000Y-110024000D02*
X63095000Y-110024000D01*
X66775000Y-110064000D02*
X69100000Y-110064000D01*
X59170000Y-110064000D02*
X63095000Y-110064000D01*
X66775000Y-110104000D02*
X69109000Y-110104000D01*
X59161000Y-110104000D02*
X63095000Y-110104000D01*
X66775000Y-110144000D02*
X69117000Y-110144000D01*
X59153000Y-110144000D02*
X63095000Y-110144000D01*
X66775000Y-110184000D02*
X69125000Y-110184000D01*
X59145000Y-110184000D02*
X63095000Y-110184000D01*
X66775000Y-110224000D02*
X69132000Y-110224000D01*
X59138000Y-110224000D02*
X63095000Y-110224000D01*
X65175000Y-110264000D02*
X69139000Y-110264000D01*
X59131000Y-110264000D02*
X63095000Y-110264000D01*
X65175000Y-110304000D02*
X69146000Y-110304000D01*
X59124000Y-110304000D02*
X63095000Y-110304000D01*
X65175000Y-110344000D02*
X69153000Y-110344000D01*
X59117000Y-110344000D02*
X63095000Y-110344000D01*
X65175000Y-110384000D02*
X69159000Y-110384000D01*
X59111000Y-110384000D02*
X63095000Y-110384000D01*
X65175000Y-110424000D02*
X69165000Y-110424000D01*
X59105000Y-110424000D02*
X63095000Y-110424000D01*
X65175000Y-110465000D02*
X69170000Y-110465000D01*
X59100000Y-110465000D02*
X63095000Y-110465000D01*
X65175000Y-110505000D02*
X69175000Y-110505000D01*
X59095000Y-110505000D02*
X63095000Y-110505000D01*
X65175000Y-110545000D02*
X69180000Y-110545000D01*
X59090000Y-110545000D02*
X63095000Y-110545000D01*
X65175000Y-110585000D02*
X69185000Y-110585000D01*
X59085000Y-110585000D02*
X63095000Y-110585000D01*
X65175000Y-110625000D02*
X69189000Y-110625000D01*
X59081000Y-110625000D02*
X63095000Y-110625000D01*
X65175000Y-110665000D02*
X69193000Y-110665000D01*
X59077000Y-110665000D02*
X63095000Y-110665000D01*
X65175000Y-110705000D02*
X69197000Y-110705000D01*
X59073000Y-110705000D02*
X63095000Y-110705000D01*
X65175000Y-110745000D02*
X69200000Y-110745000D01*
X59070000Y-110745000D02*
X63095000Y-110745000D01*
X65175000Y-110785000D02*
X69203000Y-110785000D01*
X59067000Y-110785000D02*
X63095000Y-110785000D01*
X65175000Y-110825000D02*
X69205000Y-110825000D01*
X59065000Y-110825000D02*
X63095000Y-110825000D01*
X65175000Y-110865000D02*
X69208000Y-110865000D01*
X59062000Y-110865000D02*
X63095000Y-110865000D01*
X65175000Y-110905000D02*
X69210000Y-110905000D01*
X59060000Y-110905000D02*
X63095000Y-110905000D01*
X59058000Y-110945000D02*
X69212000Y-110945000D01*
X59057000Y-110985000D02*
X69213000Y-110985000D01*
X59056000Y-111025000D02*
X69214000Y-111025000D01*
X59055000Y-111065000D02*
X69215000Y-111065000D01*
X59055000Y-111105000D02*
X69215000Y-111105000D01*
X59055000Y-111145000D02*
X69215000Y-111145000D01*
X69255000Y-111145000D02*
G75*
G03*
X69255000Y-111145000I-5120000J0D01*
G01*
D16*
X47803600Y-116586000D02*
G75*
G03*
X47803600Y-116586000I-1448600J0D01*
G01*
X47803600Y-121285000D02*
G75*
G03*
X47803600Y-121285000I-1448600J0D01*
G01*
X47803600Y-125984000D02*
G75*
G03*
X47803600Y-125984000I-1448600J0D01*
G01*
X48438600Y-101219000D02*
G75*
G03*
X48438600Y-101219000I-1448600J0D01*
G01*
X48438600Y-96520000D02*
G75*
G03*
X48438600Y-96520000I-1448600J0D01*
G01*
X48438600Y-91821000D02*
G75*
G03*
X48438600Y-91821000I-1448600J0D01*
G01*
X128702600Y-140335000D02*
G75*
G03*
X128702600Y-140335000I-1448600J0D01*
G01*
X124003600Y-140335000D02*
G75*
G03*
X124003600Y-140335000I-1448600J0D01*
G01*
X119304600Y-140335000D02*
G75*
G03*
X119304600Y-140335000I-1448600J0D01*
G01*
X122098600Y-82169000D02*
G75*
G03*
X122098600Y-82169000I-1448600J0D01*
G01*
X122098600Y-77470000D02*
G75*
G03*
X122098600Y-77470000I-1448600J0D01*
G01*
X122098600Y-72771000D02*
G75*
G03*
X122098600Y-72771000I-1448600J0D01*
G01*
X111938600Y-82169000D02*
G75*
G03*
X111938600Y-82169000I-1448600J0D01*
G01*
X111938600Y-77470000D02*
G75*
G03*
X111938600Y-77470000I-1448600J0D01*
G01*
X111938600Y-72771000D02*
G75*
G03*
X111938600Y-72771000I-1448600J0D01*
G01*
X101778600Y-82169000D02*
G75*
G03*
X101778600Y-82169000I-1448600J0D01*
G01*
X101778600Y-77470000D02*
G75*
G03*
X101778600Y-77470000I-1448600J0D01*
G01*
X101778600Y-72771000D02*
G75*
G03*
X101778600Y-72771000I-1448600J0D01*
G01*
X91618600Y-82169000D02*
G75*
G03*
X91618600Y-82169000I-1448600J0D01*
G01*
X91618600Y-77470000D02*
G75*
G03*
X91618600Y-77470000I-1448600J0D01*
G01*
X91618600Y-72771000D02*
G75*
G03*
X91618600Y-72771000I-1448600J0D01*
G01*
X81458600Y-82169000D02*
G75*
G03*
X81458600Y-82169000I-1448600J0D01*
G01*
X81458600Y-77470000D02*
G75*
G03*
X81458600Y-77470000I-1448600J0D01*
G01*
X81458600Y-72771000D02*
G75*
G03*
X81458600Y-72771000I-1448600J0D01*
G01*
X71298600Y-82169000D02*
G75*
G03*
X71298600Y-82169000I-1448600J0D01*
G01*
X71298600Y-77470000D02*
G75*
G03*
X71298600Y-77470000I-1448600J0D01*
G01*
X71298600Y-72771000D02*
G75*
G03*
X71298600Y-72771000I-1448600J0D01*
G01*
X61138600Y-82169000D02*
G75*
G03*
X61138600Y-82169000I-1448600J0D01*
G01*
X61138600Y-77470000D02*
G75*
G03*
X61138600Y-77470000I-1448600J0D01*
G01*
X61138600Y-72771000D02*
G75*
G03*
X61138600Y-72771000I-1448600J0D01*
G01*
X50978600Y-82169000D02*
G75*
G03*
X50978600Y-82169000I-1448600J0D01*
G01*
X50978600Y-77470000D02*
G75*
G03*
X50978600Y-77470000I-1448600J0D01*
G01*
X50978600Y-72771000D02*
G75*
G03*
X50978600Y-72771000I-1448600J0D01*
G01*
M02*
