G04 #@! TF.GenerationSoftware,KiCad,Pcbnew,(5.1.7)-1*
G04 #@! TF.CreationDate,2020-12-28T01:09:54+01:00*
G04 #@! TF.ProjectId,EinTaktReset,45696e54-616b-4745-9265-7365742e6b69,rev?*
G04 #@! TF.SameCoordinates,Original*
G04 #@! TF.FileFunction,Legend,Bot*
G04 #@! TF.FilePolarity,Positive*
%FSLAX46Y46*%
G04 Gerber Fmt 4.6, Leading zero omitted, Abs format (unit mm)*
G04 Created by KiCad (PCBNEW (5.1.7)-1) date 2020-12-28 01:09:54*
%MOMM*%
%LPD*%
G01*
G04 APERTURE LIST*
%ADD10C,0.150000*%
%ADD11C,0.170000*%
G04 APERTURE END LIST*
D10*
X68754047Y-177887380D02*
X68754047Y-178601666D01*
X68801666Y-178744523D01*
X68896904Y-178839761D01*
X69039761Y-178887380D01*
X69135000Y-178887380D01*
X67801666Y-178887380D02*
X68277857Y-178887380D01*
X68277857Y-177887380D01*
X66896904Y-178792142D02*
X66944523Y-178839761D01*
X67087380Y-178887380D01*
X67182619Y-178887380D01*
X67325476Y-178839761D01*
X67420714Y-178744523D01*
X67468333Y-178649285D01*
X67515952Y-178458809D01*
X67515952Y-178315952D01*
X67468333Y-178125476D01*
X67420714Y-178030238D01*
X67325476Y-177935000D01*
X67182619Y-177887380D01*
X67087380Y-177887380D01*
X66944523Y-177935000D01*
X66896904Y-177982619D01*
X66182619Y-177887380D02*
X66182619Y-178601666D01*
X66230238Y-178744523D01*
X66325476Y-178839761D01*
X66468333Y-178887380D01*
X66563571Y-178887380D01*
X65230238Y-178887380D02*
X65706428Y-178887380D01*
X65706428Y-177887380D01*
X64325476Y-178792142D02*
X64373095Y-178839761D01*
X64515952Y-178887380D01*
X64611190Y-178887380D01*
X64754047Y-178839761D01*
X64849285Y-178744523D01*
X64896904Y-178649285D01*
X64944523Y-178458809D01*
X64944523Y-178315952D01*
X64896904Y-178125476D01*
X64849285Y-178030238D01*
X64754047Y-177935000D01*
X64611190Y-177887380D01*
X64515952Y-177887380D01*
X64373095Y-177935000D01*
X64325476Y-177982619D01*
X63611190Y-177887380D02*
X63611190Y-178601666D01*
X63658809Y-178744523D01*
X63754047Y-178839761D01*
X63896904Y-178887380D01*
X63992142Y-178887380D01*
X62658809Y-178887380D02*
X63135000Y-178887380D01*
X63135000Y-177887380D01*
X61754047Y-178792142D02*
X61801666Y-178839761D01*
X61944523Y-178887380D01*
X62039761Y-178887380D01*
X62182619Y-178839761D01*
X62277857Y-178744523D01*
X62325476Y-178649285D01*
X62373095Y-178458809D01*
X62373095Y-178315952D01*
X62325476Y-178125476D01*
X62277857Y-178030238D01*
X62182619Y-177935000D01*
X62039761Y-177887380D01*
X61944523Y-177887380D01*
X61801666Y-177935000D01*
X61754047Y-177982619D01*
X61039761Y-177887380D02*
X61039761Y-178601666D01*
X61087380Y-178744523D01*
X61182619Y-178839761D01*
X61325476Y-178887380D01*
X61420714Y-178887380D01*
X60087380Y-178887380D02*
X60563571Y-178887380D01*
X60563571Y-177887380D01*
X59182619Y-178792142D02*
X59230238Y-178839761D01*
X59373095Y-178887380D01*
X59468333Y-178887380D01*
X59611190Y-178839761D01*
X59706428Y-178744523D01*
X59754047Y-178649285D01*
X59801666Y-178458809D01*
X59801666Y-178315952D01*
X59754047Y-178125476D01*
X59706428Y-178030238D01*
X59611190Y-177935000D01*
X59468333Y-177887380D01*
X59373095Y-177887380D01*
X59230238Y-177935000D01*
X59182619Y-177982619D01*
D11*
X55157380Y-178887380D02*
X55157380Y-178220714D01*
X55157380Y-178411190D02*
X55109761Y-178315952D01*
X55062142Y-178268333D01*
X54966904Y-178220714D01*
X54871666Y-178220714D01*
X54157380Y-178839761D02*
X54252619Y-178887380D01*
X54443095Y-178887380D01*
X54538333Y-178839761D01*
X54585952Y-178744523D01*
X54585952Y-178363571D01*
X54538333Y-178268333D01*
X54443095Y-178220714D01*
X54252619Y-178220714D01*
X54157380Y-178268333D01*
X54109761Y-178363571D01*
X54109761Y-178458809D01*
X54585952Y-178554047D01*
X53776428Y-178220714D02*
X53538333Y-178887380D01*
X53300238Y-178220714D01*
X52205000Y-177982619D02*
X52157380Y-177935000D01*
X52062142Y-177887380D01*
X51824047Y-177887380D01*
X51728809Y-177935000D01*
X51681190Y-177982619D01*
X51633571Y-178077857D01*
X51633571Y-178173095D01*
X51681190Y-178315952D01*
X52252619Y-178887380D01*
X51633571Y-178887380D01*
X51204999Y-178792142D02*
X51157380Y-178839761D01*
X51204999Y-178887380D01*
X51252619Y-178839761D01*
X51204999Y-178792142D01*
X51204999Y-178887380D01*
X50538333Y-177887380D02*
X50443095Y-177887380D01*
X50347857Y-177935000D01*
X50300238Y-177982619D01*
X50252619Y-178077857D01*
X50204999Y-178268333D01*
X50204999Y-178506428D01*
X50252619Y-178696904D01*
X50300238Y-178792142D01*
X50347857Y-178839761D01*
X50443095Y-178887380D01*
X50538333Y-178887380D01*
X50633571Y-178839761D01*
X50681190Y-178792142D01*
X50728809Y-178696904D01*
X50776428Y-178506428D01*
X50776428Y-178268333D01*
X50728809Y-178077857D01*
X50681190Y-177982619D01*
X50633571Y-177935000D01*
X50538333Y-177887380D01*
M02*
