G04 #@! TF.GenerationSoftware,KiCad,Pcbnew,(5.1.7)-1*
G04 #@! TF.CreationDate,2020-12-28T01:09:54+01:00*
G04 #@! TF.ProjectId,EinTaktReset,45696e54-616b-4745-9265-7365742e6b69,rev?*
G04 #@! TF.SameCoordinates,Original*
G04 #@! TF.FileFunction,Copper,L1,Top*
G04 #@! TF.FilePolarity,Positive*
%FSLAX46Y46*%
G04 Gerber Fmt 4.6, Leading zero omitted, Abs format (unit mm)*
G04 Created by KiCad (PCBNEW (5.1.7)-1) date 2020-12-28 01:09:54*
%MOMM*%
%LPD*%
G01*
G04 APERTURE LIST*
G04 #@! TA.AperFunction,ComponentPad*
%ADD10O,2.400000X2.400000*%
G04 #@! TD*
G04 #@! TA.AperFunction,ComponentPad*
%ADD11R,2.400000X2.400000*%
G04 #@! TD*
G04 #@! TA.AperFunction,ComponentPad*
%ADD12O,1.600000X1.600000*%
G04 #@! TD*
G04 #@! TA.AperFunction,ComponentPad*
%ADD13C,1.600000*%
G04 #@! TD*
G04 #@! TA.AperFunction,ComponentPad*
%ADD14R,1.600000X1.600000*%
G04 #@! TD*
G04 #@! TA.AperFunction,ComponentPad*
%ADD15C,2.000000*%
G04 #@! TD*
G04 #@! TA.AperFunction,ComponentPad*
%ADD16C,1.100000*%
G04 #@! TD*
G04 #@! TA.AperFunction,ComponentPad*
%ADD17C,2.997200*%
G04 #@! TD*
G04 #@! TA.AperFunction,ComponentPad*
%ADD18O,1.600000X2.400000*%
G04 #@! TD*
G04 #@! TA.AperFunction,ComponentPad*
%ADD19R,1.600000X2.400000*%
G04 #@! TD*
G04 #@! TA.AperFunction,ComponentPad*
%ADD20C,2.340000*%
G04 #@! TD*
G04 #@! TA.AperFunction,ComponentPad*
%ADD21O,2.190000X1.740000*%
G04 #@! TD*
G04 #@! TA.AperFunction,ComponentPad*
%ADD22O,1.700000X1.700000*%
G04 #@! TD*
G04 #@! TA.AperFunction,ComponentPad*
%ADD23R,1.700000X1.700000*%
G04 #@! TD*
G04 #@! TA.AperFunction,ComponentPad*
%ADD24O,1.740000X2.190000*%
G04 #@! TD*
G04 #@! TA.AperFunction,ComponentPad*
%ADD25C,1.800000*%
G04 #@! TD*
G04 #@! TA.AperFunction,ComponentPad*
%ADD26R,1.800000X1.800000*%
G04 #@! TD*
G04 #@! TA.AperFunction,ComponentPad*
%ADD27O,1.800000X1.800000*%
G04 #@! TD*
G04 #@! TA.AperFunction,ViaPad*
%ADD28C,1.000000*%
G04 #@! TD*
G04 #@! TA.AperFunction,Conductor*
%ADD29C,0.400000*%
G04 #@! TD*
G04 #@! TA.AperFunction,Conductor*
%ADD30C,1.000000*%
G04 #@! TD*
G04 #@! TA.AperFunction,Conductor*
%ADD31C,1.250000*%
G04 #@! TD*
G04 APERTURE END LIST*
D10*
X93345000Y-125730000D03*
D11*
X58345000Y-125730000D03*
D12*
X97155000Y-161925000D03*
D13*
X107315000Y-161925000D03*
D12*
X107315000Y-158750000D03*
D13*
X97155000Y-158750000D03*
D12*
X93980000Y-62865000D03*
X91440000Y-62865000D03*
X88900000Y-62865000D03*
X86360000Y-62865000D03*
X83820000Y-62865000D03*
X81280000Y-62865000D03*
X78740000Y-62865000D03*
X76200000Y-62865000D03*
D14*
X73660000Y-62865000D03*
D15*
X54610000Y-136525000D03*
X54610000Y-141605000D03*
X46990000Y-136525000D03*
D16*
X46990000Y-149225000D03*
X54610000Y-133985000D03*
D15*
X46990000Y-141605000D03*
X54610000Y-158750000D03*
X54610000Y-163830000D03*
X46990000Y-158750000D03*
D16*
X46990000Y-171450000D03*
X54610000Y-156210000D03*
D15*
X46990000Y-163830000D03*
D17*
X46355000Y-116586000D03*
X46355000Y-121285000D03*
X46355000Y-125984000D03*
D18*
X74930000Y-140335000D03*
X90170000Y-147955000D03*
X77470000Y-140335000D03*
X87630000Y-147955000D03*
X80010000Y-140335000D03*
X85090000Y-147955000D03*
X82550000Y-140335000D03*
X82550000Y-147955000D03*
X85090000Y-140335000D03*
X80010000Y-147955000D03*
X87630000Y-140335000D03*
X77470000Y-147955000D03*
X90170000Y-140335000D03*
D19*
X74930000Y-147955000D03*
D18*
X108585000Y-92710000D03*
X123825000Y-100330000D03*
X111125000Y-92710000D03*
X121285000Y-100330000D03*
X113665000Y-92710000D03*
X118745000Y-100330000D03*
X116205000Y-92710000D03*
X116205000Y-100330000D03*
X118745000Y-92710000D03*
X113665000Y-100330000D03*
X121285000Y-92710000D03*
X111125000Y-100330000D03*
X123825000Y-92710000D03*
D19*
X108585000Y-100330000D03*
D18*
X97155000Y-167005000D03*
X120015000Y-174625000D03*
X99695000Y-167005000D03*
X117475000Y-174625000D03*
X102235000Y-167005000D03*
X114935000Y-174625000D03*
X104775000Y-167005000D03*
X112395000Y-174625000D03*
X107315000Y-167005000D03*
X109855000Y-174625000D03*
X109855000Y-167005000D03*
X107315000Y-174625000D03*
X112395000Y-167005000D03*
X104775000Y-174625000D03*
X114935000Y-167005000D03*
X102235000Y-174625000D03*
X117475000Y-167005000D03*
X99695000Y-174625000D03*
X120015000Y-167005000D03*
D19*
X97155000Y-174625000D03*
D18*
X71755000Y-167005000D03*
X86995000Y-174625000D03*
X74295000Y-167005000D03*
X84455000Y-174625000D03*
X76835000Y-167005000D03*
X81915000Y-174625000D03*
X79375000Y-167005000D03*
X79375000Y-174625000D03*
X81915000Y-167005000D03*
X76835000Y-174625000D03*
X84455000Y-167005000D03*
X74295000Y-174625000D03*
X86995000Y-167005000D03*
D19*
X71755000Y-174625000D03*
D17*
X46990000Y-101219000D03*
X46990000Y-96520000D03*
X46990000Y-91821000D03*
X127254000Y-140335000D03*
X122555000Y-140335000D03*
X117856000Y-140335000D03*
D13*
X125095000Y-174530000D03*
D14*
X125095000Y-176530000D03*
D13*
X61595000Y-172180000D03*
D14*
X61595000Y-170180000D03*
D20*
X65405000Y-99060000D03*
X62905000Y-94060000D03*
X60405000Y-99060000D03*
D17*
X120650000Y-82169000D03*
X120650000Y-77470000D03*
X120650000Y-72771000D03*
X110490000Y-82169000D03*
X110490000Y-77470000D03*
X110490000Y-72771000D03*
X100330000Y-82169000D03*
X100330000Y-77470000D03*
X100330000Y-72771000D03*
X90170000Y-82169000D03*
X90170000Y-77470000D03*
X90170000Y-72771000D03*
X80010000Y-82169000D03*
X80010000Y-77470000D03*
X80010000Y-72771000D03*
X69850000Y-82169000D03*
X69850000Y-77470000D03*
X69850000Y-72771000D03*
X59690000Y-82169000D03*
X59690000Y-77470000D03*
X59690000Y-72771000D03*
X49530000Y-82169000D03*
X49530000Y-77470000D03*
X49530000Y-72771000D03*
D21*
X132080000Y-153670000D03*
X132080000Y-151130000D03*
G04 #@! TA.AperFunction,ComponentPad*
G36*
G01*
X131234999Y-147720000D02*
X132925001Y-147720000D01*
G75*
G02*
X133175000Y-147969999I0J-249999D01*
G01*
X133175000Y-149210001D01*
G75*
G02*
X132925001Y-149460000I-249999J0D01*
G01*
X131234999Y-149460000D01*
G75*
G02*
X130985000Y-149210001I0J249999D01*
G01*
X130985000Y-147969999D01*
G75*
G02*
X131234999Y-147720000I249999J0D01*
G01*
G37*
G04 #@! TD.AperFunction*
X132080000Y-130175000D03*
X132080000Y-127635000D03*
G04 #@! TA.AperFunction,ComponentPad*
G36*
G01*
X131234999Y-124225000D02*
X132925001Y-124225000D01*
G75*
G02*
X133175000Y-124474999I0J-249999D01*
G01*
X133175000Y-125715001D01*
G75*
G02*
X132925001Y-125965000I-249999J0D01*
G01*
X131234999Y-125965000D01*
G75*
G02*
X130985000Y-125715001I0J249999D01*
G01*
X130985000Y-124474999D01*
G75*
G02*
X131234999Y-124225000I249999J0D01*
G01*
G37*
G04 #@! TD.AperFunction*
X132080000Y-86995000D03*
X132080000Y-84455000D03*
G04 #@! TA.AperFunction,ComponentPad*
G36*
G01*
X131234999Y-81045000D02*
X132925001Y-81045000D01*
G75*
G02*
X133175000Y-81294999I0J-249999D01*
G01*
X133175000Y-82535001D01*
G75*
G02*
X132925001Y-82785000I-249999J0D01*
G01*
X131234999Y-82785000D01*
G75*
G02*
X130985000Y-82535001I0J249999D01*
G01*
X130985000Y-81294999D01*
G75*
G02*
X131234999Y-81045000I249999J0D01*
G01*
G37*
G04 #@! TD.AperFunction*
D18*
X81280000Y-92710000D03*
X99060000Y-100330000D03*
X83820000Y-92710000D03*
X96520000Y-100330000D03*
X86360000Y-92710000D03*
X93980000Y-100330000D03*
X88900000Y-92710000D03*
X91440000Y-100330000D03*
X91440000Y-92710000D03*
X88900000Y-100330000D03*
X93980000Y-92710000D03*
X86360000Y-100330000D03*
X96520000Y-92710000D03*
X83820000Y-100330000D03*
X99060000Y-92710000D03*
D19*
X81280000Y-100330000D03*
D18*
X73660000Y-51435000D03*
X96520000Y-59055000D03*
X76200000Y-51435000D03*
X93980000Y-59055000D03*
X78740000Y-51435000D03*
X91440000Y-59055000D03*
X81280000Y-51435000D03*
X88900000Y-59055000D03*
X83820000Y-51435000D03*
X86360000Y-59055000D03*
X86360000Y-51435000D03*
X83820000Y-59055000D03*
X88900000Y-51435000D03*
X81280000Y-59055000D03*
X91440000Y-51435000D03*
X78740000Y-59055000D03*
X93980000Y-51435000D03*
X76200000Y-59055000D03*
X96520000Y-51435000D03*
D19*
X73660000Y-59055000D03*
D12*
X55245000Y-90805000D03*
D13*
X55245000Y-100965000D03*
D12*
X70485000Y-100965000D03*
D13*
X70485000Y-90805000D03*
D12*
X83820000Y-88900000D03*
D13*
X93980000Y-88900000D03*
D12*
X53340000Y-116840000D03*
D13*
X53340000Y-127000000D03*
D12*
X59055000Y-149860000D03*
D13*
X59055000Y-139700000D03*
D12*
X62865000Y-139700000D03*
D13*
X62865000Y-149860000D03*
D12*
X109855000Y-125095000D03*
D13*
X120015000Y-125095000D03*
D12*
X109855000Y-128270000D03*
D13*
X120015000Y-128270000D03*
D12*
X104775000Y-155575000D03*
D13*
X94615000Y-155575000D03*
D12*
X94615000Y-152400000D03*
D13*
X104775000Y-152400000D03*
D12*
X132080000Y-64770000D03*
D13*
X132080000Y-74930000D03*
D12*
X85090000Y-179070000D03*
D13*
X95250000Y-179070000D03*
D12*
X99695000Y-179070000D03*
D13*
X109855000Y-179070000D03*
D12*
X132715000Y-97790000D03*
D13*
X132715000Y-107950000D03*
D12*
X120015000Y-161925000D03*
D13*
X109855000Y-161925000D03*
D12*
X59055000Y-163830000D03*
D13*
X59055000Y-153670000D03*
D12*
X66675000Y-153670000D03*
D13*
X66675000Y-163830000D03*
D22*
X133350000Y-59055000D03*
X130810000Y-59055000D03*
X133350000Y-56515000D03*
X130810000Y-56515000D03*
X133350000Y-53975000D03*
X130810000Y-53975000D03*
X133350000Y-51435000D03*
X130810000Y-51435000D03*
X133350000Y-48895000D03*
X130810000Y-48895000D03*
X133350000Y-46355000D03*
X130810000Y-46355000D03*
X133350000Y-43815000D03*
X130810000Y-43815000D03*
X133350000Y-41275000D03*
X130810000Y-41275000D03*
X133350000Y-38735000D03*
X130810000Y-38735000D03*
X133350000Y-36195000D03*
D23*
X130810000Y-36195000D03*
D22*
X47625000Y-59055000D03*
X45085000Y-59055000D03*
X47625000Y-56515000D03*
X45085000Y-56515000D03*
X47625000Y-53975000D03*
X45085000Y-53975000D03*
X47625000Y-51435000D03*
X45085000Y-51435000D03*
X47625000Y-48895000D03*
X45085000Y-48895000D03*
X47625000Y-46355000D03*
X45085000Y-46355000D03*
X47625000Y-43815000D03*
X45085000Y-43815000D03*
X47625000Y-41275000D03*
X45085000Y-41275000D03*
X47625000Y-38735000D03*
X45085000Y-38735000D03*
X47625000Y-36195000D03*
D23*
X45085000Y-36195000D03*
D21*
X132080000Y-168910000D03*
G04 #@! TA.AperFunction,ComponentPad*
G36*
G01*
X131234999Y-165500000D02*
X132925001Y-165500000D01*
G75*
G02*
X133175000Y-165749999I0J-249999D01*
G01*
X133175000Y-166990001D01*
G75*
G02*
X132925001Y-167240000I-249999J0D01*
G01*
X131234999Y-167240000D01*
G75*
G02*
X130985000Y-166990001I0J249999D01*
G01*
X130985000Y-165749999D01*
G75*
G02*
X131234999Y-165500000I249999J0D01*
G01*
G37*
G04 #@! TD.AperFunction*
X132080000Y-161925000D03*
G04 #@! TA.AperFunction,ComponentPad*
G36*
G01*
X131234999Y-158515000D02*
X132925001Y-158515000D01*
G75*
G02*
X133175000Y-158764999I0J-249999D01*
G01*
X133175000Y-160005001D01*
G75*
G02*
X132925001Y-160255000I-249999J0D01*
G01*
X131234999Y-160255000D01*
G75*
G02*
X130985000Y-160005001I0J249999D01*
G01*
X130985000Y-158764999D01*
G75*
G02*
X131234999Y-158515000I249999J0D01*
G01*
G37*
G04 #@! TD.AperFunction*
D24*
X52705000Y-29210000D03*
G04 #@! TA.AperFunction,ComponentPad*
G36*
G01*
X49295000Y-30055001D02*
X49295000Y-28364999D01*
G75*
G02*
X49544999Y-28115000I249999J0D01*
G01*
X50785001Y-28115000D01*
G75*
G02*
X51035000Y-28364999I0J-249999D01*
G01*
X51035000Y-30055001D01*
G75*
G02*
X50785001Y-30305000I-249999J0D01*
G01*
X49544999Y-30305000D01*
G75*
G02*
X49295000Y-30055001I0J249999D01*
G01*
G37*
G04 #@! TD.AperFunction*
D25*
X132715000Y-113030000D03*
D26*
X132715000Y-110490000D03*
D27*
X67310000Y-27940000D03*
D26*
X57150000Y-27940000D03*
D25*
X111760000Y-53975000D03*
D26*
X111760000Y-56515000D03*
D27*
X62865000Y-153670000D03*
D26*
X62865000Y-163830000D03*
D13*
X92100000Y-109188126D03*
D14*
X88900000Y-113030000D03*
D13*
X90500000Y-109859063D03*
D14*
X90500000Y-112359063D03*
D13*
X104165000Y-109188126D03*
D14*
X100965000Y-113030000D03*
D13*
X102565000Y-109859063D03*
D14*
X102565000Y-112359063D03*
D13*
X77470000Y-98980000D03*
X77470000Y-93980000D03*
X93345000Y-173275000D03*
X93345000Y-168275000D03*
X73660000Y-27980000D03*
D14*
X73660000Y-30480000D03*
D13*
X99775000Y-120650000D03*
X104775000Y-120650000D03*
X69850000Y-57705000D03*
X69850000Y-52705000D03*
X67945000Y-173355000D03*
X67945000Y-168355000D03*
X67945000Y-146685000D03*
X67945000Y-141685000D03*
X104775000Y-98980000D03*
X104775000Y-93980000D03*
X78435000Y-109224063D03*
D14*
X75235000Y-113065937D03*
D13*
X76835000Y-109895000D03*
D14*
X76835000Y-112395000D03*
D13*
X65735000Y-109224063D03*
D14*
X62535000Y-113065937D03*
D13*
X64135000Y-109895000D03*
D14*
X64135000Y-112395000D03*
D28*
X93980000Y-46355000D03*
X91440000Y-44450000D03*
X88900000Y-42545000D03*
X86360000Y-40640000D03*
X83820000Y-38735000D03*
X81280000Y-36830000D03*
X78740000Y-34925000D03*
X86995000Y-154940000D03*
X89535000Y-166370000D03*
X89535000Y-154940000D03*
D29*
X131445000Y-169545000D02*
X132080000Y-168910000D01*
X113030000Y-169545000D02*
X131445000Y-169545000D01*
X112395000Y-168910000D02*
X113030000Y-169545000D01*
X112395000Y-167005000D02*
X112395000Y-168910000D01*
X132080000Y-168910000D02*
X132080000Y-166370000D01*
X109855000Y-167005000D02*
X109855000Y-165100000D01*
X109855000Y-165100000D02*
X110490000Y-164465000D01*
X129540000Y-164465000D02*
X132080000Y-161925000D01*
X110490000Y-164465000D02*
X129540000Y-164465000D01*
X132080000Y-161925000D02*
X132080000Y-159385000D01*
D30*
X77470000Y-98980000D02*
X78660000Y-97790000D01*
X78660000Y-97790000D02*
X78740000Y-97790000D01*
X78740000Y-97790000D02*
X79375000Y-97155000D01*
X99060000Y-97790000D02*
X99060000Y-100330000D01*
X98425000Y-97155000D02*
X99060000Y-97790000D01*
X99060000Y-97790000D02*
X104140000Y-97790000D01*
X104775000Y-98425000D02*
X104775000Y-98980000D01*
X104140000Y-97790000D02*
X104775000Y-98425000D01*
X104775000Y-98980000D02*
X106600000Y-97155000D01*
X106600000Y-97155000D02*
X122555000Y-97155000D01*
X123825000Y-98425000D02*
X123825000Y-100330000D01*
X122555000Y-97155000D02*
X123825000Y-98425000D01*
X86360000Y-97155000D02*
X98425000Y-97155000D01*
D29*
X83820000Y-88900000D02*
X86360000Y-91440000D01*
X86360000Y-91440000D02*
X86360000Y-92710000D01*
X86360000Y-100330000D02*
X86360000Y-99060000D01*
X86360000Y-99060000D02*
X85725000Y-98425000D01*
X85725000Y-98425000D02*
X85725000Y-97155000D01*
D30*
X85725000Y-97155000D02*
X86360000Y-97155000D01*
X79375000Y-97155000D02*
X85725000Y-97155000D01*
D31*
X55245000Y-90805000D02*
X65405000Y-90805000D01*
X73580000Y-98980000D02*
X77470000Y-98980000D01*
X65405000Y-90805000D02*
X73580000Y-98980000D01*
D30*
X93345000Y-173275000D02*
X95170000Y-171450000D01*
X95170000Y-171450000D02*
X119380000Y-171450000D01*
X120015000Y-172085000D02*
X120015000Y-174625000D01*
X119380000Y-171450000D02*
X120015000Y-172085000D01*
X91995000Y-174625000D02*
X93345000Y-173275000D01*
X86995000Y-174625000D02*
X91995000Y-174625000D01*
X86995000Y-172720000D02*
X86995000Y-174625000D01*
X69175000Y-172045000D02*
X86360000Y-172085000D01*
X86360000Y-172085000D02*
X86995000Y-172720000D01*
X67945000Y-173275000D02*
X69175000Y-172045000D01*
D29*
X124460000Y-97790000D02*
X123825000Y-98425000D01*
X132715000Y-97790000D02*
X124460000Y-97790000D01*
X125000000Y-174625000D02*
X125095000Y-174530000D01*
X120015000Y-174625000D02*
X125000000Y-174625000D01*
D30*
X90170000Y-145415000D02*
X90170000Y-147955000D01*
X89535000Y-144780000D02*
X90170000Y-145415000D01*
X69850000Y-144780000D02*
X89535000Y-144780000D01*
X67945000Y-146685000D02*
X69850000Y-144780000D01*
D29*
X123444000Y-144145000D02*
X127254000Y-140335000D01*
X95885000Y-144145000D02*
X123444000Y-144145000D01*
X92075000Y-147955000D02*
X95885000Y-144145000D01*
X90170000Y-147955000D02*
X92075000Y-147955000D01*
D31*
X43180000Y-33020000D02*
X41275000Y-34925000D01*
X50800000Y-33020000D02*
X43180000Y-33020000D01*
X52705000Y-31115000D02*
X50800000Y-33020000D01*
X52705000Y-29210000D02*
X52705000Y-31115000D01*
X55880000Y-29210000D02*
X57150000Y-27940000D01*
X52705000Y-29210000D02*
X55880000Y-29210000D01*
X59690000Y-30480000D02*
X57150000Y-27940000D01*
X73660000Y-30480000D02*
X59690000Y-30480000D01*
X41275000Y-34925000D02*
X41275000Y-62230000D01*
D30*
X72390000Y-52705000D02*
X73660000Y-51435000D01*
X69850000Y-52705000D02*
X72390000Y-52705000D01*
D31*
X59055000Y-63500000D02*
X41275000Y-63500000D01*
X41275000Y-62230000D02*
X41275000Y-63500000D01*
X77470000Y-93980000D02*
X77470000Y-88265000D01*
X77470000Y-88265000D02*
X74930000Y-85725000D01*
X41275000Y-63500000D02*
X41275000Y-85725000D01*
X70485000Y-85725000D02*
X41275000Y-85725000D01*
D29*
X70485000Y-90805000D02*
X70485000Y-85725000D01*
D31*
X74930000Y-85725000D02*
X70485000Y-85725000D01*
D30*
X80010000Y-93980000D02*
X81280000Y-92710000D01*
X77470000Y-93980000D02*
X79375000Y-93980000D01*
X79375000Y-93980000D02*
X80010000Y-93980000D01*
X103505000Y-95250000D02*
X104775000Y-93980000D01*
X80645000Y-95250000D02*
X103505000Y-95250000D01*
X79375000Y-93980000D02*
X80645000Y-95250000D01*
X107315000Y-93980000D02*
X108585000Y-92710000D01*
X104775000Y-93980000D02*
X107315000Y-93980000D01*
D29*
X67945000Y-62865000D02*
X63817500Y-58737500D01*
D31*
X63817500Y-58737500D02*
X59055000Y-63500000D01*
D29*
X73660000Y-62865000D02*
X67945000Y-62865000D01*
D31*
X69850000Y-52705000D02*
X63817500Y-58737500D01*
D30*
X95885000Y-168275000D02*
X97155000Y-167005000D01*
X93345000Y-168275000D02*
X95885000Y-168275000D01*
X70485000Y-168275000D02*
X71755000Y-167005000D01*
X67945000Y-168275000D02*
X69215000Y-168275000D01*
X69215000Y-168275000D02*
X70485000Y-168275000D01*
D31*
X41275000Y-85725000D02*
X41275000Y-121920000D01*
D30*
X91440000Y-170180000D02*
X93345000Y-168275000D01*
X72390000Y-170180000D02*
X91440000Y-170180000D01*
X70485000Y-168275000D02*
X72390000Y-170180000D01*
D29*
X62865000Y-163830000D02*
X66675000Y-163830000D01*
X66675000Y-167085000D02*
X67945000Y-168355000D01*
X66675000Y-163830000D02*
X66675000Y-167085000D01*
D31*
X66595000Y-167005000D02*
X67945000Y-168355000D01*
X41910000Y-167005000D02*
X66595000Y-167005000D01*
X41275000Y-166370000D02*
X41910000Y-167005000D01*
D29*
X62865000Y-149860000D02*
X59055000Y-149860000D01*
D31*
X67945000Y-141685000D02*
X65485000Y-144145000D01*
X41275000Y-144145000D02*
X41275000Y-166370000D01*
X41275000Y-135890000D02*
X41275000Y-144145000D01*
D29*
X62865000Y-149860000D02*
X62865000Y-144145000D01*
D31*
X62865000Y-144145000D02*
X41275000Y-144145000D01*
X65485000Y-144145000D02*
X62865000Y-144145000D01*
X73660000Y-141605000D02*
X74930000Y-140335000D01*
X67945000Y-141605000D02*
X73660000Y-141605000D01*
D29*
X115316000Y-142875000D02*
X117856000Y-140335000D01*
X74295000Y-142875000D02*
X115316000Y-142875000D01*
X73660000Y-142240000D02*
X74295000Y-142875000D01*
X73660000Y-141605000D02*
X73660000Y-142240000D01*
X53340000Y-127000000D02*
X53340000Y-128270000D01*
X52070000Y-129540000D02*
X41275000Y-129540000D01*
X53340000Y-128270000D02*
X52070000Y-129540000D01*
D31*
X41275000Y-129540000D02*
X41275000Y-135890000D01*
X41275000Y-121920000D02*
X41275000Y-129540000D01*
D29*
X85090000Y-177165000D02*
X84455000Y-176530000D01*
X84455000Y-176530000D02*
X84455000Y-174625000D01*
X96520000Y-177165000D02*
X85090000Y-177165000D01*
X97155000Y-176530000D02*
X96520000Y-177165000D01*
X97155000Y-174625000D02*
X97155000Y-176530000D01*
X74930000Y-147955000D02*
X74930000Y-149225000D01*
X75565000Y-151765000D02*
X74930000Y-151130000D01*
X88900000Y-151765000D02*
X75565000Y-151765000D01*
X91440000Y-154305000D02*
X88900000Y-151765000D01*
X74930000Y-151130000D02*
X74930000Y-147955000D01*
X91440000Y-160020000D02*
X91440000Y-154305000D01*
X95250000Y-163830000D02*
X91440000Y-160020000D01*
X97790000Y-163830000D02*
X95250000Y-163830000D01*
X99695000Y-165735000D02*
X97790000Y-163830000D01*
X99695000Y-167005000D02*
X99695000Y-165735000D01*
X73660000Y-59055000D02*
X73660000Y-56515000D01*
X76200000Y-53975000D02*
X76200000Y-51435000D01*
X73660000Y-56515000D02*
X76200000Y-53975000D01*
X108585000Y-100330000D02*
X111125000Y-100330000D01*
X45085000Y-56515000D02*
X46355000Y-57785000D01*
X46355000Y-57785000D02*
X49530000Y-57785000D01*
X49530000Y-57785000D02*
X48895000Y-57785000D01*
X120650000Y-48260000D02*
X96520000Y-48260000D01*
X130810000Y-56515000D02*
X129540000Y-56515000D01*
X96520000Y-51435000D02*
X96520000Y-48260000D01*
X49530000Y-57785000D02*
X59055000Y-48260000D01*
X96520000Y-48260000D02*
X59055000Y-48260000D01*
X129540000Y-56515000D02*
X121285000Y-48260000D01*
X121285000Y-48260000D02*
X120650000Y-48260000D01*
X46355000Y-55245000D02*
X45085000Y-53975000D01*
X49530000Y-55245000D02*
X46355000Y-55245000D01*
X129540000Y-53975000D02*
X130810000Y-53975000D01*
X121285000Y-46355000D02*
X121920000Y-46355000D01*
X93980000Y-46355000D02*
X121285000Y-46355000D01*
X49530000Y-55245000D02*
X58420000Y-46355000D01*
X93980000Y-46355000D02*
X58420000Y-46355000D01*
X129540000Y-53975000D02*
X121920000Y-46355000D01*
X46355000Y-52705000D02*
X45085000Y-51435000D01*
X49530000Y-52705000D02*
X46355000Y-52705000D01*
X129540000Y-51435000D02*
X130810000Y-51435000D01*
X91440000Y-44450000D02*
X122555000Y-44450000D01*
X49530000Y-52705000D02*
X57785000Y-44450000D01*
X91440000Y-44450000D02*
X57785000Y-44450000D01*
X129540000Y-51435000D02*
X122555000Y-44450000D01*
X46355000Y-50165000D02*
X45085000Y-48895000D01*
X49530000Y-50165000D02*
X46355000Y-50165000D01*
X130810000Y-48895000D02*
X129540000Y-48895000D01*
X49530000Y-50165000D02*
X57150000Y-42545000D01*
X129540000Y-48895000D02*
X123190000Y-42545000D01*
X123190000Y-42545000D02*
X57150000Y-42545000D01*
X129540000Y-46355000D02*
X130810000Y-46355000D01*
X46355000Y-47625000D02*
X49530000Y-47625000D01*
X45085000Y-46355000D02*
X46355000Y-47625000D01*
X49530000Y-47625000D02*
X56515000Y-40640000D01*
X129540000Y-46355000D02*
X123825000Y-40640000D01*
X56515000Y-40640000D02*
X123825000Y-40640000D01*
X46355000Y-45085000D02*
X45085000Y-43815000D01*
X49530000Y-45085000D02*
X46355000Y-45085000D01*
X130810000Y-43815000D02*
X129540000Y-43815000D01*
X83820000Y-38735000D02*
X59055000Y-38735000D01*
X49530000Y-45085000D02*
X55880000Y-38735000D01*
X55880000Y-38735000D02*
X59055000Y-38735000D01*
X129540000Y-43815000D02*
X124460000Y-38735000D01*
X120015000Y-38735000D02*
X83820000Y-38735000D01*
X124460000Y-38735000D02*
X120015000Y-38735000D01*
X49530000Y-42545000D02*
X46355000Y-42545000D01*
X46355000Y-42545000D02*
X45085000Y-41275000D01*
X130810000Y-41275000D02*
X129540000Y-41275000D01*
X118745000Y-36830000D02*
X59690000Y-36830000D01*
X119380000Y-36830000D02*
X118745000Y-36830000D01*
X55245000Y-36830000D02*
X59690000Y-36830000D01*
X49530000Y-42545000D02*
X55245000Y-36830000D01*
X129540000Y-41275000D02*
X125095000Y-36830000D01*
X125095000Y-36830000D02*
X118745000Y-36830000D01*
X46355000Y-40005000D02*
X45085000Y-38735000D01*
X48895000Y-40005000D02*
X46355000Y-40005000D01*
X129540000Y-38735000D02*
X130810000Y-38735000D01*
X59055000Y-34925000D02*
X78740000Y-34925000D01*
X48895000Y-40005000D02*
X53975000Y-34925000D01*
X53975000Y-34925000D02*
X59055000Y-34925000D01*
X129540000Y-38735000D02*
X125730000Y-34925000D01*
X118110000Y-34925000D02*
X78740000Y-34925000D01*
X125730000Y-34925000D02*
X118110000Y-34925000D01*
X74295000Y-174625000D02*
X71755000Y-174625000D01*
X132080000Y-92710000D02*
X123825000Y-92710000D01*
X135255000Y-95885000D02*
X132080000Y-92710000D01*
X133985000Y-113030000D02*
X135255000Y-111760000D01*
X135255000Y-111760000D02*
X135255000Y-95885000D01*
X132715000Y-113030000D02*
X133985000Y-113030000D01*
X63464063Y-113065937D02*
X64135000Y-112395000D01*
X62535000Y-113065937D02*
X63464063Y-113065937D01*
X74564063Y-112395000D02*
X75235000Y-113065937D01*
X64135000Y-112395000D02*
X74564063Y-112395000D01*
X76164063Y-113065937D02*
X76835000Y-112395000D01*
X75235000Y-113065937D02*
X76164063Y-113065937D01*
X43815000Y-105410000D02*
X48300000Y-109895000D01*
X43815000Y-99695000D02*
X43815000Y-105410000D01*
X46990000Y-96520000D02*
X43815000Y-99695000D01*
X58345000Y-110010000D02*
X58460000Y-109895000D01*
X58345000Y-125730000D02*
X58345000Y-110010000D01*
X58460000Y-109895000D02*
X64135000Y-109895000D01*
X48300000Y-109895000D02*
X58460000Y-109895000D01*
X65064063Y-109895000D02*
X65735000Y-109224063D01*
X64135000Y-109895000D02*
X65064063Y-109895000D01*
X76835000Y-167005000D02*
X76835000Y-168275000D01*
X76835000Y-168275000D02*
X77470000Y-168910000D01*
X77470000Y-168910000D02*
X86360000Y-168910000D01*
X86360000Y-168910000D02*
X86995000Y-168275000D01*
X86995000Y-168275000D02*
X86995000Y-167005000D01*
X86995000Y-167005000D02*
X86995000Y-154940000D01*
X86995000Y-154940000D02*
X86995000Y-154940000D01*
X81915000Y-167005000D02*
X79375000Y-167005000D01*
X87630000Y-140335000D02*
X82550000Y-140335000D01*
X85090000Y-147955000D02*
X80010000Y-147955000D01*
X49530000Y-139065000D02*
X46990000Y-136525000D01*
X55245000Y-139065000D02*
X49530000Y-139065000D01*
X56515000Y-137795000D02*
X55245000Y-139065000D01*
X60960000Y-137795000D02*
X56515000Y-137795000D01*
X62865000Y-139700000D02*
X60960000Y-137795000D01*
X132715000Y-107950000D02*
X132715000Y-110490000D01*
X77764063Y-109895000D02*
X78435000Y-109224063D01*
X76835000Y-109895000D02*
X77764063Y-109895000D01*
X89865000Y-109224063D02*
X90500000Y-109859063D01*
X78435000Y-109224063D02*
X89865000Y-109224063D01*
X91429063Y-109859063D02*
X92100000Y-109188126D01*
X90500000Y-109859063D02*
X91429063Y-109859063D01*
X96513126Y-104775000D02*
X96520000Y-104775000D01*
X92100000Y-109188126D02*
X96513126Y-104775000D01*
X96520000Y-104775000D02*
X96520000Y-100330000D01*
X98425000Y-115513126D02*
X98425000Y-115574063D01*
X92100000Y-109188126D02*
X98425000Y-115513126D01*
X98425000Y-115513126D02*
X98425000Y-115570000D01*
X99775000Y-116920000D02*
X99775000Y-120650000D01*
X98425000Y-115570000D02*
X99775000Y-116920000D01*
X94695000Y-125730000D02*
X99775000Y-120650000D01*
X93345000Y-125730000D02*
X94695000Y-125730000D01*
X103235937Y-109188126D02*
X102565000Y-109859063D01*
X104165000Y-109188126D02*
X103235937Y-109188126D01*
X52070000Y-103505000D02*
X92710000Y-103505000D01*
X51435000Y-102870000D02*
X52070000Y-103505000D01*
X51435000Y-93345000D02*
X51435000Y-102870000D01*
X93980000Y-102235000D02*
X93980000Y-100330000D01*
X49911000Y-91821000D02*
X51435000Y-93345000D01*
X92710000Y-103505000D02*
X93980000Y-102235000D01*
X46990000Y-91821000D02*
X49911000Y-91821000D01*
X105410000Y-110433126D02*
X104165000Y-109188126D01*
X105410000Y-120015000D02*
X105410000Y-110433126D01*
X104775000Y-120650000D02*
X105410000Y-120015000D01*
X101635937Y-112359063D02*
X100965000Y-113030000D01*
X102565000Y-112359063D02*
X101635937Y-112359063D01*
X93980000Y-92710000D02*
X93980000Y-88900000D01*
X132080000Y-127635000D02*
X131479990Y-128235010D01*
X132080000Y-127635000D02*
X130810000Y-127635000D01*
X130810000Y-127635000D02*
X127635000Y-130810000D01*
X112395000Y-130810000D02*
X109855000Y-128270000D01*
X127635000Y-130810000D02*
X112395000Y-130810000D01*
X80010000Y-138430000D02*
X80010000Y-140335000D01*
X80645000Y-137795000D02*
X80010000Y-138430000D01*
X100330000Y-137795000D02*
X80645000Y-137795000D01*
X109855000Y-128270000D02*
X100330000Y-137795000D01*
X132080000Y-125095000D02*
X130175000Y-123190000D01*
X130175000Y-123190000D02*
X111760000Y-123190000D01*
X111760000Y-123190000D02*
X109855000Y-125095000D01*
X77470000Y-137160000D02*
X77470000Y-140335000D01*
X78105000Y-136525000D02*
X77470000Y-137160000D01*
X98425000Y-136525000D02*
X78105000Y-136525000D01*
X109855000Y-125095000D02*
X98425000Y-136525000D01*
X132080000Y-130810000D02*
X132080000Y-130175000D01*
X122555000Y-140335000D02*
X132080000Y-130810000D01*
X102235000Y-165100000D02*
X102235000Y-167005000D01*
X102235000Y-151130000D02*
X102235000Y-165100000D01*
X104775000Y-148590000D02*
X102235000Y-151130000D01*
X132080000Y-148590000D02*
X104775000Y-148590000D01*
X107315000Y-167005000D02*
X107315000Y-165100000D01*
X107315000Y-165100000D02*
X107315000Y-158750000D01*
X112395000Y-153670000D02*
X107315000Y-158750000D01*
X132080000Y-153670000D02*
X112395000Y-153670000D01*
X104775000Y-167005000D02*
X104775000Y-165100000D01*
X104775000Y-165100000D02*
X104775000Y-152400000D01*
X132080000Y-151130000D02*
X106045000Y-151130000D01*
X104775000Y-152400000D02*
X106045000Y-151130000D01*
X81915000Y-174625000D02*
X79375000Y-174625000D01*
X76835000Y-174625000D02*
X79375000Y-174625000D01*
X89535000Y-166370000D02*
X89535000Y-154940000D01*
X93980000Y-62865000D02*
X93980000Y-59055000D01*
X108585000Y-65405000D02*
X120650000Y-77470000D01*
X94615000Y-65405000D02*
X108585000Y-65405000D01*
X93980000Y-64770000D02*
X94615000Y-65405000D01*
X93980000Y-62865000D02*
X93980000Y-64770000D01*
X91440000Y-62865000D02*
X91440000Y-59055000D01*
X102870000Y-68580000D02*
X110490000Y-76200000D01*
X102870000Y-68580000D02*
X92075000Y-68580000D01*
X92075000Y-68580000D02*
X91440000Y-67945000D01*
X91440000Y-64770000D02*
X91440000Y-62865000D01*
X91440000Y-67945000D02*
X91440000Y-64770000D01*
X88900000Y-59055000D02*
X88900000Y-62865000D01*
X100330000Y-77470000D02*
X92710000Y-69850000D01*
X92710000Y-69850000D02*
X89535000Y-69850000D01*
X89535000Y-69850000D02*
X88900000Y-69215000D01*
X88900000Y-69215000D02*
X88900000Y-62865000D01*
X86360000Y-62865000D02*
X86360000Y-59055000D01*
X90170000Y-77470000D02*
X86360000Y-73660000D01*
X86360000Y-73660000D02*
X86360000Y-62865000D01*
X83820000Y-62865000D02*
X83820000Y-59055000D01*
X80010000Y-77470000D02*
X83820000Y-73660000D01*
X83820000Y-73660000D02*
X83820000Y-62865000D01*
X81280000Y-62865000D02*
X81280000Y-59055000D01*
X69850000Y-77470000D02*
X77470000Y-69850000D01*
X77470000Y-69850000D02*
X80645000Y-69850000D01*
X80645000Y-69850000D02*
X81280000Y-69215000D01*
X81280000Y-69215000D02*
X81280000Y-62865000D01*
X78740000Y-62865000D02*
X78740000Y-59055000D01*
X78740000Y-62865000D02*
X78740000Y-64770000D01*
X78105000Y-68580000D02*
X78740000Y-67945000D01*
X68580000Y-68580000D02*
X78105000Y-68580000D01*
X59690000Y-77470000D02*
X68580000Y-68580000D01*
X78740000Y-67945000D02*
X78740000Y-62865000D01*
X76200000Y-62865000D02*
X76200000Y-59055000D01*
X58420000Y-68580000D02*
X49530000Y-77470000D01*
X61595000Y-65405000D02*
X58420000Y-68580000D01*
X75565000Y-65405000D02*
X61595000Y-65405000D01*
X76200000Y-64770000D02*
X75565000Y-65405000D01*
X76200000Y-62865000D02*
X76200000Y-64770000D01*
M02*
