M48
; DRILL file {KiCad (5.1.7)-1} date 12/28/20 01:09:58
; FORMAT={-:-/ absolute / inch / decimal}
; #@! TF.CreationDate,2020-12-28T01:09:58+01:00
; #@! TF.GenerationSoftware,Kicad,Pcbnew,(5.1.7)-1
FMAT,2
INCH
T1C0.0197
T2C0.0315
T3C0.0354
T4C0.0394
T5C0.0433
T6C0.0469
T7C0.0472
T8C0.0512
T9C0.0727
T10C0.1378
%
G90
G05
T1
X3.1Y-1.375
X3.2Y-1.45
X3.3Y-1.525
X3.4Y-1.6
X3.425Y-6.1
X3.5Y-1.675
X3.525Y-6.1
X3.525Y-6.55
X3.6Y-1.75
X3.7Y-1.825
T2
X2.325Y-5.5
X2.325Y-5.9
X5.225Y-3.85
X5.225Y-4.25
X2.675Y-6.6281
X2.675Y-6.825
X2.825Y-6.575
X2.825Y-6.875
X2.925Y-6.575
X2.925Y-6.875
X3.025Y-6.575
X3.025Y-6.875
X3.125Y-6.575
X3.125Y-6.875
X3.225Y-6.575
X3.225Y-6.875
X3.325Y-6.575
X3.325Y-6.875
X3.425Y-6.575
X3.425Y-6.875
X2.625Y-6.05
X2.625Y-6.45
X3.9281Y-4.75
X4.125Y-4.75
X3.35Y-7.05
X3.75Y-7.05
X2.775Y-3.575
X2.775Y-3.975
X3.825Y-6.575
X3.825Y-6.875
X3.925Y-6.575
X3.925Y-6.875
X4.025Y-6.575
X4.025Y-6.875
X4.125Y-6.575
X4.125Y-6.875
X4.225Y-6.575
X4.225Y-6.875
X4.325Y-6.575
X4.325Y-6.875
X4.425Y-6.575
X4.425Y-6.875
X4.525Y-6.575
X4.525Y-6.875
X4.625Y-6.575
X4.625Y-6.875
X4.725Y-6.575
X4.725Y-6.875
X2.175Y-3.575
X2.175Y-3.975
X3.975Y-4.45
X4.038Y-4.3252
X4.038Y-4.4236
X4.101Y-4.2987
X3.675Y-6.625
X3.675Y-6.8219
X2.1Y-4.6
X2.1Y-5.0
X3.3Y-3.5
X3.7Y-3.5
X2.675Y-5.5781
X2.675Y-5.775
X3.5Y-4.45
X3.563Y-4.3252
X3.563Y-4.4236
X3.626Y-4.2987
X2.75Y-2.075
X2.75Y-2.2719
X4.325Y-4.925
X4.725Y-4.925
X4.325Y-5.05
X4.725Y-5.05
X3.2Y-3.65
X3.2Y-3.95
X3.3Y-3.65
X3.3Y-3.95
X3.4Y-3.65
X3.4Y-3.95
X3.5Y-3.65
X3.5Y-3.95
X3.6Y-3.65
X3.6Y-3.95
X3.7Y-3.65
X3.7Y-3.95
X3.8Y-3.65
X3.8Y-3.95
X3.9Y-3.65
X3.9Y-3.95
X2.9Y-2.025
X2.9Y-2.325
X3.0Y-2.025
X3.0Y-2.325
X3.1Y-2.025
X3.1Y-2.325
X3.2Y-2.025
X3.2Y-2.325
X3.3Y-2.025
X3.3Y-2.325
X3.4Y-2.025
X3.4Y-2.325
X3.5Y-2.025
X3.5Y-2.325
X3.6Y-2.025
X3.6Y-2.325
X3.7Y-2.025
X3.7Y-2.325
X3.8Y-2.025
X3.8Y-2.325
X2.325Y-6.05
X2.325Y-6.45
X2.475Y-5.5
X2.475Y-5.9
X4.275Y-3.65
X4.275Y-3.95
X4.375Y-3.65
X4.375Y-3.95
X4.475Y-3.65
X4.475Y-3.95
X4.575Y-3.65
X4.575Y-3.95
X4.675Y-3.65
X4.675Y-3.95
X4.775Y-3.65
X4.775Y-3.95
X4.875Y-3.65
X4.875Y-3.95
X3.825Y-6.25
X4.225Y-6.25
X2.462Y-4.4514
X2.525Y-4.3266
X2.525Y-4.425
X2.588Y-4.3002
X3.725Y-6.0
X4.125Y-6.0
X2.95Y-5.525
X2.95Y-5.825
X3.05Y-5.525
X3.05Y-5.825
X3.15Y-5.525
X3.15Y-5.825
X3.25Y-5.525
X3.25Y-5.825
X3.35Y-5.525
X3.35Y-5.825
X3.45Y-5.525
X3.45Y-5.825
X3.55Y-5.525
X3.55Y-5.825
X2.425Y-6.7
X2.425Y-6.7787
X5.2Y-2.55
X5.2Y-2.95
X3.05Y-3.7
X3.05Y-3.8969
X3.825Y-6.375
X4.225Y-6.375
X2.962Y-4.4514
X3.025Y-4.3266
X3.025Y-4.425
X3.088Y-4.3002
X3.725Y-6.125
X4.125Y-6.125
X4.925Y-6.8713
X4.925Y-6.95
X2.9Y-2.475
X3.0Y-2.475
X3.1Y-2.475
X3.2Y-2.475
X3.3Y-2.475
X3.4Y-2.475
X3.5Y-2.475
X3.6Y-2.475
X3.7Y-2.475
X2.9Y-1.1016
X2.9Y-1.2
X4.325Y-6.375
X4.725Y-6.375
X4.125Y-3.7
X4.125Y-3.8969
X3.925Y-7.05
X4.325Y-7.05
T3
X5.225Y-4.45
X2.475Y-6.05
X2.475Y-6.45
X4.4Y-2.125
X4.4Y-2.225
X2.25Y-1.1
X2.65Y-1.1
X5.225Y-4.35
T4
X1.775Y-1.425
X1.775Y-1.525
X1.775Y-1.625
X1.775Y-1.725
X1.775Y-1.825
X1.775Y-1.925
X1.775Y-2.025
X1.775Y-2.125
X1.775Y-2.225
X1.775Y-2.325
X1.875Y-1.425
X1.875Y-1.525
X1.875Y-1.625
X1.875Y-1.725
X1.875Y-1.825
X1.875Y-1.925
X1.875Y-2.025
X1.875Y-2.125
X1.875Y-2.225
X1.875Y-2.325
X1.85Y-6.25
X1.85Y-6.45
X2.15Y-6.25
X2.15Y-6.45
X5.15Y-1.425
X5.15Y-1.525
X5.15Y-1.625
X5.15Y-1.725
X5.15Y-1.825
X5.15Y-1.925
X5.15Y-2.025
X5.15Y-2.125
X5.15Y-2.225
X5.15Y-2.325
X5.25Y-1.425
X5.25Y-1.525
X5.25Y-1.625
X5.25Y-1.725
X5.25Y-1.825
X5.25Y-1.925
X5.25Y-2.025
X5.25Y-2.125
X5.25Y-2.225
X5.25Y-2.325
X1.85Y-5.375
X1.85Y-5.575
X2.15Y-5.375
X2.15Y-5.575
T5
X1.85Y-6.75
X2.15Y-6.15
X1.85Y-5.875
X2.15Y-5.275
T6
X5.2Y-3.225
X5.2Y-3.325
X5.2Y-3.425
X1.975Y-1.15
X2.075Y-1.15
X5.2Y-6.275
X5.2Y-6.375
X5.2Y-4.925
X5.2Y-5.025
X5.2Y-5.125
X5.2Y-6.55
X5.2Y-6.65
X5.2Y-5.85
X5.2Y-5.95
X5.2Y-6.05
T7
X2.297Y-4.95
X3.675Y-4.95
T8
X2.3781Y-3.9
X2.4766Y-3.7031
X2.575Y-3.9
T9
X1.825Y-4.59
X1.825Y-4.775
X1.825Y-4.96
X4.64Y-5.525
X4.825Y-5.525
X5.01Y-5.525
X1.85Y-3.615
X1.85Y-3.8
X1.85Y-3.985
X1.95Y-2.865
X1.95Y-3.05
X1.95Y-3.235
X3.15Y-2.865
X3.15Y-3.05
X3.15Y-3.235
X2.35Y-2.865
X2.35Y-3.05
X2.35Y-3.235
X4.35Y-2.865
X4.35Y-3.05
X4.35Y-3.235
X3.55Y-2.865
X3.55Y-3.05
X3.55Y-3.235
X4.75Y-2.865
X4.75Y-3.05
X4.75Y-3.235
X3.95Y-2.865
X3.95Y-3.05
X3.95Y-3.235
X2.75Y-2.865
X2.75Y-3.05
X2.75Y-3.235
T10
X1.6969Y-1.0969
X1.6969Y-7.0024
X5.2402Y-1.0969
X5.2402Y-7.0024
T0
M30
